P2
# Imagen
92 112
255
159 156 159 159 155 159 158 157 160 158 149 139 135 142 143 138 125 90 77 89 86 95 81 80 75 56 36 34 26 27 29 23 25 21 27 27 24 28 33 22 27 28 26 25 24 27 25 25 31 30 30 33 37 42 55 71 74 75 89 102 105 103 99 105 95 120 137 149 155 162 157 159 162 158 158 156 155 155 157 149 157 156 154 155 158 154 153 153 154 153 152 154 
160 157 153 159 153 158 158 156 159 155 151 135 139 136 131 125 90 59 76 91 94 92 87 78 61 36 28 32 25 30 27 21 23 21 21 25 23 25 34 22 29 24 30 22 21 24 27 23 25 29 33 26 30 34 29 36 65 47 60 68 85 97 100 101 101 108 102 117 117 143 159 158 160 162 159 154 153 154 152 153 153 158 149 155 154 156 153 155 154 152 152 154 
158 154 154 153 158 151 152 158 152 146 141 129 132 135 116 96 70 56 83 97 108 91 75 58 38 29 22 34 23 28 26 21 25 22 21 22 24 25 28 23 31 26 24 28 25 24 27 21 26 29 33 29 27 28 23 21 31 37 33 42 60 67 82 80 96 105 113 118 115 106 123 138 155 160 161 159 149 155 152 152 153 150 151 149 154 153 153 154 151 149 154 155 
148 150 151 140 145 149 153 151 144 129 127 127 121 113 93 88 81 65 82 95 93 73 47 35 29 28 18 30 26 27 27 20 23 23 21 24 27 22 27 27 28 29 24 27 24 25 25 24 26 24 29 32 33 20 27 24 23 28 26 25 29 54 54 63 59 83 93 108 120 115 119 114 114 126 156 161 160 152 155 153 154 154 153 153 147 155 154 155 155 154 152 155 
152 151 148 141 141 137 145 134 131 128 114 113 98 86 93 95 89 80 86 85 70 47 33 27 24 25 19 29 30 25 29 22 26 21 23 25 24 27 27 28 24 30 28 26 23 25 27 23 27 25 28 28 34 30 25 29 29 25 22 30 20 32 30 45 29 45 77 72 99 109 116 121 126 116 111 142 162 158 158 153 152 158 153 155 149 156 155 155 152 156 152 151 
153 152 151 147 148 137 132 121 101 83 79 74 91 91 103 104 96 86 82 65 41 32 27 32 23 23 23 23 40 23 29 26 25 24 21 24 25 30 35 28 20 37 37 25 27 20 28 30 29 30 30 30 33 38 31 32 29 30 23 19 36 20 34 32 37 23 44 52 64 84 92 111 122 132 125 104 127 158 157 153 154 150 150 150 151 156 156 154 148 157 151 152 
152 148 144 146 146 133 110 91 74 65 73 68 76 90 97 87 77 72 55 35 30 27 32 28 26 25 23 27 45 29 25 29 21 29 22 26 28 25 36 36 32 27 54 26 30 30 24 26 34 31 32 28 38 44 32 30 38 34 25 22 27 32 27 29 32 37 41 39 25 58 82 71 104 123 131 130 112 118 146 160 155 151 152 147 148 152 151 153 155 150 153 150 
153 146 145 145 134 109 78 74 70 73 79 82 82 80 79 56 44 36 34 26 35 26 33 29 23 28 27 28 38 30 28 29 26 25 29 26 29 34 37 38 35 25 51 43 23 38 25 23 40 32 35 35 39 53 38 30 39 34 37 21 32 34 30 31 34 27 42 43 34 38 51 53 67 96 125 124 129 117 107 124 158 160 150 150 149 149 151 152 152 153 151 150 
147 138 139 131 100 78 77 76 76 77 86 82 72 70 42 36 29 33 32 29 33 30 32 26 24 28 34 33 40 26 30 31 31 24 26 31 33 32 53 40 37 37 38 55 29 42 36 27 33 37 32 42 33 56 43 39 29 29 55 32 32 37 30 39 38 36 34 44 32 36 51 41 43 72 91 116 123 131 130 108 101 147 157 156 152 151 150 150 152 152 153 150 
143 138 119 100 79 76 79 83 82 91 84 80 65 39 31 31 26 23 31 32 31 31 29 25 26 29 31 41 45 38 31 38 29 26 27 34 38 31 53 46 43 52 41 50 39 38 50 30 28 45 32 45 39 45 59 41 31 16 48 57 31 41 41 46 52 42 37 41 31 31 46 62 29 50 76 87 107 120 133 127 101 107 139 160 155 149 151 150 151 149 150 150 
140 120 93 77 78 79 79 83 89 82 75 56 38 28 33 29 28 24 31 30 32 26 34 30 24 34 27 42 54 44 27 44 31 26 27 35 43 35 50 52 46 56 55 51 47 37 52 39 27 46 42 41 57 33 58 54 36 22 36 60 44 34 45 43 56 38 46 35 33 31 46 45 48 44 45 72 78 104 113 135 122 118 98 132 161 150 152 152 150 153 149 149 
115 90 77 75 82 83 82 83 89 79 50 32 28 29 38 31 31 27 31 33 35 26 41 27 26 41 28 40 50 52 27 50 39 22 29 31 50 41 53 55 46 49 64 59 55 34 50 52 36 36 50 55 60 45 44 58 44 36 28 58 47 48 28 48 55 52 39 42 32 34 46 46 40 53 45 38 62 81 89 111 138 128 108 104 138 156 153 154 147 147 153 154 
91 76 75 79 78 78 81 86 69 52 35 27 30 33 35 34 34 33 35 36 34 35 43 33 28 45 32 44 53 49 30 45 45 31 33 34 50 46 53 60 52 41 65 50 66 43 44 54 50 32 46 60 63 51 46 55 47 48 28 49 51 45 37 44 58 54 40 54 37 33 46 59 36 49 61 49 32 58 83 85 116 136 121 107 106 149 159 156 150 148 150 148 
77 83 76 84 84 89 83 72 42 33 33 34 36 33 42 31 33 40 37 36 46 35 46 38 35 51 32 43 55 52 35 47 51 39 41 34 51 52 59 53 61 46 52 51 63 48 46 50 59 40 46 54 73 38 51 56 64 34 36 45 58 53 49 46 55 46 46 64 54 35 39 60 49 48 55 65 45 36 55 92 88 118 134 124 90 137 157 152 154 152 149 149 
86 79 72 74 79 85 80 46 31 39 30 39 40 35 35 38 32 30 44 38 49 41 44 43 52 49 40 43 55 62 34 46 57 41 51 44 50 60 52 60 54 54 51 58 64 58 47 60 61 46 50 51 67 40 44 58 63 46 33 50 56 59 58 45 45 45 48 61 72 41 37 58 54 44 52 57 52 46 36 72 89 80 132 136 113 106 155 151 154 154 151 149 
85 84 82 81 83 79 53 33 35 37 38 39 41 35 41 40 39 40 35 47 50 43 42 44 55 53 42 48 59 69 43 45 59 43 54 48 49 64 52 61 59 59 60 61 61 78 53 63 66 54 64 54 55 56 48 57 59 60 43 46 62 56 61 56 35 46 47 47 66 51 39 48 60 37 59 48 54 44 49 37 87 78 118 135 124 104 130 152 146 157 151 148 
82 91 91 79 83 65 33 35 41 34 38 34 38 39 39 40 42 47 38 49 45 45 44 44 47 58 56 49 56 72 49 46 58 49 56 55 49 59 58 65 54 57 58 71 58 76 64 60 59 66 63 56 61 64 52 64 58 65 59 50 46 64 58 67 36 40 43 40 56 62 44 46 51 42 58 47 46 49 45 45 59 101 87 123 122 104 100 138 149 151 155 151 
80 99 87 80 74 51 34 44 42 40 43 37 37 42 40 45 42 48 34 50 37 50 40 50 39 60 63 45 55 69 55 54 59 60 58 54 60 66 57 67 59 50 63 71 62 67 83 72 55 69 64 57 61 75 54 54 67 64 74 58 37 67 67 73 47 37 54 34 44 68 45 43 45 54 49 52 47 44 47 55 48 84 76 107 121 119 92 111 148 155 151 154 
75 93 85 81 67 40 36 46 45 44 47 41 33 46 46 50 47 46 39 47 41 52 38 52 44 65 64 49 59 69 66 57 70 69 63 52 63 71 60 65 62 49 55 77 59 61 87 82 58 68 58 59 55 80 59 57 60 64 71 66 45 58 63 74 68 38 63 44 46 59 57 40 49 50 49 46 45 48 61 45 42 62 79 79 119 130 99 90 132 150 155 154 
86 91 83 78 53 37 37 46 51 45 51 44 41 53 50 50 54 41 51 46 53 50 43 61 45 57 59 53 59 64 64 62 63 67 66 50 62 68 61 68 58 57 50 77 59 57 74 75 60 59 57 55 46 73 67 46 62 58 78 67 56 58 60 63 76 50 65 66 41 65 58 46 44 51 45 41 53 54 56 43 46 50 70 76 110 129 121 85 104 137 151 147 
92 88 86 64 54 45 47 53 48 48 53 52 46 46 51 56 52 58 49 53 53 53 43 54 54 54 54 50 59 60 65 58 64 64 63 57 54 68 67 64 67 56 48 63 57 54 66 75 61 57 63 57 48 60 65 48 56 63 62 70 59 72 56 64 62 56 69 70 39 62 62 53 45 51 44 50 68 65 62 56 49 57 58 74 88 127 125 100 89 131 136 145 
91 82 75 44 49 53 50 49 49 47 48 49 52 49 56 60 67 59 63 52 53 59 51 52 54 59 54 53 60 67 56 58 59 60 61 62 58 63 70 59 67 58 52 62 63 59 60 75 64 54 68 62 61 50 68 49 56 72 54 70 61 69 64 63 64 53 67 68 34 60 66 54 45 56 50 59 63 64 64 63 54 63 58 69 82 107 127 115 88 124 138 144 
91 80 69 26 45 55 51 49 52 49 46 55 58 50 60 66 71 61 61 61 54 59 62 56 56 61 62 54 63 68 56 62 58 66 66 64 62 70 67 70 64 65 54 63 70 61 75 72 76 61 73 84 72 59 70 58 61 78 72 68 67 71 77 67 67 68 58 72 49 47 59 59 45 62 58 54 52 52 52 56 51 57 52 62 76 87 122 117 92 108 138 140 
83 81 56 33 29 56 53 53 56 48 56 59 67 57 55 74 74 65 56 71 63 60 66 58 62 61 68 65 71 85 66 70 71 75 80 74 70 80 72 72 67 76 65 75 71 65 79 90 86 87 94 89 88 79 75 77 73 83 85 84 87 78 91 73 81 92 62 80 60 53 62 57 55 64 61 56 54 43 54 43 44 56 42 53 65 72 118 115 98 90 132 137 
86 74 36 43 33 50 60 63 53 53 62 63 68 63 60 72 78 71 58 78 70 64 65 71 80 68 87 91 91 98 92 88 91 95 85 96 98 100 83 80 73 87 96 82 94 80 92 102 106 107 115 109 107 110 86 111 85 103 111 98 103 92 114 98 96 102 86 93 73 66 66 65 67 56 58 61 55 51 54 42 47 60 37 45 54 74 92 112 104 81 127 135 
83 63 40 34 51 43 58 64 59 55 70 62 67 58 69 66 70 79 71 79 86 76 85 88 89 88 89 112 112 105 101 112 104 109 107 113 118 113 85 97 82 91 95 103 96 96 104 109 114 118 122 129 107 124 99 120 107 119 113 111 113 110 118 111 112 111 102 92 86 76 81 79 77 61 66 60 67 57 57 56 54 54 49 54 42 71 81 118 101 95 111 144 
71 51 42 46 43 48 54 58 62 66 76 70 71 65 61 71 68 73 86 84 99 94 108 114 109 121 104 115 132 121 104 115 116 124 117 121 119 114 109 102 108 98 100 123 115 119 120 121 123 119 128 137 123 122 115 129 121 124 122 110 112 121 110 104 102 105 102 92 92 98 104 93 86 66 66 66 62 61 59 57 63 51 46 57 46 64 76 103 100 100 98 134 
69 52 42 46 46 57 59 65 65 70 73 77 79 74 63 70 83 88 87 95 101 106 117 132 128 141 134 120 131 135 127 119 123 127 126 130 122 115 131 125 122 112 120 124 128 127 137 138 132 142 131 139 135 137 128 134 133 140 133 117 126 134 111 113 97 104 100 100 104 103 100 95 94 81 67 65 61 65 62 50 57 57 44 52 35 47 76 94 103 97 89 123 
60 51 48 50 58 57 69 62 61 69 74 82 77 77 85 83 83 95 91 95 109 114 136 142 150 146 152 150 137 158 137 132 134 138 141 152 135 125 132 136 135 128 136 120 137 137 157 157 147 156 147 150 151 157 146 145 153 154 154 136 140 158 139 127 119 122 111 115 117 118 105 101 95 90 76 67 67 63 58 52 56 64 60 48 44 34 64 89 115 99 89 106 
58 56 51 52 60 62 59 64 61 71 79 86 84 93 98 96 97 105 107 97 109 126 147 164 167 173 162 167 149 164 145 154 157 164 155 174 159 149 157 163 162 164 154 157 168 159 180 181 184 181 176 175 180 173 173 173 167 170 169 162 171 175 171 157 137 144 136 137 129 133 119 117 109 106 90 68 69 63 64 51 53 67 68 49 43 44 57 77 109 106 88 97 
53 55 50 53 60 59 59 70 76 77 83 87 98 109 109 101 119 116 122 114 123 130 150 156 166 184 180 165 167 161 165 164 175 182 186 188 188 182 177 189 195 200 191 183 194 191 199 197 203 206 196 191 202 186 189 194 195 185 185 185 198 192 186 175 163 170 164 159 142 141 134 124 119 116 98 78 73 70 68 65 54 58 59 57 46 42 61 77 96 105 87 91 
48 57 55 61 68 58 69 71 72 93 77 90 108 117 116 107 113 126 129 132 124 141 159 165 170 187 192 176 168 177 167 156 182 195 205 206 206 207 207 201 216 211 209 205 211 212 218 212 212 227 219 208 217 216 213 202 216 208 193 197 195 196 191 185 179 179 184 168 156 155 146 132 124 110 107 91 79 75 76 76 61 51 59 50 56 52 61 69 103 94 100 82 
58 55 59 65 64 76 74 66 74 85 81 101 107 112 119 109 120 140 141 138 139 150 165 177 178 186 193 186 173 191 184 166 171 188 201 203 213 215 218 214 209 205 212 218 214 224 222 218 217 228 226 218 225 223 223 220 217 225 216 207 201 197 200 192 192 184 189 178 173 166 168 156 138 121 113 98 94 76 74 70 65 57 54 49 45 55 69 67 98 97 100 93 
59 58 61 61 70 71 78 68 76 85 94 103 106 115 121 123 132 138 141 143 153 164 177 186 187 188 189 195 179 179 186 174 181 186 204 205 213 225 218 220 213 213 218 220 212 227 234 217 220 225 228 221 228 226 228 223 227 225 221 209 206 198 203 197 195 185 190 185 175 171 171 174 150 132 117 105 95 81 71 58 62 61 53 55 42 40 61 68 105 104 93 91 
60 58 59 55 64 67 72 74 75 91 98 100 115 111 127 135 126 143 140 147 165 171 183 198 190 190 204 199 194 191 191 189 205 201 204 213 215 225 229 229 219 221 220 222 220 225 243 231 222 234 231 226 227 225 227 220 226 227 222 216 208 205 201 202 194 187 191 190 180 173 174 173 168 143 127 111 103 80 76 61 52 57 46 53 46 34 39 58 96 110 91 86 
49 57 59 52 56 64 72 71 82 92 95 106 116 125 127 138 125 149 146 153 170 182 190 201 187 193 208 207 208 202 200 197 207 213 215 217 217 223 231 231 226 226 220 231 224 228 237 239 225 230 233 233 228 233 232 224 232 231 229 231 214 213 207 203 199 192 191 190 182 173 179 182 169 164 135 122 113 89 76 61 49 46 38 44 49 33 29 54 85 106 91 98 
46 47 59 54 51 63 63 72 80 92 99 105 121 134 137 143 130 142 149 156 171 187 197 197 196 201 210 212 212 207 208 198 209 221 223 220 223 225 232 230 227 229 221 232 228 225 232 233 232 234 235 236 238 237 240 229 232 233 234 234 220 216 212 205 200 200 192 193 182 176 176 179 174 172 151 136 123 104 85 66 50 44 34 37 42 36 16 53 77 90 93 99 
43 45 56 56 51 56 60 66 76 91 101 111 126 143 141 145 140 144 147 160 171 189 189 194 205 207 210 212 209 212 211 213 216 224 223 225 228 228 233 234 225 229 232 239 236 231 237 236 236 241 241 236 242 241 239 232 232 232 238 234 227 220 218 209 204 202 198 196 188 179 176 177 173 177 164 148 136 114 95 74 57 42 35 27 37 31 18 40 76 84 83 85 
32 42 52 62 48 51 53 62 72 94 100 110 131 143 147 152 140 146 150 161 176 186 183 194 205 204 209 214 214 217 215 220 221 229 228 232 232 236 236 236 228 232 235 238 242 234 242 237 233 246 242 236 240 244 238 235 235 233 237 234 231 228 220 217 207 206 197 201 187 181 179 174 175 172 169 155 145 124 109 76 67 40 37 24 32 32 23 28 77 72 82 72 
29 38 51 55 48 48 51 64 66 87 104 108 133 144 151 149 150 145 157 163 171 179 183 191 205 205 213 218 218 217 217 221 227 229 231 233 234 234 238 236 233 232 237 239 244 236 242 240 235 245 245 237 238 241 237 238 237 232 237 235 230 232 223 220 211 209 201 199 192 183 180 174 171 167 166 153 145 131 110 88 65 53 34 27 27 28 22 26 80 66 80 70 
32 36 47 46 46 40 55 62 68 85 106 108 132 144 153 146 152 150 160 172 175 179 185 191 201 208 217 222 221 220 223 227 225 232 234 234 235 235 240 235 234 236 237 239 241 236 236 240 240 243 241 239 234 237 235 239 236 231 235 233 230 225 226 223 217 213 204 197 193 191 178 177 166 167 162 152 146 132 118 96 79 53 36 24 25 25 25 12 72 84 63 68 
39 41 36 38 41 40 51 54 65 82 104 108 127 143 154 145 154 152 158 170 177 175 181 191 199 210 217 226 222 219 225 228 227 228 232 235 233 235 237 235 235 237 236 238 240 236 235 239 240 243 242 237 234 235 234 235 234 230 229 230 229 222 221 222 216 212 205 201 195 188 182 170 168 160 158 154 140 134 116 101 83 61 37 21 28 24 22 22 51 83 71 57 
39 42 44 33 35 37 51 49 66 82 99 109 124 141 155 147 157 153 162 170 176 174 173 191 199 210 215 220 219 218 221 225 225 224 228 228 229 232 237 236 233 237 238 238 240 238 237 238 237 240 238 236 236 236 234 235 233 228 223 223 224 217 212 217 208 209 205 199 198 191 182 171 166 157 153 152 138 127 118 103 84 71 36 16 22 25 25 16 43 88 73 67 
33 41 47 33 31 37 45 47 65 79 90 109 123 141 151 148 152 155 159 170 171 176 180 188 197 209 212 214 216 214 217 220 222 219 222 224 220 227 232 232 236 236 236 238 238 240 239 237 235 239 236 235 236 235 232 235 228 221 219 219 221 214 209 211 204 204 201 197 191 191 180 176 159 156 146 144 141 127 116 100 84 69 42 15 14 21 18 23 41 77 71 68 
36 33 51 33 36 36 38 44 62 78 91 101 125 137 150 151 147 154 159 166 173 170 183 194 197 207 211 212 215 217 220 220 223 221 222 222 218 225 229 230 235 234 238 236 238 239 239 236 233 236 237 233 237 235 232 229 227 219 218 219 220 215 211 209 208 203 204 196 190 188 180 176 161 154 142 141 141 130 117 97 81 69 42 17 14 19 19 23 46 69 76 72 
35 28 46 36 37 32 36 40 52 79 82 106 126 136 147 154 143 150 156 161 169 177 185 198 205 210 219 217 220 220 220 223 225 223 224 223 222 226 231 228 233 234 236 239 237 236 237 236 231 234 234 234 236 233 229 225 226 221 220 222 217 218 211 211 209 203 204 203 189 189 183 175 166 155 142 135 134 130 119 95 82 70 41 18 15 17 20 24 45 59 74 74 
33 27 37 40 32 33 36 38 49 73 76 103 125 134 141 154 145 141 153 164 177 186 194 203 207 213 221 223 225 227 223 227 228 226 226 224 226 229 231 231 233 234 237 238 235 237 237 237 236 236 234 232 234 231 227 225 226 223 218 220 220 218 215 213 211 209 207 210 201 190 191 180 173 155 144 131 131 128 121 99 78 67 41 15 20 15 21 29 57 46 67 84 
36 27 23 43 33 33 33 41 51 60 72 100 124 133 138 149 146 142 153 172 183 190 197 209 212 218 217 225 226 231 230 227 230 230 230 228 229 233 233 232 234 232 236 236 237 236 235 237 234 234 234 231 231 231 228 221 226 222 222 221 223 221 216 217 212 214 212 214 209 199 191 186 178 163 146 129 125 127 125 102 76 70 36 16 18 15 14 37 65 54 57 88 
34 28 24 32 33 31 32 40 55 64 68 100 124 131 134 137 139 149 156 168 184 192 201 209 212 215 219 217 223 229 228 228 229 231 232 230 233 234 232 233 234 232 234 238 237 237 236 235 235 233 236 231 229 227 226 224 224 223 224 223 222 222 217 216 214 212 211 210 206 203 193 181 176 164 149 137 118 125 120 104 80 65 36 18 13 18 13 39 64 51 53 80 
29 33 33 23 31 30 32 41 55 63 74 95 124 132 136 134 137 151 162 168 177 189 199 206 209 211 218 219 223 230 227 231 227 228 231 230 236 235 233 233 232 231 234 237 239 237 234 234 234 233 235 233 232 229 226 225 229 226 226 222 218 217 213 211 212 207 210 204 204 200 191 186 176 165 152 141 122 121 121 104 80 69 33 19 17 15 16 37 61 65 55 76 
36 27 35 30 21 28 40 44 60 67 79 104 119 126 129 134 131 142 153 164 169 178 196 195 202 214 212 215 220 223 225 225 227 226 230 229 231 233 234 231 233 231 234 236 238 235 236 236 234 234 234 234 230 228 227 228 228 225 224 219 215 211 205 210 206 200 205 200 193 188 184 177 167 161 149 139 130 116 119 106 86 70 26 19 21 12 10 45 56 71 67 75 
45 34 28 31 28 25 37 53 57 73 88 108 127 129 121 116 117 121 136 147 159 166 188 187 187 205 213 214 218 222 218 217 223 225 225 229 226 229 233 234 233 232 233 234 235 233 236 235 234 232 236 232 229 226 228 227 227 220 220 213 208 196 191 192 192 183 181 182 176 173 166 158 145 148 150 140 132 120 117 108 88 64 25 17 25 15 10 51 57 73 69 83 
40 36 30 27 27 33 37 62 63 77 92 112 133 121 100 95 99 108 118 120 135 150 164 168 167 186 203 198 197 208 208 204 209 217 219 216 220 224 226 230 234 231 231 231 233 233 234 233 229 230 228 225 226 226 224 223 215 207 197 192 179 168 160 156 154 158 156 149 147 141 138 130 116 111 131 132 118 118 115 107 79 60 20 23 22 21 9 52 68 77 72 85 
45 30 32 32 27 41 54 69 74 83 103 121 121 93 89 84 89 97 93 107 127 140 150 151 158 163 173 176 173 171 181 180 180 195 204 205 204 210 215 220 223 223 222 221 223 227 230 226 225 225 221 221 217 217 208 198 190 173 169 167 157 149 149 145 138 133 135 130 127 121 117 108 95 81 91 117 111 109 115 110 85 51 20 22 22 26 14 41 86 81 76 97 
38 35 30 37 31 43 62 74 76 87 110 108 89 81 92 89 81 80 90 115 127 132 143 149 151 165 159 156 155 154 155 165 171 178 191 197 207 205 211 217 215 215 214 212 211 216 217 219 217 221 221 218 211 197 189 177 167 165 163 164 149 147 145 156 143 137 131 133 129 126 119 115 108 84 64 72 102 104 109 114 98 52 8 24 21 26 24 32 92 80 78 97 
40 32 31 32 36 47 64 76 77 94 108 85 83 96 106 96 89 107 116 125 127 130 135 146 142 147 153 139 148 159 154 157 163 177 184 187 201 212 217 218 222 218 215 213 214 212 214 214 214 212 217 215 200 184 186 172 172 169 167 166 152 152 154 157 160 152 153 161 163 161 152 143 131 114 76 52 58 95 106 113 112 57 7 20 20 30 33 27 82 88 83 92 
40 34 30 29 45 59 63 79 80 91 91 90 103 111 109 108 134 142 152 149 149 144 142 138 138 139 137 139 142 150 146 157 162 171 179 179 199 217 223 230 218 220 219 217 215 210 216 208 209 207 203 198 175 179 178 173 179 176 178 171 167 165 174 180 182 175 188 193 192 173 163 149 132 135 117 79 41 64 98 106 116 72 10 11 22 32 36 35 69 92 86 90 
42 42 28 32 41 65 74 76 81 90 97 111 107 99 107 133 153 152 150 143 139 128 120 113 116 126 128 133 126 123 128 141 151 164 168 167 180 201 212 224 224 213 210 210 211 210 211 205 199 192 181 169 155 156 164 167 170 178 172 172 164 161 161 159 160 148 160 169 168 149 142 138 122 121 117 98 57 42 82 96 103 81 12 14 16 35 38 46 67 96 91 85 
47 43 28 31 47 66 79 80 74 96 109 118 100 95 124 157 169 153 154 143 136 123 120 114 112 117 109 98 95 97 98 118 130 134 142 146 149 160 178 189 191 186 181 182 188 193 191 189 182 166 157 145 138 147 160 162 165 157 155 150 141 138 134 124 120 109 99 108 109 106 109 110 104 98 98 97 73 42 74 100 99 74 14 15 21 33 38 49 72 90 91 82 
40 41 34 31 55 70 84 80 76 110 121 112 98 108 134 156 152 147 154 151 141 141 141 126 119 105 94 82 95 109 120 113 115 117 138 145 135 137 151 169 175 166 162 160 158 168 175 163 154 146 135 129 134 149 151 152 153 157 146 135 128 127 114 99 86 77 57 59 75 80 74 89 96 88 92 96 109 71 92 115 110 76 15 12 20 27 41 49 78 84 88 82 
40 41 39 31 55 78 85 79 84 124 121 107 99 110 133 144 143 136 134 133 136 146 135 103 100 82 130 99 97 122 140 143 144 122 145 163 161 144 138 164 176 163 159 154 157 155 163 150 144 129 129 138 146 153 155 164 170 172 163 137 126 140 134 108 77 82 66 56 48 67 88 91 110 111 113 108 121 99 94 120 131 90 14 15 20 18 36 56 69 76 91 83 
47 37 40 40 60 84 90 80 96 135 122 108 101 109 126 141 134 122 116 136 163 179 132 90 94 67 118 140 97 127 197 167 161 166 165 183 196 178 158 177 192 183 171 173 160 164 158 153 141 127 142 155 163 172 177 178 188 215 192 159 150 168 196 106 89 95 138 115 92 66 90 127 117 119 115 110 114 104 96 116 131 108 20 10 28 25 23 48 67 74 91 84 
52 48 44 43 63 87 92 82 109 142 128 119 107 109 130 134 113 121 125 149 173 196 146 94 85 79 69 106 100 131 183 183 167 147 161 196 190 187 169 180 198 195 187 194 178 162 163 150 137 133 154 163 171 166 162 169 200 220 182 151 146 128 135 105 103 113 162 165 129 74 72 109 126 116 107 108 99 99 96 113 128 119 33 9 31 28 35 42 50 66 80 86 
54 54 48 37 59 91 90 90 121 152 139 130 130 117 131 139 119 113 140 154 180 219 189 110 103 85 88 85 102 149 173 164 171 152 140 186 196 187 179 171 188 185 187 190 175 163 160 155 134 133 150 171 180 171 169 175 199 214 187 149 144 108 103 99 103 134 159 169 152 105 71 90 119 113 115 122 105 86 96 112 128 125 52 9 28 28 30 51 50 68 53 84 
51 50 46 34 64 90 96 90 132 159 150 153 148 143 143 153 137 118 127 152 172 204 195 147 120 103 112 120 138 170 142 152 145 145 156 180 191 186 174 170 178 182 191 189 161 154 163 159 139 132 152 178 193 177 172 171 172 181 182 177 140 109 116 99 120 155 130 116 141 109 75 94 118 112 112 108 110 105 104 115 128 135 55 13 31 31 32 50 49 83 63 58 
47 42 41 43 70 96 103 95 135 158 156 163 165 163 166 167 162 136 145 155 163 190 176 149 146 140 132 132 158 182 158 136 129 134 142 164 178 178 186 161 184 205 190 174 169 155 163 161 147 144 155 187 212 176 190 207 184 181 162 191 177 140 131 140 139 125 93 88 106 126 114 114 157 147 122 101 96 113 118 123 131 138 65 21 28 34 36 52 48 76 75 75 
54 28 46 49 79 102 106 97 135 157 158 163 171 176 181 186 188 166 157 157 169 188 192 153 146 136 137 152 167 159 141 134 144 164 153 159 177 166 173 166 195 233 215 172 154 163 167 166 158 142 169 194 218 171 173 194 187 189 171 188 188 161 133 124 143 133 106 109 125 127 125 133 170 178 149 118 103 104 123 134 137 141 74 17 30 36 42 54 50 67 83 65 
54 27 47 62 74 97 109 90 136 158 155 166 170 176 191 193 195 186 181 172 172 180 187 187 178 171 164 175 168 155 149 153 175 206 195 181 186 180 174 172 215 236 225 191 170 156 171 177 167 153 173 197 223 201 176 183 184 186 187 214 192 185 141 128 133 153 131 129 137 140 135 163 185 184 156 127 104 115 122 138 146 142 74 20 34 35 38 50 52 56 85 65 
51 29 49 68 73 97 102 92 136 160 154 166 166 176 190 196 204 203 196 197 196 193 191 191 184 183 180 182 178 168 155 171 192 215 222 195 184 175 173 199 226 232 221 188 177 181 183 187 184 174 181 196 213 217 206 192 189 183 200 213 193 189 158 150 146 156 150 145 156 155 160 180 180 175 155 121 110 125 133 140 147 135 76 19 47 39 23 49 56 53 70 63 
54 43 48 78 75 81 106 95 136 157 159 163 166 178 189 200 208 205 204 205 201 203 204 200 202 203 199 198 199 194 184 188 197 214 215 222 206 195 206 213 214 212 202 189 182 192 200 193 182 187 195 202 210 214 218 219 221 209 206 206 177 177 165 165 178 174 175 170 173 172 171 167 161 160 152 125 120 132 137 148 149 130 75 14 59 45 12 45 55 61 70 76 
62 58 39 81 73 69 113 101 123 157 161 162 165 175 191 199 214 215 214 214 211 212 210 212 212 213 216 211 214 210 211 216 221 213 200 197 196 194 199 199 200 203 196 192 190 191 200 192 183 185 195 205 212 210 215 215 219 219 219 221 193 187 179 170 182 189 192 190 190 184 179 179 171 173 169 140 133 139 146 155 149 116 72 12 70 56 11 36 60 62 66 79 
56 65 56 75 68 65 102 106 114 153 159 162 163 174 189 206 213 221 220 220 217 219 214 214 212 214 214 216 219 227 231 229 230 222 213 212 208 202 205 205 204 207 193 190 193 197 205 200 195 191 190 199 209 216 216 217 222 225 230 234 214 201 198 193 188 195 204 209 214 207 200 195 188 182 171 145 143 148 151 157 140 104 68 26 76 54 12 31 59 67 68 69 
44 63 72 81 74 57 77 109 111 151 161 159 160 171 184 204 213 224 228 234 233 232 231 227 226 230 229 231 233 239 234 233 225 222 215 214 212 213 211 206 212 209 198 200 202 203 212 203 202 208 201 198 203 207 212 214 218 221 224 233 224 205 206 207 211 206 205 209 212 211 209 201 193 190 170 152 155 145 160 153 125 94 78 38 60 49 29 25 53 65 66 61 
33 55 70 85 82 69 63 117 110 148 161 164 161 166 181 197 211 220 230 233 238 241 238 236 238 239 239 237 240 242 239 236 230 226 221 218 219 221 223 213 215 209 202 208 205 210 209 203 206 217 222 213 210 206 208 210 216 218 217 228 222 201 200 209 212 213 212 205 204 203 203 198 194 192 170 155 158 149 161 159 108 106 94 44 43 29 39 33 43 50 69 65 
26 49 72 93 90 74 58 114 124 138 158 169 165 165 179 196 208 220 226 234 237 242 242 240 239 245 241 242 241 242 242 238 237 229 225 225 222 225 228 223 221 218 205 212 213 208 207 206 207 223 227 223 225 218 214 216 215 218 218 227 225 203 199 202 207 215 213 211 207 206 200 199 199 196 176 168 161 160 173 142 98 126 92 48 38 17 41 46 34 42 75 69 
19 43 71 89 83 68 54 118 132 135 144 172 170 167 177 192 205 216 220 229 235 238 240 241 243 242 243 242 242 243 243 241 239 235 230 226 225 228 230 234 234 225 214 217 215 210 208 207 213 220 224 221 231 233 233 234 233 231 233 241 234 217 208 206 209 208 213 214 213 215 212 210 207 198 177 176 164 168 181 119 108 135 87 51 34 11 43 47 39 36 72 71 
17 30 75 91 76 69 52 108 139 135 140 170 177 166 176 194 200 211 220 228 234 236 237 238 240 240 241 240 242 244 242 240 241 234 224 226 224 228 234 237 237 228 217 218 215 212 209 210 213 218 223 216 223 232 236 237 240 243 244 245 244 221 214 209 206 209 209 214 212 214 214 211 208 193 172 179 170 174 166 98 118 132 82 54 15 21 33 42 41 43 55 74 
17 10 71 96 81 84 68 94 138 127 142 167 180 170 174 191 197 206 215 227 233 233 237 238 236 239 240 240 241 241 238 235 237 229 215 224 232 228 238 241 240 228 219 214 215 209 207 210 214 212 219 217 213 222 234 238 242 245 246 248 244 227 215 213 204 204 208 209 212 211 212 208 203 183 173 178 177 166 150 92 128 125 80 42 0 14 41 31 40 58 44 66 
18 1 46 94 94 94 82 99 128 125 135 158 181 171 172 188 198 201 210 221 224 229 232 235 235 236 238 232 236 237 235 232 232 221 219 237 247 237 234 243 238 228 220 216 210 206 198 206 214 212 221 226 211 217 234 236 243 241 247 247 245 226 220 211 206 200 207 208 209 208 203 207 194 176 182 179 173 166 128 103 140 123 80 20 0 13 37 40 26 57 61 48 
17 13 9 60 93 93 82 103 116 133 130 155 171 175 171 188 197 198 209 215 220 224 227 231 231 233 233 230 232 230 225 229 229 217 232 249 254 239 235 238 239 228 219 213 209 197 194 202 211 217 222 235 220 216 235 238 241 242 245 247 241 229 220 213 209 202 205 205 204 204 199 201 182 179 187 175 171 158 109 113 142 117 62 15 5 12 30 43 27 36 69 67 
16 10 13 13 52 83 67 101 116 136 144 155 172 175 170 186 193 197 202 209 215 219 222 226 227 226 229 225 221 217 214 228 232 221 237 249 255 241 237 233 235 229 219 208 204 196 187 193 203 217 220 232 225 217 235 239 240 240 245 243 242 228 218 209 209 208 199 202 202 199 198 195 174 176 183 173 172 138 96 122 130 83 32 24 9 14 26 35 35 23 56 75 
16 11 15 19 14 27 40 74 108 133 162 154 171 175 167 179 192 195 197 201 207 215 217 217 219 222 221 216 211 209 215 234 239 221 225 237 240 235 234 233 232 227 218 201 200 200 184 176 194 208 212 215 214 218 237 241 238 239 237 238 238 231 218 205 206 207 198 195 200 196 193 185 168 179 177 173 162 115 106 119 96 35 26 28 16 9 24 31 34 30 38 55 
13 12 15 18 24 8 7 50 62 113 162 159 163 175 169 177 187 193 196 197 202 204 211 210 212 213 212 208 206 202 221 238 238 231 218 208 211 215 220 227 226 218 210 196 201 205 188 167 173 185 189 189 193 219 239 238 238 233 232 236 231 229 212 201 202 202 194 193 192 191 188 175 173 179 175 168 145 113 119 88 55 28 23 28 23 9 20 28 27 33 35 47 
12 11 19 14 26 9 0 46 44 73 143 146 155 166 167 171 184 189 194 193 196 197 205 203 203 199 196 199 201 208 224 236 240 226 228 212 185 184 204 199 208 204 192 186 191 201 184 151 148 151 146 151 182 216 226 231 233 229 229 228 225 221 210 196 193 197 187 190 188 186 180 166 175 175 167 151 124 133 114 72 46 17 23 20 28 16 14 26 26 26 35 38 
15 9 14 18 21 10 2 38 47 62 120 115 125 147 159 165 182 187 189 184 188 189 185 193 191 190 190 189 200 219 221 223 231 223 222 214 192 178 191 192 183 183 176 173 172 178 167 136 145 147 152 170 195 203 211 214 214 219 220 222 217 210 208 193 189 188 184 183 182 179 175 164 168 162 141 123 129 137 113 65 31 9 24 16 27 21 15 28 26 26 32 45 
12 11 16 17 20 15 3 28 56 53 119 116 107 118 147 164 180 184 182 182 182 178 181 178 183 184 183 190 209 227 240 223 210 214 213 209 194 182 178 179 167 162 152 146 144 150 138 125 148 171 179 189 201 206 204 204 207 209 210 209 207 203 198 186 187 188 186 179 176 175 168 160 148 134 122 122 136 137 103 49 18 13 21 20 21 24 18 22 28 28 25 50 
7 10 20 24 14 17 1 22 58 52 115 120 105 105 130 159 175 180 179 175 179 175 169 171 172 175 188 207 226 238 240 234 207 200 200 202 195 179 174 173 172 152 138 134 134 146 150 143 158 181 187 187 197 199 200 199 205 205 204 200 198 194 193 181 182 187 185 177 171 164 159 153 123 121 120 122 132 133 90 29 9 15 17 25 15 19 21 21 26 30 22 39 
3 9 23 23 12 15 7 16 58 47 111 120 103 105 115 147 164 172 175 171 167 167 166 167 169 184 204 222 229 233 231 230 216 195 188 187 181 169 165 165 159 144 135 137 150 168 179 176 180 173 166 166 179 189 187 195 202 206 207 195 197 190 178 171 181 184 179 177 165 157 155 142 117 123 117 124 133 126 68 24 7 15 21 22 18 17 19 21 23 31 23 24 
6 8 26 20 12 13 15 9 51 45 104 123 103 100 103 135 157 168 169 169 162 161 160 166 174 194 213 223 222 225 225 224 213 195 187 183 172 168 155 151 145 143 146 160 178 189 189 202 196 185 173 162 159 168 170 180 192 201 199 192 189 176 161 168 180 178 173 170 164 152 152 133 115 122 116 126 131 111 47 21 8 18 18 21 18 19 15 23 26 26 27 22 
16 11 22 19 11 14 18 10 36 51 88 134 111 101 97 121 152 163 169 166 162 160 163 167 178 196 209 216 218 219 221 219 214 196 188 183 175 167 155 151 147 152 168 187 189 194 202 207 209 199 189 173 167 164 158 165 170 175 176 174 169 162 162 169 176 173 168 166 162 149 148 124 111 122 118 123 125 90 32 14 15 18 17 18 15 19 18 16 28 29 24 22 
18 12 22 17 12 18 24 20 9 51 77 134 122 103 96 114 148 160 165 165 159 159 163 171 176 181 197 206 214 211 215 215 212 200 190 182 175 172 166 164 165 172 190 199 196 200 214 211 214 211 201 187 168 162 156 153 153 155 156 158 155 159 165 175 174 173 167 163 159 145 138 116 114 120 118 123 119 71 20 13 17 13 20 16 15 21 20 22 20 36 25 25 
20 7 20 15 15 24 29 14 0 38 74 127 136 104 100 109 139 154 165 166 163 166 161 166 161 166 187 196 205 208 211 208 208 201 192 181 175 175 170 176 180 187 197 205 207 208 220 217 214 218 210 197 184 160 152 150 144 149 147 153 153 151 167 177 174 174 168 158 160 143 130 111 121 114 118 126 100 44 14 16 16 15 19 15 18 18 20 21 19 29 25 30 
18 10 14 17 15 32 20 13 1 20 69 115 139 116 100 111 135 150 164 167 171 169 158 154 143 150 167 171 182 200 209 208 207 205 195 185 182 175 169 174 177 189 190 197 207 205 213 210 205 208 208 195 184 169 147 153 152 149 146 147 152 153 165 171 173 167 161 155 149 140 122 113 115 117 118 119 76 30 14 16 18 14 20 14 16 19 18 18 25 26 23 31 
16 7 17 17 28 32 12 9 11 11 64 96 131 129 94 111 129 145 162 174 175 171 162 156 133 135 151 151 153 153 170 190 194 186 181 187 178 185 183 176 179 183 191 193 201 195 194 192 186 191 186 177 164 160 135 130 140 132 130 142 148 153 159 169 172 167 162 154 141 133 111 118 116 119 122 108 50 21 12 14 20 13 21 14 18 15 18 15 22 24 22 28 
14 12 22 24 34 23 6 10 25 13 43 81 120 137 104 105 129 131 151 168 176 166 169 168 170 170 152 142 161 156 145 152 160 155 153 166 164 168 172 171 170 173 176 180 171 172 177 170 165 165 165 159 149 142 127 115 146 157 158 161 157 154 157 166 172 167 159 149 141 110 110 116 114 121 119 72 38 19 14 16 17 16 23 16 19 18 17 18 21 24 21 19 
14 18 27 28 32 18 6 14 31 19 22 65 102 136 117 108 126 124 134 155 165 164 173 183 188 201 188 158 148 159 166 164 156 152 155 161 154 139 145 148 157 160 171 168 157 159 161 155 143 149 152 146 136 148 145 158 188 182 182 184 172 161 158 169 172 161 148 139 135 99 109 117 120 122 94 53 33 13 13 19 17 17 20 17 21 19 17 18 21 20 22 17 
17 22 28 33 29 12 7 25 29 17 28 33 76 120 119 116 124 125 126 135 152 156 175 188 196 205 206 189 170 161 154 187 185 176 174 176 173 164 148 134 129 136 138 152 151 147 151 146 139 140 153 164 177 179 190 189 195 192 193 188 174 170 157 160 158 144 133 135 121 97 112 116 120 107 68 44 29 10 14 20 16 19 23 18 20 22 19 20 24 24 19 25 
22 28 27 37 22 11 16 34 28 19 36 31 46 98 110 125 125 129 128 125 144 152 169 183 193 201 204 198 186 176 174 170 180 190 197 184 163 174 183 177 165 147 129 150 141 137 151 146 148 138 151 171 176 182 187 186 192 191 180 166 161 151 144 143 138 139 141 137 117 100 109 116 108 79 58 45 13 16 15 22 19 19 23 22 21 21 18 26 21 16 24 29 
26 35 33 30 18 16 25 32 21 24 36 44 28 68 100 122 136 127 130 129 138 152 163 178 185 191 197 193 188 175 179 179 169 175 193 186 166 172 192 201 208 201 183 180 153 137 140 145 148 148 159 163 165 166 165 162 171 171 159 144 138 130 133 142 148 150 152 140 114 101 108 106 87 58 50 30 11 17 19 21 21 22 26 21 21 22 19 30 25 11 27 29 
30 44 34 24 17 24 37 25 20 25 40 49 26 61 73 113 132 131 128 134 136 142 158 169 178 183 185 186 184 177 174 175 186 178 178 175 175 177 187 180 181 183 183 185 173 172 160 163 163 164 162 166 174 162 152 153 162 156 148 139 142 143 146 152 152 148 148 129 104 100 102 86 58 51 46 15 15 21 20 25 20 28 29 21 22 25 22 28 24 12 20 33 
32 41 28 22 21 39 33 21 17 28 39 45 29 61 58 89 127 128 128 133 138 140 156 163 172 172 175 183 182 181 178 164 169 185 193 188 184 176 176 171 173 171 177 180 179 175 173 179 187 190 184 177 169 155 148 152 161 161 157 155 150 153 153 152 146 142 135 116 96 96 83 58 54 46 29 18 20 21 24 27 18 33 23 26 26 24 20 31 18 16 19 32 
37 32 22 21 30 36 27 20 21 30 30 39 27 62 62 63 110 119 124 135 137 140 147 163 166 168 174 176 180 184 183 175 163 169 175 182 187 190 186 186 183 178 176 173 176 179 183 186 183 184 183 187 179 177 176 174 174 167 164 154 148 152 148 145 139 133 125 105 94 77 57 54 50 27 23 22 24 23 29 29 24 34 23 29 26 22 19 33 17 17 24 28 
29 27 18 19 28 28 20 31 20 28 32 34 26 64 64 69 84 108 118 130 138 141 145 149 161 171 170 173 169 186 184 184 175 171 166 165 166 171 174 174 177 169 168 172 173 178 182 183 175 168 172 177 179 182 179 176 169 164 158 153 149 149 143 133 129 116 106 91 83 51 44 55 36 14 26 28 30 27 34 24 30 29 24 30 23 18 23 27 19 16 28 28 
21 20 19 19 26 20 22 29 22 33 30 28 24 61 67 76 77 95 110 121 130 139 145 145 153 165 170 170 168 172 181 185 182 179 179 177 172 172 166 169 170 167 169 166 170 170 173 169 170 176 178 178 177 175 176 166 163 158 153 149 146 139 127 130 121 97 99 88 70 35 43 37 15 20 31 29 29 31 37 26 26 28 29 20 18 20 27 23 16 20 31 19 
14 11 15 20 25 16 19 21 22 39 24 31 23 64 66 81 75 93 113 106 123 130 143 146 145 155 164 167 170 169 171 180 187 187 187 196 191 187 184 182 181 177 179 173 171 173 177 176 182 184 186 181 178 172 167 162 156 156 153 144 135 121 126 128 111 95 101 90 57 36 32 14 21 25 29 26 28 33 36 23 24 27 23 18 15 24 22 20 14 24 33 11 
8 8 11 21 18 19 21 21 30 35 29 29 25 67 65 89 73 96 122 111 111 122 136 141 144 146 153 160 166 171 167 169 179 179 184 190 196 196 202 199 199 201 198 195 190 186 189 184 188 188 188 182 175 173 165 157 156 149 143 129 121 121 133 120 96 103 101 78 52 29 15 17 21 23 26 24 28 30 29 20 21 23 18 15 20 24 23 15 17 29 26 14 
6 9 14 19 15 15 22 18 30 31 28 27 30 65 67 86 81 96 122 122 113 114 122 131 139 147 148 152 156 165 172 172 173 178 178 187 189 196 199 203 204 204 210 206 202 203 203 196 194 189 186 177 173 167 159 151 146 143 134 122 130 131 127 108 95 103 87 65 46 8 12 20 19 20 22 20 22 25 19 18 18 19 12 13 27 30 20 14 21 28 15 23 
24 11 12 16 15 16 13 22 29 28 27 27 32 68 68 89 75 105 120 123 123 112 118 125 137 137 148 151 151 154 162 171 175 180 180 182 186 189 194 201 199 201 204 208 205 208 208 206 202 198 192 182 176 164 159 149 152 144 133 135 132 130 119 103 100 103 79 56 24 6 14 15 16 19 18 19 18 16 19 15 19 13 11 20 29 24 16 17 22 19 22 35 
34 18 14 16 23 18 15 22 27 29 30 31 39 67 71 85 78 107 128 128 125 121 111 125 132 134 142 151 150 148 154 163 174 179 182 188 192 197 196 199 199 200 202 205 203 206 206 206 208 201 200 192 185 171 166 160 151 145 141 136 135 126 111 104 105 94 68 40 16 12 11 12 17 16 18 17 15 16 13 17 16 10 17 27 24 16 18 18 20 23 30 44 
25 21 24 15 21 19 20 24 34 30 34 40 43 67 80 84 91 111 133 131 127 126 119 116 129 131 135 147 147 152 148 156 167 171 177 184 189 199 202 202 203 206 203 201 202 206 205 204 202 201 195 192 176 170 163 156 150 146 141 137 132 121 106 109 101 82 48 31 18 11 13 12 15 14 17 14 14 14 15 15 12 14 19 26 16 15 21 21 31 22 39 51 
22 23 26 14 21 17 23 32 32 36 43 40 39 73 86 88 96 118 130 133 136 131 125 113 119 130 138 137 143 148 147 153 157 159 165 165 175 185 194 196 200 201 198 202 203 204 199 198 195 190 186 175 161 157 150 151 144 145 140 134 134 115 99 106 88 63 40 26 9 16 11 11 13 14 13 12 11 16 12 12 18 15 19 19 12 21 26 31 28 26 44 54 
19 34 26 20 21 16 26 35 38 43 47 40 41 80 96 89 103 119 133 135 136 135 133 123 115 123 134 139 140 146 143 143 150 150 153 153 158 167 178 187 190 193 190 200 198 198 196 188 185 182 169 158 149 148 140 142 145 138 138 134 125 113 94 91 75 54 39 15 12 16 14 8 13 11 12 16 14 12 14 17 17 15 16 18 18 28 29 29 27 34 50 52 
