P2
# Imagen
92 112
255
130 129 129 128 126 127 125 133 124 132 134 142 139 134 139 140 138 159 153 115 93 96 113 125 130 117 103 105 103 115 119 113 113 112 107 107 114 107 106 99 107 97 98 101 102 105 107 104 107 101 94 92 97 101 108 117 104 102 94 87 86 94 103 100 92 87 74 78 78 77 69 73 72 101 111 127 128 124 129 126 124 125 128 125 123 124 127 128 127 124 126 129 
131 131 134 130 129 127 123 132 129 129 137 141 139 145 144 135 139 154 130 114 99 106 125 129 120 114 115 116 112 118 128 118 121 119 119 120 122 118 116 116 118 112 115 110 117 114 127 122 122 124 96 96 99 101 94 92 118 109 119 106 92 83 92 94 90 93 95 76 65 76 74 71 77 71 93 128 127 123 128 128 123 125 129 123 124 126 127 127 125 125 128 126 
134 132 134 135 127 133 131 129 135 139 140 145 145 149 140 125 127 136 130 113 100 114 139 121 108 118 129 115 119 119 127 116 127 126 123 125 123 122 127 122 129 120 127 123 122 121 126 125 123 129 114 93 105 99 99 86 95 101 102 110 126 114 103 105 95 79 91 93 84 72 71 65 73 74 68 100 118 121 124 126 122 129 127 126 121 125 126 127 126 130 127 124 
133 133 136 135 137 132 136 136 144 158 153 152 151 137 131 118 129 133 138 126 124 129 117 117 120 130 127 122 116 124 122 126 129 131 125 127 124 122 124 126 125 126 124 129 127 124 126 125 123 128 121 118 114 110 112 109 104 114 95 98 107 119 120 120 123 118 96 84 80 85 88 70 64 69 70 75 83 100 117 125 125 127 128 127 125 124 125 126 128 126 128 127 
131 132 133 137 138 142 142 149 151 157 166 153 149 145 127 112 126 126 137 135 130 108 119 126 125 125 131 124 113 126 124 128 130 131 125 131 124 127 122 129 126 128 123 126 125 124 128 124 121 124 129 121 116 122 115 118 119 128 122 118 114 107 106 104 101 118 121 107 88 73 88 86 79 74 62 68 77 75 82 122 122 125 125 124 126 123 127 125 127 128 127 127 
129 131 134 135 135 141 148 152 151 153 157 160 146 125 110 114 124 136 134 126 106 106 129 135 123 126 133 125 109 131 121 127 134 129 128 127 127 123 122 130 127 128 127 129 126 123 127 123 126 120 125 122 117 116 121 116 118 131 128 124 129 123 123 120 104 106 110 108 114 104 89 89 86 84 79 66 71 80 73 78 120 125 125 122 121 124 128 129 128 128 123 129 
130 135 134 136 138 141 145 136 140 146 159 161 148 131 127 132 138 125 119 117 122 122 133 133 125 128 131 128 112 121 122 130 138 126 130 130 127 121 124 120 126 131 129 128 133 124 124 123 126 122 123 123 113 113 119 120 120 121 133 128 128 123 130 125 125 122 119 114 106 111 110 109 97 86 82 78 75 65 71 74 82 123 123 121 120 122 125 124 128 125 125 129 
130 134 136 135 144 141 136 136 139 149 137 131 141 143 139 124 115 98 115 135 131 132 134 136 129 130 128 133 118 126 123 131 144 130 131 135 127 122 125 120 122 128 131 133 128 132 118 122 127 117 124 117 116 117 113 123 123 118 133 127 135 124 136 124 122 125 130 112 115 112 131 117 113 101 88 84 84 73 56 69 69 90 120 123 125 122 122 128 128 127 125 126 
136 141 138 136 133 130 133 141 148 141 124 134 141 144 126 105 114 110 134 137 130 131 133 132 131 132 131 136 126 126 125 129 148 130 128 135 130 124 129 122 124 127 126 138 120 128 129 115 117 118 122 117 117 117 115 114 126 120 130 133 134 125 127 142 117 119 133 117 114 102 127 118 121 140 120 86 93 82 75 62 62 70 89 111 124 129 123 127 126 126 126 128 
139 141 137 126 126 130 135 143 140 123 135 146 141 128 110 114 128 135 143 131 135 128 129 129 126 134 134 136 134 129 128 125 143 134 128 131 137 124 129 122 122 129 128 132 134 119 131 113 112 115 119 119 110 116 122 115 120 122 130 121 133 124 126 142 138 119 130 120 115 104 120 116 106 138 138 127 102 91 76 74 67 61 70 83 107 122 122 124 129 125 121 124 
143 137 133 128 131 139 149 128 137 132 146 137 122 127 126 135 138 142 138 141 134 134 131 126 128 138 131 145 136 134 134 124 144 139 126 138 132 132 127 124 123 130 131 127 141 124 121 120 109 121 115 125 103 115 117 112 120 122 124 128 113 125 132 134 139 127 127 115 110 104 117 113 117 117 122 137 138 123 92 72 81 77 55 68 85 100 121 123 129 123 128 123 
137 132 130 130 146 149 133 127 138 145 143 134 137 139 137 141 142 149 138 141 136 139 133 131 132 141 139 139 145 144 139 131 146 144 133 135 134 129 133 118 129 130 137 126 137 133 113 118 115 119 116 132 117 104 122 112 118 117 120 123 120 115 135 132 137 127 130 116 113 94 111 118 112 115 123 112 133 142 133 98 74 82 77 59 74 82 102 117 129 127 121 130 
129 127 133 145 157 147 131 138 145 150 136 146 139 142 138 139 148 147 143 140 138 145 135 134 135 144 143 143 147 150 146 135 150 150 130 137 141 130 136 127 128 131 139 119 141 133 124 103 120 116 112 140 126 100 117 116 123 108 119 125 121 116 131 131 137 125 125 125 110 98 104 116 112 111 120 123 116 130 138 140 112 77 80 72 67 86 81 89 116 128 125 125 
120 122 130 145 146 137 139 147 147 147 137 143 139 146 145 133 145 150 142 147 137 149 138 137 135 146 142 143 145 153 145 137 145 153 131 136 147 128 136 135 129 137 134 125 137 140 134 101 114 126 113 135 138 113 114 128 125 111 109 120 122 121 125 136 129 137 114 137 115 113 102 104 122 111 113 127 123 115 122 146 141 109 87 84 67 87 82 78 85 114 130 125 
117 123 143 153 148 152 158 142 145 140 143 140 137 147 144 141 144 147 145 149 138 143 142 140 135 151 145 138 146 147 151 131 142 143 131 143 147 133 136 145 128 140 140 128 132 138 124 118 115 134 121 116 139 127 122 131 139 113 98 117 121 128 122 131 129 133 125 124 135 113 112 99 122 123 107 119 120 124 109 139 139 135 105 107 78 74 87 77 85 79 131 129 
123 131 145 145 147 167 147 136 139 145 145 141 142 134 142 140 140 143 139 140 141 136 142 133 142 141 155 134 138 149 140 131 143 140 136 143 145 140 144 154 130 134 152 133 133 143 132 130 122 135 131 123 136 139 128 131 146 128 107 122 117 126 131 134 132 129 129 117 139 122 109 113 125 121 118 110 111 123 118 122 133 153 116 103 106 72 71 88 83 78 93 127 
126 134 153 156 157 158 144 137 140 139 149 147 146 133 135 146 143 137 135 139 140 130 138 135 136 134 148 138 130 146 141 135 151 148 143 149 147 144 147 156 142 134 143 151 133 142 141 136 134 131 143 132 141 144 139 125 151 143 118 130 121 123 143 147 132 127 126 134 123 139 118 130 122 126 128 119 108 119 134 122 122 147 146 91 99 106 64 80 88 80 85 112 
132 145 161 170 163 152 138 133 141 138 148 151 145 135 132 143 136 137 135 142 143 128 140 138 133 134 142 138 133 147 152 136 158 160 156 152 153 149 154 150 153 138 140 153 144 141 156 144 143 131 153 140 151 145 150 146 141 148 134 133 141 140 148 156 133 132 121 146 128 134 135 131 134 131 133 126 118 115 132 120 118 133 156 106 87 113 91 68 84 94 84 83 
140 153 187 179 158 145 143 138 139 139 149 135 146 144 129 137 132 138 135 139 138 136 127 143 128 133 143 131 134 149 157 142 159 162 158 154 159 158 155 149 157 145 139 158 151 148 155 159 149 142 147 148 157 155 141 156 144 148 143 137 147 155 143 164 149 135 137 138 149 140 134 127 137 131 127 126 130 115 123 115 114 125 150 124 82 113 103 68 73 98 92 77 
157 176 185 175 144 141 140 141 144 138 139 134 139 141 132 125 132 133 137 138 139 135 127 137 124 126 143 135 128 151 160 147 164 157 156 155 159 150 150 149 155 145 134 155 156 155 152 163 154 144 144 153 153 160 140 150 154 149 147 147 144 157 138 157 153 134 147 138 156 136 131 138 128 141 121 126 130 123 111 114 110 120 133 139 92 98 111 82 68 80 91 81 
166 187 174 160 144 143 142 134 146 132 136 135 134 141 133 121 127 131 133 136 137 125 133 134 118 126 133 138 134 146 154 146 159 155 155 153 151 155 144 147 156 148 142 143 155 153 151 148 149 144 138 147 145 158 144 150 156 147 154 164 140 148 143 152 157 144 149 145 139 143 132 139 129 143 134 125 134 133 122 108 124 128 115 138 114 88 107 103 85 77 83 82 
178 186 168 150 139 139 137 138 137 128 133 131 132 132 130 119 126 129 127 128 131 126 125 132 127 126 135 136 137 148 147 143 155 154 155 155 149 155 152 140 146 147 147 148 155 146 145 146 145 147 144 137 145 155 148 144 157 136 163 164 156 150 142 158 166 162 142 156 143 156 136 140 140 137 140 124 141 136 115 111 124 127 107 121 133 99 103 119 100 87 82 87 
192 182 160 143 137 135 138 131 137 128 133 133 134 130 133 120 132 120 129 121 130 121 127 135 133 133 135 138 140 142 148 141 153 158 155 154 152 154 153 144 148 147 144 150 150 155 141 146 142 153 152 131 141 157 144 147 161 142 151 166 174 155 152 162 169 171 156 153 146 164 144 139 149 137 142 129 140 128 113 114 127 128 98 107 141 125 97 114 120 98 86 88 
188 171 146 140 146 135 136 133 129 130 130 129 129 122 137 115 123 129 128 128 130 125 127 132 131 137 134 144 141 143 145 143 154 153 158 164 154 148 156 151 152 151 141 146 155 151 149 149 141 153 161 144 143 152 158 147 170 161 153 166 180 169 172 165 171 176 160 155 149 154 141 142 148 145 138 131 139 132 116 121 127 122 97 110 137 142 101 113 118 113 101 93 
170 150 137 133 145 131 139 136 131 128 131 134 125 119 129 124 120 135 140 135 132 132 130 142 139 144 149 148 155 144 154 150 161 162 161 179 159 154 158 161 165 156 149 147 162 155 156 161 154 158 166 155 151 165 171 162 171 170 167 169 185 185 183 165 173 171 166 162 144 149 148 135 150 148 136 138 134 123 126 125 126 117 109 116 120 145 118 110 120 117 111 102 
154 136 125 127 130 136 135 143 138 125 133 135 135 134 139 135 135 143 154 155 147 149 152 160 154 155 162 153 167 157 158 168 172 182 177 189 180 170 171 168 173 170 163 163 171 163 171 171 174 160 176 179 169 171 185 173 180 182 169 178 187 178 184 169 175 170 157 158 142 144 153 136 148 153 135 137 135 126 124 125 133 114 106 109 104 133 133 101 115 109 109 111 
140 129 126 130 138 131 133 152 138 125 134 136 144 147 154 151 148 153 157 167 170 172 170 178 171 169 169 176 174 177 174 178 186 193 192 190 189 182 183 175 179 178 184 185 188 182 180 189 182 179 184 184 182 179 183 176 184 183 173 176 182 165 164 163 161 164 153 147 147 143 157 148 150 154 145 136 134 119 114 120 132 111 103 107 100 116 123 102 121 111 109 110 
141 125 134 127 142 139 139 147 151 134 137 139 138 159 166 172 153 154 165 172 175 184 183 190 190 184 185 189 196 195 199 196 196 200 202 199 197 197 193 185 181 183 193 197 201 200 195 198 203 196 199 198 189 188 183 175 180 179 178 171 172 161 140 147 150 141 139 135 145 125 131 137 134 147 149 144 123 120 118 124 128 120 107 116 109 120 132 109 106 116 111 109 
142 126 127 133 140 146 139 157 150 144 141 141 141 159 164 160 161 154 169 173 173 183 190 196 206 203 195 206 211 219 219 222 209 203 210 214 197 199 185 179 179 183 186 194 196 196 195 186 205 199 202 197 178 179 176 173 176 167 160 160 151 151 130 125 122 119 114 118 123 102 103 122 112 142 150 144 127 121 118 120 119 119 110 111 114 115 141 115 106 109 111 108 
138 117 130 138 133 138 149 142 147 150 153 145 157 158 167 159 170 163 161 175 172 175 188 195 210 206 202 206 211 208 213 210 213 195 207 218 195 187 179 173 163 167 175 184 181 182 182 171 176 182 189 179 166 153 160 159 160 164 138 144 128 122 112 105 102 86 94 86 88 84 91 92 103 117 141 131 125 120 122 119 108 118 115 107 110 118 125 123 105 108 108 111 
135 129 126 135 138 138 140 148 148 155 156 150 147 164 167 173 172 167 166 178 181 176 187 194 208 192 202 190 195 199 206 203 197 184 190 188 186 171 167 168 153 148 155 173 167 150 169 174 160 161 159 174 159 153 151 140 139 141 124 116 104 101 88 87 94 82 66 76 77 69 77 77 87 102 127 137 121 113 116 126 117 117 105 107 111 121 129 116 101 108 110 110 
125 133 126 130 130 144 143 149 149 150 150 139 153 160 170 169 171 176 177 176 176 184 189 203 198 187 189 184 175 196 196 194 180 174 176 160 168 152 148 157 149 136 141 157 158 147 152 166 154 140 133 142 139 129 130 126 117 115 109 99 83 82 82 68 86 79 64 70 79 76 72 83 88 91 117 134 126 120 116 114 117 112 112 106 109 116 135 121 106 114 105 114 
125 124 129 125 134 140 147 146 150 152 152 146 158 153 166 175 178 193 189 191 187 194 200 197 199 193 190 189 182 187 180 176 181 181 177 158 163 139 130 143 142 139 144 140 145 142 151 153 153 144 139 127 132 121 112 107 97 105 91 83 76 72 76 66 64 74 51 62 68 76 70 72 81 83 100 116 125 123 120 111 108 104 101 108 99 106 139 129 108 112 110 106 
122 122 130 123 130 143 144 151 148 155 156 157 165 166 177 181 182 201 198 195 197 200 195 195 193 197 190 191 184 180 180 174 177 181 181 158 161 147 134 146 142 138 148 140 152 150 153 155 153 149 145 139 133 125 108 113 97 99 92 85 78 69 67 58 58 65 51 51 57 68 69 67 73 80 90 107 113 122 116 107 108 102 91 107 99 100 123 136 108 105 123 110 
119 117 128 123 122 143 149 150 151 155 158 166 167 172 191 190 192 190 198 198 204 199 193 191 190 194 187 191 188 182 181 163 180 176 180 164 156 157 141 146 142 136 144 142 146 146 149 155 149 140 146 148 138 131 122 124 110 107 97 84 74 67 63 55 54 53 50 45 46 51 57 55 68 72 82 99 116 116 114 102 104 101 91 101 105 98 107 137 114 105 111 126 
128 115 120 123 122 142 149 152 156 157 167 163 167 178 191 199 203 196 196 196 201 192 196 195 194 193 182 185 185 179 171 163 177 171 170 158 155 160 141 137 135 133 133 137 143 140 144 151 151 143 142 143 140 124 128 124 113 109 104 87 78 68 57 55 50 50 44 42 40 44 47 54 61 66 75 91 98 112 110 104 95 104 100 99 106 115 103 123 118 108 116 125 
126 112 123 122 117 139 152 152 156 160 162 169 166 180 188 203 209 204 195 197 205 194 200 202 192 183 181 177 171 179 171 163 169 160 159 152 144 153 145 134 126 129 135 140 142 144 149 148 151 134 140 138 132 128 124 126 113 114 106 93 84 75 60 55 53 48 40 42 40 40 42 44 57 60 65 79 82 96 111 102 97 94 105 106 105 121 109 123 120 119 114 128 
127 116 121 123 118 136 153 149 157 165 172 167 168 184 192 203 209 206 204 202 211 197 206 196 184 177 182 176 167 172 170 160 159 154 152 148 140 141 145 135 123 125 127 132 139 138 140 141 136 133 134 134 132 129 127 130 117 112 110 98 90 80 59 54 57 54 43 41 40 35 38 42 49 57 59 64 69 84 89 99 97 93 102 109 114 126 113 120 134 115 125 126 
135 119 119 121 117 131 152 155 163 172 177 173 173 188 201 210 209 210 210 209 209 194 198 196 179 179 176 172 162 163 157 158 151 146 147 145 138 132 136 135 128 123 125 128 134 134 134 139 134 132 133 133 131 128 131 125 122 120 114 104 93 85 65 59 59 54 42 43 37 34 35 38 45 49 54 48 64 67 78 81 89 91 100 111 125 131 115 109 142 125 125 138 
131 124 123 121 112 137 154 160 166 181 181 171 180 192 209 214 212 216 207 212 206 195 190 189 176 177 168 161 156 160 152 150 149 146 144 141 138 135 133 130 128 124 127 127 130 134 132 135 137 132 133 131 129 127 130 126 121 121 116 109 96 89 73 66 57 54 46 36 38 30 31 33 38 41 50 40 57 59 64 67 70 90 95 116 132 125 118 111 128 137 123 140 
121 128 121 116 112 137 151 166 170 185 180 176 182 207 216 221 211 229 203 208 198 195 186 180 175 168 159 154 152 149 147 141 147 144 141 136 136 133 135 128 126 124 126 127 127 131 130 135 131 135 130 130 128 125 127 127 127 121 117 113 109 97 77 72 62 51 50 38 26 34 25 32 31 39 36 36 47 58 49 52 55 71 97 118 134 128 115 118 136 129 132 139 
124 122 121 112 114 136 161 170 174 186 180 180 191 211 225 222 212 226 207 202 193 189 177 172 172 158 147 145 147 143 140 140 141 141 135 135 134 132 131 127 128 124 126 129 127 129 132 134 131 131 129 128 128 123 131 126 124 123 115 109 112 106 87 72 65 61 48 42 31 29 31 28 27 34 37 31 31 53 41 40 37 59 88 124 131 129 120 115 144 132 127 142 
136 111 120 112 107 140 168 172 177 183 186 191 202 213 224 220 217 223 206 201 193 181 167 159 155 147 138 133 133 132 125 126 126 133 122 128 128 127 127 126 127 126 126 129 129 126 132 131 127 129 129 126 126 124 127 125 120 118 113 104 100 96 87 68 62 57 46 38 31 27 32 24 27 27 35 31 28 42 40 28 32 43 83 131 131 126 124 122 145 131 132 119 
143 104 121 110 105 144 164 176 178 185 191 198 210 222 223 218 221 223 203 194 189 172 161 146 143 135 134 129 126 125 117 119 117 118 114 113 124 121 120 123 126 126 128 130 127 129 129 131 126 128 128 128 125 125 122 124 114 110 107 99 93 88 86 76 60 50 45 32 25 28 22 26 19 26 28 29 28 35 32 22 29 35 79 126 132 127 121 134 138 137 131 117 
139 115 116 109 100 146 169 171 180 188 200 202 218 227 225 225 226 225 207 189 176 172 156 139 139 130 130 129 120 124 116 116 115 113 113 115 123 118 119 116 125 124 127 128 128 130 129 129 126 127 127 128 126 123 122 116 112 104 102 99 94 88 83 83 66 53 45 39 21 29 21 20 14 20 20 28 27 28 29 22 21 35 77 127 126 126 126 135 144 144 126 118 
134 119 116 115 103 145 170 172 182 194 199 209 219 233 227 234 233 227 196 188 173 172 161 141 140 135 131 130 128 125 124 117 115 117 113 118 122 120 115 115 120 122 125 129 127 127 127 126 124 127 125 127 126 122 119 112 110 105 103 100 95 90 79 83 79 61 51 41 29 25 23 21 19 8 7 23 26 29 25 17 22 26 78 119 128 127 131 139 153 143 126 119 
129 127 118 121 105 137 173 175 187 195 204 212 230 238 233 246 233 220 199 195 182 179 169 153 147 147 138 136 135 131 132 124 117 120 119 122 123 119 117 116 120 120 125 128 127 128 128 126 127 128 124 123 122 122 112 111 110 106 110 101 99 91 87 83 87 78 58 55 46 31 32 26 26 12 7 10 23 29 27 16 16 38 75 116 128 129 134 144 139 147 137 109 
132 124 128 125 103 133 172 182 189 197 207 218 237 243 240 247 232 222 208 204 190 185 175 160 154 151 147 141 139 135 137 131 128 126 120 126 125 122 118 120 121 120 128 127 126 129 128 126 125 127 124 122 121 119 112 108 110 108 112 110 107 100 98 94 90 84 74 58 55 41 37 31 28 25 11 7 9 26 26 14 16 31 83 118 123 132 134 146 139 135 134 113 
131 121 131 127 107 138 165 184 191 198 205 226 244 243 255 243 237 226 216 208 190 178 172 164 153 147 142 144 137 133 134 129 129 128 124 127 126 121 122 120 121 122 124 126 128 127 129 128 128 125 124 124 118 117 112 109 112 109 111 111 107 104 100 98 92 85 77 66 47 41 31 31 22 21 19 11 3 15 25 20 20 32 82 117 128 130 138 151 136 131 130 110 
132 125 123 126 113 138 170 186 194 200 202 224 241 254 252 241 241 233 211 201 194 172 165 155 152 146 142 138 135 132 130 125 127 122 121 125 125 124 123 125 121 119 126 124 128 129 127 127 126 126 124 125 119 114 111 110 113 112 109 108 103 100 97 90 85 79 71 64 42 35 27 25 17 16 18 13 6 8 24 23 22 33 82 119 127 130 140 145 135 123 138 119 
135 129 118 124 115 142 172 178 187 191 208 223 237 247 254 238 240 227 209 195 188 173 153 156 147 138 135 130 123 125 122 121 120 124 125 120 119 124 125 124 124 120 122 127 130 129 127 127 127 125 126 124 118 113 112 111 114 110 108 103 99 96 90 92 78 74 64 58 37 23 23 18 17 8 11 14 11 2 19 27 26 33 84 119 128 132 140 136 132 120 132 128 
135 128 119 124 116 145 165 163 173 185 203 226 244 239 247 236 229 219 206 195 176 164 154 148 139 125 129 123 115 115 116 114 117 121 122 123 122 120 124 127 124 123 123 126 129 130 128 128 129 126 124 122 116 114 114 112 109 106 105 104 96 90 82 79 73 63 52 45 33 23 9 15 11 5 10 10 15 6 17 30 30 32 88 122 125 135 137 130 129 124 120 131 
143 130 121 126 121 139 152 158 157 165 181 215 230 236 220 220 219 204 190 178 158 146 133 128 128 126 121 116 114 122 129 120 118 135 129 120 132 124 126 132 130 124 125 126 128 131 132 129 129 127 126 115 113 117 114 109 105 107 101 95 88 77 70 60 59 54 43 32 23 16 13 8 8 9 17 22 24 21 24 40 38 36 90 124 124 136 132 123 120 109 114 122 
136 136 123 122 126 136 150 159 153 150 175 195 201 195 191 183 183 179 166 148 134 121 112 107 111 124 119 112 117 121 140 136 120 140 149 141 135 138 139 141 141 137 135 132 133 135 135 133 129 129 126 115 108 113 108 99 98 94 92 93 83 67 68 70 58 51 46 44 31 21 18 20 15 17 21 38 43 35 41 50 48 45 88 122 129 130 138 118 118 97 110 107 
131 137 120 119 126 146 160 164 153 154 177 186 168 162 155 150 136 128 119 119 110 101 101 101 110 124 141 131 122 125 122 133 126 141 154 161 150 148 155 161 159 154 148 142 141 140 142 136 129 126 120 109 102 97 92 83 77 86 94 99 79 66 65 82 68 54 58 74 65 54 44 44 41 42 40 46 62 67 59 65 58 49 88 121 131 125 135 119 111 97 105 99 
137 137 123 118 121 159 188 186 173 175 196 185 169 155 141 124 100 86 76 77 82 86 99 114 126 146 155 140 127 127 134 136 126 143 152 158 156 156 159 159 150 145 141 131 125 120 122 118 112 104 102 85 74 69 68 61 54 67 88 96 78 68 67 71 80 81 102 121 117 107 89 84 83 76 79 74 79 96 90 76 71 57 82 117 129 128 129 114 105 105 100 106 
133 137 126 117 118 167 189 195 189 199 210 204 183 155 133 115 95 84 65 65 80 103 119 132 143 146 146 134 135 150 161 166 160 161 167 161 150 145 149 140 138 127 123 118 108 106 104 101 91 88 78 66 50 43 47 43 37 39 60 82 90 86 92 105 121 122 147 165 159 150 140 132 127 117 113 109 100 108 118 99 78 67 85 108 126 133 113 109 97 92 96 100 
134 134 123 116 121 165 188 189 176 193 203 200 168 145 143 124 105 84 73 78 88 111 125 135 138 131 122 127 137 159 176 175 174 183 187 180 169 160 162 155 141 136 129 116 107 97 100 91 88 70 59 44 32 30 31 28 26 17 30 58 94 105 112 129 138 141 155 173 180 182 172 172 151 136 128 119 110 95 113 123 110 75 85 107 122 128 111 101 92 78 91 96 
138 131 126 114 125 172 183 178 166 178 195 184 137 131 136 120 108 103 96 100 107 112 114 120 124 122 131 144 158 167 175 181 175 197 201 198 194 190 192 192 182 172 154 143 127 119 119 107 93 70 57 47 42 40 40 45 37 30 27 43 61 89 115 129 146 154 162 178 196 196 186 182 163 131 114 106 100 80 88 98 120 101 85 101 117 129 119 96 90 76 85 92 
137 128 127 109 129 176 180 171 155 179 181 168 137 135 122 111 97 104 88 83 87 93 86 92 113 125 144 148 156 162 179 188 193 206 217 212 217 213 221 220 212 206 198 178 168 156 148 140 124 100 80 68 64 61 56 58 62 62 68 62 58 67 96 126 151 164 170 172 183 184 177 172 169 130 109 91 73 68 56 59 87 118 94 98 113 125 123 95 87 77 84 91 
135 129 118 106 133 180 184 168 166 178 180 162 162 162 116 102 86 100 73 41 46 56 57 71 108 134 158 144 146 161 181 185 192 195 198 204 204 203 215 229 224 226 211 191 175 161 150 136 131 112 84 74 63 59 55 64 73 90 103 96 91 97 93 112 148 170 173 173 166 181 191 179 163 145 104 77 73 67 61 56 54 100 107 98 109 124 125 90 97 79 83 86 
137 125 114 102 129 188 188 176 169 178 183 184 180 178 124 94 75 57 66 28 36 66 75 84 122 136 156 157 142 162 190 186 172 179 162 171 184 187 191 203 205 204 195 174 164 139 126 120 117 107 81 65 49 49 50 62 74 98 105 107 112 130 144 129 149 170 192 183 167 155 178 185 176 163 126 93 87 86 74 67 54 79 103 105 101 117 130 99 112 95 84 86 
122 120 113 94 139 194 194 180 182 183 192 187 185 188 136 81 62 43 34 41 57 104 105 92 113 151 147 151 155 177 201 206 170 158 168 169 198 200 197 187 199 183 189 157 150 130 107 100 92 87 66 58 47 30 18 27 60 86 85 90 107 136 155 153 150 163 180 188 191 181 180 204 210 182 144 120 113 103 89 75 64 59 91 107 94 112 122 109 122 123 89 89 
125 107 105 90 150 198 199 197 199 186 200 191 183 192 145 88 58 47 43 49 106 162 134 95 125 159 170 157 163 182 209 207 167 158 176 203 223 216 202 216 217 183 174 183 177 138 97 83 85 81 49 34 24 17 20 28 40 62 79 79 98 134 148 158 149 149 188 173 186 207 201 221 217 204 152 109 124 127 101 80 68 55 76 102 89 112 120 105 104 132 104 98 
131 112 101 98 160 193 201 199 209 191 191 197 185 181 160 114 73 56 55 85 126 157 128 109 118 151 163 153 158 195 206 199 167 147 193 213 235 225 230 229 212 191 186 194 213 149 96 79 63 71 58 35 21 0 8 31 29 38 69 78 86 132 147 128 122 149 197 204 174 215 236 246 223 205 180 145 123 119 103 80 62 52 64 99 88 118 136 119 106 120 87 110 
145 111 103 101 158 185 199 196 214 203 197 181 172 164 150 136 120 94 95 106 120 152 142 108 115 142 146 141 167 188 217 208 206 197 208 227 248 227 213 245 200 172 197 204 202 164 109 87 65 61 51 51 54 11 13 23 27 43 54 82 104 134 124 127 114 149 205 206 220 214 234 246 189 170 186 166 147 107 89 76 55 41 51 86 93 139 145 138 118 131 72 89 
143 120 105 95 145 181 191 196 219 209 206 194 173 153 136 120 109 93 87 94 105 132 147 117 121 137 136 144 158 163 199 215 197 193 217 235 224 215 213 219 192 135 152 184 194 174 129 85 63 51 46 77 80 27 18 17 16 28 48 92 115 117 117 119 118 121 199 207 209 214 224 210 160 149 173 152 137 108 82 60 40 28 36 77 97 146 152 129 131 112 77 80 
150 129 111 81 145 177 196 201 218 210 209 190 179 162 136 125 106 93 90 90 94 111 122 133 149 161 160 155 161 170 167 193 184 164 190 212 218 207 217 214 166 134 132 141 160 175 150 102 74 78 73 87 87 42 21 29 34 39 51 101 138 126 143 139 139 138 172 189 194 201 208 173 158 155 163 131 118 93 76 42 29 18 27 77 106 153 153 120 139 95 73 77 
152 137 108 70 139 177 205 210 218 215 219 193 181 161 139 124 110 100 98 105 106 113 109 114 130 144 158 154 161 170 186 175 167 161 159 189 212 208 204 175 147 135 132 133 125 127 125 95 81 88 79 65 63 56 47 44 56 58 75 117 133 118 131 139 148 150 159 172 176 177 186 165 158 155 150 128 104 71 58 39 26 14 23 89 115 159 159 119 133 86 72 75 
144 147 105 60 133 176 223 202 230 224 219 207 186 172 152 130 120 111 106 110 116 116 105 110 124 130 136 136 137 158 169 178 184 187 176 166 183 190 176 155 147 149 144 135 120 110 96 81 76 90 83 70 65 63 72 77 82 78 86 114 137 119 129 141 149 155 159 167 171 171 179 174 177 163 148 115 86 62 45 43 32 15 32 107 128 168 163 138 121 69 83 81 
141 148 116 61 128 177 219 204 229 230 230 219 200 183 162 146 132 130 121 118 120 113 98 112 123 128 130 131 134 143 155 170 174 187 189 188 191 188 184 167 140 129 119 118 112 106 101 85 75 84 77 71 67 70 78 85 91 88 86 105 139 138 137 147 155 149 155 160 166 171 168 166 159 146 127 90 71 54 52 44 38 26 40 127 149 174 173 149 92 79 81 89 
143 142 133 78 132 161 200 214 229 225 224 230 210 190 171 158 143 142 132 124 120 106 96 115 123 125 125 129 127 135 144 159 158 162 163 166 168 167 160 152 132 113 99 97 102 101 95 85 80 77 65 62 70 77 85 96 102 101 98 110 128 143 136 147 155 158 152 154 153 155 155 149 144 128 106 77 65 48 59 59 40 35 57 139 155 183 169 151 84 89 83 98 
138 149 129 98 136 149 172 218 228 221 226 231 217 199 181 164 155 148 142 132 129 110 107 126 130 131 135 136 132 136 140 142 144 149 145 149 149 149 147 141 135 126 105 93 92 88 85 83 85 82 78 75 74 85 91 98 106 106 106 111 124 143 133 141 143 150 152 153 148 144 139 135 123 109 80 54 64 49 72 63 35 43 74 153 174 178 167 131 100 97 88 99 
134 156 141 108 131 137 164 216 218 225 225 234 216 210 188 172 161 152 141 136 126 110 117 130 132 131 134 131 126 125 126 127 128 126 129 133 137 141 141 135 132 127 112 103 93 85 81 81 88 91 93 86 82 87 95 102 105 108 108 115 126 144 143 139 135 135 136 136 136 130 124 117 103 90 61 43 50 58 74 63 39 44 83 169 185 171 163 128 122 110 86 95 
133 152 147 102 129 136 154 203 192 225 222 228 219 209 198 175 167 158 145 137 128 111 123 134 133 130 131 125 119 118 118 118 118 119 118 124 128 133 137 133 129 121 108 109 105 101 97 101 102 102 105 103 101 105 112 114 108 109 114 121 127 149 151 142 132 126 125 121 118 112 106 99 85 67 40 31 41 64 72 50 51 63 104 198 178 157 158 120 136 120 101 87 
133 157 143 102 120 144 149 185 182 216 227 223 217 212 198 183 167 165 151 138 125 117 127 134 132 131 128 119 115 113 113 113 113 113 111 116 118 125 129 132 129 118 110 108 108 107 109 109 113 108 108 110 117 122 130 129 121 122 123 129 136 154 158 146 139 127 121 112 100 94 85 82 68 57 28 34 43 78 53 52 69 80 125 196 164 151 154 109 129 130 115 93 
147 159 128 109 123 133 142 169 179 207 219 217 215 209 203 182 173 166 154 136 123 124 129 136 134 131 125 120 116 110 111 109 110 110 107 109 115 120 126 128 127 117 111 115 115 114 112 118 119 112 112 113 118 123 132 133 130 128 129 133 138 159 159 156 142 130 117 108 96 88 82 71 63 46 29 43 55 69 62 53 78 85 140 191 160 152 133 115 123 122 120 105 
164 148 123 112 127 137 126 150 171 192 208 209 214 210 206 187 180 169 154 134 124 131 133 134 133 128 126 119 116 111 109 109 107 105 101 108 113 116 124 126 128 120 116 120 123 122 123 126 125 115 113 115 116 122 129 133 133 131 131 137 140 157 159 154 143 132 118 107 93 83 77 68 60 38 31 55 57 64 74 62 82 89 163 183 162 137 118 120 123 111 118 122 
157 153 122 114 127 151 124 125 161 177 203 207 208 206 205 189 179 172 155 133 132 137 139 134 132 129 125 118 113 109 104 102 103 98 97 105 114 116 122 126 131 128 125 131 134 132 129 126 123 119 116 117 113 117 124 131 136 134 134 137 140 156 163 150 145 132 117 107 88 82 73 69 52 42 51 58 58 62 70 69 79 103 184 172 149 121 124 121 133 117 93 123 
147 160 138 113 129 165 141 121 131 166 200 202 209 201 203 186 180 170 151 138 143 142 140 136 134 129 124 118 109 102 96 96 95 91 97 101 111 117 124 130 138 140 136 142 144 133 132 125 120 120 117 121 115 115 118 126 136 134 138 138 136 149 165 154 142 132 118 103 86 79 73 68 51 51 58 63 64 65 63 71 87 123 187 154 111 126 125 121 132 129 87 99 
138 160 145 124 119 160 167 143 116 135 190 189 198 196 200 188 177 165 151 145 152 147 143 139 132 127 124 114 105 92 87 96 98 91 99 98 106 118 129 137 149 147 141 142 144 133 127 121 115 120 121 120 119 114 118 121 132 130 134 139 134 142 160 160 141 124 119 101 85 81 74 66 53 58 64 65 81 68 63 86 91 142 174 106 102 140 126 122 126 131 102 83 
138 160 142 130 117 160 177 182 138 135 180 179 189 190 197 186 173 164 151 155 154 151 143 139 131 126 119 114 100 92 91 107 112 101 103 99 102 120 130 145 153 146 143 139 145 132 125 125 119 119 119 121 121 116 114 119 127 122 124 134 131 132 142 158 142 120 113 98 88 81 78 64 61 65 68 74 95 69 66 88 88 159 139 87 114 140 133 121 125 120 115 91 
153 162 143 130 111 149 185 198 181 159 193 189 178 181 187 183 169 155 152 159 162 152 148 140 131 124 115 110 103 91 102 112 114 112 111 97 97 112 128 142 154 144 139 136 145 136 132 125 118 115 114 113 120 122 116 116 119 120 115 125 126 128 125 150 142 121 111 98 95 84 78 67 74 71 67 92 89 72 68 69 80 132 107 113 119 134 130 125 123 116 116 105 
154 166 152 125 117 131 175 200 203 200 205 198 178 172 177 176 158 148 145 157 163 153 147 141 131 124 112 107 100 100 103 110 115 117 117 110 93 103 119 133 149 142 137 133 133 137 139 120 105 105 107 108 125 130 119 117 117 118 116 122 118 125 124 137 141 126 112 102 100 89 82 73 74 78 76 88 70 62 53 38 55 110 111 133 118 129 126 129 130 122 114 121 
153 162 158 130 123 123 166 194 201 211 228 218 197 182 169 164 149 148 139 152 156 151 146 136 129 119 110 106 101 103 101 97 102 108 115 109 110 112 114 120 131 143 142 138 126 125 136 125 101 102 105 108 118 129 126 125 126 129 129 121 118 125 128 133 141 126 115 111 104 93 87 78 78 72 67 63 52 33 17 11 69 100 116 130 126 121 126 124 124 123 119 112 
149 161 152 135 125 119 146 184 198 197 228 219 208 198 169 159 144 146 145 138 147 147 140 132 125 110 99 94 89 93 91 79 73 91 108 119 126 129 126 118 109 112 122 132 124 110 121 122 108 109 111 114 118 125 130 141 139 143 129 117 120 125 126 131 139 129 117 118 109 98 90 82 72 58 42 22 12 20 12 10 84 101 119 127 127 115 131 123 128 122 116 109 
153 158 147 135 128 119 129 178 192 192 225 212 206 197 180 151 146 141 145 135 128 129 127 120 114 101 90 89 85 89 88 90 81 91 119 138 145 142 135 119 107 98 100 106 102 100 109 133 135 132 131 134 136 139 142 155 151 140 130 123 123 124 125 131 136 132 121 119 113 103 96 84 62 57 21 12 17 30 10 39 89 107 123 126 130 121 122 128 128 122 121 116 
157 154 147 133 124 128 118 164 185 187 217 216 199 190 177 154 146 140 141 134 129 112 102 101 96 89 92 91 94 102 109 116 119 123 135 142 141 133 130 121 107 99 94 95 100 102 112 133 154 169 176 177 175 170 170 161 149 143 137 131 124 126 128 136 128 125 126 119 120 106 103 87 65 51 14 21 26 35 12 63 96 109 122 118 132 125 123 123 129 122 119 122 
161 158 151 128 124 128 120 150 180 186 208 223 203 188 181 154 141 135 134 136 131 119 103 99 101 97 98 106 113 124 133 147 150 151 145 140 133 130 124 118 103 98 90 93 101 106 112 125 146 172 179 182 189 187 177 165 148 141 131 128 129 129 144 130 118 121 125 121 121 112 104 83 66 43 18 25 39 32 21 82 98 107 130 118 131 124 125 123 129 123 123 124 
163 161 149 125 127 128 125 135 174 184 199 220 207 184 180 156 138 131 136 135 131 124 108 109 110 111 110 119 128 142 150 161 163 155 152 144 137 133 127 125 115 100 91 90 98 105 106 116 133 152 165 168 172 174 169 166 156 151 141 141 141 142 139 122 115 120 125 133 120 119 108 81 72 31 22 35 50 25 40 98 94 111 134 120 130 126 126 122 131 124 118 123 
159 158 139 124 130 129 126 128 162 187 191 216 218 186 171 156 133 129 133 131 125 125 120 116 115 121 122 124 137 145 159 165 163 159 156 154 148 139 137 131 122 107 91 90 91 95 99 110 115 131 146 156 150 155 154 159 156 154 153 152 145 134 128 116 116 120 125 132 126 120 108 83 64 25 29 41 51 20 61 104 97 121 128 125 130 128 128 127 130 127 115 121 
161 149 131 132 130 126 131 133 146 189 182 208 220 194 168 152 132 132 130 133 127 130 123 122 124 128 136 134 140 151 162 162 170 171 169 164 155 149 141 134 121 109 101 92 87 90 95 100 106 111 126 136 141 138 141 144 142 145 147 148 134 125 119 114 119 124 129 135 129 123 102 76 54 26 30 53 37 25 82 104 104 127 128 125 131 129 128 130 133 126 118 119 
155 135 130 130 128 119 141 132 137 179 172 197 228 203 166 149 125 126 128 134 131 134 126 129 128 131 142 141 139 147 157 166 173 179 179 172 162 154 148 137 129 121 116 108 93 93 96 98 96 106 112 120 125 129 123 131 128 130 135 136 128 118 116 120 124 129 143 137 135 120 86 68 46 27 36 53 26 39 101 103 113 133 127 127 131 130 132 137 127 134 118 120 
141 130 129 124 127 128 146 135 134 161 164 179 221 214 171 158 137 125 116 127 131 130 129 133 127 124 130 140 136 140 151 158 170 172 170 162 157 156 148 149 144 144 127 123 114 99 105 107 107 113 106 109 108 117 118 113 125 125 130 130 126 122 127 135 141 143 145 137 133 108 71 63 31 29 45 42 22 63 109 105 128 131 129 131 129 130 138 135 133 129 125 127 
134 126 127 126 126 144 141 143 126 142 156 164 209 213 185 158 149 143 123 109 110 106 112 127 135 137 127 129 138 136 144 149 156 160 163 159 153 147 152 150 143 137 133 119 119 107 98 104 108 107 103 99 101 111 115 111 127 136 136 135 142 140 147 159 152 143 142 135 127 93 65 53 27 35 46 32 29 94 105 118 140 129 130 135 129 130 138 134 134 131 128 130 
126 126 122 132 137 139 148 139 130 123 144 156 184 210 195 165 154 153 144 123 107 94 93 108 115 134 134 124 112 122 120 127 125 120 118 124 131 138 139 137 136 120 115 106 102 111 100 95 105 98 94 96 98 117 129 128 145 151 151 154 163 162 152 145 130 130 132 131 109 77 65 41 21 40 45 29 55 106 110 138 138 131 134 131 132 130 136 138 126 134 130 131 
124 126 122 127 140 138 145 132 120 122 123 155 163 204 195 175 160 157 152 137 121 116 109 108 112 122 132 128 115 111 99 111 101 91 92 88 99 111 109 113 113 114 110 115 103 101 104 100 117 107 107 115 121 136 137 138 147 153 165 171 160 142 133 125 121 123 126 119 91 71 69 31 22 40 46 41 86 110 128 140 136 131 136 132 131 131 136 135 128 131 132 127 
124 126 120 125 123 127 124 118 117 128 108 145 151 187 189 181 168 159 156 150 137 133 140 142 134 124 124 124 116 117 104 92 82 91 96 95 98 91 97 111 125 146 143 151 149 143 132 124 134 147 154 162 154 151 136 133 152 159 174 168 155 142 139 134 129 113 105 88 78 70 62 31 24 46 48 65 108 119 137 136 139 135 133 134 121 134 140 131 130 133 130 121 
126 131 117 124 120 120 122 116 118 124 117 116 146 162 181 182 168 162 157 156 153 139 146 156 155 154 146 139 134 129 134 130 114 114 124 122 110 109 112 113 122 118 124 140 135 132 130 143 150 165 177 175 160 163 146 153 166 172 168 167 167 154 144 126 105 90 75 71 75 72 63 28 29 55 58 99 120 133 136 133 136 131 132 130 124 132 138 129 127 136 128 121 
141 138 121 120 116 118 114 118 122 125 121 107 127 163 163 178 163 155 162 156 160 150 145 153 152 154 152 153 149 140 143 138 134 122 112 115 107 106 115 109 112 102 102 114 121 119 109 114 128 143 160 159 159 162 157 162 169 165 167 159 148 139 124 105 88 79 55 74 75 71 55 29 47 64 83 116 130 129 126 132 130 128 127 126 130 137 134 125 126 135 130 119 
138 136 129 120 113 113 115 118 123 125 119 106 104 157 148 167 159 157 162 156 162 160 150 148 146 144 141 144 140 136 131 123 121 125 128 125 122 111 107 99 105 104 107 113 115 118 121 118 116 121 129 141 147 155 157 160 159 150 143 133 128 119 104 92 78 60 63 73 68 65 45 40 60 75 109 131 134 124 124 127 126 124 124 126 131 135 130 122 127 135 126 121 
138 136 138 133 128 115 115 121 123 125 131 117 108 134 145 149 155 151 162 156 158 168 162 149 143 141 139 133 135 131 133 122 121 114 120 121 119 122 114 110 107 111 109 109 111 116 122 134 132 131 125 128 126 132 139 134 138 132 127 126 121 104 92 78 66 59 65 73 66 61 47 58 72 102 130 133 130 123 120 125 123 125 122 126 125 136 123 122 129 132 121 122 
141 137 147 145 145 131 121 120 129 132 130 118 126 114 129 146 137 145 157 164 158 162 169 158 154 147 141 132 129 130 127 122 119 108 105 102 99 98 103 108 114 116 116 112 115 121 126 131 131 136 137 136 133 132 135 132 134 133 125 116 101 93 75 67 54 51 67 71 63 59 60 67 98 130 134 127 126 123 124 120 124 123 126 127 129 128 123 121 132 129 112 119 
156 156 146 148 144 137 120 125 123 119 123 125 125 130 102 141 129 138 153 162 163 162 167 171 162 151 145 134 131 125 123 119 110 105 97 94 91 94 96 107 112 120 125 131 130 132 130 133 133 130 138 143 140 135 137 136 133 123 113 98 86 75 67 56 54 48 65 72 72 67 70 94 131 134 130 134 122 122 127 121 123 121 129 127 125 124 126 124 132 127 114 121 
160 162 152 157 146 143 128 128 120 107 129 121 120 121 99 115 126 134 154 157 168 169 172 181 176 168 156 148 130 129 116 111 107 100 99 98 98 99 101 109 112 113 118 129 142 141 138 141 142 138 143 144 144 138 136 128 120 110 96 83 75 63 62 55 55 57 68 86 82 86 86 130 138 128 131 130 119 124 125 123 128 122 126 124 125 123 124 133 130 118 113 125 
160 157 156 150 154 150 131 132 116 109 122 118 114 112 103 90 116 130 155 157 160 171 175 185 190 195 182 170 156 144 136 124 114 110 106 102 103 101 102 104 105 105 108 115 121 130 136 139 140 135 132 133 127 125 118 109 101 94 83 75 61 62 59 55 56 68 86 98 101 97 115 135 131 130 127 128 126 124 128 125 129 125 121 127 127 128 131 129 127 111 120 126 
162 160 156 155 152 146 131 132 121 113 120 114 101 109 111 86 103 128 150 159 159 167 171 184 193 201 207 206 194 175 166 154 133 123 115 107 103 101 97 102 97 98 100 99 104 111 113 116 119 122 119 118 114 109 100 93 86 76 67 57 57 61 59 60 65 80 100 118 113 116 124 129 135 131 128 130 126 128 130 130 127 122 125 127 127 133 125 124 119 112 129 114 
172 165 155 156 147 142 137 135 125 120 117 109 96 108 105 112 110 121 147 154 162 162 167 175 188 192 203 215 213 204 187 181 167 142 130 117 112 100 98 95 95 96 97 90 88 88 85 85 89 90 93 91 84 80 70 65 59 50 48 53 56 64 64 67 76 99 123 133 129 113 118 130 135 129 135 130 127 130 130 132 127 125 125 130 132 130 125 119 117 118 130 97 
177 162 150 140 142 138 142 126 128 121 114 107 94 111 121 116 112 125 135 150 159 162 160 170 178 186 192 203 212 215 207 199 186 171 152 139 127 116 108 101 93 90 89 83 75 69 68 68 66 65 61 57 51 44 41 35 39 37 45 55 64 68 67 80 93 129 142 149 123 106 119 133 133 131 131 134 127 133 130 130 124 128 128 134 127 130 121 120 114 116 118 94 
157 155 146 131 140 137 138 124 126 124 109 103 94 132 117 120 124 135 123 139 153 157 158 158 173 177 185 192 198 210 217 211 205 193 176 161 146 138 119 109 98 93 84 78 67 59 60 56 54 50 43 40 30 23 25 26 35 37 50 61 73 76 84 92 131 150 168 144 107 111 121 132 129 131 130 134 126 134 131 124 128 128 132 132 125 128 117 117 110 110 107 98 
154 152 145 133 139 136 130 123 134 119 107 90 118 132 121 129 132 132 134 127 139 147 151 153 159 172 176 178 187 194 204 208 211 204 190 175 162 145 124 115 105 91 83 67 62 55 54 48 45 40 34 30 25 24 29 35 42 49 64 77 85 91 94 122 150 173 175 117 105 111 127 129 126 130 132 130 126 129 128 126 129 127 136 124 127 121 107 110 110 115 101 97 
152 146 146 135 142 132 127 124 133 109 94 105 133 130 130 136 135 130 138 126 124 136 142 147 148 157 165 171 174 177 191 195 198 206 201 187 171 157 135 119 107 94 81 67 57 57 48 49 42 39 35 32 28 37 37 46 56 70 82 97 99 106 114 144 166 190 159 106 108 120 129 127 127 128 129 128 129 125 129 127 132 127 127 123 118 113 103 108 115 106 96 100 
