P2
# Imagen
92 112
255
164 160 163 163 162 164 161 160 162 161 156 153 151 153 153 150 146 131 118 104 104 101 85 73 61 44 29 30 25 21 20 20 22 19 22 21 20 22 24 24 22 25 26 25 24 25 25 23 25 27 27 29 29 35 38 44 48 48 49 53 56 58 74 93 90 101 124 132 134 137 136 138 137 149 153 157 157 156 156 155 157 158 157 157 154 156 157 156 157 155 156 155 
163 162 159 163 160 162 161 160 160 161 155 150 150 152 148 143 133 117 101 99 95 90 74 58 49 30 22 23 22 18 17 16 18 17 16 16 17 19 22 20 18 17 21 21 17 16 20 17 17 19 26 25 28 29 29 31 42 37 39 42 46 49 55 61 67 75 83 102 117 130 136 135 137 139 145 157 157 155 156 156 156 156 156 155 155 156 155 157 155 156 156 154 
161 160 160 159 163 159 158 159 158 155 151 143 146 148 141 133 119 102 90 92 85 72 60 44 34 24 19 21 21 17 18 13 18 18 13 15 14 19 21 15 16 17 17 20 15 15 16 17 15 18 19 24 27 27 27 24 29 32 30 31 41 41 45 48 50 56 67 73 81 98 119 131 132 137 136 147 151 155 154 155 156 155 156 155 155 156 154 156 155 155 155 155 
159 158 160 154 157 159 160 154 151 143 141 141 138 136 127 115 105 87 78 76 68 56 40 31 24 22 18 19 20 16 18 12 18 17 15 13 16 15 19 18 15 19 17 17 14 17 16 16 16 15 17 17 22 23 20 18 21 22 25 27 28 36 36 41 39 46 50 60 67 69 81 99 117 125 135 139 139 145 152 155 155 155 155 153 153 154 154 157 155 154 155 155 
161 159 157 155 152 153 153 149 144 144 135 132 126 115 106 89 81 70 68 62 55 42 26 25 20 19 21 18 22 16 19 14 17 18 14 14 14 17 19 18 14 19 17 19 16 16 22 17 19 17 18 18 18 20 20 16 17 16 15 21 20 26 29 32 30 35 41 47 58 58 73 73 91 100 116 133 139 134 139 153 152 153 153 152 153 153 155 158 153 156 155 153 
161 159 158 158 156 151 148 143 134 130 125 110 107 89 77 72 66 60 58 53 39 30 21 25 18 19 19 16 25 18 19 17 16 18 14 13 15 18 22 22 13 22 20 19 22 14 23 20 23 21 20 17 21 22 19 22 16 21 15 17 25 15 24 21 24 29 32 36 48 52 57 70 72 81 90 108 128 135 132 134 152 152 153 152 151 154 156 155 154 157 155 155 
159 158 155 156 156 150 141 134 125 120 113 94 82 67 66 60 56 52 44 35 30 23 22 23 21 21 19 15 28 21 19 21 16 20 16 16 16 17 25 24 17 21 26 21 21 20 23 23 25 23 21 22 28 25 23 22 24 20 21 17 26 20 22 18 17 22 30 24 34 43 53 53 62 78 81 86 105 123 131 134 136 152 152 151 152 152 155 155 155 154 154 153 
157 157 156 155 150 143 131 130 124 111 95 77 67 58 57 51 41 36 33 23 25 22 26 23 20 23 19 19 25 23 16 24 24 21 21 19 19 21 26 26 21 23 26 28 23 22 25 27 27 27 26 24 30 32 26 25 30 25 24 23 28 27 21 25 21 18 29 24 33 31 32 41 46 59 80 80 86 106 114 127 133 141 149 152 150 149 153 153 155 155 153 154 
157 153 153 147 137 131 131 127 113 91 76 59 58 56 44 40 33 26 29 25 26 21 29 23 19 23 22 23 26 21 20 26 27 24 25 21 21 24 31 29 24 27 25 34 28 30 27 31 31 29 30 26 30 38 31 28 32 31 34 29 26 30 30 27 28 21 25 26 33 33 35 29 30 39 57 77 82 93 104 107 121 131 139 150 148 150 149 152 154 154 154 154 
154 151 145 136 131 128 129 116 93 76 62 58 55 44 40 29 24 23 28 30 28 23 27 24 19 25 23 26 30 25 22 31 26 29 31 24 22 28 34 34 27 34 30 36 37 32 37 30 36 33 35 33 30 38 39 33 34 31 34 38 29 30 37 36 32 29 28 25 36 37 34 38 28 28 36 56 68 85 92 94 104 118 130 138 142 149 150 149 153 153 152 152 
149 142 135 129 129 125 113 92 79 61 58 52 40 31 30 28 22 25 27 29 28 25 30 25 24 28 23 30 35 32 23 36 30 30 35 29 28 32 36 40 32 37 41 36 40 37 45 36 37 33 41 37 36 33 40 41 40 35 32 40 34 27 47 38 39 28 32 31 33 37 37 35 44 27 24 47 52 60 83 87 85 108 116 126 132 140 148 150 153 152 153 152 
141 135 131 129 126 111 89 75 67 56 45 31 26 26 28 30 25 30 26 29 28 28 34 25 27 33 25 32 39 39 27 42 41 33 39 31 31 37 42 41 40 36 50 44 47 39 49 47 40 39 39 49 38 37 38 44 44 41 33 43 38 36 41 45 39 38 33 33 36 36 38 32 46 41 25 26 48 46 58 79 83 88 99 114 127 132 139 148 150 152 150 152 
135 131 128 126 112 93 76 66 57 38 26 26 25 27 30 30 28 31 31 31 30 30 32 26 33 37 28 36 42 41 32 42 46 41 42 36 36 40 45 43 47 37 48 48 52 44 45 54 49 44 40 55 44 38 42 44 48 47 36 39 44 39 44 44 41 43 34 37 37 37 38 37 38 50 41 25 34 41 53 56 68 84 87 97 118 131 132 135 146 151 151 151 
127 131 124 118 98 81 71 54 37 24 24 27 32 29 34 29 30 31 34 33 34 34 35 28 36 38 30 37 41 42 34 43 48 43 42 39 42 41 45 44 49 44 45 54 52 50 45 55 55 50 41 52 54 38 44 48 51 48 38 41 45 46 44 48 40 40 39 37 44 39 35 40 37 49 49 35 32 35 41 59 49 67 84 86 101 129 134 134 136 147 151 152 
128 127 118 101 87 73 56 33 28 29 23 32 36 33 33 35 33 30 38 36 37 39 37 33 41 39 35 40 42 42 36 43 52 40 46 42 47 43 46 46 50 49 48 56 54 53 49 54 54 55 48 48 53 46 43 52 51 44 42 44 43 50 45 48 44 41 37 42 48 40 37 38 40 40 55 44 29 36 33 47 54 47 70 76 93 115 134 133 133 133 149 150 
128 128 113 95 80 55 34 26 28 32 28 33 36 38 36 37 39 35 38 41 38 39 39 35 43 41 40 41 47 42 37 44 54 46 45 44 50 48 50 53 51 51 57 54 58 60 55 58 54 59 53 55 45 57 45 51 53 45 48 50 46 46 47 48 46 44 39 39 46 46 37 37 42 37 52 50 37 32 37 36 54 49 60 68 74 103 126 129 128 131 138 149 
129 127 106 91 64 37 32 29 33 34 34 33 37 40 40 40 41 41 39 43 41 41 40 38 41 45 45 41 46 46 43 44 57 51 48 49 53 52 54 58 55 55 57 58 55 61 56 60 55 63 56 61 53 59 54 53 58 52 54 53 44 47 52 55 45 47 38 38 44 47 46 39 39 41 49 49 42 41 39 38 45 58 52 59 65 82 110 127 130 132 133 144 
127 121 100 75 49 34 33 35 34 37 41 37 37 42 41 47 41 43 40 41 40 45 41 44 41 50 51 42 51 49 52 50 58 63 53 50 62 58 55 58 60 55 60 61 56 62 64 67 55 66 65 61 63 66 60 54 61 59 59 56 51 55 62 58 47 48 41 38 42 50 50 46 41 44 47 48 45 47 38 41 42 56 53 56 65 77 93 115 131 134 133 134 
119 110 87 62 46 36 35 39 40 41 43 42 35 43 43 47 42 42 44 42 46 49 42 49 43 52 54 47 55 57 62 55 61 62 58 53 65 60 58 60 62 58 57 66 56 61 65 69 61 68 71 61 65 68 65 56 59 65 59 60 58 58 61 59 58 49 49 45 45 50 50 43 47 42 42 50 47 44 41 39 43 50 58 53 65 76 83 105 122 132 135 131 
111 94 74 51 43 40 38 42 44 43 45 44 40 43 46 47 44 43 49 44 48 50 46 52 44 51 52 50 54 61 62 58 60 59 58 52 60 61 54 61 57 60 55 65 58 57 60 65 63 58 71 61 63 66 66 55 59 61 63 60 61 59 55 58 60 54 50 54 47 47 48 45 47 45 39 49 48 40 41 40 47 43 57 48 56 69 78 89 114 123 132 131 
101 82 62 41 43 44 41 45 47 46 47 41 41 43 42 49 45 47 51 47 47 51 48 50 51 50 50 53 54 61 62 57 59 55 61 53 55 62 59 58 61 57 54 60 59 54 53 62 62 55 68 60 62 61 62 59 58 57 62 60 61 60 52 62 55 57 54 51 45 43 52 46 48 46 44 50 48 44 50 47 45 47 45 48 49 62 66 81 106 123 123 128 
92 70 47 33 42 46 41 46 46 46 45 38 42 45 44 52 49 48 54 49 48 54 50 54 53 54 54 54 57 61 57 58 58 59 59 59 57 59 58 57 59 56 55 63 62 60 52 56 63 58 64 63 61 60 59 60 62 59 58 63 59 60 56 58 59 57 54 53 43 44 48 48 43 50 46 48 46 46 52 50 48 48 40 45 46 58 56 68 96 121 122 123 
84 55 42 27 35 46 41 47 45 46 43 43 46 46 48 57 56 53 57 52 54 58 59 56 57 58 58 57 60 60 57 60 61 63 63 63 59 61 61 61 60 60 58 63 65 60 61 55 65 62 64 73 63 62 61 60 60 62 64 64 62 60 66 60 61 58 56 58 50 46 49 48 45 52 47 45 38 45 47 48 43 48 40 42 41 51 52 62 78 105 119 120 
74 48 36 30 32 42 40 47 47 44 48 44 50 51 50 62 63 56 60 65 63 63 62 57 62 60 64 65 65 69 60 66 65 72 68 69 67 68 67 68 67 70 64 69 69 64 69 66 71 74 73 77 74 67 66 65 65 66 69 71 70 69 72 68 64 66 60 62 60 50 49 49 48 54 46 46 43 45 49 41 42 48 43 39 40 45 55 58 74 88 115 119 
65 46 32 35 37 44 40 44 49 46 47 48 53 57 55 63 73 67 66 74 72 70 68 71 72 69 76 78 78 82 76 76 81 84 81 84 87 83 77 84 86 84 83 78 83 78 84 85 86 84 89 86 88 80 76 82 72 77 78 79 83 84 87 84 75 77 70 71 68 60 53 59 58 57 48 48 48 47 49 41 41 50 40 35 38 46 47 53 70 79 109 119 
58 40 36 36 40 46 48 42 46 46 53 55 62 64 67 71 78 84 80 80 85 83 81 87 86 83 90 92 97 93 94 95 100 105 109 106 111 107 98 104 107 107 106 104 99 103 103 103 106 102 103 110 102 98 97 95 92 91 92 95 99 102 100 103 92 92 86 84 80 74 68 70 72 64 56 50 51 47 49 48 47 43 42 41 38 42 41 52 62 81 100 113 
48 40 35 38 38 43 55 45 44 49 61 64 67 72 78 80 84 94 92 92 100 97 102 104 101 102 107 107 113 115 111 113 121 126 132 129 128 133 127 128 129 131 130 133 128 127 124 124 124 125 118 130 123 118 116 114 114 110 115 113 117 120 113 112 108 108 104 101 93 91 88 84 85 74 65 57 53 51 52 52 52 45 41 42 37 41 43 47 62 77 93 106 
46 41 37 38 44 50 51 52 49 55 65 67 75 82 89 91 94 103 102 101 109 110 116 120 119 118 123 127 130 134 137 139 139 145 151 154 153 155 157 155 152 153 152 146 153 151 150 145 149 153 143 146 145 146 138 139 136 141 135 136 139 136 134 130 124 124 122 119 111 110 93 93 92 88 74 64 58 54 52 48 49 46 40 39 33 33 46 45 58 72 89 104 
44 41 39 40 52 53 53 50 57 60 68 77 82 88 94 97 100 109 105 106 116 122 131 133 137 141 141 145 147 156 157 160 164 162 168 178 174 172 176 174 176 168 169 162 164 170 170 167 165 172 167 164 164 163 157 166 163 162 165 159 158 159 153 152 147 144 139 136 127 121 111 105 99 96 85 72 66 61 55 50 49 49 44 39 37 26 39 42 51 68 86 100 
41 40 48 45 48 55 53 54 58 66 73 87 89 96 99 103 109 114 112 112 119 130 140 147 153 159 154 158 158 170 169 177 184 187 183 196 190 189 196 192 199 189 187 181 184 185 187 185 185 184 184 180 183 181 176 182 187 178 181 177 183 179 177 175 165 163 159 150 142 131 129 119 115 104 96 81 72 62 57 50 50 48 46 38 37 31 35 39 43 66 83 95 
42 44 49 46 51 53 53 60 64 72 82 88 93 105 107 110 120 118 121 124 132 139 152 152 161 167 167 169 177 185 188 187 197 204 202 205 205 209 208 208 216 211 208 201 195 205 202 199 204 197 194 190 196 193 193 191 196 191 190 191 194 190 186 185 181 175 169 164 150 143 138 128 118 113 103 92 81 69 60 58 50 48 39 41 31 34 33 41 38 58 83 89 
45 45 47 49 53 53 59 61 67 78 85 91 97 108 114 116 123 125 129 137 139 147 155 155 163 175 181 181 189 195 192 189 202 211 214 211 213 217 223 221 224 226 222 217 211 217 216 213 217 217 213 207 210 210 205 202 207 205 200 199 199 193 191 193 187 185 178 167 158 151 143 131 119 112 110 101 88 73 66 60 54 47 42 40 36 32 36 35 44 54 81 88 
51 43 49 51 48 59 61 64 72 81 86 98 103 108 120 118 126 136 147 149 153 156 161 165 175 182 189 188 193 205 205 204 206 216 217 221 220 220 230 230 228 228 226 226 225 227 225 222 225 227 225 222 219 217 213 211 211 213 212 207 204 198 200 199 194 187 191 177 168 155 153 140 124 117 109 104 91 83 71 59 54 52 47 40 36 33 36 38 41 51 77 91 
49 49 44 47 53 55 63 66 75 86 92 105 108 114 124 125 127 144 154 155 159 164 169 173 183 187 190 194 202 207 210 210 214 220 222 226 228 225 234 235 231 235 232 229 227 228 231 225 227 229 230 229 226 221 220 217 216 218 214 211 208 203 205 202 200 189 194 187 174 163 155 148 133 124 108 104 96 86 76 61 54 50 46 45 37 30 32 37 48 50 71 88 
47 49 43 47 50 52 62 69 73 88 94 103 111 113 128 130 131 147 153 162 163 171 176 181 187 194 201 203 210 214 218 218 227 227 225 230 232 232 237 241 237 239 239 235 233 234 237 232 230 237 236 235 233 228 226 221 221 223 220 215 212 207 209 205 201 197 197 191 181 169 160 151 144 128 116 105 101 89 81 66 52 50 43 43 42 31 28 31 44 52 71 82 
43 46 42 47 50 52 60 67 77 87 92 104 110 118 129 131 136 151 159 164 170 179 184 189 194 201 208 211 218 222 225 225 233 235 234 235 236 239 242 244 242 244 242 242 240 238 241 236 232 239 241 240 239 234 231 229 226 227 227 225 218 213 211 209 204 202 200 195 184 173 168 160 149 142 123 113 104 96 80 68 51 48 40 36 41 34 26 32 38 47 68 78 
40 43 39 41 50 55 56 67 75 85 91 102 111 119 129 132 137 154 162 166 176 185 188 196 201 210 215 219 225 228 229 228 237 242 242 238 243 241 245 248 244 245 245 244 243 240 242 242 238 240 244 244 245 239 237 234 232 229 231 229 220 218 214 212 208 204 201 198 188 181 171 166 156 151 133 121 109 100 87 69 53 44 41 33 33 39 23 30 37 40 61 77 
34 40 40 41 47 51 57 64 75 80 91 101 109 124 129 130 142 159 163 169 177 189 192 204 210 217 219 223 227 232 234 236 238 243 244 244 244 244 245 248 246 245 248 249 244 244 243 245 243 242 247 247 248 243 240 237 236 231 234 231 225 220 217 212 211 206 203 198 192 184 175 170 162 154 142 126 116 102 89 72 57 43 38 32 29 33 23 25 37 39 54 69 
32 32 36 43 43 46 55 65 70 79 87 96 108 123 128 133 147 162 167 171 181 194 200 206 217 217 221 227 231 236 237 238 242 243 244 247 246 247 248 248 247 247 248 251 248 246 246 246 245 245 247 246 248 246 242 240 238 235 236 233 228 224 219 216 211 208 199 199 193 184 178 172 166 156 147 130 123 103 93 71 59 44 36 29 29 27 22 21 39 35 52 67 
36 27 38 39 39 45 53 65 66 75 83 92 105 120 129 136 152 163 172 174 182 194 204 209 220 219 224 228 233 235 237 239 243 244 243 246 247 246 248 249 248 247 249 249 249 247 247 246 246 246 247 245 246 247 242 243 238 237 237 236 230 227 221 215 211 206 199 194 193 184 177 172 166 156 149 132 126 109 94 74 60 46 33 28 28 21 17 15 41 35 47 70 
38 29 32 35 35 40 53 60 65 71 83 89 101 117 134 139 157 166 175 180 188 198 206 209 220 221 224 230 233 234 237 241 240 244 244 245 246 248 249 247 248 248 247 250 249 246 247 246 247 246 246 245 243 244 242 241 240 238 236 236 233 227 221 216 211 203 199 193 188 184 175 171 164 160 149 136 128 117 96 78 62 46 32 26 25 18 14 11 36 39 38 66 
42 27 30 29 31 40 49 58 63 68 81 87 95 116 134 144 156 166 178 183 193 200 200 209 214 219 223 231 231 231 236 239 240 240 241 244 245 245 246 247 246 247 247 249 248 246 246 246 246 246 245 244 242 243 241 240 239 237 234 233 234 226 222 214 208 202 194 192 186 180 173 166 162 157 150 138 126 119 99 81 66 48 33 24 22 16 12 13 27 39 36 60 
41 29 31 29 25 36 46 56 60 66 76 85 97 114 133 148 161 168 179 186 192 195 196 204 209 212 217 221 221 223 227 228 232 230 233 238 238 241 243 245 246 246 246 247 247 246 246 245 244 244 243 243 243 242 238 238 236 232 231 226 223 219 213 204 197 194 190 184 180 174 172 161 158 155 149 137 125 117 103 83 64 53 35 24 19 14 12 13 23 37 39 57 
39 31 29 31 22 34 45 50 57 63 73 83 96 116 131 151 162 168 178 187 186 191 197 200 203 209 210 214 215 217 220 222 224 223 225 228 229 233 236 239 244 245 245 246 245 245 245 243 243 242 242 242 241 240 236 234 229 223 222 219 214 210 207 201 189 187 184 175 171 167 160 158 149 149 144 136 125 116 103 82 64 52 37 24 16 11 9 16 23 33 34 58 
37 27 29 26 24 33 42 51 55 60 70 79 97 115 129 152 161 169 173 182 184 186 196 202 202 208 210 213 215 217 220 221 222 223 225 225 225 230 232 234 239 241 244 243 244 244 244 242 242 241 242 241 239 239 235 230 225 221 216 216 211 206 203 201 191 185 179 173 164 163 156 152 143 141 139 135 125 115 103 82 64 52 39 23 14 10 9 15 26 31 37 54 
36 24 26 24 21 32 40 48 54 59 65 81 95 117 132 148 160 167 167 173 186 192 198 206 208 215 220 221 222 222 224 224 224 226 227 227 229 230 232 231 236 240 243 244 243 242 242 241 239 241 239 239 239 236 232 224 224 220 215 214 209 207 201 198 194 185 182 174 164 161 156 151 146 137 130 131 125 115 102 81 65 55 38 21 12 10 10 16 26 31 36 50 
33 25 20 21 20 28 41 46 52 56 61 79 96 117 135 146 157 159 165 179 193 204 206 216 220 223 227 231 230 232 231 229 230 230 231 230 232 233 234 233 236 239 243 243 242 241 243 242 241 241 238 238 237 235 229 224 224 223 218 216 212 209 204 200 200 197 189 184 177 167 167 158 152 141 129 122 121 116 102 81 62 56 39 17 10 8 13 18 27 26 35 47 
35 27 17 21 17 27 39 46 51 53 61 76 97 117 138 145 146 153 175 192 200 209 212 220 225 228 230 234 235 237 237 236 237 236 236 235 235 237 237 237 237 241 243 244 243 245 243 245 242 242 241 239 237 233 228 224 226 222 221 222 220 216 212 210 206 205 198 191 185 177 172 165 159 152 136 118 114 115 104 80 61 55 38 17 7 6 12 23 26 27 40 48 
35 27 21 16 13 24 39 43 51 54 60 79 98 119 137 142 145 155 181 195 202 210 214 218 223 227 230 228 232 235 236 235 238 239 240 239 239 240 238 238 238 239 243 245 245 246 245 244 244 243 242 240 236 232 229 226 226 226 226 226 222 220 217 216 210 207 203 195 186 180 174 167 160 154 144 129 110 109 104 84 61 53 34 14 9 8 10 25 27 24 44 53 
29 32 22 16 10 20 38 44 48 53 59 80 100 118 137 141 150 165 183 196 203 210 215 218 217 222 228 229 230 233 233 235 235 235 236 240 242 243 242 240 238 238 243 245 247 247 246 245 245 244 244 240 237 232 228 229 230 229 228 225 220 217 216 211 209 205 200 195 187 180 175 169 162 154 145 136 115 103 104 86 64 52 32 11 9 9 10 23 29 28 41 60 
36 30 25 16 7 20 37 42 46 50 60 85 101 118 131 143 154 168 182 190 199 206 210 212 216 219 221 222 224 226 228 229 233 235 237 235 236 240 242 242 240 239 241 245 248 247 248 246 245 245 244 240 236 232 231 231 231 229 226 221 219 217 214 213 205 202 199 192 184 175 172 167 159 153 141 136 123 100 100 84 68 52 27 12 10 8 8 23 28 35 42 65 
38 32 24 16 9 19 31 36 39 49 61 87 105 122 125 139 152 165 177 189 196 198 201 204 206 215 217 217 219 222 220 218 226 231 232 238 234 235 240 242 240 239 239 242 247 245 247 247 246 244 243 238 234 233 233 230 229 225 224 222 217 211 206 202 200 193 189 185 178 174 162 160 151 148 142 132 125 102 93 84 70 49 24 11 11 9 8 24 27 39 44 69 
35 32 27 15 13 21 24 33 33 43 60 83 105 123 126 133 148 162 173 182 184 186 185 186 192 207 215 210 205 213 216 210 213 227 231 226 232 232 232 237 239 239 237 238 243 244 245 246 243 242 239 234 231 234 232 230 225 223 219 215 206 198 193 184 181 181 177 169 161 156 153 143 138 131 132 127 117 101 84 81 64 49 23 11 9 11 7 24 27 43 48 69 
37 34 24 18 14 23 29 34 35 40 58 85 100 114 121 131 145 156 164 170 170 169 169 171 182 192 197 184 182 178 195 198 188 205 222 218 213 220 223 228 231 230 229 230 233 238 239 238 238 237 233 228 225 228 225 219 217 211 207 210 198 185 185 185 173 168 167 164 150 140 132 128 122 116 112 115 108 95 83 76 66 43 23 10 10 13 11 21 33 44 52 72 
34 36 22 19 17 25 36 36 36 42 65 87 94 106 119 130 139 146 146 147 152 151 156 164 171 181 175 158 155 158 158 168 163 176 197 201 197 197 205 213 216 215 216 217 219 224 227 227 226 229 227 220 219 216 216 207 202 203 207 208 187 176 170 187 169 154 151 155 142 130 115 108 110 103 96 93 96 88 76 73 67 45 20 12 9 12 15 20 35 42 60 71 
39 32 24 17 19 33 45 50 43 52 76 90 102 117 129 132 133 134 130 133 136 137 136 143 143 148 153 140 142 150 151 150 150 164 174 178 183 186 191 195 197 193 196 198 200 202 208 210 213 212 212 208 203 201 203 196 188 192 197 195 173 162 157 155 154 138 138 145 134 121 107 95 94 96 87 78 76 82 74 71 65 45 21 12 7 16 17 18 34 44 63 70 
40 35 25 19 21 40 49 53 48 66 86 107 125 134 134 137 134 130 134 139 138 138 126 124 123 129 137 134 131 137 134 141 143 152 157 158 163 173 175 179 178 178 182 184 188 192 196 196 199 200 196 193 186 187 190 183 176 172 173 176 164 153 147 138 132 120 127 133 125 110 99 85 79 81 89 82 69 75 75 69 69 44 22 12 11 17 16 18 33 46 58 67 
44 37 29 22 22 44 50 48 51 67 91 120 134 140 141 140 138 141 144 143 137 125 119 123 129 133 139 141 140 139 134 134 137 145 149 145 150 156 162 169 170 174 177 181 185 189 192 190 191 190 183 179 175 175 175 169 162 155 147 146 143 139 132 123 114 106 112 114 110 100 92 89 79 76 79 86 83 79 81 67 60 47 20 15 11 15 16 23 32 44 56 68 
45 40 29 23 29 47 49 47 47 66 96 122 132 136 141 142 150 152 154 150 139 130 126 133 136 140 140 134 131 133 128 130 133 131 136 136 138 144 152 156 158 162 172 174 179 187 190 188 185 184 177 175 171 172 170 167 158 148 132 122 118 117 112 110 107 103 97 103 104 104 103 103 99 85 77 83 93 89 92 80 61 42 21 16 14 14 17 25 33 45 50 67 
41 38 33 22 34 50 51 47 44 73 107 122 137 138 142 147 149 153 156 154 151 151 146 144 145 141 137 130 128 128 125 118 118 120 125 129 130 131 137 147 152 157 163 171 176 187 193 191 186 185 178 177 178 176 167 168 164 158 137 126 117 110 110 109 110 109 102 104 112 117 115 117 120 106 92 80 94 101 103 95 75 43 19 15 17 10 19 24 35 41 48 64 
44 36 33 25 39 55 55 47 49 80 111 128 145 151 148 145 144 155 154 143 144 145 140 129 133 132 146 133 127 130 131 129 129 121 129 133 134 133 132 141 152 151 160 166 178 181 186 184 182 179 174 175 178 171 167 172 172 167 154 140 125 121 113 111 109 113 114 110 107 114 119 120 123 117 107 87 84 104 104 99 87 53 20 17 18 9 18 24 31 37 47 58 
42 36 32 28 43 62 60 49 53 90 118 141 157 161 151 145 145 146 149 135 137 146 127 108 116 121 135 129 118 127 140 134 129 139 137 143 140 143 137 146 151 151 159 169 172 181 178 179 179 176 175 174 169 167 171 175 174 178 165 150 139 137 137 104 102 112 128 126 115 104 113 125 119 114 109 98 82 96 104 99 88 64 27 16 21 12 13 18 33 39 47 52 
42 34 37 32 49 66 64 56 63 97 127 150 163 169 157 147 143 143 136 136 139 148 122 103 114 130 125 116 112 125 131 144 138 146 149 147 147 142 136 142 151 162 161 178 175 177 179 174 174 169 173 170 169 162 160 162 171 176 159 140 131 120 115 109 103 110 130 136 120 94 96 114 113 112 106 97 82 92 104 98 87 71 35 20 23 14 17 19 27 33 42 47 
36 39 42 34 52 69 69 63 73 103 136 154 169 175 173 157 149 143 142 143 158 157 137 113 127 136 139 113 121 146 136 140 152 160 154 145 141 147 142 138 147 162 169 180 185 182 178 178 174 169 163 162 162 164 164 159 161 172 166 133 128 120 109 107 110 126 134 144 127 99 91 96 113 108 112 105 89 90 103 100 89 74 45 17 23 16 15 24 26 39 32 43 
32 39 41 32 55 69 74 67 80 111 135 163 176 182 188 176 163 156 156 163 169 169 150 138 141 147 161 142 139 164 137 134 157 184 159 154 151 149 146 147 145 163 184 193 189 183 181 183 174 170 160 162 167 166 158 158 161 173 165 138 123 117 121 115 123 134 142 131 129 100 92 96 116 115 114 97 95 99 108 102 94 81 49 20 21 26 20 25 29 45 35 36 
29 39 41 31 59 76 78 71 86 117 141 161 177 187 194 197 193 181 181 179 176 181 168 154 165 171 172 167 168 171 146 138 155 172 164 152 159 171 166 151 163 178 191 197 200 193 188 187 182 175 162 170 189 173 165 163 166 184 171 146 137 129 138 132 128 137 141 133 112 105 103 115 135 138 118 97 95 105 114 110 100 88 55 22 23 33 28 29 33 48 33 39 
32 36 37 32 68 80 80 74 92 118 147 164 183 192 197 203 205 195 190 185 182 185 184 170 183 184 173 176 182 180 160 159 169 178 169 167 174 186 184 172 175 195 204 200 202 205 196 190 188 178 168 185 203 183 165 163 173 190 178 158 154 139 132 133 136 158 150 140 129 118 114 132 151 148 130 111 105 112 120 117 109 90 61 21 31 37 32 29 37 41 36 39 
30 33 36 39 71 81 87 75 96 119 144 168 183 196 206 211 212 208 205 197 193 191 190 186 196 203 195 191 189 183 183 181 186 192 182 181 188 185 184 188 197 208 209 201 202 206 212 206 204 195 185 195 210 196 169 175 184 196 195 179 166 164 147 144 145 169 161 150 143 137 135 151 156 150 143 127 119 125 126 124 110 97 62 28 35 44 29 27 41 31 37 42 
28 30 40 46 68 84 89 84 102 122 146 167 184 196 207 213 217 217 216 214 210 209 201 193 198 201 198 198 196 191 187 190 195 202 201 195 196 193 190 200 207 212 211 199 200 209 214 218 215 207 193 194 200 205 192 182 190 199 202 193 178 177 160 155 160 168 166 160 157 149 153 166 166 160 151 135 128 134 137 129 116 94 70 35 43 51 27 29 39 29 29 44 
29 31 44 47 66 88 97 91 105 125 147 167 186 198 208 215 222 223 223 224 221 218 213 209 210 211 206 205 201 198 193 193 194 199 201 207 207 209 210 205 203 207 209 207 212 218 224 218 215 208 201 196 201 205 205 201 205 210 208 198 187 189 180 176 178 175 174 170 167 166 166 170 170 163 157 141 138 139 144 134 122 98 78 42 51 57 26 32 31 27 30 46 
37 34 40 49 68 92 105 100 107 126 150 169 185 198 211 219 227 230 230 232 228 226 217 220 220 218 216 213 210 206 205 205 207 208 207 211 214 214 213 206 200 202 206 211 218 221 223 219 216 205 199 198 202 205 207 208 211 215 213 207 192 191 186 182 180 186 185 181 178 175 175 178 174 170 166 151 147 148 149 135 123 99 84 48 59 59 31 32 22 26 32 42 
38 36 37 47 73 89 110 107 108 127 146 167 185 199 210 221 226 232 234 236 234 230 225 230 229 228 227 226 224 224 226 225 226 223 226 226 228 225 223 220 214 210 203 205 216 221 221 221 218 203 192 193 200 209 213 215 218 223 222 216 205 199 196 193 191 192 194 192 190 188 187 187 182 178 168 157 154 154 155 140 120 102 88 56 61 57 34 28 17 26 36 36 
32 38 44 45 75 89 108 113 113 130 143 163 182 199 209 221 227 234 239 242 240 235 235 240 241 240 240 239 237 237 238 236 235 235 234 238 237 237 232 226 225 222 213 213 218 222 223 219 219 207 200 199 204 210 214 221 224 225 224 220 212 207 202 200 201 200 200 198 197 196 197 194 190 184 172 159 163 155 159 138 113 102 95 59 60 52 40 21 17 28 33 36 
27 38 41 42 81 93 106 126 120 135 141 162 179 195 207 217 226 233 238 242 243 240 243 248 250 250 249 248 246 246 246 244 243 242 242 243 242 244 242 232 228 225 222 224 224 225 221 221 219 214 211 210 207 209 214 225 227 229 228 226 219 214 210 211 212 213 212 211 208 205 205 200 194 188 173 165 164 163 159 136 110 105 98 64 56 41 46 18 19 23 33 38 
26 41 39 40 87 90 108 131 129 134 138 161 176 191 202 214 222 231 236 241 242 241 248 253 253 254 253 252 249 250 248 248 248 245 244 245 245 245 246 241 235 229 226 231 232 232 229 228 225 221 218 216 217 219 222 230 230 232 230 228 225 218 216 215 217 220 219 220 216 214 209 205 198 191 176 168 167 167 158 128 114 115 96 69 51 33 42 19 19 25 32 37 
27 41 37 35 72 89 105 135 135 132 133 159 175 190 198 209 219 228 233 237 237 240 248 253 254 255 254 252 251 250 251 250 249 248 245 245 244 245 247 245 243 236 232 236 236 235 233 232 228 222 220 220 226 228 231 235 238 238 235 233 233 228 224 222 223 224 223 223 221 217 213 209 200 191 177 172 169 172 152 123 122 121 92 64 48 34 34 16 22 26 30 36 
28 36 39 32 59 84 100 135 144 134 135 154 172 188 196 209 216 224 232 234 234 240 247 252 254 254 253 252 250 250 249 249 249 247 243 244 242 243 247 246 243 239 235 238 238 235 235 234 228 223 222 221 225 229 230 235 240 241 239 236 235 229 226 225 224 224 223 223 219 215 214 209 202 189 174 175 173 169 151 124 129 121 85 62 43 42 21 14 24 25 27 32 
30 26 38 32 44 86 96 128 151 140 138 152 168 184 194 204 212 219 227 229 233 242 247 252 251 253 252 250 250 249 248 248 247 242 239 241 241 241 245 244 242 237 236 236 235 235 234 233 228 222 223 223 221 225 230 235 238 240 239 237 235 229 225 225 223 221 222 219 217 214 212 207 200 185 175 178 174 162 151 129 130 118 77 56 39 34 21 9 22 28 29 27 
29 20 28 32 37 81 96 113 150 143 138 148 167 181 190 201 208 216 222 225 230 241 246 248 249 250 251 247 248 247 245 244 242 236 235 238 238 239 242 243 238 235 233 232 230 231 230 231 228 224 224 225 220 222 228 233 235 237 238 236 234 228 225 222 220 217 217 218 214 212 208 206 195 182 180 179 168 158 144 132 130 111 72 46 37 21 20 16 15 30 30 29 
26 23 13 19 34 58 83 105 127 143 139 146 162 176 188 197 206 212 218 219 230 239 243 245 246 248 246 246 244 240 237 237 236 230 231 233 233 237 238 238 234 230 231 227 226 229 229 230 230 228 227 226 223 220 225 231 233 235 234 235 233 227 222 220 218 214 213 213 210 209 204 200 187 184 181 175 167 152 137 133 132 100 62 43 24 14 16 20 16 21 31 36 
20 22 12 5 17 47 61 88 110 129 136 147 159 174 182 194 201 208 211 219 228 235 239 242 243 243 244 242 239 234 229 234 232 226 228 227 226 235 236 232 229 228 229 226 224 230 227 229 231 233 225 225 225 221 223 229 231 235 232 231 231 227 220 214 215 212 209 207 206 206 201 195 183 180 179 171 167 148 133 133 124 82 50 28 19 11 16 17 20 18 22 36 
19 20 10 7 1 20 40 67 86 111 121 143 158 170 178 187 197 202 206 215 223 231 234 236 239 240 238 235 231 227 225 233 232 223 224 219 218 230 232 228 225 227 229 224 224 232 228 222 230 230 224 220 223 223 221 227 228 231 228 228 228 225 220 209 208 209 203 200 202 200 196 187 180 179 173 168 163 140 128 126 108 58 34 19 11 10 12 17 19 20 15 25 
20 18 10 6 2 12 19 43 60 81 105 134 154 169 177 183 191 196 202 211 219 224 230 231 233 233 231 227 224 221 223 227 228 222 220 210 207 218 223 218 219 222 223 222 224 233 228 220 221 222 214 213 215 222 222 223 226 225 225 224 222 220 213 204 205 204 198 195 196 195 190 182 177 175 167 168 153 128 118 105 80 40 15 10 13 7 11 13 17 18 16 17 
17 18 12 4 4 4 20 31 39 57 94 118 150 164 171 177 185 189 195 206 213 217 224 224 225 225 221 219 216 217 216 218 219 216 216 206 198 197 203 201 202 210 211 216 221 225 220 206 204 203 194 195 204 213 213 217 220 218 217 215 213 213 204 197 195 196 191 190 191 190 183 175 173 171 164 158 133 116 97 81 53 21 7 7 12 9 7 14 14 16 15 15 
15 16 12 5 5 1 18 31 35 37 67 99 139 155 166 170 180 185 188 198 204 210 213 215 216 213 212 208 206 210 204 200 203 204 205 197 195 192 184 180 182 191 197 201 207 211 204 186 188 187 184 188 198 197 199 203 202 201 200 204 204 200 195 189 189 189 183 184 185 182 179 170 168 161 152 138 119 95 76 60 35 11 7 4 11 11 7 11 13 16 15 20 
13 15 11 8 4 2 10 28 37 34 64 88 127 145 159 167 175 183 187 188 195 198 204 203 205 204 199 198 196 198 196 186 184 191 195 194 189 189 186 176 173 178 180 180 184 191 185 177 181 181 176 175 185 189 190 186 182 180 184 188 190 188 188 181 183 184 181 180 178 177 172 165 157 148 134 117 98 84 64 41 17 11 5 3 8 11 7 10 15 15 13 19 
11 13 11 8 3 4 4 26 35 34 60 79 118 139 152 164 173 178 182 183 184 187 190 192 191 190 189 189 188 191 189 192 187 190 194 199 193 187 186 186 182 179 173 172 172 177 178 173 174 175 168 169 174 176 176 175 172 172 176 181 182 181 183 179 181 181 179 177 171 169 166 159 146 139 120 107 91 80 56 27 11 13 3 6 5 10 6 7 14 14 16 11 
12 11 13 5 2 8 0 18 36 31 57 74 107 136 146 160 169 175 177 180 179 174 174 176 176 179 182 183 184 190 193 197 197 196 198 199 200 191 186 184 185 184 179 176 179 182 186 181 176 170 164 160 162 171 171 172 176 176 179 183 185 181 179 174 181 177 174 174 167 162 159 152 139 134 112 101 89 73 46 21 11 11 3 7 6 6 8 7 13 12 15 11 
14 11 13 5 4 6 2 13 32 33 54 70 96 131 141 157 164 170 173 177 176 171 168 167 170 174 178 182 185 192 194 203 205 203 202 202 200 196 190 184 180 181 181 184 186 188 189 189 180 169 164 159 160 168 171 175 180 184 181 180 181 176 172 174 178 176 170 168 163 156 152 144 135 124 107 96 84 66 36 16 12 12 2 6 6 7 6 8 14 8 16 14 
18 12 9 5 4 6 5 9 27 35 49 70 85 123 138 149 160 167 172 173 174 170 166 166 169 172 177 183 186 194 199 206 207 206 205 203 202 197 193 193 187 184 182 188 187 187 188 185 181 175 174 171 168 174 172 174 176 180 177 172 174 172 171 172 176 173 166 162 156 149 146 139 130 116 106 90 80 55 28 12 15 8 3 5 6 7 8 6 13 12 11 16 
15 12 8 7 6 10 2 9 22 35 46 70 77 113 131 141 156 162 168 170 171 168 168 166 166 171 178 179 188 190 200 204 209 206 205 202 200 200 199 199 198 197 193 190 187 186 188 185 185 187 188 183 177 178 174 173 173 173 174 171 165 169 169 174 170 169 165 155 151 143 141 132 126 111 102 87 74 45 21 11 16 5 6 4 6 7 8 10 10 15 12 16 
14 9 10 8 8 8 7 9 18 32 42 67 74 101 125 137 149 160 166 168 170 172 168 168 167 172 176 180 185 190 197 204 206 205 203 200 200 201 203 204 206 205 201 195 193 192 193 193 195 198 198 191 188 180 175 174 172 171 170 171 164 162 167 170 169 166 159 152 145 141 136 129 124 108 96 86 62 36 15 13 13 4 7 2 9 6 9 10 10 12 14 15 
14 10 8 9 6 8 9 10 17 28 38 59 76 92 115 131 141 153 164 169 171 174 172 170 170 172 171 179 179 183 186 194 197 198 199 195 196 198 199 200 201 201 199 198 196 195 198 199 198 200 198 193 190 185 175 176 173 172 167 165 163 157 164 166 164 159 152 148 141 139 133 129 118 106 92 78 51 27 13 17 9 4 8 4 8 6 9 9 13 11 12 17 
14 8 10 8 8 12 12 12 18 20 37 48 70 85 107 128 139 149 155 165 170 171 171 175 170 166 169 175 177 179 177 172 179 183 186 189 187 184 184 182 181 183 186 189 190 184 186 190 187 188 189 187 183 180 171 167 169 162 157 159 158 154 157 161 156 154 151 145 139 137 130 131 113 100 87 68 38 22 13 16 9 3 9 5 8 6 9 8 13 12 10 15 
12 11 11 8 15 13 10 18 21 10 32 42 61 75 101 121 140 148 152 154 160 159 166 174 181 176 169 171 181 180 177 169 164 162 167 174 181 179 175 171 171 169 164 171 169 165 168 172 171 172 174 174 170 167 158 152 156 155 153 156 150 146 150 153 155 156 151 143 140 130 132 128 107 93 78 49 32 18 16 14 6 7 9 9 6 8 8 9 12 15 11 13 
15 11 10 12 18 13 13 24 19 7 23 38 49 71 87 118 136 143 151 152 156 154 156 167 175 181 175 172 168 169 173 177 174 170 173 165 171 174 167 167 161 155 152 153 155 152 154 164 161 165 165 159 153 154 151 148 154 158 157 155 144 136 149 160 163 158 150 141 135 126 132 122 100 85 63 39 26 17 16 10 8 8 10 10 8 8 7 9 9 12 16 13 
15 10 10 14 17 13 18 22 14 6 18 31 40 60 82 105 135 138 145 149 152 157 159 164 170 176 178 180 174 172 164 173 175 173 177 179 174 173 164 164 162 160 158 154 154 154 151 160 160 163 164 156 155 154 156 156 160 164 155 151 145 147 162 165 164 156 146 139 129 126 130 111 88 71 49 32 21 17 14 10 9 11 13 11 9 9 9 9 9 12 18 17 
13 10 11 14 11 10 16 19 12 10 14 26 31 47 75 90 130 137 138 144 150 155 165 171 174 173 175 180 180 179 179 177 175 179 182 179 174 174 172 176 185 182 177 178 173 159 157 157 159 158 158 155 158 156 160 158 163 161 155 154 152 152 159 160 158 152 145 133 126 125 123 100 70 56 38 29 16 18 12 11 11 13 14 12 7 12 8 12 8 9 21 19 
14 13 11 13 11 14 19 14 14 14 16 18 26 38 66 84 120 132 134 135 145 151 158 172 178 181 183 185 188 187 191 197 196 194 197 190 184 187 192 192 192 190 182 186 187 172 165 153 149 149 152 153 158 155 155 157 162 163 162 156 149 146 154 157 156 150 142 129 127 120 109 83 57 43 31 22 15 12 11 12 11 15 13 9 7 10 9 12 9 7 19 18 
14 19 13 12 13 17 22 14 14 17 18 16 17 38 57 80 117 131 130 133 140 144 152 163 171 178 183 187 192 191 193 194 204 200 198 193 193 193 198 196 193 189 182 180 178 175 170 167 163 164 163 159 161 158 160 163 165 164 162 156 151 151 155 153 150 142 132 128 120 111 91 69 45 36 27 18 11 13 11 13 11 15 13 8 9 13 9 12 8 8 15 20 
14 20 14 15 16 19 20 16 12 18 18 15 10 36 51 73 112 132 128 129 134 140 148 155 164 169 176 181 185 188 189 187 191 200 205 202 195 192 194 193 196 192 190 186 183 177 175 176 177 175 168 164 163 162 162 160 163 163 162 159 152 152 150 149 140 131 128 123 111 97 74 53 37 31 24 11 11 13 13 12 9 16 12 9 12 12 6 13 7 8 14 19 
17 18 17 19 20 23 18 18 11 19 18 17 10 27 50 64 107 129 132 128 128 135 141 151 156 164 172 176 181 186 190 189 189 191 198 201 198 196 191 191 192 192 190 185 186 182 180 177 170 167 166 166 167 167 166 164 167 166 163 154 151 149 144 139 133 127 123 117 99 82 57 39 31 23 18 9 13 14 14 13 12 16 11 10 12 8 7 11 9 7 12 15 
16 17 19 24 29 23 20 19 14 21 17 16 16 22 44 64 100 126 132 133 129 130 133 143 152 160 166 172 174 184 188 191 189 189 191 193 191 191 186 183 183 181 182 180 180 179 178 174 170 165 166 169 167 167 165 166 166 162 157 152 146 143 137 128 125 120 114 106 88 59 42 29 24 14 14 11 16 14 17 13 13 14 9 13 11 8 9 10 8 6 12 16 
20 18 22 23 27 22 19 19 13 17 15 16 15 30 32 65 94 125 128 134 132 131 132 136 145 154 163 166 171 175 184 189 188 187 189 190 190 191 185 184 181 179 178 177 176 176 175 171 171 171 169 167 162 162 163 163 162 155 153 146 140 136 128 125 122 113 107 96 71 41 27 19 10 13 15 11 15 16 19 13 12 12 12 11 9 7 10 7 7 6 14 10 
18 17 24 22 26 20 15 15 10 13 12 16 10 27 33 55 97 122 133 133 137 135 136 137 140 147 156 163 167 172 175 181 188 188 189 192 193 193 191 190 186 183 181 176 174 172 173 170 171 167 166 163 160 159 162 159 156 152 146 140 135 124 125 125 117 109 95 78 51 25 17 9 11 12 12 11 15 18 16 11 10 13 11 10 8 9 6 6 8 9 13 8 
17 17 21 23 23 20 14 10 11 12 12 11 12 27 37 50 93 123 137 137 135 137 139 140 144 146 151 161 167 173 176 180 186 189 191 193 194 193 195 194 190 192 187 185 181 176 176 170 168 165 165 163 161 163 161 156 152 146 141 132 125 125 127 122 112 100 83 60 35 16 9 8 9 10 10 13 14 13 13 8 10 13 8 9 8 6 6 3 9 11 10 7 
16 20 21 22 21 16 11 9 12 10 10 11 13 27 40 51 92 122 135 142 140 137 139 139 144 149 151 160 167 175 179 183 185 191 192 195 198 196 194 194 192 192 192 189 188 184 181 177 174 171 169 167 165 162 157 152 147 141 135 128 128 128 125 117 106 91 69 44 25 8 6 7 9 7 10 10 10 12 9 8 9 10 6 5 8 6 5 3 11 11 7 11 
22 19 21 19 15 12 10 12 14 10 10 11 24 30 43 66 98 121 134 141 145 141 139 141 144 145 151 156 163 169 177 183 188 193 193 196 200 201 200 201 198 194 194 194 192 191 189 187 184 181 178 173 167 162 157 150 148 141 135 131 129 127 122 113 99 81 52 37 17 6 4 5 7 7 9 9 6 7 6 7 8 7 5 8 6 7 4 4 11 7 9 17 
28 19 16 14 14 10 10 13 15 12 12 17 29 35 56 81 101 122 135 140 145 146 139 141 144 142 147 154 158 163 171 176 185 192 197 200 202 207 207 208 206 204 205 202 199 196 194 193 190 185 182 176 171 164 159 154 149 142 137 130 129 126 117 108 92 66 46 33 10 5 4 4 7 5 9 6 5 5 6 6 6 4 6 9 5 3 5 5 9 6 13 18 
22 17 18 12 13 12 13 15 20 15 15 27 34 49 69 89 105 128 132 142 143 146 145 141 143 143 142 149 154 162 165 169 178 186 191 198 200 207 207 208 208 208 207 204 200 199 196 193 189 184 181 177 168 164 157 152 148 141 132 131 130 123 113 101 76 60 42 28 9 4 4 4 2 4 6 4 2 5 5 4 5 4 5 8 1 3 6 5 13 5 15 17 
21 17 17 13 15 13 14 20 22 19 21 35 46 59 78 95 108 130 137 138 146 147 145 143 142 143 144 141 148 154 159 165 168 174 180 185 192 196 201 203 204 202 199 198 197 195 193 189 185 178 176 170 162 157 151 149 142 135 133 131 127 117 106 90 67 54 42 18 7 4 3 1 1 3 2 2 0 5 3 2 5 4 5 3 1 3 7 9 10 5 15 19 
19 20 18 13 19 12 18 23 25 22 28 44 54 69 86 102 113 128 141 140 141 148 145 142 141 141 142 140 142 144 153 157 162 167 168 173 179 183 190 192 193 192 191 192 190 189 186 182 175 171 166 161 153 149 145 141 136 130 133 127 120 113 102 81 63 51 38 14 10 7 0 2 1 2 0 3 2 2 3 2 5 3 4 3 2 7 7 10 7 9 16 24 
