P2
# Imagen
92 112
255
163 157 160 162 159 165 160 161 165 161 150 141 141 147 145 137 132 134 116 100 101 93 100 106 110 92 61 59 61 44 36 44 54 46 54 51 46 49 61 60 52 61 64 65 62 65 61 58 66 74 80 78 74 84 87 94 93 90 84 82 85 85 95 100 100 109 137 139 141 146 147 146 146 154 157 157 158 156 157 155 156 159 159 157 155 155 157 155 156 158 156 157 
162 158 155 160 157 163 162 158 164 162 150 139 138 141 134 130 125 130 108 93 93 101 106 105 97 61 41 43 44 34 29 29 37 35 36 32 35 40 45 43 37 37 44 49 39 38 34 33 33 36 72 75 74 75 77 80 98 90 93 90 85 80 84 91 90 91 100 123 128 138 145 145 146 147 150 156 157 154 154 156 156 156 155 155 155 155 154 156 157 156 154 155 
157 158 154 154 159 159 158 155 160 154 142 128 131 133 129 115 117 119 108 99 96 101 110 90 70 39 30 33 36 34 30 26 33 33 24 29 26 36 35 29 29 32 32 36 28 27 27 26 28 26 45 67 68 74 70 69 74 82 79 82 97 89 86 89 87 86 90 99 109 123 135 139 142 147 145 151 151 156 153 155 156 154 154 153 156 156 154 156 155 154 155 154 
154 152 153 145 149 158 160 151 141 136 132 128 126 121 115 105 107 108 112 109 106 105 85 53 38 29 26 33 36 29 33 20 28 29 26 25 27 30 34 29 25 33 31 25 24 28 23 29 24 26 27 35 45 48 47 42 48 46 66 68 70 87 86 84 95 95 91 87 94 98 113 125 132 134 145 144 146 150 153 155 156 157 152 153 154 155 156 156 155 154 157 154 
156 155 149 146 140 148 150 141 132 130 131 119 114 105 102 96 107 111 115 113 108 90 50 35 26 28 29 28 39 28 33 24 23 29 24 23 25 27 32 31 23 33 29 29 26 27 32 22 29 29 27 27 37 32 36 32 28 24 24 37 38 61 76 71 67 83 93 99 97 89 102 103 121 128 131 140 146 144 146 156 155 155 155 154 153 152 156 158 154 157 155 155 
158 154 153 150 148 143 135 134 127 126 121 104 108 98 99 100 104 109 110 105 85 60 38 31 23 28 27 24 35 29 31 28 20 31 23 23 26 26 34 34 22 32 30 31 30 25 34 29 29 35 32 24 34 38 28 38 30 27 22 28 31 20 47 44 47 56 73 82 102 101 99 99 99 112 127 129 136 145 144 145 154 154 155 154 155 154 156 155 155 156 156 155 
156 152 147 147 148 139 128 122 117 113 113 107 111 104 106 103 104 104 94 78 48 35 33 31 27 30 27 23 35 30 31 30 22 29 25 26 26 25 35 41 27 27 39 30 30 30 35 33 35 32 34 31 38 38 41 30 37 31 28 24 40 27 30 29 25 26 38 39 54 86 109 106 98 105 111 124 127 134 142 144 143 153 152 155 154 155 155 154 153 154 153 151 
153 150 149 146 139 127 120 120 112 107 103 103 112 108 107 99 85 82 72 37 35 28 38 29 26 27 28 29 28 31 24 35 31 26 30 27 28 30 33 40 35 27 35 38 30 28 36 35 38 40 27 38 43 40 40 39 40 36 30 34 38 44 27 35 32 24 32 25 33 33 43 72 97 104 110 109 119 129 130 134 142 147 149 153 151 150 153 153 154 155 154 155 
149 142 143 135 124 118 120 119 108 104 105 99 111 107 90 79 70 56 42 35 37 29 42 34 25 26 30 31 31 27 28 36 30 29 35 29 32 33 38 42 40 31 35 41 38 32 37 33 41 43 36 33 44 52 37 42 41 42 40 36 37 44 41 35 42 31 34 28 34 33 41 29 45 70 93 104 110 121 128 128 128 139 146 152 148 153 147 151 155 155 154 153 
146 137 132 121 116 116 116 110 103 102 108 110 105 87 84 53 40 31 37 35 37 29 40 38 25 30 29 36 35 29 27 36 35 29 39 34 32 36 41 44 40 45 38 43 44 33 42 37 35 48 46 36 35 51 50 35 43 37 47 38 36 40 49 46 45 37 39 29 41 40 38 46 24 34 51 74 88 109 118 120 130 130 138 145 147 152 149 148 151 154 154 152 
136 126 120 113 116 111 104 104 108 105 111 92 81 59 52 34 31 32 33 36 37 31 42 39 31 31 27 40 43 32 25 39 37 32 39 39 34 40 39 47 44 47 49 43 45 43 40 46 34 38 53 42 35 40 47 45 44 40 45 48 36 40 52 53 46 37 40 39 38 50 42 41 47 26 37 56 62 71 99 115 115 132 128 134 141 147 151 151 153 153 153 154 
126 120 117 116 115 107 103 105 113 101 77 47 38 41 37 37 31 35 33 32 36 35 44 38 34 37 26 39 50 35 29 44 41 35 38 40 38 42 41 46 48 41 56 54 51 43 50 55 43 37 45 57 40 33 42 45 48 46 38 59 37 38 48 51 49 47 40 32 40 43 56 35 50 43 28 35 55 66 65 88 117 120 124 122 135 141 144 152 153 152 152 152 
120 117 114 115 110 106 107 114 98 59 35 27 35 38 37 36 33 35 38 32 37 35 38 37 39 40 29 41 50 39 33 43 45 41 39 40 41 42 47 41 47 44 48 51 56 43 42 65 51 42 41 53 51 31 41 41 44 58 39 43 56 36 48 43 52 49 35 37 32 45 54 47 34 59 42 29 36 56 67 67 74 116 117 121 128 141 135 143 148 153 152 154 
114 119 110 110 112 111 114 94 54 31 28 34 41 40 38 33 37 37 46 36 39 36 39 32 44 44 29 42 49 42 34 45 48 46 41 39 47 45 47 40 47 52 45 55 58 44 36 66 60 44 44 44 56 36 36 45 40 55 46 38 55 43 42 53 42 45 40 37 42 40 47 45 40 56 58 33 31 48 50 77 65 63 107 119 123 133 136 143 142 149 152 152 
116 116 109 109 120 118 88 49 31 36 30 39 47 43 39 38 39 36 47 41 41 43 40 38 49 45 32 47 46 41 38 49 56 47 41 39 49 49 44 46 43 56 52 62 63 58 48 51 66 45 54 47 47 41 36 49 47 40 54 44 48 47 34 56 43 41 42 44 47 45 44 45 43 47 67 55 27 41 44 52 74 67 59 90 126 121 136 141 143 138 147 150 
115 117 106 112 120 89 46 32 34 36 36 38 44 48 45 42 43 44 46 46 42 42 45 39 51 45 37 50 46 38 43 45 61 56 42 41 51 54 47 49 51 57 64 57 67 69 63 56 64 60 54 61 44 52 39 46 60 39 53 52 50 48 38 48 48 39 47 40 41 51 41 48 41 39 63 61 47 27 49 40 62 72 61 70 83 114 132 136 138 138 143 149 
118 118 112 117 92 54 38 32 36 40 39 40 41 49 50 45 43 49 49 48 47 44 49 42 47 51 46 54 45 43 50 46 64 63 44 46 55 57 48 55 54 61 67 57 63 67 66 64 67 69 59 75 59 58 51 49 66 53 48 54 50 58 46 56 48 40 44 40 43 40 50 44 34 35 55 53 56 40 41 44 46 76 69 60 68 77 120 139 137 139 141 146 
112 120 113 95 61 41 42 36 37 41 48 40 41 48 48 51 44 49 48 47 46 51 52 44 50 57 58 56 51 46 63 53 65 73 52 48 63 64 54 59 61 59 67 70 58 65 69 73 59 78 62 73 71 72 57 53 69 62 54 51 58 61 60 54 53 47 45 41 48 39 47 45 41 35 47 49 54 54 36 45 43 67 69 63 69 69 90 125 133 140 139 140 
108 116 90 70 60 42 40 45 44 44 50 45 34 46 50 52 48 46 53 44 47 55 49 54 50 60 60 66 58 55 72 56 67 70 58 54 64 68 61 64 63 62 64 76 61 64 64 77 58 78 69 64 70 74 66 56 61 69 50 60 61 64 56 52 62 55 49 49 52 46 42 47 45 36 35 55 53 53 47 45 46 47 74 67 66 63 75 111 127 134 141 138 
109 88 71 63 55 46 40 45 51 45 48 50 40 46 47 57 52 47 60 49 46 54 47 52 57 56 61 63 58 61 70 61 60 65 58 57 62 68 61 65 60 62 62 70 66 54 61 70 64 63 71 58 73 70 68 56 57 65 50 55 66 67 48 53 57 57 57 50 50 51 39 53 49 44 37 46 54 52 48 46 51 36 68 68 60 68 68 89 127 124 136 137 
92 71 63 56 48 49 42 44 51 51 49 52 45 48 47 58 54 54 60 49 43 57 46 53 61 58 60 56 58 65 67 65 62 59 58 63 58 66 66 59 62 57 52 66 66 53 50 67 66 53 70 58 67 69 62 59 55 55 60 51 66 65 57 58 53 57 63 56 45 55 50 41 56 47 46 48 51 56 58 52 39 43 51 75 65 68 65 78 109 128 122 137 
69 61 51 45 43 51 45 44 50 56 49 47 46 53 51 59 57 54 59 49 47 63 55 53 66 57 60 58 56 66 59 69 60 66 56 66 63 60 61 53 61 58 56 59 70 58 46 61 66 54 67 63 59 67 64 64 63 54 69 57 57 60 64 57 58 58 66 61 45 49 54 44 46 50 50 60 44 59 68 45 45 53 51 63 70 72 51 58 90 123 127 126 
67 56 53 37 38 48 45 49 54 59 51 53 50 53 63 70 59 60 64 52 55 69 61 61 69 62 63 63 56 65 65 73 63 69 61 72 66 58 65 57 62 60 61 59 70 63 55 59 68 58 63 83 57 69 62 71 66 62 75 68 59 55 78 65 63 62 69 71 62 45 59 48 50 53 47 53 45 59 57 47 52 53 48 55 68 71 50 59 62 95 130 122 
69 55 49 42 38 39 44 49 58 57 57 52 61 56 62 82 70 55 67 68 63 74 69 59 73 66 68 72 65 76 68 84 67 80 71 78 73 70 75 73 68 72 67 68 70 73 70 73 80 71 69 91 81 72 70 70 77 68 75 86 68 64 80 76 69 75 70 76 74 54 58 59 57 59 42 47 53 54 51 41 53 52 48 51 59 68 61 58 69 68 122 123 
76 60 41 50 47 43 42 49 57 59 58 52 63 71 63 81 82 70 71 78 76 79 72 77 78 74 75 84 81 91 84 86 86 92 84 97 93 89 88 91 89 93 93 85 89 91 95 93 102 89 87 97 99 87 81 85 84 84 78 91 87 85 92 96 81 88 79 85 84 74 60 77 70 68 50 53 57 53 49 37 49 56 41 41 51 65 63 53 73 61 95 117 
76 57 49 47 51 53 51 51 50 55 65 61 68 71 76 85 87 91 81 81 87 91 88 90 90 84 91 94 99 98 98 96 104 106 113 115 113 113 102 109 107 115 115 114 112 118 114 115 116 114 103 115 108 105 99 100 99 99 92 96 102 107 106 113 100 102 96 100 95 92 80 89 86 73 66 58 65 48 50 50 53 51 46 46 48 62 64 55 64 70 80 103 
66 56 44 50 52 54 61 48 48 61 74 70 74 77 86 88 83 100 96 93 98 99 103 102 103 101 108 98 112 112 105 107 114 121 132 129 128 133 126 131 128 135 136 142 138 134 135 132 130 129 119 129 122 121 120 116 115 115 113 107 116 123 111 118 117 119 108 107 105 108 102 103 93 76 74 70 71 56 57 52 54 48 48 53 43 56 65 62 66 72 71 98 
59 55 43 50 56 57 60 58 52 67 74 71 86 86 86 91 87 103 102 98 102 113 112 113 114 114 116 115 123 122 121 120 125 130 143 145 143 144 149 153 148 149 147 145 158 147 152 142 153 148 132 145 137 142 138 138 137 139 131 125 133 132 131 125 123 132 116 119 114 121 110 107 99 87 84 75 73 61 57 46 55 50 43 43 42 49 72 68 62 79 69 89 
56 52 45 53 56 61 59 64 59 65 74 83 90 93 90 94 97 94 104 105 112 123 126 125 130 130 128 134 132 142 133 134 148 148 159 166 167 157 164 168 172 159 164 153 160 160 162 158 156 164 150 154 161 160 156 167 172 165 162 150 148 149 147 144 144 151 136 137 134 133 130 109 106 90 89 79 77 71 60 54 54 58 51 45 44 34 65 62 60 68 74 78 
54 50 48 49 59 56 57 55 60 70 84 94 88 99 102 98 108 99 105 109 115 131 142 141 146 155 142 140 145 157 152 156 170 176 181 180 187 177 185 184 186 181 184 164 173 168 169 176 175 165 171 161 179 177 180 183 190 182 185 172 179 169 172 165 159 165 156 154 154 141 140 121 112 100 96 87 79 69 64 54 58 57 57 48 47 39 58 58 50 70 71 68 
53 55 52 46 60 59 59 59 62 80 94 94 96 108 108 109 110 104 105 121 125 130 146 144 157 169 168 155 169 173 177 174 192 194 207 193 204 213 202 208 205 204 208 189 167 194 172 181 188 175 178 177 187 190 192 190 203 195 196 194 187 197 179 182 177 180 175 168 167 157 148 135 112 110 110 104 87 71 65 64 57 63 51 51 41 47 54 65 48 58 79 59 
48 55 53 54 58 62 63 64 68 87 96 101 95 106 115 114 111 118 118 123 134 137 142 145 161 179 192 190 187 202 195 188 207 209 220 211 210 226 217 222 217 219 215 210 188 198 200 199 203 201 206 208 208 208 203 197 202 207 202 195 198 203 185 189 185 186 187 173 171 153 145 141 125 121 122 115 97 79 65 68 54 54 55 50 47 39 61 60 51 58 78 65 
51 51 55 63 52 62 65 69 78 88 92 108 108 107 118 116 120 131 134 135 139 149 151 156 172 184 194 189 192 213 214 215 216 216 219 220 216 217 214 216 220 226 220 220 223 218 219 214 218 218 220 219 219 211 210 206 203 210 212 204 199 206 197 195 187 180 201 189 172 161 150 143 136 129 124 116 96 87 74 63 57 50 49 53 44 48 53 67 47 48 74 71 
51 59 53 54 58 59 68 70 83 95 98 111 107 111 121 124 122 137 145 146 147 154 158 166 179 181 186 184 195 209 218 216 225 228 216 230 226 221 225 216 221 231 230 224 228 222 225 220 216 221 221 220 226 210 215 218 208 215 213 211 206 208 207 193 193 184 198 199 181 173 153 149 139 132 121 115 107 92 78 62 59 55 49 50 50 42 52 64 60 40 68 68 
58 56 59 57 55 55 69 74 82 100 98 104 108 111 136 130 127 139 146 155 160 163 167 175 182 182 194 194 208 216 224 223 236 239 221 231 229 227 231 221 225 235 235 229 232 230 227 225 221 230 229 226 234 224 226 231 217 222 221 215 211 209 209 198 191 188 199 197 191 183 163 154 146 133 122 114 114 102 87 71 55 60 56 49 45 43 44 61 59 46 68 64 
51 53 61 62 55 60 62 72 90 93 94 102 108 121 137 131 125 147 156 163 171 178 171 183 192 192 199 203 217 221 223 226 237 238 233 237 230 230 229 229 232 240 237 239 238 238 238 229 225 230 237 228 240 229 228 237 221 223 226 222 218 212 209 205 197 192 197 196 191 186 177 165 154 143 134 118 117 112 89 76 62 52 49 53 42 43 33 65 57 47 63 71 
50 51 54 57 60 60 61 72 87 89 95 101 114 124 136 125 126 150 163 162 172 177 172 193 201 199 209 213 229 231 228 231 248 243 244 242 241 231 229 241 237 240 241 240 242 244 242 239 229 231 238 236 240 234 232 238 228 224 228 226 218 216 209 208 201 197 195 194 189 188 180 170 161 156 143 132 124 114 96 83 66 55 45 45 47 47 34 49 60 44 58 78 
41 50 46 57 55 60 63 73 85 85 94 103 116 126 129 123 136 156 160 162 170 178 180 205 210 212 216 222 235 239 235 237 245 245 247 246 246 237 228 239 239 238 240 239 238 243 241 240 233 230 239 240 241 235 235 238 232 227 227 226 222 216 213 209 207 199 199 193 191 185 182 174 167 162 147 139 134 120 103 83 74 55 47 35 45 46 38 45 51 50 51 70 
41 40 39 54 53 59 66 79 79 87 92 103 114 124 120 133 142 159 161 161 172 189 191 203 216 221 220 230 241 245 242 240 246 244 245 245 242 239 236 237 237 238 239 243 239 241 241 242 240 233 237 239 242 238 235 237 235 229 230 227 223 220 216 213 207 202 195 195 187 185 180 175 174 163 153 138 142 122 107 87 76 60 47 33 37 41 35 37 51 36 52 74 
46 33 39 46 55 54 64 76 78 84 90 99 112 119 123 135 149 157 166 168 173 192 200 207 225 225 228 232 240 246 241 240 245 243 243 243 241 234 236 240 240 237 240 242 242 240 242 241 240 239 238 236 237 238 236 236 234 235 231 227 223 224 218 212 207 202 195 191 188 183 177 173 172 162 153 140 142 132 114 88 80 65 47 35 36 34 31 25 60 36 43 76 
48 36 34 44 54 51 63 71 76 80 86 96 112 114 131 131 154 164 169 181 182 200 211 211 226 225 227 232 237 241 238 238 240 242 240 242 240 238 236 240 240 239 239 241 243 238 241 240 237 240 236 235 234 235 235 236 233 233 231 228 224 223 217 211 208 201 197 190 186 183 174 172 165 164 154 144 142 135 122 97 84 66 51 36 33 29 29 20 52 44 36 70 
53 36 40 41 49 49 55 67 73 72 84 96 106 113 129 136 155 170 177 187 194 203 211 215 219 218 222 230 231 238 235 236 239 239 239 240 240 236 236 239 239 240 239 240 240 240 240 241 236 237 236 234 231 234 234 233 232 229 229 225 225 222 217 210 204 199 191 190 186 179 174 166 164 160 150 143 139 134 126 106 89 71 55 37 30 24 26 24 34 49 28 64 
45 39 48 41 41 39 52 65 72 68 80 93 105 109 124 143 167 176 185 189 195 204 210 208 215 208 216 222 222 228 226 227 229 229 231 238 233 234 235 238 240 239 238 239 238 240 239 239 236 234 234 233 233 232 231 233 231 224 225 219 216 215 208 200 194 195 191 184 179 175 173 163 158 154 148 141 135 132 124 114 89 78 60 38 28 23 24 24 31 38 39 51 
46 39 43 44 36 41 49 58 66 66 75 93 101 108 125 152 175 181 181 193 193 204 211 205 202 206 206 212 211 219 220 221 221 221 225 227 230 229 231 233 238 237 236 237 237 238 238 235 234 233 232 233 232 230 229 229 224 217 215 214 209 205 203 197 186 188 185 176 170 170 161 161 149 147 146 141 135 129 122 112 90 80 64 40 26 21 19 28 37 34 35 52 
45 35 40 40 39 39 45 57 60 63 75 88 100 116 128 159 176 183 178 194 193 199 207 208 203 207 206 209 212 219 218 220 221 221 224 225 228 227 228 229 233 233 236 236 237 238 236 233 233 232 233 231 229 231 228 226 219 215 208 210 206 201 202 197 190 185 184 173 165 165 161 154 145 142 139 142 136 127 119 110 94 79 66 42 26 20 20 25 39 40 30 57 
44 29 36 37 31 37 46 50 56 63 71 86 98 120 138 157 177 180 176 186 197 204 206 211 207 209 217 217 219 221 224 220 223 224 224 227 229 228 229 227 231 232 235 237 236 237 235 233 231 232 232 229 230 228 227 220 219 215 207 208 205 202 199 193 192 186 184 176 165 168 162 155 151 141 133 134 136 125 119 109 98 85 65 43 24 20 20 26 39 41 30 52 
40 30 30 31 30 32 43 49 54 59 67 83 103 120 146 154 173 173 178 190 202 213 211 218 215 216 223 228 227 229 229 226 226 228 225 230 231 231 229 231 231 232 236 236 235 235 237 233 234 234 230 229 229 227 224 220 220 218 211 212 208 204 201 197 198 195 189 185 179 175 171 162 157 147 132 126 133 128 121 108 98 85 68 39 25 15 20 36 31 39 36 48 
42 33 23 25 29 31 39 48 52 56 67 81 104 121 150 154 164 165 187 204 205 216 218 220 222 221 223 229 233 234 233 230 232 232 231 234 233 233 232 231 232 234 235 237 237 238 237 238 234 235 233 232 230 226 224 219 220 217 218 214 215 210 208 208 202 203 197 193 189 182 179 172 166 155 142 125 124 131 125 106 96 88 68 40 22 13 18 43 28 38 39 48 
49 29 27 19 21 29 37 45 49 53 65 87 98 126 145 154 157 165 195 211 209 216 222 219 221 225 225 223 229 232 231 230 232 234 235 237 235 237 233 234 232 233 236 239 238 239 239 238 236 236 234 234 228 225 224 222 220 221 219 218 215 214 213 211 207 204 202 197 192 187 181 173 167 156 146 135 121 125 125 111 94 85 65 37 25 15 16 46 31 27 45 42 
41 37 23 20 19 21 43 40 47 52 65 82 105 119 142 157 160 177 199 212 216 218 221 221 216 220 227 225 226 228 229 230 230 229 234 237 236 236 238 234 233 232 237 239 240 240 238 238 238 238 235 232 231 226 224 224 226 223 223 219 215 211 212 207 206 203 201 197 192 188 183 175 166 156 148 143 128 117 125 113 98 84 67 32 21 18 16 42 41 30 46 52 
43 34 25 20 17 24 37 39 44 52 62 89 104 120 133 156 163 184 200 206 215 216 215 219 217 217 222 223 222 223 225 225 228 232 234 231 231 235 237 236 234 232 236 239 240 239 241 238 239 238 236 233 230 228 224 226 225 222 221 215 213 210 210 209 203 200 200 195 188 183 179 170 164 157 145 143 135 118 118 110 104 84 62 34 21 18 16 39 46 41 47 59 
42 40 24 19 17 28 31 35 42 52 64 88 105 128 129 149 164 181 196 208 208 212 212 214 214 216 220 221 219 221 218 214 222 228 229 231 227 227 234 236 233 231 232 235 238 237 239 238 239 235 235 230 228 227 227 224 224 220 217 215 211 205 200 198 196 192 190 187 180 179 166 162 152 150 145 137 132 117 114 106 104 80 57 34 24 17 19 41 41 50 49 63 
34 37 34 17 20 28 30 36 38 48 66 83 108 128 134 145 160 183 193 201 195 196 198 201 205 216 220 215 206 209 206 199 205 218 222 217 221 223 223 226 229 231 228 228 234 234 235 237 234 233 230 226 225 227 225 224 219 216 212 208 200 192 186 181 178 179 178 170 161 157 152 140 134 123 129 125 119 108 98 103 90 78 59 30 22 19 22 40 38 47 53 69 
39 35 31 19 24 28 35 42 41 47 68 90 105 124 133 153 168 173 186 191 191 188 188 189 198 209 207 190 179 171 180 184 176 192 206 201 197 203 207 213 214 215 212 214 217 224 226 224 225 225 223 218 219 221 219 213 211 206 200 202 191 180 180 180 168 165 163 159 145 135 124 117 110 99 96 104 103 96 95 92 86 71 61 29 22 24 24 37 41 40 55 65 
37 37 25 18 19 33 41 42 42 49 75 91 100 119 140 159 160 169 171 179 188 180 176 180 189 193 181 153 149 149 147 156 154 165 179 181 180 177 186 191 194 191 192 194 194 202 207 209 210 215 216 213 212 210 210 201 198 198 199 201 181 173 168 182 164 150 144 141 128 118 100 93 91 79 74 72 81 80 83 89 86 70 61 34 19 23 32 37 38 41 52 62 
38 37 26 16 20 36 51 52 48 59 82 89 105 134 152 157 157 169 174 178 173 158 144 146 146 144 143 129 135 142 139 143 144 155 162 164 169 167 174 175 176 170 171 174 177 181 186 191 196 198 200 203 201 199 200 192 188 191 193 190 171 162 158 154 148 125 115 115 101 93 83 73 68 63 51 46 55 61 75 97 87 70 68 41 17 31 29 38 39 40 56 60 
41 38 30 19 20 43 50 55 54 71 86 106 137 149 153 164 173 179 183 175 153 134 114 110 106 105 106 108 112 125 131 135 137 138 140 146 151 159 162 168 157 159 160 164 171 172 179 179 185 189 188 188 183 185 188 182 178 173 176 174 158 146 139 126 104 90 93 96 89 77 73 66 64 66 64 55 51 65 68 92 104 72 70 49 26 30 31 34 38 45 55 58 
48 37 36 23 25 44 55 50 57 73 94 126 150 154 165 178 184 180 162 141 126 104 93 92 99 103 108 116 128 138 136 133 137 142 143 139 143 148 153 159 157 157 166 170 174 178 179 179 182 183 176 175 173 171 174 171 169 163 155 150 130 124 111 97 83 75 85 93 96 93 88 89 86 90 82 84 82 81 81 67 90 84 63 58 32 30 32 31 33 42 55 60 
45 43 35 25 32 49 52 52 56 73 106 134 149 160 181 192 185 160 140 126 117 107 101 106 106 114 123 130 135 140 132 130 135 137 139 134 134 138 146 150 151 151 175 183 184 189 193 182 181 179 172 168 165 168 173 173 172 162 141 120 110 99 90 83 77 77 83 99 105 109 107 109 110 114 114 114 112 104 98 83 72 73 65 61 43 27 32 26 31 44 50 63 
41 40 37 27 38 53 55 53 53 84 122 138 158 174 192 183 161 139 135 142 139 144 140 140 145 148 152 148 147 143 140 128 122 121 122 128 128 132 136 142 141 144 154 180 187 199 200 192 185 181 171 166 170 172 177 175 176 170 133 120 111 97 90 86 94 100 100 105 121 128 130 134 137 133 129 119 119 103 108 105 94 59 60 65 51 23 32 23 33 41 49 60 
47 39 34 31 46 55 57 54 55 95 126 146 169 190 189 155 140 143 148 145 149 155 153 149 162 163 170 146 133 134 131 135 127 116 126 130 134 132 131 139 145 138 151 166 183 187 193 188 189 185 174 172 174 175 180 182 180 167 148 135 125 118 107 109 112 115 115 105 101 103 108 110 111 103 101 94 97 97 95 105 109 69 50 68 58 24 26 18 31 36 50 53 
56 40 37 38 47 58 60 51 58 106 132 158 185 195 174 150 147 151 148 142 148 160 151 137 139 126 124 111 89 99 116 112 108 110 114 127 124 127 126 134 138 136 139 159 162 182 180 183 187 184 182 178 179 185 189 187 177 177 158 150 141 132 135 108 105 108 121 114 95 74 76 92 85 81 74 84 87 91 91 100 110 89 56 67 66 28 23 11 32 38 51 51 
59 47 48 44 52 57 64 54 67 114 142 168 189 194 168 152 150 149 138 141 145 165 142 113 107 106 97 96 89 92 101 114 122 126 127 137 126 120 120 135 137 143 127 157 156 165 179 175 181 181 185 182 186 182 179 171 166 168 154 148 136 116 121 124 110 107 127 132 102 58 57 78 70 83 82 78 77 90 92 101 108 102 69 69 76 36 31 23 26 32 45 51 
61 54 52 52 47 62 63 58 72 120 149 177 195 196 180 164 157 145 143 146 164 175 147 105 102 101 114 95 108 126 125 121 156 160 131 124 124 135 138 131 141 153 154 157 151 163 170 180 181 184 180 185 188 186 177 162 156 169 159 133 135 127 127 120 139 153 118 158 129 77 59 65 84 72 85 90 76 91 98 100 110 109 81 69 80 44 30 28 24 49 37 44 
61 56 53 41 48 62 64 61 80 129 152 186 200 201 190 177 166 149 149 161 175 184 153 112 103 125 158 156 176 181 136 129 145 201 143 132 149 159 144 158 152 158 172 167 153 163 173 184 180 185 190 194 194 185 169 156 154 168 154 147 146 132 132 156 177 167 131 150 165 82 82 80 110 104 104 84 90 95 107 104 115 117 85 72 77 61 33 27 26 42 38 43 
52 58 51 34 46 64 67 67 88 137 156 190 203 204 198 193 190 169 164 174 183 187 158 130 137 173 192 199 219 219 147 133 125 142 151 147 168 209 174 164 188 176 188 179 161 166 189 187 185 190 194 209 218 187 167 162 166 177 158 153 163 154 153 176 188 177 138 138 118 104 106 113 136 138 110 77 94 107 113 116 121 125 95 79 76 72 41 31 32 43 35 40 
54 56 45 36 49 64 71 70 95 133 164 189 206 214 207 206 203 188 178 170 188 186 163 144 163 180 194 209 227 240 186 150 144 137 150 152 194 224 211 194 183 189 188 183 183 178 186 194 192 191 202 225 230 187 160 159 173 184 162 166 203 165 158 168 179 188 153 130 127 130 120 142 150 140 109 91 103 122 119 125 130 130 103 79 85 75 47 31 35 40 36 38 
46 50 52 37 51 67 81 77 98 133 162 189 208 222 223 219 217 210 204 192 194 193 179 167 174 183 191 206 225 230 225 182 174 167 172 191 206 204 205 208 200 197 189 176 185 191 201 198 200 209 214 225 234 203 164 163 180 191 179 188 205 178 153 161 152 163 169 164 159 162 161 159 138 130 122 112 128 135 134 132 135 135 107 82 91 81 45 31 36 32 38 42 
41 49 65 37 47 76 89 89 100 137 162 186 210 221 223 224 223 222 220 211 210 205 191 181 184 182 180 181 190 196 211 201 194 198 193 206 214 208 208 203 197 200 195 180 184 197 209 211 213 221 218 219 220 214 184 169 181 197 190 190 206 192 154 160 158 154 150 160 162 164 157 151 146 144 140 133 139 140 146 138 136 136 112 90 95 90 47 32 34 34 30 41 
45 45 76 36 46 79 103 94 99 139 155 186 210 222 223 226 227 226 225 222 215 214 206 197 195 200 201 200 197 202 202 203 202 209 201 197 197 199 199 197 199 206 204 190 200 207 212 210 216 226 224 216 217 212 203 189 195 206 203 185 190 192 171 171 182 179 176 180 179 177 166 171 171 161 152 140 142 145 148 140 144 134 118 90 105 92 50 37 30 32 38 44 
56 48 76 39 47 85 112 98 98 137 158 183 206 222 225 227 230 233 231 228 225 216 212 211 208 204 206 204 203 204 207 210 210 216 208 205 207 207 211 214 212 215 209 204 211 216 215 214 214 223 222 218 216 212 202 197 198 208 213 206 198 196 179 179 186 193 188 185 183 180 173 174 170 164 156 151 152 154 151 147 142 132 117 93 107 92 55 41 19 33 38 39 
53 51 73 48 61 85 110 102 98 136 151 179 206 223 226 229 229 233 233 231 225 223 221 221 217 216 214 216 217 220 226 227 229 221 221 218 226 228 232 237 230 226 211 204 209 214 211 213 217 219 213 209 215 214 205 202 206 212 220 215 213 215 189 183 194 194 197 191 192 192 187 187 181 178 167 163 162 156 157 151 143 132 114 97 102 82 58 43 18 30 44 39 
46 46 81 70 78 87 97 111 103 132 147 174 202 222 225 229 232 235 239 239 235 230 232 231 231 227 227 229 229 232 235 233 238 235 234 238 243 247 247 244 242 232 219 210 208 212 211 208 219 224 218 213 216 211 200 204 207 212 219 216 217 228 207 194 199 201 207 201 201 199 198 196 194 189 177 163 169 157 163 151 137 131 115 97 99 69 64 49 20 27 40 41 
41 42 62 81 103 91 92 127 108 128 148 171 196 217 222 226 232 235 239 240 238 237 240 245 246 245 244 245 242 243 243 241 243 244 245 249 249 254 254 245 238 233 222 216 209 211 205 210 222 229 230 226 220 211 199 206 205 211 216 217 219 232 221 208 210 214 215 215 213 214 215 211 207 203 185 174 173 165 164 153 133 132 116 103 87 59 71 44 32 19 39 43 
41 48 52 87 120 98 103 127 113 124 145 168 189 213 220 221 229 236 237 240 240 239 245 250 248 249 251 249 247 247 247 245 247 248 245 248 249 250 254 249 241 229 221 218 213 213 212 213 225 235 236 232 231 222 210 208 206 208 214 212 220 234 226 213 213 217 218 221 222 222 218 214 211 204 183 174 172 171 168 146 136 135 119 105 75 57 64 40 40 27 37 46 
38 51 56 73 109 107 113 123 113 120 142 157 189 209 218 221 226 231 235 238 237 238 244 248 250 249 250 249 248 247 247 246 246 246 243 244 244 247 248 248 242 230 223 221 218 214 213 218 226 233 234 236 239 233 221 218 219 218 214 216 224 235 232 218 214 214 216 216 217 217 215 210 207 198 180 177 173 176 169 141 137 141 118 105 66 59 50 41 44 36 33 43 
35 49 64 62 94 106 113 123 129 118 137 150 178 210 214 221 225 230 234 235 234 237 245 248 250 249 249 248 247 248 246 246 246 245 240 241 241 243 246 245 238 231 224 220 217 214 214 217 223 232 235 234 237 234 223 220 222 221 221 220 223 235 231 221 211 212 213 214 214 212 214 208 207 192 179 180 180 177 168 139 143 133 120 100 62 66 32 36 52 38 38 36 
32 39 66 53 78 115 116 121 145 123 129 147 169 201 213 214 219 227 232 234 233 239 244 248 248 249 249 246 247 246 244 243 244 240 236 238 240 240 243 241 235 227 223 214 211 209 210 216 222 229 233 233 233 231 225 222 221 220 220 218 223 232 228 224 210 206 209 210 209 211 210 207 203 186 178 183 182 171 166 138 141 132 112 88 62 56 29 22 54 33 48 41 
38 29 51 54 59 122 120 108 147 131 127 146 166 196 211 209 214 225 230 231 231 240 240 244 245 247 246 244 244 244 241 240 238 235 233 238 239 239 240 239 227 219 214 206 200 200 203 214 223 230 234 237 231 230 229 223 217 217 215 217 221 230 228 222 212 202 206 208 206 207 205 204 195 180 181 185 177 170 155 139 141 126 108 77 67 38 25 28 41 46 38 55 
41 28 22 39 47 94 118 104 127 139 131 143 160 186 208 205 210 223 226 227 232 235 241 242 242 244 242 242 239 237 232 233 233 229 231 238 237 236 234 231 217 204 207 195 190 197 203 214 227 234 237 241 236 230 232 225 215 214 206 211 218 224 223 221 214 201 200 205 203 203 201 197 185 181 184 181 175 164 142 139 141 118 91 75 62 19 18 33 39 41 41 53 
34 26 15 12 29 63 108 110 112 137 134 134 154 180 199 203 205 218 223 226 230 233 238 242 238 239 238 237 232 228 223 231 231 227 230 234 234 232 229 221 203 199 204 197 186 196 201 216 228 240 240 243 240 236 231 227 215 218 204 203 215 222 222 220 214 207 196 198 198 197 194 190 177 180 180 173 175 156 136 138 134 106 71 70 53 9 17 27 41 41 29 44 
33 21 14 12 5 16 65 100 100 123 131 125 150 175 193 196 200 209 214 222 226 232 234 236 234 234 231 229 223 221 221 231 233 224 224 227 226 225 221 211 193 204 205 196 191 202 208 209 229 235 239 238 239 239 233 229 215 218 210 198 210 216 220 219 209 203 194 192 192 191 187 181 174 178 175 171 170 144 129 134 126 83 66 54 25 8 15 24 39 44 24 28 
29 19 16 11 4 15 19 58 81 100 120 114 145 171 190 192 192 201 208 218 221 225 230 230 229 226 223 220 218 216 219 227 228 222 219 215 208 209 209 199 191 199 198 196 200 212 216 212 215 221 223 225 229 237 233 223 218 211 212 200 204 206 210 209 205 197 188 185 184 187 181 173 171 175 171 173 159 135 129 126 103 75 48 18 17 10 15 23 34 38 29 20 
21 22 15 8 11 8 23 28 43 82 114 110 145 170 185 187 188 194 202 213 216 215 225 222 222 219 213 214 210 213 214 219 220 215 212 206 192 186 191 181 171 181 181 189 200 213 215 203 194 192 190 190 205 222 220 216 212 203 197 193 195 196 196 195 193 187 180 178 178 179 174 167 169 172 165 161 139 133 127 112 81 67 26 6 13 13 15 21 28 38 27 21 
20 18 16 7 11 9 22 29 32 40 73 110 153 170 178 183 185 186 196 203 208 210 213 213 211 207 205 199 201 208 202 198 204 200 195 194 182 177 175 171 157 152 152 162 178 192 195 182 177 177 177 183 194 197 197 190 180 170 163 180 187 183 182 181 181 180 172 169 172 170 170 161 165 160 152 138 128 123 115 92 66 56 17 6 11 13 13 21 21 37 31 25 
16 19 12 11 8 15 15 29 33 38 65 93 155 176 179 177 178 183 190 192 197 197 201 201 201 200 192 192 195 201 200 185 177 182 180 184 178 175 173 164 157 154 140 127 139 155 164 169 169 172 170 171 179 182 175 155 141 130 147 168 171 166 170 169 172 173 170 165 164 165 163 157 149 143 131 125 117 118 102 70 52 55 11 5 14 8 11 17 22 29 37 24 
13 20 12 10 8 17 12 28 35 35 65 80 142 174 180 174 179 176 184 188 187 188 190 191 189 186 187 190 192 196 191 190 173 171 172 179 181 181 180 178 170 166 150 137 129 136 142 156 162 171 164 164 164 157 141 125 125 133 146 161 160 163 165 172 175 170 170 164 157 160 158 152 135 134 123 118 112 115 89 56 51 50 4 10 11 11 5 15 22 25 38 27 
14 17 17 7 8 18 7 24 36 27 67 72 128 167 178 172 174 173 177 183 181 175 178 179 178 180 185 190 188 191 192 187 179 168 170 179 181 185 192 189 183 176 163 152 146 148 153 155 162 169 168 162 153 138 125 130 143 148 160 162 171 168 172 175 171 166 167 163 155 152 154 144 130 130 117 111 109 107 78 49 55 45 0 8 12 11 9 10 18 22 34 31 
18 17 17 9 10 15 14 19 31 33 64 63 110 160 176 171 170 172 171 175 174 170 170 170 173 179 183 187 186 189 185 184 181 172 179 183 185 187 189 192 189 188 178 173 168 165 166 171 168 171 172 162 153 148 145 156 166 170 170 171 173 174 181 178 169 166 163 156 150 143 147 135 126 122 112 105 104 103 64 49 58 38 0 9 11 14 8 9 19 16 33 35 
25 16 15 10 7 19 14 15 29 32 61 67 93 151 174 172 169 171 169 169 169 167 167 169 175 181 180 185 185 185 184 186 185 185 183 188 187 187 189 198 197 197 193 190 183 177 178 177 171 174 174 169 158 165 167 175 180 182 181 181 181 184 184 173 166 162 154 146 143 136 141 132 122 119 111 97 107 92 57 53 57 25 1 8 13 8 12 7 18 18 27 34 
20 16 13 8 12 26 10 16 24 32 55 76 76 139 169 172 169 166 169 167 165 163 168 169 172 177 182 182 186 180 182 186 194 188 185 184 186 192 197 203 205 207 208 204 198 192 189 182 178 179 182 179 173 174 179 181 188 189 192 192 185 184 175 173 161 158 149 141 140 131 137 125 123 117 108 96 108 79 54 55 54 11 6 6 13 9 13 11 12 19 26 32 
20 11 14 9 21 22 15 17 18 34 46 82 70 122 159 169 166 168 169 166 162 167 165 168 171 176 184 183 186 180 185 193 191 189 186 180 186 192 199 203 207 210 212 211 210 203 203 194 190 190 190 187 188 179 185 191 189 190 192 193 184 177 169 165 162 154 138 139 138 137 134 127 126 115 105 100 102 65 50 59 46 3 10 6 14 10 16 14 10 17 24 30 
20 11 9 14 23 19 13 16 19 30 42 78 78 100 147 161 162 165 171 170 165 166 165 171 170 175 180 185 181 184 182 183 181 182 181 178 182 188 186 189 194 202 204 207 207 205 206 201 192 190 188 182 188 189 184 196 189 191 187 183 178 164 159 155 150 143 125 131 136 142 132 130 124 116 102 105 90 55 53 61 30 1 12 7 12 12 14 13 15 13 23 32 
17 12 16 21 23 23 11 16 22 27 42 64 84 85 134 154 156 165 167 172 169 163 162 171 167 167 179 183 179 182 170 164 162 165 170 177 181 177 174 169 169 177 185 189 190 185 185 184 176 174 175 174 174 182 175 177 183 174 173 170 162 153 142 141 135 133 131 126 142 146 134 134 121 108 99 103 71 53 56 54 17 0 13 8 12 12 14 14 15 15 16 28 
15 24 22 20 26 19 8 22 28 22 35 54 87 74 114 147 152 160 164 165 165 156 160 169 183 182 177 179 185 173 155 148 140 135 134 151 166 164 163 162 165 161 156 161 154 152 160 163 160 160 164 162 156 158 154 151 165 163 156 159 142 130 120 116 126 134 141 135 150 150 141 133 114 100 98 86 57 54 61 37 4 10 9 13 11 15 15 17 15 19 18 24 
23 27 25 22 26 16 15 25 30 16 26 49 74 84 90 132 144 153 161 163 162 154 154 165 175 192 190 184 178 169 166 167 164 157 166 150 145 148 148 147 138 133 127 124 124 117 126 142 139 149 147 137 122 126 122 126 138 139 136 131 116 97 113 133 145 152 152 146 154 144 138 123 106 93 94 67 53 61 55 12 10 9 11 13 14 14 15 20 14 16 27 20 
30 27 20 25 21 13 21 26 27 11 25 43 59 83 94 106 138 142 153 160 159 158 158 164 169 183 195 188 181 168 163 186 188 183 191 193 191 181 166 159 153 145 135 123 122 119 115 122 121 129 131 124 127 117 120 117 128 134 123 121 121 132 148 157 167 167 165 153 147 136 129 112 92 88 81 51 54 59 36 5 12 11 12 13 15 17 15 22 18 19 27 27 
33 27 18 21 16 14 21 26 23 8 24 44 49 71 94 87 124 137 142 152 158 158 163 168 170 173 182 184 181 178 175 177 189 196 203 205 208 208 202 194 195 198 186 183 162 138 140 138 134 133 133 135 138 127 134 135 142 145 138 146 158 160 159 169 180 169 159 142 136 123 117 97 80 81 62 51 56 49 18 11 12 11 12 16 13 19 15 27 21 12 35 23 
32 24 16 15 18 19 25 25 17 8 29 45 41 58 91 81 111 130 134 142 152 158 160 169 172 174 176 180 189 184 192 191 188 197 207 209 209 205 212 213 199 196 192 209 211 195 188 173 169 168 168 167 176 170 166 155 153 158 163 167 165 163 168 174 166 158 144 130 127 116 104 85 77 68 49 55 52 22 15 12 12 13 12 12 17 19 16 29 21 14 35 26 
24 23 20 17 19 26 27 22 13 11 34 43 36 55 80 79 110 130 125 136 146 154 156 165 168 171 175 180 189 189 195 196 203 198 202 197 196 196 200 203 200 192 180 180 186 193 194 191 190 192 195 188 191 177 166 161 164 165 162 158 154 160 169 163 155 149 135 130 119 109 89 80 68 53 53 49 31 20 15 13 13 12 15 11 18 23 22 28 22 16 34 26 
20 27 18 20 24 28 29 21 11 18 37 37 34 56 70 70 105 133 126 127 137 149 155 158 163 167 171 175 185 189 194 193 198 205 209 205 192 185 186 184 188 186 189 184 178 174 173 172 174 169 165 168 168 162 162 160 163 154 151 150 153 161 161 158 149 141 131 128 110 96 82 70 57 52 53 26 21 22 19 9 16 13 13 13 23 19 22 34 19 18 31 24 
21 25 23 27 27 30 29 20 13 27 32 34 35 51 72 57 97 132 132 128 128 139 147 153 156 162 170 173 181 189 195 200 194 196 199 202 197 190 182 182 183 181 177 174 169 164 163 168 166 161 154 150 149 153 153 152 154 153 150 149 159 157 155 152 147 133 129 121 99 83 71 62 47 49 33 15 17 23 22 11 15 16 17 17 25 17 26 34 22 20 29 21 
22 25 23 35 33 27 31 20 20 33 27 35 37 49 67 61 84 129 133 135 130 129 135 147 150 157 164 171 174 190 196 199 199 197 196 197 192 187 178 175 173 173 176 173 171 171 169 165 164 161 159 162 158 160 159 156 153 153 152 154 154 151 151 146 137 123 117 107 88 71 61 51 42 28 16 21 18 18 21 15 19 18 17 21 22 23 28 32 18 16 31 24 
27 21 31 32 32 26 30 21 24 28 28 32 39 54 61 60 77 121 129 136 134 131 130 135 145 152 160 166 169 177 191 195 199 200 199 198 197 195 185 182 175 169 169 170 169 168 165 158 160 161 162 160 157 159 155 151 154 152 152 150 150 148 147 140 130 115 107 97 79 57 44 37 20 14 17 15 14 21 25 19 19 22 19 21 23 24 29 24 17 22 28 21 
22 20 31 31 31 26 19 20 23 21 27 35 31 54 58 52 79 118 131 133 139 137 136 131 139 144 151 160 164 171 178 184 197 199 202 202 203 203 198 194 189 185 177 172 172 167 163 157 157 155 160 157 158 154 155 156 154 155 151 150 151 142 143 138 123 110 98 89 63 39 35 20 10 11 11 16 17 25 26 20 19 29 15 18 24 27 19 18 20 23 23 22 
21 20 28 31 26 24 17 21 21 22 28 30 34 56 61 46 79 119 138 132 138 140 142 140 135 139 145 152 162 167 174 178 186 196 199 201 205 205 208 205 201 200 196 191 188 182 183 172 169 167 169 169 165 168 164 162 160 158 155 151 145 142 141 135 115 101 90 68 45 28 26 18 9 11 13 20 16 19 21 21 20 26 12 17 22 21 16 19 23 24 21 21 
19 24 29 26 21 22 17 20 23 23 26 32 37 57 60 46 82 118 133 141 136 138 142 142 140 140 138 149 155 162 168 177 181 190 195 198 202 202 205 208 206 205 206 204 205 204 202 198 198 195 190 185 182 179 172 167 165 161 154 145 145 143 136 125 107 89 70 47 36 32 25 13 11 11 18 17 12 22 19 21 18 17 12 12 22 19 18 19 29 27 21 21 
29 25 26 24 19 14 17 21 26 25 28 31 48 58 58 57 88 118 134 140 143 137 141 144 147 143 140 144 148 150 162 171 178 186 191 194 197 202 203 208 207 206 206 209 206 209 206 203 204 202 199 194 191 183 176 167 164 156 148 147 145 139 129 118 95 74 46 46 41 34 23 13 11 13 16 16 11 19 15 16 14 7 9 18 16 19 19 22 29 23 22 21 
40 26 27 19 22 15 17 25 29 29 29 36 52 59 59 77 92 121 135 140 141 145 138 142 149 148 144 146 144 147 152 156 172 184 192 195 199 204 208 208 207 207 207 206 204 205 204 201 202 196 196 188 185 175 170 164 157 153 151 144 141 132 119 100 82 52 46 59 42 32 23 12 10 16 15 12 15 13 15 10 8 7 10 17 16 16 23 25 22 20 24 15 
29 25 30 18 19 18 25 29 35 30 29 43 58 64 66 89 97 126 134 142 143 143 147 141 144 149 146 146 148 146 148 150 157 171 180 190 193 202 205 206 206 209 206 203 201 202 199 198 192 189 187 183 174 169 164 157 156 150 146 139 135 126 100 87 59 48 60 61 41 31 22 13 9 14 12 11 13 14 11 8 8 7 12 17 13 17 26 22 22 19 19 14 
25 25 29 20 21 20 28 34 36 31 29 51 62 66 81 95 101 129 138 139 148 150 143 143 145 145 149 144 147 146 146 150 148 152 164 172 182 188 196 198 199 201 198 197 196 194 193 190 184 178 175 171 163 157 153 153 148 145 141 132 123 105 88 74 48 63 70 52 41 31 17 9 13 10 11 8 10 12 7 8 8 12 12 16 14 17 22 21 20 17 14 17 
25 31 28 22 26 23 33 37 37 27 34 57 61 74 92 101 110 125 141 142 145 149 150 142 142 144 147 145 147 143 147 144 147 147 145 154 163 172 180 184 188 188 188 191 187 187 182 176 169 166 159 154 148 147 143 140 140 131 134 120 106 92 82 57 59 73 66 51 46 31 9 13 11 9 8 11 9 7 6 7 10 14 16 16 10 19 20 20 19 12 13 19 
