P2
# Imagen
92 112
255
133 140 139 133 129 129 131 119 128 128 151 165 185 168 172 199 211 209 130 114 145 94 81 100 138 138 109 115 97 129 126 119 115 119 118 120 117 123 116 113 124 110 110 110 121 109 114 120 115 122 110 121 111 115 117 127 125 120 132 124 129 109 101 68 132 127 113 125 132 141 133 138 138 128 128 127 128 134 133 125 130 127 131 122 130 126 129 122 131 126 130 129 
136 139 144 131 139 131 131 119 119 136 140 166 176 191 194 201 206 209 105 91 83 79 112 132 136 129 113 131 118 120 131 123 120 122 122 120 131 126 118 119 130 117 116 121 116 128 121 127 133 123 124 119 108 113 111 103 124 127 135 129 122 119 119 117 98 105 90 78 108 137 137 135 132 141 132 129 126 129 129 123 133 135 130 131 128 127 132 125 125 132 127 128 
151 138 152 158 134 148 134 122 129 144 184 162 175 195 181 192 196 160 87 70 95 122 140 132 125 120 108 132 152 123 130 121 125 119 122 127 135 123 126 124 133 123 125 127 121 133 120 122 129 130 126 112 119 106 104 113 102 114 112 124 124 145 117 133 131 129 118 104 80 72 109 137 134 141 143 134 131 126 130 131 128 131 131 130 127 126 126 124 128 129 121 124 
150 156 157 175 156 148 143 134 158 182 186 185 158 160 137 130 116 103 83 111 133 141 130 119 126 135 110 114 144 126 123 132 124 118 124 127 134 127 120 129 126 124 132 128 116 126 124 113 117 124 137 119 117 125 119 106 138 115 119 98 103 121 146 125 133 145 137 134 91 111 81 64 104 129 146 139 133 133 132 131 121 130 121 126 125 122 133 125 130 121 133 125 
137 153 160 170 193 170 165 190 206 185 171 152 110 84 78 97 120 127 124 134 133 125 127 123 122 135 119 119 128 127 118 134 124 123 122 135 128 135 119 120 126 126 129 125 116 128 105 135 122 114 123 153 105 107 144 117 119 136 127 106 110 103 116 115 108 122 134 151 131 93 141 104 58 64 116 135 143 135 130 126 124 127 123 119 130 126 131 127 130 131 130 128 
138 149 156 167 166 185 207 186 196 195 169 87 57 64 95 137 138 135 133 144 126 123 141 128 122 124 114 137 125 138 117 119 128 125 125 135 120 126 128 111 122 127 133 124 114 152 100 122 150 111 110 143 127 97 126 124 110 122 127 135 99 126 114 123 109 108 124 110 140 133 137 158 112 64 58 83 129 140 142 145 130 131 129 129 129 136 126 125 129 124 127 130 
133 154 166 165 176 188 196 186 178 164 106 71 66 109 140 156 138 128 128 117 127 117 148 123 129 115 127 121 135 143 138 113 129 124 108 129 127 125 135 108 110 130 128 116 117 137 136 83 141 128 116 120 169 120 109 123 110 122 105 134 144 103 136 129 124 120 112 130 81 130 133 176 145 106 90 61 60 112 137 138 135 124 126 124 130 132 125 119 128 126 132 126 
150 154 163 175 198 196 189 181 169 96 72 78 113 135 151 138 113 109 123 126 113 129 134 136 127 129 130 124 134 148 143 118 117 129 98 117 139 124 152 115 109 129 137 125 113 119 152 82 106 139 130 101 154 158 109 126 110 112 109 102 152 137 109 156 123 127 104 132 101 78 124 154 181 120 117 99 72 65 119 129 130 133 131 115 128 140 127 122 129 125 128 126 
161 182 185 199 196 192 194 154 106 74 98 124 127 137 137 121 104 116 126 136 100 128 125 124 128 131 121 128 122 144 142 132 115 135 89 116 140 122 156 151 101 110 145 116 117 111 146 110 97 116 148 123 108 174 140 137 103 101 108 106 116 157 115 150 118 140 120 121 125 84 102 134 173 145 127 135 93 87 79 110 128 146 131 132 133 131 128 125 127 123 120 129 
181 191 204 195 190 181 166 104 58 94 132 138 137 114 121 124 122 108 131 128 104 137 128 124 124 128 126 129 122 114 145 140 113 127 89 110 140 120 139 174 120 103 141 123 90 121 137 133 99 114 147 149 119 145 172 141 145 86 112 108 105 124 125 125 151 104 154 114 137 106 113 131 128 137 143 165 121 100 106 75 85 133 131 144 147 136 128 120 130 130 123 128 
202 205 190 183 178 141 91 81 84 127 145 127 121 112 123 125 133 111 132 133 111 135 120 131 123 120 131 127 127 106 141 140 111 130 91 107 142 134 127 169 154 109 138 138 90 108 127 138 127 118 131 169 158 135 164 143 159 110 105 115 129 114 145 112 160 121 123 144 132 122 122 143 122 126 134 162 175 134 108 103 60 81 128 132 148 141 116 113 137 123 127 137 
211 188 201 189 112 71 66 97 144 133 131 127 126 126 122 126 139 110 118 136 117 130 137 130 123 128 131 139 130 115 144 143 115 132 110 105 142 132 128 163 162 110 132 147 111 88 117 127 132 123 123 157 180 150 144 157 123 161 101 119 139 152 131 150 133 178 96 155 138 112 132 131 154 114 130 149 141 163 140 125 97 64 67 125 131 129 132 124 130 117 118 122 
185 190 189 148 70 44 97 155 147 130 128 125 123 117 128 130 133 112 130 135 127 123 138 124 130 128 120 135 139 92 157 140 105 125 129 105 150 122 148 151 156 123 132 141 152 97 116 118 120 143 107 123 159 141 153 156 119 152 143 126 132 153 138 145 142 157 133 126 168 136 108 133 149 121 109 143 129 139 155 155 145 85 48 79 122 131 140 141 134 130 127 132 
182 188 171 97 47 54 140 158 144 119 133 124 114 124 138 138 127 119 114 132 133 119 132 129 123 138 116 141 132 114 147 137 97 127 112 129 144 124 149 144 139 129 133 133 150 124 122 122 114 134 137 99 144 144 138 157 135 117 165 151 114 138 124 144 153 137 150 113 145 171 112 150 134 150 105 129 133 137 155 150 166 107 104 23 97 129 132 135 143 128 127 130 
194 193 126 72 55 99 153 145 137 116 135 119 100 129 128 145 121 109 117 135 123 123 132 122 130 135 114 146 135 119 147 139 105 142 106 125 159 119 137 146 133 126 138 128 138 146 140 134 126 130 132 113 134 129 140 135 141 118 135 152 148 125 126 111 159 122 124 136 126 144 148 129 144 150 115 122 137 140 145 154 164 138 101 99 43 124 129 113 133 138 119 131 
193 163 85 55 70 138 140 124 130 132 129 133 101 135 128 132 131 111 128 133 131 127 129 120 141 132 109 150 131 120 143 136 116 152 100 124 167 124 133 146 133 142 142 127 133 164 142 134 145 127 144 111 119 122 141 131 153 128 122 135 157 136 126 120 111 155 107 119 125 123 154 126 160 122 163 126 131 126 141 143 149 145 128 124 48 99 143 123 123 145 129 127 
202 110 51 67 98 153 132 110 153 116 131 130 109 135 135 117 131 130 133 131 114 133 125 132 143 117 124 142 118 132 141 143 114 162 109 127 152 127 143 138 133 146 143 138 116 158 148 133 147 137 159 120 102 128 132 129 147 143 128 119 142 151 125 128 102 162 153 95 140 112 135 137 119 142 144 145 137 124 118 137 123 153 153 119 76 66 136 140 132 140 135 127 
163 57 47 108 136 139 132 127 125 131 116 138 109 124 147 116 125 142 132 136 120 131 131 126 144 122 135 150 124 139 143 140 125 156 117 134 157 132 148 137 137 150 146 135 119 150 161 139 144 141 148 139 118 112 140 127 150 160 133 120 138 161 135 136 110 121 178 111 118 131 133 143 102 136 128 149 118 142 131 133 111 149 154 125 88 63 111 129 146 120 135 130 
143 55 42 164 131 128 133 127 123 131 117 137 122 114 147 132 124 132 133 144 121 134 132 125 139 145 128 161 126 146 138 150 129 151 126 131 159 128 148 128 134 149 136 144 122 149 157 155 146 143 152 145 131 119 130 132 130 174 143 135 122 165 149 146 130 98 155 142 94 132 123 136 101 125 147 121 123 141 148 116 123 123 155 148 99 64 94 125 140 131 126 133 
101 68 62 155 153 118 137 134 137 124 134 140 136 119 133 139 125 140 129 120 118 135 128 134 138 151 128 165 129 143 145 131 140 143 123 136 149 139 142 120 135 141 146 136 126 140 159 147 151 154 131 136 143 130 120 142 122 153 150 140 110 145 144 154 143 115 123 162 102 125 120 137 107 99 163 102 140 140 134 110 144 100 138 171 137 104 64 121 133 140 123 140 
85 87 109 145 168 109 128 128 127 131 138 145 138 129 135 124 146 135 140 111 114 130 123 149 124 159 125 155 139 128 137 138 138 145 130 138 148 134 136 124 137 139 139 123 135 133 149 147 143 145 137 130 135 129 126 136 126 135 164 144 120 133 149 138 151 123 117 159 120 124 117 133 125 88 158 121 152 130 137 121 144 88 128 180 157 122 70 77 162 144 121 135 
89 109 159 119 163 116 118 134 132 135 140 151 124 130 112 124 138 124 140 125 98 121 113 155 120 143 130 141 139 126 136 125 138 139 137 135 145 138 137 128 136 135 129 133 137 137 142 133 140 137 146 118 136 123 128 125 128 131 162 139 140 125 146 132 149 146 117 137 124 131 123 121 133 101 127 142 134 139 116 118 126 79 115 161 147 128 111 49 125 149 115 123 
99 141 132 133 125 154 100 139 135 133 125 144 134 106 109 114 137 133 131 118 118 133 101 133 142 126 122 139 133 129 134 124 136 129 136 147 129 135 127 143 127 126 132 120 145 127 140 136 133 151 137 119 126 126 122 128 133 136 139 142 132 129 134 128 142 144 125 129 131 121 132 99 142 108 125 139 125 129 112 120 128 103 117 147 163 139 126 68 99 133 104 113 
104 149 134 119 142 141 123 124 137 130 123 135 118 105 110 125 125 136 133 112 115 143 94 117 135 126 117 129 136 124 133 128 148 121 127 138 134 135 125 128 116 123 113 120 120 125 132 111 133 139 124 115 123 119 121 128 131 138 135 134 128 130 127 119 125 134 132 133 128 115 135 101 124 104 111 125 111 123 129 145 152 129 121 157 163 167 128 95 89 136 128 122 
135 118 144 110 135 132 122 136 120 121 125 129 100 97 116 116 142 116 121 131 108 150 104 111 124 138 110 138 135 131 133 128 138 109 121 128 121 124 113 108 109 95 107 94 121 118 126 114 129 135 99 108 119 117 120 122 120 137 133 146 129 122 125 120 114 122 134 129 119 124 120 101 106 103 89 112 114 114 124 129 130 119 107 137 136 162 120 104 62 113 128 129 
152 128 106 148 114 141 140 129 117 103 131 122 108 88 129 110 158 113 115 145 130 127 131 124 109 128 128 105 143 124 133 145 139 84 96 103 118 125 97 131 128 98 94 100 130 136 120 133 131 145 113 97 115 109 103 120 112 109 136 151 133 125 139 137 106 123 136 133 114 133 132 117 121 110 104 117 124 125 122 121 123 123 111 136 117 156 116 90 50 95 127 123 
141 135 120 134 148 118 155 126 119 101 111 123 106 88 121 137 145 124 91 125 159 141 139 133 146 96 136 107 95 116 137 154 147 115 91 105 123 95 91 114 145 107 90 124 139 153 133 136 151 163 122 106 94 114 94 119 109 87 120 136 138 125 145 123 113 129 147 149 135 159 156 142 134 137 134 117 123 118 99 108 132 141 122 128 134 150 128 84 59 86 136 126 
147 118 135 130 139 137 120 146 130 107 129 123 105 105 109 110 150 133 138 108 128 144 146 143 173 126 120 112 106 92 93 108 159 132 137 142 154 145 91 105 138 133 119 141 150 168 147 134 175 178 141 109 128 122 113 113 123 108 115 123 131 129 142 122 119 117 147 135 138 162 165 145 144 153 141 116 115 134 124 121 122 137 135 136 125 141 134 105 47 67 127 135 
130 138 121 141 129 136 128 117 129 118 123 114 96 110 124 119 146 126 136 125 122 125 135 155 157 153 116 138 144 131 112 101 127 142 167 160 163 192 128 123 103 133 141 126 150 169 147 131 160 161 147 137 139 164 153 130 142 148 121 135 136 137 151 127 113 123 146 134 140 148 156 123 101 126 129 113 131 139 144 144 137 130 123 114 129 131 141 98 75 53 124 147 
114 136 132 132 134 128 134 120 126 116 135 124 113 115 141 141 127 124 126 124 135 138 139 151 152 151 140 124 142 124 112 108 103 139 173 146 157 172 157 145 116 104 137 112 137 165 132 128 139 166 152 142 148 170 151 154 151 162 124 129 117 123 150 139 114 118 149 146 132 120 152 143 113 117 121 128 125 140 146 147 139 140 136 114 115 127 144 108 76 50 106 137 
119 117 137 133 129 139 148 114 119 123 123 130 102 133 136 142 126 119 126 132 132 126 128 138 156 140 154 140 156 132 124 110 114 134 158 137 161 156 174 152 119 106 106 137 135 160 143 135 149 170 151 136 125 133 121 120 146 144 126 125 116 104 148 135 114 114 133 142 130 120 133 151 141 128 114 125 112 128 139 134 135 133 148 129 122 137 143 119 81 45 108 124 
128 115 144 134 139 149 140 117 128 127 120 114 121 132 125 150 120 122 136 126 122 125 121 156 150 151 156 146 141 137 120 119 122 123 141 142 148 149 170 151 120 104 105 108 100 116 133 116 132 135 146 117 141 118 112 121 142 139 133 127 104 118 123 131 126 119 128 146 134 136 141 151 155 136 129 126 113 106 128 120 135 125 150 137 135 138 154 122 106 55 118 148 
157 112 141 132 145 143 131 131 124 129 117 116 133 120 126 137 139 140 126 133 135 120 142 162 131 164 148 142 120 116 120 113 109 122 145 128 130 127 140 126 115 119 111 97 84 110 129 134 135 145 149 133 137 136 108 121 132 141 138 125 104 122 117 131 124 129 120 135 128 146 152 154 163 165 128 131 130 107 107 111 115 131 130 142 147 148 160 135 104 80 127 157 
167 112 135 142 137 130 145 132 117 127 112 139 129 122 127 139 153 129 118 139 124 132 151 156 135 148 142 135 109 125 121 112 106 117 136 124 128 139 125 122 127 138 144 98 112 109 117 143 140 159 138 137 142 128 106 116 133 133 151 133 117 113 116 119 129 131 119 125 135 141 157 151 156 172 152 137 124 124 116 105 114 128 129 125 142 146 150 166 109 88 110 151 
154 131 124 139 140 139 139 130 122 116 124 146 138 118 126 136 151 121 126 121 131 125 145 151 137 150 134 122 117 115 114 109 118 131 133 137 135 140 137 129 132 135 136 124 120 125 93 145 141 143 132 137 137 132 112 113 137 139 145 144 126 110 113 108 126 115 114 125 129 143 139 135 144 164 161 151 127 127 130 111 119 120 129 125 129 138 144 159 124 85 111 149 
153 132 126 128 141 142 121 120 110 129 125 135 140 115 130 118 153 109 140 112 129 129 138 143 144 144 136 107 123 118 109 112 134 145 131 136 141 148 137 135 133 137 128 130 126 132 121 125 147 141 131 125 139 124 117 125 118 131 148 136 140 110 115 116 131 115 112 117 128 133 136 138 136 147 162 163 143 132 133 115 126 113 126 122 124 139 124 135 129 115 98 119 
162 133 124 139 131 138 115 111 120 131 120 124 140 127 122 120 145 106 136 114 118 129 141 157 143 154 137 112 129 136 122 113 137 138 123 133 129 154 136 130 127 139 131 136 130 129 132 137 153 137 134 130 132 121 120 119 124 128 140 131 144 121 120 123 134 112 114 110 120 129 134 134 140 141 148 167 155 132 138 132 102 133 117 131 122 125 129 122 134 141 96 102 
136 139 129 133 135 129 120 124 121 129 118 128 137 136 137 112 148 107 125 114 114 135 149 148 146 166 133 111 131 138 133 120 132 127 125 129 122 152 142 125 125 137 129 132 137 123 129 135 145 144 127 127 129 117 121 116 129 125 133 136 136 125 121 123 133 121 120 122 122 122 125 134 138 143 148 156 160 146 140 137 129 114 127 121 136 126 122 131 113 145 119 92 
115 141 129 128 137 120 127 133 122 127 115 131 149 134 127 130 146 104 117 115 120 129 162 146 143 161 132 122 138 136 138 130 137 123 114 122 130 151 135 125 129 132 130 127 140 121 128 140 137 148 129 133 129 119 115 122 126 126 118 141 133 133 128 128 125 124 125 123 122 117 117 130 134 133 137 151 155 146 152 144 138 125 133 136 129 129 123 128 106 161 133 108 
106 135 128 127 130 125 116 132 128 120 125 136 143 135 120 129 136 107 104 118 118 140 148 156 136 143 135 137 140 138 133 136 134 121 111 121 131 149 133 127 134 134 127 125 134 125 128 134 136 140 137 136 136 124 116 122 124 125 120 136 123 136 132 134 126 123 124 133 125 109 122 122 128 128 141 139 150 140 144 146 141 142 146 140 130 130 125 130 101 143 132 126 
120 135 136 124 131 118 122 127 128 115 131 131 141 140 128 117 137 111 116 110 126 135 148 149 142 129 126 136 140 135 134 136 137 116 105 115 130 136 134 128 135 128 127 131 129 130 133 132 128 139 134 131 134 127 130 129 128 131 128 132 121 129 133 125 132 124 138 136 130 123 121 132 116 120 131 132 143 133 137 139 148 141 156 143 136 131 118 125 118 109 161 88 
141 128 134 128 128 121 124 131 125 120 123 141 141 144 128 117 133 108 130 123 130 128 143 150 143 136 119 132 131 134 136 132 131 120 112 122 137 129 134 131 129 131 130 126 131 129 131 129 129 119 127 129 130 127 129 132 129 132 133 127 124 126 128 123 125 134 146 134 124 126 135 130 121 113 125 124 137 133 131 138 137 147 150 157 134 137 123 113 137 100 165 125 
132 128 127 138 124 127 126 116 125 118 130 136 146 146 129 109 125 123 118 138 121 123 139 138 139 121 125 129 127 130 130 130 121 112 118 118 131 132 129 128 126 134 130 129 130 129 137 127 134 124 135 122 126 127 119 138 131 131 126 129 128 121 125 112 113 136 140 133 125 134 127 126 121 123 119 130 125 142 128 136 142 141 156 144 133 138 128 105 133 106 140 187 
106 138 122 134 134 122 120 119 116 128 125 143 142 147 137 117 119 118 128 141 119 117 129 128 144 116 128 124 130 134 124 131 114 114 116 117 129 130 127 125 128 129 130 131 127 133 131 134 129 136 130 123 128 126 127 139 129 125 116 127 115 125 124 114 114 134 127 127 124 125 129 125 115 129 115 122 129 139 130 129 136 134 154 156 127 134 129 108 125 121 115 179 
101 126 129 132 138 127 119 122 119 122 141 141 144 145 133 124 117 120 127 138 130 119 128 114 130 120 124 128 131 126 124 126 115 118 121 119 130 123 125 121 129 129 130 127 127 126 129 132 124 128 129 128 123 129 130 128 125 122 124 121 114 121 122 112 127 123 129 118 119 122 121 118 112 118 108 111 127 137 134 131 128 145 156 150 134 131 123 118 119 126 107 133 
141 103 136 131 137 127 123 118 115 131 131 142 153 134 148 122 122 122 125 119 137 120 137 124 114 125 124 129 129 126 124 120 121 124 121 125 130 123 120 120 122 128 130 126 126 126 129 130 125 131 130 128 132 119 124 120 126 124 129 122 115 115 124 123 127 123 123 125 121 118 117 109 110 108 105 106 123 130 136 134 135 133 163 145 127 129 120 118 117 127 96 114 
150 123 112 130 137 128 121 115 126 136 121 149 141 149 136 133 124 127 117 117 134 124 118 140 133 132 141 131 130 130 124 116 125 128 124 130 123 124 123 118 121 127 129 126 126 127 125 128 122 125 127 132 120 120 125 126 120 122 120 124 115 118 122 127 126 122 124 133 132 131 123 123 122 112 107 103 117 127 138 143 133 138 161 148 130 130 120 108 118 112 119 93 
146 130 128 122 118 137 109 125 127 130 133 141 152 149 132 129 134 111 132 130 137 114 117 119 139 139 149 135 133 132 126 123 126 126 126 135 128 126 123 116 121 120 126 122 125 127 123 127 123 131 125 125 117 127 129 126 121 120 123 118 115 115 116 127 122 119 130 135 138 131 130 126 126 119 109 107 105 129 135 141 133 136 169 150 128 131 119 105 116 105 127 84 
149 113 135 122 122 123 119 121 126 129 130 138 150 152 130 115 116 127 142 126 141 130 119 107 118 131 139 143 128 128 120 127 130 128 125 130 126 125 124 126 122 122 127 123 124 124 126 125 126 125 125 120 122 120 125 121 117 127 123 122 117 117 123 119 124 126 129 134 134 137 129 123 125 125 108 113 104 122 143 145 130 140 173 141 127 128 128 99 109 105 129 97 
156 128 114 129 131 113 124 117 120 128 130 140 160 147 127 114 111 125 146 128 142 133 124 125 104 119 120 132 128 119 118 120 129 128 120 128 125 124 127 126 122 125 126 125 125 121 126 127 130 122 124 125 122 127 130 127 122 123 126 117 113 119 115 117 119 128 133 126 133 135 135 116 117 115 118 115 113 128 147 139 133 145 176 131 120 132 123 89 100 92 108 112 
153 164 118 115 139 128 118 121 124 128 137 144 155 134 123 107 112 125 134 132 141 132 124 121 129 105 124 124 131 129 117 121 128 129 121 126 126 127 127 129 127 126 127 128 129 121 128 131 128 126 122 124 122 122 132 120 123 120 123 116 118 118 111 115 119 125 131 120 131 136 141 126 126 123 122 113 122 129 143 156 135 142 170 127 128 132 117 77 84 96 77 111 
143 162 132 119 124 129 126 122 125 133 139 155 159 124 123 106 108 124 125 127 130 128 130 126 137 133 119 125 114 116 130 120 131 128 120 125 130 125 127 131 127 129 134 129 132 126 129 131 130 132 126 126 125 127 131 120 124 116 116 113 115 116 109 107 117 118 126 122 126 132 137 123 125 135 124 128 124 144 156 167 145 146 167 132 124 130 121 74 72 102 79 113 
130 146 134 134 129 133 128 128 132 133 156 154 156 123 106 100 110 121 116 118 122 137 142 147 145 138 147 126 94 111 134 143 143 134 132 148 140 133 134 136 132 133 131 133 134 134 135 132 131 135 136 135 129 128 129 122 124 118 109 108 112 109 112 108 113 123 120 123 122 128 123 124 138 143 148 148 141 152 182 182 182 156 175 113 129 126 127 70 73 109 105 131 
121 133 153 124 131 134 134 133 131 142 159 161 140 104 97 100 121 122 103 117 136 159 156 161 163 166 145 113 95 112 126 142 131 130 145 165 144 159 165 168 158 156 158 161 159 149 144 141 137 146 144 146 135 134 124 128 115 107 107 101 107 103 119 114 117 120 128 129 130 128 135 141 143 139 145 158 149 157 167 190 189 182 176 114 129 117 126 64 68 109 104 138 
130 138 132 138 120 141 130 138 130 160 158 157 120 96 101 118 123 126 133 143 156 160 167 163 166 147 136 124 127 132 137 130 118 123 127 129 134 133 148 139 146 139 162 166 171 168 158 151 151 156 159 152 143 132 126 126 113 104 107 111 106 114 118 136 135 128 135 151 138 135 120 123 117 100 100 108 118 119 139 139 174 182 176 112 132 120 101 70 55 102 111 128 
136 145 135 128 138 133 126 127 134 158 164 139 112 104 108 111 138 154 169 150 148 137 152 134 107 111 122 130 118 120 124 134 115 134 147 121 118 128 129 113 97 90 103 119 131 141 151 145 160 175 179 160 154 140 149 141 133 124 127 132 138 136 131 137 134 131 142 141 138 138 132 122 122 95 80 68 78 95 103 100 108 158 173 110 124 112 89 67 69 89 108 128 
135 138 127 131 135 129 128 124 138 156 156 128 98 100 104 123 175 173 162 133 116 105 76 65 85 102 108 101 89 100 105 103 125 127 127 121 102 120 129 121 107 86 86 86 103 113 97 118 139 166 180 165 141 140 149 156 162 152 147 147 160 152 142 136 117 130 135 145 149 140 150 132 126 124 98 63 57 63 97 101 80 98 158 112 118 95 83 51 77 117 122 131 
125 132 133 137 135 127 132 133 139 169 150 117 92 93 102 145 176 167 138 118 89 54 46 69 93 113 116 95 88 102 114 124 129 135 145 134 131 122 109 122 104 109 89 100 94 97 77 88 103 146 158 149 131 127 150 158 150 147 142 151 153 158 136 104 115 118 109 120 119 123 115 123 122 131 133 118 90 95 134 159 121 70 139 119 110 90 69 55 73 138 131 129 
135 125 149 130 147 132 136 138 143 171 157 108 80 96 128 170 178 165 148 106 78 75 89 100 118 141 144 130 128 127 137 149 141 157 167 170 174 170 161 169 162 149 134 133 125 108 108 90 102 126 141 132 125 130 149 142 125 118 121 134 133 130 100 97 109 105 99 102 115 124 133 144 167 180 184 217 169 127 148 189 194 116 129 116 115 87 70 61 78 155 140 136 
122 134 142 127 147 135 138 135 150 171 150 89 87 111 136 171 168 176 146 108 107 121 135 158 159 172 168 169 155 148 162 159 154 138 148 142 144 154 147 169 167 185 172 160 155 127 114 111 106 122 126 131 136 136 139 124 107 93 100 96 102 94 78 97 106 101 98 101 102 121 129 136 142 152 150 191 180 152 137 169 204 160 150 112 102 97 66 58 82 145 147 138 
113 128 142 129 138 142 145 138 159 170 139 74 86 103 138 165 165 150 112 106 116 139 146 143 148 142 156 135 130 130 141 145 147 151 133 126 121 118 133 133 148 157 138 151 148 139 115 105 105 115 132 154 158 145 143 130 118 111 103 89 89 103 122 143 147 123 108 82 49 93 111 89 104 108 99 127 146 128 132 158 171 174 185 109 100 109 82 63 99 142 139 126 
136 116 137 143 145 134 141 128 167 157 133 74 85 107 144 160 146 134 104 114 137 149 150 146 147 103 95 128 108 99 142 143 179 171 109 84 113 107 111 101 119 156 142 88 133 122 118 101 95 104 142 176 188 175 161 144 149 148 126 95 88 132 166 164 153 145 154 92 52 56 103 87 97 114 90 80 123 109 120 158 166 166 209 110 77 83 100 86 84 131 137 125 
116 119 150 160 156 138 129 136 163 169 116 73 95 108 137 142 126 125 115 117 127 161 158 135 102 44 41 96 85 103 158 175 239 201 81 70 125 131 139 107 108 188 153 68 87 119 101 108 95 93 144 193 202 178 166 158 156 150 101 68 76 137 148 150 158 176 177 142 109 85 129 115 99 113 111 58 115 114 101 144 164 156 220 121 56 73 65 78 92 131 102 124 
91 123 197 186 161 124 131 134 172 170 114 78 108 114 126 124 118 108 120 119 134 189 159 117 107 61 16 48 98 155 209 232 255 217 84 25 140 129 124 128 120 227 178 46 74 102 110 95 91 90 146 201 203 177 166 167 162 141 65 36 68 104 128 138 155 214 216 133 102 116 129 129 110 138 164 43 85 124 123 129 159 148 218 131 59 68 64 71 61 141 160 98 
85 165 202 189 126 129 128 130 177 168 109 92 119 120 119 115 110 99 110 115 124 170 176 133 120 90 21 13 67 177 208 233 239 212 160 65 107 150 130 126 160 228 162 66 63 106 115 89 71 106 166 196 195 171 163 171 162 118 30 37 82 126 123 107 159 232 216 164 96 147 146 126 101 151 175 87 70 103 107 138 160 147 209 147 70 63 66 55 69 102 161 192 
73 196 200 164 112 132 127 125 179 169 94 112 128 135 133 113 119 92 103 113 116 160 166 156 150 134 82 24 46 99 147 160 198 234 234 159 86 103 118 124 156 156 114 85 66 90 106 89 82 120 175 198 188 148 178 192 157 128 24 28 104 118 128 114 120 159 178 183 123 105 128 105 83 148 164 115 93 85 78 132 163 148 209 141 82 75 58 44 78 96 127 172 
57 208 178 134 116 122 134 131 189 162 98 100 135 142 133 127 130 107 102 113 114 142 170 143 141 138 110 94 87 94 107 114 125 165 186 194 164 161 158 159 152 133 106 102 94 92 106 103 90 130 184 191 178 144 158 175 154 147 64 23 93 115 137 134 136 100 144 149 154 167 167 155 124 132 112 101 97 122 98 132 160 145 203 132 71 77 64 33 86 109 120 131 
61 188 164 128 115 117 120 136 202 158 102 102 134 137 135 133 127 115 117 113 115 119 137 149 140 144 131 121 116 123 137 145 139 144 143 144 145 154 155 134 129 108 110 103 87 99 116 99 85 119 167 175 179 160 163 159 139 135 82 37 65 67 88 100 116 136 150 157 149 144 129 123 96 114 121 103 109 121 115 130 171 134 203 147 51 96 61 38 75 121 125 98 
67 161 157 132 133 110 105 143 202 160 101 103 130 139 133 136 126 128 121 115 120 117 128 129 128 131 129 133 137 137 148 145 156 149 142 157 150 145 143 116 104 107 110 100 106 110 121 97 91 125 158 165 170 169 176 163 139 122 91 44 59 62 96 84 107 145 157 166 160 152 145 136 129 133 134 118 119 110 113 135 165 140 179 164 46 104 69 38 53 130 138 88 
76 100 181 146 137 78 119 151 169 175 111 93 128 132 131 133 132 125 122 119 115 117 125 130 120 119 126 135 127 136 139 143 152 156 138 129 122 110 111 102 111 111 112 125 123 119 113 97 92 130 155 158 162 154 166 181 163 144 95 42 35 61 110 101 86 106 117 143 151 153 144 141 134 141 123 103 109 113 111 135 160 129 173 176 47 92 82 37 47 127 142 119 
60 86 196 165 129 59 136 124 168 177 113 98 125 128 131 130 136 122 128 117 115 113 117 123 123 127 123 124 124 126 133 129 143 131 115 116 97 102 97 101 107 112 122 128 126 117 113 93 95 126 145 152 151 150 149 152 151 158 115 55 45 66 121 140 117 105 107 115 120 136 126 126 129 118 120 95 102 109 109 147 151 120 179 174 61 86 82 47 45 119 140 122 
65 82 133 155 132 144 158 92 149 194 133 91 118 129 123 128 127 128 126 124 113 112 109 111 113 112 115 122 129 131 130 128 122 107 97 102 97 104 109 115 115 130 128 123 118 109 109 106 103 123 136 141 143 150 154 147 138 145 117 60 56 70 125 161 157 136 120 114 103 102 103 101 101 112 105 100 100 101 102 154 144 90 189 163 78 71 86 65 45 91 161 119 
84 113 116 123 120 216 150 96 120 205 143 88 114 127 127 127 131 129 135 126 124 119 119 120 119 114 123 129 134 136 130 130 134 123 125 126 115 121 131 123 128 130 125 124 119 106 99 103 109 131 134 140 137 148 155 144 127 128 101 45 53 72 124 166 174 165 158 145 130 115 113 111 108 120 120 116 112 108 109 157 130 92 192 157 99 63 83 75 51 79 155 138 
97 118 140 102 102 215 154 133 97 199 161 94 117 124 126 122 136 133 132 134 128 121 126 126 116 121 124 131 130 131 132 131 130 130 132 131 123 128 134 129 127 124 120 124 120 105 104 105 112 136 149 147 142 139 152 146 131 124 92 32 21 51 94 147 151 151 158 150 147 139 138 139 126 121 122 114 118 114 117 155 109 120 205 130 104 85 85 91 58 66 138 148 
92 125 114 73 131 183 141 153 118 179 188 94 114 126 120 126 133 131 138 134 134 128 126 127 126 121 130 131 131 129 130 129 131 128 132 129 126 132 132 132 130 118 115 123 113 98 100 112 121 138 153 149 150 149 154 149 133 124 96 33 25 36 80 127 139 140 143 138 144 138 146 150 145 132 123 120 110 110 139 131 106 138 209 113 95 97 90 92 82 54 112 150 
106 101 95 76 174 165 140 122 125 156 196 108 108 133 127 130 128 132 142 132 137 136 132 126 123 127 128 126 129 133 126 125 128 128 128 126 125 128 132 132 131 118 114 119 118 98 107 110 125 146 154 156 155 161 161 157 143 137 101 53 35 51 84 119 137 134 135 136 135 138 143 152 147 137 122 118 113 117 152 113 118 158 189 110 107 95 99 85 94 67 91 132 
118 93 87 53 166 168 172 102 118 132 183 120 104 138 126 125 128 127 141 129 133 138 136 128 124 131 129 128 131 131 132 128 129 128 128 127 126 120 131 139 131 118 111 122 112 107 113 118 135 143 154 160 163 162 168 164 150 141 110 62 43 53 82 110 139 145 134 141 134 134 135 139 141 131 124 120 124 128 139 97 134 172 174 105 114 82 117 98 86 67 83 122 
132 115 76 58 89 154 196 102 137 137 169 139 108 135 134 122 128 129 140 130 132 140 134 128 124 127 133 127 131 129 127 125 132 127 125 132 131 129 138 139 127 114 109 112 111 100 122 132 135 144 153 157 165 165 169 170 152 143 109 65 50 49 71 95 136 146 147 139 144 134 130 135 129 132 130 130 129 139 126 91 146 182 161 97 112 93 103 126 82 61 109 108 
132 137 71 58 38 110 191 150 145 159 171 144 107 141 131 126 127 135 126 139 135 132 136 130 123 129 130 128 128 128 125 127 132 132 138 144 148 142 134 137 126 106 104 92 88 114 131 141 123 131 150 160 171 177 183 174 156 144 115 86 57 46 52 81 119 152 139 146 142 142 133 137 118 128 140 133 139 142 109 105 165 188 141 89 116 113 96 111 116 53 100 153 
121 133 124 75 64 22 113 152 154 172 192 149 106 142 139 135 132 131 135 127 135 133 133 131 128 130 129 128 128 127 126 132 135 140 148 159 162 134 129 122 126 99 88 67 76 122 147 139 119 113 137 161 165 181 193 174 162 152 125 100 69 50 31 68 100 142 145 141 149 138 138 132 109 125 137 137 134 137 91 126 175 187 114 98 115 134 98 89 106 101 49 156 
123 133 128 118 92 44 37 89 116 185 204 154 102 140 140 141 130 124 136 132 129 132 131 132 128 130 129 125 121 126 126 130 145 141 157 158 154 118 111 107 114 100 78 67 77 136 162 147 122 120 131 154 153 171 196 183 169 146 126 114 78 68 46 60 98 127 145 145 146 144 140 128 111 122 136 130 135 117 85 143 179 163 106 101 120 134 115 89 83 110 71 110 
116 144 121 126 135 109 81 74 56 101 208 133 105 139 145 145 130 129 134 137 127 134 138 135 123 124 127 123 125 125 132 151 155 149 147 154 140 108 107 97 100 99 90 72 81 149 154 165 130 133 136 147 142 156 193 188 165 146 126 120 93 71 76 49 88 116 137 151 144 146 139 132 123 127 138 132 138 100 119 154 174 141 104 112 122 134 124 94 85 87 82 119 
127 138 117 121 134 117 124 120 109 73 95 66 107 130 150 138 137 132 131 135 127 130 134 133 123 123 124 122 122 127 140 158 164 152 133 126 123 117 99 86 87 91 113 100 81 133 136 138 141 143 154 158 155 150 190 185 168 150 142 122 101 77 90 68 83 115 132 141 136 147 136 124 132 130 128 133 132 120 153 140 165 123 111 122 120 138 119 106 90 94 81 97 
131 138 117 125 128 118 127 133 140 119 116 42 92 128 147 148 136 140 134 129 132 132 131 130 132 124 119 127 131 140 151 153 162 153 130 109 103 118 114 92 89 109 133 137 117 101 97 76 101 145 179 196 213 189 201 195 172 161 140 133 104 86 93 88 89 121 135 141 138 135 131 122 129 135 127 123 145 161 145 144 176 109 121 131 121 131 121 113 94 104 76 102 
127 131 111 123 123 123 125 130 149 137 133 47 83 132 143 155 139 140 137 131 128 133 132 130 127 120 119 133 136 157 156 149 155 141 120 100 86 89 126 123 115 135 145 142 133 109 67 0 13 80 150 183 212 224 215 204 201 178 154 128 99 88 94 98 107 104 133 140 136 133 124 119 129 127 115 109 163 167 146 162 156 101 124 129 127 122 140 102 113 88 87 82 
135 126 111 119 126 133 131 124 149 138 134 65 64 136 143 149 145 132 143 135 122 126 130 130 122 123 128 137 144 159 170 144 122 119 98 88 73 67 91 133 148 160 154 142 123 129 105 53 40 55 104 141 160 174 182 203 189 188 156 117 110 100 112 116 97 95 113 135 135 128 128 125 111 110 102 126 173 166 150 166 131 101 127 133 123 124 139 118 99 98 84 67 
134 118 121 114 129 138 128 111 159 133 143 101 33 128 139 142 144 141 137 137 126 125 129 135 127 132 139 154 163 166 166 141 113 99 85 83 68 75 96 129 149 162 161 146 131 142 128 115 97 107 121 108 112 129 147 159 168 160 147 122 134 126 118 117 106 88 100 120 134 126 127 126 106 101 113 130 179 163 149 180 110 110 124 131 124 127 134 124 98 104 85 77 
132 118 112 121 141 120 124 115 150 133 129 123 19 113 136 137 138 147 135 133 131 125 126 134 132 145 157 170 164 152 140 134 101 83 68 65 79 87 92 116 145 159 151 160 153 162 160 150 144 136 122 110 102 113 117 125 121 127 127 146 137 130 124 121 127 98 92 108 134 125 134 125 102 113 106 143 169 153 163 146 110 114 129 126 121 132 122 136 111 104 93 79 
128 112 125 125 140 114 123 113 150 147 115 139 32 84 133 129 137 142 139 136 120 124 124 122 143 154 173 165 146 146 135 117 102 74 75 90 87 78 88 114 136 147 149 150 169 169 168 159 145 133 114 96 101 100 115 119 103 108 139 147 139 134 132 129 122 115 96 97 124 133 127 113 110 104 114 150 166 153 170 126 108 120 128 124 126 126 126 137 114 109 89 85 
127 113 127 137 135 109 124 110 150 152 109 136 58 50 134 126 137 139 140 131 126 117 131 133 142 170 165 155 149 135 130 117 86 84 99 90 85 83 101 116 135 142 135 145 149 162 157 164 146 122 111 92 95 112 133 117 113 117 136 160 147 146 144 127 124 121 113 93 109 145 134 99 100 110 112 158 153 154 178 104 109 124 126 127 126 123 127 134 123 106 99 87 
119 117 131 136 126 108 118 133 145 146 104 120 103 26 131 129 129 132 140 131 124 118 128 126 148 163 157 155 145 133 126 100 94 96 99 88 90 100 115 128 132 127 136 140 141 137 159 158 152 137 114 99 95 114 131 119 124 126 131 147 161 149 136 130 118 116 125 98 104 156 134 97 98 111 120 170 146 176 155 105 107 136 127 126 127 123 120 129 131 115 95 94 
128 128 126 131 115 113 122 146 137 137 87 120 112 32 124 128 128 125 132 133 128 127 125 121 138 144 163 159 147 152 123 102 100 90 96 96 102 116 141 143 127 121 132 140 133 138 149 150 145 146 115 104 108 112 115 122 131 131 132 136 152 151 122 126 114 107 125 103 91 156 126 99 99 108 144 161 149 195 125 100 106 135 128 130 122 130 120 123 136 126 94 98 
142 134 126 123 122 113 131 148 123 119 99 95 102 65 112 130 129 124 136 134 132 132 117 116 113 130 156 151 150 174 164 134 98 102 114 85 79 105 159 161 147 147 150 155 165 160 158 161 158 152 134 131 128 121 116 125 135 137 142 146 160 164 144 126 128 116 137 113 92 147 118 99 99 119 163 162 167 178 103 100 121 130 128 139 115 132 119 123 129 130 112 93 
141 124 119 124 113 130 132 145 107 121 96 78 93 100 131 129 121 122 134 135 140 126 120 114 108 111 142 126 136 128 160 159 127 147 165 130 88 40 56 128 158 147 126 130 138 144 140 143 139 151 158 163 158 155 136 130 133 140 148 155 153 171 142 126 122 102 104 102 100 132 111 102 99 129 171 162 177 156 96 110 125 128 126 132 117 127 127 120 134 130 117 106 
136 115 122 124 119 133 141 138 96 120 90 64 75 103 167 133 119 119 123 139 146 136 130 134 120 135 117 99 117 109 110 106 128 183 194 186 171 114 52 44 89 119 122 121 138 142 108 120 122 118 122 131 145 146 133 123 141 149 145 124 142 160 138 105 110 108 112 104 106 127 110 106 108 150 165 166 180 117 102 115 130 126 126 131 122 129 122 121 127 130 108 118 
127 115 125 121 116 131 141 124 96 136 91 48 66 100 212 150 122 109 119 134 139 139 148 149 145 148 127 95 88 101 91 65 89 156 174 202 186 162 143 93 60 70 49 93 135 148 122 115 125 98 88 101 124 141 136 148 161 144 110 79 119 143 116 107 124 126 128 107 119 126 105 112 122 166 159 190 141 95 111 121 126 128 129 128 128 127 124 129 119 137 98 118 
121 124 121 132 110 145 146 113 105 142 80 47 42 85 207 183 136 112 119 119 128 137 145 159 152 152 139 117 102 94 91 76 98 131 149 157 181 177 197 154 112 111 107 91 89 112 107 179 193 120 71 108 131 153 131 125 115 118 98 56 93 98 112 126 127 134 139 114 125 114 98 113 151 156 179 183 95 106 113 129 129 128 129 128 125 120 129 119 128 126 101 95 
125 126 128 137 120 142 150 111 113 140 80 48 29 72 206 227 147 135 112 121 117 131 141 153 149 154 139 133 111 120 115 90 108 121 140 138 128 157 184 162 123 127 123 156 115 81 52 129 155 150 139 166 178 186 142 107 97 100 106 86 98 120 134 134 137 140 128 116 113 102 105 121 155 165 187 135 99 112 125 124 133 126 128 132 127 125 133 114 122 135 88 93 
117 131 145 122 131 135 148 102 131 130 79 60 25 55 194 237 170 142 125 122 127 121 129 143 135 147 142 124 128 121 125 113 107 119 133 133 125 120 129 148 145 138 134 154 135 131 111 103 116 117 110 120 160 151 135 106 106 114 110 103 128 146 139 131 137 138 126 105 110 105 109 136 144 191 146 99 108 122 127 126 124 134 126 133 123 130 136 108 123 133 88 90 
123 142 136 126 138 145 128 105 139 126 73 61 33 49 172 230 175 143 149 124 128 130 121 141 137 131 133 133 128 127 123 132 134 136 124 127 129 122 122 127 124 120 119 118 118 120 138 148 150 137 135 113 123 119 117 128 132 125 108 120 136 145 122 132 136 134 104 110 103 105 135 122 179 176 104 104 125 126 126 129 130 135 137 128 125 131 132 112 124 125 99 78 
130 138 134 130 139 143 125 123 136 114 67 62 41 57 162 212 172 137 155 144 129 130 131 134 135 126 122 130 132 138 131 137 139 142 139 130 116 127 132 130 131 122 126 115 110 108 107 129 133 165 162 155 159 145 141 139 129 107 114 129 136 132 122 138 140 119 103 105 103 121 126 150 177 126 107 123 131 127 124 132 126 136 138 126 126 129 124 114 126 122 91 79 
131 130 135 136 128 141 141 128 130 109 65 57 31 65 159 202 170 131 137 155 148 137 135 125 130 131 121 124 134 138 139 140 140 139 123 128 118 122 133 130 133 146 153 139 136 134 128 120 124 126 119 121 111 115 124 117 115 111 122 135 135 118 130 144 127 115 100 102 115 120 130 170 121 108 126 125 133 131 128 135 127 134 132 133 121 131 113 112 126 119 94 76 
131 128 123 130 124 135 133 120 130 94 71 50 29 82 161 195 151 130 127 148 154 154 135 129 132 135 125 120 127 131 131 135 142 138 122 121 111 122 126 124 116 131 136 140 146 141 133 111 112 117 116 114 112 120 126 119 122 122 128 129 123 130 135 137 118 105 96 108 115 134 154 129 108 122 133 130 127 132 124 129 132 130 132 129 123 127 119 117 127 125 94 77 
134 119 119 128 120 131 115 113 127 88 78 56 39 90 165 193 143 123 127 126 145 149 148 136 128 141 133 119 123 129 129 124 146 141 133 128 123 122 114 111 117 115 124 127 132 138 133 121 123 125 135 132 137 138 134 140 126 126 117 123 130 131 139 121 116 91 106 114 132 151 117 113 124 134 131 133 127 134 123 134 135 123 136 119 126 119 116 116 126 120 80 101 
112 132 114 120 121 131 125 121 121 85 75 55 39 91 169 198 139 114 131 130 129 145 149 150 136 139 136 131 122 124 125 127 134 143 134 130 135 132 125 122 119 117 121 111 117 116 121 128 129 141 143 137 141 135 129 126 119 113 116 127 131 135 131 120 110 106 128 143 156 113 103 127 140 134 132 131 133 131 135 129 136 120 122 129 121 124 121 126 125 110 78 112 
125 119 119 110 132 127 122 127 94 79 81 54 53 114 166 202 132 121 130 123 133 131 146 150 140 143 129 141 126 127 123 123 126 134 125 122 131 130 124 133 126 122 121 123 119 109 112 122 122 134 125 126 129 117 117 112 112 115 114 121 129 131 124 116 104 115 139 170 127 100 127 129 133 133 127 130 135 131 135 132 135 127 124 128 130 118 118 133 116 103 92 121 
131 121 117 110 136 131 125 117 88 78 81 63 77 130 162 201 129 125 136 126 116 128 129 146 141 146 135 132 133 125 123 118 126 135 120 116 123 126 122 126 128 129 130 131 124 118 112 104 110 109 112 121 117 110 113 107 116 110 118 122 131 130 128 108 112 117 150 130 105 117 126 125 135 131 133 135 128 130 136 133 126 125 127 128 127 117 123 133 101 106 99 137 
138 129 107 128 138 132 129 109 85 84 82 79 145 123 154 175 120 123 137 134 121 115 133 136 143 144 147 139 128 132 124 117 133 129 132 122 122 121 116 115 112 115 121 120 136 123 125 120 111 113 119 115 116 99 110 108 99 99 111 127 129 129 115 98 114 113 123 113 115 119 123 128 136 126 139 130 122 136 131 135 122 137 130 125 127 123 130 106 109 113 100 130 
144 135 109 136 133 130 127 98 91 85 95 110 156 120 137 155 123 126 138 133 140 116 113 134 133 146 147 147 129 128 128 130 123 124 136 140 135 124 116 121 120 125 111 113 118 132 133 125 118 127 129 127 114 103 103 111 100 105 119 131 123 118 105 100 108 95 122 115 125 116 122 132 129 131 132 128 132 133 135 130 126 131 130 130 129 124 118 109 111 105 97 119 
128 133 129 121 129 115 115 105 111 98 106 143 150 108 116 139 136 125 133 134 134 129 123 111 136 136 148 147 145 131 129 128 131 128 130 149 137 136 125 132 134 132 127 113 117 127 127 124 122 115 123 132 118 115 109 113 109 125 134 132 109 103 103 93 82 115 119 130 112 117 123 131 120 134 127 134 129 131 135 128 125 129 130 126 131 120 106 99 97 107 90 85 
118 124 124 115 119 104 106 108 109 116 108 163 126 103 116 138 140 129 131 139 129 129 130 126 122 133 139 146 153 146 122 126 127 126 133 129 146 140 136 128 141 138 145 130 120 125 118 122 121 116 116 121 114 129 124 123 125 129 136 128 109 97 100 75 104 132 121 115 119 113 129 129 132 126 131 134 132 126 131 132 129 126 130 122 127 115 91 95 100 100 86 89 
115 127 118 112 109 110 111 116 119 129 101 147 94 106 115 126 140 129 133 137 134 132 125 136 126 121 139 140 148 149 137 131 124 122 122 124 142 144 145 137 146 139 141 143 128 134 118 121 124 121 114 107 115 135 129 138 129 120 134 122 113 98 84 106 115 132 114 112 123 120 130 130 129 130 133 135 129 131 126 137 126 128 129 119 112 102 92 97 99 92 91 112 
