P2
# Imagen
92 112
255
128 139 137 135 132 130 131 134 128 135 144 152 153 142 144 156 148 125 111 91 72 81 77 75 93 131 144 143 151 142 132 146 146 147 153 154 146 141 153 157 139 159 169 157 156 146 156 151 144 162 163 155 162 155 133 118 122 124 114 121 120 109 94 94 79 87 80 88 99 95 86 85 89 110 122 135 138 133 135 136 131 137 136 134 131 135 135 135 138 133 138 140 
132 136 140 136 132 133 126 133 132 132 141 153 156 154 152 146 121 104 86 81 75 74 75 93 116 135 141 133 135 134 132 140 136 139 143 140 137 133 139 141 135 141 146 154 142 140 125 134 132 127 161 153 153 160 158 157 126 136 125 121 127 133 121 109 98 84 78 57 58 82 90 87 94 89 105 137 134 139 131 139 135 134 136 136 132 135 135 137 135 135 137 135 
133 141 139 140 133 136 128 134 135 141 149 156 158 164 145 124 94 84 88 80 74 88 84 116 144 130 126 129 128 130 133 138 131 136 139 131 131 138 128 138 131 139 127 141 139 133 127 122 131 120 143 148 139 160 165 165 162 152 149 139 116 127 131 117 126 115 105 88 71 42 51 73 87 91 86 113 124 133 130 136 134 133 136 132 133 135 135 136 135 137 137 133 
138 142 142 144 139 133 138 144 155 156 160 157 152 134 117 96 92 74 86 89 86 95 128 133 130 125 125 129 120 127 132 135 131 131 130 132 129 131 130 128 129 136 128 126 128 128 132 121 122 119 123 122 127 142 143 140 143 151 144 163 148 119 137 126 112 126 112 115 100 94 66 42 40 69 86 94 94 110 127 133 134 138 135 135 133 129 138 135 136 137 137 135 
137 138 146 145 146 144 140 155 156 163 159 145 132 120 109 90 90 83 98 101 103 133 134 133 125 128 124 127 120 127 128 136 127 125 130 133 126 131 132 126 132 131 130 122 127 124 124 120 119 113 114 123 115 123 129 123 121 132 118 121 149 130 151 167 147 139 136 107 118 118 86 78 55 44 46 76 94 93 93 128 134 139 134 136 131 131 139 136 136 140 135 136 
136 138 143 141 143 148 158 151 138 127 129 118 102 96 88 99 92 98 106 122 145 142 125 123 125 127 128 129 114 129 123 130 132 123 126 133 122 134 126 128 125 131 132 119 123 130 111 119 116 109 106 118 123 111 123 119 118 125 127 117 126 124 127 143 156 147 167 143 112 127 106 90 83 79 51 36 71 98 85 95 129 135 138 131 128 131 137 138 135 136 135 140 
136 135 143 144 143 148 147 124 108 119 119 103 84 89 94 98 97 116 135 152 134 135 117 124 122 125 130 129 123 121 129 126 132 119 125 129 124 124 126 119 124 119 136 125 112 128 111 113 112 112 104 112 119 121 112 117 114 124 127 124 123 117 121 125 123 138 136 146 126 133 119 105 92 83 79 65 48 57 80 89 97 136 140 127 130 131 136 140 139 136 135 138 
136 138 146 143 151 136 116 108 117 117 92 75 93 95 103 124 141 158 147 139 124 124 123 127 121 123 130 129 127 123 129 127 132 122 120 130 125 122 126 117 121 112 135 129 122 124 118 110 112 107 109 110 110 126 112 107 110 115 128 130 127 114 126 113 124 124 134 133 118 115 142 106 100 97 93 85 80 52 44 67 91 106 132 130 133 133 132 137 137 139 136 137 
142 148 152 144 127 110 110 113 117 93 79 89 90 111 127 155 160 144 141 132 129 124 133 129 117 125 131 128 128 126 119 134 130 119 110 130 124 114 125 120 115 116 124 130 111 145 123 106 109 102 109 107 104 117 118 109 109 100 130 128 132 115 116 120 104 131 130 128 116 119 134 131 94 80 94 94 88 77 53 33 49 79 100 121 136 131 130 133 136 138 134 135 
151 155 144 120 107 111 107 114 93 94 91 91 107 144 152 149 143 136 137 130 131 126 139 137 115 126 131 133 127 123 125 131 126 120 110 125 131 108 119 124 125 115 109 125 114 142 130 104 108 108 101 111 109 105 127 117 112 101 125 131 123 120 101 116 95 122 130 129 120 113 140 128 117 105 73 83 94 88 78 53 41 46 77 99 120 133 131 129 140 133 134 133 
156 146 119 108 104 117 113 85 86 103 106 107 146 156 143 140 136 133 138 135 134 129 134 139 115 128 131 136 127 121 130 131 129 124 111 117 132 126 113 124 129 122 111 133 117 128 142 109 112 122 95 117 123 105 115 130 119 107 125 125 121 118 103 113 102 107 136 115 123 125 141 122 123 126 105 84 72 86 87 81 60 43 37 69 99 108 130 130 138 135 136 137 
142 120 107 109 117 110 85 85 102 104 120 131 134 140 131 138 143 140 130 138 135 133 143 134 120 131 139 139 127 117 133 144 132 132 113 118 131 129 114 122 137 127 106 135 131 111 154 118 115 125 105 105 126 126 104 121 129 117 120 121 119 123 124 107 107 101 130 112 113 127 136 122 128 118 109 117 102 71 63 91 78 70 45 42 76 94 106 127 134 136 133 140 
117 109 112 116 115 85 73 93 96 121 139 132 134 135 128 133 142 140 131 140 133 138 150 131 128 135 143 141 124 117 134 144 140 137 123 132 122 130 115 123 139 126 106 123 138 114 139 137 118 124 120 102 118 135 116 106 134 130 115 128 118 131 125 129 107 112 130 118 111 133 135 128 127 123 105 109 140 96 65 77 72 69 67 47 53 92 92 99 125 139 134 134 
102 110 109 115 86 78 93 101 121 138 139 132 128 140 132 132 145 133 125 145 132 136 142 131 122 134 148 135 124 116 133 140 146 142 129 131 128 130 115 120 130 121 114 117 125 125 133 137 136 127 126 114 107 136 132 116 125 139 128 121 123 132 117 144 128 124 127 121 116 126 137 125 123 127 120 99 132 131 86 81 89 51 65 73 36 88 98 96 96 123 142 135 
106 104 112 99 76 79 95 122 127 137 139 137 130 131 126 122 138 133 120 142 125 135 136 128 123 136 141 129 117 122 134 134 145 149 132 135 127 125 121 116 123 121 106 122 129 125 143 134 142 127 132 128 110 131 132 131 120 135 141 124 135 127 132 134 144 143 118 126 119 135 134 129 118 135 137 112 123 128 123 96 89 74 63 63 46 61 108 93 102 94 140 141 
110 109 115 91 71 99 121 134 139 136 143 143 125 128 124 135 133 129 127 139 124 134 129 128 123 141 131 126 111 129 129 132 136 148 134 128 121 118 122 107 100 122 103 116 113 133 128 140 130 129 120 126 117 116 127 125 130 139 133 127 137 142 133 138 158 143 124 124 133 132 141 134 121 141 140 133 118 125 125 138 94 82 87 75 27 38 94 107 101 99 112 137 
108 113 116 77 83 113 142 138 138 131 138 135 125 123 122 125 139 131 128 136 125 131 122 127 126 141 127 127 121 124 128 122 130 128 132 126 113 109 110 99 95 103 110 98 107 127 125 136 137 115 114 120 129 104 119 114 122 142 117 111 130 133 141 137 150 142 139 123 140 133 142 147 126 147 155 117 126 129 130 136 114 88 83 75 40 9 54 100 98 98 100 125 
116 119 91 70 88 130 144 140 142 127 131 129 129 121 121 125 134 130 129 137 120 130 116 120 125 132 114 125 122 120 117 115 113 117 115 119 98 100 96 98 91 99 116 95 90 126 124 113 129 122 106 118 110 117 106 106 108 121 120 104 113 117 135 124 132 128 150 126 144 142 138 159 133 150 155 121 126 142 129 131 126 87 84 85 43 17 12 78 98 100 98 103 
129 111 56 75 98 135 135 137 133 124 123 125 131 128 129 128 120 126 122 131 121 128 122 120 124 118 106 120 107 104 100 117 105 118 105 111 96 101 96 103 92 98 114 89 84 102 127 101 113 114 106 113 97 109 115 104 98 107 109 106 116 108 121 110 117 113 136 136 135 152 138 141 134 142 153 132 123 146 133 134 128 112 89 84 62 38 1 47 88 97 111 93 
122 92 48 86 116 133 133 126 131 119 126 122 121 133 129 129 112 122 122 128 114 125 125 120 127 115 97 109 111 110 94 111 109 114 104 110 107 103 99 109 102 100 110 94 93 92 116 104 105 110 111 105 111 99 112 108 101 100 102 97 124 106 111 100 108 106 130 141 139 140 128 147 149 137 147 132 131 142 130 130 130 134 97 90 80 50 22 25 81 97 105 103 
103 67 63 106 131 125 138 122 123 124 122 129 122 132 129 123 117 118 115 113 127 117 122 121 121 110 98 102 103 110 92 104 115 112 100 101 118 108 105 109 103 106 102 106 92 96 111 102 100 102 107 104 114 103 104 112 110 95 103 89 132 104 102 104 96 114 121 136 130 129 124 152 154 143 143 132 137 126 136 126 133 143 131 89 80 83 48 27 57 99 97 104 
79 67 97 116 136 128 130 123 118 123 123 130 128 120 123 116 109 112 107 105 120 111 118 113 118 103 105 98 104 99 92 100 107 100 97 99 112 110 98 102 112 99 107 95 91 97 103 99 103 108 98 102 115 111 98 115 117 106 100 106 125 103 107 95 105 106 108 128 126 110 136 152 146 141 140 140 137 145 152 140 137 139 140 103 88 90 73 27 32 85 105 93 
81 84 116 143 124 133 130 125 119 121 134 135 134 126 114 110 108 115 104 102 102 103 109 115 111 101 111 97 99 95 94 99 105 99 102 98 101 101 100 103 104 91 106 99 83 103 111 105 99 109 109 119 115 117 103 112 113 113 116 111 122 113 107 110 90 100 103 118 122 111 142 144 148 135 138 131 138 144 146 142 142 138 146 133 102 81 78 50 25 53 110 98 
72 94 127 145 128 135 131 129 122 130 140 135 124 118 107 104 102 118 105 104 105 102 98 109 104 100 113 100 100 98 96 102 103 105 108 107 105 93 99 108 106 95 96 105 91 98 112 107 112 105 120 124 133 114 113 114 124 120 134 117 123 125 107 120 92 111 95 101 116 111 133 137 145 131 139 141 129 143 133 140 134 137 152 133 111 80 78 68 28 21 91 103 
91 100 146 139 130 133 139 136 130 133 137 135 119 113 112 109 104 113 121 109 111 111 107 104 115 106 106 110 112 102 108 99 114 107 108 120 120 107 98 111 112 97 101 102 110 95 106 114 125 119 125 132 136 133 125 123 127 127 139 125 134 136 116 135 101 113 97 85 105 107 113 124 135 138 143 134 135 144 132 135 139 136 139 136 124 82 76 80 36 14 70 98 
107 125 142 141 129 133 139 145 138 145 127 131 130 130 117 100 117 115 128 126 129 117 125 121 126 114 111 108 129 118 107 118 109 113 110 119 127 115 92 105 107 103 106 113 117 99 107 115 124 129 125 141 146 128 127 120 123 133 131 137 137 138 118 124 124 106 103 78 87 98 91 120 131 130 142 143 149 149 143 146 149 145 143 134 141 113 78 74 53 21 42 97 
112 128 147 144 137 134 131 143 134 144 125 127 140 133 112 111 123 118 119 126 150 142 149 142 138 128 118 117 116 117 109 121 121 109 102 118 120 109 102 96 105 108 121 128 132 121 120 111 120 137 132 137 144 127 121 115 123 126 123 125 127 125 114 109 107 98 95 75 77 99 75 101 118 114 138 144 142 141 143 142 145 141 149 145 152 118 86 78 52 30 27 83 
116 136 144 146 138 133 144 146 139 140 129 125 123 135 130 134 122 119 135 126 146 154 143 145 150 148 133 110 107 112 106 106 114 106 101 114 122 107 111 100 112 113 123 147 129 138 126 123 122 137 148 148 141 141 123 111 125 125 122 118 127 121 116 111 105 94 96 87 83 101 91 92 104 116 119 150 135 140 146 137 134 138 128 144 151 127 87 90 68 34 22 62 
122 135 133 147 140 138 145 148 136 136 138 129 118 139 136 135 130 126 141 121 129 125 130 128 133 130 137 109 96 114 110 96 109 101 107 102 105 117 108 113 117 121 112 140 124 124 127 112 114 133 129 129 125 127 114 117 125 130 120 117 124 124 144 125 123 112 115 98 99 113 98 95 103 113 125 136 134 134 147 146 143 142 134 134 147 131 95 84 76 36 30 41 
124 132 133 145 153 136 137 149 152 144 134 130 137 148 143 145 141 136 134 133 128 122 121 115 125 122 123 118 94 92 114 99 108 114 122 111 119 134 131 130 132 137 134 143 135 128 138 116 106 136 120 124 117 123 114 114 131 128 122 120 133 134 152 150 137 131 132 117 112 114 103 98 97 102 121 130 141 149 147 151 143 145 141 144 137 132 97 82 82 37 39 23 
132 130 133 147 147 136 142 146 161 144 131 139 155 153 157 151 135 143 137 133 121 118 122 120 124 113 95 124 118 105 120 107 112 134 140 135 134 143 140 136 138 147 139 140 142 147 156 149 126 140 132 121 123 133 133 124 118 129 122 117 122 133 148 154 143 134 139 125 121 113 119 94 94 100 111 125 138 148 161 154 151 147 147 148 146 123 109 82 93 51 30 25 
128 133 143 145 143 129 138 154 155 146 134 146 151 156 152 153 135 142 137 130 120 121 137 129 121 118 124 131 147 134 151 131 131 154 145 147 149 143 154 148 139 153 145 140 136 156 168 153 141 151 140 133 119 120 129 134 121 129 131 126 134 133 150 157 133 135 128 124 129 117 112 96 89 105 115 116 140 140 160 158 156 145 150 141 155 133 97 92 83 58 31 36 
125 130 151 146 142 135 143 158 156 142 145 158 162 160 153 144 144 139 141 133 133 143 147 131 117 123 135 142 152 152 165 151 131 155 143 148 146 149 154 149 147 152 138 141 143 156 160 160 150 157 144 139 127 120 128 131 135 118 127 131 136 138 140 155 133 137 146 140 129 129 119 116 97 97 106 111 126 140 155 159 153 156 156 140 150 154 106 90 82 65 32 41 
129 137 146 141 143 146 146 164 149 145 166 167 167 174 160 149 152 150 149 147 149 153 152 133 127 131 139 140 149 152 161 164 141 140 128 140 131 145 142 134 142 144 130 140 135 147 144 154 140 158 152 137 133 130 129 132 133 119 127 127 130 137 135 152 141 133 150 155 139 132 128 121 107 103 104 103 119 126 144 151 155 158 159 153 141 156 138 102 81 69 36 41 
131 146 140 135 155 153 152 167 159 167 172 168 181 173 161 161 161 152 155 152 157 156 154 138 132 138 128 132 139 142 151 158 133 132 120 127 122 132 141 128 139 143 138 143 135 142 151 145 147 155 151 143 138 132 132 130 134 125 121 127 128 132 141 149 154 147 155 159 157 142 142 137 117 109 105 101 96 120 128 148 145 155 165 158 147 143 146 112 89 79 43 46 
132 141 138 137 148 156 161 172 168 176 174 186 190 183 166 175 179 165 160 157 162 159 152 135 138 136 127 128 134 135 159 146 131 131 124 125 126 132 134 136 144 148 146 145 136 145 150 145 148 157 147 145 146 140 136 133 142 130 127 123 130 130 138 144 150 152 158 161 165 153 148 147 134 122 112 111 105 106 122 135 136 150 152 159 158 152 146 112 106 96 54 47 
139 136 138 140 147 159 174 179 177 182 188 194 197 190 184 174 190 165 162 162 159 147 141 136 139 135 124 128 138 132 146 151 134 135 130 132 138 138 134 144 153 150 148 141 140 145 145 142 149 159 144 148 149 144 136 136 141 136 126 129 128 134 143 142 154 148 156 164 162 161 159 157 142 138 127 121 118 114 106 134 125 137 146 150 161 150 161 101 102 108 77 51 
132 135 139 138 147 160 184 179 184 199 197 208 202 190 184 188 188 177 154 160 152 145 142 137 137 136 126 134 140 135 140 142 141 140 138 137 139 148 137 141 159 152 149 140 142 142 148 143 151 157 150 147 151 149 142 141 144 142 127 131 130 134 135 136 147 149 148 155 161 160 161 160 154 148 142 131 124 127 107 112 124 126 146 142 158 154 154 116 81 116 85 59 
132 132 140 133 139 173 180 178 191 213 211 209 208 194 182 191 188 172 158 159 152 138 137 133 135 143 131 140 140 138 138 139 141 141 145 139 143 147 147 141 153 155 151 145 143 146 149 145 154 152 149 149 149 150 147 141 146 145 141 137 134 130 131 134 138 150 146 145 159 156 160 163 156 161 149 141 136 137 125 111 117 125 140 145 156 147 153 135 75 113 87 58 
132 129 134 132 135 170 185 180 197 216 207 210 210 194 183 194 182 176 169 158 150 135 133 136 139 141 141 143 143 138 140 139 141 141 147 143 145 146 147 150 152 156 150 147 146 146 151 150 148 153 148 153 150 150 149 144 147 146 144 146 140 129 134 133 135 142 145 140 148 157 159 159 161 164 154 138 144 140 139 122 119 115 132 143 156 142 137 144 91 105 92 47 
138 123 128 137 132 164 179 186 204 217 209 217 210 193 190 191 185 164 170 169 160 136 135 140 137 137 150 147 142 143 145 141 142 143 147 145 147 147 145 154 151 154 153 150 149 147 148 149 151 153 150 151 146 152 150 148 152 148 146 149 149 141 129 140 136 138 140 140 141 149 158 162 162 166 159 149 149 152 143 133 130 120 122 141 153 143 132 139 110 95 103 52 
143 126 127 134 133 162 179 193 215 219 213 217 216 190 190 194 186 163 165 173 159 144 148 150 141 141 151 151 146 149 150 148 145 150 148 149 153 151 147 155 156 154 155 151 150 149 146 150 151 154 152 148 147 153 155 151 158 155 148 153 155 150 141 145 147 143 142 145 138 142 156 167 162 163 165 155 158 156 150 143 137 130 125 143 147 140 133 134 119 100 106 54 
139 126 126 128 127 164 183 197 220 217 217 218 210 195 188 198 189 162 162 169 163 165 169 165 164 156 164 167 166 164 169 169 167 170 167 158 164 159 156 155 155 155 152 152 150 152 147 152 153 154 155 152 148 155 157 156 160 167 164 163 167 174 173 168 169 163 155 153 150 147 157 164 167 167 167 161 163 159 155 153 140 137 130 150 146 139 133 139 121 97 112 67 
134 127 122 125 126 159 185 198 217 216 221 219 203 198 199 194 184 172 166 167 174 181 173 180 184 171 173 175 176 177 185 179 181 184 181 175 174 173 168 167 157 154 153 151 150 151 151 155 156 157 157 154 150 156 159 165 171 180 184 184 182 188 189 190 185 179 171 167 167 164 170 169 183 185 168 164 163 162 158 151 142 133 141 150 145 134 134 137 116 101 108 74 
135 125 120 125 119 150 185 193 216 223 216 219 200 204 199 192 184 175 176 180 181 190 180 183 189 182 176 176 179 179 185 182 185 186 181 182 181 176 178 176 162 157 153 152 149 152 151 153 157 159 156 156 156 153 158 173 186 188 192 193 197 193 195 200 194 185 176 179 175 177 173 184 184 192 180 167 162 162 151 156 144 137 144 155 143 136 131 138 117 104 106 64 
131 118 129 124 117 152 179 192 207 219 224 216 206 207 206 185 180 180 198 190 182 180 175 179 179 174 169 163 169 167 177 174 181 179 179 174 174 175 175 175 168 161 157 151 151 150 154 154 158 158 155 155 157 159 161 180 186 192 192 195 198 201 196 202 196 190 175 172 173 170 174 181 184 190 195 175 165 160 155 152 148 138 149 156 141 135 136 133 115 106 104 66 
123 116 132 126 115 156 175 187 200 221 225 215 205 203 205 185 186 198 204 185 169 160 160 161 159 161 155 150 150 155 158 166 172 172 168 172 168 170 170 170 167 161 154 151 152 152 153 154 153 155 158 159 162 163 171 184 181 188 189 192 190 186 190 185 184 172 158 155 150 149 149 160 167 173 191 194 167 160 151 154 143 145 154 149 138 134 139 124 113 110 94 73 
117 117 134 126 120 150 169 189 202 218 226 223 197 198 197 184 205 211 186 165 161 152 155 151 148 152 156 150 146 144 150 155 157 159 160 162 161 161 163 168 165 161 157 152 151 151 154 153 154 156 158 157 164 168 179 185 184 182 184 183 184 178 174 167 160 156 150 135 133 134 140 140 144 159 171 196 189 158 153 145 146 148 155 148 137 133 143 116 106 106 82 71 
117 114 136 136 123 148 165 188 206 223 228 210 185 190 186 194 208 204 172 157 159 152 153 157 152 153 161 164 156 154 157 159 157 157 155 159 157 156 162 166 166 163 157 153 152 152 152 155 153 156 155 159 163 175 180 182 183 178 178 173 175 174 169 166 162 157 149 140 132 134 135 138 140 152 158 169 195 171 150 141 145 147 154 144 134 135 147 112 102 107 79 63 
118 116 129 137 129 147 171 184 207 221 225 193 181 177 184 209 204 183 168 159 153 154 156 158 164 160 159 163 164 162 165 164 165 166 166 161 157 157 159 163 168 168 161 153 150 152 153 156 155 154 157 162 165 175 181 181 176 173 172 177 181 180 179 173 171 163 153 150 130 131 137 137 148 152 158 149 179 186 153 133 144 149 151 145 131 138 142 112 99 103 76 54 
110 116 126 138 129 147 170 183 199 223 209 183 168 172 184 196 187 171 160 159 149 149 162 166 163 172 169 174 177 178 177 178 172 168 166 170 168 162 160 159 166 171 167 155 153 151 153 152 153 156 156 166 170 179 180 178 174 178 178 182 183 177 177 177 170 168 156 149 142 136 132 138 146 161 156 159 163 192 167 134 137 145 157 144 133 136 147 108 101 84 69 53 
105 120 125 138 129 141 159 172 192 211 198 167 164 174 174 163 148 143 143 141 136 147 163 165 170 176 175 178 183 182 186 196 182 176 172 162 173 172 161 161 162 168 169 163 155 155 151 153 153 154 155 167 174 173 169 175 179 178 177 175 172 173 172 173 177 161 156 147 133 124 135 135 140 158 162 165 156 190 179 141 127 148 162 142 131 140 142 103 98 79 67 60 
116 119 119 136 128 131 152 168 179 187 173 140 143 156 156 130 109 117 117 114 123 134 151 165 155 152 151 163 176 175 178 202 198 170 169 181 173 178 176 166 164 166 169 169 160 156 153 154 157 154 156 169 174 166 160 166 172 164 157 156 157 161 161 161 165 165 150 143 144 127 122 136 139 150 169 175 169 186 198 156 137 150 156 141 135 134 141 107 96 79 67 51 
120 121 119 134 129 133 157 175 179 174 141 115 103 104 92 89 85 95 101 107 114 137 151 152 132 117 118 157 166 188 166 172 204 184 156 179 200 192 188 182 175 177 180 179 172 162 160 160 157 157 156 167 166 157 138 140 142 137 127 119 139 155 148 131 148 157 142 127 143 143 148 146 145 143 157 179 179 191 203 177 152 153 157 145 139 132 132 118 83 81 72 51 
117 118 122 133 121 146 172 180 184 173 119 90 59 61 55 63 80 93 94 118 119 140 147 144 124 115 129 169 189 191 193 188 212 193 165 174 209 218 208 193 192 191 195 192 184 175 168 169 157 158 157 161 155 134 114 114 131 132 112 109 148 163 166 121 152 171 160 137 148 165 183 175 168 153 138 149 171 186 202 190 164 155 153 151 140 133 129 122 84 88 65 43 
127 114 122 126 122 161 204 204 205 175 112 66 50 59 73 83 97 107 113 121 135 152 158 151 153 149 151 175 192 191 189 198 207 192 173 177 192 205 200 190 180 182 184 177 170 160 158 151 148 138 147 146 127 109 99 98 115 113 117 122 157 181 182 185 188 198 190 166 172 184 204 204 190 169 138 121 129 157 177 184 171 159 151 155 141 129 129 118 87 99 50 34 
123 114 111 124 121 179 210 214 229 171 99 78 83 115 118 126 115 122 128 127 118 138 168 188 190 180 163 171 169 162 166 161 169 164 153 153 163 164 168 167 158 161 159 163 156 151 141 141 136 137 139 137 116 111 109 113 121 128 143 161 179 195 197 194 203 223 198 171 181 181 187 187 184 170 155 125 92 113 145 158 164 160 156 160 143 122 126 113 103 88 55 35 
124 108 111 112 126 184 206 216 216 147 90 94 112 140 125 107 106 98 100 82 71 96 132 155 157 152 146 143 140 134 128 131 128 117 113 100 99 109 117 124 133 143 143 145 147 138 142 137 140 138 149 140 135 140 135 147 150 140 144 150 167 173 176 172 188 202 183 162 168 168 170 158 141 146 153 138 104 86 128 128 136 152 161 165 145 114 114 121 105 84 55 24 
124 107 113 109 129 188 200 212 189 127 88 92 122 112 90 59 53 39 29 46 59 74 82 105 114 119 119 116 122 121 118 122 130 121 102 75 69 72 92 106 119 117 128 134 142 132 138 148 154 157 167 166 165 169 168 158 164 149 123 106 124 140 154 163 167 169 173 150 132 141 146 146 137 138 154 165 137 108 128 145 112 127 161 172 147 113 110 122 110 82 57 21 
129 116 112 101 138 196 203 202 178 116 97 105 108 85 64 36 5 6 14 48 70 90 86 93 106 118 140 135 137 148 149 144 141 145 127 92 81 75 97 120 132 137 135 150 151 152 155 172 182 185 186 189 190 193 178 162 157 160 126 103 87 96 110 134 130 139 146 168 168 148 155 160 163 156 153 175 162 147 151 171 145 108 158 173 154 115 112 126 108 86 53 32 
127 123 116 98 146 204 205 200 178 119 96 119 108 93 60 19 0 31 49 64 97 124 117 104 125 133 179 152 142 162 175 173 171 152 137 119 104 97 104 131 157 159 150 162 159 161 161 171 174 170 172 183 186 172 165 153 145 129 118 99 90 99 98 96 112 132 154 164 175 181 172 158 160 174 158 169 171 157 160 174 170 122 140 174 159 125 117 126 110 97 55 51 
125 125 115 101 153 213 210 202 176 117 109 127 121 106 61 31 21 51 85 85 120 150 127 100 125 118 165 186 142 151 202 176 166 150 122 109 117 109 110 133 148 161 150 147 154 149 154 166 159 146 155 166 159 151 147 129 126 134 116 98 106 139 167 93 87 108 155 138 145 164 164 153 151 157 148 153 164 159 157 171 173 139 137 175 159 120 120 134 119 107 58 57 
131 118 118 95 169 213 216 209 174 131 123 132 132 115 70 39 36 51 79 94 121 154 121 91 93 118 122 164 154 168 207 182 151 104 89 100 110 109 102 111 147 154 153 123 139 159 148 154 138 128 145 168 177 155 135 129 153 159 125 103 113 119 132 114 97 106 134 132 117 142 144 134 140 147 146 128 154 160 157 167 170 144 149 172 156 120 113 122 130 111 67 61 
134 116 114 98 170 215 224 219 185 150 142 133 133 119 91 59 41 54 83 83 93 113 116 92 77 100 115 154 171 214 188 155 160 100 69 84 106 114 110 99 135 150 144 129 144 168 163 142 130 133 144 162 166 168 156 134 143 165 145 112 115 128 128 115 124 138 106 141 136 131 118 120 142 134 119 146 154 154 161 161 166 143 154 171 161 123 113 118 127 96 85 61 
140 128 118 107 181 221 222 222 202 162 143 140 137 123 115 89 65 65 67 63 49 55 112 118 115 128 143 182 201 191 177 144 158 149 83 103 99 133 116 115 113 141 153 157 168 161 156 141 125 141 143 149 156 165 145 140 149 137 144 141 128 139 159 153 174 171 102 108 146 117 124 115 149 132 107 139 172 164 151 161 162 149 152 171 164 135 134 135 141 101 87 68 
139 131 119 109 189 214 217 230 198 180 147 120 118 105 103 112 96 110 102 82 54 31 64 104 141 159 163 189 180 173 139 155 141 136 109 112 112 137 124 86 110 133 153 173 186 170 144 143 133 133 140 135 138 172 144 116 147 152 151 142 142 162 216 195 191 170 103 86 104 117 120 123 157 143 118 135 163 165 152 159 165 162 157 162 166 160 150 148 146 121 69 68 
143 120 125 109 185 210 215 230 196 190 158 134 115 102 93 98 99 103 110 104 83 64 49 85 141 157 163 165 159 166 139 135 148 129 125 123 131 132 129 107 100 134 156 176 186 181 152 135 133 137 127 128 142 182 154 132 154 169 178 126 120 146 197 209 191 184 148 122 117 120 111 147 169 151 135 142 155 155 153 164 175 164 166 166 181 176 156 147 159 122 68 66 
147 123 135 113 182 209 214 218 201 205 162 139 124 112 109 108 104 113 106 107 109 97 77 68 100 119 128 132 142 151 164 143 138 141 140 141 140 129 127 123 131 143 154 167 175 179 173 144 145 155 153 146 149 170 164 144 160 178 196 144 113 139 183 192 185 192 185 160 147 133 133 145 154 140 131 147 172 161 159 169 187 166 173 177 186 198 156 147 160 125 73 63 
148 128 132 113 179 205 199 214 204 213 175 144 130 116 112 117 120 118 119 115 114 115 105 97 117 124 127 132 139 142 150 154 159 155 160 152 144 135 116 120 140 153 165 162 161 154 147 147 139 142 155 156 160 161 165 165 158 172 165 154 152 160 197 191 184 182 175 160 148 132 132 143 147 139 138 152 169 169 171 182 191 173 170 190 200 204 162 149 164 118 89 66 
144 140 127 111 187 188 176 212 204 218 187 156 142 131 129 128 129 129 129 132 128 124 115 117 129 138 139 144 144 143 151 151 150 143 154 148 140 143 134 127 143 165 180 175 166 149 145 140 140 136 154 160 177 178 159 163 162 162 162 160 163 173 197 194 179 173 170 167 154 145 151 155 155 147 142 164 170 172 178 189 195 193 177 205 209 204 176 157 148 108 90 69 
142 135 131 115 174 180 158 195 195 224 198 176 156 145 141 142 138 140 141 145 145 133 121 133 146 144 154 157 155 154 149 141 135 135 137 135 137 147 151 147 157 169 185 183 171 163 155 144 148 162 163 172 183 185 170 173 172 176 180 179 165 156 173 184 173 169 171 163 158 150 155 150 154 146 142 163 175 175 180 188 198 197 189 219 218 209 188 171 125 106 96 68 
133 138 146 123 157 182 162 177 186 211 212 181 168 154 146 146 146 145 142 151 148 137 130 146 150 146 150 146 137 126 119 111 114 123 124 124 132 140 147 151 153 165 190 190 176 173 165 148 149 171 186 194 196 187 171 166 162 166 179 190 190 175 184 187 175 171 169 163 157 151 151 151 149 144 143 164 169 183 178 202 201 195 202 232 231 208 197 168 117 115 96 79 
128 144 163 132 137 176 188 172 172 200 210 187 173 160 154 151 147 141 137 140 136 123 127 141 144 139 135 128 120 111 111 107 118 121 123 124 130 133 137 147 156 160 181 184 178 172 168 153 152 170 189 196 202 194 181 169 159 158 169 185 193 186 200 196 179 172 162 159 154 148 148 149 147 140 144 165 169 187 180 209 203 183 222 239 237 201 201 150 125 121 107 78 
120 152 169 144 126 169 190 159 165 176 207 185 174 158 154 157 149 142 138 137 131 117 127 139 142 137 136 130 121 121 117 119 126 127 126 127 128 124 124 140 153 165 184 186 178 175 167 155 145 153 162 175 191 196 182 171 167 157 165 172 179 175 185 192 184 173 163 155 148 147 147 150 145 147 151 169 176 193 182 204 190 193 233 241 236 200 203 150 135 140 106 93 
118 154 155 156 140 156 198 152 162 160 203 186 174 157 157 158 148 145 139 134 123 116 131 136 142 138 135 132 126 127 124 125 131 129 129 131 128 119 120 128 145 165 189 190 187 188 177 165 147 155 158 164 174 176 168 164 167 160 166 172 171 166 173 183 180 170 168 165 155 155 149 152 150 146 165 170 180 194 176 185 198 217 245 242 232 205 185 142 155 142 107 97 
119 151 147 145 162 165 190 165 156 156 193 183 174 156 161 157 151 144 140 133 122 120 132 141 140 138 138 131 129 132 130 131 133 129 128 129 125 116 116 129 138 158 182 181 186 181 177 167 153 153 159 153 152 147 143 140 149 147 155 160 163 156 162 173 173 176 170 166 159 158 154 158 152 155 170 169 185 188 159 187 219 242 243 233 213 199 166 137 161 150 116 101 
129 146 144 140 166 178 195 178 150 147 175 184 171 156 158 159 153 142 142 130 121 125 134 140 141 140 137 132 133 128 132 134 132 128 121 127 126 115 120 133 139 159 174 175 178 179 175 167 157 150 155 149 146 142 140 137 140 134 146 150 155 152 160 167 173 174 175 164 162 159 157 156 157 164 178 168 175 183 170 204 232 243 233 223 212 200 146 134 164 160 113 108 
143 146 133 129 169 169 204 193 150 138 160 180 170 150 152 155 154 147 141 126 121 131 136 143 142 139 141 135 137 133 131 132 131 125 113 124 127 119 124 134 145 162 171 173 177 179 181 173 165 145 152 148 142 137 138 138 134 133 136 147 151 152 162 162 173 176 173 167 160 158 157 156 158 173 179 171 174 182 197 217 228 229 241 213 222 181 123 143 151 168 129 94 
152 154 121 127 170 180 187 213 156 141 145 172 161 149 148 149 152 147 135 124 129 139 141 144 144 143 142 140 137 135 134 132 132 122 116 126 138 121 120 135 145 159 167 175 176 185 190 179 170 147 153 152 141 137 145 140 132 131 134 141 151 150 158 160 169 175 169 164 158 156 157 159 167 180 172 174 171 179 203 221 219 232 255 197 210 157 111 132 155 160 147 96 
151 158 134 129 151 200 187 206 206 151 132 165 155 148 142 149 144 146 134 124 137 143 145 147 148 146 147 145 142 140 143 137 132 124 122 132 135 121 120 136 142 156 170 177 186 186 196 182 170 148 152 158 140 136 149 145 135 131 131 134 145 151 158 159 163 176 170 166 159 157 165 161 181 180 166 174 173 179 207 222 231 239 238 184 188 144 116 124 144 163 148 113 
144 155 144 132 128 199 211 197 224 200 145 156 152 141 135 140 142 142 134 135 144 147 149 150 150 152 151 152 154 151 151 144 138 131 130 124 120 115 121 128 139 155 177 189 188 187 197 189 167 150 148 155 142 133 152 144 135 135 129 131 144 154 151 156 164 167 174 166 164 161 166 168 189 178 168 174 181 192 219 235 228 230 196 165 170 141 123 122 130 150 151 126 
144 155 147 141 125 167 214 212 225 216 177 151 149 135 135 135 139 133 134 141 147 152 153 152 153 158 156 162 161 161 156 143 148 138 123 110 104 110 123 127 136 164 176 198 189 175 192 200 171 153 148 148 134 127 150 146 135 142 143 130 143 151 149 156 164 166 170 170 168 171 171 178 196 175 166 172 192 216 222 224 200 191 168 161 148 139 128 131 124 132 142 142 
146 153 150 138 130 150 183 229 235 227 192 161 141 128 127 130 133 130 136 143 151 154 155 156 157 163 166 172 164 170 153 149 153 151 121 85 84 101 121 130 143 173 184 195 186 161 173 191 177 155 144 142 132 135 152 147 143 144 151 137 148 150 156 158 161 168 172 169 174 174 181 187 189 174 159 178 210 234 230 162 159 159 154 150 138 140 130 130 123 121 133 133 
149 155 153 136 132 134 168 217 232 225 193 165 137 123 117 122 126 122 132 149 149 157 157 160 161 166 176 175 174 171 164 160 160 154 143 103 80 97 131 133 148 171 184 187 179 161 165 180 178 161 152 155 173 164 167 159 151 147 146 149 151 159 163 171 166 174 177 174 176 179 185 196 180 167 166 191 228 233 191 123 134 153 156 135 142 138 135 131 126 123 128 134 
148 159 156 139 135 124 162 207 231 218 170 180 131 122 112 120 122 118 127 142 154 161 161 166 166 174 179 183 178 168 177 188 175 159 146 126 115 117 152 159 154 153 146 155 157 155 161 178 170 167 176 187 203 198 182 170 165 149 145 163 173 170 173 183 173 173 178 178 179 183 190 196 177 174 190 211 218 196 152 112 147 175 149 130 139 143 137 131 135 116 122 127 
145 158 153 147 140 121 144 193 220 223 164 182 136 113 113 114 119 123 129 134 147 158 162 168 169 170 173 170 164 158 148 166 173 157 150 145 136 145 159 171 173 159 139 127 131 134 139 163 172 194 217 219 217 200 187 176 171 167 171 194 196 183 180 186 177 167 175 181 184 189 191 189 192 200 186 177 184 164 151 146 172 173 141 138 134 144 138 129 134 123 121 125 
153 147 154 142 139 126 134 177 213 226 161 179 145 115 111 109 120 119 129 133 136 148 150 160 160 165 153 141 140 131 121 115 135 150 156 158 152 145 149 153 158 158 150 139 142 143 139 152 169 199 210 208 195 194 182 175 183 192 198 203 205 187 179 180 170 170 171 181 185 193 183 189 218 203 164 163 178 166 154 164 172 168 139 137 137 145 138 132 136 127 121 128 
156 151 144 142 137 131 126 164 207 231 161 174 157 115 108 114 119 127 127 140 141 135 141 146 150 143 128 126 127 123 118 120 135 161 174 174 174 162 148 152 153 154 149 145 140 135 137 142 151 157 163 162 164 173 169 180 196 189 189 187 182 177 169 172 163 166 171 176 186 190 180 191 219 193 153 169 179 160 159 164 171 165 137 140 137 141 141 138 134 133 121 133 
151 159 141 142 133 131 125 147 194 234 164 164 167 120 115 111 117 124 127 139 146 139 145 141 133 127 127 122 118 118 126 133 147 171 183 188 184 181 167 166 166 150 152 147 132 136 137 141 135 130 135 151 164 169 176 180 188 185 179 181 172 166 164 166 161 163 174 174 184 192 174 197 215 177 149 170 174 158 160 168 171 161 130 145 133 142 140 143 139 139 128 122 
152 162 138 135 134 129 133 133 182 228 180 153 171 136 112 110 110 117 129 134 144 145 145 133 129 130 115 115 113 127 135 142 157 170 180 187 189 188 183 169 171 155 155 147 135 136 136 135 130 130 137 158 166 172 176 178 177 175 173 173 165 162 170 168 165 168 171 179 181 189 175 200 205 160 151 172 166 155 164 171 174 151 132 142 135 140 141 145 139 141 133 122 
148 154 144 131 126 132 134 133 164 226 194 148 164 154 110 102 108 116 128 129 140 149 135 133 134 130 117 109 115 125 136 146 155 166 173 183 191 192 186 175 171 167 158 146 134 133 129 129 128 135 143 152 167 178 178 178 169 169 165 162 162 164 169 174 173 165 175 184 179 183 174 201 191 150 155 175 164 158 168 170 174 138 134 140 139 138 144 142 147 133 138 129 
147 150 135 128 130 125 142 138 147 201 208 156 161 163 113 104 101 118 128 130 144 146 144 141 141 127 116 113 122 127 141 146 145 156 170 181 192 187 184 180 169 167 162 153 145 140 138 130 136 145 148 155 166 184 184 171 169 161 155 154 158 156 166 175 174 169 170 181 181 176 178 202 178 147 164 176 156 164 171 173 165 133 140 137 142 137 145 145 152 142 135 141 
145 136 129 123 124 132 148 142 133 173 211 165 156 164 133 100 95 110 122 135 139 147 151 153 141 127 120 110 111 126 139 134 142 145 165 175 186 189 189 190 178 170 171 168 156 153 155 150 152 155 166 168 178 181 190 167 162 154 151 152 159 160 163 178 174 177 168 174 180 169 183 196 166 154 170 173 164 168 177 172 155 138 143 138 142 135 149 144 150 147 137 148 
136 126 127 124 123 141 151 140 127 152 194 176 146 154 148 118 111 104 110 117 130 152 158 148 148 165 156 133 113 100 108 125 126 133 150 158 168 177 178 190 196 189 177 179 175 163 167 166 171 180 188 187 191 188 182 174 154 147 150 157 163 166 173 180 177 178 167 158 172 162 192 186 160 156 179 175 161 176 179 170 145 137 146 145 143 140 146 141 154 146 141 143 
122 119 122 125 137 144 145 140 129 135 167 185 142 153 138 149 121 121 110 99 108 135 137 127 133 162 194 188 172 146 118 125 135 141 130 120 124 131 138 147 161 170 180 171 171 161 154 165 170 180 183 183 188 184 170 170 168 173 170 166 169 172 179 175 167 157 161 153 160 169 198 187 154 170 181 174 166 182 179 161 142 142 143 150 144 136 148 139 155 147 143 145 
122 118 126 134 140 141 143 140 130 128 139 173 156 143 134 159 136 139 121 117 108 119 113 98 107 122 151 170 173 163 150 137 146 151 151 140 109 88 96 102 112 118 134 131 134 145 145 146 162 169 171 177 182 173 162 186 179 167 165 163 166 164 176 173 159 157 159 151 152 179 201 178 161 188 183 173 174 183 177 146 149 138 150 154 143 142 145 143 148 150 143 146 
118 125 132 131 138 141 141 140 127 131 116 138 180 134 136 146 143 140 135 130 119 125 119 98 90 102 107 125 136 147 151 123 120 129 128 144 139 123 103 81 71 81 105 111 111 126 130 145 170 185 183 176 167 170 167 170 145 135 154 167 172 170 180 171 161 163 152 146 151 197 198 169 169 193 179 182 179 179 166 147 148 145 152 155 147 143 145 145 144 146 146 143 
121 127 134 126 129 130 126 128 130 131 102 114 161 155 137 140 131 139 142 141 132 130 133 128 107 95 99 100 113 124 137 138 127 115 94 97 113 137 147 136 128 135 144 130 121 150 141 141 162 156 150 144 145 151 145 144 139 141 154 160 169 170 169 164 164 158 145 144 162 201 194 169 177 186 178 186 182 170 151 151 149 152 156 152 146 149 144 144 142 149 142 146 
133 122 132 131 126 127 130 131 131 124 97 100 133 172 136 140 123 134 134 144 138 130 129 135 130 123 115 112 120 129 131 145 165 154 129 118 115 120 118 139 139 147 158 159 156 173 158 140 136 123 126 128 136 141 148 149 150 154 154 160 171 167 162 166 165 151 144 151 182 203 196 172 170 176 180 185 176 153 149 150 151 153 152 154 152 148 148 141 144 148 134 146 
134 127 135 134 124 134 133 133 121 116 106 85 112 167 155 135 118 130 126 135 138 134 130 130 133 129 129 129 125 136 133 134 132 139 135 133 149 147 127 127 132 137 149 151 155 151 148 143 132 129 140 132 131 136 138 142 151 157 163 173 172 166 166 166 155 147 147 170 197 206 204 157 160 178 182 174 157 151 149 146 151 151 152 147 153 153 140 138 145 140 139 136 
132 137 141 135 135 132 140 132 117 116 112 97 90 154 178 148 115 127 131 126 133 133 131 132 130 132 131 122 124 128 130 125 124 116 118 122 132 146 148 152 144 147 145 137 139 141 144 138 134 141 147 136 134 132 143 158 166 169 177 175 165 165 170 164 148 148 166 184 216 210 177 145 170 178 177 156 151 147 145 150 145 152 148 154 153 155 138 139 138 144 131 139 
136 148 146 152 142 144 137 134 126 127 133 105 97 135 174 179 120 122 133 125 119 128 132 131 132 131 132 133 131 133 132 125 128 130 121 123 134 125 130 140 154 156 162 162 159 152 153 145 141 146 141 136 139 148 158 166 166 173 166 166 164 170 167 154 150 167 185 203 217 197 148 154 168 167 157 151 152 146 151 148 148 153 148 156 156 147 140 147 135 139 134 139 
149 152 145 164 156 154 137 134 131 143 134 115 110 121 154 186 163 121 123 129 119 112 117 129 135 135 134 137 142 136 138 135 133 138 136 133 135 131 131 136 145 154 159 160 153 150 145 138 137 135 133 137 145 159 157 158 161 161 161 170 169 168 157 155 171 196 199 206 201 174 154 161 162 138 143 155 149 143 151 152 148 149 149 161 155 138 144 140 135 136 132 127 
159 156 151 155 158 160 128 133 131 136 130 115 113 133 134 175 176 150 121 128 127 119 115 114 131 132 135 137 143 143 146 143 139 139 139 141 141 139 138 137 137 135 136 139 139 136 140 140 142 135 139 140 144 153 154 156 162 167 173 179 176 164 161 166 186 201 202 195 185 170 159 148 137 130 142 155 146 148 155 150 143 150 157 154 152 133 142 139 130 133 127 128 
159 159 159 153 159 154 131 138 124 126 127 118 104 131 133 153 168 161 132 128 128 125 127 117 122 132 131 134 139 146 152 154 151 150 149 149 159 159 156 151 148 143 141 143 143 147 148 152 149 147 148 147 154 159 163 164 173 180 177 179 163 170 165 172 188 203 203 178 187 179 154 129 131 132 138 151 141 148 152 147 136 153 158 144 148 131 138 136 129 125 128 125 
154 157 160 157 147 141 128 130 116 119 121 108 105 123 138 137 160 158 137 140 131 123 131 129 124 132 140 139 147 147 161 169 173 176 172 167 174 175 175 175 173 174 175 175 171 170 165 159 156 155 156 163 168 173 175 178 175 180 173 170 165 168 165 178 191 192 189 191 188 170 143 129 133 126 135 142 140 138 144 134 137 148 153 140 136 136 130 141 126 130 122 123 
151 157 158 158 143 132 129 125 119 115 120 103 100 125 146 137 149 154 130 141 145 137 127 129 132 135 145 154 157 158 157 169 183 183 187 185 190 191 187 189 188 191 189 190 185 183 177 173 166 171 171 176 179 179 176 178 173 179 174 170 162 161 159 181 186 189 200 192 181 154 145 132 123 131 129 136 129 132 138 125 133 147 145 136 134 135 135 142 122 126 120 121 
135 152 160 150 137 135 137 130 117 113 113 107 101 130 145 155 157 144 126 134 142 145 132 124 129 128 133 148 154 160 158 169 180 187 192 191 195 195 195 195 192 190 192 189 190 182 179 172 171 175 174 176 174 176 174 174 178 170 165 159 154 158 165 175 181 197 205 184 173 150 146 125 123 124 129 123 126 131 126 127 133 142 142 130 141 134 141 136 122 124 116 112 
118 145 149 142 117 130 131 123 115 116 113 114 106 132 165 162 159 136 122 126 134 140 143 130 125 124 129 138 142 151 153 159 167 170 177 181 181 183 183 189 187 183 183 181 186 179 174 170 170 170 173 172 171 176 172 172 173 166 153 154 150 154 164 173 186 213 201 180 168 147 148 126 121 121 122 123 128 122 128 134 131 143 132 133 140 136 138 132 118 124 113 112 
119 126 135 135 121 124 125 118 108 117 111 115 113 150 176 155 152 137 114 123 126 135 142 144 130 121 122 127 130 135 149 148 155 157 164 166 169 166 168 171 175 172 175 174 174 165 167 163 166 164 164 166 170 170 169 167 152 155 142 149 149 149 163 176 213 217 199 173 165 148 141 127 125 123 126 122 128 123 133 135 135 136 134 138 138 136 134 120 119 118 115 113 
136 130 128 135 131 125 118 117 120 118 121 117 132 161 172 157 146 136 123 108 118 122 131 140 139 122 121 115 116 125 127 137 142 146 151 160 164 161 162 160 163 161 160 156 154 152 151 154 150 155 152 160 162 165 161 146 143 146 141 145 143 150 168 203 230 216 198 160 156 148 132 131 125 130 125 125 131 129 132 135 138 133 131 137 135 129 124 119 114 117 116 105 
131 120 134 135 126 129 118 117 128 126 117 135 156 155 160 154 146 134 129 113 105 115 122 129 144 127 122 113 105 116 114 118 125 130 135 142 145 153 151 150 148 147 145 145 143 143 137 148 148 147 150 159 161 156 146 137 141 140 140 133 144 150 191 220 230 214 199 150 160 146 129 131 130 131 127 128 128 133 133 141 135 131 134 137 130 126 120 121 109 119 116 99 
