P2
# Imagen
92 112
255
113 118 116 115 109 106 112 115 105 120 129 143 144 130 141 157 157 148 177 207 209 204 195 197 185 160 140 120 135 124 124 125 132 127 131 136 126 124 135 139 134 136 140 138 142 137 140 130 134 148 145 148 144 145 156 168 159 158 157 158 155 174 177 193 192 175 154 151 159 155 155 154 153 134 121 111 111 111 112 109 111 112 110 112 115 110 110 111 109 111 109 110 
112 118 122 115 117 114 114 120 107 119 137 145 154 145 157 162 157 164 198 221 210 199 190 177 164 138 125 112 114 115 119 118 118 123 119 123 117 117 118 128 121 124 120 128 130 119 117 121 115 122 139 144 141 145 145 142 163 148 159 160 149 154 155 165 164 175 180 145 144 154 155 156 152 154 137 110 112 114 111 112 114 112 112 112 113 113 109 113 110 110 111 112 
122 115 123 128 112 120 120 124 122 128 151 162 162 161 157 170 168 190 214 204 187 188 180 163 138 121 119 102 107 109 114 121 103 115 115 117 116 112 105 119 110 113 107 117 117 112 110 116 109 114 126 132 136 138 140 137 137 141 146 148 156 159 148 153 154 144 165 172 151 143 138 151 157 151 164 130 122 114 117 113 113 112 116 110 114 113 112 111 111 111 110 110 
124 128 130 136 129 120 122 131 149 164 169 171 168 171 174 190 194 211 192 191 178 177 156 138 119 119 115 103 97 109 105 122 102 110 116 111 117 108 103 111 111 107 113 108 111 105 113 108 104 113 113 108 117 118 119 123 121 122 125 138 133 148 145 153 147 156 150 149 152 163 149 133 138 152 158 151 149 130 117 114 109 110 113 115 115 112 110 106 110 110 110 110 
118 125 132 140 147 140 139 152 168 172 174 179 178 185 187 199 183 187 184 175 171 156 132 126 114 117 115 106 89 109 101 118 106 106 113 112 114 109 100 105 111 110 111 111 108 105 101 111 103 102 106 112 97 104 104 100 117 108 100 101 112 122 133 144 134 143 150 151 144 143 164 156 133 132 144 155 154 156 147 115 111 109 113 112 116 116 113 108 109 114 108 111 
116 124 128 134 135 147 160 167 162 172 170 186 188 185 181 176 178 177 173 161 147 134 123 121 114 112 115 114 84 103 105 105 109 101 113 117 109 109 93 100 108 114 105 109 108 109 92 104 106 103 104 105 100 88 103 101 98 112 105 100 80 106 100 119 129 130 126 142 154 142 141 155 154 139 129 137 152 151 159 151 120 109 110 112 112 115 111 109 110 109 111 111 
121 127 134 137 140 155 164 159 159 176 185 187 186 182 181 172 169 171 155 137 122 118 113 123 114 110 111 113 84 98 107 99 110 99 107 115 108 104 94 91 103 113 107 105 106 112 102 99 103 103 101 101 94 87 93 101 95 104 104 100 80 95 102 98 108 110 108 114 121 135 139 151 156 145 139 127 130 144 150 160 153 112 110 115 112 118 110 111 110 112 109 110 
122 132 131 144 154 161 164 155 167 191 192 189 174 176 175 170 151 148 122 114 108 111 119 118 110 105 113 109 93 104 106 98 102 104 103 113 107 102 97 87 92 113 112 99 105 111 105 104 95 94 108 93 96 88 88 94 96 97 96 101 93 88 100 93 103 112 102 109 114 90 98 128 153 133 150 146 126 128 138 149 160 139 116 114 110 119 113 111 110 111 113 112 
134 144 149 160 163 160 157 160 177 194 183 175 170 173 159 149 139 127 101 100 105 102 111 113 111 105 110 112 89 107 108 101 102 109 92 108 113 96 101 90 85 106 115 97 96 119 103 98 99 86 106 94 93 79 97 84 91 89 87 94 92 90 89 100 95 112 102 103 115 95 84 104 114 125 126 142 151 126 133 129 141 152 140 125 113 115 114 115 111 109 114 111 
141 152 163 162 160 163 162 178 180 184 176 177 166 155 150 125 124 106 102 94 104 100 104 112 112 103 112 108 87 104 116 98 101 104 89 101 114 98 95 95 86 101 119 97 93 118 106 87 103 85 98 96 82 81 89 106 77 95 78 86 90 95 77 89 104 101 113 97 115 100 83 96 101 104 114 107 135 148 140 133 125 142 152 151 128 118 121 116 115 112 114 115 
161 164 159 162 162 166 183 189 176 173 171 150 141 131 118 109 109 104 98 99 99 103 98 112 107 100 113 105 79 100 119 98 98 103 87 104 112 93 93 96 83 101 127 98 94 97 122 92 98 97 97 102 83 89 82 101 79 92 84 81 87 87 82 72 108 99 108 113 95 104 86 88 104 95 110 109 90 123 169 134 129 128 143 153 154 138 114 118 111 113 114 113 
164 160 155 160 165 183 192 179 167 170 144 115 104 108 107 104 108 108 96 102 99 103 106 118 100 98 107 107 76 104 116 95 99 103 87 105 112 94 92 92 92 98 136 99 99 94 120 110 92 105 94 106 95 91 91 95 92 86 99 83 90 80 93 73 105 103 103 121 107 92 93 92 108 100 111 94 99 87 134 160 125 128 136 147 158 155 134 116 114 111 116 113 
160 156 163 170 171 177 187 175 161 131 113 99 101 100 106 98 104 113 99 100 98 102 108 116 101 91 110 103 80 108 115 94 102 96 94 106 105 94 102 94 97 97 132 105 105 102 103 118 96 112 97 104 108 95 98 88 112 94 100 90 90 91 93 89 93 108 106 125 112 102 92 96 115 104 106 105 95 96 112 137 138 123 131 137 152 154 149 142 122 115 111 112 
168 160 179 180 175 171 178 146 124 101 105 99 100 95 110 92 95 109 96 108 101 101 103 114 103 95 114 103 84 112 117 97 102 98 91 108 114 93 111 101 107 103 117 120 103 113 100 112 112 109 111 101 124 109 101 104 102 110 106 91 102 99 101 100 99 101 108 132 121 100 93 95 115 107 108 99 104 97 95 131 128 99 112 135 143 157 148 150 147 120 111 111 
169 162 186 180 176 173 155 99 102 99 105 91 97 92 105 98 94 107 87 103 96 101 95 114 104 99 109 110 87 114 121 102 113 104 90 110 112 104 105 115 111 113 108 121 115 114 105 115 110 118 128 102 111 123 107 112 110 96 125 104 94 108 103 105 106 102 104 132 133 108 98 98 109 104 107 105 90 105 92 111 131 106 81 108 133 143 154 151 149 147 111 111 
165 164 180 177 170 149 109 90 98 100 104 104 90 89 105 96 103 107 89 96 96 102 96 113 100 100 109 103 100 113 119 103 117 108 105 112 126 112 114 122 126 127 120 117 128 123 113 122 116 122 130 123 109 122 131 112 122 103 106 135 94 119 99 119 111 105 113 120 138 115 102 101 104 115 104 111 93 103 91 93 127 121 88 80 112 128 143 145 147 150 131 109 
157 162 170 167 142 113 95 93 95 95 105 105 99 95 97 99 101 105 95 98 95 106 98 105 104 102 109 104 105 110 116 121 117 122 115 123 134 128 122 130 136 137 130 126 129 133 126 127 125 130 135 137 123 124 136 133 122 129 107 133 114 130 105 112 127 111 124 119 127 131 116 106 110 110 109 108 108 96 100 88 115 119 104 72 106 104 129 145 152 147 148 124 
170 160 172 141 114 99 99 96 99 90 105 103 106 107 101 97 101 103 99 103 95 101 99 106 105 104 103 117 114 99 128 131 126 129 128 136 146 134 133 136 149 145 136 138 126 140 141 133 134 139 139 135 140 137 140 139 129 141 130 129 133 128 127 123 131 130 134 128 122 131 128 111 114 105 104 115 110 107 110 90 102 121 118 92 91 103 107 134 148 153 144 145 
180 165 147 126 102 93 96 97 99 97 102 97 111 115 97 96 105 101 104 101 106 101 106 106 109 107 112 121 115 108 141 137 132 136 139 136 146 143 130 147 147 151 145 144 141 142 147 141 139 144 145 135 143 153 139 145 134 141 148 131 140 130 141 132 143 142 140 137 124 127 136 126 125 119 101 118 111 108 112 102 106 113 125 118 91 110 92 123 140 149 146 148 
176 157 140 124 90 92 93 95 104 107 101 102 108 123 101 98 117 102 102 103 120 109 106 110 105 110 108 117 117 123 146 140 130 136 143 138 141 139 140 145 135 150 153 151 140 142 148 144 143 142 151 134 145 149 143 146 144 138 149 140 136 132 141 143 146 151 144 131 134 128 144 131 131 132 115 119 119 110 115 110 104 109 118 124 102 93 103 105 146 148 147 149 
155 140 130 114 101 91 97 96 100 114 110 101 109 125 115 107 109 112 109 115 119 111 106 111 108 113 113 116 120 134 144 145 133 133 146 143 136 135 145 145 139 141 150 154 138 146 140 151 142 146 150 137 147 151 143 148 147 141 140 143 127 143 139 150 146 148 140 137 137 138 146 127 132 135 124 128 119 123 124 113 104 116 105 127 115 94 106 111 142 158 142 143 
142 126 133 97 110 100 100 101 106 113 115 99 119 119 109 112 109 114 113 115 117 109 107 112 107 115 117 119 122 130 139 143 134 132 146 147 137 134 144 148 143 143 139 153 144 145 136 144 151 156 147 137 138 151 144 148 151 144 133 136 126 141 142 137 152 147 139 137 135 135 137 125 128 136 136 132 121 125 122 110 94 107 98 107 126 108 96 102 125 159 149 149 
124 123 123 102 107 114 108 103 108 115 117 107 120 116 99 93 106 114 108 110 117 99 108 112 100 114 111 121 125 129 131 137 133 129 134 145 142 137 141 141 144 139 138 136 145 148 130 132 140 152 139 141 134 137 148 142 148 141 139 127 128 130 137 130 140 148 138 136 137 127 128 119 117 133 137 132 123 121 120 105 97 110 100 107 132 110 90 110 107 142 153 156 
113 128 110 96 108 119 119 113 101 112 119 107 110 113 105 81 94 106 113 92 111 99 93 103 100 109 111 116 118 126 126 126 129 122 127 138 134 129 131 133 131 134 127 126 138 133 127 112 125 123 123 128 139 130 135 139 136 133 138 127 118 116 128 121 126 130 125 130 127 112 117 116 115 132 126 129 130 123 125 104 101 116 110 102 133 126 81 103 105 115 144 143 
119 106 112 92 102 119 116 121 111 99 113 102 95 96 108 85 72 94 113 95 102 96 85 96 99 106 110 116 116 114 126 116 113 112 117 126 114 118 119 116 109 106 103 109 113 104 100 86 101 99 97 108 120 119 124 128 129 121 124 122 107 94 102 102 106 114 110 110 109 93 93 114 107 119 109 119 133 117 121 113 117 118 111 103 119 140 102 95 114 109 129 133 
114 104 105 106 91 106 120 113 120 97 95 106 91 85 86 73 77 66 93 92 82 91 81 84 96 98 116 101 116 115 111 102 96 87 99 101 92 96 95 95 82 73 73 73 78 71 61 58 68 74 74 75 102 102 112 108 116 105 108 106 93 83 90 79 91 92 98 93 78 76 72 88 87 92 91 113 126 113 117 117 117 115 114 117 114 134 102 94 111 112 119 129 
104 108 110 108 104 99 113 119 105 95 92 90 93 78 65 64 76 61 73 76 83 79 76 76 82 89 104 107 103 109 107 116 91 92 88 83 73 73 71 60 63 57 56 42 50 47 40 41 43 58 55 54 80 98 93 102 100 101 95 84 84 81 87 78 78 83 88 72 70 71 68 70 63 81 97 104 117 105 107 113 123 121 123 121 118 137 115 81 105 115 106 122 
101 102 106 106 105 116 109 107 101 94 90 89 78 76 67 66 67 61 63 74 74 72 84 79 75 93 93 98 108 109 116 114 108 95 96 81 57 59 59 47 55 47 58 42 33 43 40 43 32 43 51 59 70 86 97 104 93 101 92 88 84 96 92 90 84 86 85 72 57 64 61 60 60 71 83 96 102 104 96 105 112 117 109 124 114 135 124 87 96 114 101 115 
98 100 100 105 110 113 109 104 90 90 96 88 77 74 66 78 73 71 68 78 81 82 82 85 87 94 98 96 105 111 112 124 118 106 103 96 69 69 72 72 71 54 52 68 44 69 62 56 54 61 67 71 93 117 114 111 112 116 104 110 113 111 108 106 100 89 86 80 66 67 67 61 62 64 68 86 104 105 104 105 113 114 113 115 114 127 125 93 82 101 104 120 
98 94 108 108 105 110 111 102 93 87 90 91 90 67 72 88 81 82 80 83 72 82 79 88 96 105 114 112 126 121 113 123 128 124 109 110 91 84 93 86 79 69 70 83 73 77 88 72 79 94 92 96 114 136 144 136 139 141 136 134 125 131 128 119 115 110 89 84 76 67 66 74 68 73 72 83 98 113 105 110 112 111 111 113 115 123 117 101 92 94 100 107 
104 107 99 98 109 116 108 101 95 97 90 90 87 76 77 94 92 93 91 86 83 81 92 96 106 118 121 119 121 121 128 125 135 134 121 114 113 99 104 100 85 96 95 102 91 86 107 100 110 126 119 120 124 133 153 149 154 166 151 155 141 130 139 126 115 117 99 85 77 72 72 80 70 66 75 84 97 108 110 121 108 116 110 112 105 119 119 102 94 101 97 107 
106 106 101 100 107 111 104 100 98 93 88 87 87 79 83 105 97 100 87 93 90 81 90 96 106 103 122 121 129 135 149 125 127 125 121 110 116 101 109 107 91 106 111 107 103 105 118 118 117 138 131 136 137 142 152 146 152 170 157 151 151 139 135 142 125 110 99 86 74 67 64 77 70 63 73 79 88 104 107 116 118 116 108 112 107 108 116 105 95 105 91 107 
98 108 109 103 113 102 103 99 102 93 82 91 94 80 83 105 109 96 99 100 89 92 93 103 101 103 122 134 133 143 149 130 119 126 117 116 110 97 102 98 96 103 104 101 105 100 115 114 112 128 123 129 145 141 154 157 162 168 167 155 149 142 136 145 137 117 109 93 84 60 62 75 70 70 70 76 78 95 105 110 118 122 123 110 112 109 120 97 96 108 87 95 
106 109 110 106 116 104 100 100 100 96 87 87 77 79 83 110 117 96 105 98 95 96 102 108 101 110 123 130 130 135 139 129 121 124 114 109 104 92 98 94 89 99 91 98 94 95 110 104 99 130 129 121 141 142 152 156 161 165 171 161 150 146 141 146 142 124 115 105 87 74 64 68 70 67 73 75 72 84 97 104 112 121 127 126 120 111 114 113 88 105 90 96 
111 106 103 110 111 106 105 107 102 97 84 71 68 78 86 110 126 106 110 105 102 104 111 116 107 118 129 125 132 135 138 122 123 120 110 100 98 100 96 92 89 101 96 101 100 96 115 101 99 122 130 123 136 139 149 155 159 163 165 169 155 151 147 149 143 129 117 110 100 88 76 75 69 67 67 74 71 80 93 102 108 120 129 127 135 114 105 127 102 94 93 94 
103 113 102 111 104 108 111 106 97 87 78 67 69 86 87 115 123 100 121 109 116 116 120 119 113 127 127 129 134 135 133 119 124 122 113 104 102 109 101 100 96 104 103 101 102 101 115 105 104 122 122 122 132 140 144 149 159 158 159 165 159 153 152 147 148 133 124 117 112 100 89 84 79 74 71 68 74 77 86 99 104 112 131 118 135 125 101 115 129 102 93 87 
103 116 109 109 104 103 103 99 97 80 84 74 74 88 91 115 126 112 121 116 127 115 121 122 123 124 124 129 135 134 131 123 128 127 118 109 108 116 104 108 98 103 111 102 104 106 114 108 111 121 118 122 126 136 138 142 154 159 154 159 164 156 150 151 148 140 135 123 121 114 100 94 89 85 86 69 80 69 75 85 96 108 121 124 126 113 122 106 130 126 92 88 
101 113 114 114 114 101 95 90 90 84 89 79 80 92 99 115 135 119 126 130 130 122 128 125 118 121 122 137 140 133 133 126 125 129 124 115 109 120 107 108 106 105 111 107 104 111 114 110 114 121 122 121 123 132 136 140 147 156 151 153 161 160 155 150 146 146 144 136 133 120 113 107 103 98 91 80 83 74 81 75 80 97 112 129 112 112 120 113 115 117 112 76 
104 107 111 115 118 104 83 89 86 87 91 82 83 97 100 131 141 124 135 137 133 127 132 117 120 127 127 139 132 132 129 130 127 127 125 120 114 118 117 111 112 108 112 114 109 115 116 113 118 118 123 122 125 127 134 138 140 147 149 148 157 162 155 155 153 152 150 146 141 132 120 119 116 114 99 90 87 84 74 80 72 86 107 123 113 106 116 125 108 104 106 94 
106 107 110 115 109 92 81 91 83 85 88 86 86 98 116 144 142 137 141 143 139 126 132 119 118 124 126 130 130 129 126 126 129 125 127 124 121 123 122 116 116 113 112 117 115 116 116 115 117 121 121 127 126 130 132 134 138 140 142 141 149 155 153 157 158 156 150 157 148 135 130 126 125 126 113 103 93 92 83 73 75 76 100 112 108 112 109 126 108 98 103 86 
100 110 108 114 114 85 78 85 88 82 84 86 90 106 125 156 148 151 140 149 143 125 125 121 114 119 122 125 127 122 126 122 127 126 129 122 124 121 121 118 118 113 115 118 117 117 118 119 120 122 123 128 128 130 133 131 137 141 138 135 143 145 152 151 158 163 157 159 155 149 135 137 137 133 131 114 106 97 91 76 73 75 96 109 103 110 113 115 112 95 102 85 
104 111 106 119 110 81 71 81 86 75 78 89 92 112 134 159 158 155 146 153 141 130 118 121 106 110 117 122 122 122 124 122 121 125 122 121 126 123 121 118 117 116 116 120 119 118 122 121 121 123 125 125 130 130 132 132 133 136 135 134 137 137 143 146 155 163 165 158 162 154 147 138 141 139 135 123 116 104 95 85 74 71 93 106 106 110 109 105 118 95 102 93 
100 108 111 110 111 74 78 85 82 73 77 90 102 120 145 167 166 155 146 159 140 123 114 116 103 94 110 111 107 108 109 109 106 111 111 112 118 116 118 115 116 118 118 120 121 119 123 125 120 124 126 128 128 131 130 128 131 128 125 130 130 121 125 139 142 150 155 153 154 157 149 146 138 144 137 134 120 115 101 90 77 75 87 104 105 112 117 99 110 103 97 102 
99 107 103 100 113 80 74 79 82 68 77 89 110 124 149 164 168 162 152 150 137 116 109 109 104 89 99 102 100 98 99 101 98 100 100 104 110 107 111 112 115 121 120 121 124 122 122 128 123 124 128 128 129 130 129 125 121 121 115 114 120 119 117 126 137 137 142 146 151 152 145 143 140 141 141 134 124 122 102 92 76 74 90 101 110 110 113 103 105 106 103 105 
101 111 98 101 98 82 75 69 80 67 76 89 111 133 155 163 171 168 154 142 120 121 108 101 107 98 99 102 96 95 98 96 98 97 97 101 106 105 103 107 113 118 120 122 122 125 123 125 124 125 123 130 127 129 127 121 113 113 110 108 114 115 116 116 127 131 142 139 144 143 149 135 138 134 133 136 131 122 113 89 80 72 90 105 112 117 105 107 103 102 102 97 
96 111 105 102 105 80 77 74 69 66 77 89 113 139 155 163 171 166 143 137 126 120 111 110 112 110 104 104 105 101 99 101 99 101 98 103 105 102 105 104 109 117 122 121 122 123 128 121 119 125 124 125 124 125 123 114 113 107 107 104 109 109 114 117 123 129 142 143 141 144 145 137 136 130 124 131 132 121 114 96 76 72 93 111 113 118 104 97 105 95 104 95 
99 113 106 103 110 83 78 72 68 68 71 88 113 142 155 164 169 157 142 144 142 130 127 126 122 125 118 113 112 113 109 106 105 101 105 106 107 102 108 105 108 116 118 121 122 124 124 121 119 120 120 122 120 118 113 112 111 107 103 107 112 115 119 122 126 132 146 154 148 152 151 148 139 136 122 119 128 127 113 92 79 69 91 115 116 118 105 90 101 97 111 99 
95 106 114 102 107 88 74 70 69 70 70 88 118 136 159 160 155 158 153 150 147 144 134 130 127 128 132 121 119 115 119 113 115 109 107 111 110 106 106 106 105 112 116 116 118 119 120 120 116 119 118 117 119 112 110 107 109 108 108 112 110 119 121 128 137 140 147 156 156 156 156 155 149 140 133 118 116 119 115 88 75 65 101 117 111 119 106 80 107 99 113 100 
101 104 110 107 113 94 73 67 67 68 72 96 116 137 161 164 154 158 156 150 145 133 127 132 122 120 121 126 116 112 115 112 112 111 110 112 110 107 108 105 103 110 114 114 117 117 116 118 117 117 116 117 114 112 106 104 105 110 111 114 114 119 124 129 135 141 145 150 157 159 157 148 149 143 140 129 112 115 112 92 73 68 102 121 111 114 103 84 99 104 110 108 
109 104 99 105 119 100 74 65 70 70 75 93 119 138 157 156 164 155 146 147 138 127 124 116 119 114 110 117 118 112 108 108 108 106 102 109 110 108 109 109 105 108 111 113 118 119 117 117 117 117 115 116 112 108 104 105 105 109 112 114 111 117 118 127 128 135 138 144 148 156 151 148 143 145 135 135 117 111 109 93 71 72 111 124 111 110 103 80 88 100 109 112 
98 106 103 105 116 104 79 73 76 76 80 97 121 139 157 151 157 152 142 136 132 124 117 114 112 111 104 97 102 106 100 103 104 106 106 105 110 109 112 114 111 106 108 116 118 121 119 121 118 118 118 115 111 108 109 106 109 107 111 112 113 118 117 122 127 129 139 139 140 146 147 147 149 143 139 138 133 108 113 95 79 73 112 125 108 111 98 78 77 88 111 108 
88 102 105 110 115 104 93 94 92 84 85 109 128 148 147 149 149 145 140 127 120 117 103 110 101 97 99 92 88 93 97 101 106 106 108 114 117 111 112 118 117 112 115 115 120 123 121 121 122 122 119 117 110 110 113 109 109 108 110 114 117 115 114 117 117 125 131 133 140 145 143 145 152 147 141 142 139 118 112 103 83 80 114 124 110 106 102 78 73 82 92 98 
92 93 101 106 107 111 108 113 107 99 105 125 148 159 151 139 140 132 126 121 107 106 93 86 86 92 93 88 91 108 123 117 119 134 127 122 135 120 121 129 127 122 122 122 127 129 131 126 129 130 129 121 113 114 116 112 109 112 111 111 111 109 114 111 107 113 125 127 131 144 158 157 159 168 161 164 159 146 131 126 101 90 120 122 110 99 102 74 78 71 78 88 
93 95 101 105 104 112 118 116 108 114 123 152 177 180 166 154 133 111 110 104 96 87 77 68 73 83 89 87 109 123 148 149 134 153 168 162 155 154 154 154 159 151 151 150 152 149 147 147 141 143 139 128 122 122 119 116 109 109 110 117 115 106 115 124 119 112 128 140 140 151 165 180 179 181 182 182 181 168 152 142 123 96 120 124 108 97 102 72 82 73 64 90 
98 89 103 104 111 112 111 118 112 116 143 172 190 192 177 168 136 115 90 78 70 60 60 54 65 88 118 115 128 134 134 147 145 160 184 191 179 178 184 196 196 192 192 188 196 188 182 175 172 162 154 141 129 130 125 121 106 105 115 125 109 104 105 130 123 116 130 159 167 170 175 182 197 192 191 190 187 183 167 156 136 111 117 125 114 94 88 68 87 68 60 96 
93 92 97 104 111 104 92 96 94 110 146 175 190 185 178 160 135 109 87 72 50 33 34 44 70 112 128 113 117 121 132 136 143 166 179 186 195 200 208 224 228 235 236 234 235 237 230 215 205 198 187 164 150 144 139 136 123 117 113 112 96 92 99 95 110 116 136 164 170 168 164 164 174 188 184 182 175 172 157 146 140 118 120 135 116 88 82 69 82 61 75 90 
95 96 97 103 114 93 87 86 79 101 141 170 181 168 157 142 111 84 82 71 62 36 35 56 64 77 72 58 55 68 77 96 107 127 146 154 172 193 208 225 242 247 251 255 244 247 244 234 219 213 199 178 159 148 143 131 126 117 105 95 76 67 73 71 78 98 118 133 130 131 130 132 133 148 161 157 145 146 127 120 126 120 126 138 118 79 75 69 70 63 75 84 
92 96 92 99 112 96 90 87 80 113 158 182 175 150 142 116 89 83 75 61 71 81 77 74 55 38 17 6 5 16 24 37 44 63 81 104 132 155 183 192 209 226 242 240 236 237 236 227 220 206 193 166 146 136 126 116 102 107 101 82 54 50 49 58 72 82 90 95 104 100 103 101 112 105 123 137 138 132 121 99 99 107 137 149 115 80 72 68 66 64 72 86 
81 89 88 102 108 90 99 88 89 130 183 198 173 163 138 115 106 95 84 82 107 114 93 66 45 22 8 0 2 11 14 28 39 48 74 102 123 140 175 189 203 210 225 228 227 227 223 214 203 185 168 143 129 108 94 78 73 73 80 70 61 51 51 60 68 70 66 78 89 101 104 116 126 127 121 141 156 153 139 109 78 85 137 149 119 80 73 66 70 64 72 87 
83 84 84 98 103 89 96 89 97 148 196 203 171 155 142 121 114 102 114 135 145 137 126 96 71 51 43 33 37 40 48 60 72 88 114 141 160 167 188 200 208 215 219 224 222 213 207 189 180 160 138 116 106 80 57 50 46 42 42 56 74 91 87 86 83 82 82 102 115 141 147 161 168 181 165 146 158 182 168 143 94 74 131 146 127 84 71 64 71 59 70 92 
85 82 88 101 89 83 93 81 102 167 201 192 145 131 129 114 112 89 109 148 143 125 109 99 84 70 70 65 76 87 99 103 109 123 134 153 174 188 198 208 216 225 223 225 222 226 214 191 183 168 143 121 101 71 47 48 46 33 31 40 62 104 133 137 123 122 119 127 125 157 177 181 186 202 196 172 165 182 184 158 117 67 123 146 130 95 79 70 68 58 74 85 
69 83 82 100 87 80 78 81 108 176 199 168 126 110 112 106 103 98 85 131 129 111 98 92 74 62 62 62 66 80 94 107 102 110 114 137 164 185 200 205 215 231 236 222 236 228 235 210 193 177 154 136 117 83 59 53 50 46 46 56 74 112 135 147 138 126 121 110 105 121 159 161 177 192 198 179 171 180 182 160 123 82 109 148 121 82 86 89 60 52 75 79 
60 71 75 88 88 77 72 77 117 178 199 165 126 90 97 101 94 96 100 106 105 96 84 88 84 70 52 41 61 80 81 84 72 67 82 100 157 173 188 203 229 213 236 192 227 243 234 225 206 196 170 134 108 86 67 54 41 38 45 46 61 89 107 118 124 112 82 68 87 110 129 139 167 183 186 160 174 189 187 155 127 82 111 143 117 81 64 78 71 72 76 71 
58 54 66 88 93 73 68 74 111 183 201 171 131 91 81 103 98 91 84 97 78 71 78 88 100 58 57 43 87 118 58 37 52 50 74 72 132 176 189 198 206 220 217 186 184 232 243 226 207 195 180 143 112 83 59 48 42 46 55 35 48 96 86 97 115 99 47 71 92 105 104 128 158 169 149 161 176 188 188 155 120 82 110 144 117 79 67 67 58 67 91 81 
72 56 62 101 91 68 71 68 107 188 216 174 146 109 79 98 100 84 76 64 60 66 68 86 84 48 57 55 81 121 66 32 76 109 62 76 104 175 192 210 197 200 192 174 169 203 235 221 214 188 172 139 114 99 64 37 35 56 62 38 27 83 111 93 109 99 65 73 96 98 119 117 156 160 125 152 191 186 172 153 116 80 103 147 131 68 53 58 42 53 75 92 
75 51 71 113 87 70 72 69 109 175 212 190 168 138 110 97 83 61 55 47 49 60 48 58 70 39 38 57 88 98 65 64 98 112 89 70 109 162 176 173 169 168 179 164 151 170 208 207 202 185 160 137 113 80 73 67 47 61 72 46 36 76 127 104 95 105 96 78 75 86 93 113 140 139 138 153 178 179 158 140 113 77 101 140 135 66 32 50 30 32 74 76 
70 51 89 112 80 67 71 66 109 173 202 186 168 157 145 130 119 88 76 63 52 54 53 57 67 47 30 48 80 87 69 84 110 115 110 98 123 155 158 158 149 174 178 160 150 152 186 210 190 166 149 126 109 79 56 65 66 81 71 62 65 62 85 96 101 131 121 100 78 75 75 115 141 142 147 150 157 163 148 137 113 78 99 135 122 68 41 44 25 35 75 70 
71 69 97 111 75 67 69 62 100 165 198 181 169 150 149 139 131 113 103 81 67 52 49 50 55 61 54 56 70 76 96 103 104 109 105 119 136 152 157 160 161 171 182 170 166 158 160 174 162 126 117 110 111 96 64 67 60 66 79 81 69 72 90 79 90 133 130 110 99 91 96 112 130 132 143 153 165 158 145 137 114 84 90 143 106 70 41 50 23 48 71 63 
76 78 90 107 75 67 62 57 95 150 191 177 167 155 147 143 132 122 108 94 80 64 56 49 39 46 54 58 68 80 96 101 113 120 118 133 143 153 165 165 163 173 175 172 177 164 149 146 142 114 104 109 110 105 75 55 53 55 63 84 71 68 95 87 94 113 115 108 106 93 100 117 126 138 153 163 164 159 144 133 117 72 80 141 107 69 42 45 25 51 68 59 
67 96 82 96 77 58 72 52 85 137 181 172 160 153 144 137 130 121 106 96 83 73 80 67 53 52 51 55 59 71 85 94 106 117 122 130 142 146 157 167 166 162 161 146 144 138 133 134 130 114 94 95 94 88 75 66 61 60 66 75 74 69 105 113 111 108 106 108 109 115 121 140 145 157 161 165 164 155 143 126 113 66 69 139 111 65 43 37 46 60 63 62 
52 96 87 107 78 55 77 57 77 124 165 166 153 146 141 132 126 117 110 99 90 87 91 76 60 58 56 62 67 76 89 99 111 121 128 140 147 145 150 149 152 139 128 114 109 116 119 119 117 99 82 84 88 84 67 59 63 59 67 81 79 67 89 107 106 107 110 108 113 117 132 139 148 152 159 157 153 146 139 122 107 54 65 131 119 51 45 32 68 66 58 66 
65 82 107 108 68 43 69 72 71 113 152 162 148 145 138 131 128 121 111 103 97 105 104 84 72 66 63 64 68 76 85 96 102 110 111 124 126 126 120 117 113 112 99 96 100 106 106 107 106 88 69 70 80 82 73 62 63 66 75 90 90 80 96 111 105 105 107 108 107 117 126 136 140 151 152 151 142 137 124 110 94 50 60 140 123 46 43 49 76 66 54 68 
70 88 113 103 48 39 61 88 66 103 141 156 143 134 136 128 123 125 118 114 114 121 118 97 87 84 82 82 89 93 95 96 105 108 113 115 118 115 107 98 95 95 92 97 102 103 101 100 101 85 68 64 73 74 72 73 70 68 72 91 97 95 100 118 109 105 100 103 102 112 119 128 130 140 140 144 132 127 121 98 85 45 74 144 129 41 41 76 71 66 57 58 
85 89 112 91 44 25 60 90 60 88 131 149 136 133 131 134 128 123 121 122 124 133 124 111 103 101 101 101 105 107 107 107 111 114 113 112 114 109 106 96 91 86 83 91 97 102 97 101 102 90 81 77 72 73 67 77 76 74 78 97 103 103 116 133 123 116 111 113 113 117 122 128 130 137 138 138 130 115 113 92 73 56 88 140 111 64 48 86 67 68 61 60 
89 92 105 75 37 21 54 89 53 79 115 146 137 130 134 132 131 128 125 125 132 139 127 115 112 108 109 109 113 113 113 113 114 116 111 113 110 111 108 103 96 84 82 86 88 87 89 91 92 84 82 76 78 77 74 75 79 81 91 103 107 111 123 138 139 131 127 123 124 127 127 130 126 137 134 135 124 105 114 92 64 53 89 138 99 89 63 84 76 59 70 61 
84 87 87 75 30 23 53 97 57 69 106 137 134 131 134 135 135 127 127 129 140 140 126 115 113 112 111 114 117 116 114 114 113 113 110 112 109 106 109 107 102 91 86 92 91 90 88 93 91 81 80 82 90 87 84 84 88 88 100 114 120 125 138 152 153 145 140 136 135 136 136 132 132 136 130 129 119 99 118 78 53 47 96 142 121 80 77 94 79 72 65 67 
89 83 67 75 39 16 50 103 74 64 94 128 128 125 133 138 136 132 129 138 144 139 126 117 113 113 114 115 117 118 112 115 113 111 109 110 109 108 108 108 103 93 91 98 99 97 100 100 97 85 86 87 91 87 84 87 91 94 100 115 125 132 142 157 166 154 146 143 142 144 138 134 132 130 128 123 114 103 96 66 50 56 107 135 123 70 99 104 89 73 68 74 
98 87 54 65 59 6 28 88 84 59 85 117 125 117 126 136 138 138 136 141 146 134 121 116 114 115 114 115 113 118 114 114 112 111 109 109 107 107 111 108 101 96 97 104 108 110 117 117 106 91 89 92 89 84 86 86 89 90 100 110 127 133 143 154 168 169 156 149 149 147 140 134 129 127 125 121 113 101 72 59 60 69 120 118 105 101 93 117 86 77 83 71 
96 91 54 68 57 6 13 50 78 63 73 113 119 112 120 131 135 140 142 150 146 128 121 116 114 112 114 114 112 116 115 113 114 110 111 110 109 107 108 108 103 103 106 115 122 130 133 127 106 95 92 89 89 86 84 86 83 88 96 106 125 134 147 154 167 177 166 158 154 150 141 136 129 128 130 115 117 99 66 63 68 82 117 105 115 134 84 106 100 74 86 80 
90 82 91 87 54 28 21 35 45 64 69 103 113 107 115 131 136 139 144 153 137 127 121 117 115 111 114 108 113 112 115 113 115 112 115 115 111 114 113 114 107 111 123 130 134 134 141 122 105 94 88 84 85 83 82 86 83 85 91 100 119 136 150 153 160 177 176 161 159 153 141 136 131 127 130 118 111 92 63 69 69 85 118 101 144 130 96 92 102 88 83 80 
93 71 100 110 83 36 53 39 36 54 69 95 111 103 110 127 136 140 146 145 134 125 120 118 114 109 110 108 106 112 113 112 111 109 114 121 114 122 119 116 113 126 137 143 139 131 134 122 100 93 85 85 82 77 80 85 86 90 86 97 117 130 149 156 161 167 177 169 165 151 143 138 129 127 125 118 101 78 65 65 63 90 120 129 139 123 106 93 85 94 94 81 
83 74 96 102 121 72 54 78 58 60 76 89 111 97 107 117 132 140 144 140 131 123 123 116 110 109 106 107 106 107 111 109 106 103 109 115 122 133 131 122 123 143 152 152 143 125 124 126 102 96 88 83 85 78 76 84 86 94 95 96 114 129 140 159 163 162 180 173 165 153 143 137 125 129 129 116 85 63 66 55 55 108 133 140 121 116 115 101 78 88 95 89 
76 80 91 100 121 94 58 79 94 80 103 107 112 96 101 115 129 139 140 138 129 124 122 115 108 107 102 102 105 103 109 106 101 104 108 113 130 144 144 130 135 153 151 147 148 124 116 119 115 105 97 97 94 89 81 87 89 90 98 97 114 126 136 157 164 167 180 176 166 155 144 135 134 132 134 107 72 55 62 49 67 158 141 117 110 121 111 101 89 81 94 93 
83 74 92 100 114 104 61 63 77 87 99 118 108 98 93 114 120 136 135 131 125 120 122 115 108 108 99 102 100 101 107 105 104 108 116 122 140 141 145 135 138 148 143 136 131 126 121 105 111 120 118 122 127 108 97 97 96 93 98 105 116 130 142 156 169 174 185 179 166 155 148 133 134 136 127 101 68 58 58 60 126 169 121 104 112 119 110 103 95 83 87 98 
84 73 85 100 109 106 74 69 72 64 73 119 121 100 96 108 120 131 133 127 122 120 122 113 110 108 102 103 102 106 108 101 107 116 125 128 143 140 141 137 135 127 117 107 99 108 115 117 104 116 117 117 117 116 111 109 102 96 96 111 134 140 152 158 176 176 183 177 168 156 147 135 133 129 116 96 85 82 79 94 144 149 112 102 114 111 119 95 104 86 86 90 
86 80 83 95 108 105 92 74 78 69 72 110 127 108 98 108 113 118 123 131 125 122 119 114 112 109 109 113 119 126 132 127 125 135 142 131 130 135 142 135 125 110 91 78 71 73 82 93 99 103 107 105 108 105 104 103 96 96 107 133 147 152 157 161 173 173 173 174 166 154 147 137 127 117 124 126 120 98 79 90 151 142 110 105 112 113 116 102 94 97 84 87 
84 82 82 99 105 103 104 81 77 76 76 101 138 110 99 103 105 104 110 121 127 123 125 120 121 120 125 134 138 148 157 160 160 154 149 142 139 131 132 130 115 104 86 65 55 55 58 70 80 81 80 85 93 99 96 99 107 115 136 152 161 155 148 151 162 171 164 165 166 154 149 138 116 119 141 136 124 95 76 110 155 136 106 103 113 117 115 111 90 103 86 89 
85 75 91 99 103 98 117 83 79 77 77 96 140 114 102 94 98 96 101 109 116 128 133 133 134 138 150 150 153 156 160 165 161 154 149 149 155 132 108 109 108 104 88 69 61 62 59 61 63 63 61 66 74 98 107 123 137 141 156 160 152 152 147 148 156 161 162 156 162 157 146 134 115 126 149 131 120 94 78 129 148 136 105 108 110 117 118 113 94 101 92 91 
81 79 91 103 107 97 122 86 77 87 71 90 132 127 101 97 96 97 94 99 105 118 130 137 141 148 151 152 147 150 154 155 160 155 160 154 149 131 112 99 89 88 81 68 63 65 59 55 50 43 41 56 82 107 122 138 145 150 147 148 143 147 147 147 148 150 157 153 156 155 144 129 119 135 146 128 119 83 91 139 150 127 108 110 108 116 115 116 98 106 93 89 
76 80 96 105 107 97 120 95 68 89 74 77 123 133 106 101 98 92 90 92 95 106 121 128 135 141 143 146 142 142 147 156 161 163 163 152 145 135 123 107 93 77 73 67 55 59 52 46 39 41 57 68 86 112 130 139 141 147 144 142 145 141 146 143 141 143 150 152 148 155 143 119 113 145 143 126 106 78 109 146 143 121 106 106 108 114 110 112 106 101 100 90 
83 87 102 111 103 98 117 100 66 96 72 66 105 139 116 111 105 96 86 91 91 96 110 124 125 131 131 135 138 144 147 161 168 166 164 158 151 142 135 116 97 82 72 69 63 57 54 49 45 57 74 89 94 114 128 138 135 140 141 137 136 133 137 139 133 137 144 154 146 154 142 115 120 150 136 122 92 84 120 148 139 112 107 107 107 112 114 105 114 102 96 100 
87 97 108 111 104 106 108 99 71 98 67 57 82 134 129 121 114 99 91 90 91 95 101 113 115 118 117 131 138 137 147 152 161 165 165 163 156 156 142 124 103 92 79 81 76 74 68 65 66 74 87 94 106 108 121 129 129 129 133 128 125 128 124 129 132 136 140 152 153 153 132 111 126 146 133 112 75 105 136 140 134 107 111 109 109 113 112 109 111 112 97 99 
96 106 112 110 110 103 100 93 80 98 67 45 68 114 129 131 127 107 101 93 91 91 94 103 106 102 107 120 126 118 125 128 145 158 167 167 163 161 163 154 132 118 105 102 104 102 97 95 97 103 104 110 118 114 109 118 123 127 126 128 130 122 124 129 136 146 146 145 153 145 127 111 130 143 129 94 78 117 146 135 120 107 111 109 107 116 108 104 112 111 109 96 
109 113 113 113 108 97 96 91 94 95 67 34 62 83 121 125 122 115 119 111 103 92 95 102 96 89 96 105 111 110 99 101 119 138 147 146 149 154 155 173 172 169 153 142 144 148 146 133 132 141 131 133 130 129 123 120 133 139 141 140 139 139 142 142 153 155 138 134 145 141 118 112 135 135 120 76 95 131 145 130 111 103 111 111 108 112 113 105 110 112 114 94 
116 114 119 114 93 95 100 89 96 111 59 34 54 66 94 116 116 105 114 130 123 113 114 117 110 103 93 91 103 103 95 99 100 104 106 103 106 116 129 146 152 166 178 170 176 177 160 152 150 149 142 137 132 130 137 125 147 149 146 145 148 157 158 159 148 134 129 124 139 136 113 118 138 133 96 78 118 136 140 117 104 107 112 106 107 116 112 106 110 105 114 100 
119 116 114 104 87 99 96 89 98 119 64 35 45 63 55 106 111 107 101 117 131 130 132 139 136 127 115 109 107 105 110 136 127 130 118 102 88 98 101 112 121 136 156 147 142 153 153 135 141 127 114 114 117 128 128 127 135 140 146 141 142 154 162 157 140 132 126 125 141 128 110 124 142 115 76 99 132 139 135 98 107 108 109 106 111 118 112 108 108 116 97 102 
117 113 107 104 86 101 97 98 106 122 82 31 36 57 40 76 115 109 101 104 114 118 124 142 151 143 142 142 142 134 128 140 151 145 139 132 121 116 108 110 113 110 103 113 108 115 129 116 121 109 96 100 111 125 114 112 120 118 139 147 150 144 161 149 143 137 128 125 140 117 106 134 133 91 79 122 139 134 113 104 107 106 108 107 113 116 113 108 109 112 95 97 
117 110 110 105 104 113 114 110 112 116 98 40 29 34 40 42 103 118 107 97 107 111 111 115 132 142 148 162 166 159 162 155 152 147 134 128 122 112 97 93 87 92 88 94 103 101 101 86 83 97 103 107 105 122 104 108 127 126 141 143 145 148 150 145 148 135 126 130 130 107 109 134 112 82 110 132 132 125 101 103 106 107 111 107 120 115 115 103 109 115 91 92 
109 117 100 110 107 118 116 112 116 124 94 66 32 22 29 35 80 112 114 107 101 109 113 107 111 117 130 145 156 151 153 149 137 126 118 112 107 99 90 85 73 70 75 86 91 93 100 100 89 83 98 110 110 126 127 137 152 147 145 150 155 146 149 145 140 130 126 129 112 102 109 124 98 103 126 132 125 108 107 108 108 107 116 113 121 115 116 104 114 117 93 85 
103 103 103 110 112 122 118 114 126 128 88 76 45 27 9 32 75 99 113 121 108 104 115 115 113 119 126 134 137 140 133 139 140 135 120 115 108 108 103 97 88 75 61 61 76 81 91 100 103 106 116 114 117 131 136 137 146 151 161 162 154 139 140 143 135 122 121 115 99 97 97 116 108 125 132 126 116 110 109 116 109 117 117 117 118 117 119 107 118 115 97 84 
105 93 101 106 114 120 122 119 125 125 86 70 67 28 3 20 67 93 99 120 120 113 114 119 120 125 131 132 142 139 140 133 133 135 129 118 110 104 112 107 106 96 90 77 78 84 98 103 116 119 124 129 135 142 150 148 158 164 165 152 137 131 139 136 131 116 110 103 90 91 97 119 129 136 133 111 114 115 118 118 117 118 120 120 122 121 116 113 116 111 97 84 
104 88 95 95 109 115 117 118 125 110 69 58 64 40 8 11 56 88 93 102 120 130 118 121 127 128 133 131 138 139 134 123 116 114 114 117 113 100 104 107 108 104 104 98 95 94 101 113 118 125 128 139 145 150 149 153 157 151 146 134 136 136 141 135 123 104 100 89 82 82 103 127 143 139 118 113 114 120 119 121 117 126 121 121 120 121 119 112 115 110 100 83 
89 88 89 85 91 104 110 108 121 88 60 60 50 51 19 11 45 80 85 92 106 122 138 128 129 130 135 130 132 131 132 122 114 106 103 104 104 103 94 86 87 92 92 95 97 96 100 107 110 119 131 140 141 142 142 143 142 139 136 136 144 142 139 125 103 88 84 79 78 77 121 136 139 123 114 115 120 121 126 122 124 129 121 116 126 118 119 110 112 117 94 83 
80 79 94 85 91 95 101 104 116 82 60 56 47 34 42 13 40 73 83 82 101 105 126 140 138 137 138 135 128 130 129 130 120 109 104 102 100 99 91 82 79 84 88 89 90 95 102 106 114 123 129 134 131 130 134 139 138 141 143 144 149 142 130 108 91 76 73 73 72 93 134 134 123 117 118 120 118 127 125 127 127 130 115 119 127 117 115 114 119 113 91 87 
77 79 85 83 91 93 112 111 108 82 68 54 56 41 46 38 43 72 81 79 84 92 103 119 134 144 141 140 136 130 131 129 124 115 100 94 90 94 88 84 81 83 87 89 92 95 103 109 116 122 130 127 127 131 143 143 151 154 149 148 141 124 114 93 83 65 56 70 92 114 130 127 119 118 122 118 125 123 129 126 128 122 118 120 127 113 110 115 119 109 91 91 
81 89 84 91 93 98 113 118 92 79 75 62 53 44 41 51 55 71 82 81 76 83 91 99 108 126 140 136 134 132 124 123 118 108 97 89 85 82 82 83 84 83 89 85 88 92 98 107 116 120 127 134 139 145 149 147 151 148 142 138 125 110 103 83 66 53 50 86 112 114 126 121 118 116 122 124 125 122 130 124 126 120 119 123 116 111 112 120 116 101 95 93 
78 87 87 89 98 105 116 108 85 74 79 62 51 37 44 50 67 78 82 83 76 71 82 86 92 106 115 128 125 124 121 122 118 108 101 93 88 83 78 78 73 73 77 77 86 89 99 109 120 125 133 137 143 143 143 142 142 136 133 124 111 96 85 69 51 39 70 111 115 119 124 117 116 118 121 120 122 122 127 124 118 120 117 120 113 108 114 120 108 99 100 83 
93 87 85 91 98 114 112 96 75 80 75 58 40 37 44 36 59 82 92 81 80 74 75 80 86 90 100 118 123 125 119 120 121 117 109 103 95 90 86 87 80 80 81 82 87 94 100 107 113 116 118 126 127 129 131 131 130 127 118 106 92 82 68 59 38 59 110 115 117 127 123 115 118 118 122 120 115 123 121 117 114 123 121 116 112 109 119 114 101 97 97 84 
108 91 97 103 104 112 109 77 77 77 73 56 41 38 29 46 61 80 98 90 82 79 77 74 80 82 92 104 114 125 124 123 125 126 125 113 107 102 106 100 99 95 94 97 98 103 108 104 108 109 112 125 119 120 121 116 116 112 101 89 73 71 60 47 49 100 115 120 127 129 118 118 120 115 120 118 117 121 113 114 113 123 118 113 113 117 118 107 93 90 90 82 
112 99 103 106 99 105 96 75 71 74 72 57 45 28 27 59 61 79 99 98 88 83 81 74 76 76 83 92 106 116 127 125 132 133 133 128 120 117 121 117 110 108 106 106 108 111 114 112 112 115 114 119 116 114 112 102 101 99 76 72 66 59 50 48 88 116 114 126 133 125 123 112 120 110 121 114 116 116 114 114 121 112 118 114 118 117 105 96 86 85 91 85 
103 95 104 98 91 98 82 66 65 78 76 55 34 21 40 54 62 76 94 109 94 94 87 77 82 81 79 88 95 109 115 124 132 137 143 140 132 129 129 125 120 116 119 114 116 119 116 119 120 120 120 119 113 104 98 95 86 76 68 71 60 54 55 78 115 112 117 139 132 126 117 116 113 114 114 113 115 111 118 115 122 115 117 116 117 109 90 89 85 92 88 86 
101 101 97 95 88 90 74 61 67 73 81 49 26 31 45 53 63 77 88 107 108 101 97 87 80 85 85 88 90 102 111 117 126 135 140 146 141 136 136 129 129 122 122 123 125 119 123 120 124 120 119 116 106 101 100 87 76 69 71 64 63 60 72 108 125 112 119 141 135 124 111 115 112 113 114 111 113 118 116 117 120 117 116 113 112 93 88 89 89 92 86 90 
