P2
# Imagen
92 112
255
161 160 162 159 161 162 161 158 163 161 151 146 145 148 148 141 138 123 110 94 95 95 88 75 63 50 35 35 34 25 22 25 28 25 29 26 24 28 32 31 27 34 34 33 31 33 33 30 33 36 39 39 39 45 44 49 55 55 54 57 60 61 75 94 92 101 125 133 134 137 138 138 138 150 153 156 156 153 154 155 155 157 154 154 152 154 157 154 153 152 156 154 
159 160 158 161 156 158 161 160 158 158 153 144 143 145 139 134 124 106 96 91 90 92 75 60 53 34 27 27 26 21 18 18 21 20 20 19 20 22 27 24 21 21 26 27 20 20 22 19 19 20 35 35 37 38 39 41 50 45 46 49 54 56 59 65 72 78 85 108 119 129 137 136 139 140 146 154 153 152 155 156 155 153 153 153 153 152 154 153 156 153 154 154 
157 156 154 156 163 154 155 158 156 150 145 136 137 138 132 121 109 94 87 92 85 74 61 49 39 27 21 23 22 20 18 15 21 21 14 17 15 22 23 16 18 20 18 22 18 16 18 17 18 17 23 34 34 37 36 35 39 42 39 39 48 47 52 54 56 62 70 74 88 106 122 130 132 137 136 148 149 154 151 155 155 151 153 155 153 153 153 155 156 153 155 153 
155 152 155 147 154 154 156 151 144 133 133 132 128 126 118 107 98 81 82 77 68 58 45 32 25 22 21 22 22 18 21 12 19 19 17 15 17 18 22 18 16 21 19 17 16 18 16 18 18 16 18 19 26 28 25 23 26 27 33 37 37 43 42 46 47 51 56 64 72 71 87 109 119 125 136 139 139 144 152 152 155 153 154 151 152 153 152 154 154 151 153 155 
159 157 151 151 145 148 149 141 133 135 126 122 115 106 102 87 82 71 71 66 58 49 29 23 20 19 23 20 25 17 22 14 17 19 16 15 14 19 21 20 15 21 19 20 17 18 24 16 20 19 19 17 22 22 23 20 19 16 16 25 25 33 39 39 37 45 48 53 65 66 73 77 100 109 119 131 137 134 140 151 151 153 152 151 150 151 153 155 152 155 155 151 
158 154 155 151 148 144 138 133 124 119 115 101 104 90 80 72 65 61 61 58 46 35 22 21 17 21 21 16 28 18 21 18 16 20 15 14 16 21 25 24 15 24 22 21 21 15 26 22 21 23 22 18 23 25 21 26 19 21 15 18 27 16 29 25 29 36 42 43 55 60 64 71 74 87 102 115 126 136 131 135 151 151 151 151 150 150 156 152 152 157 155 153 
157 153 150 149 148 142 132 123 115 107 105 93 85 69 66 59 57 57 51 42 32 24 21 21 20 23 20 17 31 22 20 22 16 22 17 16 17 18 26 27 20 21 28 23 22 21 24 28 25 24 22 24 29 28 26 24 26 21 24 17 29 21 22 20 18 21 35 25 41 50 61 57 64 81 85 94 115 125 131 134 136 152 151 149 151 150 154 155 151 151 153 150 
151 153 150 148 140 131 118 121 112 102 93 80 72 59 58 54 47 45 40 23 27 22 25 20 19 23 19 20 25 24 17 25 24 22 24 19 20 23 26 29 24 22 27 30 24 20 25 32 30 28 25 27 33 33 29 26 33 26 26 26 27 30 22 25 23 17 31 26 33 36 33 44 49 65 83 84 94 115 117 124 134 140 147 152 148 147 151 151 152 152 153 152 
153 145 147 138 126 119 119 116 105 93 81 60 61 57 47 47 41 32 30 25 29 21 30 23 18 23 23 23 28 22 20 26 26 24 28 22 21 26 32 30 27 28 24 36 31 28 27 33 35 33 29 26 33 42 32 29 36 34 36 32 27 32 32 24 31 22 26 26 33 36 38 28 29 39 60 80 86 100 114 114 118 130 138 148 146 150 148 150 153 153 151 152 
147 144 135 124 119 117 117 109 95 81 64 60 56 49 47 33 26 25 28 31 29 23 29 26 19 25 23 27 31 26 20 29 26 29 35 26 22 30 35 34 29 36 29 38 41 30 35 32 40 37 36 32 32 41 40 31 36 36 36 42 30 32 41 36 31 32 28 26 35 39 37 41 30 27 33 56 70 90 96 102 115 117 128 137 142 148 148 147 150 152 152 150 
141 132 123 116 117 114 105 93 83 64 59 54 45 35 33 28 23 25 26 28 31 25 33 27 23 28 22 31 38 32 21 34 30 30 39 30 28 35 37 39 34 38 40 37 44 40 42 37 39 36 44 35 37 35 41 40 38 40 37 43 35 30 49 40 36 28 34 32 33 41 40 36 46 28 24 44 50 59 85 89 93 118 114 125 133 139 148 149 151 150 152 150 
131 122 119 118 116 105 92 77 69 57 47 32 27 28 28 29 25 29 27 28 30 28 35 26 28 33 24 33 41 37 24 40 40 33 41 31 31 40 43 41 40 38 47 44 49 43 50 49 42 40 43 49 37 39 38 45 44 42 38 48 37 35 45 45 39 35 36 30 37 40 42 32 46 45 23 27 47 44 54 77 90 97 109 113 126 133 138 147 148 150 149 151 
125 121 115 115 107 95 80 67 56 38 26 24 25 29 30 29 28 30 30 29 31 29 32 28 33 37 28 36 43 40 27 41 45 40 43 36 34 43 45 41 45 40 44 47 51 44 45 58 51 44 43 55 43 40 42 47 46 48 38 42 47 36 47 44 41 41 35 34 36 38 44 39 35 54 42 23 36 41 50 52 65 90 95 106 116 131 132 135 145 150 149 149 
116 121 111 110 101 88 70 54 36 25 24 27 34 30 33 28 32 31 35 32 34 34 33 27 37 37 29 35 42 40 31 41 48 43 45 38 39 44 44 41 46 45 44 51 51 47 43 58 59 50 42 53 52 38 43 47 51 49 39 41 49 43 45 51 39 38 38 34 43 39 41 41 37 48 53 34 31 37 40 56 46 65 88 95 109 126 132 133 136 146 150 150 
118 114 106 99 96 75 52 32 27 30 23 33 40 35 33 32 34 31 38 36 38 38 36 33 41 38 33 38 41 39 33 42 53 39 47 40 43 46 46 42 45 49 49 56 54 52 48 52 58 53 47 50 50 45 40 51 49 45 44 44 46 48 43 52 43 42 36 41 44 43 39 42 39 40 57 49 29 36 35 45 53 47 69 77 106 113 131 133 133 132 148 149 
116 118 106 99 88 54 32 27 30 32 27 33 38 40 36 36 38 35 39 41 37 37 37 35 42 40 38 40 46 39 35 43 54 44 45 41 45 48 50 48 47 49 55 54 57 56 55 53 54 58 49 54 43 54 41 49 51 44 50 50 48 44 43 49 46 44 40 40 40 49 38 42 39 38 52 54 41 30 40 38 52 47 60 69 77 106 125 129 130 131 138 146 
118 118 107 95 66 36 32 30 32 36 33 33 38 41 40 40 40 41 40 43 43 41 40 38 39 46 43 41 45 41 41 41 56 48 45 44 48 48 48 52 48 50 55 54 55 56 54 56 53 62 50 59 51 55 49 50 56 47 49 52 44 46 47 53 45 44 35 39 41 45 49 41 38 38 50 48 45 41 40 40 44 56 51 62 66 85 109 127 130 133 133 142 
116 119 102 76 46 33 33 36 34 37 40 36 37 42 39 48 42 43 41 40 42 45 41 42 40 50 49 40 48 44 49 46 53 57 47 44 54 52 48 52 53 48 56 58 52 56 58 61 50 62 59 57 57 64 52 47 57 51 52 52 49 49 56 51 46 45 37 36 42 45 48 46 42 42 47 45 47 48 35 43 43 53 50 58 69 79 91 114 128 134 133 135 
109 111 86 56 45 37 34 39 41 40 42 40 33 43 43 47 42 40 44 40 44 48 42 48 42 51 50 46 52 50 57 48 55 55 51 47 56 54 50 54 54 50 52 61 52 54 58 62 51 61 61 54 56 62 60 46 54 57 50 53 55 49 52 49 53 46 44 40 46 46 46 42 46 41 40 49 47 45 42 41 44 48 55 52 66 73 86 104 121 129 134 131 
107 92 70 44 43 42 38 41 43 42 43 42 38 42 45 48 43 42 49 45 45 48 45 50 45 48 49 48 52 53 53 52 52 52 50 47 52 55 47 55 51 54 48 58 52 48 52 58 52 50 62 53 55 58 62 46 51 54 51 49 58 52 46 47 50 48 49 45 46 45 43 44 48 44 37 46 46 42 43 42 48 43 56 43 55 67 81 90 115 121 131 129 
98 78 55 36 41 46 40 44 45 45 43 42 41 41 41 51 43 46 49 46 44 51 46 47 52 47 48 49 49 54 54 52 52 47 51 48 49 56 52 51 53 50 45 55 53 45 44 55 53 44 60 54 54 52 54 50 49 50 53 47 56 54 45 51 44 49 52 44 41 41 48 43 48 44 41 47 46 45 49 49 44 47 46 45 49 63 68 85 101 121 121 129 
87 65 39 31 38 47 41 45 45 46 43 38 42 44 45 54 48 46 50 47 45 54 51 50 54 49 51 49 50 55 50 53 51 51 48 53 51 52 51 49 52 50 49 54 56 51 43 50 54 47 55 58 54 52 52 53 53 52 52 53 50 53 50 49 47 46 51 46 38 38 46 46 40 48 44 47 43 47 56 50 48 51 44 45 46 60 53 73 92 117 123 122 
79 50 38 26 33 44 41 46 46 47 43 42 44 47 50 60 54 52 55 50 52 58 58 54 57 54 56 52 53 56 53 57 54 56 54 56 52 52 55 52 53 53 52 56 56 53 53 50 59 49 56 72 56 57 54 57 52 57 60 58 53 54 61 55 52 49 52 54 45 39 45 48 42 50 43 44 36 47 49 48 45 49 45 44 40 52 51 65 75 99 122 118 
71 43 35 30 29 39 38 46 48 46 49 44 50 53 50 66 62 54 59 66 60 61 63 57 62 58 63 62 60 65 58 66 59 68 64 64 61 62 63 64 61 66 59 64 64 60 64 65 68 64 67 76 72 63 60 60 61 60 65 68 64 64 67 64 58 61 54 58 53 47 45 49 48 52 44 44 44 46 48 41 43 48 47 41 40 43 56 59 74 77 115 118 
63 47 31 38 36 43 38 42 50 50 48 48 55 62 57 65 74 66 66 74 71 69 68 73 72 66 74 77 75 82 73 74 78 82 79 82 86 80 75 81 83 83 83 77 80 78 82 83 87 81 87 87 89 79 74 79 69 75 75 77 79 81 83 84 72 73 65 68 65 59 51 59 58 56 49 48 47 49 48 41 42 51 42 36 40 41 49 53 74 72 103 117 
58 43 37 36 42 46 47 43 46 50 55 54 63 67 69 74 78 85 80 78 84 83 83 87 87 83 89 92 97 92 94 93 100 106 112 106 113 107 97 102 106 108 107 106 99 104 104 105 107 102 99 113 102 98 98 95 91 92 90 92 98 102 96 103 92 93 84 83 80 75 67 72 72 63 57 50 50 46 46 48 47 45 45 42 41 41 43 53 66 78 92 110 
49 42 35 39 39 46 54 44 43 54 64 64 69 76 79 81 82 96 93 92 97 95 101 102 101 103 106 105 114 116 108 110 119 124 135 129 130 136 127 130 129 135 135 136 130 128 126 127 124 123 117 130 124 116 117 114 115 112 114 110 115 121 111 113 109 109 99 98 92 91 86 83 85 70 63 58 55 53 53 51 49 44 42 44 40 42 45 51 65 75 85 105 
46 45 37 39 44 49 52 51 48 58 67 67 76 84 88 91 91 103 101 99 107 107 112 117 113 116 122 124 127 132 134 133 131 138 147 152 149 152 156 156 153 156 154 147 153 150 150 145 149 150 139 146 142 143 135 137 135 139 134 133 137 136 133 129 122 126 117 117 111 111 94 93 91 83 73 64 61 56 55 48 48 45 39 37 35 33 46 48 63 77 81 100 
45 44 40 41 51 54 54 53 56 60 68 79 84 91 93 95 97 106 104 104 115 118 126 127 128 134 134 139 135 149 147 147 153 152 155 169 167 166 169 168 175 167 168 160 164 166 168 166 163 172 159 159 161 158 150 160 162 158 162 154 154 154 149 151 146 144 137 135 127 124 116 107 103 93 84 72 66 63 57 49 48 50 44 40 39 27 38 45 54 75 79 91 
44 41 47 45 50 55 51 54 59 65 72 88 88 96 97 100 108 111 111 110 116 128 137 140 145 150 144 145 144 158 160 163 171 176 170 183 182 180 187 184 192 188 186 176 182 180 181 181 183 178 175 171 176 174 168 175 181 172 176 170 179 172 172 173 163 161 158 150 144 137 132 120 117 103 94 81 72 62 58 50 51 49 48 40 39 31 35 39 46 72 80 83 
45 45 49 45 53 52 53 60 64 70 81 89 95 104 105 107 116 115 116 121 128 137 149 147 152 160 156 156 165 173 175 179 187 194 193 194 194 203 198 202 213 208 208 192 188 200 193 191 196 187 186 182 189 189 185 184 193 184 184 190 193 191 181 186 183 177 175 168 156 151 143 130 116 112 104 92 81 69 61 59 51 50 41 43 35 35 34 44 40 63 84 77 
46 47 47 50 53 52 58 61 67 78 85 94 96 107 113 110 118 122 123 134 137 145 150 147 157 171 177 175 182 186 184 183 197 206 212 206 207 214 216 214 221 226 219 212 202 212 209 203 210 208 208 204 202 208 200 198 201 198 198 197 200 196 191 196 188 189 186 172 164 153 146 132 121 115 110 100 89 74 66 62 54 49 45 42 39 33 37 37 45 59 82 76 
50 45 49 55 47 56 60 64 72 80 87 101 102 106 117 113 119 130 139 142 147 153 153 156 168 178 185 181 185 198 198 203 204 210 213 220 217 218 227 227 225 226 222 224 226 224 221 216 221 221 220 216 212 214 209 204 209 210 208 204 203 201 200 198 194 192 200 184 172 161 155 141 126 118 113 106 90 82 72 60 56 51 48 43 37 37 35 41 42 52 78 82 
49 52 45 49 51 53 61 66 75 86 93 106 107 112 120 121 118 138 147 147 152 158 164 164 180 180 183 186 196 202 207 205 212 215 218 225 226 220 229 229 229 233 230 231 229 226 226 218 221 221 225 225 222 216 216 214 213 216 210 208 208 208 205 203 202 193 204 194 183 169 157 153 135 126 111 106 98 85 77 62 57 52 47 47 39 33 35 38 49 49 73 80 
48 52 47 50 50 50 60 68 72 91 95 102 110 111 125 125 121 142 146 158 159 165 171 173 182 185 194 193 202 211 212 219 226 227 219 230 228 228 232 234 236 237 237 232 233 230 232 224 225 229 230 228 226 223 221 217 216 219 217 211 210 210 211 207 200 201 203 198 190 177 166 158 150 131 117 105 102 90 80 67 53 53 47 45 40 34 31 32 45 52 74 77 
44 48 47 51 51 51 58 68 78 86 92 104 109 116 129 126 128 148 151 162 169 175 176 182 187 193 199 204 211 217 222 222 228 230 231 235 230 233 234 239 241 239 240 241 235 237 237 231 225 232 234 235 233 230 225 224 221 221 222 220 215 212 210 212 202 204 202 203 194 183 177 167 157 146 127 114 105 98 80 69 53 49 42 42 42 33 29 35 41 47 71 78 
40 45 42 45 52 54 56 67 76 86 93 102 112 119 128 123 128 149 157 161 169 179 179 187 195 202 207 213 221 221 221 224 233 235 238 235 240 233 240 245 244 243 244 241 238 239 237 239 229 235 240 240 241 235 231 233 227 226 227 226 219 218 213 214 208 204 203 203 193 187 177 172 161 156 138 127 111 102 88 71 57 45 41 35 37 39 25 31 39 37 63 81 
34 40 42 44 48 54 58 65 75 81 92 101 110 123 124 124 134 153 157 162 169 183 182 196 202 207 209 218 223 225 229 229 236 240 240 242 242 239 238 244 244 242 245 244 241 239 241 241 238 237 241 240 242 239 234 232 229 228 227 227 222 219 215 215 211 208 206 201 198 191 184 176 167 159 148 134 123 108 91 74 60 47 40 31 32 35 27 28 36 39 53 76 
33 32 37 45 44 50 58 65 72 81 90 97 108 120 122 126 139 156 161 162 171 185 191 197 212 210 213 220 225 230 232 233 236 242 241 243 244 241 244 246 243 243 246 248 245 244 242 242 239 239 242 239 243 242 235 236 232 232 231 227 223 219 216 215 210 207 200 201 194 191 185 176 172 162 153 137 132 111 98 75 64 48 38 28 29 29 24 25 37 32 51 72 
39 26 38 40 42 48 56 64 67 77 84 93 106 117 122 127 145 157 166 164 175 184 196 203 212 213 217 224 228 232 234 236 240 240 241 243 242 241 244 247 243 242 245 247 246 242 243 242 243 240 240 242 241 243 239 237 234 232 233 231 224 224 221 212 209 208 201 194 196 190 180 177 172 161 154 139 134 119 101 81 66 52 35 28 28 23 20 17 42 31 45 73 
41 28 33 38 38 45 56 60 66 73 84 89 103 112 124 128 147 158 168 175 179 191 200 205 216 214 219 225 226 231 233 235 236 239 241 240 243 243 243 242 245 244 243 247 245 242 243 242 243 241 239 240 239 239 237 235 235 232 233 234 230 222 220 216 210 202 197 193 192 188 182 174 171 165 154 142 136 127 107 87 71 52 35 27 25 20 17 13 36 39 35 69 
44 27 33 32 34 43 52 58 65 70 82 86 95 109 123 134 148 157 168 177 186 193 198 203 208 217 222 228 228 226 234 233 236 235 240 241 238 242 240 243 241 241 244 245 242 244 242 242 240 240 240 237 236 239 235 234 234 234 229 230 229 222 219 212 207 199 194 195 189 182 175 172 167 164 156 143 132 127 112 92 78 57 38 26 21 17 14 16 24 39 32 61 
41 32 34 31 29 38 47 58 63 68 77 85 95 105 121 139 154 157 171 176 184 191 193 203 209 213 215 222 221 223 227 228 232 227 232 238 234 238 239 242 241 242 241 244 243 244 239 243 242 241 238 239 237 235 235 232 234 229 229 221 222 219 214 208 199 195 191 188 184 175 176 166 165 160 153 143 132 123 114 96 76 65 41 26 20 15 14 16 22 36 36 54 
40 32 32 35 26 36 47 52 60 65 73 82 92 105 120 141 157 161 171 181 182 189 197 202 201 212 211 216 215 220 221 222 225 226 225 227 230 235 234 236 241 239 239 240 241 242 242 237 239 237 236 236 238 234 232 230 225 220 223 220 213 212 209 202 190 191 189 180 175 171 167 163 154 153 149 141 133 122 113 97 78 65 45 25 17 12 10 18 23 31 34 56 
39 29 32 30 28 34 42 53 57 63 69 79 91 106 118 142 155 161 167 177 183 186 196 204 202 212 210 214 215 221 220 222 225 224 225 225 225 230 230 235 238 236 241 240 242 240 237 239 238 236 239 234 233 235 230 228 225 223 218 217 215 207 208 205 196 190 185 177 171 167 162 159 151 149 146 142 133 121 111 95 79 63 48 25 15 10 11 16 25 29 37 55 
37 26 26 27 24 34 40 49 55 62 66 79 89 107 122 139 154 161 165 172 186 193 200 205 210 215 219 219 224 224 224 224 228 227 229 230 230 230 233 233 236 236 241 240 241 240 238 235 238 237 236 234 235 231 230 222 225 222 213 214 210 210 205 201 196 189 188 180 171 168 162 160 155 148 140 138 131 122 112 93 79 69 45 25 12 11 12 17 25 29 37 50 
34 26 23 22 23 29 40 46 53 57 62 76 90 106 126 134 148 152 162 174 190 202 203 213 217 217 225 230 228 229 230 227 230 232 233 231 232 232 235 233 233 236 240 238 240 239 240 238 240 236 232 231 235 230 229 224 224 224 217 218 212 209 208 202 202 197 189 184 178 172 172 162 156 149 138 131 130 123 110 92 76 68 47 20 11 7 14 20 26 26 34 49 
36 30 17 20 21 28 39 46 50 53 62 74 90 104 129 134 138 148 171 183 192 202 206 215 218 224 223 232 232 235 234 233 237 236 236 234 234 236 237 238 235 239 239 240 239 240 239 240 238 237 238 238 236 231 227 223 227 222 223 222 222 214 213 209 204 206 199 192 188 180 177 170 163 159 143 129 125 124 112 93 77 70 44 20 9 5 13 25 24 27 40 48 
36 30 21 17 14 25 38 44 50 55 61 77 89 106 125 133 138 147 174 189 193 204 209 214 221 224 228 223 231 233 235 234 235 236 236 237 239 241 239 239 237 239 241 244 241 241 243 239 240 240 238 237 235 232 227 225 226 224 223 223 222 221 216 216 210 205 204 196 188 182 178 171 164 156 150 138 122 119 111 95 77 67 41 17 11 8 10 27 26 24 43 49 
29 35 23 16 11 20 38 44 49 53 60 76 90 106 127 134 142 158 174 190 195 207 210 214 213 219 229 228 228 231 232 234 233 232 237 238 240 241 239 240 239 237 239 241 244 246 243 242 240 243 242 239 234 232 227 228 229 227 227 224 221 218 217 212 210 203 202 197 191 184 179 174 166 159 150 144 127 112 112 98 79 65 40 14 11 9 10 27 29 29 42 54 
35 30 27 17 7 19 36 42 47 52 60 80 92 108 121 137 146 162 173 183 195 204 206 210 215 220 221 224 222 227 230 232 234 235 239 236 236 237 239 241 238 237 239 243 242 243 245 244 243 243 240 236 236 234 230 233 230 229 225 223 220 217 214 214 205 203 198 194 187 177 174 169 166 157 147 144 132 112 110 94 82 65 35 15 11 8 9 27 32 37 44 60 
36 34 25 17 11 19 28 36 40 51 60 78 92 113 116 132 143 155 169 185 191 196 198 202 206 215 219 219 223 224 223 220 226 229 231 234 234 235 238 240 236 239 237 240 242 242 245 243 243 238 239 234 232 230 231 230 228 228 226 223 218 213 208 202 202 197 193 187 179 175 165 161 154 152 149 140 133 113 103 93 83 63 31 14 12 9 10 27 31 41 47 65 
33 33 31 16 14 19 23 34 35 46 58 74 93 112 119 126 138 156 165 177 179 181 182 184 191 207 211 210 206 210 212 206 211 224 226 222 225 229 228 235 233 236 236 233 237 237 240 243 238 236 236 229 228 231 231 226 227 221 216 212 204 199 191 185 182 184 179 172 166 155 155 144 139 131 135 130 122 106 92 89 73 61 29 15 10 12 9 29 31 47 51 67 
36 34 25 20 15 22 28 36 38 42 55 75 88 106 112 126 139 149 160 166 166 163 168 169 177 184 189 179 179 174 184 189 182 198 211 210 207 213 214 220 222 222 221 225 226 233 230 231 231 231 225 223 224 223 219 216 214 209 204 205 194 184 183 180 173 169 165 163 150 139 130 124 120 112 110 116 109 98 90 82 74 53 30 14 11 15 12 27 35 46 58 69 
33 36 23 20 17 23 36 37 40 43 59 73 83 98 114 126 135 144 145 147 153 152 156 162 164 171 161 150 146 146 147 153 153 164 181 187 185 189 192 201 203 204 204 207 207 214 216 218 217 221 218 215 215 210 209 201 197 197 202 201 183 173 167 178 162 155 145 144 134 124 111 103 105 98 91 89 94 87 80 79 74 53 28 16 9 15 19 26 37 46 64 70 
37 32 26 18 19 32 46 51 46 51 64 75 87 111 127 132 132 136 135 144 146 146 139 145 142 140 142 132 133 139 137 139 139 148 153 161 169 171 176 179 185 183 183 187 188 189 197 198 202 204 204 201 199 194 195 191 182 185 189 186 164 156 154 152 149 133 130 129 120 111 99 91 87 88 77 69 71 78 76 80 74 53 30 18 8 19 21 25 37 46 67 69 
39 34 27 19 20 41 50 55 51 60 69 91 115 130 135 141 139 140 148 155 151 147 135 132 126 128 133 132 130 134 129 134 134 137 138 142 150 160 158 163 163 166 170 175 177 182 188 185 190 190 189 190 181 181 183 179 168 165 167 167 159 149 144 136 127 115 118 119 112 101 91 80 75 76 81 74 62 72 71 74 80 55 32 19 14 20 22 26 37 49 62 68 
44 37 32 21 22 44 52 51 54 58 74 106 127 141 145 148 148 152 155 151 144 131 125 128 132 138 143 148 148 145 136 134 135 139 138 135 139 142 146 152 158 164 167 172 178 183 187 183 184 184 179 176 174 174 175 167 162 155 150 149 142 138 130 121 110 104 108 108 104 97 91 89 80 77 73 80 79 76 77 63 67 61 28 23 15 19 23 30 38 45 60 70 
43 41 31 22 29 48 51 50 49 55 81 111 130 138 147 149 153 152 147 147 138 128 126 134 136 140 142 137 136 137 130 130 135 130 130 126 127 131 135 138 143 145 159 164 172 182 184 182 181 182 177 173 173 176 173 173 169 157 140 127 124 118 112 110 104 103 98 104 101 103 102 101 98 89 83 82 91 87 90 77 60 52 30 25 20 17 22 32 37 47 54 68 
41 37 35 23 34 52 53 52 45 62 93 113 134 142 148 150 144 141 143 146 143 146 140 137 140 137 135 127 127 128 123 114 113 114 115 120 116 117 122 128 133 138 148 162 167 181 186 183 183 180 175 176 176 177 174 177 176 169 146 133 123 113 111 107 108 108 102 105 112 113 111 113 117 108 100 89 97 99 104 96 78 47 28 25 24 14 24 30 39 44 52 63 
44 37 34 25 42 56 56 52 48 68 99 124 145 155 153 141 137 147 151 140 143 147 140 128 133 132 147 130 121 123 123 124 119 110 117 121 122 121 117 126 135 132 144 154 166 170 181 180 181 177 172 176 179 174 175 179 179 173 157 144 127 120 110 103 99 105 106 103 101 104 106 108 113 109 106 92 88 104 101 98 92 58 23 28 27 12 22 29 35 40 51 60 
43 38 34 30 45 63 62 53 51 77 108 136 159 165 151 143 143 146 149 138 142 153 131 110 119 122 135 126 107 119 131 123 116 126 125 134 127 130 123 131 135 132 144 157 162 171 173 175 175 173 173 174 172 172 178 182 177 180 162 147 134 131 130 92 88 96 115 113 103 92 95 110 103 98 97 96 86 97 101 95 92 74 31 25 33 17 15 21 37 42 51 56 
46 37 39 34 52 67 67 59 57 83 117 147 162 170 159 147 146 146 139 143 147 156 127 104 114 133 129 116 106 118 125 134 124 136 144 139 133 125 120 131 136 146 143 169 166 166 175 171 173 168 171 171 175 169 168 166 174 179 162 142 130 113 107 101 91 96 121 125 108 79 77 96 95 97 95 90 81 93 102 96 91 84 39 29 37 22 22 23 30 32 48 51 
43 44 44 36 51 69 71 65 65 91 126 152 167 176 175 162 153 148 149 149 164 156 140 112 120 135 145 114 114 134 133 132 142 155 148 139 125 130 128 124 134 144 153 170 173 174 174 174 171 168 162 169 170 178 172 167 169 179 177 139 133 120 108 104 107 123 126 141 119 85 77 76 95 90 99 101 86 87 100 98 93 89 52 28 38 25 21 28 32 39 33 47 
39 44 44 31 55 71 75 70 74 100 128 159 173 179 188 181 168 161 159 171 176 172 148 130 130 147 172 155 149 158 132 127 142 178 150 144 141 135 129 136 134 149 171 183 174 174 178 183 174 173 162 170 178 177 169 163 166 180 176 151 135 118 114 123 131 135 137 130 131 84 76 83 104 102 103 93 93 97 106 100 97 95 59 28 35 36 26 31 36 47 37 36 
35 43 43 29 59 77 78 74 78 107 134 158 171 184 191 197 193 186 184 187 184 181 161 146 152 172 187 183 183 180 143 134 136 151 148 144 149 164 155 139 160 169 182 185 190 183 183 186 180 177 166 178 195 187 171 164 174 191 181 161 146 137 134 141 142 141 130 125 106 98 90 103 131 131 108 88 91 106 115 108 104 103 66 33 36 42 35 34 39 51 38 41 
40 39 39 32 67 82 80 78 85 108 141 159 176 188 191 202 204 196 194 188 195 189 177 164 175 179 181 188 194 196 167 150 153 157 152 153 169 177 174 164 166 193 196 190 195 195 192 188 189 183 175 190 208 188 174 172 178 189 182 172 164 148 141 143 147 166 138 126 119 111 108 124 145 143 121 103 104 114 121 119 114 107 74 34 45 45 38 36 44 44 41 44 
36 34 40 38 71 84 87 80 89 108 136 164 178 194 203 206 210 210 206 201 199 197 194 183 189 195 191 194 196 194 186 173 171 180 175 174 177 174 172 182 194 206 203 194 197 197 207 203 203 203 189 197 210 200 178 177 189 202 199 190 180 176 154 154 149 164 152 141 136 134 137 150 149 143 134 123 120 126 130 127 116 115 77 39 51 53 35 35 46 35 41 52 
33 32 45 45 65 87 92 89 95 112 138 162 180 194 204 209 217 219 218 215 217 212 203 195 200 196 194 193 191 187 181 186 188 193 194 188 184 184 179 193 204 210 208 191 196 204 210 218 216 212 201 198 203 208 195 187 193 204 207 195 190 186 162 159 160 158 157 151 152 148 151 162 161 151 143 130 127 137 142 135 122 115 86 44 58 60 33 36 45 34 33 54 
35 34 51 48 63 92 96 95 98 114 139 162 183 194 204 211 218 221 224 226 223 223 216 210 209 214 207 205 204 198 192 187 189 191 195 198 195 198 202 200 200 206 207 199 207 218 220 218 219 212 204 203 204 211 206 201 203 213 212 203 191 194 180 177 181 174 173 170 165 163 161 165 163 155 151 139 139 143 149 139 128 118 93 48 66 66 32 38 38 33 34 53 
44 37 46 50 62 96 103 103 101 115 142 163 180 193 207 218 223 229 229 235 232 226 223 224 223 217 218 212 213 205 203 202 201 203 199 205 208 204 205 202 199 206 209 210 218 224 224 219 220 210 204 205 205 208 211 210 211 216 215 212 195 193 183 179 179 188 184 179 176 171 171 171 166 162 158 151 149 153 155 138 132 118 96 54 71 68 36 40 28 32 35 47 
43 41 43 50 68 88 107 110 105 117 137 158 178 197 206 215 225 229 232 236 234 233 228 233 233 230 231 227 226 223 228 224 222 218 223 220 222 219 222 224 215 214 208 208 217 224 222 223 222 209 200 201 207 210 216 220 220 222 224 221 209 202 196 190 189 190 191 189 190 187 186 182 176 172 166 160 158 158 162 141 130 124 95 59 71 65 40 35 25 32 39 42 
36 40 52 54 76 84 104 114 113 120 132 156 176 196 207 216 223 232 235 240 239 233 237 240 244 239 239 240 237 236 237 235 232 233 232 232 235 236 233 228 228 225 218 218 222 226 226 220 222 213 208 208 212 211 215 222 225 227 228 225 217 209 201 196 200 195 196 194 197 193 196 191 188 180 170 160 164 158 164 142 127 123 98 62 68 59 47 29 23 33 37 40 
30 38 45 54 86 89 101 123 124 125 131 156 174 189 205 215 221 229 235 238 240 240 241 247 249 248 247 249 243 244 246 243 243 239 238 242 239 240 242 233 232 231 225 225 226 229 225 221 223 217 217 216 213 213 212 225 224 229 232 233 227 222 214 209 210 214 213 208 205 206 206 199 194 191 176 169 169 166 163 140 126 121 102 67 61 47 54 25 25 28 37 40 
29 40 43 57 96 87 106 123 131 127 128 153 169 186 199 210 218 229 233 236 237 240 247 251 251 255 251 252 246 248 249 247 246 244 243 241 241 244 243 242 238 233 230 232 233 235 230 226 227 225 222 221 221 221 221 225 225 229 230 232 232 225 219 215 216 222 217 219 215 216 211 203 199 194 179 172 173 173 161 135 129 125 99 72 55 38 48 26 26 31 35 41 
28 43 44 49 84 89 106 129 134 129 123 152 169 185 195 204 216 225 227 235 235 235 243 249 253 253 253 252 251 247 250 248 248 247 241 245 244 244 244 246 241 237 236 236 237 237 234 231 227 223 222 220 225 224 224 230 235 232 232 232 232 229 223 221 221 221 219 219 220 217 213 209 200 194 180 177 173 177 157 136 133 131 98 69 48 39 38 24 29 32 34 40 
26 39 48 44 71 88 99 131 141 132 127 146 164 185 190 206 213 220 226 230 230 235 246 250 249 252 249 250 247 247 247 246 245 245 239 243 241 241 244 242 243 240 236 235 234 234 235 232 225 226 222 220 224 226 222 229 233 232 234 233 231 225 221 221 219 219 220 220 218 213 215 210 204 192 179 178 178 172 156 137 135 125 91 66 43 47 24 19 33 34 31 34 
27 28 47 41 57 96 98 127 149 139 131 143 161 177 187 198 208 214 223 228 230 238 246 247 250 252 248 249 249 247 248 245 245 241 237 236 238 239 243 241 239 236 236 234 230 232 228 229 224 223 220 220 220 222 224 227 232 234 232 233 230 227 221 220 217 214 216 217 216 212 210 209 202 191 180 182 178 165 162 142 133 122 83 60 40 37 21 12 30 36 34 30 
29 21 35 42 50 96 100 109 146 142 133 141 160 177 186 197 202 210 217 223 227 236 243 245 246 248 247 244 248 245 242 243 241 234 229 233 235 237 239 242 234 231 230 229 225 223 224 227 228 226 224 223 218 218 224 225 226 228 232 230 230 225 223 219 212 209 210 215 212 209 206 205 198 186 184 183 173 163 155 140 130 114 80 50 39 20 18 18 20 39 36 31 
29 22 13 27 43 74 97 105 124 140 134 141 155 172 183 190 198 208 212 215 224 233 240 241 241 244 244 242 243 239 234 235 232 228 226 229 228 236 234 234 229 225 227 221 218 221 221 226 230 230 226 226 221 216 219 226 224 228 227 229 227 224 218 215 214 206 208 210 205 208 206 201 191 186 181 177 172 159 149 138 132 103 68 48 28 10 14 23 20 27 41 39 
22 21 11 6 22 59 76 99 112 127 128 141 155 169 176 185 194 204 205 216 223 230 236 240 238 242 243 240 236 230 229 231 227 222 223 224 226 233 233 232 222 221 226 219 217 224 221 227 231 236 228 226 224 220 218 223 224 228 223 222 225 222 216 209 208 205 200 200 200 203 198 195 187 184 180 174 169 157 144 133 125 88 51 38 24 6 13 19 25 23 29 41 
22 18 10 8 0 20 49 77 96 116 112 138 155 167 172 182 192 197 203 210 220 225 231 231 236 236 236 235 231 224 224 228 226 218 218 218 219 228 227 226 217 218 225 217 218 222 224 218 229 232 228 223 227 224 218 220 221 226 222 220 223 223 218 208 203 205 197 196 195 195 193 185 183 180 173 172 165 149 134 126 113 61 38 27 13 5 9 18 24 25 20 29 
22 16 11 7 2 12 18 46 66 91 101 128 151 165 174 179 184 190 198 208 215 220 224 229 232 233 228 225 222 221 221 221 222 216 214 210 203 211 215 216 211 217 218 218 217 224 225 216 217 219 213 212 217 227 217 219 219 220 221 217 216 215 209 202 200 199 194 189 189 192 187 180 178 174 170 171 159 138 123 112 86 42 21 12 13 4 10 14 21 23 20 20 
17 17 12 5 5 5 19 32 41 62 88 113 148 161 167 171 178 183 190 202 207 210 221 219 221 220 221 218 213 214 212 215 215 211 212 206 192 188 192 193 193 202 202 211 214 219 215 204 201 198 189 189 196 214 209 211 211 209 211 205 209 207 200 192 190 189 183 185 184 187 183 174 175 169 167 161 137 124 111 93 59 27 12 5 12 7 7 14 17 21 19 18 
16 16 13 5 6 2 17 31 36 40 59 95 137 153 165 167 177 180 183 194 198 203 206 209 214 208 211 205 202 206 199 198 199 201 204 199 192 186 176 172 172 179 186 189 199 204 200 184 190 185 178 181 190 191 193 196 190 191 186 198 199 193 187 182 181 181 174 177 181 176 177 171 168 160 157 146 120 108 94 72 40 19 9 3 10 10 6 12 14 21 19 23 
13 15 11 9 4 3 9 29 36 38 57 81 129 145 157 164 172 179 180 183 192 193 199 198 200 199 198 194 193 195 193 183 184 191 191 194 190 187 179 168 165 167 167 166 173 182 178 172 176 178 173 174 183 186 185 173 167 164 171 180 184 181 179 176 177 175 174 172 173 173 170 163 157 153 141 125 102 98 81 54 24 21 6 3 8 9 6 10 16 18 19 23 
10 14 11 9 4 4 4 26 35 37 54 70 118 139 153 161 172 173 179 178 182 184 184 189 189 185 185 184 183 186 183 186 184 185 189 194 193 190 186 180 175 172 164 160 163 167 167 165 168 169 166 170 175 170 167 159 159 160 167 172 172 175 177 175 173 176 172 172 164 167 163 156 148 144 128 115 95 96 73 37 19 20 2 7 5 8 4 8 15 16 21 16 
11 11 14 6 2 10 0 19 37 33 55 63 108 136 147 160 166 172 175 177 178 171 171 174 175 176 176 176 180 187 188 192 192 190 194 195 195 193 194 187 185 180 172 167 169 168 174 170 166 165 164 160 163 158 159 158 167 166 170 171 176 174 170 167 172 169 170 170 162 157 153 153 144 139 119 105 93 89 61 30 20 17 2 7 6 4 6 7 14 14 19 16 
13 12 13 6 4 9 3 14 33 34 57 57 95 131 142 157 163 169 169 173 175 170 167 166 165 170 171 176 180 185 188 193 198 196 199 197 199 200 194 192 189 184 178 181 177 178 182 183 174 171 168 159 153 156 161 165 172 177 172 170 174 168 166 170 170 171 165 160 158 150 147 145 137 130 116 100 90 82 49 24 20 17 0 7 6 7 5 7 15 9 19 19 
18 13 9 5 2 9 6 10 27 35 53 58 79 126 139 150 159 164 169 172 170 167 164 162 167 168 172 177 178 186 189 197 196 198 199 201 200 200 198 200 195 191 189 192 187 184 189 186 183 178 176 172 163 166 163 165 171 174 173 166 165 167 164 164 167 167 161 157 148 142 142 143 134 122 112 90 89 71 37 21 24 12 1 5 6 5 7 5 14 13 14 20 
15 12 8 6 6 13 4 10 21 35 52 66 65 118 133 143 156 162 169 169 168 166 166 162 163 167 172 171 181 182 189 195 201 200 199 198 196 200 201 206 207 204 201 201 198 195 194 189 191 187 186 178 172 173 168 166 169 167 169 164 158 164 162 171 165 163 156 149 146 137 137 137 131 119 108 85 87 60 31 19 25 5 5 4 7 5 7 9 9 16 15 18 
13 8 9 6 10 11 9 9 15 32 48 67 62 103 125 139 151 161 165 166 167 172 166 167 164 170 170 172 175 178 187 197 197 198 195 192 196 199 204 208 213 212 212 205 204 200 201 198 196 197 198 188 183 177 174 171 167 168 168 170 160 158 164 165 167 159 152 147 141 136 137 133 131 115 98 88 79 47 24 23 21 2 6 2 10 5 9 10 9 13 16 18 
12 9 7 9 9 12 9 10 16 27 44 66 67 89 117 133 144 156 163 167 172 173 173 171 169 167 162 170 172 170 174 183 184 187 189 187 189 195 193 197 203 206 205 206 202 201 204 205 200 197 195 189 186 182 176 173 172 166 161 163 159 152 159 164 160 152 143 142 137 137 135 136 125 114 94 86 69 36 21 26 14 2 8 3 9 4 8 8 13 11 13 21 
11 7 10 9 11 14 10 11 19 20 43 57 67 75 107 129 141 151 157 167 169 172 171 175 171 164 166 173 172 172 164 156 160 165 170 178 177 179 179 174 173 180 190 194 194 189 185 189 183 181 186 182 178 175 170 164 165 157 149 152 151 145 150 157 150 148 144 138 137 137 137 138 122 105 86 81 53 31 21 24 9 2 9 5 8 5 7 8 12 11 10 17 
10 12 12 9 18 13 7 17 24 11 35 51 67 64 95 124 140 148 154 153 159 158 163 169 181 174 171 176 186 179 169 156 148 140 147 156 164 166 163 163 162 162 159 167 164 161 163 167 162 163 167 168 163 162 152 145 150 149 143 151 144 136 138 143 145 149 145 139 140 134 139 136 114 95 85 65 42 26 25 18 4 6 8 8 7 7 7 10 12 15 11 14 
14 14 12 14 20 13 11 24 22 8 24 47 58 66 76 118 134 144 152 154 156 153 155 161 170 180 180 182 178 180 178 180 171 158 161 148 155 159 153 155 148 145 142 145 144 139 144 153 152 157 156 150 142 139 137 136 143 149 150 147 136 123 138 151 156 155 146 139 138 133 140 129 106 86 75 52 36 27 23 10 7 6 9 10 8 7 6 10 10 11 18 13 
17 13 12 16 18 10 16 24 18 4 21 38 51 63 72 100 132 137 145 150 153 158 156 159 165 172 178 181 178 175 173 186 182 177 179 181 171 170 157 155 154 151 144 141 140 138 136 145 141 153 154 144 141 135 142 143 151 157 149 145 138 144 156 162 163 154 145 140 133 132 136 117 92 77 63 41 31 26 17 7 8 10 11 11 9 9 8 10 11 12 19 19 
16 12 12 15 11 9 15 22 14 7 17 32 42 56 70 78 123 133 137 144 151 154 163 168 167 169 172 178 177 178 179 181 185 187 187 184 183 183 178 181 187 180 175 168 163 152 152 153 152 148 147 139 143 142 153 155 157 158 151 152 151 151 155 155 156 151 144 136 130 130 128 104 76 67 49 37 24 23 12 10 9 11 12 12 7 11 7 15 11 8 24 20 
17 13 12 13 12 13 18 18 13 11 20 26 33 49 66 71 111 127 132 134 146 153 158 169 171 174 180 179 182 180 184 191 194 196 201 193 191 194 200 199 198 194 185 184 190 177 171 155 150 149 151 150 154 152 155 153 153 155 157 152 147 143 150 154 154 150 143 134 132 126 113 87 67 52 40 31 22 14 10 11 10 13 11 9 8 10 8 16 11 6 22 21 
16 17 15 13 13 17 24 17 12 15 23 23 25 47 62 68 109 129 124 131 138 144 153 160 167 172 179 181 185 184 186 187 198 198 198 194 191 193 199 200 202 196 189 182 184 183 178 172 167 166 163 163 163 156 155 156 155 156 155 149 145 148 153 153 150 142 137 134 125 117 95 77 53 43 36 25 14 13 11 10 10 12 12 7 10 13 9 15 11 8 19 23 
14 21 14 16 16 20 23 16 10 17 24 22 18 46 58 64 106 131 123 123 132 139 147 155 163 167 173 176 182 181 184 185 187 197 200 198 194 191 191 188 192 192 191 189 188 177 173 173 172 170 163 160 155 154 155 153 156 157 152 151 150 152 152 149 142 137 134 129 117 103 81 62 43 38 31 13 11 13 13 9 9 14 10 9 13 11 8 17 9 8 17 22 
16 20 17 20 21 24 20 19 10 21 25 24 19 38 57 57 99 129 129 122 125 129 137 150 155 162 171 175 179 182 188 190 185 189 195 199 194 194 186 185 185 186 183 182 179 177 171 168 163 160 163 161 159 158 160 158 159 160 156 149 149 151 145 142 138 134 130 125 106 88 67 49 38 27 20 9 12 14 14 11 11 14 10 11 14 8 11 16 11 9 16 19 
17 18 18 26 31 24 21 20 14 25 22 24 24 34 51 59 95 126 132 129 124 124 126 140 148 156 162 171 174 183 190 189 188 187 190 194 193 192 186 183 182 177 179 177 177 172 174 169 167 159 159 165 161 160 160 162 158 156 155 151 146 144 140 133 133 128 122 111 92 69 52 38 28 14 12 12 14 12 16 12 13 12 9 14 12 9 12 14 9 6 18 20 
21 18 22 23 28 22 21 20 14 22 21 22 24 41 40 60 92 124 126 133 128 127 125 130 141 148 160 167 172 176 185 190 191 191 193 191 191 192 185 187 182 176 173 171 170 171 172 168 167 166 164 159 156 160 160 155 156 152 150 146 142 137 133 132 130 124 114 101 79 52 35 25 9 10 14 9 12 15 19 12 11 14 12 12 9 10 13 10 8 8 19 13 
19 15 25 23 27 20 15 16 12 19 18 23 18 38 39 49 96 124 132 133 136 130 129 130 133 139 148 158 164 172 176 181 191 193 197 200 197 197 194 193 187 186 180 176 172 170 169 166 166 162 161 156 157 154 157 155 154 152 147 141 137 129 130 133 126 117 101 86 59 33 24 8 6 8 10 10 13 18 16 11 10 16 11 10 9 13 8 6 9 11 17 11 
17 16 21 24 21 19 12 11 14 18 17 18 20 37 43 45 92 125 136 135 136 136 134 133 136 137 143 155 162 171 177 180 189 192 196 202 203 203 203 198 196 197 193 189 186 179 179 171 165 162 165 162 159 161 158 154 151 149 144 137 131 130 135 130 121 107 90 66 41 22 11 7 6 8 8 12 12 12 12 9 10 15 8 8 8 9 7 5 10 14 13 10 
15 19 23 22 19 15 11 10 16 16 15 18 22 38 45 46 92 122 134 140 139 136 138 135 136 139 141 153 157 170 176 181 186 192 198 200 206 203 202 205 200 199 201 198 198 192 189 186 179 175 173 171 166 165 161 156 150 148 141 134 134 136 131 125 115 98 75 47 31 12 8 6 6 5 9 9 8 11 8 8 9 10 6 4 10 9 7 5 15 15 9 12 
20 17 22 19 13 10 9 13 18 15 16 18 31 42 48 62 100 121 132 139 143 139 139 140 138 138 139 145 153 160 168 176 184 189 194 200 204 205 209 210 209 204 206 204 202 199 196 194 192 186 185 176 171 168 165 154 155 148 140 138 137 133 129 122 105 85 54 40 22 11 7 4 4 6 7 8 5 7 6 6 9 4 4 8 7 9 6 8 15 10 11 19 
25 17 18 13 13 9 8 17 19 17 17 23 36 46 59 81 103 122 134 138 141 147 139 139 143 138 138 143 148 152 159 166 178 188 193 200 202 211 210 211 213 208 211 209 206 202 201 200 198 193 190 182 177 172 169 163 156 148 142 135 136 134 127 114 95 66 47 38 16 10 7 3 5 5 8 5 6 3 6 5 5 2 4 8 6 5 8 9 13 10 15 21 
21 15 18 12 12 12 14 19 23 19 18 32 42 58 72 89 105 129 131 140 141 145 145 141 142 142 137 140 144 148 154 157 167 177 185 191 198 203 206 210 210 211 209 207 207 204 200 199 194 190 189 181 174 171 164 161 154 146 139 139 138 133 120 105 75 58 44 34 16 9 7 3 2 4 5 3 3 4 5 4 2 4 4 8 3 5 11 9 17 9 18 21 
20 17 17 13 14 14 17 24 24 21 23 41 53 66 84 94 108 130 136 136 145 146 144 142 142 141 141 137 139 144 147 154 155 160 169 176 187 190 197 203 202 205 199 200 200 200 198 195 191 185 182 174 170 162 157 153 146 141 141 137 134 123 110 89 62 54 46 24 14 10 4 0 2 3 2 1 1 5 2 2 3 4 4 5 3 6 13 13 14 9 19 23 
19 19 18 14 20 14 22 28 27 23 31 50 61 75 92 103 111 126 140 139 140 147 145 141 143 140 141 138 137 136 142 147 153 155 157 163 171 175 186 190 190 191 189 194 191 193 189 187 176 175 172 167 160 151 148 143 142 136 139 132 123 115 103 75 59 52 43 21 16 11 1 2 2 2 0 3 2 1 2 1 4 4 4 5 4 11 12 14 10 12 19 25 
