P2
# Imagen
92 112
255
164 161 163 163 162 164 161 160 162 161 157 154 153 155 154 151 149 132 121 109 110 108 92 79 67 49 32 32 29 22 22 22 25 21 25 24 22 25 27 28 25 28 30 28 28 29 29 26 29 32 31 34 33 39 44 49 55 56 59 65 67 69 84 100 98 107 127 133 134 137 137 137 137 149 154 157 157 157 156 156 157 158 157 157 154 156 157 156 157 155 156 155 
163 162 160 163 161 162 160 160 160 160 156 152 152 153 150 146 138 119 105 104 103 99 80 64 54 34 24 25 23 19 18 17 19 18 17 18 18 20 23 22 19 19 23 23 19 18 22 18 18 20 30 30 32 33 33 35 47 41 44 50 55 60 66 71 77 85 92 110 122 131 136 136 137 138 145 158 157 155 156 156 156 156 156 156 155 156 155 157 155 156 156 154 
161 161 160 160 164 159 157 159 157 155 151 145 148 149 145 139 125 105 92 99 95 81 65 49 38 26 18 22 21 18 18 14 19 19 13 15 15 19 21 16 15 18 17 21 15 15 17 17 15 18 21 28 30 31 31 28 33 36 33 36 46 47 52 56 60 66 78 85 91 107 124 134 133 137 135 147 152 156 155 155 157 155 156 155 155 156 154 157 155 155 156 155 
159 158 160 155 158 159 159 154 151 142 141 141 140 141 133 123 110 91 81 82 76 63 44 33 25 22 17 19 20 17 18 13 18 17 15 13 16 15 19 18 15 18 18 17 13 16 16 17 16 15 18 17 23 24 21 19 23 24 28 31 32 40 39 45 44 51 58 70 78 81 92 108 123 129 135 138 139 145 153 155 156 155 155 154 154 154 155 157 155 155 155 155 
161 160 158 157 153 154 153 149 144 144 135 134 130 122 114 98 87 77 72 67 61 47 29 25 20 20 20 18 22 17 19 14 17 17 14 14 15 16 18 18 14 19 17 20 16 16 21 17 19 17 18 17 19 20 21 16 18 16 14 22 22 28 33 35 33 39 44 53 66 69 85 86 100 109 123 135 138 134 139 153 152 154 154 152 153 153 155 158 153 156 155 153 
161 160 158 159 156 152 149 144 135 133 129 113 112 97 88 81 74 65 63 57 44 33 22 24 19 19 18 16 25 18 19 17 16 17 14 12 15 17 21 21 13 21 19 19 21 15 22 19 23 20 21 17 20 21 19 23 16 21 14 17 24 15 24 22 26 31 33 39 52 57 65 81 84 93 99 116 131 135 131 134 151 152 153 152 153 154 156 155 154 157 155 155 
160 158 156 156 156 151 144 140 131 124 117 98 86 74 74 67 61 57 48 38 32 24 23 23 22 21 19 14 29 21 18 21 16 20 16 16 16 17 24 23 17 21 24 20 20 20 23 21 24 23 21 21 27 24 23 22 23 20 21 17 26 19 21 19 17 21 29 23 34 46 57 59 72 89 92 96 112 128 133 134 136 153 153 151 152 153 156 155 155 155 154 152 
157 158 157 156 151 146 137 137 130 116 101 83 73 63 62 57 46 41 35 24 25 22 26 23 20 23 19 17 26 23 16 24 24 21 20 18 18 21 24 25 20 23 23 26 21 21 25 25 25 26 26 24 28 31 26 24 29 24 24 22 28 26 20 26 20 18 26 23 31 31 31 43 52 66 90 91 96 113 120 130 132 140 149 153 150 149 153 154 155 155 154 153 
157 154 154 149 142 139 138 134 119 97 83 66 63 61 48 44 37 29 29 25 26 21 29 23 19 23 21 21 26 22 20 25 26 24 24 20 20 24 29 28 23 26 24 31 27 28 26 30 30 28 29 26 29 36 30 28 30 29 34 28 26 30 29 26 28 22 23 24 31 33 33 27 31 43 60 87 93 103 111 114 126 131 139 150 148 150 149 152 154 154 154 154 
155 152 148 142 139 136 136 123 99 83 68 64 59 49 44 32 25 23 28 29 28 23 27 24 19 25 22 24 30 25 22 31 25 29 30 23 21 28 33 32 25 32 29 34 34 31 35 29 34 33 33 33 31 36 36 32 32 29 32 37 29 30 37 35 31 27 28 23 34 37 33 35 27 30 38 57 77 96 101 101 112 124 131 137 143 149 150 150 153 154 152 153 
150 145 140 137 137 132 119 98 86 67 63 56 43 32 30 28 22 24 27 29 27 25 30 25 23 27 22 27 34 32 23 36 28 30 33 26 26 30 37 37 30 35 39 34 37 35 42 35 36 32 39 35 37 33 38 40 39 33 30 38 36 26 46 38 37 26 31 32 31 37 37 34 41 28 26 48 52 66 92 98 95 114 122 129 132 139 149 150 154 152 154 153 
144 141 138 136 133 118 95 81 74 60 48 32 25 26 28 30 25 28 26 29 27 27 33 24 27 33 23 30 37 39 26 41 38 34 36 29 30 34 42 41 38 33 47 41 43 36 47 46 38 37 38 47 38 37 38 43 42 39 31 40 37 36 39 45 39 37 30 34 35 37 38 32 43 39 27 27 47 47 61 87 94 97 106 121 128 131 138 148 151 152 151 152 
142 139 135 133 118 98 82 73 61 39 26 25 24 26 29 30 27 29 30 31 28 29 31 26 32 36 26 34 40 40 31 42 43 39 41 34 34 38 44 43 45 34 45 46 49 41 42 53 46 42 39 52 43 39 42 44 46 47 35 37 41 39 42 44 40 42 32 36 37 38 39 37 36 47 42 26 34 42 53 57 75 94 96 105 122 130 131 135 146 152 151 151 
135 139 132 125 104 87 77 58 38 23 23 27 30 28 33 29 29 30 33 33 33 33 34 26 35 36 29 35 39 40 33 42 46 40 41 37 40 39 42 44 49 42 42 53 49 47 42 55 54 47 41 51 53 39 44 46 50 48 38 40 43 45 44 47 40 37 39 34 44 39 37 41 35 48 48 36 32 36 43 58 49 73 92 96 108 130 134 134 135 147 152 152 
135 134 123 107 91 76 59 33 27 27 22 31 35 32 32 34 31 29 36 35 37 38 36 32 40 38 32 38 40 41 34 43 51 38 45 40 45 41 44 45 50 48 45 57 53 51 48 53 55 52 47 48 51 46 43 50 50 45 44 44 41 49 45 49 44 38 37 41 46 40 38 40 39 38 54 44 30 37 34 47 53 48 74 83 100 119 133 133 133 132 149 150 
135 134 121 102 83 56 33 26 28 30 26 33 34 37 35 36 38 34 36 39 37 38 39 34 41 40 37 40 46 41 34 44 55 45 44 43 48 47 49 52 52 52 56 54 59 58 55 56 55 57 52 55 44 56 46 51 51 46 49 50 45 45 46 49 46 43 37 39 45 46 37 37 42 37 49 50 39 33 38 35 53 47 61 72 78 109 129 128 128 131 138 149 
135 133 113 95 64 36 30 28 32 32 32 33 36 38 40 39 39 39 37 42 39 40 39 37 39 44 43 41 46 46 40 45 58 52 48 48 52 53 53 57 56 57 57 58 57 61 56 61 56 64 55 61 54 59 55 57 58 53 56 53 44 48 51 54 46 46 36 35 45 47 46 37 39 40 47 48 45 41 38 38 43 56 51 64 71 84 116 128 130 132 133 144 
134 127 104 76 47 32 31 33 33 36 38 35 35 40 40 45 39 41 38 40 38 45 41 42 40 49 49 41 51 50 50 51 59 64 54 50 62 60 56 59 61 57 61 62 58 63 63 68 56 69 64 63 64 66 61 57 64 60 62 58 53 57 63 57 49 49 42 35 42 51 50 44 41 44 46 46 46 48 37 40 40 56 52 58 72 81 96 120 130 133 133 134 
126 116 87 61 44 34 33 38 39 39 41 39 33 40 43 45 40 41 43 41 44 48 42 47 43 52 53 48 55 58 62 56 63 63 59 54 66 62 59 62 63 60 58 69 59 62 66 70 62 71 72 62 67 70 68 58 63 68 63 64 61 60 63 59 59 53 49 46 44 51 51 43 45 41 43 50 46 45 40 38 42 50 58 53 71 80 86 111 124 131 134 130 
117 97 72 50 41 38 36 41 42 41 42 42 38 41 46 46 43 43 47 43 47 50 46 50 43 52 53 51 55 62 62 60 62 60 59 53 61 63 54 64 59 61 57 67 61 59 60 66 65 61 74 61 64 69 70 58 63 65 67 64 65 62 57 59 62 59 51 57 45 48 49 45 46 44 41 48 47 40 42 40 48 42 57 47 62 74 81 94 119 123 132 131 
106 82 60 40 42 42 39 44 44 45 45 40 40 41 42 49 44 47 51 46 46 52 48 49 52 51 52 53 56 63 63 59 62 57 63 55 56 63 61 60 63 60 56 62 61 56 53 64 63 57 72 62 65 64 66 62 61 61 65 63 65 64 55 65 56 61 57 53 45 44 54 45 48 46 44 50 48 44 51 48 45 46 46 49 53 68 72 85 111 124 124 129 
95 70 45 32 41 45 40 45 45 45 45 37 41 44 44 51 49 48 53 49 48 54 52 54 54 55 56 55 58 63 59 61 61 61 60 60 57 60 60 60 62 59 58 65 65 63 53 58 65 59 67 66 64 63 64 63 64 64 60 67 61 65 60 61 60 59 58 55 44 44 50 49 42 51 46 48 45 46 52 50 47 47 40 46 48 63 62 71 101 123 122 123 
85 54 40 26 34 46 40 47 44 46 42 42 45 45 47 56 56 53 56 52 54 59 60 57 58 59 60 58 61 62 58 63 63 64 63 63 59 62 63 62 62 62 60 66 68 62 62 57 66 63 65 76 66 63 64 62 61 66 67 67 62 63 69 62 61 57 59 61 51 45 50 49 43 52 47 46 39 46 48 48 42 47 41 43 42 52 57 67 81 107 120 121 
73 48 35 28 31 43 39 47 47 44 48 44 51 50 48 60 62 56 60 65 64 64 62 57 62 60 65 65 64 69 60 67 66 71 67 68 67 69 68 69 66 70 64 70 70 66 70 65 71 73 71 78 76 67 65 66 63 65 70 70 68 68 72 68 62 63 60 64 60 49 49 48 45 53 47 47 44 45 49 40 41 48 44 40 40 44 58 62 77 89 115 120 
66 45 31 34 35 44 39 43 49 45 48 46 53 56 53 61 71 66 66 74 72 68 67 69 70 68 74 75 75 80 72 74 78 81 78 79 84 81 75 82 82 81 81 78 81 78 83 82 82 81 84 83 86 76 71 78 68 73 75 75 77 80 83 81 71 73 66 70 68 59 52 58 55 53 48 48 47 47 49 39 41 51 40 36 39 46 49 56 73 80 109 119 
59 39 35 36 39 43 47 41 45 45 52 54 61 62 65 68 76 82 79 78 82 80 78 84 83 80 85 86 91 89 89 88 94 97 102 98 104 102 93 98 100 100 100 100 95 99 98 98 101 97 96 104 96 90 89 88 84 84 86 88 91 94 93 95 85 86 81 81 79 72 65 68 69 60 55 49 51 47 48 47 48 45 43 42 39 43 41 56 66 84 100 111 
49 41 34 37 38 42 53 43 42 48 59 62 65 70 75 77 83 94 91 89 97 92 97 98 95 96 100 100 104 107 104 104 111 115 122 119 119 123 119 119 119 122 122 125 121 119 117 116 116 118 110 121 114 109 106 104 104 101 106 105 108 111 105 103 101 102 99 97 91 89 84 81 82 71 62 54 52 51 52 52 52 47 43 43 39 43 45 50 65 80 95 104 
47 40 37 37 42 49 49 49 45 54 63 64 73 79 86 87 92 102 99 99 105 107 112 114 111 110 115 119 122 125 128 128 128 134 140 143 142 143 145 144 141 142 142 137 144 142 140 137 140 144 134 137 135 136 127 127 125 131 125 128 129 127 126 122 117 118 116 116 108 108 92 90 91 85 72 62 57 53 51 46 47 46 42 39 34 34 46 47 61 74 91 102 
43 41 38 40 51 50 52 47 53 57 65 73 78 85 92 95 98 108 103 103 113 119 127 127 129 133 133 137 140 147 148 150 154 154 159 166 164 162 166 164 167 159 161 153 154 162 162 160 156 164 157 154 154 153 147 155 154 153 157 151 150 151 145 146 142 141 137 134 126 123 112 105 99 95 85 71 64 60 54 48 48 49 46 40 38 28 39 45 55 71 88 99 
40 40 46 44 46 52 52 53 55 63 69 83 86 93 95 102 106 112 110 108 116 127 137 142 146 152 146 151 151 162 161 169 175 181 177 186 182 181 189 185 193 185 183 174 177 179 183 180 179 177 177 172 175 173 168 174 179 170 175 171 177 173 172 171 162 163 160 153 144 136 133 122 117 104 97 81 71 61 56 48 50 48 46 39 37 31 36 41 48 69 86 96 
41 44 47 43 49 52 52 57 61 68 78 85 91 101 103 107 117 115 119 121 128 135 148 147 154 162 159 162 171 178 180 180 192 200 198 198 199 205 204 203 213 212 207 197 191 203 199 196 200 194 189 184 191 186 188 185 191 185 185 186 190 186 183 182 178 175 171 169 154 148 143 131 121 115 104 93 81 69 59 57 50 47 40 41 31 35 34 43 43 63 86 91 
44 43 45 46 51 50 57 57 63 75 81 88 95 104 110 114 121 123 127 134 135 142 150 149 158 169 176 175 184 188 186 184 199 207 212 208 210 217 222 218 223 226 223 214 210 216 216 210 215 216 212 203 207 206 201 198 204 202 197 195 197 191 189 192 184 184 180 170 161 155 148 134 121 115 112 103 90 75 65 60 54 47 42 39 34 32 36 36 49 57 85 89 
49 41 47 49 46 56 59 61 68 78 83 95 100 105 117 116 124 133 144 145 149 151 155 159 169 176 183 182 187 199 200 200 202 211 213 218 218 221 231 229 227 227 226 226 224 226 224 221 223 227 224 220 218 215 211 209 209 212 211 205 202 197 198 199 192 186 193 180 171 158 158 144 127 119 111 107 92 84 72 59 54 52 47 40 36 32 36 37 47 56 82 95 
48 47 42 45 52 53 61 64 72 83 89 103 105 112 121 124 125 140 151 150 155 159 164 167 178 181 184 188 195 201 205 206 210 215 217 223 225 224 234 233 230 234 231 229 224 227 230 223 225 229 230 227 225 220 219 214 216 216 213 209 206 201 204 202 199 188 195 189 177 165 159 152 136 127 110 107 99 88 77 61 54 51 48 45 39 31 33 36 52 56 73 93 
46 48 42 44 50 51 59 68 72 87 91 100 109 112 125 129 129 143 150 157 159 166 172 177 182 188 195 196 203 208 213 215 223 222 220 226 229 229 237 239 235 239 237 234 232 233 237 230 228 238 235 233 231 226 224 218 220 221 218 214 210 205 208 204 200 197 198 193 184 172 164 157 148 131 119 108 103 91 82 66 53 50 45 44 42 34 29 32 46 57 74 85 
42 46 41 45 50 51 59 67 77 84 89 102 108 116 126 130 134 147 156 160 167 176 179 185 189 195 203 205 213 217 221 222 228 231 230 232 232 236 241 243 241 244 241 242 239 237 241 235 230 239 240 239 238 233 229 227 226 226 226 224 216 212 211 209 205 202 201 197 187 177 172 164 153 146 127 116 107 99 81 69 51 49 41 38 41 36 28 33 42 52 70 81 
40 43 40 40 49 54 55 67 74 84 89 101 110 116 126 130 134 150 159 163 171 181 184 191 197 206 210 214 221 223 225 224 233 239 238 235 241 239 243 247 243 245 245 243 242 239 240 241 236 241 243 244 245 240 237 233 232 229 231 229 220 218 214 212 208 205 202 199 190 184 175 170 159 155 137 125 112 103 90 71 54 44 41 34 34 40 25 31 42 45 65 79 
35 40 40 40 47 50 56 65 75 78 88 100 107 121 126 127 139 154 160 165 172 185 187 199 206 213 213 219 223 227 230 233 235 241 241 242 243 243 243 247 246 245 249 250 244 244 243 245 244 244 247 247 248 244 240 236 236 231 234 231 225 220 217 213 212 207 204 199 195 187 179 173 165 158 147 130 120 106 93 75 58 44 39 32 31 35 25 25 38 44 58 71 
31 33 35 42 43 47 55 66 70 77 83 92 106 121 124 130 143 157 163 167 176 189 195 201 213 213 216 223 228 232 234 235 240 242 242 246 246 248 248 248 247 247 248 252 249 247 247 246 246 246 247 246 249 247 242 240 238 235 237 233 228 225 220 217 211 209 200 201 195 187 182 176 170 159 151 135 128 107 97 74 61 45 37 30 30 29 23 23 39 39 56 68 
35 27 37 37 39 46 53 65 65 72 78 89 102 117 125 133 148 156 168 169 178 190 199 204 216 215 220 225 230 232 234 237 241 242 243 246 247 247 248 249 249 248 249 250 250 248 248 247 246 247 248 246 247 248 243 243 239 237 237 237 231 227 222 216 212 208 201 196 195 187 180 175 170 160 152 137 131 113 99 79 63 48 35 28 29 23 18 17 43 37 50 70 
39 28 32 34 36 41 54 60 64 67 79 86 98 114 130 135 152 158 170 175 184 193 201 206 215 217 221 228 231 232 236 240 238 243 244 245 246 249 249 248 249 249 248 251 250 247 248 246 248 247 247 246 244 246 243 242 241 239 237 238 235 228 222 218 212 205 201 195 190 186 178 174 168 163 152 141 133 122 103 84 68 49 33 27 26 19 15 13 38 42 41 66 
43 27 30 30 31 41 50 58 61 64 77 83 91 112 130 139 152 159 173 178 189 194 196 206 210 216 221 230 229 229 235 238 239 239 241 244 245 246 247 248 247 248 248 250 249 248 247 246 247 247 246 245 244 244 242 241 240 238 235 234 235 228 223 215 210 204 196 194 188 182 176 169 166 160 152 142 131 124 106 88 73 52 36 25 23 16 12 14 29 41 41 59 
41 30 31 29 26 37 46 56 59 63 74 82 92 110 129 143 156 161 174 181 186 189 190 201 206 209 215 220 219 221 226 227 230 228 233 237 237 241 244 246 246 247 247 249 248 247 247 246 246 246 245 244 244 243 239 240 237 233 232 227 224 220 214 205 198 195 192 186 182 176 174 164 162 158 151 140 129 122 109 90 72 60 38 25 21 14 12 13 24 41 42 59 
38 32 28 30 23 35 45 51 56 60 70 79 91 111 127 146 157 161 173 182 180 185 191 197 200 206 208 212 212 214 219 221 223 221 224 227 228 233 237 239 244 246 246 247 246 247 247 245 245 244 243 243 243 241 238 236 230 224 223 220 215 210 208 203 189 188 184 176 172 169 162 160 151 151 147 139 129 120 109 91 72 61 41 26 17 12 9 16 24 37 37 59 
36 27 31 26 25 32 42 51 54 57 67 75 93 110 125 147 155 162 167 176 177 179 191 198 199 206 208 210 212 215 219 219 221 222 224 224 224 229 231 234 240 242 245 244 246 245 245 244 243 243 244 242 240 241 237 231 226 222 216 217 212 207 204 202 192 185 180 174 165 164 157 153 144 142 141 138 129 120 108 90 73 61 44 25 15 11 9 15 27 33 40 55 
35 24 27 25 20 32 41 49 53 56 61 77 91 111 128 142 154 160 161 166 181 186 193 203 206 213 218 219 221 220 222 223 223 225 226 226 227 229 231 231 236 241 243 245 244 243 244 243 240 242 241 240 240 237 234 225 225 221 215 215 210 207 201 199 194 186 183 175 165 162 157 152 147 138 132 133 129 119 108 89 74 64 43 23 12 11 10 16 26 32 39 51 
33 24 21 22 20 29 42 47 50 53 56 75 91 112 130 140 150 150 158 172 188 198 203 214 219 221 227 229 229 231 229 228 229 229 230 229 231 232 234 233 236 240 244 243 243 242 244 243 242 242 240 238 238 235 230 224 225 223 218 217 213 209 205 201 200 197 190 184 178 168 168 159 153 142 130 123 124 121 107 89 72 65 45 19 10 8 13 17 29 26 37 50 
35 27 17 21 17 29 41 45 50 51 57 72 93 113 133 139 139 145 168 185 195 204 208 218 224 227 229 233 234 236 236 235 237 235 236 235 235 237 236 236 237 241 243 244 244 245 244 246 243 243 242 240 238 234 229 224 226 223 222 222 221 216 213 211 206 206 199 192 186 178 174 166 161 153 138 120 116 119 111 89 71 64 43 19 8 7 11 23 29 28 40 51 
36 27 21 17 14 25 41 43 48 51 56 75 93 115 131 136 137 148 174 189 197 206 211 216 221 226 228 227 231 234 235 234 237 239 239 238 239 240 238 238 237 239 243 246 246 246 246 245 245 244 243 241 237 232 230 226 226 227 226 226 222 221 218 216 210 208 204 196 187 181 175 168 161 156 146 131 112 113 111 93 71 62 40 16 9 8 11 24 29 26 44 55 
29 32 22 16 10 20 40 43 45 48 55 76 96 113 131 134 142 158 177 190 197 206 211 216 215 220 226 227 229 232 231 234 234 234 235 239 241 243 241 240 238 237 243 246 248 247 247 246 245 245 245 240 238 232 229 229 230 229 229 225 220 218 216 211 209 205 201 196 189 182 177 171 163 156 147 139 119 106 111 96 74 61 37 13 9 9 11 22 30 30 40 60 
35 30 26 17 6 21 37 40 42 45 55 81 97 112 124 135 145 162 176 185 194 202 208 209 214 218 219 220 223 225 226 228 232 234 236 235 236 240 242 242 240 238 241 246 248 247 249 247 246 246 245 241 237 232 231 232 232 229 226 221 219 217 214 213 206 203 200 194 186 178 175 170 162 156 144 140 127 104 107 93 78 60 31 13 11 8 8 23 28 37 42 65 
37 32 25 16 10 19 31 33 35 43 56 82 99 116 117 133 147 161 172 184 193 196 198 202 204 214 216 216 218 221 219 217 226 231 232 238 234 235 240 243 241 239 240 243 248 246 248 248 247 245 244 239 235 233 234 231 230 226 224 223 219 213 208 204 202 196 192 189 183 178 166 165 156 151 145 136 130 106 100 93 80 57 28 13 11 10 8 24 27 40 44 69 
33 31 27 15 13 20 23 29 28 37 55 77 98 116 120 129 145 160 170 179 183 187 187 188 193 208 218 212 207 215 217 210 214 228 232 227 233 232 233 238 240 240 238 239 244 245 246 247 244 244 241 235 232 235 234 232 227 225 222 219 211 203 198 190 187 186 183 175 168 164 161 151 145 138 136 131 123 106 90 90 74 57 26 13 10 11 7 25 29 45 48 70 
36 33 24 18 15 23 26 28 29 34 52 79 94 109 117 129 143 153 162 171 175 175 176 178 190 199 205 192 190 186 202 204 192 209 227 222 216 222 225 230 233 232 230 232 235 240 241 240 240 239 236 230 228 231 230 225 223 218 215 218 206 194 194 194 182 177 176 173 159 150 142 138 131 126 120 120 113 100 89 84 75 52 27 11 11 13 10 21 37 47 55 74 
33 35 21 20 18 23 32 30 29 35 59 81 91 103 116 127 136 144 147 152 159 159 164 172 181 192 185 169 167 169 169 178 172 185 206 208 202 200 208 216 219 218 218 219 221 226 229 230 229 231 230 223 222 222 223 215 210 212 217 219 196 186 181 198 179 164 162 167 153 140 124 117 118 112 105 101 99 91 81 79 74 53 24 13 9 13 15 20 38 46 62 74 
38 30 24 18 20 31 40 43 35 44 71 87 99 112 123 126 128 133 132 138 141 143 142 150 151 159 164 151 154 162 162 161 160 174 185 187 190 191 195 199 200 195 197 199 202 204 210 212 215 215 214 211 208 209 211 205 197 202 208 208 185 174 168 166 164 148 148 154 142 127 112 99 98 100 91 84 81 81 74 74 71 53 26 15 8 16 17 18 37 48 65 72 
39 33 24 20 21 37 44 46 41 60 83 104 120 126 125 128 129 128 133 139 137 136 126 126 127 134 144 141 139 144 140 146 149 159 164 166 170 178 179 183 180 180 183 185 189 193 197 198 201 203 199 197 193 194 198 192 185 182 184 187 174 162 154 145 136 125 132 137 128 111 100 83 77 79 85 79 70 72 69 68 72 50 27 15 12 17 17 18 36 51 62 69 
44 36 29 23 22 40 45 41 44 62 88 115 127 132 133 134 136 140 143 141 135 124 119 125 130 135 143 144 141 139 133 134 137 146 149 146 150 156 161 168 170 173 175 180 184 189 192 191 192 192 186 184 181 181 182 177 172 164 156 156 151 147 138 129 120 111 115 117 111 99 89 85 74 71 73 79 79 77 75 61 58 51 25 19 12 14 16 25 36 49 60 71 
44 40 29 23 28 42 43 39 40 62 92 116 126 129 136 140 149 151 153 150 141 132 129 137 139 143 143 135 130 132 125 127 131 128 133 133 134 140 146 150 151 154 165 167 174 184 186 187 185 186 181 180 178 179 178 177 168 158 142 131 127 125 119 116 111 105 97 102 103 101 99 98 94 82 75 80 91 88 90 76 55 41 26 20 17 12 17 28 37 50 54 71 
41 38 32 23 33 45 45 40 38 69 102 115 131 133 140 145 149 152 157 158 156 156 153 152 152 147 140 134 132 131 127 119 118 117 121 125 127 129 132 139 144 147 153 162 168 180 188 186 184 187 183 183 185 183 176 178 175 167 146 135 126 118 118 116 115 111 102 103 110 116 115 116 118 105 93 82 97 104 106 97 74 41 23 20 20 9 19 27 39 46 51 68 
44 36 34 26 37 50 48 40 42 75 105 123 140 147 147 143 143 156 160 150 152 152 148 138 140 139 147 141 138 139 137 135 132 123 130 133 134 133 131 136 145 142 150 156 169 173 179 178 179 180 179 181 184 179 177 182 182 176 163 151 138 131 123 120 116 117 116 112 107 113 119 122 125 119 110 93 91 108 106 103 91 52 22 22 22 8 18 28 35 42 51 61 
42 35 33 29 41 57 54 41 47 85 112 135 153 158 149 144 145 151 157 142 142 149 132 114 121 128 138 136 132 137 145 140 138 143 141 146 142 145 141 146 147 145 150 160 164 174 172 174 176 176 179 179 176 176 179 183 182 182 172 161 151 144 139 112 108 117 129 128 118 110 116 126 121 115 109 100 88 99 105 101 92 66 30 21 25 11 12 22 38 44 51 55 
42 34 37 33 47 61 58 49 56 91 121 143 159 164 154 146 146 148 142 141 143 148 124 107 119 134 132 125 124 133 134 144 143 150 147 147 146 143 138 143 148 157 155 169 168 171 173 170 173 170 175 174 175 170 169 170 175 176 165 152 143 131 123 116 110 116 129 134 122 99 101 114 112 112 105 93 82 92 103 99 89 74 37 24 27 14 16 20 31 38 46 51 
36 38 41 34 50 64 62 56 65 96 128 146 162 170 169 156 153 149 146 147 159 155 135 116 129 138 143 122 131 150 136 137 152 159 149 138 137 145 142 136 142 157 162 170 176 176 174 174 172 169 165 165 167 171 171 165 165 173 169 144 139 128 116 114 120 130 129 143 129 101 93 96 110 106 109 103 85 85 101 99 90 78 49 22 27 16 14 25 30 43 35 46 
30 38 42 33 52 64 68 60 72 103 126 154 167 175 183 173 163 158 160 167 171 169 148 136 140 148 161 147 147 167 136 133 154 181 149 144 143 147 142 142 139 156 176 185 179 175 176 180 172 170 161 165 171 172 164 165 167 177 167 146 133 122 125 124 134 138 136 127 133 102 91 92 114 112 106 89 91 94 103 100 95 85 54 23 25 26 20 27 33 51 40 38 
26 38 41 32 58 72 72 64 78 110 132 151 168 178 188 193 192 182 182 182 179 182 167 152 163 171 172 168 172 174 144 134 147 163 153 141 149 167 162 140 156 174 182 189 192 184 181 183 182 175 163 171 192 178 168 167 172 188 174 152 142 131 142 139 139 140 134 128 110 107 100 107 135 137 110 86 86 100 110 107 102 92 61 25 27 34 29 31 37 54 38 43 
29 34 38 35 69 77 76 67 83 111 138 154 173 183 191 199 203 196 190 185 183 185 182 167 182 184 175 178 185 183 157 151 161 172 159 155 167 181 178 163 169 196 201 193 194 198 190 187 188 179 170 187 205 188 169 167 178 195 183 163 160 145 139 140 147 165 144 135 126 116 110 128 154 149 125 101 95 104 115 116 112 96 67 26 35 37 31 32 42 46 41 43 
27 30 37 42 71 78 82 68 87 113 135 158 173 188 201 207 211 208 206 198 196 193 190 185 195 201 194 192 190 183 181 175 181 191 177 173 181 180 176 181 196 210 209 197 196 198 206 204 205 197 188 197 211 199 173 179 188 200 199 183 167 168 151 147 149 174 160 148 141 135 131 151 158 149 137 119 110 118 122 125 115 104 70 32 39 45 29 31 46 35 42 45 
25 27 40 50 70 81 83 76 94 115 138 159 174 188 202 209 215 217 216 214 213 211 203 195 200 201 197 198 195 189 182 186 192 200 201 190 189 187 182 197 209 214 210 194 195 203 209 217 216 209 196 197 202 206 194 185 194 204 207 196 179 180 164 159 163 171 167 161 158 150 150 166 165 157 146 127 120 130 135 131 122 102 80 39 46 52 27 33 43 33 34 47 
26 29 41 53 71 83 90 84 97 119 141 158 177 190 203 212 219 222 223 225 222 220 215 211 212 213 207 207 202 197 189 188 189 195 199 207 205 206 208 204 203 206 207 202 207 213 221 217 216 209 204 200 204 207 206 203 208 214 212 201 186 190 184 180 181 177 176 171 168 167 164 167 165 158 151 135 132 136 144 137 129 106 88 47 53 58 27 35 35 31 34 50 
33 29 37 54 74 86 98 93 99 120 144 160 175 190 205 215 224 228 229 231 228 226 218 221 222 219 217 213 210 205 203 201 204 204 202 206 210 210 210 204 197 199 203 206 213 216 219 219 217 207 202 201 204 206 208 208 212 218 218 212 193 191 190 185 183 188 187 182 178 174 173 175 170 167 161 147 142 147 150 139 129 108 96 54 61 58 32 35 25 30 36 45 
35 31 33 50 79 85 103 100 100 122 142 159 176 191 204 216 223 230 232 235 233 229 225 230 229 229 226 225 223 222 224 222 223 219 222 222 224 221 221 218 212 206 198 200 212 216 218 220 219 205 196 196 203 210 213 215 219 225 224 220 207 199 199 195 191 192 195 192 190 187 186 184 179 175 164 154 151 154 157 144 126 111 100 60 64 56 35 29 21 29 41 39 
30 33 39 43 79 89 101 106 105 124 138 156 174 191 203 217 224 232 237 241 239 234 235 239 240 240 239 238 235 236 235 234 232 231 231 234 234 234 230 224 223 219 209 208 214 219 221 219 220 209 203 202 208 212 213 221 225 226 226 223 214 206 204 203 203 200 200 197 196 194 195 192 187 181 170 157 161 157 161 144 120 112 105 62 62 52 42 20 19 31 38 39 
26 35 36 36 85 94 101 120 112 128 136 155 171 186 200 212 222 230 237 240 242 239 243 248 250 250 249 248 245 245 245 243 241 240 241 242 241 242 241 232 227 223 219 221 221 222 220 221 221 217 215 214 211 211 214 225 227 229 228 228 220 212 210 213 214 214 212 210 207 203 203 198 192 187 173 165 165 165 162 141 118 114 104 67 59 42 47 16 19 26 37 41 
26 39 33 34 88 93 104 126 124 127 133 155 168 182 195 209 218 228 234 239 240 240 248 252 253 255 253 252 248 249 247 248 247 245 244 244 245 245 247 242 235 228 225 229 231 229 228 227 227 225 223 221 222 222 223 229 230 232 230 229 226 215 214 215 219 222 220 220 216 213 208 204 198 192 177 170 169 171 163 134 122 123 100 71 53 36 42 17 19 28 35 41 
28 39 32 29 70 91 104 133 132 126 127 154 168 182 191 204 215 224 230 234 235 239 247 252 253 254 254 252 250 250 251 250 249 249 247 246 246 246 249 246 243 237 232 236 235 233 231 233 231 227 225 225 231 232 231 235 238 238 235 234 233 226 221 221 223 225 224 223 222 218 214 210 202 192 178 174 172 177 158 129 130 128 96 65 51 38 34 14 22 27 34 40 
29 35 35 26 55 86 100 135 142 129 129 149 165 179 188 203 211 219 229 231 232 239 246 251 253 254 253 252 251 250 250 250 250 249 246 246 245 247 249 248 244 240 235 237 237 234 234 234 230 228 228 227 231 233 231 235 240 241 239 237 235 226 224 223 224 224 224 224 220 217 215 210 204 191 177 178 177 174 157 130 136 129 88 62 47 46 21 12 24 27 31 35 
31 28 34 26 39 86 98 130 150 135 133 148 162 175 186 198 207 214 224 226 230 240 247 251 251 253 252 250 250 250 249 249 248 245 244 244 244 245 248 247 243 238 236 235 234 234 234 234 230 228 229 229 228 230 232 236 238 240 239 236 235 226 223 223 222 221 223 219 218 215 213 209 202 188 178 182 178 167 157 137 138 126 79 57 44 38 19 9 20 30 31 29 
29 22 27 26 30 78 99 116 149 139 133 144 162 173 182 194 203 211 217 222 227 240 245 248 249 250 251 247 248 248 246 245 244 240 239 241 241 243 246 245 239 235 233 231 229 230 230 232 230 229 229 230 227 228 231 234 235 237 237 236 234 226 222 219 219 217 218 218 215 213 209 208 197 185 183 183 173 165 152 140 137 119 72 50 42 24 17 15 15 30 35 30 
27 24 14 17 28 54 85 109 129 142 134 143 157 169 180 190 200 206 213 215 228 237 242 245 246 248 247 246 245 241 239 239 238 235 235 237 236 240 241 240 235 229 231 226 225 228 230 230 232 232 231 230 229 228 230 234 233 235 233 235 232 225 219 217 216 214 213 214 211 210 206 202 190 187 185 180 173 159 145 141 138 106 65 49 29 14 15 18 15 20 35 39 
20 23 13 8 14 44 61 93 115 132 133 145 155 168 175 187 196 203 206 215 226 233 238 241 243 243 245 242 240 235 231 236 235 231 232 231 230 237 238 233 229 228 229 226 222 229 227 230 232 235 229 229 229 228 228 233 232 236 231 230 230 225 217 211 213 212 210 208 207 207 202 197 186 184 183 176 174 156 141 141 131 90 56 34 22 10 16 15 19 17 24 42 
20 20 13 8 2 20 39 67 92 116 123 142 156 166 170 181 192 196 201 210 220 230 233 236 239 240 238 236 233 229 228 236 235 229 229 225 223 232 233 228 224 228 230 224 223 231 227 221 230 233 228 225 227 229 227 232 230 233 229 228 228 224 218 206 206 209 204 202 203 202 198 189 183 182 177 174 171 147 136 135 119 67 40 24 13 9 12 16 18 20 17 29 
21 18 12 8 2 14 19 39 61 86 108 132 152 165 170 176 185 191 197 207 216 222 228 230 233 234 232 229 226 224 227 231 232 227 226 218 214 223 226 220 219 223 224 222 223 233 227 219 222 226 221 220 221 227 227 228 230 227 228 225 222 220 213 201 203 204 199 196 198 198 193 185 180 179 172 174 161 136 127 119 93 47 18 11 14 7 11 12 17 18 16 20 
18 19 14 5 5 5 21 26 34 55 93 116 148 161 165 171 181 185 191 202 210 215 223 223 225 226 223 222 220 220 221 222 223 221 220 212 206 206 209 205 204 211 211 216 221 224 219 207 209 211 204 205 210 217 218 222 225 221 219 216 215 214 204 196 194 197 192 192 193 193 186 179 177 175 169 165 142 125 107 96 65 26 9 7 14 10 7 13 13 15 16 17 
15 17 14 6 6 1 20 27 29 32 61 92 134 149 160 165 176 181 185 195 202 208 212 215 217 215 215 211 210 214 207 204 207 208 207 201 200 199 193 189 187 193 197 200 207 211 205 189 196 197 194 196 204 201 204 208 205 204 201 206 206 202 196 189 188 190 185 186 187 185 182 174 173 166 156 144 128 104 86 74 43 15 8 4 13 12 8 11 13 16 14 22 
14 16 12 9 5 1 11 25 31 29 58 80 120 136 153 163 171 180 183 185 192 197 203 203 206 207 202 201 199 201 199 188 186 193 196 197 194 194 193 184 180 183 182 180 184 193 187 181 187 187 182 181 190 192 192 188 184 181 186 192 193 190 190 181 182 184 183 181 180 181 175 169 161 153 138 123 106 92 74 54 23 16 7 3 9 13 8 10 14 15 13 20 
11 13 12 8 4 3 4 25 30 28 54 72 111 130 145 161 171 176 180 181 181 185 189 192 192 192 192 192 190 193 191 194 187 190 195 201 198 192 193 194 188 185 178 175 175 181 181 174 176 177 170 171 176 177 177 174 172 174 180 186 186 184 184 178 180 182 180 179 174 173 169 163 151 144 124 113 99 88 66 37 16 16 4 6 5 11 8 8 13 13 15 12 
12 11 14 6 3 8 0 18 32 25 51 66 99 128 139 157 167 173 175 178 178 172 174 177 177 181 184 185 186 191 194 198 197 196 199 201 202 196 192 191 191 189 184 181 183 187 190 182 176 167 159 156 159 168 169 172 177 179 184 188 189 185 180 173 182 178 176 176 170 166 162 156 144 138 117 107 96 80 56 29 15 14 3 8 5 6 9 9 13 11 15 11 
14 11 14 6 4 5 2 14 29 27 48 62 88 124 133 153 162 168 172 176 175 170 167 167 171 175 179 183 186 193 195 203 205 202 203 203 202 199 193 189 186 186 186 188 191 192 193 192 180 166 160 153 153 163 167 174 181 186 185 184 184 179 172 174 180 178 172 170 165 160 157 149 140 127 111 102 90 72 47 22 16 14 2 8 6 8 6 10 14 7 15 13 
18 12 10 6 4 5 5 11 26 29 43 62 77 115 130 144 158 165 170 171 173 168 166 166 170 173 178 183 188 195 199 205 206 206 205 203 202 198 195 195 191 189 188 193 191 191 192 188 182 173 171 166 162 169 168 171 175 179 178 174 174 172 171 173 178 175 168 164 158 153 151 143 134 119 109 95 85 62 38 17 20 11 3 6 6 7 8 8 13 11 11 15 
15 11 8 7 6 10 2 10 22 29 41 63 68 105 123 135 154 161 167 168 170 166 167 166 167 173 179 181 189 191 200 204 209 205 204 201 199 200 199 200 200 201 198 195 192 190 191 188 187 188 186 180 173 174 171 169 170 171 171 169 166 169 169 176 173 172 166 157 154 147 145 136 129 113 106 91 79 54 30 14 21 6 6 5 7 7 8 11 10 14 12 16 
14 9 10 8 8 8 7 9 19 27 37 61 66 92 116 131 146 159 164 166 168 170 167 167 168 174 178 182 187 190 197 203 205 204 201 198 198 200 202 204 207 207 205 199 197 196 196 195 197 199 198 189 186 178 172 171 169 169 169 170 166 165 169 173 171 168 161 153 148 145 138 132 126 110 100 91 67 47 22 17 17 4 7 3 10 5 10 11 10 12 14 15 
13 10 7 9 6 8 10 11 17 26 34 54 67 83 106 125 137 151 162 167 169 171 170 170 171 174 175 183 182 186 188 194 197 197 197 193 194 197 199 201 202 203 201 201 200 198 201 202 201 202 199 193 190 183 172 173 172 172 168 166 166 163 168 168 166 161 152 149 143 142 136 131 119 108 97 82 59 37 18 21 11 4 8 5 8 6 9 9 14 10 12 17 
14 7 10 8 8 12 12 11 17 22 35 43 63 75 97 120 136 147 153 163 168 168 169 174 172 167 173 178 181 184 182 178 183 186 189 191 189 186 187 185 184 185 188 192 193 188 190 194 192 192 193 190 186 182 172 168 171 166 162 163 163 160 161 162 157 155 150 145 141 139 132 134 115 103 91 72 48 31 17 20 9 4 10 6 9 5 9 8 14 12 10 15 
11 11 12 8 15 13 10 17 21 13 31 37 54 66 90 114 136 145 150 152 158 157 163 173 182 177 170 172 181 180 178 173 169 167 171 178 185 184 180 176 175 174 169 176 175 171 175 180 180 180 183 182 178 174 164 158 162 159 159 160 155 151 152 152 154 155 149 143 141 132 135 130 109 97 82 56 44 24 20 16 6 8 10 9 7 7 8 10 12 14 11 14 
15 11 12 13 18 13 13 24 20 8 25 34 43 64 76 111 133 140 149 151 154 152 153 165 173 180 174 171 167 167 171 176 176 174 178 170 173 175 169 169 163 158 155 158 159 158 160 172 171 175 175 169 162 161 157 152 158 160 160 156 146 139 150 160 163 158 149 139 136 127 135 125 103 89 67 49 37 22 19 11 8 8 11 11 8 8 7 9 9 11 15 15 
15 10 11 14 16 13 18 23 15 7 20 31 35 54 73 97 132 136 142 148 151 156 157 162 167 174 176 177 172 169 163 172 175 176 180 180 174 171 163 161 159 160 160 157 158 158 156 165 166 169 169 163 162 160 159 158 162 164 156 150 146 151 164 166 164 156 145 139 131 127 133 115 92 76 55 43 29 20 16 9 9 11 13 11 9 8 9 9 10 11 18 19 
13 10 11 14 10 9 16 20 14 11 15 26 30 42 68 83 126 135 135 142 149 154 163 169 171 170 173 176 177 176 177 177 175 180 185 181 175 175 173 176 184 180 175 176 171 157 155 156 158 158 159 157 160 158 162 161 165 162 154 152 153 153 159 158 156 153 146 136 128 128 127 103 75 63 46 38 21 20 13 12 11 13 14 12 7 11 8 12 8 9 19 21 
15 13 11 12 11 14 19 16 15 15 16 19 26 33 60 78 117 130 132 132 143 149 156 170 176 178 180 181 185 185 189 196 195 194 198 191 186 189 195 196 195 193 184 186 187 171 164 152 149 149 152 153 159 156 157 158 161 160 159 152 146 144 151 156 157 153 146 133 130 123 112 87 63 50 40 28 18 13 11 13 11 15 13 9 7 10 9 12 8 7 18 20 
14 19 12 11 12 17 23 16 15 18 18 15 18 33 51 74 114 130 127 131 137 142 150 160 169 175 180 184 189 189 191 193 203 199 197 193 193 196 202 201 198 194 187 185 182 179 175 171 166 165 163 158 161 157 158 160 160 160 158 153 150 149 154 155 153 145 137 133 123 114 94 73 52 44 34 21 12 13 11 13 11 15 14 8 9 12 9 12 8 8 15 22 
14 20 12 14 16 20 20 17 13 19 18 15 10 32 44 67 110 131 127 127 131 136 145 152 160 166 173 178 182 185 187 186 191 199 205 202 195 195 197 197 200 196 195 191 188 181 178 179 181 179 172 166 164 161 160 157 161 161 160 159 151 152 151 151 143 136 133 126 114 101 79 58 44 39 28 11 12 13 14 12 10 16 12 9 11 11 6 14 6 8 13 21 
17 18 15 19 20 24 19 19 14 21 19 17 10 23 43 59 105 129 131 127 126 131 136 147 151 159 167 172 178 184 187 188 188 191 199 202 199 197 193 194 196 196 195 190 190 186 184 179 173 170 171 171 171 170 167 165 167 166 162 153 150 149 146 141 136 131 127 120 104 88 64 46 39 27 18 9 13 15 15 13 12 16 11 10 12 8 8 12 8 8 12 17 
16 16 18 24 30 25 21 22 17 23 18 16 17 18 37 58 98 127 132 132 128 126 128 139 147 154 161 167 170 180 185 189 188 189 193 195 194 194 188 186 187 185 185 185 185 184 183 179 174 168 169 170 169 168 165 165 164 160 155 151 147 145 139 131 130 124 118 111 94 68 50 38 29 15 13 11 15 15 18 14 13 13 9 13 11 8 10 10 7 7 14 17 
19 17 22 22 28 25 21 22 16 20 16 16 15 26 26 59 91 124 129 134 131 129 128 131 140 148 157 161 166 171 180 186 187 186 190 191 193 194 189 187 185 183 181 180 179 180 180 174 174 173 170 167 162 162 161 160 160 153 152 146 141 138 130 129 126 118 113 103 80 51 36 25 11 13 14 10 14 17 20 14 12 13 12 12 9 8 9 7 7 7 15 10 
18 17 24 21 28 22 17 18 12 15 13 15 10 23 26 48 93 121 132 135 137 135 134 133 135 140 149 156 161 166 170 177 185 187 189 193 194 196 195 193 190 188 185 179 176 173 174 172 171 167 166 162 159 157 160 157 154 151 146 140 136 126 128 130 123 116 103 87 59 34 24 10 9 12 12 11 15 18 16 12 10 14 12 10 9 9 6 5 8 11 14 7 
17 17 21 24 25 21 16 12 13 13 13 11 12 22 29 44 89 122 136 136 136 138 139 138 140 140 145 154 160 167 170 175 183 187 190 193 195 195 197 196 193 195 190 187 182 177 175 170 167 165 165 162 160 161 159 154 150 144 140 132 128 129 133 128 119 108 92 70 43 23 12 8 9 10 10 13 14 13 13 8 10 15 9 10 7 5 5 3 10 12 11 7 
16 20 21 23 22 16 13 10 13 11 10 10 13 22 33 46 88 121 135 142 140 138 140 139 143 146 145 153 160 168 172 178 181 187 189 193 197 196 195 195 194 194 194 191 190 186 182 176 174 170 168 165 163 160 155 150 145 140 135 132 133 134 133 125 113 98 77 52 31 10 7 7 8 7 11 10 11 12 9 9 9 11 7 5 7 5 5 4 13 12 6 11 
22 18 22 20 16 13 11 13 14 11 10 10 22 25 37 61 94 118 132 141 145 141 140 142 144 144 147 150 156 161 170 176 181 188 189 193 197 199 199 201 198 195 195 196 193 192 190 188 184 181 177 172 165 160 156 150 148 142 139 138 136 134 130 120 106 89 59 42 19 8 6 5 7 8 8 9 6 7 6 7 10 8 5 7 4 6 5 5 12 7 9 20 
30 19 16 15 15 12 10 14 15 12 11 15 26 30 50 76 97 119 133 139 145 146 140 142 145 143 146 150 152 155 163 169 178 186 192 196 199 204 205 207 206 204 204 202 199 196 194 193 190 185 182 176 172 165 161 156 152 147 144 137 137 134 125 114 98 72 51 35 11 7 5 4 7 6 9 6 5 5 6 6 7 4 5 8 4 3 5 5 10 6 14 21 
23 17 19 13 13 13 14 15 21 14 14 24 30 44 66 84 101 125 130 140 143 146 145 141 144 144 143 148 150 156 158 162 170 178 184 192 195 203 205 206 207 207 206 203 200 198 196 193 190 185 183 178 171 167 161 156 154 149 141 140 138 130 118 106 81 65 42 29 11 6 5 4 2 4 6 4 2 5 6 5 5 4 4 6 1 3 7 5 14 5 17 21 
21 17 17 13 15 13 14 20 21 18 19 33 42 57 75 90 104 128 135 136 144 146 145 143 143 144 145 143 147 151 154 158 160 166 173 179 187 192 198 201 202 201 198 198 197 194 193 190 186 180 178 172 165 160 156 155 150 144 141 139 134 123 110 94 72 55 42 21 10 6 3 1 1 2 2 2 1 5 4 2 5 4 5 3 2 4 8 9 12 6 18 23 
18 20 18 14 20 12 18 22 23 21 27 43 51 67 84 98 109 126 140 139 140 147 145 143 141 142 142 141 143 144 151 152 156 159 161 166 174 178 186 190 191 191 191 192 190 189 187 183 176 173 168 164 157 154 152 149 144 138 140 133 126 116 105 85 65 50 40 17 13 8 0 2 1 2 0 4 2 3 2 2 5 3 4 3 3 8 9 11 8 11 20 27 
