P2
# Imagen
92 112
255
150 141 147 148 151 151 152 150 152 150 128 124 113 129 123 99 96 99 109 108 94 85 45 57 65 49 40 51 44 32 39 43 36 29 38 38 36 40 39 44 39 39 44 40 39 41 34 37 50 39 41 42 45 48 61 55 46 51 40 48 50 51 59 75 41 83 121 134 130 135 136 135 137 144 144 148 150 147 150 148 148 146 151 144 145 147 150 146 149 147 146 146 
149 149 136 148 144 150 152 146 153 152 127 119 109 115 105 99 96 120 92 108 71 37 56 64 63 40 35 42 41 35 36 38 34 32 31 36 33 37 42 39 34 33 40 32 37 34 37 30 34 45 36 40 49 41 48 55 49 49 49 49 43 45 48 55 45 47 47 84 116 125 140 134 132 140 140 146 149 147 143 149 146 147 143 151 146 148 147 148 147 146 149 146 
145 143 141 136 147 148 148 147 143 138 112 106 104 107 109 106 103 105 89 57 47 48 69 56 49 36 27 40 37 36 39 37 35 34 30 32 31 40 39 39 26 38 40 37 28 39 34 37 26 41 38 44 46 50 37 43 45 46 43 51 59 41 58 45 49 53 59 62 64 70 109 145 132 129 135 137 146 144 146 144 147 144 148 144 146 146 149 143 146 144 148 147 
140 133 136 124 128 146 143 136 121 111 97 104 114 113 113 99 97 97 43 61 65 63 53 54 48 28 26 40 44 35 37 32 41 31 33 31 35 33 44 40 32 35 41 40 26 43 38 37 37 30 34 49 44 40 42 35 41 36 53 41 43 48 48 54 48 53 53 55 67 69 68 79 122 132 135 135 141 140 144 149 146 148 147 145 147 144 147 146 144 147 144 145 
144 134 134 125 115 119 126 110 100 97 104 107 121 106 82 60 58 72 65 63 72 57 37 60 45 31 22 37 49 38 43 36 36 35 34 28 40 26 47 40 30 38 37 40 40 35 44 42 51 40 34 41 58 45 33 43 38 33 43 55 34 47 40 48 46 34 53 58 61 57 70 71 78 81 116 144 137 136 136 146 146 145 143 142 145 142 150 149 143 151 147 146 
144 138 135 130 130 113 101 104 100 110 114 108 83 46 44 54 76 70 71 56 54 52 32 60 47 31 23 33 53 37 46 48 30 36 34 31 44 28 45 49 33 38 39 32 63 29 53 41 42 57 46 30 53 66 37 47 44 39 36 44 56 36 46 35 56 30 36 62 53 63 57 67 71 95 74 91 144 136 134 129 150 146 151 144 145 143 151 146 142 151 146 146 
139 135 130 127 126 112 105 103 108 116 107 62 42 50 68 71 74 66 55 46 44 47 38 60 47 31 29 33 48 36 39 51 31 40 36 35 41 39 44 57 42 34 47 33 50 42 43 40 47 50 54 42 37 60 57 39 50 50 35 41 47 49 40 38 41 50 20 59 42 50 66 58 65 79 98 96 80 135 138 133 134 143 142 148 149 139 147 145 145 148 143 148 
140 133 131 124 111 107 113 107 121 101 62 35 57 67 70 66 55 52 53 47 37 45 44 55 45 35 34 38 41 31 36 53 41 37 37 43 35 43 42 56 55 46 43 41 37 61 40 34 43 57 48 56 39 47 63 53 50 59 42 40 48 44 46 43 37 52 41 40 65 35 58 49 57 72 81 89 94 85 119 152 139 142 142 146 146 135 143 147 147 147 143 147 
131 121 113 111 109 110 116 118 95 43 34 66 65 74 64 47 39 36 55 45 44 43 48 47 47 34 36 38 44 28 44 55 46 33 51 43 40 41 38 53 57 50 48 48 38 72 51 37 41 56 50 54 54 44 59 71 45 60 60 40 53 42 51 56 53 34 47 57 51 57 51 52 35 66 78 75 83 101 79 79 145 139 139 142 139 137 138 147 142 147 146 144 
121 110 104 108 110 114 115 95 45 31 60 72 76 64 53 41 34 40 44 46 42 39 39 46 44 41 34 42 45 38 41 61 57 28 49 50 37 44 44 49 56 54 51 49 38 64 69 42 30 58 49 55 55 44 50 77 55 33 73 43 57 43 50 65 53 49 38 59 64 57 45 58 33 40 68 68 75 76 113 79 64 135 146 134 131 139 144 142 145 146 144 147 
106 100 106 115 120 117 94 44 43 59 65 68 61 48 47 38 33 46 49 42 36 35 43 42 47 46 37 41 47 41 38 72 58 30 43 53 36 40 44 57 48 60 56 49 37 58 69 58 34 40 47 51 49 43 46 72 79 28 59 56 59 52 40 68 55 52 48 36 72 53 55 54 56 32 44 64 68 69 66 119 82 54 145 144 127 135 144 142 143 145 140 143 
102 113 109 115 127 93 41 44 59 72 55 46 48 41 51 48 31 49 42 44 41 36 40 39 43 49 32 42 53 43 45 75 58 40 35 57 45 32 43 60 60 50 69 62 44 50 64 55 53 37 36 50 49 31 55 42 86 47 34 53 60 71 21 60 64 59 50 42 45 63 61 57 72 29 45 43 65 74 65 73 105 89 50 137 138 130 138 142 138 145 142 140 
115 113 112 120 105 48 41 72 68 52 44 40 51 44 49 52 40 42 55 47 43 45 42 39 50 57 37 50 47 51 49 67 63 47 39 62 47 34 35 62 67 43 66 66 66 53 56 59 52 53 36 43 50 41 52 24 75 68 37 38 57 79 27 36 66 66 45 69 22 65 54 57 64 59 44 42 47 67 72 66 69 106 94 56 143 141 135 136 139 144 145 145 
111 112 115 111 48 40 73 66 49 38 39 46 48 45 51 56 39 42 63 48 48 47 57 39 61 55 44 57 49 49 50 60 67 49 35 58 54 40 35 62 70 49 49 70 67 62 59 70 44 52 48 37 59 42 53 45 36 71 46 41 44 78 41 27 46 56 57 60 43 43 47 63 47 78 51 45 45 56 58 72 59 85 111 93 70 149 135 135 131 143 142 144 
109 118 111 70 27 63 75 58 32 45 43 54 47 44 46 60 40 42 63 46 43 58 59 41 64 58 53 62 53 59 48 63 58 59 44 59 58 43 36 55 69 58 42 65 59 65 62 80 48 52 67 49 62 43 58 48 44 50 54 50 39 72 56 37 36 38 62 42 64 28 45 51 54 55 82 41 45 52 52 59 64 75 87 106 65 124 137 138 133 131 139 140 
113 121 99 41 35 59 58 51 35 41 52 46 47 42 53 61 51 55 55 54 45 60 63 51 65 61 48 66 54 65 49 55 58 62 51 55 58 59 36 60 69 63 58 60 61 74 57 91 60 55 71 76 61 53 54 54 54 47 65 48 46 57 74 41 57 33 65 37 67 35 41 37 63 48 78 55 40 49 51 46 63 75 76 79 81 101 133 129 129 133 135 143 
113 126 64 37 51 53 52 47 37 44 58 44 45 57 65 62 48 58 61 58 52 60 64 52 65 64 58 65 60 70 59 60 69 65 60 64 56 79 56 62 79 71 59 59 61 76 62 85 79 62 70 86 81 61 60 63 63 63 85 47 48 55 82 59 55 48 61 47 64 38 31 43 48 53 61 58 47 52 44 54 59 78 69 81 81 65 133 126 130 132 138 140 
110 106 50 43 56 53 52 44 41 56 65 48 47 50 58 60 48 56 55 54 51 66 57 60 69 60 72 63 72 76 69 63 80 81 71 60 68 87 74 71 75 83 68 58 68 78 70 82 76 83 77 91 92 72 72 68 61 77 84 68 48 74 86 75 59 62 58 54 55 65 42 45 51 45 61 63 50 59 53 48 62 70 65 66 82 68 96 137 128 138 130 136 
102 74 49 56 54 51 54 57 50 57 71 58 48 49 62 63 55 64 60 56 60 65 57 65 66 66 84 63 77 87 84 69 79 83 75 62 72 84 79 73 72 78 77 71 62 85 77 76 92 94 87 85 92 82 67 80 61 84 83 92 55 83 81 87 74 66 61 67 48 63 54 43 54 38 52 72 58 58 43 57 56 62 70 82 99 96 51 124 123 137 135 126 
76 30 66 71 54 51 55 60 59 59 67 72 50 60 57 67 65 57 69 53 58 64 61 65 68 67 82 63 72 99 89 72 77 83 84 57 73 83 82 74 69 69 78 72 70 84 79 68 101 89 87 79 95 98 66 77 80 70 84 97 69 78 78 91 84 84 49 87 44 59 54 46 58 51 42 78 64 44 54 55 60 49 74 84 75 101 41 89 127 122 135 135 
53 23 80 82 59 54 59 57 64 60 73 63 48 58 51 60 65 72 76 57 60 68 60 67 71 68 71 63 79 95 93 73 78 84 92 62 79 79 85 80 72 66 76 72 69 83 77 69 101 97 89 68 89 96 80 91 79 70 73 92 85 64 72 93 88 86 53 86 52 59 62 53 63 55 49 73 66 44 65 55 46 67 63 78 55 92 68 46 118 118 133 134 
27 25 72 77 58 54 67 54 57 61 67 62 47 64 66 54 71 75 79 56 74 73 61 66 69 78 71 75 89 84 81 80 84 87 96 79 84 87 78 83 79 70 81 83 74 90 75 71 90 108 87 75 79 95 79 87 91 69 64 87 89 69 71 78 92 94 62 82 71 63 61 45 54 64 49 60 58 48 54 60 65 69 54 64 57 75 86 33 100 119 130 130 
27 38 69 62 61 57 67 60 47 52 60 67 62 60 75 72 74 70 78 68 69 79 74 63 71 80 73 81 92 73 70 77 83 89 88 80 88 86 79 79 90 76 81 84 86 78 83 64 88 111 86 73 75 85 81 74 84 64 67 79 84 61 80 70 80 85 72 78 93 67 84 49 58 59 62 48 55 49 68 69 60 61 48 51 52 67 82 44 64 116 119 126 
41 46 62 62 60 48 61 57 53 48 63 60 77 64 68 85 84 69 68 81 78 86 82 64 77 78 69 83 86 78 61 74 76 91 74 83 81 88 81 83 88 86 90 87 82 77 86 72 81 110 86 83 72 82 80 72 76 69 66 76 81 66 77 74 80 84 87 72 113 81 86 67 60 69 52 51 47 53 57 52 48 55 59 54 43 62 83 61 56 120 106 124 
53 56 52 57 63 46 57 55 49 44 64 68 84 78 60 94 87 83 65 78 93 88 88 69 78 74 67 77 77 84 67 74 79 92 71 78 79 84 78 89 89 105 94 102 88 82 99 101 88 110 98 87 79 79 71 66 73 69 70 73 82 85 84 85 92 90 97 81 116 94 86 90 80 84 52 58 59 53 49 40 59 64 58 59 48 64 77 79 56 104 111 114 
55 46 68 55 61 52 50 54 54 51 64 85 81 71 71 92 90 93 79 77 100 96 86 82 81 71 60 80 70 76 71 74 84 92 76 79 75 87 79 92 88 107 103 106 99 93 101 104 101 110 122 97 84 84 70 77 69 76 78 75 86 86 101 87 93 86 105 100 116 96 100 105 106 95 84 72 77 74 78 60 63 60 51 50 47 47 75 80 53 95 112 99 
57 50 61 66 51 56 54 50 61 63 82 84 84 81 84 94 93 93 100 87 98 97 91 95 85 94 70 74 87 70 70 75 88 94 85 85 89 99 115 99 91 94 97 120 102 95 108 102 109 112 127 113 100 106 92 91 84 93 97 96 98 95 110 94 110 96 118 112 113 106 110 117 114 109 91 79 69 65 80 77 77 67 66 49 49 35 68 91 61 78 117 92 
59 47 53 64 62 57 60 54 61 70 82 88 103 85 93 92 98 90 94 100 93 112 102 103 117 105 91 90 105 82 98 110 113 109 119 101 137 118 142 135 118 102 101 123 123 108 119 122 110 129 135 143 127 136 127 117 111 119 121 126 121 122 129 118 131 120 132 137 119 120 113 118 118 116 102 83 77 61 66 66 75 71 70 65 48 46 72 93 64 55 125 106 
63 47 51 61 66 49 59 50 71 80 81 97 98 83 100 98 95 88 93 99 102 119 122 121 140 124 132 130 134 120 116 144 148 135 156 158 165 139 157 173 160 123 136 123 128 126 122 144 112 125 145 164 157 158 155 161 141 155 147 157 157 137 159 136 158 156 152 153 144 130 113 117 119 122 106 87 83 71 64 66 71 70 68 62 51 42 71 83 79 37 111 125 
53 58 56 60 52 51 60 59 67 84 92 94 97 103 99 96 92 95 92 96 106 102 118 124 147 159 163 167 176 166 152 168 191 160 186 195 193 177 176 216 200 153 157 155 147 144 147 157 143 139 161 179 174 178 176 175 168 164 176 170 170 180 187 162 179 185 179 164 157 133 127 129 130 130 117 100 90 76 65 62 67 67 62 66 54 46 59 82 77 47 98 132 
47 69 58 55 56 60 58 66 72 100 103 85 94 106 107 97 103 97 112 104 113 100 115 122 140 157 169 184 202 204 181 161 189 176 197 198 199 198 198 217 197 191 185 191 177 179 181 192 189 163 174 181 190 183 199 188 177 188 190 175 174 171 191 168 154 173 165 161 145 141 146 135 141 132 121 118 102 83 69 60 63 63 59 67 53 53 60 72 78 50 76 131 
59 60 61 60 65 66 64 67 74 104 91 87 92 106 116 108 114 115 119 104 112 114 126 131 145 151 160 186 183 197 187 171 175 187 181 190 196 196 214 200 195 203 206 204 198 188 201 203 210 191 186 204 197 201 207 200 185 196 187 188 181 170 183 182 163 149 156 157 153 150 150 148 138 130 140 124 111 88 78 68 62 55 50 62 49 51 59 71 77 47 76 116 
50 59 67 55 64 78 72 66 83 102 84 93 102 113 120 111 120 123 136 128 131 132 136 142 152 153 163 183 183 195 193 182 169 194 182 187 188 186 201 190 196 198 197 199 206 190 207 208 202 196 191 210 205 200 208 208 188 191 193 191 185 175 193 187 176 152 154 154 151 151 151 144 147 134 128 127 113 111 88 80 66 64 59 51 59 38 50 67 71 51 52 114 
48 56 54 51 74 81 76 71 94 95 93 100 110 119 123 109 124 136 140 141 138 138 141 147 153 152 160 178 192 195 191 190 180 189 181 186 187 198 211 198 190 194 204 201 190 191 212 215 205 207 193 217 215 199 205 216 197 195 194 199 190 183 198 194 184 153 153 155 147 145 141 135 143 143 128 129 123 112 102 86 70 62 62 55 55 45 37 53 79 59 32 98 
51 51 57 45 62 82 75 81 94 88 99 103 112 123 121 116 125 135 141 135 130 139 142 162 159 153 181 188 188 181 188 183 191 182 186 186 189 205 217 210 201 207 217 220 204 203 220 226 216 218 205 218 221 213 210 221 208 204 203 195 191 191 198 197 187 183 160 156 153 149 134 137 132 135 133 126 136 124 121 96 75 62 60 54 65 50 42 38 68 62 36 63 
51 55 53 39 59 75 71 78 98 92 87 106 111 113 115 130 117 128 140 131 127 153 153 169 157 163 194 192 190 195 202 201 210 204 201 192 207 216 223 220 208 215 218 220 219 207 227 225 228 223 220 217 228 218 216 221 212 208 208 205 198 196 200 196 193 186 184 166 151 147 143 137 132 130 126 121 133 125 119 103 79 70 63 51 51 60 45 58 42 68 40 55 
57 57 44 43 54 68 64 83 93 83 82 104 114 96 126 131 113 132 135 134 130 153 152 177 170 186 212 208 203 204 210 215 222 215 212 191 211 218 221 225 210 212 221 219 219 216 231 225 234 226 223 222 226 225 214 221 214 207 212 209 201 200 198 195 194 192 189 179 159 157 153 141 144 133 122 117 124 122 115 108 85 76 67 52 41 61 42 65 43 51 52 43 
52 62 43 52 56 58 61 78 91 71 79 105 107 104 129 124 120 128 135 141 133 160 163 177 189 204 217 213 209 215 217 222 217 218 220 209 209 213 220 223 214 208 220 219 221 223 221 228 231 224 226 224 227 228 218 219 218 210 213 212 208 197 204 198 200 194 190 187 172 162 162 148 146 136 126 113 111 113 115 99 91 75 68 61 48 45 34 50 70 48 54 33 
48 50 47 52 52 51 55 85 83 70 74 101 96 100 127 128 121 135 139 145 145 169 169 178 197 213 215 216 211 220 217 224 223 216 219 215 220 212 216 222 218 214 218 222 222 221 218 227 226 235 224 224 227 228 224 222 221 214 213 214 211 202 207 202 198 194 189 188 182 169 166 163 150 144 123 122 104 106 103 95 83 79 64 52 52 42 40 25 83 56 53 25 
47 49 50 47 55 47 50 89 80 66 75 93 89 101 131 131 130 141 148 145 153 174 182 178 207 215 220 217 215 220 215 223 223 220 215 212 223 212 214 220 220 216 220 223 222 217 221 228 226 232 228 219 223 223 222 222 223 218 219 213 214 206 207 202 199 196 190 183 184 174 167 161 159 146 130 113 111 95 98 88 86 73 66 46 46 41 40 21 81 59 53 28 
47 59 35 43 55 41 59 74 73 62 71 85 83 102 144 128 140 150 147 157 160 177 182 177 206 214 211 214 216 215 216 215 220 219 221 213 221 217 221 220 222 225 221 224 223 221 222 222 224 228 227 218 223 221 223 221 224 221 216 214 212 210 205 205 202 195 191 184 185 183 162 169 159 160 139 124 118 101 89 89 75 74 54 42 45 36 38 25 62 64 45 47 
46 51 35 41 49 46 55 68 67 59 69 87 80 108 143 130 143 157 156 162 174 180 174 182 197 202 198 208 211 213 212 213 219 219 216 219 217 217 217 219 223 227 223 223 224 220 225 221 221 224 224 221 221 221 218 219 222 215 216 214 211 210 203 206 197 191 186 183 180 178 164 160 159 155 143 136 125 111 86 86 74 67 56 39 42 28 40 33 44 71 36 44 
53 45 44 39 44 52 50 61 61 55 65 82 83 119 136 133 150 162 164 163 176 178 175 168 184 187 186 197 204 204 200 206 208 209 207 217 213 215 217 220 219 224 222 223 225 220 222 220 220 223 221 218 221 218 218 222 219 214 208 209 202 201 193 192 187 182 182 180 175 172 162 155 157 157 148 134 133 120 91 84 72 64 57 36 39 29 33 38 38 63 52 30 
56 50 46 38 36 51 47 54 56 47 60 85 83 127 132 139 150 166 161 170 161 177 180 169 168 178 177 186 191 192 196 197 201 199 202 207 204 207 213 214 218 220 220 220 223 219 222 219 217 222 221 220 219 219 215 218 215 204 200 202 199 195 190 190 177 174 174 168 164 166 159 150 146 150 144 136 129 119 101 85 71 59 54 37 35 32 26 38 52 49 42 36 
49 47 49 39 36 49 50 54 49 41 66 74 96 124 134 148 149 163 158 169 160 173 176 183 173 178 176 181 191 192 196 198 197 196 200 203 205 206 208 207 213 218 220 219 224 221 220 220 215 217 221 221 220 218 216 211 203 198 198 198 199 194 188 188 179 175 171 165 157 157 153 149 141 140 144 134 130 123 109 84 72 70 48 37 31 30 32 33 60 51 36 48 
45 40 53 40 37 42 49 52 48 44 53 77 88 128 135 149 151 155 155 157 163 173 173 186 181 184 190 193 195 197 200 200 201 198 200 203 204 208 207 208 210 216 217 219 220 219 220 216 210 217 221 222 219 216 207 205 205 203 198 199 194 194 185 185 184 177 175 169 161 161 158 154 146 138 138 137 130 124 112 90 70 66 49 27 36 30 32 41 48 66 23 65 
34 31 47 44 36 42 44 56 50 46 50 70 89 129 135 152 147 145 150 162 174 187 184 191 191 194 197 201 205 206 207 204 205 202 202 204 206 209 208 207 211 215 217 216 218 217 215 220 214 217 220 219 218 213 205 203 206 204 199 197 197 193 188 188 187 187 182 177 177 167 167 159 153 140 138 131 126 127 115 89 73 65 46 33 30 31 31 52 45 62 38 51 
35 26 33 51 36 41 46 47 55 47 48 65 89 129 137 145 145 142 157 178 183 193 191 197 200 196 194 202 210 209 207 210 209 206 208 209 206 210 209 212 212 212 216 216 219 220 214 219 215 215 219 218 214 215 208 200 205 205 200 199 204 198 193 192 190 192 186 187 181 178 176 166 166 154 144 130 120 127 114 92 72 64 43 31 32 29 29 67 43 65 31 70 
42 14 37 32 40 38 44 44 46 41 51 62 96 135 132 134 139 150 171 186 184 195 200 201 202 203 196 191 203 208 205 207 210 209 212 211 208 213 209 211 211 212 214 217 221 217 215 220 219 216 218 218 212 211 206 202 206 207 204 202 202 204 199 197 194 193 194 190 182 184 175 173 170 161 154 136 123 121 118 95 72 59 40 27 33 29 24 65 52 46 40 81 
37 21 31 34 32 32 48 44 37 40 46 70 98 123 129 124 134 157 183 188 186 197 199 202 199 201 203 200 199 207 208 207 206 202 207 212 213 214 211 211 208 209 215 219 223 221 215 221 218 216 223 215 213 207 204 205 208 208 205 204 201 197 197 198 195 194 189 188 185 179 175 171 168 165 152 145 126 119 118 98 70 61 37 28 29 28 32 58 66 46 43 90 
54 21 21 32 32 36 45 42 35 33 40 81 106 116 125 134 143 161 184 192 190 196 196 202 197 201 200 201 201 198 204 202 206 206 209 205 207 212 212 213 211 210 211 216 220 221 219 219 219 219 220 215 211 205 206 206 206 205 202 202 198 194 193 197 194 191 191 189 180 176 173 175 162 157 149 143 131 109 106 95 73 58 35 28 34 30 31 63 74 59 50 92 
66 25 18 27 29 41 44 34 31 29 52 85 111 122 113 132 153 166 184 189 195 195 201 202 202 197 204 203 202 201 199 191 200 206 207 208 202 207 210 211 212 210 207 216 217 215 216 218 221 217 222 212 207 206 210 208 205 203 203 204 198 194 192 191 190 186 185 187 186 182 170 171 161 151 146 130 132 108 101 78 75 56 31 31 34 27 30 66 69 70 53 105 
56 34 20 23 33 40 42 26 26 32 56 89 112 122 125 132 165 186 192 203 195 206 212 214 213 213 224 207 203 201 193 183 183 200 203 192 195 203 199 203 209 209 206 207 212 213 214 216 216 214 214 208 206 210 212 211 205 209 206 211 205 197 196 190 190 184 183 182 175 178 170 153 148 133 124 108 109 95 71 64 50 54 30 30 34 30 32 70 67 64 57 89 
65 35 26 20 35 40 37 25 24 33 58 96 113 123 137 150 163 183 196 207 211 225 224 223 235 252 253 229 215 197 196 189 179 192 204 181 173 180 181 187 188 190 184 186 192 198 206 202 208 206 205 206 208 213 218 219 219 218 216 227 213 203 206 207 191 188 190 180 166 160 148 142 128 122 106 93 86 83 65 45 46 39 36 30 30 34 33 67 75 63 51 85 
50 39 22 25 33 45 32 26 28 32 82 116 129 127 142 152 175 190 190 194 192 193 201 210 229 250 243 212 205 200 199 208 198 207 217 199 185 172 176 176 175 172 161 162 162 173 180 186 190 195 198 202 210 220 224 227 224 226 235 240 217 210 207 229 203 185 181 176 160 141 126 125 125 118 108 97 85 79 63 48 42 35 32 33 29 32 45 63 74 66 43 76 
58 29 29 22 34 44 36 32 27 47 111 136 141 135 139 148 170 188 175 152 142 151 152 157 170 169 183 168 188 208 201 205 202 215 231 218 200 187 185 175 176 164 154 154 153 155 158 172 173 178 181 191 207 221 225 225 231 239 248 255 234 220 205 216 212 181 162 171 144 134 121 105 110 119 109 102 99 83 81 76 50 43 37 32 26 49 45 67 69 75 33 69 
58 37 25 29 38 36 35 31 28 82 138 147 150 143 129 130 147 134 114 100 94 100 79 76 81 86 108 114 130 147 158 170 183 195 205 216 205 196 193 194 167 161 155 150 158 155 163 166 171 169 170 180 196 208 217 222 236 235 233 232 210 184 170 151 151 123 124 124 114 92 93 81 78 107 127 118 125 119 117 102 81 45 36 36 28 57 52 59 70 69 45 47 
62 41 30 39 35 37 27 24 37 101 138 161 151 145 123 120 125 119 113 92 84 64 47 38 55 59 78 85 101 116 128 133 146 156 166 176 184 193 200 206 194 169 168 157 167 168 170 174 176 171 164 176 182 186 204 198 200 197 177 156 147 139 127 112 97 82 92 94 95 84 73 80 76 87 135 142 131 131 127 112 86 64 37 32 34 55 59 61 61 66 52 50 
70 53 30 42 40 35 25 22 43 122 137 152 152 132 110 118 141 153 158 142 121 97 90 89 93 102 113 109 112 115 106 104 102 109 119 130 133 144 173 182 184 174 170 168 177 176 175 178 175 174 170 178 177 178 186 169 154 150 132 118 108 108 99 91 73 68 67 71 79 71 63 69 67 57 60 112 123 122 122 120 84 60 35 32 36 53 61 53 63 62 41 50 
66 59 36 49 41 40 28 22 54 133 147 146 157 119 115 141 165 188 194 186 169 165 175 186 183 182 179 180 167 147 132 122 120 110 115 109 112 116 129 151 159 159 159 159 165 182 180 183 177 178 177 178 189 182 160 150 145 131 117 106 101 88 85 74 78 83 75 76 88 99 103 104 101 71 45 37 94 102 111 123 95 53 26 33 42 48 58 55 64 63 38 56 
65 55 45 51 46 37 31 22 57 140 147 153 144 123 138 154 172 185 190 180 164 162 176 175 178 175 157 171 172 151 140 138 138 128 140 135 122 117 118 137 156 152 154 147 158 161 169 175 177 174 176 171 184 167 159 158 149 153 139 143 139 119 114 127 140 145 147 145 159 136 130 139 128 105 82 36 42 94 99 120 98 51 25 36 44 40 49 54 61 55 42 53 
65 57 49 51 42 36 33 19 61 153 146 156 145 133 147 157 163 166 173 153 128 119 141 144 138 124 109 117 140 120 110 119 135 119 155 157 143 125 116 131 148 145 139 158 142 163 150 164 171 173 175 168 160 158 160 172 174 180 183 184 188 155 136 155 165 174 170 182 187 164 136 139 127 115 113 89 36 65 102 125 107 47 29 34 53 51 48 38 62 56 48 39 
77 68 59 55 38 33 41 23 76 158 145 159 152 151 147 148 150 155 145 122 104 112 122 123 108 72 56 85 113 93 72 92 146 143 128 177 144 136 114 119 133 146 138 170 151 143 154 154 174 171 174 156 147 142 162 179 170 160 165 176 171 141 147 142 147 148 149 174 157 128 129 139 114 108 111 123 57 56 99 132 112 57 32 31 65 60 66 52 50 53 43 52 
78 76 52 61 40 41 39 32 87 157 143 159 156 157 148 141 139 140 127 123 113 126 111 124 122 73 55 92 134 156 65 86 171 154 154 163 154 151 134 108 123 138 156 181 167 143 142 164 178 173 170 145 129 138 163 156 153 147 142 163 145 110 131 113 125 131 107 170 173 127 98 130 118 101 111 124 81 66 98 131 126 62 31 32 59 63 62 63 54 67 33 48 
77 59 55 54 43 44 49 28 91 153 139 167 162 166 161 146 131 130 137 125 110 127 150 171 184 110 72 97 106 166 94 99 203 188 132 184 169 155 146 123 105 127 178 183 173 159 150 170 178 177 166 137 141 147 144 161 172 156 122 124 134 117 172 104 99 105 76 100 136 135 121 96 120 117 125 113 92 89 109 132 142 70 35 30 52 73 61 62 51 63 44 25 
64 59 47 55 46 46 49 27 100 156 142 166 179 184 182 173 157 141 142 117 104 144 166 199 237 168 106 108 128 120 98 109 196 205 162 144 192 183 163 152 128 137 187 187 178 173 172 177 179 174 158 158 171 152 154 174 160 185 152 115 152 110 177 106 97 124 141 118 114 106 145 144 130 131 117 101 103 103 122 146 137 80 41 39 47 75 73 59 56 70 45 24 
70 58 43 61 53 45 46 34 99 152 147 174 188 198 197 194 182 167 155 138 98 131 171 181 233 208 143 124 130 116 105 176 224 212 183 174 162 191 190 162 141 135 166 188 187 181 176 181 186 161 159 184 199 184 147 153 180 228 195 117 163 130 101 109 95 131 178 169 140 117 100 145 137 123 114 119 122 117 126 143 144 82 39 44 54 73 73 60 51 68 48 22 
69 54 38 76 54 44 60 34 96 152 144 178 188 204 204 208 201 183 178 160 136 125 137 158 201 224 192 150 151 157 181 213 214 194 171 182 200 206 196 171 152 144 166 178 187 188 188 193 192 169 171 199 221 202 166 178 174 206 219 152 129 123 88 80 90 160 193 190 167 138 106 114 138 124 137 131 135 131 133 147 135 87 45 41 67 68 73 59 57 57 55 21 
63 51 50 77 59 52 66 40 89 156 146 173 191 199 203 205 206 190 187 181 158 156 149 145 157 185 194 196 195 205 206 205 196 191 186 190 216 208 187 160 160 154 163 181 182 187 199 207 203 184 181 201 213 212 198 181 177 185 201 190 161 161 119 110 154 189 168 154 138 116 121 131 134 137 147 152 148 140 140 141 147 75 56 50 69 65 74 61 58 53 51 21 
67 56 51 62 78 53 81 42 84 154 146 176 190 200 198 206 208 203 187 191 180 167 169 168 174 171 168 172 173 187 189 197 197 195 186 179 185 189 179 158 165 161 170 183 193 197 206 211 201 192 189 193 210 197 185 197 203 197 199 183 193 199 163 152 150 155 140 126 125 130 138 155 165 162 163 156 153 145 143 147 140 77 69 50 68 74 70 67 56 54 58 28 
87 64 48 47 100 69 88 41 75 149 152 173 193 200 200 205 206 206 195 190 183 176 161 170 175 176 184 182 178 187 193 186 190 192 187 187 194 195 192 174 171 169 175 195 203 203 205 213 201 189 190 193 202 203 171 170 193 207 212 203 190 188 159 151 148 165 171 164 155 151 156 163 176 177 172 172 164 156 148 162 124 78 86 52 63 74 70 60 55 52 67 32 
83 63 60 42 106 99 106 46 61 140 149 169 194 197 200 206 208 205 196 201 193 184 172 173 169 166 171 168 173 182 188 190 198 201 207 213 217 217 206 192 193 180 177 196 204 198 201 209 196 188 184 187 200 212 198 171 172 198 209 219 213 211 178 161 167 172 180 178 167 170 177 183 190 189 182 178 173 165 152 168 113 66 103 63 54 74 63 58 52 49 69 35 
72 55 64 46 99 105 116 65 40 130 144 168 183 198 200 204 211 210 207 213 205 197 191 189 188 184 187 186 187 196 192 197 206 216 221 227 228 223 213 202 201 196 188 197 198 198 201 206 199 189 189 193 200 214 209 196 177 177 185 205 207 222 184 160 164 173 182 177 179 180 198 196 202 195 186 174 175 162 160 169 98 66 114 69 45 68 68 58 52 49 62 51 
56 57 48 60 110 120 119 99 41 113 147 160 183 195 199 201 206 209 210 213 214 212 208 206 205 202 201 202 204 207 209 213 217 223 228 229 229 224 220 207 203 197 192 203 202 197 199 208 201 198 205 199 205 206 212 208 201 188 182 186 187 197 173 158 161 172 177 181 176 184 197 197 201 197 188 177 171 164 165 164 81 89 109 74 47 58 64 56 56 45 57 58 
57 63 48 74 99 141 118 122 56 95 143 165 177 192 195 192 206 206 209 216 217 215 216 218 217 216 215 213 213 218 215 221 223 226 228 228 225 223 221 213 207 195 194 204 206 201 203 211 201 206 211 201 211 214 221 216 213 209 201 194 190 192 167 151 153 164 172 179 182 188 193 196 200 196 180 177 168 162 176 136 93 121 88 66 63 51 59 59 49 51 59 66 
64 62 54 73 61 151 120 123 83 85 139 153 180 193 193 192 198 204 204 214 213 212 217 220 222 222 224 220 219 223 220 221 223 221 229 226 222 224 223 212 208 201 195 210 211 206 207 213 206 205 212 206 219 221 231 224 222 220 219 221 219 223 201 179 172 174 181 189 197 199 200 195 192 191 177 171 166 166 173 113 125 126 73 57 78 64 53 59 48 51 52 65 
63 56 67 76 53 119 137 113 106 70 124 146 175 188 196 195 195 201 205 211 212 210 218 222 224 223 225 223 223 223 225 223 224 225 227 226 222 227 222 215 205 200 199 209 212 205 206 208 200 204 215 210 220 223 228 227 227 227 230 228 226 230 217 196 181 177 186 191 194 199 200 197 192 182 173 178 167 174 154 108 153 130 66 60 77 81 44 52 54 43 64 59 
47 43 77 74 58 86 143 131 121 73 104 140 168 182 197 191 189 198 203 207 213 212 220 220 224 225 225 222 225 223 225 222 227 230 233 228 222 229 219 215 207 200 199 203 205 205 199 196 197 198 215 215 217 225 229 232 229 229 226 228 230 231 224 208 188 178 184 189 189 192 198 191 190 174 168 175 173 164 134 120 160 132 35 66 71 75 77 22 62 41 57 70 
41 27 78 71 72 85 120 168 149 88 93 133 164 179 193 192 195 199 204 205 208 213 217 222 222 221 226 219 223 222 224 223 227 233 235 232 229 227 219 208 205 198 196 194 197 192 185 190 193 198 208 216 221 227 232 230 230 226 227 225 227 228 225 215 193 173 182 184 191 186 193 193 186 174 169 175 163 155 119 133 179 101 22 58 68 64 85 48 42 55 42 67 
40 34 39 50 75 75 78 153 184 116 94 126 155 175 193 194 194 198 206 203 210 214 217 220 222 220 223 222 222 221 222 224 225 234 235 233 226 215 208 199 195 198 191 189 188 185 182 189 198 202 212 215 221 232 231 234 228 229 227 227 224 223 225 216 203 180 180 182 184 188 189 191 183 176 174 167 165 141 106 156 181 73 26 54 66 53 82 68 44 42 50 52 
37 35 29 26 53 64 74 84 162 148 121 116 145 169 184 195 192 194 202 203 212 209 215 220 220 218 220 219 219 222 219 228 230 234 233 225 202 197 193 184 192 198 191 187 185 185 179 191 206 208 207 211 204 222 233 234 227 231 226 223 224 223 223 220 208 192 179 179 182 189 187 187 177 175 167 162 166 126 120 174 165 51 44 36 52 54 69 73 69 47 37 57 
32 34 28 26 23 29 50 65 77 125 156 114 137 164 178 188 194 194 200 204 211 213 210 219 218 216 219 217 217 218 220 233 232 232 225 215 186 188 192 175 185 195 188 183 184 191 189 185 211 209 199 206 195 199 234 237 231 227 226 224 223 221 221 222 206 199 181 178 185 184 184 181 170 176 162 161 156 112 141 177 117 43 45 36 36 48 53 68 71 62 44 33 
34 30 29 31 19 31 29 36 33 55 153 123 127 161 177 187 184 191 199 202 209 212 210 216 217 216 216 217 219 214 222 229 233 224 217 192 195 200 205 172 176 187 182 182 189 208 208 196 202 203 187 205 190 180 219 234 235 226 224 223 221 218 214 212 205 191 178 177 176 178 178 170 169 172 156 155 147 123 146 131 79 56 30 30 37 36 49 53 66 62 53 34 
29 33 28 27 24 28 38 20 19 30 145 132 126 151 169 182 186 189 195 204 205 210 212 216 213 216 216 216 217 218 224 220 229 219 203 171 198 216 212 182 170 174 172 177 193 212 215 218 199 190 161 179 177 156 194 217 229 224 220 217 216 212 205 198 195 187 171 174 172 175 171 161 166 160 156 141 148 126 80 89 57 49 29 28 34 33 40 55 56 58 65 37 
28 32 28 24 28 27 39 26 15 5 122 144 131 148 167 174 182 184 192 201 202 205 208 211 214 212 214 213 213 219 210 207 209 203 183 158 173 192 216 210 179 180 177 186 199 210 222 220 220 204 175 180 186 147 165 187 200 201 206 207 203 201 196 188 187 182 168 172 168 171 167 159 157 156 140 126 159 95 50 71 42 39 31 29 30 40 31 55 47 60 65 53 
30 31 28 25 29 28 34 26 21 0 102 149 134 153 156 168 174 184 190 194 195 200 204 203 210 210 206 206 211 210 206 189 175 174 173 152 147 153 181 196 193 194 198 196 206 214 222 230 226 210 199 180 181 161 163 167 180 182 184 187 185 185 181 179 187 182 176 167 165 166 161 156 148 141 123 121 145 68 48 37 36 34 31 21 33 44 22 45 51 59 63 56 
25 31 28 22 17 41 29 30 20 3 84 152 133 149 152 160 175 181 184 189 187 196 194 197 202 204 202 196 201 200 187 185 165 167 163 156 133 109 127 173 194 208 210 217 217 225 223 234 227 227 200 168 146 155 167 164 164 171 173 176 175 175 180 183 191 184 183 172 159 159 161 149 141 129 111 119 138 54 50 26 33 37 27 23 32 39 27 31 57 54 63 56 
26 35 29 19 21 38 30 29 17 6 59 152 130 145 152 153 170 173 184 189 183 187 185 188 191 196 196 193 188 183 176 172 171 167 164 151 152 117 91 127 164 198 215 227 233 235 236 232 226 214 174 138 134 179 179 166 161 173 181 178 183 186 189 190 190 182 180 177 155 154 157 144 132 126 103 131 124 48 44 20 35 35 24 26 29 38 35 28 49 50 63 58 
30 32 30 18 31 33 29 33 20 11 36 144 130 142 150 148 161 166 178 180 184 180 181 179 188 185 190 186 178 179 175 181 180 168 160 153 143 137 113 103 120 150 187 211 222 215 212 205 182 157 145 141 169 192 185 179 170 174 186 186 189 187 194 193 186 183 178 174 158 150 150 138 125 115 103 132 104 50 34 26 35 31 29 24 26 42 34 24 42 46 65 60 
39 28 27 23 33 37 27 27 34 16 29 139 139 138 145 142 147 160 167 170 175 169 173 177 178 182 183 177 182 186 188 187 182 174 162 162 153 142 120 109 115 131 145 167 168 169 166 158 137 138 159 175 185 192 190 189 184 179 187 201 194 199 197 191 188 177 173 169 158 140 147 133 121 106 106 140 90 43 26 33 34 25 32 25 30 43 39 27 27 49 58 66 
35 29 26 27 30 40 16 27 41 24 22 107 155 129 144 144 140 145 159 162 164 165 171 168 173 173 187 182 194 197 195 187 183 175 170 166 151 147 129 118 122 133 137 131 131 135 135 132 133 158 187 201 200 196 189 189 191 195 189 202 210 198 189 188 180 178 166 156 149 132 136 123 120 103 116 147 69 38 21 36 32 26 27 29 23 42 41 32 20 46 59 61 
32 30 37 27 36 30 23 28 53 20 17 85 167 124 140 142 134 137 149 155 159 163 166 164 168 176 190 199 210 205 189 188 182 185 172 165 157 148 136 123 129 134 137 128 126 136 135 144 157 185 197 203 203 194 195 194 201 203 200 198 209 193 176 176 174 172 155 150 142 127 126 125 119 101 131 131 51 23 28 32 31 24 30 31 29 37 43 33 24 31 62 59 
34 38 30 30 31 29 26 34 52 22 23 62 159 138 129 139 137 132 140 155 156 160 160 161 168 176 200 210 207 221 211 206 203 201 180 173 171 154 133 122 121 122 117 112 121 122 134 147 163 173 187 184 190 191 193 201 201 209 197 189 186 187 163 161 156 151 140 141 134 124 120 123 115 110 137 104 29 24 32 39 28 24 27 31 29 40 42 34 30 23 59 58 
42 33 33 31 27 31 30 41 40 22 37 54 116 170 119 138 138 136 129 144 161 154 151 163 160 169 192 176 180 188 208 232 238 219 206 207 206 199 192 153 131 114 109 107 117 114 131 151 158 165 166 168 169 178 186 192 197 199 196 176 163 177 152 144 136 140 145 146 136 126 115 122 112 113 138 74 18 21 40 33 37 19 29 29 31 37 46 31 34 34 44 63 
40 37 32 28 31 37 30 45 38 20 47 61 76 175 126 122 138 138 131 137 152 154 159 171 170 173 160 134 140 137 163 202 232 228 219 232 230 229 237 219 197 163 134 127 122 131 161 174 177 186 187 183 177 180 186 192 188 181 185 166 135 139 133 129 140 151 158 151 142 124 126 121 109 129 110 41 14 29 40 34 28 34 29 31 29 38 42 31 34 33 48 50 
47 31 31 28 41 31 34 43 34 19 55 63 63 141 158 116 132 137 132 134 145 160 161 171 174 166 141 118 98 85 103 137 175 187 213 235 230 218 234 234 225 207 186 174 168 167 180 201 193 201 213 207 192 185 183 180 173 144 139 142 104 111 123 132 146 154 158 160 137 124 124 116 112 130 76 19 20 36 38 32 31 32 31 32 29 38 40 28 26 30 61 44 
35 24 32 32 41 37 40 34 27 29 55 77 60 89 167 131 126 135 135 132 135 151 167 169 179 165 138 144 129 121 95 80 95 116 142 167 199 199 207 203 203 218 226 224 227 220 202 190 182 185 207 218 216 199 192 172 153 118 108 111 104 118 140 150 164 160 164 153 131 123 121 108 119 110 35 11 30 37 41 33 33 31 39 31 29 36 37 33 21 35 63 60 
32 31 31 33 43 36 36 31 34 27 48 80 72 61 139 158 125 134 126 131 132 137 161 161 172 158 148 163 165 159 156 138 100 98 112 120 125 145 156 149 159 194 206 229 209 200 191 172 167 154 174 189 176 151 138 126 118 106 100 114 128 134 154 171 173 163 158 137 122 122 119 110 113 70 7 22 36 39 38 40 32 35 41 31 29 41 34 38 23 31 68 55 
33 31 32 36 40 38 31 32 40 26 49 75 80 63 99 160 136 126 126 126 131 128 137 154 163 160 160 174 174 181 182 186 174 148 137 144 128 120 109 124 141 151 168 193 174 160 159 154 157 155 151 148 138 127 112 122 150 157 149 153 144 143 168 173 166 157 142 124 120 117 115 108 88 24 14 29 40 33 40 37 36 36 39 29 36 36 34 38 30 27 63 59 
25 38 33 36 39 39 31 34 33 24 51 74 76 65 89 154 134 122 126 122 132 125 128 136 153 160 161 168 181 183 188 192 187 190 173 169 181 180 161 131 119 128 132 148 147 152 145 137 129 139 152 150 154 152 166 179 175 171 176 163 148 149 164 159 156 146 128 119 118 114 115 86 44 23 27 38 37 36 37 44 38 37 36 36 33 37 33 36 24 29 55 57 
29 35 37 37 44 34 30 36 22 31 52 71 75 66 83 153 133 115 130 119 121 132 129 132 146 148 160 164 174 180 181 186 195 189 200 182 178 183 199 194 180 160 150 141 141 151 164 162 172 165 164 155 160 164 172 167 168 164 170 153 148 152 149 149 144 129 120 116 110 118 100 40 25 30 36 36 36 38 38 43 32 41 40 32 33 35 30 38 21 32 53 52 
32 34 39 43 37 28 35 25 21 35 51 71 76 62 81 148 137 112 122 135 117 128 133 132 135 146 149 161 166 171 176 168 190 196 193 199 185 171 184 198 213 212 203 191 198 194 198 195 185 163 152 148 151 161 157 150 163 161 162 152 152 148 142 137 134 119 122 115 115 109 53 7 24 49 37 35 38 42 39 38 38 38 46 24 35 30 33 36 25 29 44 49 
28 41 45 43 37 28 40 29 22 39 53 70 79 57 83 146 131 123 110 127 128 121 129 132 134 144 144 148 154 162 165 171 167 184 189 192 186 186 177 181 186 188 185 183 183 182 177 175 167 162 163 163 162 160 158 154 167 161 160 151 149 142 141 133 121 116 113 120 110 48 4 13 40 47 37 33 45 43 41 40 36 39 35 30 37 34 32 34 24 36 42 48 
31 40 51 39 32 36 41 33 27 41 51 72 75 54 77 149 128 118 117 110 124 128 125 133 135 148 145 140 149 154 161 165 166 157 173 188 184 182 177 172 173 175 176 175 172 167 162 161 161 163 163 164 158 149 155 163 163 155 153 146 144 144 139 125 120 111 124 119 64 8 13 21 42 46 36 33 48 38 43 41 37 31 34 34 40 36 32 29 21 34 48 41 
33 42 47 39 30 41 30 23 35 45 55 70 73 58 87 141 126 120 125 116 109 129 135 130 137 139 150 148 148 151 158 164 166 160 153 161 174 181 184 178 171 172 168 168 163 162 160 160 158 157 158 155 144 145 157 157 155 152 150 143 147 139 134 124 116 126 132 68 14 8 29 33 45 45 34 41 47 39 40 36 30 30 31 33 42 29 32 28 30 40 44 38 
37 45 41 40 35 33 33 24 45 50 53 67 75 55 91 138 122 122 131 123 111 116 131 139 139 140 147 147 154 150 154 159 166 161 155 153 147 153 166 167 166 168 163 162 166 165 165 158 151 148 145 143 150 157 158 158 153 150 153 144 145 133 128 126 117 128 94 27 17 19 38 35 40 37 40 39 41 34 40 31 28 32 30 32 36 30 29 22 35 44 44 40 
31 46 36 34 35 27 26 33 47 50 55 64 72 49 96 141 118 125 128 129 122 111 117 132 144 149 148 145 157 155 157 158 165 161 159 163 153 148 148 152 151 151 149 151 153 153 149 151 154 152 163 160 166 169 162 162 157 153 154 145 140 129 132 121 113 105 51 17 18 33 33 33 33 37 36 42 36 32 38 26 24 36 33 33 34 27 28 24 41 45 37 44 
34 44 36 30 36 23 28 35 53 53 52 67 69 56 96 137 118 127 129 128 131 124 114 117 139 143 153 151 148 153 158 162 165 168 166 166 168 161 160 157 152 150 145 146 153 155 162 162 175 177 180 182 177 174 165 162 155 154 154 141 134 128 120 103 106 86 27 22 25 29 26 30 32 32 31 37 30 30 28 27 20 43 42 30 33 26 27 30 44 40 41 43 
43 41 35 32 34 30 32 44 53 56 57 70 69 60 104 128 122 125 133 130 128 128 119 122 123 136 151 156 151 152 157 163 163 168 166 170 173 174 177 173 171 171 171 171 173 167 173 173 176 177 180 177 172 165 164 161 160 156 154 134 131 114 103 99 106 62 23 33 22 29 25 28 31 28 32 32 24 32 24 24 31 40 35 34 27 24 30 32 43 39 50 37 
31 37 41 35 35 32 41 50 55 58 71 64 71 72 104 123 129 129 134 138 127 125 128 122 122 128 131 156 160 160 160 156 165 167 169 173 172 180 185 181 180 186 186 186 180 183 180 181 179 177 173 173 166 166 163 162 157 158 136 121 113 102 96 107 92 43 39 31 28 25 25 29 28 30 28 26 26 24 24 26 40 30 31 32 22 24 36 40 44 40 44 39 
37 34 45 37 45 36 45 51 61 70 68 70 75 84 98 131 130 135 134 131 134 128 125 123 123 124 130 133 160 160 161 160 166 166 165 169 169 175 179 186 182 183 183 184 183 183 184 182 179 174 174 165 160 160 158 158 158 140 117 104 103 98 96 108 75 48 42 31 30 26 24 28 25 28 23 28 22 24 28 26 37 29 28 28 22 31 39 44 45 41 40 40 
36 38 43 43 48 41 45 54 66 78 73 67 84 88 109 126 133 134 142 135 132 137 129 124 121 121 126 128 138 157 161 160 165 168 163 167 164 167 174 178 178 181 182 183 181 184 182 178 174 171 164 165 156 152 150 150 139 110 108 100 99 95 101 87 76 50 36 33 33 25 26 24 23 24 22 21 23 31 27 27 33 25 26 29 22 36 42 39 45 34 43 38 
