P2
# Imagen
92 112
255
135 132 137 134 134 136 134 136 133 135 133 125 121 121 125 124 122 105 89 88 91 89 91 86 59 32 38 45 37 33 35 36 35 33 33 38 32 41 35 42 33 42 46 41 32 36 48 36 39 33 37 42 32 35 25 11 26 47 33 35 34 56 74 84 89 95 108 122 128 128 127 130 131 131 133 131 132 130 134 129 132 134 130 133 133 132 131 132 132 131 133 131 
132 134 132 133 134 135 132 134 134 134 133 121 122 124 119 116 105 90 88 87 92 92 94 66 48 39 33 41 34 31 32 34 36 35 29 32 32 35 41 33 36 33 43 41 33 32 51 38 38 36 40 37 36 37 35 37 20 22 21 16 22 22 29 41 49 82 92 101 113 117 128 127 129 133 131 134 132 130 133 132 130 133 131 133 133 132 128 133 132 131 134 132 
132 133 131 130 136 131 131 132 134 127 122 115 116 123 112 100 88 88 91 95 94 97 81 36 47 46 26 36 39 30 34 34 35 35 29 34 33 32 41 29 36 34 41 42 39 34 44 50 31 54 41 37 36 42 39 44 46 33 35 23 14 22 13 12 10 12 70 92 100 103 110 118 124 131 131 131 127 135 130 130 132 130 129 131 131 131 129 136 131 131 131 132 
128 130 129 127 126 132 129 130 124 115 118 114 107 106 95 88 92 83 91 92 85 79 58 42 40 46 30 37 39 29 36 36 31 40 32 32 34 34 41 35 39 39 38 53 36 43 33 45 38 41 50 37 35 41 36 41 46 48 42 41 30 29 27 18 8 7 13 31 63 93 100 100 108 108 126 128 128 129 128 131 132 129 127 131 131 132 129 136 132 131 132 133 
134 131 131 127 124 126 125 126 120 116 108 108 98 82 81 82 88 83 83 76 58 58 48 36 38 46 34 38 38 30 40 33 36 36 37 32 33 38 38 34 38 46 40 47 42 40 48 39 47 43 52 41 43 38 39 35 51 45 40 47 32 47 42 38 33 26 22 13 22 30 100 99 107 101 101 121 130 127 127 129 129 124 126 126 130 131 131 135 131 131 133 131 
133 130 131 128 128 120 120 117 106 99 99 87 86 77 84 84 81 73 59 51 51 48 40 38 34 37 31 36 42 32 41 41 32 39 36 32 36 40 42 43 32 53 43 40 39 43 56 43 57 52 61 47 51 39 44 40 37 60 40 39 41 46 52 37 37 40 51 37 19 14 23 89 101 99 107 102 108 126 125 119 130 123 123 127 129 133 131 131 129 134 129 133 
133 127 127 128 129 121 109 101 93 90 88 81 89 77 83 70 68 55 42 48 47 42 41 36 43 39 36 33 48 28 42 47 36 37 38 38 39 40 48 45 38 40 64 39 35 46 59 46 57 59 63 55 61 45 49 50 44 47 55 38 35 53 56 45 35 39 44 49 50 30 14 29 71 97 105 103 96 112 119 131 127 122 126 125 127 136 131 132 131 132 132 130 
128 129 128 126 124 110 94 92 87 86 86 82 81 74 84 84 65 44 43 43 47 40 42 35 45 47 43 41 39 42 33 50 47 42 38 42 42 43 41 53 43 32 64 59 38 49 58 44 61 63 66 63 65 65 49 57 65 53 50 52 42 45 68 48 51 31 48 40 52 48 37 27 12 41 97 100 100 106 104 115 120 123 127 128 122 129 130 131 130 131 130 133 
128 126 124 121 106 94 93 92 79 84 86 76 79 90 92 78 52 37 41 44 43 36 41 41 44 51 45 48 45 39 45 54 51 54 47 44 47 51 52 53 52 34 59 74 52 54 57 48 52 78 56 63 66 77 64 55 61 64 65 60 53 43 70 55 57 45 45 45 56 41 49 46 33 15 32 88 100 110 110 106 96 123 127 131 128 122 129 129 131 130 131 130 
127 124 115 105 94 91 94 91 74 80 76 83 102 102 79 40 40 41 40 47 38 34 38 42 45 50 48 56 51 42 51 61 51 51 54 46 49 57 61 54 57 50 48 73 65 50 62 52 44 78 58 59 65 67 79 57 58 54 65 68 56 46 59 73 49 65 40 47 52 50 40 52 54 42 3 29 62 101 108 106 96 103 117 127 128 128 130 130 128 131 131 128 
126 113 106 93 95 84 88 90 79 67 86 93 86 60 49 41 42 46 38 43 36 39 43 39 47 56 47 54 56 52 48 64 55 51 54 52 56 55 59 59 60 52 49 66 60 57 62 56 45 60 69 54 63 63 76 59 63 54 53 69 58 47 56 70 58 55 42 48 51 50 50 47 57 45 43 34 6 45 94 105 101 109 100 113 126 125 129 128 130 128 130 129 
111 101 95 95 89 82 86 79 71 78 79 67 51 53 47 49 41 44 37 45 40 39 51 34 46 64 51 52 50 54 50 67 53 51 53 55 53 54 52 60 66 55 44 66 64 52 59 61 48 51 71 61 61 63 71 57 66 65 49 63 66 56 54 58 69 53 46 51 50 46 55 42 56 49 57 51 20 6 61 92 102 100 100 104 119 123 128 133 129 127 130 130 
100 98 91 94 87 83 91 79 69 54 57 48 44 50 42 48 44 42 42 47 46 41 53 35 52 63 53 48 52 46 51 61 53 50 57 58 51 59 47 56 65 58 37 68 65 60 56 58 53 46 79 67 49 62 63 60 56 76 53 52 65 59 49 55 66 67 46 50 52 51 60 41 45 63 75 35 54 44 25 55 89 107 89 95 104 121 124 126 126 126 131 129 
92 97 88 88 87 90 89 65 48 35 45 50 54 45 48 49 49 43 40 52 48 44 50 44 55 57 51 44 48 48 42 52 45 49 51 54 49 60 47 42 53 58 44 58 58 65 58 54 62 50 62 77 42 53 58 61 53 60 57 47 59 61 41 53 55 67 56 41 61 51 63 50 54 81 72 48 50 61 48 32 29 70 98 96 89 112 124 127 127 127 127 127 
98 94 90 80 96 91 62 49 39 40 38 48 57 47 45 50 46 44 41 56 51 52 51 52 55 53 55 41 47 45 40 49 39 48 57 46 45 58 53 43 39 62 47 52 54 62 58 57 60 49 58 80 48 50 55 62 48 50 55 49 53 64 44 47 42 62 56 38 58 54 65 61 51 71 61 55 49 56 63 28 26 16 49 107 104 85 120 127 124 122 123 119 
93 94 85 85 91 52 35 51 44 41 39 52 44 56 53 55 49 49 44 58 51 53 54 52 50 45 52 42 47 52 38 47 46 55 61 56 47 65 74 63 57 69 56 64 73 75 74 75 62 62 63 78 73 70 67 72 59 63 60 67 74 58 60 48 48 59 53 31 56 47 59 61 55 59 64 50 50 51 50 54 23 23 17 52 97 92 93 116 117 123 126 126 
94 97 87 90 53 26 51 43 45 46 37 42 52 53 55 48 51 53 49 56 52 56 58 55 48 46 56 47 52 60 51 61 78 81 79 80 75 86 98 98 101 95 80 77 90 90 83 93 85 81 87 94 100 93 101 95 92 87 87 78 91 71 86 63 58 59 68 46 49 38 49 64 55 55 67 52 51 55 61 59 49 27 22 16 76 86 86 102 124 118 124 127 
90 96 94 71 29 42 48 47 52 46 47 37 53 48 45 51 45 51 54 58 53 57 61 56 52 64 69 62 73 83 84 86 106 117 102 112 116 114 118 127 131 129 110 106 118 117 124 121 110 110 114 126 127 128 139 126 123 119 115 116 116 105 120 98 91 70 84 58 50 42 45 65 55 60 61 53 54 66 60 59 58 25 20 8 59 101 81 76 124 127 123 124 
88 96 95 62 22 54 39 44 50 51 46 39 44 50 44 59 49 52 55 61 60 62 62 60 73 81 89 94 112 121 127 115 125 122 132 132 144 131 135 153 147 144 144 135 138 138 150 144 147 145 137 151 148 145 159 153 146 143 141 144 141 124 140 126 118 105 108 81 57 49 51 64 62 59 51 49 51 66 59 56 55 44 16 10 35 92 91 70 101 122 126 125 
88 88 82 50 34 53 49 42 53 48 42 44 43 47 53 54 54 55 62 59 61 70 65 72 81 88 100 106 127 143 148 140 145 125 132 128 137 136 128 152 152 154 153 143 141 146 154 156 157 151 160 151 168 151 166 165 163 144 163 152 159 122 143 144 125 112 108 104 72 61 58 64 69 62 56 47 48 58 51 57 60 51 35 11 21 76 82 67 90 97 122 120 
99 82 59 42 39 53 49 49 52 49 52 45 36 51 54 57 56 72 60 72 60 77 79 88 103 97 102 123 142 148 154 154 155 138 137 135 132 143 148 153 159 157 156 144 145 144 147 162 160 156 170 161 176 159 163 167 167 154 164 159 164 142 141 156 146 120 115 103 88 77 74 74 81 65 59 53 49 50 51 54 49 58 54 17 23 37 72 77 96 104 101 113 
94 75 25 37 48 50 47 49 52 44 45 47 41 52 62 64 67 75 69 76 80 91 91 109 110 105 117 136 145 152 156 158 161 163 146 151 146 139 160 161 169 158 163 158 156 161 150 165 163 168 175 172 179 174 165 175 170 175 174 166 173 160 152 160 159 147 115 108 100 83 81 83 75 68 65 59 51 61 65 63 64 47 58 28 17 11 48 75 90 118 97 113 
91 41 31 40 41 58 44 50 56 52 39 53 51 64 70 77 81 77 81 93 103 114 114 114 122 120 132 145 158 151 161 165 172 174 174 163 163 158 167 178 176 169 170 174 168 171 169 168 173 176 186 187 183 186 177 177 176 184 187 176 185 181 164 172 166 169 143 129 113 95 88 77 78 66 70 62 58 59 61 69 58 63 62 44 15 13 16 72 80 102 104 111 
67 30 37 48 35 57 48 48 56 50 52 58 67 70 77 81 87 85 92 116 117 122 115 116 130 128 148 163 175 166 174 181 185 187 190 178 174 177 184 188 183 184 184 184 181 180 180 183 190 189 201 197 193 195 190 185 186 194 197 193 195 200 176 185 178 181 167 151 128 114 101 86 75 62 71 73 60 64 63 62 59 58 73 57 23 23 15 51 87 85 115 99 
44 30 41 50 49 43 49 45 49 58 51 68 75 71 78 87 101 96 104 125 132 125 129 135 140 143 167 184 195 191 192 196 200 204 200 198 195 197 195 196 196 197 205 199 198 193 194 203 203 207 214 213 209 210 202 207 200 208 207 204 210 213 196 207 193 194 182 171 154 134 123 106 86 69 73 72 64 70 63 71 55 63 69 55 48 24 21 26 86 75 108 102 
31 29 54 48 43 48 54 45 51 62 56 75 74 70 81 91 105 114 120 129 136 139 142 150 156 167 178 199 208 203 204 208 210 214 214 213 211 211 203 210 207 212 214 214 212 208 209 213 214 214 224 225 217 221 213 218 211 219 215 216 223 224 210 216 211 203 194 179 179 168 141 133 119 93 80 71 67 69 67 76 70 50 67 64 57 20 22 16 62 78 90 94 
15 43 47 46 41 52 55 54 56 65 77 75 69 81 88 91 110 125 127 132 144 143 166 172 171 182 198 197 207 207 201 205 217 215 215 219 220 218 216 220 221 224 222 230 224 224 222 220 223 218 223 233 225 219 221 220 218 220 221 218 222 228 217 216 213 205 196 188 189 178 156 145 135 115 88 78 65 69 67 78 78 62 53 56 68 28 20 12 60 74 81 98 
29 45 45 46 45 57 61 61 56 69 75 73 76 88 89 96 124 133 133 139 146 153 168 185 188 190 198 193 190 202 195 200 208 208 208 219 220 219 224 224 226 229 225 233 227 226 224 219 224 222 224 228 228 226 220 221 220 221 223 217 224 226 222 215 214 206 201 195 193 195 173 161 147 135 110 88 77 69 71 71 78 79 53 59 58 44 20 14 38 84 77 89 
37 43 51 52 54 63 65 58 56 74 78 71 88 88 88 104 128 136 142 143 152 154 168 178 178 188 192 186 172 191 189 181 198 193 196 201 208 215 215 217 219 222 219 223 223 214 216 215 214 216 216 220 219 216 211 212 214 218 216 213 218 219 229 218 219 212 206 201 198 201 189 175 162 143 133 99 79 78 74 62 77 78 63 63 65 43 26 17 20 75 78 87 
36 52 46 54 57 63 57 58 63 76 75 76 83 94 95 110 135 143 140 155 159 162 174 177 175 178 182 178 169 177 190 184 185 191 191 194 204 211 210 216 218 219 215 219 220 211 211 214 209 211 206 214 211 211 205 202 207 208 210 209 218 220 225 227 221 214 211 209 202 200 190 179 173 154 147 122 92 81 82 59 67 71 69 63 62 46 21 23 16 65 73 88 
43 51 42 42 52 57 60 55 69 67 76 75 89 100 100 118 140 146 149 154 164 168 178 179 173 172 167 181 182 179 184 186 183 191 194 204 199 210 206 208 215 212 210 208 216 214 211 210 205 203 209 207 210 213 207 199 202 206 209 210 214 221 226 228 226 217 217 211 208 198 199 180 181 163 157 141 112 91 77 73 60 63 69 64 54 58 20 27 15 60 88 69 
41 42 40 40 54 56 56 57 67 76 72 87 90 96 106 116 143 150 149 158 166 169 187 180 175 181 180 185 191 186 188 193 192 202 198 208 205 206 210 207 213 214 207 211 208 212 211 204 206 205 209 210 204 209 208 211 206 205 213 215 219 221 229 228 221 220 221 214 212 202 199 184 183 174 164 154 128 98 82 76 64 59 69 63 55 57 37 20 13 53 92 71 
50 39 36 46 53 60 55 60 64 78 73 91 87 94 112 115 145 144 155 153 170 174 187 181 178 179 185 184 194 191 198 198 195 203 203 208 208 212 213 214 215 215 209 215 213 217 209 210 208 207 209 212 202 207 209 208 213 203 211 215 222 223 224 226 221 222 224 221 217 208 201 200 184 180 164 159 142 121 90 74 70 60 60 68 51 56 42 34 11 44 88 79 
50 38 44 50 55 54 64 53 62 77 73 89 89 96 112 123 135 145 157 162 175 180 184 182 187 185 190 188 192 196 198 203 197 201 200 207 205 211 211 211 217 214 210 212 213 215 208 209 212 204 206 210 204 205 210 207 211 204 207 211 219 224 223 223 222 221 225 228 219 214 207 202 194 182 171 156 153 130 106 71 69 63 53 66 56 50 35 31 20 44 73 82 
44 46 41 52 53 53 53 54 61 80 70 83 100 88 115 131 129 151 160 167 174 182 184 180 188 188 187 187 188 192 194 205 192 200 197 205 207 206 210 210 215 212 212 213 209 212 210 208 213 209 205 207 207 204 206 205 206 202 205 210 217 221 224 223 225 225 229 229 223 218 215 203 197 189 172 160 151 134 111 74 70 52 54 57 57 47 36 23 22 42 68 77 
37 46 45 48 51 57 46 55 63 77 68 77 94 95 109 135 134 152 162 171 171 180 181 181 185 184 184 188 185 188 200 199 195 196 200 204 205 204 209 208 216 213 213 213 209 213 209 208 210 209 207 206 207 206 203 206 203 203 205 206 215 219 223 225 225 229 231 230 229 218 216 208 201 195 180 165 157 140 114 84 66 52 43 52 51 50 36 23 13 24 59 75 
45 40 46 41 54 55 50 57 64 75 64 80 94 100 110 122 134 148 164 168 172 176 176 178 179 180 184 188 187 190 196 203 195 198 201 205 208 203 209 210 218 214 212 212 210 210 208 207 209 211 209 208 208 205 205 206 204 202 205 206 210 218 222 222 225 225 231 229 226 220 216 213 201 199 190 174 158 147 121 90 68 51 44 44 44 45 44 25 8 22 38 75 
43 39 40 39 51 50 53 55 64 68 63 82 93 102 113 121 124 151 152 161 166 170 168 175 180 183 184 184 189 190 194 199 202 201 204 205 208 205 208 209 219 216 213 210 211 212 210 209 210 212 210 209 208 207 204 202 205 206 204 206 207 214 220 222 221 223 226 224 225 221 216 218 206 201 193 181 163 147 126 96 64 55 48 39 41 41 40 24 6 14 39 48 
35 39 37 39 51 42 54 57 61 65 61 79 89 94 106 129 121 149 155 157 166 168 167 172 181 184 185 184 189 192 196 195 201 202 205 205 207 206 208 210 214 218 213 210 212 210 211 209 211 210 209 209 209 207 205 204 205 206 205 206 208 210 217 217 219 222 219 219 224 223 213 218 211 204 198 181 170 151 129 104 70 50 50 37 38 42 41 26 10 8 31 47 
34 31 38 38 46 42 57 54 55 61 66 78 85 79 103 117 128 144 151 156 163 169 171 174 179 182 183 187 189 189 194 197 198 203 203 204 205 204 206 210 208 216 212 208 210 211 209 210 211 209 210 208 206 207 206 206 208 207 207 209 207 209 216 213 216 214 223 217 218 221 218 216 208 208 196 182 169 154 134 102 72 54 43 42 33 41 36 32 13 7 14 63 
33 32 30 39 43 38 56 56 57 58 72 72 73 79 101 115 134 143 150 152 163 172 168 173 171 177 174 183 183 187 191 193 196 199 200 203 202 204 205 208 208 212 212 209 211 208 209 210 210 211 209 206 205 206 206 205 205 208 206 207 206 206 207 206 208 209 212 209 214 205 212 213 209 201 199 180 174 153 141 107 74 50 44 38 31 34 36 32 13 18 0 50 
33 32 34 33 45 35 52 49 57 60 67 71 60 80 105 115 134 138 154 154 164 165 155 162 159 159 161 174 172 173 183 183 184 187 191 194 195 198 196 205 206 210 211 209 210 207 206 207 212 209 209 206 201 203 206 205 203 202 203 199 199 195 194 191 192 198 199 201 201 196 194 207 200 200 196 182 175 154 144 108 80 54 45 36 32 30 31 37 13 14 5 29 
34 33 35 36 37 36 51 49 58 60 65 62 58 83 104 122 135 136 150 157 149 132 120 123 123 120 122 125 120 127 131 127 133 134 145 165 163 177 181 196 200 207 208 208 208 207 206 209 210 209 208 204 202 202 198 200 197 182 182 167 156 150 139 143 139 145 158 162 168 168 173 185 187 191 193 183 173 151 142 110 75 62 45 34 32 29 31 31 16 11 12 21 
28 35 35 35 35 34 48 48 58 64 59 65 56 93 107 126 131 134 151 140 108 91 96 94 88 93 87 93 92 89 93 96 98 99 102 117 132 140 151 168 197 201 205 207 203 206 208 207 210 210 203 206 202 199 196 187 167 145 138 130 121 116 109 115 107 107 110 109 122 128 125 136 155 161 181 185 172 154 141 104 69 67 48 30 30 25 30 33 16 7 10 22 
21 34 34 37 36 36 42 53 55 65 59 51 70 93 118 125 128 136 135 100 78 71 88 82 76 86 83 89 86 88 91 92 91 94 97 106 111 129 134 142 180 198 203 202 206 203 207 207 211 209 205 202 197 204 198 164 139 127 120 116 113 104 105 106 98 101 96 89 99 99 104 100 119 128 153 177 174 155 144 98 72 63 52 33 25 30 27 30 20 5 9 27 
23 27 29 32 39 30 48 55 58 65 56 61 70 104 122 125 128 118 87 68 82 88 98 103 101 114 125 124 121 116 110 112 109 111 113 119 125 132 137 135 157 194 201 203 201 206 207 211 212 208 200 201 197 203 191 147 143 129 122 118 110 104 105 105 106 105 106 101 101 104 105 104 114 113 106 151 172 164 140 105 75 62 52 36 22 30 28 23 12 17 4 21 
25 21 30 27 41 29 53 57 62 60 58 64 82 114 124 126 116 76 67 93 124 138 147 157 158 162 165 170 166 164 156 143 134 133 140 137 144 143 150 144 160 190 198 201 202 205 209 210 210 208 202 202 199 196 173 147 149 143 137 135 127 126 125 133 143 148 150 149 150 153 155 151 141 136 109 96 157 166 150 104 75 67 51 37 26 23 33 22 12 18 10 21 
27 28 26 29 32 34 55 59 59 57 61 68 101 128 129 124 77 60 104 145 164 170 170 177 183 183 185 186 187 189 186 177 172 164 161 162 161 158 159 159 161 184 193 200 205 208 210 211 210 210 207 203 199 189 167 154 158 158 159 159 161 159 167 180 185 188 191 188 192 194 195 187 189 177 154 90 99 163 161 114 75 64 48 38 30 22 32 24 8 22 6 32 
27 24 32 27 28 34 57 62 57 59 61 85 120 135 132 99 59 86 138 158 172 170 168 171 170 167 166 162 165 168 168 163 168 174 173 172 171 169 162 161 155 172 190 201 206 209 212 211 211 212 208 201 194 173 161 154 161 168 173 174 174 178 182 188 188 190 194 192 195 193 198 195 189 195 193 153 78 127 168 133 76 62 45 35 33 25 27 23 13 14 18 35 
25 28 27 36 26 37 62 54 61 62 63 105 132 139 129 80 75 122 146 158 158 159 156 152 137 142 150 149 152 155 150 145 144 145 145 163 169 175 171 163 150 153 182 197 207 208 212 211 210 210 211 198 184 160 148 154 167 170 166 166 159 159 164 160 165 169 172 176 184 183 188 190 194 193 193 193 121 89 170 143 89 53 49 34 29 31 22 24 20 13 23 52 
24 26 29 31 24 44 55 58 63 58 80 117 138 144 111 85 98 134 141 141 143 139 126 121 123 117 110 106 107 110 115 110 129 138 144 134 146 163 169 172 161 151 162 192 203 208 209 211 208 209 205 189 167 150 152 158 162 154 145 141 143 148 152 156 146 152 158 160 154 151 166 178 182 187 185 189 166 89 146 154 107 49 41 38 28 28 26 22 23 13 30 61 
27 27 27 34 30 43 55 55 60 59 88 126 135 148 97 86 107 126 125 132 126 115 107 104 90 94 98 86 76 83 81 68 103 120 128 150 140 137 159 172 167 159 154 177 199 204 209 208 210 206 198 179 153 151 161 154 145 135 137 146 138 120 114 115 109 109 122 130 140 148 130 148 167 179 179 184 180 109 122 161 127 52 34 34 33 30 27 22 23 14 34 70 
28 30 31 28 33 50 55 55 58 62 99 128 139 129 95 91 106 112 114 111 101 99 84 63 68 102 124 79 48 90 105 63 65 143 144 115 148 140 135 164 174 169 155 170 189 201 206 207 205 204 193 163 146 159 162 145 132 138 136 127 105 75 74 61 53 55 83 79 76 99 125 115 138 156 169 173 175 132 109 161 128 58 29 34 31 33 28 25 19 16 42 65 
31 33 26 32 36 54 59 64 63 62 106 130 133 111 88 93 108 119 110 103 103 98 65 40 90 135 135 66 54 32 109 100 25 109 188 144 105 133 140 160 176 167 159 163 181 197 201 201 201 199 185 155 144 159 157 139 130 113 114 143 101 54 74 106 56 39 69 102 69 61 66 106 115 131 150 158 165 145 120 157 133 61 30 32 33 31 30 30 12 23 38 65 
30 34 23 32 42 55 59 64 62 70 100 121 115 108 92 104 126 133 126 125 121 93 65 66 113 156 141 58 31 31 27 63 24 90 177 168 123 100 134 167 175 160 154 156 173 189 193 194 195 193 181 154 141 152 158 138 103 105 150 175 85 60 55 159 90 27 52 124 110 76 40 69 124 122 130 135 153 147 125 152 144 72 23 34 30 32 32 40 13 18 40 68 
28 29 26 37 45 57 61 76 65 71 104 109 114 119 124 142 164 160 154 160 141 96 94 112 119 145 162 79 48 57 49 53 37 113 159 151 144 140 152 172 170 153 153 156 168 183 188 188 192 189 176 155 140 152 169 155 124 129 169 180 86 54 60 66 78 44 70 147 139 108 69 59 114 136 129 124 131 144 139 157 149 74 31 28 31 36 32 42 26 13 55 72 
30 29 24 42 46 61 62 80 67 74 98 112 129 153 168 190 196 197 181 185 173 143 109 121 125 139 169 141 111 112 115 116 107 131 145 137 135 154 169 181 163 149 155 158 171 180 191 188 193 196 173 158 145 157 185 184 176 161 164 182 129 101 102 103 96 76 115 160 151 121 85 66 100 146 148 138 132 141 144 156 159 83 30 29 26 39 35 39 34 21 45 74 
34 32 29 45 48 59 72 71 70 71 102 119 149 176 187 195 207 202 191 182 179 158 130 137 136 138 154 154 161 158 153 157 156 150 149 136 140 152 168 179 165 150 163 163 172 186 198 196 199 203 181 171 168 173 198 204 205 203 192 192 174 165 161 161 143 129 134 135 114 108 84 88 112 137 151 158 155 146 152 153 162 102 28 31 27 38 39 40 35 21 41 74 
35 33 32 45 46 61 77 82 68 73 108 127 163 179 184 184 188 181 171 167 161 151 138 149 153 163 167 160 161 161 153 162 167 155 145 145 146 159 167 168 155 149 162 162 170 187 198 202 209 217 194 181 183 185 205 221 212 201 204 193 185 165 151 148 144 131 129 129 108 103 102 106 131 146 153 173 171 156 158 164 163 115 34 26 32 35 40 43 36 30 27 74 
36 35 39 45 46 71 79 87 60 72 112 137 162 172 175 175 171 169 166 153 158 155 157 147 147 153 157 152 148 154 155 151 157 164 161 159 151 155 160 157 151 149 158 160 167 184 200 210 215 218 194 182 190 196 202 224 224 209 195 192 190 180 163 146 144 140 136 152 144 118 108 118 137 152 163 180 188 173 173 167 170 119 43 26 33 30 42 42 37 39 20 61 
39 40 43 44 56 75 82 90 55 81 114 141 161 169 174 172 171 178 175 175 178 189 190 179 176 170 196 173 156 164 169 170 172 172 173 173 165 158 147 147 151 151 156 155 169 183 201 215 210 209 185 181 191 188 198 219 224 217 196 176 162 169 162 146 131 126 136 140 149 138 119 127 139 149 171 185 192 185 171 178 175 131 48 28 31 27 44 41 32 41 26 33 
43 42 51 49 61 81 87 87 50 88 114 142 156 169 175 177 179 189 192 195 208 222 211 196 198 188 205 204 175 181 201 185 186 189 185 183 176 161 146 147 158 157 153 161 172 191 205 212 209 200 189 180 186 190 191 205 214 226 209 185 171 174 182 143 133 144 159 156 161 161 136 144 145 147 170 189 195 191 181 180 174 143 58 30 38 30 36 40 35 38 28 21 
52 48 61 49 69 90 76 91 51 87 115 143 157 175 181 182 186 196 205 213 220 232 220 205 197 197 198 208 193 196 218 210 201 195 200 193 174 161 145 148 155 159 148 171 181 194 211 211 206 197 200 189 197 200 200 212 239 248 226 202 195 175 174 159 150 156 183 186 174 165 155 149 152 154 166 187 194 192 186 180 181 148 67 35 43 38 38 40 33 23 30 10 
54 50 65 55 68 88 74 93 51 87 120 144 163 177 188 189 185 199 213 215 208 213 223 212 192 200 200 210 196 208 222 222 220 208 194 199 178 162 148 146 151 148 152 173 191 202 212 212 205 203 214 205 198 212 213 220 243 255 243 217 213 194 193 179 176 191 200 201 186 170 165 152 158 155 173 195 192 192 187 184 181 159 81 37 45 36 38 41 45 22 24 16 
56 54 59 57 72 81 78 100 47 90 118 143 161 173 188 191 193 205 204 202 192 191 223 226 216 218 219 228 221 200 216 217 215 212 208 203 186 159 146 149 144 141 157 179 196 207 214 213 210 210 216 214 198 208 218 224 237 244 245 238 228 209 204 203 207 212 201 192 194 173 169 170 167 165 177 195 193 193 191 186 186 158 85 45 40 42 39 38 47 24 32 17 
53 51 55 62 68 80 84 100 49 85 116 131 146 161 179 184 190 211 211 203 196 181 204 224 230 230 238 241 216 207 206 215 204 200 203 205 186 166 152 142 148 146 160 187 203 213 215 218 211 213 220 212 184 199 213 215 234 239 243 235 234 230 227 220 222 214 191 187 182 184 179 180 186 187 178 189 196 197 193 186 183 162 87 39 43 43 39 37 47 31 27 28 
52 44 65 63 74 82 94 99 49 79 107 130 143 160 170 181 187 200 213 214 213 202 196 217 226 226 235 232 215 214 212 205 207 197 195 197 190 170 151 140 152 158 171 192 209 216 215 214 218 222 221 206 188 200 203 221 237 242 247 227 214 223 230 228 217 212 198 192 194 192 188 191 193 192 184 194 201 198 194 190 184 159 97 39 51 51 45 38 42 40 21 28 
48 50 61 66 76 88 95 101 51 68 100 127 139 157 170 179 186 197 201 210 219 215 212 208 208 208 215 213 213 212 214 207 204 208 205 197 191 166 142 149 165 171 182 199 210 212 216 214 222 227 225 211 198 209 203 202 234 247 251 224 212 222 226 233 223 211 208 201 201 195 195 201 196 195 185 199 202 200 192 190 185 151 95 48 56 61 45 39 40 45 24 26 
52 51 63 73 75 94 93 100 62 66 94 119 135 152 165 176 187 197 199 208 209 214 218 217 220 217 214 213 213 210 209 214 210 209 207 196 187 154 143 160 161 164 175 197 206 213 216 216 216 217 218 210 200 198 208 201 224 243 237 217 225 231 228 226 222 213 209 204 201 198 194 201 196 195 190 200 203 201 193 188 178 142 96 64 70 80 36 41 40 45 27 33 
56 58 62 74 85 96 89 102 75 60 88 115 130 147 163 169 186 196 202 205 209 213 215 219 218 222 220 221 221 218 219 214 208 200 200 196 187 150 150 153 139 139 158 177 201 210 213 212 211 205 195 179 175 184 197 193 213 234 232 224 228 232 225 219 216 212 212 208 204 197 199 198 193 192 191 202 202 197 195 183 172 128 96 69 95 94 28 42 39 47 28 25 
62 64 60 79 98 107 80 109 93 59 87 106 126 143 159 168 183 195 199 208 212 217 220 222 223 225 228 228 227 223 217 209 199 195 194 188 181 142 139 129 106 94 120 148 179 187 190 182 186 186 162 144 140 155 180 193 215 235 239 227 222 225 220 217 213 210 208 209 205 199 199 196 195 192 193 203 201 200 183 177 160 115 96 72 130 100 24 42 40 45 37 18 
63 67 62 85 111 120 90 101 110 66 79 107 119 140 152 163 177 187 195 205 212 217 221 223 225 227 227 226 225 217 209 203 199 200 197 193 186 150 134 129 100 91 88 111 150 161 157 147 148 146 127 106 114 139 160 182 212 229 232 229 227 227 223 218 214 212 210 210 210 203 202 201 199 192 197 206 200 197 181 166 152 110 105 85 141 90 26 42 37 45 38 20 
56 67 64 84 135 118 111 92 119 75 76 104 112 136 145 158 169 179 186 192 199 203 208 215 215 213 216 212 209 206 204 200 199 203 196 198 192 173 147 125 113 125 124 132 143 150 140 125 119 118 120 123 143 150 152 182 213 223 228 230 228 226 228 216 215 213 212 211 210 208 205 204 202 197 200 208 196 190 166 162 148 108 115 105 135 78 35 39 41 43 37 23 
47 69 60 66 157 128 125 97 121 91 73 104 113 131 140 153 163 176 184 188 192 199 200 203 207 205 207 204 204 201 204 199 200 200 199 199 199 185 178 146 117 134 153 160 156 155 136 125 125 137 145 149 142 147 163 200 215 220 225 224 223 223 220 211 213 213 212 212 206 206 207 205 202 200 201 206 194 186 161 153 137 128 126 124 109 54 58 37 40 42 37 31 
55 69 58 63 157 141 142 112 118 101 70 103 110 126 139 146 156 172 178 183 190 192 195 199 200 201 202 204 202 199 198 199 201 200 198 198 198 193 193 180 148 148 167 172 171 161 145 138 144 150 145 144 146 165 183 204 214 214 219 220 217 217 212 206 206 210 209 210 208 206 209 206 202 202 210 200 194 176 155 142 138 140 136 143 83 39 70 41 41 39 32 35 
55 65 61 56 100 142 154 132 129 101 74 101 111 123 134 143 152 163 170 180 184 187 191 194 196 198 198 198 200 197 197 195 200 200 198 198 195 193 192 195 187 187 190 195 190 179 163 157 162 165 153 155 178 180 187 191 199 198 203 206 207 203 202 196 200 205 204 206 207 205 207 204 204 202 212 195 191 165 143 137 146 148 137 150 86 32 73 47 40 43 27 37 
55 51 61 56 76 115 152 139 140 113 77 103 110 123 129 140 149 161 167 176 180 185 189 193 194 196 196 197 198 197 197 195 200 201 195 196 195 192 192 198 200 207 210 205 200 190 180 175 171 170 168 170 182 186 188 188 191 192 193 196 202 198 197 191 194 201 203 203 204 205 204 205 203 206 208 189 177 158 144 138 156 157 145 152 63 42 59 49 42 46 27 31 
47 42 65 60 65 129 136 145 126 124 79 100 110 121 128 138 141 153 165 172 179 185 188 193 193 194 194 194 196 197 195 197 200 200 193 197 198 192 194 200 205 213 216 214 205 202 195 186 182 174 177 178 178 186 186 192 187 188 187 192 197 195 196 193 193 197 200 202 203 203 202 203 200 204 200 179 171 154 142 149 172 169 149 121 40 49 57 51 39 53 32 21 
49 35 56 62 51 129 133 155 124 124 85 99 110 121 129 136 141 150 162 171 174 184 186 188 189 190 191 195 195 195 198 201 202 198 192 200 201 193 196 202 206 214 215 214 206 205 203 189 189 181 186 188 179 181 191 192 187 185 189 190 195 194 192 192 188 192 193 196 199 200 200 200 201 195 185 174 163 150 136 168 191 170 147 89 38 50 56 58 39 49 43 23 
39 42 36 48 54 88 131 159 151 125 101 100 112 121 128 135 142 146 156 165 170 176 185 186 185 188 187 194 196 196 204 204 200 195 193 204 200 193 193 198 204 207 212 215 209 211 207 199 194 193 190 198 185 182 191 194 187 187 188 191 189 193 187 185 183 186 188 192 197 196 193 191 201 190 174 170 159 147 136 182 196 159 130 85 29 44 53 58 47 43 48 35 
32 37 34 26 50 55 104 154 171 143 109 98 112 123 125 134 140 142 153 161 166 177 179 186 185 186 191 193 196 203 209 203 195 193 190 199 197 191 191 194 201 204 209 212 215 215 216 210 207 206 196 196 195 187 191 192 187 190 184 188 183 183 184 179 184 185 182 188 192 191 189 187 194 179 171 161 150 143 145 181 181 151 117 59 33 38 58 46 53 45 46 43 
30 38 33 29 29 25 54 129 163 143 111 98 112 123 127 133 141 141 148 159 162 171 181 182 186 187 194 197 196 205 200 190 186 186 186 186 188 184 189 193 195 200 203 212 212 215 217 221 215 208 202 194 195 189 194 191 187 190 182 182 184 179 181 179 186 187 181 182 190 190 187 183 189 174 165 156 149 150 149 189 173 132 98 34 35 34 52 44 53 44 44 43 
31 34 30 28 28 31 22 68 129 127 96 97 112 124 133 136 138 142 147 154 162 165 178 183 180 187 193 194 192 196 183 174 179 185 180 169 169 170 176 183 178 179 184 199 202 206 211 220 211 197 186 177 183 193 193 191 188 183 182 175 179 177 171 172 185 186 180 179 186 186 183 184 174 170 162 152 156 152 154 181 153 124 51 25 37 29 46 44 48 47 48 37 
30 30 30 24 28 27 30 43 64 91 70 78 115 125 134 134 138 140 144 150 159 168 177 180 183 187 191 194 184 178 170 162 168 168 166 153 133 131 142 142 139 143 150 166 173 179 185 190 178 158 143 140 158 180 178 181 181 176 173 166 164 171 156 159 177 187 176 181 182 184 177 176 167 161 162 154 170 157 152 159 137 80 22 26 36 32 30 48 37 52 46 35 
26 26 31 26 27 29 25 44 46 52 21 42 112 124 138 134 145 144 144 151 154 166 180 180 192 193 193 193 170 157 151 144 139 133 131 122 108 101 107 112 106 116 128 137 147 146 150 146 149 139 130 127 138 148 147 150 154 153 158 153 148 156 150 144 170 183 175 180 178 181 175 170 165 166 170 171 170 160 142 127 91 27 20 27 34 32 27 43 37 48 47 40 
29 27 27 29 24 31 24 39 50 52 15 24 100 115 133 141 147 150 150 152 155 162 181 185 193 197 197 187 155 151 148 151 150 122 105 108 104 93 95 96 85 91 105 113 121 126 124 125 129 132 115 107 122 129 126 130 121 115 119 119 127 139 146 137 167 179 178 178 174 176 172 165 172 182 180 167 164 168 103 54 33 25 24 24 34 30 30 36 42 45 44 37 
26 30 26 27 23 31 22 32 49 54 21 8 82 112 131 139 148 152 154 156 157 164 176 188 194 199 197 182 157 169 174 180 199 185 149 139 135 134 141 141 138 127 129 126 133 131 125 122 132 146 132 118 126 120 111 120 115 105 117 128 131 141 147 146 169 182 184 182 169 169 161 166 188 186 176 165 165 166 71 29 28 29 20 26 29 32 23 34 39 45 47 42 
21 27 27 25 26 29 22 29 54 55 28 3 53 118 125 139 147 153 157 157 158 160 170 186 189 190 187 175 167 176 183 184 193 202 199 183 177 168 174 176 185 192 190 192 182 173 169 170 173 185 183 166 154 150 139 136 138 152 165 174 172 165 160 155 181 184 185 180 169 163 153 168 190 181 173 164 169 147 53 25 35 28 24 27 28 29 28 29 37 42 45 52 
19 26 22 27 25 26 22 24 51 56 37 6 22 113 120 135 146 152 159 160 161 163 169 174 181 181 179 173 169 181 182 181 185 193 193 197 196 194 189 186 189 198 203 201 194 190 195 195 193 191 190 178 161 158 163 164 163 176 176 180 182 179 169 166 181 187 181 177 166 160 150 174 188 178 168 165 173 119 31 33 32 34 20 27 29 26 27 28 35 35 47 54 
26 23 24 23 25 24 22 21 43 57 41 17 3 88 119 127 142 153 161 160 162 167 170 162 172 173 175 168 171 177 178 180 177 187 189 197 201 201 199 199 195 194 197 194 188 189 188 186 191 183 178 183 178 177 173 172 170 172 177 178 184 184 174 173 183 181 177 172 162 153 147 176 186 173 163 167 167 87 28 31 33 30 22 26 28 26 28 27 28 39 37 53 
23 24 23 20 23 24 20 29 34 50 53 24 8 47 110 120 135 149 162 159 164 164 164 157 165 167 169 166 172 173 176 174 176 173 182 189 196 200 196 202 203 198 194 197 191 196 192 189 192 190 183 183 192 185 181 177 170 170 177 181 181 178 174 177 178 178 175 161 156 149 150 179 180 168 164 164 151 54 25 33 33 25 27 23 26 27 22 30 27 41 31 51 
22 24 25 18 20 26 26 31 27 39 58 32 19 12 94 114 126 145 154 159 166 163 166 163 164 165 164 165 166 172 173 171 171 168 170 172 187 189 193 202 206 205 200 195 198 196 196 190 193 192 192 187 187 193 187 176 170 173 177 183 177 172 178 183 178 176 167 156 150 143 157 182 176 167 161 161 117 33 29 29 32 26 26 22 31 26 25 27 33 31 35 47 
20 24 20 17 22 24 31 33 25 26 63 36 25 8 44 112 119 132 145 156 160 165 173 168 169 165 155 157 158 168 168 166 164 170 166 165 172 177 178 185 189 193 196 194 195 194 194 192 190 190 189 181 183 186 189 173 177 181 180 177 175 169 176 180 176 169 156 154 147 145 166 180 174 166 156 148 71 25 31 32 28 26 26 25 29 30 22 26 32 33 32 38 
23 20 18 19 22 33 32 31 20 19 53 55 25 24 13 88 112 122 133 147 151 169 172 170 174 181 177 168 162 154 155 161 160 164 164 166 168 170 167 163 165 170 175 177 177 176 173 174 172 171 176 170 174 173 178 184 174 172 170 172 169 165 171 178 172 166 154 150 149 145 177 178 166 156 156 108 39 29 30 29 29 26 25 26 26 29 25 25 31 37 25 37 
14 21 15 19 30 31 27 28 20 21 42 64 36 21 18 39 104 115 118 135 144 156 167 158 168 176 204 202 197 184 174 171 173 174 169 168 168 166 168 163 167 164 165 168 157 159 160 163 160 160 168 168 174 175 170 183 176 173 177 173 169 161 166 168 168 164 155 147 146 152 178 167 160 155 123 60 33 29 34 25 25 29 25 26 26 30 27 25 28 39 29 26 
17 21 17 26 39 29 24 22 18 25 29 64 47 26 22 21 84 103 113 121 137 151 149 154 157 168 185 202 210 209 206 190 188 186 192 189 182 175 180 183 182 180 180 176 170 170 171 175 174 182 187 190 187 184 177 192 190 181 182 172 172 158 162 166 167 159 152 145 145 164 172 160 150 131 74 43 34 29 33 24 29 28 28 25 30 32 26 23 29 32 38 28 
21 18 30 35 34 27 25 19 19 27 33 43 62 27 25 23 87 91 102 111 122 138 139 145 149 160 164 176 187 201 209 195 195 196 199 210 209 205 200 199 194 192 198 190 195 200 194 198 198 210 213 205 193 191 195 201 187 177 178 176 168 169 166 164 163 157 148 144 147 167 163 149 132 93 48 42 32 29 31 23 28 30 29 27 29 33 25 28 27 32 42 34 
21 23 44 36 32 25 23 18 22 27 39 31 49 48 26 31 85 99 92 101 108 121 131 137 141 151 156 159 171 177 191 201 205 198 191 196 210 220 224 222 220 212 216 204 202 221 221 224 223 213 202 192 194 192 199 199 184 179 176 172 172 166 160 154 153 150 146 144 152 160 151 136 85 60 46 36 33 32 27 27 28 30 29 30 31 38 30 32 28 29 43 38 
32 39 39 39 30 23 22 19 24 31 38 30 36 63 31 29 92 94 97 84 94 106 116 127 134 145 148 153 163 171 174 185 204 203 196 200 206 211 210 216 220 224 225 219 221 229 225 217 213 206 196 195 196 191 195 191 177 175 176 173 166 158 150 150 151 147 143 144 146 148 127 101 63 57 39 32 32 29 26 28 29 33 28 28 37 35 31 36 31 26 42 41 
36 39 43 30 26 27 21 25 24 33 37 24 31 61 49 32 95 98 93 89 82 84 102 110 124 132 142 145 153 163 170 172 185 188 203 208 218 213 204 208 212 220 230 223 221 220 221 217 212 204 200 200 196 190 185 185 177 173 166 168 159 152 148 145 145 144 138 140 132 124 93 81 55 56 38 32 31 28 32 28 29 35 37 24 38 39 32 38 31 29 38 45 
41 46 37 29 25 26 27 31 30 33 36 31 30 57 56 45 92 107 92 90 85 81 80 95 109 115 130 134 143 154 169 172 177 181 184 196 203 210 208 210 212 215 215 217 214 215 215 210 207 205 196 192 188 181 184 179 171 166 166 164 152 148 143 142 138 135 134 119 118 87 75 65 59 51 45 31 32 32 32 32 31 35 36 29 37 42 32 39 34 29 38 44 
46 41 31 30 28 25 31 35 37 37 34 33 35 55 54 67 96 105 98 99 83 82 73 86 91 104 111 128 133 144 160 169 177 184 184 190 198 199 200 205 206 208 209 212 214 210 207 202 202 195 190 185 180 182 186 173 170 167 165 155 145 137 134 134 128 124 116 115 99 65 70 63 54 49 42 31 30 39 33 40 35 39 32 31 39 41 33 38 36 32 38 40 
40 33 31 26 31 31 40 42 42 38 33 33 41 52 54 71 121 101 105 103 88 84 73 80 78 91 96 111 122 132 149 157 172 181 187 194 196 196 198 202 206 207 208 206 203 198 197 194 194 186 180 177 177 174 177 168 165 159 154 140 132 127 126 115 115 117 113 114 89 39 64 56 55 43 41 35 33 42 42 39 43 38 32 38 39 42 39 36 36 33 41 40 
32 36 30 26 30 36 50 44 41 41 34 37 40 56 50 70 134 119 103 105 94 95 75 77 78 84 84 95 110 114 131 142 158 172 183 188 190 193 195 193 197 196 193 193 188 187 188 185 190 182 180 176 172 168 164 156 154 144 140 125 120 115 110 100 110 117 114 111 80 22 52 48 49 43 43 34 36 47 46 43 46 41 35 32 40 40 44 34 42 33 46 39 
36 29 35 25 32 46 47 44 43 38 32 41 34 56 50 73 130 126 113 106 98 92 87 74 77 76 80 85 92 104 113 124 143 153 165 179 181 184 189 188 188 186 186 183 181 185 184 181 181 175 173 169 161 157 151 143 138 131 117 112 102 95 95 99 108 116 116 107 62 18 35 44 50 41 37 37 37 48 46 44 47 43 29 36 38 43 43 35 44 44 44 40 
34 30 32 27 35 44 41 42 41 41 38 37 31 59 52 71 130 123 115 114 105 96 90 79 74 80 75 79 88 95 103 112 120 134 147 157 162 170 174 186 180 184 184 187 182 181 183 172 170 164 162 155 146 143 134 129 123 107 106 94 92 93 95 100 114 112 114 98 53 17 25 47 46 41 38 41 41 50 47 52 45 43 26 42 44 38 41 33 46 42 46 45 
33 32 30 30 44 40 44 42 42 41 40 34 34 58 51 79 132 124 107 118 113 105 92 83 80 80 75 76 80 87 94 99 105 121 129 134 144 152 153 166 169 173 176 173 174 169 172 165 159 151 150 138 133 124 117 113 106 95 91 93 92 95 97 105 118 121 111 90 48 16 20 48 44 46 39 47 42 52 45 53 41 38 25 42 48 38 40 30 52 40 44 47 
25 29 32 30 48 39 49 41 46 44 43 33 41 59 49 85 134 122 111 113 116 113 102 88 85 73 81 78 77 81 84 93 98 102 111 118 125 127 131 137 141 141 148 144 148 147 151 145 140 137 129 121 115 105 107 98 96 97 96 97 91 97 101 117 122 122 104 85 39 16 24 42 47 46 49 47 39 46 48 44 39 29 29 46 47 37 37 28 44 38 50 52 
18 30 25 36 36 36 44 40 54 46 43 36 49 57 52 86 138 117 114 116 111 111 115 99 86 78 80 78 76 77 80 83 90 94 99 102 107 112 115 120 119 120 125 125 126 127 129 125 120 118 116 110 106 105 105 101 102 98 97 96 97 100 111 122 129 114 105 87 28 19 24 36 45 41 50 47 37 43 42 31 33 26 35 50 43 33 33 30 41 37 45 49 
19 27 20 42 28 38 42 38 57 46 36 46 49 63 53 93 130 120 109 117 117 109 112 114 98 87 80 79 75 73 80 79 79 87 90 95 92 100 101 102 103 106 108 111 113 115 113 104 109 109 108 108 107 109 105 108 99 96 97 102 98 109 118 128 118 115 104 77 28 18 28 35 34 37 45 43 38 33 33 29 28 28 45 46 36 33 37 29 38 35 42 43 
29 25 22 39 30 38 33 46 53 42 40 52 48 71 62 96 123 121 114 112 119 116 108 111 109 94 88 81 77 75 74 81 76 82 85 88 90 95 95 94 96 95 97 101 103 106 106 101 105 106 106 105 107 106 103 99 95 98 101 103 104 118 124 127 118 115 104 67 24 26 29 31 27 34 38 32 31 30 26 26 29 43 44 40 31 31 36 33 42 30 40 39 
22 27 23 37 36 31 35 51 46 38 41 47 55 68 75 99 121 121 119 115 113 118 119 106 112 102 95 88 81 77 73 76 80 82 79 83 83 88 88 89 90 89 94 99 96 104 100 100 100 105 104 105 104 99 91 94 100 98 103 103 106 120 131 128 126 117 96 52 36 31 27 30 25 30 27 27 27 23 28 27 40 42 40 32 29 31 37 31 42 25 41 29 
