P2
# Imagen
92 112
255
102 106 103 100 105 104 95 100 99 102 108 119 120 120 115 120 134 134 149 151 147 154 163 162 160 147 119 115 125 109 110 109 120 112 117 120 116 114 120 121 122 110 127 122 127 128 129 123 124 133 121 133 128 131 142 147 157 169 184 201 191 197 187 155 159 142 99 79 67 66 70 60 60 80 94 102 100 102 101 101 99 103 102 100 97 100 105 99 103 102 102 100 
101 104 109 105 106 100 94 102 102 98 110 124 119 125 129 137 159 139 146 145 174 176 170 163 147 126 107 109 107 107 107 103 110 109 108 113 105 108 108 114 109 106 112 113 112 111 115 110 109 109 123 124 125 132 123 121 140 137 142 168 171 181 193 188 186 182 178 149 118 80 67 68 66 59 76 102 104 102 102 103 101 101 101 101 99 98 102 102 101 100 102 100 
104 105 108 109 106 102 96 102 99 101 112 130 128 128 145 165 159 133 130 165 191 192 160 147 131 111 92 105 98 104 105 103 106 110 103 106 103 104 104 109 96 103 106 108 98 104 105 107 101 107 112 120 120 124 125 115 120 125 123 136 143 153 156 171 183 180 191 207 182 161 114 86 75 65 53 83 102 100 103 107 103 106 104 106 101 101 101 104 101 100 104 102 
109 110 113 114 115 102 100 105 115 114 120 122 139 152 169 174 150 147 137 162 183 171 139 118 116 107 93 97 96 101 99 102 102 103 98 101 101 100 98 103 101 97 107 99 98 95 101 102 98 102 102 98 107 105 106 109 106 110 113 122 125 141 135 136 146 151 164 180 192 203 189 151 127 106 68 57 71 87 99 102 104 104 103 105 106 101 102 104 102 102 104 103 
104 109 117 120 119 115 109 115 119 125 121 138 159 185 182 178 166 166 154 151 161 141 127 103 104 107 94 101 90 105 100 101 101 100 99 96 106 91 95 102 102 96 99 102 98 99 89 96 97 96 104 94 96 96 95 98 104 105 92 102 107 112 132 127 117 131 127 152 161 181 201 202 169 155 125 79 60 67 74 99 100 102 105 103 105 100 105 101 102 100 104 103 
102 109 111 114 110 117 122 127 133 149 163 160 169 184 198 195 178 158 155 142 139 119 116 100 106 98 98 100 96 103 95 98 107 93 102 93 105 91 89 95 102 88 86 100 88 105 93 84 102 89 103 95 83 87 100 96 95 108 94 100 99 101 101 115 105 105 102 119 141 138 163 196 201 192 165 144 89 70 62 64 95 105 102 102 108 99 104 102 101 103 103 103 
107 114 116 112 112 122 140 167 170 163 170 164 161 179 189 172 160 148 136 128 117 107 111 99 105 100 97 90 104 100 96 99 111 96 99 101 96 92 96 89 96 97 78 90 91 100 96 74 94 93 100 93 85 87 92 99 95 102 98 101 103 93 99 106 93 94 89 82 92 127 132 155 185 192 186 178 144 110 82 59 71 106 105 102 101 105 100 102 102 101 102 100 
104 113 112 118 121 150 173 177 173 173 169 169 168 164 160 157 145 133 117 116 104 105 109 106 100 102 101 89 109 100 93 102 111 100 89 101 96 96 88 87 93 100 75 87 88 90 97 79 86 86 102 95 78 81 92 91 88 93 99 95 114 96 94 109 88 99 74 79 67 97 93 113 158 157 183 188 178 137 120 97 57 72 99 107 101 100 98 103 102 100 104 98 
110 117 118 123 155 180 175 184 175 169 175 174 164 165 142 134 131 116 106 108 103 102 107 109 103 104 96 90 105 107 97 96 110 103 91 98 94 97 79 83 87 92 84 79 93 80 86 88 81 88 86 102 87 67 85 92 78 81 98 92 109 101 95 105 92 98 89 75 73 86 87 71 110 147 129 182 200 172 134 128 120 68 76 92 104 100 102 104 102 100 104 102 
116 121 135 159 179 180 179 184 173 175 166 172 151 146 133 120 114 100 112 100 106 104 108 107 99 100 97 84 104 106 102 97 97 103 92 90 93 97 86 78 77 88 89 81 76 85 80 88 79 85 79 95 99 75 71 86 82 80 84 91 102 100 96 101 98 81 105 75 73 83 91 64 78 126 124 108 175 193 161 150 143 118 80 67 93 98 101 102 104 104 101 107 
117 141 166 180 181 183 177 167 178 166 165 153 132 118 106 114 108 98 106 109 96 104 101 103 98 99 98 80 93 115 107 94 91 105 84 84 88 86 106 71 75 82 78 73 73 78 69 82 79 79 74 84 94 95 78 74 89 77 81 75 103 88 96 104 97 87 91 102 67 93 99 82 64 104 119 111 105 155 176 173 171 139 119 87 66 80 106 99 106 100 106 105 
142 171 178 179 181 186 169 168 182 158 141 114 104 106 103 110 104 97 107 106 94 103 96 100 100 101 94 82 92 110 106 93 86 112 78 82 90 73 108 89 81 68 79 69 70 71 63 81 64 83 79 79 95 87 95 79 79 80 76 71 85 92 84 107 99 93 74 102 85 86 97 94 57 71 123 103 99 118 136 167 177 165 143 132 76 57 75 97 105 106 101 104 
172 182 177 178 178 166 167 175 159 123 106 106 97 102 103 110 104 100 104 108 89 105 97 97 94 98 95 83 93 102 108 99 85 101 88 82 94 76 99 96 88 75 77 77 77 76 67 85 66 68 89 83 86 88 88 84 79 88 78 75 71 92 81 104 93 92 76 88 99 95 99 95 75 62 110 118 90 113 114 119 156 172 170 148 112 63 58 77 96 105 107 101 
177 176 177 181 171 168 170 156 123 99 99 105 96 101 97 109 100 107 99 110 101 96 98 95 94 92 96 90 91 99 102 97 91 90 88 88 92 76 85 105 97 83 76 90 74 83 68 88 89 61 95 90 96 96 87 79 95 88 92 78 74 88 95 94 103 82 94 82 96 92 104 97 80 77 84 112 98 102 111 109 117 148 163 177 132 79 72 74 71 93 108 107 
167 171 170 176 160 152 147 116 104 92 94 103 92 99 101 106 94 107 93 103 103 101 106 97 88 104 89 91 95 101 91 97 97 87 92 97 92 82 84 100 111 100 82 106 90 84 88 82 99 75 93 99 95 98 100 79 99 99 98 89 77 88 96 107 101 81 96 88 89 98 96 103 89 74 81 86 108 107 98 107 98 113 130 159 149 108 71 77 70 62 105 105 
168 169 187 179 137 137 109 100 104 88 95 107 91 92 99 97 100 99 91 92 102 96 110 93 88 102 88 91 99 107 86 97 113 99 100 104 90 98 92 101 116 108 101 100 119 96 101 85 108 85 94 103 102 100 108 105 97 111 102 95 90 94 95 110 108 85 82 89 105 99 94 87 98 92 63 85 111 109 101 82 90 98 109 130 133 125 91 68 69 61 80 106 
171 171 191 163 117 106 92 99 101 92 91 109 96 83 98 101 93 90 83 92 93 93 104 92 90 97 86 100 104 116 82 108 127 120 114 104 111 114 111 115 119 127 111 109 121 111 111 111 115 109 103 104 112 109 121 132 115 126 113 108 104 101 106 111 122 92 82 81 109 101 98 76 103 93 74 81 116 101 96 95 75 100 100 131 149 111 123 79 71 66 67 93 
172 179 166 136 102 94 89 88 102 99 89 97 95 80 100 88 91 91 81 100 87 102 104 90 94 96 91 102 109 119 97 117 135 133 127 116 124 129 123 124 124 128 120 131 132 112 114 130 120 137 105 122 124 120 127 137 142 126 137 125 126 130 118 115 124 119 100 89 97 116 110 85 99 100 95 75 109 107 91 90 72 108 109 113 139 130 111 108 69 71 68 67 
180 174 136 120 100 86 85 91 95 96 94 85 91 85 105 87 87 97 87 100 87 99 105 89 93 107 102 107 111 124 116 124 137 127 136 126 137 138 130 135 127 128 120 144 140 125 121 131 133 148 123 118 136 136 137 142 154 140 145 145 142 146 136 120 130 145 106 122 104 120 120 97 88 98 114 94 97 110 90 85 85 98 116 94 131 136 114 124 82 67 70 66 
182 166 118 121 91 83 86 100 92 93 87 85 87 86 107 85 90 100 91 102 95 102 100 94 89 114 116 113 119 128 119 130 138 132 130 128 132 138 121 141 141 127 126 138 145 131 124 136 135 143 143 119 136 148 151 148 157 150 152 160 151 153 138 132 137 156 120 139 105 124 123 107 91 103 118 95 98 101 100 91 97 86 107 101 145 136 128 120 111 64 78 74 
175 147 108 116 101 86 94 97 91 92 94 88 87 91 101 90 93 99 99 104 98 105 105 100 102 115 126 114 127 128 124 129 144 133 139 132 124 130 131 138 147 140 136 130 145 137 123 131 130 134 151 135 141 149 158 146 154 154 152 155 155 162 144 150 134 157 138 128 115 120 129 105 100 115 112 93 105 101 109 97 97 88 97 113 127 139 148 125 126 83 75 80 
164 136 107 103 107 94 97 90 92 91 102 93 89 90 102 91 98 99 96 104 103 102 112 112 108 116 126 121 126 133 128 135 141 135 138 131 115 128 133 136 143 142 140 134 147 140 127 134 134 122 142 144 146 140 158 139 150 155 144 158 144 162 154 151 141 140 152 138 115 115 127 113 99 118 104 105 106 104 99 85 88 89 87 107 128 126 152 123 130 94 77 77 
154 131 102 100 104 103 97 96 93 104 96 97 102 92 91 91 97 98 99 100 102 110 110 115 111 117 125 116 120 128 125 135 137 131 122 121 118 130 131 129 128 131 123 139 141 141 123 132 127 126 123 137 141 130 145 133 132 149 142 150 129 150 150 149 133 113 147 146 122 109 121 115 100 109 115 115 119 111 99 88 94 87 87 101 118 108 137 142 125 103 82 84 
128 124 98 94 105 108 104 102 102 99 102 100 103 90 89 75 89 99 102 100 112 106 99 112 104 108 117 110 106 116 110 123 125 115 102 116 117 125 127 121 111 115 115 125 131 139 125 114 111 110 98 122 124 116 113 124 111 121 128 121 112 121 131 130 112 93 122 142 123 102 113 107 87 100 116 113 114 107 96 88 94 100 89 96 108 105 116 138 126 102 84 91 
134 107 99 99 92 104 103 102 103 94 104 89 96 77 83 79 73 98 107 101 95 86 95 97 91 102 96 85 85 95 85 92 92 81 89 84 88 102 101 97 91 87 91 104 105 119 104 92 85 90 77 88 96 79 84 79 87 84 95 90 81 87 96 88 88 84 91 109 115 98 103 100 86 81 112 99 100 98 97 79 95 104 90 104 103 116 110 130 127 109 84 86 
125 96 93 100 93 84 100 93 98 95 94 94 94 87 85 75 87 99 107 102 85 80 85 87 83 84 79 58 58 76 66 55 59 54 60 57 55 76 79 66 61 62 69 80 85 84 82 73 71 69 61 71 71 52 55 50 55 60 73 61 51 55 61 52 60 61 75 87 100 90 88 85 84 83 95 92 106 98 93 97 107 109 100 103 100 121 104 132 131 120 93 77 
124 106 92 91 99 88 90 98 95 91 80 86 88 90 86 88 104 109 103 95 91 79 85 75 64 64 61 58 38 51 60 41 32 34 36 42 39 35 49 40 28 35 54 54 57 51 62 58 57 63 56 47 42 43 31 29 36 41 39 49 32 33 33 37 48 56 69 74 90 90 83 75 85 92 88 81 92 99 98 99 111 109 104 104 103 117 114 114 133 124 103 72 
121 96 98 96 92 102 89 86 83 93 78 76 79 84 91 95 104 108 98 102 88 100 93 80 58 50 56 62 56 46 47 32 27 37 31 26 32 24 17 16 25 22 37 47 49 52 47 57 56 58 53 48 32 31 23 10 27 25 31 39 19 20 20 34 39 52 51 72 79 80 88 77 87 84 90 90 89 87 86 86 88 97 108 99 99 113 105 113 127 123 114 68 
101 96 92 95 94 87 104 88 80 84 82 69 69 87 94 103 98 113 100 93 97 102 103 87 70 61 61 65 85 65 65 55 42 62 56 32 42 37 34 31 37 47 51 54 39 60 65 59 55 55 44 38 30 23 28 22 29 29 40 38 25 24 22 42 45 60 66 76 87 101 95 94 91 102 109 96 86 85 80 78 87 96 108 102 98 107 109 118 131 120 116 85 
94 94 83 94 87 85 100 96 83 82 72 73 83 89 89 104 100 101 99 91 98 101 102 89 76 78 63 70 80 75 66 71 62 86 82 51 59 56 65 52 58 86 82 66 57 76 87 70 71 68 58 50 47 33 35 38 40 40 45 44 45 34 44 44 47 68 88 106 101 124 113 109 104 95 119 98 89 85 83 79 86 93 90 96 93 101 111 123 138 125 113 103 
89 94 86 78 81 92 97 84 85 78 79 76 94 87 87 100 107 99 102 99 95 92 98 89 79 84 73 68 73 72 74 78 94 97 97 69 79 81 80 75 85 115 108 82 83 95 101 90 81 84 68 62 68 46 55 50 49 41 48 45 53 50 49 45 46 69 84 112 110 123 120 101 109 106 112 113 99 94 84 91 87 90 90 83 85 98 109 118 137 133 117 107 
87 92 87 74 81 82 92 79 78 83 79 77 89 81 90 111 111 108 107 102 91 84 84 90 84 81 82 71 78 74 78 84 107 95 105 97 98 109 103 95 101 112 118 90 101 108 110 102 90 104 87 66 80 59 63 56 63 59 50 45 48 49 49 49 44 66 80 93 100 112 116 102 93 109 113 124 120 109 90 93 89 93 87 86 75 95 106 110 139 129 126 113 
84 83 87 78 85 79 87 86 77 86 84 86 90 86 98 113 117 114 110 100 98 90 83 86 83 84 84 72 67 80 83 93 95 80 86 91 97 118 112 95 95 101 107 99 98 106 104 103 99 112 95 77 88 72 68 64 67 68 63 52 48 51 49 52 41 53 79 86 93 96 114 106 101 101 112 125 118 111 101 92 90 90 88 93 85 81 112 93 143 140 133 121 
87 83 79 83 89 89 92 89 85 93 95 93 98 109 106 125 124 107 110 100 99 96 90 79 89 85 80 76 66 71 81 82 92 79 78 88 84 108 108 89 88 102 93 105 91 102 104 92 93 112 106 81 87 83 73 67 74 65 65 49 46 43 47 50 45 49 68 76 93 84 102 113 97 101 102 115 121 112 100 97 89 95 97 82 98 91 105 98 131 150 120 137 
86 87 85 73 98 95 91 98 103 99 96 90 102 116 110 130 120 95 111 97 105 98 92 92 90 84 81 73 70 79 89 88 88 82 80 82 84 88 106 91 85 101 91 99 96 98 110 97 90 112 106 90 84 79 75 65 76 68 62 59 47 45 48 48 50 49 60 66 86 88 91 111 98 100 101 107 115 109 104 88 95 89 97 90 89 111 103 115 121 143 119 128 
92 92 90 78 93 100 101 110 113 97 97 100 105 113 111 131 125 100 113 104 109 104 98 96 88 88 83 77 81 80 87 89 78 82 79 86 79 82 96 99 92 105 97 101 100 98 107 105 94 110 101 102 93 91 86 77 91 81 73 70 56 53 53 51 57 52 59 61 72 87 92 100 97 97 109 107 110 115 104 96 83 93 92 101 83 111 109 112 139 137 118 123 
94 91 101 83 89 97 106 119 116 103 102 110 110 109 103 130 123 112 112 108 102 98 104 93 92 89 77 77 85 79 84 82 83 89 83 90 89 92 88 102 97 107 96 99 102 101 100 99 100 112 102 104 104 101 96 82 94 90 80 79 66 63 57 55 59 58 55 62 67 74 88 90 96 98 104 107 110 119 115 103 85 86 93 98 102 109 105 104 142 150 134 118 
109 91 99 88 93 98 114 120 123 109 98 109 104 111 108 119 120 99 115 111 99 99 99 92 92 92 75 84 85 79 86 89 87 92 89 93 97 104 93 99 99 106 107 108 103 108 109 104 107 114 107 104 109 110 99 93 94 90 86 87 76 71 60 58 62 63 59 60 66 72 83 85 89 95 104 101 104 111 119 109 96 83 92 91 112 116 108 102 120 150 145 115 
101 103 85 82 95 112 117 125 118 107 90 98 106 117 110 121 110 93 110 111 106 98 92 90 89 93 83 88 86 85 87 91 90 96 97 98 100 110 107 101 100 106 106 111 110 110 117 104 107 117 108 106 113 113 105 97 99 95 97 93 85 79 67 66 61 66 57 63 63 67 79 79 88 85 99 102 107 107 116 107 98 90 93 95 114 119 108 111 114 137 141 116 
94 100 90 84 98 114 122 130 117 98 88 96 108 115 113 123 107 88 104 109 113 100 92 92 88 87 89 92 92 88 88 93 94 99 103 105 104 109 108 107 105 107 105 111 112 110 116 114 103 114 111 110 112 112 110 104 102 96 101 101 92 79 74 74 67 70 62 60 63 64 71 76 81 82 88 96 106 103 118 113 102 90 94 100 113 117 106 111 126 135 133 112 
107 89 95 86 100 115 118 128 112 93 95 99 104 113 119 116 107 88 101 100 106 92 88 93 84 85 93 99 95 91 97 98 94 100 109 107 107 109 109 107 109 109 109 111 116 112 113 112 112 115 111 110 116 113 107 107 107 103 104 106 102 91 79 79 72 71 67 59 59 61 62 74 74 77 73 90 98 107 119 115 111 98 96 105 114 110 104 109 130 135 133 108 
109 92 87 94 98 116 126 129 110 99 100 101 102 114 120 112 107 87 99 97 102 84 82 92 81 87 93 101 94 90 101 102 95 97 105 103 106 110 108 108 109 112 111 112 115 119 114 113 113 115 116 111 115 114 111 109 110 110 106 103 103 99 85 80 78 77 68 61 59 58 68 67 75 75 66 81 90 99 115 116 120 104 102 105 116 106 99 106 134 128 152 99 
111 96 92 89 97 119 130 126 116 101 108 106 95 113 118 112 108 87 94 101 88 73 69 88 78 77 87 88 82 79 88 89 86 87 91 94 98 102 105 108 106 113 111 116 115 117 116 114 114 115 118 114 112 113 111 113 110 109 101 96 93 89 87 75 69 72 62 56 59 56 63 59 70 63 68 70 82 97 108 116 124 119 105 117 118 101 96 106 127 141 135 119 
102 104 90 87 94 118 126 136 118 107 114 104 108 110 119 113 104 94 94 89 75 63 61 76 85 74 78 76 74 69 77 80 81 83 78 80 85 92 99 102 105 111 112 114 113 116 116 117 116 117 116 115 111 114 112 114 106 97 95 89 86 81 83 81 62 62 56 50 49 54 49 55 52 55 63 70 77 89 102 119 122 129 111 121 117 109 98 107 115 145 132 106 
100 93 106 84 90 110 134 131 123 109 108 107 113 105 122 110 101 92 92 74 63 60 62 66 77 77 76 75 73 70 75 76 80 81 77 76 79 86 92 94 104 107 111 112 114 115 116 114 112 116 115 117 111 113 115 106 100 91 89 89 86 81 78 81 67 58 55 51 44 50 40 47 43 44 53 65 76 85 97 118 124 132 122 121 112 108 100 106 119 135 138 109 
104 88 108 100 81 111 137 141 126 102 104 109 119 114 120 110 96 88 80 65 67 64 68 78 81 86 86 82 82 77 78 83 80 83 81 83 80 85 89 90 96 104 106 110 110 112 114 112 110 112 114 113 111 110 110 102 100 90 86 88 86 81 77 79 73 63 57 55 48 44 44 42 45 36 38 55 77 80 97 114 132 132 127 120 109 110 102 109 125 126 139 104 
107 93 102 105 84 119 141 138 120 114 99 113 119 124 119 112 99 74 74 72 85 78 87 91 95 95 97 91 90 91 86 91 86 86 88 86 85 87 92 89 96 101 106 108 105 110 110 110 109 110 113 107 109 105 101 95 99 92 89 90 87 83 78 78 76 76 66 59 57 48 51 50 47 40 35 40 66 86 93 119 128 136 132 119 108 109 106 105 131 110 125 123 
105 98 102 107 89 118 148 133 126 118 104 115 127 129 121 111 95 77 79 84 95 90 91 98 100 99 104 98 96 96 96 95 94 90 90 92 89 92 90 92 94 97 103 104 107 105 107 108 107 108 108 103 107 102 96 91 95 93 96 93 92 84 89 87 82 83 78 63 64 58 54 49 48 48 44 41 45 85 102 117 130 135 129 118 105 110 102 109 133 116 105 127 
112 98 103 108 98 115 146 136 116 115 112 120 128 126 126 107 86 95 89 83 90 92 89 100 97 94 97 96 92 90 93 91 94 96 90 93 94 94 92 94 91 95 98 105 105 104 107 109 108 105 104 103 100 95 95 92 91 93 93 93 88 88 91 87 84 81 78 73 60 60 53 49 49 50 55 53 48 69 110 126 135 134 128 121 105 104 118 104 129 119 101 117 
105 100 104 107 96 114 143 129 113 100 108 126 129 119 116 97 85 94 93 86 84 90 91 90 95 89 89 93 91 92 88 88 89 86 86 89 97 95 94 96 91 90 99 102 107 102 105 108 107 104 105 103 102 93 93 94 95 94 94 89 83 86 84 79 78 74 75 74 66 60 56 50 47 49 57 58 58 62 106 136 137 133 123 114 108 105 116 103 120 124 98 103 
99 101 107 112 91 120 134 115 104 95 98 123 124 118 104 91 85 95 88 88 87 88 86 80 90 93 84 82 85 87 83 83 85 85 88 88 92 97 96 99 96 93 96 104 107 105 107 107 108 107 107 102 99 94 94 92 98 90 90 88 85 87 81 84 75 79 71 73 63 60 59 58 56 54 54 67 65 67 103 136 141 130 121 113 110 110 112 108 102 118 97 102 
91 102 104 107 97 111 124 100 83 80 95 113 112 107 95 100 114 113 101 89 96 98 88 91 85 92 90 86 81 85 82 82 86 92 93 101 96 95 98 104 102 100 99 105 108 106 112 110 111 112 110 106 101 99 101 98 97 92 92 97 94 93 90 90 85 89 87 82 85 80 70 82 79 61 59 65 80 70 101 136 142 121 122 113 105 114 104 110 106 108 99 103 
97 95 98 105 98 108 100 77 62 63 80 95 97 94 101 123 127 122 106 107 116 129 127 121 110 113 123 111 105 112 115 101 100 116 116 107 113 106 105 111 111 109 104 108 109 113 115 116 115 118 117 107 102 105 111 109 105 111 121 122 123 120 124 116 118 111 110 110 104 112 111 106 106 98 76 76 89 88 101 132 144 127 113 110 108 110 103 106 121 106 102 107 
97 95 99 102 107 101 79 58 51 48 67 78 78 95 104 122 116 103 110 129 153 165 160 155 169 172 179 170 176 172 176 164 141 148 166 143 128 130 127 129 130 125 119 116 119 120 122 124 123 127 124 116 113 120 135 138 143 147 160 168 153 149 155 160 143 142 145 149 136 136 132 133 126 134 114 89 94 95 110 128 145 133 116 108 111 110 103 100 128 115 113 112 
92 96 96 110 112 94 77 54 38 51 66 83 95 87 81 84 80 75 109 146 162 169 164 167 191 210 210 212 221 220 215 210 186 200 215 194 162 150 152 153 154 144 134 128 131 130 132 131 128 125 122 119 121 140 151 158 155 165 184 194 172 168 166 192 172 159 167 185 174 166 141 136 133 135 139 134 98 95 106 126 135 142 117 109 112 107 103 96 129 121 114 109 
102 94 96 107 109 102 84 70 54 54 93 103 98 65 48 37 35 55 93 115 130 127 138 163 191 225 233 222 226 223 223 215 209 220 240 218 191 176 166 156 145 136 129 118 113 115 117 117 117 117 111 104 119 142 144 151 151 168 195 210 197 185 181 185 176 177 181 189 174 154 129 109 115 106 110 128 120 71 77 105 122 141 121 117 110 107 106 86 121 127 111 111 
96 92 94 109 102 93 91 68 62 89 122 115 81 39 5 4 25 47 56 59 60 71 90 123 149 163 184 184 189 184 182 184 184 194 199 198 184 163 153 142 128 114 107 102 102 99 100 103 102 107 101 104 119 120 130 140 143 147 169 190 182 168 158 155 147 146 162 169 157 134 117 89 78 72 49 60 93 54 30 65 97 129 126 127 111 100 100 92 116 129 115 108 
99 97 90 108 97 91 79 67 60 94 120 96 61 28 28 37 65 65 61 50 57 78 101 123 127 125 133 132 123 118 115 129 134 145 143 137 127 111 107 107 99 88 84 75 82 79 87 87 90 90 90 102 107 105 117 124 130 122 133 156 161 160 158 162 165 155 157 158 139 117 104 80 59 60 37 29 50 60 21 29 60 106 130 127 115 92 91 104 116 126 118 112 
106 100 94 102 92 79 71 56 57 90 101 71 37 26 55 70 74 74 69 83 99 113 123 135 134 125 128 123 110 112 106 107 109 109 117 107 109 103 82 79 61 46 45 39 48 58 58 74 77 85 94 106 117 118 125 143 148 146 141 142 145 158 166 168 158 144 126 127 129 110 101 85 78 71 73 56 56 67 47 37 38 78 132 127 122 90 98 107 121 121 112 118 
107 101 94 102 86 78 67 56 57 87 84 62 43 49 72 75 82 75 84 114 132 135 145 161 165 162 141 158 156 159 148 152 143 125 121 118 129 131 109 80 67 51 42 37 39 45 57 64 79 99 121 130 133 137 150 166 175 156 152 156 151 146 167 176 161 146 133 115 109 128 137 117 107 89 91 105 100 91 81 73 65 67 121 135 122 89 95 117 123 122 110 115 
104 100 102 97 87 80 71 56 60 80 72 61 69 80 79 70 64 100 125 122 129 129 138 162 163 177 133 202 231 217 203 191 177 174 154 146 144 149 147 108 83 68 50 38 42 47 44 50 69 96 120 124 131 146 155 156 165 161 172 197 211 181 183 188 184 169 151 146 129 130 144 156 139 129 113 127 139 100 85 90 96 71 115 135 122 95 95 119 126 121 118 108 
108 97 100 93 83 91 70 58 59 79 72 77 90 101 77 67 76 109 138 109 95 93 115 141 141 186 160 188 255 230 186 208 217 174 169 156 157 166 179 144 101 81 53 37 44 35 36 42 64 96 111 107 128 137 136 151 149 128 155 202 216 184 130 178 183 180 146 152 159 176 169 146 154 139 107 101 129 106 76 79 96 88 111 137 118 91 94 123 138 126 118 107 
104 97 90 89 84 92 76 59 62 73 72 72 90 96 68 64 89 104 108 98 91 78 98 126 143 162 187 212 246 215 169 149 183 157 107 127 136 157 164 152 117 91 75 29 35 43 26 36 59 81 88 102 112 120 124 125 99 79 140 202 215 220 199 192 188 179 123 128 155 186 187 151 142 137 104 61 87 89 68 71 87 92 108 137 116 86 89 105 134 147 116 113 
92 86 83 80 90 88 81 73 63 64 68 56 70 85 72 57 92 103 90 91 106 100 80 112 122 148 164 208 233 179 145 119 126 106 78 77 117 137 148 137 115 80 54 29 42 49 32 31 55 71 66 72 90 99 108 98 77 64 100 181 196 186 189 190 213 162 86 126 160 175 171 165 136 127 84 70 62 54 56 59 76 93 109 127 117 93 86 103 126 140 114 119 
81 78 91 92 95 89 86 75 68 58 48 49 49 59 68 58 69 85 95 111 121 117 82 66 86 124 132 169 205 172 139 136 102 81 42 48 83 142 123 116 92 74 58 60 52 29 24 36 45 58 64 68 75 75 81 104 99 79 82 156 180 164 160 193 210 153 78 109 172 180 155 126 144 109 54 28 53 44 35 50 66 97 111 122 118 98 107 118 129 158 121 112 
79 80 91 96 105 95 90 79 68 71 49 31 32 34 59 68 89 92 93 116 120 122 102 65 71 117 112 125 166 165 128 111 65 49 41 47 70 124 115 66 74 83 56 60 65 36 14 37 54 61 66 68 91 74 62 77 96 85 90 137 134 119 140 180 203 148 74 99 143 172 137 98 141 110 57 17 17 33 30 41 74 92 115 114 124 118 120 131 135 166 113 124 
77 76 93 106 120 98 100 77 66 74 58 40 32 27 46 57 75 81 80 83 98 100 89 65 78 108 125 132 150 149 111 71 64 75 54 44 85 99 92 67 78 105 84 57 54 55 32 33 51 62 73 84 95 85 70 65 82 89 92 136 147 149 170 172 212 171 87 97 122 138 124 108 149 118 74 18 0 5 20 42 80 95 112 114 128 121 116 136 148 146 117 111 
81 74 99 111 117 100 94 67 68 82 65 43 34 34 49 61 76 75 83 88 101 109 102 88 99 101 105 133 130 123 107 73 85 106 85 67 86 97 76 83 112 119 94 64 51 51 55 62 73 83 96 96 91 74 69 73 85 90 92 126 120 132 146 142 160 157 119 116 123 132 114 125 137 102 60 17 3 9 20 55 86 99 119 114 128 125 112 134 159 129 118 103 
82 80 88 108 126 102 85 65 72 89 74 52 36 36 54 63 69 78 85 93 111 118 112 109 120 114 108 115 115 100 81 83 94 108 114 94 89 87 67 100 130 120 96 52 43 37 39 69 83 95 100 88 78 70 73 81 102 109 114 128 116 128 153 154 143 142 132 137 137 139 114 122 113 91 53 17 3 24 38 61 91 108 133 120 124 137 118 139 150 120 114 103 
75 91 65 117 151 80 83 73 82 96 91 60 42 43 56 66 71 76 88 99 108 115 108 107 123 126 123 127 120 101 82 76 82 98 110 120 117 103 105 108 112 102 81 56 42 35 48 64 74 93 107 101 87 75 74 86 104 116 119 130 101 111 138 147 151 140 140 136 137 134 116 104 85 70 48 26 14 28 48 76 104 119 150 146 124 137 129 141 135 107 117 108 
75 72 63 116 165 69 86 80 89 105 104 72 50 52 65 69 76 80 85 90 100 92 90 99 111 111 113 110 107 98 89 91 95 92 87 92 96 97 102 100 81 65 54 42 35 32 44 68 77 89 103 101 91 73 75 79 97 107 122 138 116 108 142 140 144 144 137 135 133 127 111 100 80 73 55 30 22 39 57 89 104 128 169 161 136 122 142 142 117 109 115 112 
80 56 56 97 170 85 75 86 84 105 112 83 61 57 70 75 78 85 89 87 90 80 77 91 97 99 94 95 88 87 86 83 80 79 81 85 85 89 97 91 82 52 28 21 34 32 46 69 80 90 94 93 92 80 73 79 93 101 110 128 118 105 131 133 121 123 122 121 118 111 98 86 81 70 48 30 34 49 75 106 112 137 181 154 145 130 142 127 108 112 118 111 
90 66 49 64 157 110 60 88 80 101 116 92 68 61 72 78 83 86 92 93 92 79 80 93 96 96 95 93 85 86 84 82 74 72 76 81 81 89 93 92 85 68 42 34 36 39 51 71 85 100 103 101 105 92 72 78 88 94 100 122 117 96 121 135 126 118 109 105 100 96 84 77 68 61 49 33 47 63 85 119 117 150 167 145 153 139 143 102 108 114 123 110 
96 89 54 29 140 124 70 87 79 92 110 95 73 61 70 80 80 86 88 92 88 78 86 99 103 102 102 96 89 89 88 88 83 81 84 88 90 96 101 96 87 79 63 55 49 46 55 73 92 110 118 116 113 95 74 80 84 87 94 109 107 87 107 128 123 115 105 94 90 82 75 71 67 62 48 46 56 72 97 121 121 144 142 154 166 147 138 81 105 127 120 111 
104 98 51 19 113 134 83 95 93 88 106 103 76 63 70 80 77 85 88 86 84 78 92 100 103 103 103 98 89 90 88 89 87 88 95 92 98 107 111 109 97 85 77 70 70 61 68 80 106 127 131 131 128 113 94 86 87 87 91 106 106 84 97 112 115 116 108 99 91 83 76 70 72 65 53 56 70 93 108 112 141 144 134 168 152 154 128 73 102 129 122 115 
120 102 62 25 79 126 101 114 109 91 106 107 83 61 68 76 80 82 86 78 76 78 93 98 99 100 100 93 90 91 92 93 93 99 104 100 112 115 121 114 109 98 84 79 80 70 75 93 115 139 142 142 145 132 111 100 97 93 95 107 105 87 93 104 108 106 103 99 92 86 79 80 76 71 54 65 82 112 110 117 143 147 141 151 147 155 116 61 104 116 135 112 
122 117 57 31 60 120 111 128 121 94 101 114 87 62 65 79 78 81 86 78 74 81 90 100 98 102 96 93 93 93 98 93 98 106 116 112 119 129 123 117 114 100 90 87 82 80 82 95 119 147 151 151 154 138 119 106 101 102 101 106 107 90 91 97 107 107 98 95 91 85 78 79 78 66 60 75 92 109 119 125 147 157 139 141 160 159 99 73 94 112 129 123 
131 138 62 28 52 111 117 127 121 91 102 113 94 67 67 79 77 78 81 74 73 86 96 99 99 98 98 94 95 94 95 97 101 114 127 123 123 134 128 122 109 102 93 91 83 86 95 103 123 154 154 156 161 145 124 110 104 100 103 104 104 90 92 93 105 109 99 90 89 83 76 82 80 68 69 93 100 116 137 142 153 157 142 150 173 154 74 97 84 116 122 115 
124 135 95 28 35 91 125 134 112 94 96 115 98 69 64 72 76 75 71 71 79 89 95 100 99 98 100 95 96 97 98 100 101 122 127 123 121 133 132 121 112 102 97 95 93 95 102 110 119 148 148 149 165 160 135 116 104 101 101 103 106 90 92 90 100 109 98 89 88 81 77 82 76 72 87 99 108 128 143 149 142 162 141 170 171 130 72 86 99 96 128 107 
121 133 128 71 31 84 130 143 121 112 94 115 101 76 62 71 74 72 66 67 82 93 96 99 101 100 101 99 95 96 94 99 104 130 124 122 122 127 131 120 112 104 104 101 95 100 106 106 117 134 141 140 158 167 146 124 105 103 99 102 99 94 92 89 94 110 102 91 87 82 78 83 79 83 101 106 123 134 136 149 140 163 164 175 140 109 87 73 100 98 120 116 
111 131 129 122 69 88 122 156 141 143 116 121 109 81 66 71 74 71 64 70 86 95 94 98 101 100 103 100 98 96 93 104 119 131 126 123 124 115 124 119 110 109 111 106 97 93 99 102 106 120 138 139 143 163 151 134 114 111 101 100 97 94 91 84 93 100 104 94 90 86 83 86 85 93 106 113 140 141 135 153 145 188 196 147 124 102 97 77 94 99 112 130 
121 126 132 116 111 126 121 137 169 160 155 124 112 90 68 74 72 69 62 73 85 96 99 99 101 102 104 103 101 101 104 122 124 143 143 143 131 115 120 119 110 120 115 109 103 93 92 96 98 118 138 143 144 154 152 140 120 116 108 100 101 96 89 79 90 97 98 97 94 91 91 89 90 100 113 122 159 137 145 169 183 216 170 122 114 103 102 88 88 96 108 125 
126 127 128 117 101 132 139 102 141 170 170 126 111 90 69 70 71 70 66 77 88 94 97 102 103 106 107 107 109 108 119 130 135 142 154 162 153 136 132 123 116 121 113 107 105 96 89 92 107 134 160 161 156 145 148 143 129 117 115 104 102 99 92 80 91 99 102 96 100 97 98 95 98 106 117 137 159 151 153 203 213 182 125 109 109 111 101 90 92 94 95 119 
123 136 132 111 108 111 148 92 94 132 143 125 107 93 70 74 72 70 72 80 94 95 101 101 105 114 111 115 122 116 129 132 137 146 135 146 160 173 162 150 126 116 106 102 102 101 98 100 137 166 193 193 158 144 147 145 138 123 116 111 107 108 98 89 95 104 106 106 106 108 103 101 109 113 122 140 157 152 160 199 172 144 111 106 116 115 100 98 90 91 97 113 
121 131 134 114 108 97 147 103 86 103 100 90 89 74 69 71 72 70 70 83 91 101 99 104 109 116 119 123 126 126 122 118 124 128 118 126 140 162 186 185 158 124 104 98 95 105 119 129 161 185 186 178 151 143 146 143 137 125 114 117 119 119 111 96 102 105 109 108 110 114 108 104 116 117 110 121 150 130 134 172 149 133 106 106 119 113 107 97 94 94 91 110 
119 130 128 114 110 92 126 109 87 96 95 79 74 50 64 72 74 77 75 72 84 96 98 103 108 113 115 116 111 109 108 91 85 91 99 121 145 157 174 177 167 145 121 102 103 113 121 132 156 157 159 154 145 134 131 126 126 119 122 129 125 126 117 98 100 106 110 112 114 117 110 111 108 111 90 96 115 115 126 162 131 128 111 103 112 115 113 101 92 90 93 103 
120 121 124 114 110 92 107 120 87 88 97 79 74 49 58 76 84 85 86 79 77 82 95 102 102 106 106 106 99 101 95 92 78 79 102 124 155 168 178 170 154 147 131 118 113 126 123 116 122 118 120 126 129 125 112 113 122 129 139 145 136 128 113 97 98 112 111 112 119 118 117 118 107 103 77 87 112 117 126 150 131 121 111 105 106 115 114 107 95 87 91 100 
126 119 124 111 109 93 95 123 90 83 96 74 71 55 52 82 88 91 88 89 86 78 81 89 92 98 99 99 98 100 102 100 96 95 108 128 137 151 163 163 148 140 135 130 124 136 133 119 109 96 79 90 101 99 103 119 129 139 155 152 138 132 112 94 104 114 112 115 122 121 123 119 110 94 75 93 111 111 128 149 127 123 104 112 101 106 114 111 98 89 94 96 
131 119 126 115 103 91 93 130 102 76 94 79 64 61 46 81 87 88 89 87 86 85 75 85 92 89 95 102 103 109 111 110 108 110 112 118 123 123 139 143 143 137 129 127 138 127 130 123 115 95 84 75 70 81 91 117 126 129 144 141 136 125 105 98 114 113 114 117 123 129 130 119 109 84 72 93 112 106 147 137 133 112 109 113 103 103 106 122 97 89 93 91 
125 121 122 108 101 91 95 129 115 74 84 80 63 60 49 66 87 89 89 87 91 83 81 90 92 94 103 100 114 118 120 115 114 113 115 111 109 113 118 123 134 131 130 134 126 126 124 123 115 102 89 77 72 80 82 95 102 105 111 128 117 109 106 109 119 120 116 120 121 134 134 113 106 72 70 97 103 115 154 128 133 118 102 112 103 105 105 120 104 90 96 90 
119 116 114 103 104 97 99 113 129 70 83 89 66 50 44 57 76 86 89 85 88 84 92 95 97 108 113 116 118 124 119 117 118 113 109 108 107 104 108 108 115 126 128 130 127 121 121 120 113 108 94 87 76 81 79 83 83 93 91 100 116 113 107 116 117 119 114 119 122 133 129 106 92 62 76 97 102 125 154 123 133 109 105 107 106 103 105 114 111 91 94 98 
121 111 102 109 108 93 104 105 126 87 84 91 75 46 34 50 71 85 86 86 83 81 87 89 106 119 128 127 122 121 122 114 114 112 110 104 99 103 103 100 104 117 123 122 120 116 110 109 106 107 100 88 88 84 77 78 81 90 98 97 128 130 116 118 119 119 119 114 125 133 114 96 78 58 79 100 96 149 144 128 126 105 107 108 108 98 108 113 109 95 93 95 
115 99 100 108 98 96 111 105 108 117 85 91 79 60 27 46 58 79 81 86 82 79 85 94 112 132 154 149 139 147 146 126 127 118 118 111 103 106 109 118 114 115 123 123 115 118 114 111 107 107 105 103 97 85 71 75 89 99 116 115 132 153 130 115 114 120 113 112 126 130 102 85 66 57 94 94 112 157 136 129 117 105 109 109 104 102 104 113 106 94 96 97 
104 95 103 105 101 103 114 102 101 143 96 80 81 59 28 44 69 76 73 76 83 72 76 100 114 116 139 143 143 161 168 173 168 156 153 144 142 143 146 152 146 135 128 131 128 128 132 136 136 135 128 126 121 116 103 103 122 137 149 149 150 161 140 114 115 116 107 106 119 116 85 86 58 73 95 95 142 154 130 128 110 109 110 108 111 98 108 113 109 101 101 95 
93 99 105 104 105 111 110 105 101 140 117 66 80 66 25 46 76 85 83 63 63 62 61 86 109 112 105 107 101 105 123 148 165 170 166 158 152 163 166 164 157 157 149 146 155 158 155 168 183 176 176 166 160 158 158 155 156 149 165 151 162 162 140 108 105 96 92 100 109 93 87 78 59 83 95 115 162 146 126 122 106 111 109 107 110 98 107 111 105 98 100 105 
94 99 112 107 105 106 111 112 114 112 139 72 77 74 32 52 84 85 93 84 67 56 50 66 78 99 96 87 79 69 69 90 118 140 149 143 130 117 122 120 123 130 131 131 133 144 151 163 189 190 181 181 173 172 162 151 148 135 144 132 145 152 135 112 98 95 92 91 100 78 92 76 65 92 96 138 162 137 124 119 108 113 109 113 101 101 108 111 108 97 93 117 
96 104 111 106 98 107 109 113 109 107 118 112 71 83 49 52 91 95 90 96 89 76 67 64 61 74 83 75 69 60 65 85 85 100 107 93 91 69 73 62 63 87 109 124 121 125 137 136 159 149 138 162 163 161 140 128 133 125 127 127 136 144 126 106 99 95 87 93 91 79 94 78 76 102 116 154 159 128 124 108 115 107 112 110 104 96 109 105 104 95 98 114 
104 102 99 97 88 94 97 108 111 110 101 114 98 77 60 63 86 100 91 98 95 92 88 88 75 64 70 57 65 62 60 69 76 91 112 104 82 87 94 79 82 82 90 101 94 82 81 81 104 122 133 148 142 143 131 132 136 124 120 112 120 120 103 89 83 99 97 104 90 91 100 70 85 116 132 154 143 123 113 114 115 109 110 106 98 98 110 102 102 105 91 117 
110 105 90 87 88 99 97 108 107 111 96 98 115 75 64 70 91 100 96 90 95 91 90 94 92 86 80 72 70 80 79 88 86 93 106 110 108 116 126 138 133 126 122 110 98 93 91 97 117 123 132 128 129 131 132 125 112 97 91 88 96 91 80 88 102 111 109 105 100 98 90 71 97 129 147 141 128 112 112 113 111 109 109 102 94 103 107 103 97 109 92 115 
116 108 87 86 89 95 100 107 110 109 97 87 106 79 56 73 96 103 96 95 84 90 88 85 88 84 85 82 81 88 95 99 94 87 86 89 92 115 134 135 138 137 139 148 143 137 132 133 130 127 122 118 120 113 103 91 83 80 83 92 96 85 89 103 106 105 107 112 98 95 92 86 121 138 150 122 113 111 106 109 112 102 104 102 96 101 106 100 100 106 96 120 
107 109 89 91 90 101 91 110 111 112 98 90 88 75 49 68 104 104 107 97 90 83 81 74 71 72 71 74 74 80 81 89 89 92 93 100 103 117 127 127 125 129 143 142 142 135 127 131 133 141 137 130 122 111 98 90 94 97 98 102 90 89 95 104 96 102 111 103 99 99 103 108 132 150 131 105 110 104 110 101 107 101 101 100 95 100 103 103 99 109 97 117 
110 103 91 100 103 109 101 111 124 117 112 97 93 61 42 55 104 118 110 107 94 82 78 69 61 60 61 65 67 72 77 81 90 99 101 103 108 113 118 127 132 132 137 143 133 135 132 132 133 142 149 147 143 133 119 115 105 102 89 83 83 89 96 95 97 101 107 103 110 122 126 129 146 136 109 98 104 103 106 103 100 100 100 99 95 105 102 103 95 111 103 120 
110 98 108 109 123 126 108 121 132 125 114 93 103 47 30 44 84 120 116 118 105 87 78 74 64 53 56 53 57 60 68 76 84 92 99 107 110 114 114 121 135 133 133 143 146 148 150 147 144 139 132 124 120 115 108 99 85 82 78 80 86 92 88 89 98 99 104 120 130 150 142 151 139 109 99 97 98 103 102 109 98 96 99 102 99 106 107 95 102 111 104 112 
112 112 113 108 132 137 112 126 126 123 106 100 101 58 13 46 68 101 125 125 120 105 86 75 66 54 47 49 50 53 56 67 71 81 88 95 108 110 119 125 134 136 135 137 139 147 146 141 136 126 118 105 102 99 89 84 75 77 78 82 82 87 81 93 100 106 124 134 153 162 159 138 110 104 91 101 95 102 102 105 93 101 104 108 100 107 99 95 104 109 103 107 
113 123 117 119 139 132 125 134 118 106 108 95 97 48 4 26 62 94 110 133 129 127 113 93 79 62 49 41 44 40 41 46 57 66 78 85 100 105 116 124 130 141 138 133 123 123 123 121 113 111 105 95 95 86 83 78 74 75 74 74 80 81 94 106 115 128 143 165 163 170 148 112 93 103 98 98 96 106 99 103 97 105 112 108 108 96 101 98 108 110 109 92 
116 122 116 124 138 128 126 124 112 100 100 92 89 42 5 15 49 87 111 117 136 135 133 118 103 85 69 56 49 47 41 49 52 63 73 81 91 97 103 106 113 118 119 115 109 108 104 102 100 103 100 96 88 84 73 73 64 63 63 68 84 97 114 125 129 144 163 178 171 153 115 102 103 102 103 103 100 104 98 103 102 115 108 111 98 93 96 103 112 109 105 94 
122 120 119 132 130 121 126 112 109 98 92 86 82 40 9 17 41 84 107 117 123 136 136 137 126 112 89 78 65 60 55 57 55 58 60 71 74 83 87 95 100 102 105 103 107 105 98 90 93 88 85 78 74 65 56 57 54 53 65 89 109 118 135 136 134 150 170 178 155 119 105 102 103 108 105 101 105 102 101 105 109 113 102 105 90 87 100 106 111 104 100 101 
134 122 127 133 124 123 123 115 106 99 91 82 61 36 16 39 48 73 99 116 121 125 137 140 141 133 111 91 78 66 66 62 60 63 62 67 64 67 70 76 84 90 90 94 88 85 82 79 72 74 66 60 56 52 51 58 57 69 95 119 132 140 142 138 141 159 174 159 125 113 111 101 108 111 102 105 106 103 105 108 116 104 101 98 88 94 105 103 107 97 101 110 
146 125 117 122 118 125 119 109 107 94 84 73 46 35 37 45 52 75 86 108 120 118 127 138 141 147 130 112 90 75 71 68 64 65 67 65 67 64 67 69 70 69 69 69 67 63 62 60 65 66 61 58 57 57 64 67 77 97 124 138 146 143 142 133 143 168 166 131 108 113 110 109 103 109 104 107 100 106 108 109 110 97 102 92 90 101 104 101 102 93 106 119 
123 121 114 113 111 119 115 100 109 88 86 58 42 57 60 45 56 79 80 91 111 119 121 124 138 143 144 135 112 90 78 72 65 64 62 62 69 70 66 68 65 71 65 59 57 53 53 54 60 63 61 58 62 66 71 78 106 126 146 149 148 142 133 130 158 170 136 119 111 117 107 107 103 104 104 108 98 108 111 108 102 97 98 90 99 106 102 96 100 97 113 120 
117 119 111 113 113 110 104 98 97 85 75 60 57 76 61 57 56 81 86 82 94 110 119 117 127 139 139 147 131 110 94 81 68 69 62 67 65 66 68 71 70 67 67 61 57 51 56 55 56 61 61 62 65 74 89 104 130 144 149 150 145 133 120 141 167 140 128 124 123 110 106 105 104 100 107 105 103 106 108 102 96 101 102 98 102 105 100 98 103 100 116 119 
112 114 113 109 119 109 101 91 90 80 72 68 76 80 74 63 58 79 87 86 88 95 104 120 110 129 133 138 141 131 114 97 78 71 66 63 69 63 67 71 66 67 64 58 58 55 56 56 56 64 66 70 80 98 117 132 146 150 145 146 139 123 127 157 149 125 138 125 121 111 100 105 102 103 102 109 103 105 94 98 97 98 105 102 107 106 102 104 99 109 119 117 
