P2
# Imagen
92 112
255
141 147 145 141 145 137 141 139 135 140 153 167 163 155 159 168 172 132 148 157 156 169 116 76 44 48 86 93 79 106 123 105 87 101 89 93 99 99 77 79 92 82 75 69 74 70 79 81 69 55 41 50 58 50 48 43 56 65 80 93 93 97 107 136 130 135 124 135 134 130 128 132 131 133 134 140 137 142 139 141 143 138 137 140 140 144 140 141 142 135 142 136 
141 148 148 145 148 136 138 144 132 137 152 166 168 162 171 171 161 112 131 162 156 128 77 48 47 89 118 115 109 122 131 130 115 118 115 124 117 112 107 108 115 115 107 97 110 110 127 121 122 120 58 49 56 56 54 50 32 38 37 52 72 90 93 88 104 118 116 105 127 133 131 128 130 131 135 142 139 142 144 140 142 140 143 143 141 143 142 142 137 140 143 139 
148 146 151 151 148 141 139 148 134 143 159 175 174 172 169 184 150 110 108 135 128 87 40 52 77 124 131 132 124 121 130 132 124 123 133 126 132 120 126 127 128 125 124 123 130 131 133 137 130 139 99 66 68 55 63 61 58 49 48 45 31 48 66 64 74 91 105 97 92 99 118 135 129 128 129 138 142 139 144 140 142 142 144 144 139 141 140 141 142 142 141 142 
149 153 153 159 156 142 139 144 160 153 159 167 168 175 169 170 141 100 73 75 65 43 56 108 125 141 139 125 124 130 124 142 133 129 135 132 134 127 126 132 135 125 127 140 136 133 142 130 140 135 137 117 106 102 98 106 99 106 67 69 64 41 44 60 32 44 66 96 97 90 85 98 118 131 129 136 131 135 139 140 140 136 146 142 140 140 138 142 141 143 136 141 
149 149 157 160 166 152 146 155 165 168 148 170 168 166 154 137 91 61 44 38 36 51 104 134 144 138 137 135 122 132 126 135 143 132 136 137 135 134 127 127 138 127 131 135 136 134 134 147 134 130 136 137 118 131 124 123 133 140 137 123 120 79 53 71 76 49 38 41 70 92 90 90 88 91 121 137 133 127 132 134 135 137 138 138 140 143 138 141 140 139 140 137 
147 150 151 156 156 157 168 159 154 151 150 154 141 128 104 89 68 42 35 36 56 93 118 142 146 136 138 141 135 132 131 133 147 129 139 136 133 139 129 129 138 134 134 131 139 133 133 137 144 125 131 143 128 121 136 123 127 142 142 133 142 147 106 106 108 98 67 55 35 47 64 90 96 86 73 109 133 127 123 125 136 136 137 136 134 141 141 142 138 142 139 141 
147 152 158 159 157 164 170 169 160 157 142 114 80 69 63 56 44 37 44 61 115 129 132 140 144 138 139 140 143 138 131 136 143 138 138 134 135 141 134 120 135 143 128 135 137 135 131 135 135 139 127 137 135 128 118 140 127 132 141 142 126 140 138 134 140 149 138 126 114 61 30 37 77 94 88 70 103 128 128 129 133 140 143 134 136 135 141 141 144 141 142 144 
148 155 155 159 163 175 167 165 170 153 128 91 49 38 40 47 58 56 69 124 133 143 128 141 143 147 137 134 151 138 141 133 138 145 137 138 136 136 140 126 127 147 135 132 139 143 133 138 131 129 154 127 129 140 126 125 136 132 144 131 132 118 143 135 133 144 148 156 157 153 131 85 41 55 88 89 79 102 120 135 130 134 143 140 137 140 141 142 142 142 139 138 
156 163 162 169 172 173 169 160 154 117 85 62 31 36 52 69 75 93 126 134 131 139 127 132 143 148 139 138 145 144 139 133 146 146 134 137 131 136 139 128 122 147 134 138 135 152 133 152 136 127 143 142 125 126 143 127 137 132 143 140 131 125 131 135 127 137 136 154 156 158 141 157 123 85 73 94 92 92 100 108 137 132 134 138 141 135 147 144 139 139 140 142 
159 171 170 177 177 171 170 156 124 93 48 34 41 59 59 105 119 139 134 144 135 142 126 125 144 144 142 133 144 147 146 146 135 155 137 133 135 139 141 134 128 130 139 138 137 155 143 141 159 125 132 148 147 127 130 152 137 142 127 154 140 134 128 132 124 139 129 150 144 152 146 138 168 141 120 112 111 100 97 96 98 129 134 132 134 136 144 144 144 140 137 142 
169 178 176 179 173 175 162 121 85 52 31 62 64 92 107 141 135 140 140 138 135 142 128 126 140 148 147 132 136 155 151 149 138 150 146 131 142 136 149 140 129 132 136 140 143 141 165 133 164 147 128 145 161 141 139 148 145 146 127 136 155 128 142 120 136 136 137 139 146 128 144 143 148 161 128 132 130 130 119 94 87 99 128 135 129 130 137 139 142 140 141 137 
175 176 175 173 168 153 118 82 48 50 80 120 128 123 136 138 142 142 139 148 139 139 133 127 140 145 152 139 128 160 150 149 152 150 155 135 140 144 157 146 136 145 139 131 144 145 153 138 151 159 144 136 151 166 148 155 147 144 145 118 157 152 139 140 131 136 141 159 148 145 116 150 148 152 149 137 136 108 136 132 80 84 98 136 133 129 134 134 135 139 139 141 
176 175 175 167 146 116 80 43 57 104 135 151 133 130 138 141 143 143 137 151 138 144 141 133 140 146 150 144 134 157 151 151 153 150 161 146 142 149 148 161 153 139 153 149 144 155 161 132 150 160 154 155 137 174 159 163 161 132 150 146 128 163 143 155 129 141 153 156 168 141 123 133 165 136 152 147 152 121 121 126 140 84 88 101 129 127 144 131 138 137 138 133 
175 173 175 161 115 80 52 59 115 140 148 140 133 130 144 146 139 139 128 148 143 148 143 144 137 138 157 142 135 151 154 150 153 144 157 155 139 146 148 163 158 135 152 151 139 164 173 132 143 168 150 171 148 163 175 162 177 140 139 164 132 161 160 141 150 141 156 153 161 155 132 146 150 140 133 159 157 130 135 109 116 163 102 81 106 141 143 128 134 138 139 140 
174 171 162 127 72 46 77 117 147 138 139 138 131 132 140 146 140 140 131 143 145 144 146 143 137 138 159 138 142 153 147 142 143 138 163 159 146 140 158 153 169 137 143 139 132 141 157 161 127 175 139 156 164 166 171 160 161 164 132 157 145 159 179 136 155 153 144 151 155 144 142 142 148 141 127 133 163 146 133 141 106 107 177 123 80 138 143 132 128 138 145 141 
172 168 160 108 59 72 126 142 143 145 135 144 135 131 133 143 142 134 136 142 144 145 139 146 136 143 157 133 156 161 139 152 136 130 159 159 149 140 159 159 154 141 135 145 132 129 133 156 130 148 150 139 153 162 168 164 135 167 145 150 145 149 173 153 149 166 137 155 162 144 148 133 157 152 131 132 135 167 130 148 135 99 152 150 134 129 139 134 127 134 135 142 
169 163 131 85 86 112 139 148 147 141 143 138 144 135 133 143 147 134 131 143 139 147 134 145 138 141 150 125 155 158 135 149 134 124 161 158 144 141 163 155 153 138 128 152 136 136 128 142 126 139 144 121 139 152 158 163 133 148 167 151 141 130 165 148 146 169 142 148 158 169 146 143 165 167 141 146 127 158 149 144 152 110 115 154 149 162 133 125 133 134 132 139 
176 144 113 102 121 137 133 152 145 145 135 145 143 141 137 145 145 139 136 140 139 141 129 152 133 137 137 121 154 158 124 145 133 125 151 155 146 136 151 147 147 143 135 128 147 144 137 135 142 123 155 124 132 135 155 152 132 144 161 162 136 137 154 157 140 154 147 145 141 176 158 156 153 174 154 151 136 139 159 145 153 128 114 140 150 170 159 132 143 133 134 136 
169 130 135 127 119 139 143 141 145 145 136 146 155 145 139 141 140 145 133 148 150 138 140 141 138 134 137 112 145 154 127 148 136 130 148 147 150 132 143 141 146 143 135 125 139 143 151 129 156 125 153 143 136 133 148 148 145 140 172 152 142 135 162 164 140 140 153 142 134 160 170 146 156 167 168 142 139 135 143 143 149 162 114 124 156 180 169 140 140 143 133 133 
148 154 149 120 127 140 150 145 138 148 144 141 154 145 151 133 136 144 126 140 156 145 152 152 125 143 131 124 142 148 130 144 147 136 149 138 143 135 134 141 144 145 136 136 133 157 146 136 147 138 148 154 126 140 146 147 155 142 177 160 139 131 166 159 154 146 135 161 141 142 173 136 150 155 160 159 139 127 141 144 147 171 127 107 149 158 173 155 125 150 140 135 
162 165 142 116 142 140 151 156 142 141 148 129 145 141 143 134 133 138 133 147 163 141 157 145 132 135 130 143 143 140 139 133 142 140 154 128 142 140 133 147 146 149 156 137 132 152 157 139 139 155 144 155 138 131 149 149 155 154 153 168 139 139 140 157 153 151 130 140 153 125 158 163 137 149 147 159 146 127 135 145 170 162 144 94 119 142 156 158 145 140 153 130 
192 162 139 125 149 142 146 156 143 133 145 135 146 135 137 137 137 140 142 153 155 132 142 154 125 146 137 143 154 139 147 126 144 134 155 133 137 148 143 161 145 147 150 158 132 154 164 139 142 161 142 150 153 134 140 142 145 162 124 161 153 150 132 152 149 145 124 131 147 140 140 162 147 153 144 126 157 125 119 167 160 142 132 115 99 126 166 176 165 144 138 143 
180 142 126 131 147 150 145 150 132 125 137 131 144 137 121 123 146 139 136 152 150 129 147 142 126 141 141 139 159 140 133 122 143 135 151 128 133 154 141 159 147 150 144 158 138 143 163 141 142 158 151 127 163 134 146 126 136 151 125 138 151 160 121 136 141 139 120 121 124 152 128 153 141 151 153 136 139 124 133 158 134 143 141 128 93 109 162 160 188 174 125 145 
154 133 125 127 140 161 143 150 128 125 134 136 130 142 125 107 137 155 136 145 151 129 138 146 128 138 141 133 148 133 132 109 143 128 142 126 135 143 130 138 146 143 142 150 145 129 146 132 128 153 156 118 134 136 139 138 120 142 133 112 149 157 129 129 133 126 126 118 118 141 132 130 132 138 162 152 130 132 151 156 131 146 146 131 112 100 141 154 163 196 132 139 
123 120 133 121 130 154 149 141 136 124 130 143 132 123 135 113 130 142 140 142 142 130 141 136 137 139 150 134 140 127 129 126 135 128 139 113 131 133 121 130 138 126 125 132 129 119 121 126 109 134 148 122 120 130 134 137 118 129 145 119 132 141 130 117 130 121 125 115 114 118 134 111 123 125 147 141 133 141 153 163 138 141 154 144 129 108 119 154 145 191 181 152 
109 115 127 131 129 137 146 133 145 132 127 139 138 134 130 119 128 131 143 144 142 129 131 139 138 144 141 140 139 134 137 141 134 137 131 118 135 128 134 129 140 123 121 118 114 109 115 115 118 117 139 130 128 125 135 130 127 124 142 139 133 129 127 118 123 122 122 109 115 109 121 106 118 127 128 134 122 152 150 148 140 138 147 146 134 109 102 150 149 176 195 170 
112 120 134 128 122 129 139 143 143 126 124 137 133 138 130 128 148 132 137 142 148 138 138 143 137 145 138 161 141 147 153 151 151 146 136 135 137 137 138 130 138 128 123 114 116 121 113 119 123 128 135 138 138 133 130 135 136 128 144 154 142 134 146 127 123 118 133 130 120 110 114 105 128 143 128 121 114 142 143 154 147 151 142 132 144 124 106 123 144 163 200 167 
123 122 142 128 125 136 131 137 144 125 130 142 124 137 152 141 159 143 142 148 154 133 147 153 147 147 153 163 150 161 170 177 166 166 149 152 154 156 150 139 142 141 144 135 121 141 127 140 123 143 157 136 152 142 135 137 133 141 145 162 150 148 150 151 143 125 157 143 136 123 111 117 132 149 125 127 120 137 143 157 139 146 151 146 138 119 94 104 146 135 195 183 
125 131 142 126 143 132 139 119 145 139 136 135 130 134 153 150 150 176 143 143 150 137 146 153 147 157 164 157 164 161 181 187 166 160 150 154 144 164 156 145 141 152 143 151 140 154 146 152 150 147 168 153 141 142 137 131 114 128 141 156 161 160 154 158 148 127 151 141 130 122 108 139 135 159 138 132 125 130 143 146 143 135 140 144 142 142 96 112 137 153 177 198 
126 132 153 143 128 148 141 149 145 139 123 131 147 136 134 155 143 176 156 146 147 135 132 147 145 139 159 171 159 158 167 176 158 152 132 162 134 155 152 149 160 149 139 168 154 168 171 152 154 171 158 173 142 143 126 131 124 124 127 149 146 162 151 162 158 141 151 139 121 127 124 144 155 158 147 135 134 138 138 145 137 135 132 135 134 137 104 113 142 144 178 210 
129 131 146 153 131 138 139 152 154 128 119 134 140 135 138 142 161 170 175 143 152 157 146 149 138 127 126 161 147 155 149 156 138 148 115 153 128 120 144 130 154 148 130 155 194 156 195 170 166 182 168 160 151 139 136 135 119 126 123 131 154 123 157 148 152 132 134 137 110 117 127 135 162 155 130 120 135 148 143 137 139 120 132 136 135 128 108 101 136 156 161 218 
148 130 140 141 143 131 141 142 146 128 120 125 149 146 137 145 165 155 163 168 148 156 163 154 136 120 106 111 135 111 121 131 118 131 114 128 136 110 145 127 146 145 146 144 182 174 166 160 162 167 148 130 136 140 140 147 146 133 133 148 143 120 156 153 146 141 127 132 118 142 146 126 137 130 120 114 130 140 154 135 154 142 129 134 132 141 99 100 142 144 160 201 
153 137 139 126 145 143 141 137 134 130 131 122 133 146 144 143 152 146 162 165 164 149 153 149 136 124 116 126 131 109 108 102 104 128 122 130 139 139 165 161 148 135 143 145 134 150 143 147 144 148 142 141 133 148 144 149 155 144 139 147 151 125 147 152 158 159 123 120 137 135 154 143 124 124 116 121 136 141 146 147 149 161 153 127 140 124 114 90 144 162 161 197 
151 132 134 138 141 141 139 139 130 124 130 129 143 147 143 139 147 148 152 151 158 152 156 145 138 141 137 150 143 122 109 116 102 107 140 120 131 139 150 171 152 137 133 142 127 143 143 141 153 147 149 150 131 157 147 133 157 142 141 140 145 130 138 164 158 157 136 118 131 124 152 147 135 131 122 125 124 138 149 151 145 146 153 146 129 133 113 94 128 177 158 197 
130 139 119 131 142 144 132 136 127 119 135 140 149 146 118 135 144 153 147 145 136 147 150 144 139 153 143 146 130 121 111 117 105 99 135 126 135 140 143 173 157 140 137 142 133 137 149 144 151 146 145 149 126 139 132 112 144 136 135 140 142 138 141 160 167 166 142 133 126 117 142 145 145 140 137 131 119 121 137 143 149 136 130 144 151 133 122 88 122 169 159 190 
136 139 113 121 142 135 145 139 117 132 140 148 147 133 118 134 159 141 137 132 129 132 156 141 131 145 148 143 127 129 130 124 114 120 129 123 140 147 157 162 152 138 140 137 132 130 136 143 144 150 137 154 127 141 137 115 146 142 138 142 138 143 148 153 161 166 151 146 133 119 130 137 140 149 127 141 123 115 132 137 133 148 140 121 156 137 143 82 115 157 162 167 
132 140 123 121 131 139 138 137 118 137 135 145 135 127 120 148 157 140 128 141 136 147 161 133 126 151 140 139 118 119 128 122 102 124 121 118 131 150 163 143 146 139 139 136 131 120 127 133 146 150 140 148 138 144 141 122 142 145 142 142 143 145 152 151 159 161 159 154 145 134 131 140 137 140 129 126 118 120 132 124 128 134 149 131 126 137 134 114 105 146 160 147 
141 133 142 121 137 132 135 128 124 133 138 139 125 132 135 149 145 135 137 144 144 152 153 125 127 137 133 128 109 111 123 122 111 122 119 121 124 143 166 148 145 145 147 151 142 130 133 140 152 158 145 143 145 147 141 129 141 143 148 146 145 148 149 150 153 159 154 157 151 146 136 140 137 134 141 123 112 112 122 130 117 134 139 153 122 127 125 113 122 133 160 149 
135 140 149 130 132 126 126 117 126 127 131 125 128 134 152 134 143 136 142 152 145 138 146 132 128 117 128 119 105 105 116 123 117 125 125 132 139 147 154 153 152 150 150 146 148 139 139 136 140 155 152 145 141 147 143 137 138 146 147 146 147 147 148 148 152 156 156 155 161 148 146 144 133 135 137 136 110 111 123 121 120 123 134 151 137 125 129 124 125 154 153 136 
132 143 152 139 120 134 124 123 119 125 127 128 124 139 146 133 138 142 143 140 147 132 136 130 115 113 118 119 111 102 117 125 121 129 129 135 142 157 154 148 149 152 149 145 144 146 140 142 142 143 150 150 149 149 144 145 141 138 145 152 149 143 147 148 152 153 154 155 158 152 151 149 139 138 142 136 118 103 110 127 114 117 128 142 139 128 127 138 112 151 163 135 
132 140 152 136 114 130 130 121 122 124 136 126 116 143 138 148 135 130 143 126 140 123 114 124 112 118 122 123 118 112 127 134 128 131 136 136 143 153 156 145 146 150 148 149 142 148 142 142 150 143 150 151 149 151 146 142 146 143 144 151 154 144 148 152 150 151 151 155 154 152 153 150 150 143 142 138 125 114 101 117 112 116 116 135 138 133 127 139 118 143 160 141 
131 138 135 132 117 133 137 125 123 136 136 122 114 142 142 147 132 117 130 119 125 120 106 117 116 132 132 131 128 115 131 136 131 132 134 138 140 150 152 148 146 144 148 148 146 145 142 140 151 148 148 152 156 150 145 147 146 150 144 150 153 145 148 150 151 150 154 152 151 152 149 153 150 145 152 144 128 122 98 104 111 109 112 129 138 139 128 135 138 131 173 142 
143 137 120 132 123 147 136 127 119 139 134 122 120 146 151 140 115 110 115 119 119 109 99 122 118 141 132 131 130 121 134 135 138 132 137 132 141 146 148 145 143 145 149 148 148 142 145 142 149 153 150 153 153 153 147 143 143 149 148 151 151 148 151 150 151 143 146 150 152 149 149 151 155 155 155 147 134 123 110 94 108 108 104 124 138 139 132 133 137 152 153 167 
137 139 124 129 128 139 141 130 128 138 137 118 125 150 145 126 101 97 120 114 112 103 100 123 133 140 143 137 142 128 134 136 140 136 134 136 131 141 145 145 143 147 149 148 147 145 146 148 150 150 152 151 152 152 149 143 144 149 152 149 149 149 149 151 150 144 145 148 153 147 151 147 154 158 152 145 136 128 118 97 106 103 101 121 134 137 136 130 125 153 154 166 
135 141 133 128 128 140 141 134 136 138 132 120 130 130 134 114 96 94 117 103 111 102 108 120 130 138 143 141 139 130 139 135 136 138 135 134 127 140 140 143 145 148 148 145 146 143 145 150 150 150 151 151 152 149 147 143 148 149 154 151 149 150 144 151 146 147 138 149 151 147 145 150 152 155 155 142 133 132 123 101 98 104 100 115 131 137 135 134 124 134 170 147 
135 147 135 130 137 143 136 145 142 137 128 128 129 124 117 108 89 98 111 102 106 103 114 122 136 146 139 140 139 134 134 141 137 137 140 133 132 137 140 142 144 149 147 145 146 142 147 149 150 150 148 153 151 150 143 143 147 148 155 151 146 150 146 151 146 144 144 146 151 139 142 145 145 150 152 151 132 136 121 102 91 98 99 108 129 136 137 133 122 132 168 150 
140 145 138 137 138 146 143 141 142 139 129 129 117 123 104 109 90 95 101 105 110 107 117 126 142 145 141 136 137 137 135 140 142 137 145 133 135 137 144 139 144 148 145 145 146 144 143 148 147 147 149 150 150 149 143 143 145 146 150 145 146 150 147 147 144 145 145 145 144 135 141 144 143 143 154 151 131 133 118 104 87 99 95 111 125 142 142 115 145 125 153 153 
139 143 145 147 134 148 150 141 144 138 129 127 119 122 102 106 88 101 101 100 116 111 115 129 136 145 144 140 135 137 139 142 143 140 142 134 137 141 143 145 145 145 146 146 145 145 144 146 148 146 148 148 147 148 143 146 146 146 143 151 147 149 148 143 147 146 146 140 139 139 136 137 139 147 145 147 138 123 114 107 89 92 93 107 126 143 143 109 152 130 158 155 
123 151 143 151 143 145 154 142 148 147 130 120 133 114 108 101 100 106 95 91 112 112 111 126 132 135 140 142 137 138 141 143 143 143 142 134 141 138 143 142 145 145 146 144 146 143 144 144 147 146 149 145 149 148 145 145 147 145 148 150 150 151 146 147 145 146 144 139 135 132 134 137 138 151 150 145 137 127 114 104 93 94 93 108 123 142 143 107 145 150 152 180 
129 145 155 148 139 152 140 156 146 145 130 133 121 127 116 91 105 99 90 91 98 109 114 122 131 134 132 138 139 141 140 142 142 144 137 138 142 145 140 144 144 145 143 145 147 144 146 147 146 144 150 148 145 147 143 145 142 147 146 149 148 152 146 147 145 145 140 139 136 132 134 140 145 150 149 142 134 130 113 102 89 94 84 113 131 137 142 112 127 153 144 170 
138 146 157 148 137 146 148 154 150 141 139 127 127 125 123 99 104 92 88 92 93 106 120 116 129 136 129 129 139 140 139 141 142 138 139 141 143 144 142 145 146 146 143 144 146 147 145 147 143 146 147 148 147 143 148 146 146 148 145 149 150 153 147 146 146 146 140 139 141 135 137 146 145 148 148 141 134 123 120 104 85 94 84 109 133 136 140 119 115 143 142 166 
144 139 156 150 144 134 151 151 143 138 135 135 131 117 120 106 103 91 84 86 102 100 108 110 115 132 126 125 134 137 140 144 142 140 139 146 147 148 145 144 148 149 147 147 149 148 147 148 145 151 147 150 147 146 147 147 145 148 150 150 152 151 154 150 150 147 144 144 146 139 147 150 155 152 150 147 144 128 116 113 88 97 88 109 129 138 133 117 126 130 143 163 
154 144 141 154 143 139 141 146 141 138 132 139 128 118 113 103 102 84 86 89 108 112 106 104 109 113 124 125 134 145 154 160 153 151 150 153 155 151 151 155 152 148 152 154 152 152 151 150 150 151 151 150 147 148 149 146 149 151 152 152 154 155 157 152 154 150 146 149 153 152 158 164 167 178 163 161 154 144 130 114 105 102 80 117 129 139 125 123 132 147 144 151 
149 153 140 156 137 144 141 134 139 136 123 131 128 115 109 86 82 95 85 88 92 96 99 102 104 98 113 126 145 154 169 167 163 162 166 169 169 169 166 164 167 164 168 168 168 163 159 161 159 158 155 155 150 150 148 150 152 151 154 156 158 156 157 155 159 157 158 161 165 169 176 183 186 197 195 183 169 158 134 125 117 103 78 117 132 131 127 121 140 168 150 169 
150 150 151 162 154 135 140 138 138 135 123 131 129 114 96 75 93 91 86 71 62 79 99 107 102 111 122 151 156 160 166 164 161 162 171 175 171 176 174 179 179 184 184 184 185 179 176 171 168 163 159 151 152 151 151 153 149 152 157 153 156 153 153 153 157 160 166 180 181 179 189 192 199 212 209 205 188 174 143 123 118 107 71 110 134 133 120 120 150 162 172 175 
156 142 153 161 155 144 135 141 136 131 128 142 135 103 89 88 93 72 51 50 65 102 129 139 134 148 161 166 158 160 167 156 154 157 161 164 166 174 169 176 179 186 189 188 188 184 185 178 173 168 163 150 147 146 149 153 147 145 148 150 150 149 147 150 161 176 197 209 218 210 206 203 212 229 235 229 203 199 153 99 110 108 59 96 136 124 131 114 146 166 171 176 
152 146 145 158 159 143 142 140 133 131 138 139 111 106 101 83 59 39 42 70 115 154 173 175 180 195 210 199 185 168 147 149 151 169 173 163 164 166 165 162 185 181 186 183 178 183 177 177 170 166 161 155 155 151 150 150 146 146 141 149 158 161 163 174 206 213 219 221 220 217 203 191 183 183 207 211 196 176 167 105 80 99 56 76 124 127 126 124 148 162 164 175 
145 153 142 156 150 148 134 141 133 130 130 121 102 107 89 56 42 61 108 154 171 193 203 213 209 211 213 199 168 142 132 139 137 142 146 149 153 155 155 158 166 175 161 165 164 164 169 167 161 159 163 157 154 159 153 146 138 137 136 142 175 181 191 202 214 215 202 189 171 157 151 144 132 118 143 154 155 150 152 152 89 77 66 65 111 125 124 142 159 165 159 173 
152 149 143 153 149 142 140 135 128 128 118 111 104 89 52 32 65 125 177 199 195 196 203 205 209 201 182 149 131 122 127 136 133 123 128 139 143 147 146 147 149 159 128 116 126 133 131 154 152 155 159 163 164 159 144 137 119 121 137 160 173 191 197 206 212 201 173 150 137 127 129 126 118 84 69 84 109 121 141 147 128 88 63 60 96 127 124 158 164 161 159 166 
155 150 148 149 146 140 139 135 130 119 106 104 93 61 31 62 118 175 193 173 171 161 161 154 143 127 108 100 99 106 106 115 127 132 139 136 136 130 131 140 156 158 150 112 108 106 118 130 138 149 160 168 165 155 126 131 121 122 161 165 168 182 194 198 180 162 145 139 119 114 105 100 102 87 68 67 98 151 145 134 113 120 70 50 83 131 129 163 165 160 157 166 
147 148 156 146 139 147 140 132 133 110 107 101 85 50 51 121 157 171 162 148 141 129 123 106 81 74 85 111 128 130 136 123 139 146 141 140 134 136 135 135 144 157 150 130 121 119 118 125 122 127 145 152 155 137 120 125 129 145 159 157 151 156 163 152 137 136 136 151 154 162 161 161 167 175 163 141 127 172 174 145 109 121 91 46 72 126 141 173 159 164 153 168 
121 145 147 137 146 152 146 141 136 105 106 98 71 57 90 134 144 139 152 142 130 116 99 87 96 132 164 181 208 202 189 184 186 201 190 173 170 169 160 158 160 165 175 154 155 134 134 131 121 121 129 138 126 110 109 120 139 144 159 142 139 154 144 138 138 150 152 164 184 211 221 211 215 214 224 184 144 163 183 153 109 101 94 46 60 122 136 176 161 162 150 160 
115 128 134 133 146 162 144 151 136 103 104 93 74 73 116 136 135 140 149 142 139 107 104 129 163 193 204 186 194 211 203 200 173 184 186 160 180 182 171 151 162 175 207 180 179 164 140 141 129 117 118 121 111 108 110 132 159 161 156 129 134 153 129 110 128 150 143 144 177 222 228 214 231 204 199 190 162 155 180 148 109 91 83 50 44 112 125 151 160 158 153 151 
100 122 135 119 162 158 154 155 144 102 105 81 72 83 120 130 132 148 151 146 128 96 120 168 200 216 194 184 169 180 158 176 127 137 186 179 169 157 142 146 143 152 166 182 205 177 161 138 126 112 112 100 95 106 125 147 162 154 161 149 132 128 103 114 78 82 171 104 132 188 211 205 197 215 203 182 177 146 164 153 109 80 80 46 36 98 126 150 164 133 148 156 
92 120 133 140 165 158 163 155 139 97 97 78 76 89 127 139 141 165 166 151 127 102 134 205 229 188 142 107 55 94 134 145 161 96 166 180 132 107 133 104 115 143 155 184 204 180 159 140 132 113 82 81 91 114 131 159 167 162 171 129 98 109 118 55 25 66 158 91 57 175 158 170 146 161 162 175 160 157 153 149 111 80 80 44 36 78 127 153 165 161 155 142 
103 114 135 152 178 170 164 151 135 92 99 68 75 94 122 143 144 169 179 152 125 121 159 198 204 132 92 64 22 24 130 143 199 195 157 140 104 42 111 96 75 138 133 167 213 191 137 141 139 112 77 61 80 122 150 154 152 164 177 131 88 88 110 44 11 52 138 124 119 138 127 135 133 138 157 188 148 145 153 139 110 76 73 35 42 67 126 151 159 165 160 157 
105 112 141 150 193 179 162 150 130 101 92 74 79 83 111 129 140 158 168 174 125 135 182 199 184 145 91 62 33 0 74 148 186 221 169 158 81 40 66 76 112 150 167 166 171 189 159 133 137 118 74 53 80 141 166 165 153 161 184 126 33 88 87 67 47 73 124 156 138 107 120 109 141 156 185 186 149 126 154 137 110 72 69 36 39 66 118 151 160 159 162 163 
118 117 122 164 192 175 152 136 131 104 90 83 73 75 96 116 126 135 142 153 138 135 161 180 184 176 142 98 52 26 37 127 156 188 151 105 83 84 78 80 124 159 179 190 169 161 154 155 151 112 80 73 85 133 164 177 159 158 181 120 51 109 126 101 124 150 117 103 98 78 75 119 177 183 183 176 126 125 133 137 104 78 65 42 34 68 118 149 164 156 161 161 
124 112 102 181 195 162 139 128 140 100 95 89 71 76 98 109 122 127 129 143 137 144 158 166 165 175 172 169 145 120 76 107 131 140 150 102 83 92 86 122 154 161 168 178 171 162 146 154 143 107 86 89 99 123 163 176 165 148 169 144 76 105 151 127 142 167 172 135 123 102 124 169 179 173 163 146 122 138 131 136 114 69 71 37 40 63 109 149 164 150 161 168 
119 122 85 187 195 164 122 134 147 101 112 86 76 75 97 110 122 129 130 138 146 144 152 164 169 158 144 145 143 124 111 108 110 106 129 151 149 149 153 148 142 133 145 171 162 162 163 155 138 97 89 99 108 127 146 170 162 148 151 166 128 130 159 148 125 125 130 112 107 110 132 129 129 138 150 146 138 138 143 140 110 82 73 50 33 68 98 143 159 154 145 165 
110 121 76 184 200 157 120 142 153 106 109 95 79 76 97 112 123 124 131 141 138 155 147 155 161 164 155 152 150 138 126 118 121 109 124 138 143 140 130 111 105 106 131 150 152 147 154 151 145 101 90 99 111 126 153 165 167 153 139 141 121 124 151 142 121 118 127 125 121 120 136 142 144 150 162 146 136 138 147 127 113 86 88 54 44 72 96 133 167 147 146 165 
120 121 75 158 176 153 138 147 155 112 119 99 79 74 92 110 124 127 132 141 152 150 147 154 159 161 160 154 148 142 130 124 122 131 139 144 132 120 109 91 97 100 120 141 152 150 158 154 141 105 99 109 108 129 156 167 163 159 140 138 116 97 150 156 127 127 125 134 127 124 135 134 138 136 143 135 131 147 144 126 105 92 101 60 57 89 96 120 161 153 143 153 
122 135 71 100 142 149 165 137 155 128 119 103 82 74 92 110 118 127 127 136 141 145 141 150 151 158 159 153 148 140 135 136 123 128 129 126 115 104 95 89 95 109 124 145 161 161 165 163 137 102 102 110 115 137 168 176 174 165 147 144 121 85 124 148 138 129 117 126 124 126 132 130 128 127 134 141 133 147 140 123 103 95 111 64 59 108 96 92 154 162 145 148 
123 143 107 68 101 150 172 131 159 147 114 106 90 76 92 106 115 123 127 133 140 139 138 137 138 140 140 136 138 137 135 136 129 125 123 116 114 105 100 101 110 114 133 153 170 168 174 162 133 104 96 104 112 134 172 179 185 175 161 154 133 92 107 138 138 131 127 123 122 114 114 112 110 109 121 130 129 145 136 112 107 96 112 60 75 107 92 98 129 168 147 147 
123 135 123 54 75 129 154 142 171 152 116 112 97 77 86 110 113 118 127 132 135 138 138 135 137 139 135 136 134 136 134 137 133 126 129 123 120 117 112 113 118 133 146 162 177 177 173 168 135 104 97 102 107 130 161 181 188 189 170 167 143 96 107 136 142 139 135 130 121 116 116 118 112 115 133 138 137 139 126 113 107 109 99 61 94 98 99 112 109 154 148 142 
130 127 110 73 68 107 127 164 186 159 109 133 97 83 82 101 112 120 123 127 131 136 137 138 136 140 139 137 137 138 139 140 138 136 138 133 132 126 126 123 131 146 154 168 173 179 177 166 139 109 105 100 106 122 153 168 174 177 179 171 149 113 110 139 152 154 149 149 146 137 134 137 128 129 143 140 142 137 112 113 120 107 91 52 110 96 116 104 108 134 151 145 
139 121 98 91 73 101 115 164 169 169 127 136 113 76 86 100 108 113 122 128 131 138 134 137 136 139 139 138 138 137 138 140 137 137 138 138 135 133 130 133 140 149 158 172 177 180 179 171 144 115 106 107 105 122 146 163 171 174 171 166 156 115 118 136 159 159 157 154 150 146 139 142 132 141 142 139 131 130 111 119 118 122 70 59 109 96 132 110 95 128 134 148 
148 125 93 109 77 82 103 158 149 171 152 142 126 87 83 104 113 110 118 121 130 136 136 137 135 138 135 139 137 137 140 142 138 137 141 140 134 134 135 138 145 154 162 180 186 189 184 170 145 119 110 110 109 120 141 159 170 176 172 170 157 121 123 132 158 165 163 155 155 146 145 141 137 146 143 137 129 127 115 133 125 119 69 74 99 104 140 132 85 147 114 126 
133 135 104 107 105 54 95 157 144 164 159 136 131 93 80 109 115 108 110 118 129 132 140 137 137 137 140 137 139 139 142 142 143 138 138 132 130 132 135 139 153 167 175 190 199 199 191 169 144 121 112 106 110 115 129 152 170 174 181 173 160 124 121 129 149 166 160 157 155 149 148 147 144 152 145 134 129 122 126 134 126 116 63 78 85 120 147 131 100 122 142 99 
119 143 137 115 126 67 70 149 145 146 152 139 135 106 82 110 119 104 111 114 125 136 133 135 138 139 139 139 143 142 146 143 140 138 134 124 125 132 140 145 168 188 183 201 210 203 190 167 139 120 109 98 104 113 118 145 169 176 191 184 163 136 124 126 140 161 163 156 154 154 150 148 151 152 140 134 129 121 140 137 127 107 80 80 73 146 154 129 105 112 138 121 
123 144 148 145 131 113 43 98 143 123 139 162 142 115 90 107 120 107 104 113 126 131 132 129 141 140 145 142 148 149 150 142 136 136 131 120 117 139 145 155 188 193 185 195 215 206 191 162 139 116 99 94 99 100 115 137 166 168 192 193 167 141 123 117 133 147 164 158 157 161 158 156 160 148 142 141 127 132 147 140 128 94 100 66 85 161 156 136 110 105 144 144 
126 150 149 147 151 162 93 71 118 117 117 175 151 120 94 110 124 113 114 112 124 127 130 131 141 144 147 147 153 150 148 138 131 135 134 119 120 144 155 167 201 181 183 194 202 197 177 161 134 122 100 94 98 99 108 130 162 162 172 197 170 153 131 110 131 147 157 158 162 161 161 158 160 147 141 140 128 141 149 130 113 92 84 84 129 162 150 142 114 102 140 154 
132 149 145 148 155 150 149 111 100 103 105 180 155 127 101 110 127 119 119 113 123 127 129 132 139 147 149 150 149 150 144 133 133 136 137 126 136 155 163 176 193 182 187 190 183 177 158 150 146 137 116 109 102 99 108 134 151 165 163 186 172 165 143 120 131 150 161 161 166 161 163 166 157 146 138 134 133 135 129 108 104 76 87 141 149 150 149 136 121 112 128 153 
145 143 148 150 145 149 143 154 135 87 93 155 146 121 101 110 128 122 117 116 122 135 128 134 140 146 154 147 151 145 141 133 132 137 143 137 155 164 162 178 202 197 200 193 178 158 143 142 159 161 148 150 134 112 120 137 153 168 179 184 176 171 154 139 139 157 163 166 169 165 164 165 154 142 143 140 137 115 90 93 101 57 118 160 158 148 142 140 127 108 134 147 
144 150 145 154 145 143 143 152 153 139 125 110 103 100 106 107 123 132 117 121 122 131 131 137 144 148 153 156 149 141 142 144 136 145 157 146 166 172 159 160 193 222 234 221 199 177 153 147 166 163 155 150 146 136 140 165 183 205 218 191 174 175 165 155 153 158 165 172 169 168 162 165 153 150 148 151 133 97 79 95 93 61 136 155 158 155 145 138 140 111 122 147 
148 145 152 151 151 132 145 146 154 136 136 126 72 63 90 114 128 136 128 127 127 135 141 140 143 147 154 152 143 133 132 146 161 163 172 160 161 168 166 167 176 194 227 255 237 219 185 157 166 159 153 150 153 151 169 206 227 246 220 183 181 187 178 164 160 160 165 172 170 169 162 164 165 161 160 140 120 88 82 104 85 65 147 154 145 166 149 142 140 128 106 148 
151 137 154 152 149 130 140 146 146 145 127 136 82 55 73 115 124 142 130 125 129 134 137 139 143 149 147 139 132 129 138 145 173 183 187 179 162 147 148 156 168 170 193 219 238 233 221 175 166 147 148 151 159 179 216 245 239 225 205 183 187 180 178 153 150 161 158 169 171 163 160 162 175 164 152 137 117 85 94 104 74 78 156 149 144 155 161 140 139 134 108 126 
148 142 147 153 147 137 144 139 149 157 118 143 91 67 65 110 127 141 137 131 134 137 132 136 138 139 135 126 133 137 141 160 175 201 198 179 176 150 125 127 145 159 177 196 216 216 212 193 168 135 124 131 153 205 236 227 209 199 180 184 170 169 152 136 160 164 156 164 167 166 153 165 172 160 149 139 118 87 98 102 64 86 167 157 144 148 156 153 146 136 117 115 
143 141 146 148 147 139 135 140 151 146 119 154 107 72 56 106 125 134 143 143 143 141 138 137 136 131 131 130 138 142 155 174 186 200 185 176 168 157 139 120 121 126 150 165 180 192 191 179 162 130 116 125 148 177 190 175 165 168 160 157 155 144 117 129 159 163 156 167 169 173 155 169 172 158 150 142 116 80 107 90 59 103 162 152 147 144 154 156 148 141 120 110 
137 145 143 148 152 129 140 144 146 154 118 145 121 73 55 86 119 129 143 146 148 146 140 135 129 121 134 133 139 153 166 176 179 178 180 166 167 157 144 124 116 112 118 137 148 163 163 158 158 137 133 138 154 152 145 131 127 129 128 117 121 109 109 137 160 163 168 175 171 173 156 164 169 150 148 144 101 83 103 72 68 123 163 152 143 156 150 158 148 145 124 117 
142 146 145 155 145 123 141 142 146 154 127 124 142 80 54 70 112 130 138 145 154 150 140 134 128 126 128 133 140 157 171 171 164 170 176 171 164 152 137 127 121 116 107 110 118 128 138 146 154 153 148 142 143 143 125 116 102 99 95 88 93 104 126 141 161 165 175 171 168 169 154 165 159 145 147 140 86 93 92 64 75 146 158 155 143 154 147 156 153 149 128 121 
140 151 150 156 129 128 139 138 155 144 138 109 148 92 63 68 102 122 133 143 157 149 146 140 129 130 119 129 133 154 156 155 162 165 168 175 162 154 142 135 132 125 113 105 104 116 118 137 150 154 154 143 135 138 116 97 98 94 88 87 93 106 135 153 156 168 187 170 158 152 149 155 150 143 141 128 73 102 86 58 88 161 152 152 149 148 144 149 157 146 137 125 
140 156 155 146 122 136 148 144 151 144 140 101 131 120 69 76 96 114 123 137 152 155 153 138 137 130 116 124 133 134 140 156 165 166 168 169 162 155 162 159 150 134 124 119 116 117 121 136 152 159 160 161 143 127 119 93 102 97 93 99 106 126 152 166 172 177 200 179 152 138 150 150 140 137 138 99 80 104 70 62 113 166 148 154 149 145 147 148 155 153 135 126 
150 150 146 130 126 133 157 147 146 137 140 111 109 137 80 82 104 107 116 124 140 157 159 147 146 137 117 118 133 129 151 154 170 173 169 159 146 148 157 163 161 148 139 136 139 138 141 151 163 171 169 168 159 135 132 119 107 113 106 114 131 143 173 184 187 186 184 182 136 124 142 145 140 142 132 84 95 95 63 75 140 165 149 152 151 144 146 144 153 151 145 129 
150 129 134 132 134 142 162 146 141 132 145 124 84 140 111 83 113 112 115 118 132 151 156 149 132 123 122 122 128 151 184 183 191 196 207 187 169 169 162 156 150 155 158 160 173 169 160 162 165 168 164 167 174 162 150 146 120 121 133 133 158 176 206 219 203 187 162 160 120 104 132 143 144 144 115 84 112 81 60 107 162 152 158 149 149 143 142 139 150 148 142 134 
139 125 126 136 139 151 151 151 131 138 147 127 90 111 134 107 121 117 117 118 128 146 151 144 140 111 104 113 119 139 156 160 161 168 155 175 195 194 182 182 190 190 197 210 213 222 206 194 192 180 184 193 214 205 206 190 175 178 184 191 201 225 217 197 180 155 136 129 104 110 138 153 147 142 93 105 105 62 71 152 153 155 156 151 145 146 139 133 146 146 132 142 
126 120 137 134 147 155 150 148 130 147 142 125 108 91 115 137 132 130 121 116 125 142 146 143 144 123 100 120 124 149 146 111 113 121 110 109 103 123 137 152 162 177 194 211 216 222 224 229 228 219 216 214 204 222 221 226 209 203 207 202 192 173 169 159 133 117 100 111 108 128 154 157 153 125 91 125 89 65 109 166 151 157 159 153 144 141 144 128 140 142 138 135 
112 119 142 144 148 149 147 142 135 161 137 114 112 94 100 149 152 138 130 121 122 132 143 145 147 139 124 129 136 142 151 145 112 105 94 84 68 69 76 100 115 100 116 124 158 185 177 185 194 192 193 180 180 202 196 191 183 172 172 154 126 121 140 118 91 104 113 129 128 157 167 165 143 107 111 116 70 89 145 158 154 161 161 146 146 140 141 124 129 150 123 149 
118 132 150 152 144 147 145 134 152 171 128 100 119 106 89 148 161 144 138 124 123 123 134 141 149 149 152 146 135 142 134 147 154 130 114 95 82 97 93 90 121 126 116 83 83 87 86 95 94 94 100 103 95 104 115 140 155 147 133 110 100 100 106 104 122 128 143 149 150 161 165 158 121 108 124 88 76 134 148 157 154 161 159 151 137 137 140 119 131 141 121 142 
133 145 145 149 145 139 147 141 161 173 122 100 115 111 97 144 155 143 148 132 124 117 130 132 143 151 152 150 139 140 129 131 136 141 128 129 130 133 132 123 122 133 145 139 120 99 88 88 78 75 63 70 69 92 123 140 136 134 135 131 133 118 110 123 136 131 147 146 154 158 161 138 113 125 104 90 114 140 149 156 152 163 155 153 138 135 128 123 127 139 117 143 
144 141 148 146 141 140 140 146 159 156 116 111 109 106 107 152 156 138 144 144 131 118 124 132 138 142 148 149 135 132 124 123 122 124 126 127 143 153 156 160 156 151 142 142 150 147 142 147 146 152 145 130 128 135 135 135 137 157 162 159 140 123 121 125 129 130 145 139 154 159 144 126 120 115 95 124 136 137 144 164 143 165 155 149 132 142 124 112 131 136 118 148 
147 140 143 140 142 143 135 153 156 139 127 120 106 101 103 166 163 134 140 141 142 128 123 135 138 142 142 145 137 131 123 113 126 126 135 133 139 148 158 158 159 162 167 165 176 180 177 157 147 151 167 175 180 171 167 166 168 168 168 154 126 127 122 120 119 140 139 142 156 156 132 113 127 102 122 145 148 139 142 164 152 158 146 143 129 138 117 108 129 130 120 145 
143 137 144 130 146 147 133 157 144 129 135 117 111 99 102 158 182 136 137 135 138 140 134 130 143 143 143 142 138 125 120 119 115 121 129 131 138 149 158 157 160 157 151 154 159 156 158 160 151 147 155 153 160 154 150 159 167 160 153 139 127 129 120 111 127 147 147 151 156 135 120 114 119 125 151 138 152 150 151 153 146 148 142 138 133 124 116 110 135 137 119 140 
138 147 134 134 143 147 134 153 135 135 129 121 105 103 94 162 187 152 139 135 133 138 143 140 137 143 144 140 142 135 123 125 115 110 119 122 126 131 142 144 152 161 157 152 154 155 161 165 163 160 153 154 149 147 156 164 159 149 145 135 126 122 110 120 136 152 154 153 140 128 125 122 135 155 152 147 160 148 144 144 143 137 142 136 129 122 116 121 135 125 129 133 
146 147 137 133 142 142 148 147 130 143 124 115 113 98 103 161 188 153 145 140 132 133 136 148 139 143 146 144 145 140 134 132 120 116 111 117 117 118 125 129 132 135 148 147 141 147 160 166 168 163 151 151 143 150 154 148 146 138 136 126 114 113 113 126 141 153 150 131 131 131 123 133 159 160 160 147 154 141 137 140 139 123 149 140 123 119 129 131 130 130 137 126 
144 147 137 136 148 144 150 134 137 138 124 118 110 93 103 167 181 154 138 149 133 132 130 136 154 148 148 154 146 149 141 142 139 124 121 122 114 114 110 113 116 120 121 125 123 124 122 133 135 133 131 127 132 128 135 128 126 118 118 107 108 114 121 125 148 154 138 139 136 134 122 136 158 156 152 141 153 144 142 130 134 128 151 140 127 126 134 125 128 130 135 128 
145 143 135 145 154 140 143 134 135 132 123 113 107 91 114 169 174 154 145 141 146 134 131 129 143 152 159 155 158 160 156 147 146 139 132 131 129 125 115 108 110 109 108 108 102 96 93 91 86 87 94 99 103 104 110 111 107 105 108 117 113 119 129 136 153 158 153 149 135 107 118 144 153 148 142 143 154 135 136 131 138 143 147 145 127 130 129 125 120 125 126 138 
136 137 141 142 147 152 140 137 131 126 118 115 106 97 124 174 172 152 141 142 142 145 133 129 128 137 155 155 161 170 163 158 153 150 141 142 143 137 133 123 119 112 115 109 110 101 105 106 97 96 96 98 92 100 104 112 115 119 124 118 116 126 137 142 164 169 167 135 103 97 119 141 149 144 141 143 148 133 140 136 147 158 151 134 136 130 127 119 120 124 128 152 
123 136 130 145 139 146 141 131 126 122 120 115 108 104 148 160 169 146 142 139 146 139 141 134 125 121 141 149 161 165 169 173 160 149 144 144 143 142 135 138 137 133 134 132 130 124 121 126 116 119 113 120 118 126 128 130 135 129 123 122 126 139 150 170 176 183 151 97 87 100 119 141 152 134 144 145 137 140 137 149 154 154 148 140 132 131 119 115 131 127 134 168 
139 136 129 144 143 142 130 126 123 124 128 123 105 119 158 151 166 146 138 139 139 144 135 137 135 124 127 139 143 165 166 172 174 162 155 150 147 144 142 141 142 137 142 142 141 137 139 133 140 135 137 135 139 143 139 143 137 134 122 134 139 144 179 182 188 175 107 80 88 100 118 138 143 137 144 141 135 138 145 150 152 152 142 138 133 129 116 122 140 129 150 169 
145 135 129 141 143 140 125 126 125 131 142 124 119 137 145 147 162 146 138 139 136 133 143 139 132 131 123 130 135 150 160 162 172 178 166 161 155 152 147 148 148 141 142 145 145 147 145 145 150 150 152 149 150 153 149 145 140 129 132 148 158 178 192 185 191 126 87 82 87 102 127 140 134 142 140 145 137 142 151 148 153 141 142 130 131 129 128 133 138 133 164 166 
140 129 131 138 140 132 123 127 128 149 146 129 137 140 135 148 152 151 143 137 134 138 129 141 137 132 125 126 125 137 147 161 166 173 181 174 169 159 157 155 150 151 150 147 151 151 157 162 165 160 167 168 165 158 157 155 143 147 148 165 180 194 194 201 156 97 88 77 80 105 138 134 137 145 140 142 144 149 151 148 147 134 133 130 143 133 133 138 133 154 168 171 
