P2
# Imagen
92 112
255
164 161 163 164 161 163 161 161 161 163 159 158 157 157 158 157 154 136 129 122 124 120 102 89 75 54 35 33 31 24 23 24 27 23 27 27 23 26 30 31 27 32 33 31 31 31 32 27 31 36 35 38 37 43 48 55 58 59 60 64 67 72 88 110 107 115 136 143 146 148 148 149 148 155 156 157 157 157 156 155 157 158 157 157 155 156 156 156 156 155 156 155 
163 163 161 163 161 162 161 161 159 162 159 156 158 157 156 153 141 125 117 121 115 108 89 70 59 36 26 24 23 19 19 18 19 19 18 19 18 20 24 24 20 20 23 25 21 18 21 19 18 21 33 33 35 36 38 39 53 45 49 53 55 60 65 73 79 89 97 111 127 141 148 147 148 150 152 157 157 155 155 156 157 156 156 156 155 156 154 157 155 155 155 154 
162 161 162 162 163 160 159 161 159 158 157 152 155 156 149 144 130 117 109 110 101 87 72 55 40 26 20 19 20 17 18 16 17 19 13 16 15 19 19 16 15 18 16 21 16 15 16 17 15 18 22 30 33 34 34 31 35 39 38 39 50 50 54 57 60 65 79 86 91 108 128 143 144 148 149 153 154 156 155 155 156 154 156 154 155 156 154 156 155 155 155 155 
161 160 162 158 159 160 161 157 157 151 150 151 147 147 138 131 120 105 93 91 80 69 49 36 25 23 19 17 18 16 17 14 16 16 16 13 17 15 18 17 14 18 18 16 14 15 16 16 15 15 18 16 24 25 22 21 24 25 29 34 33 43 43 49 46 54 59 69 77 81 91 107 125 136 147 149 149 150 154 156 155 155 155 154 154 154 154 156 155 154 155 154 
162 161 160 160 158 158 157 155 153 153 145 143 137 128 120 107 94 85 81 74 66 52 30 28 20 20 21 17 18 16 17 15 15 16 15 14 15 16 17 16 14 19 17 19 15 15 20 17 17 15 17 18 16 18 20 14 19 15 13 20 21 29 34 39 35 42 48 56 67 67 85 84 98 107 127 145 150 146 148 154 152 153 153 152 154 154 155 157 153 157 154 153 
161 161 161 161 160 157 156 152 142 140 134 122 120 103 92 85 79 72 70 62 47 36 23 26 19 19 19 16 20 16 18 16 15 16 14 14 14 18 18 19 12 22 19 18 21 14 19 19 21 19 19 16 19 18 17 21 13 21 13 15 18 14 22 22 29 34 36 43 56 59 65 80 83 89 96 117 140 146 144 144 154 151 152 152 152 154 156 155 153 156 155 155 
161 160 159 160 161 157 150 143 134 131 125 106 94 80 79 72 66 63 53 40 32 24 22 25 22 21 19 16 24 19 18 18 15 18 15 16 15 16 21 20 16 21 25 19 20 20 22 21 23 22 19 20 25 21 20 20 21 18 20 15 20 16 20 16 17 22 29 25 37 48 59 61 72 87 89 92 111 133 142 147 147 152 152 152 152 154 155 155 154 154 154 152 
158 161 159 160 157 151 140 138 134 125 110 91 78 69 68 63 49 45 36 23 24 22 27 23 19 21 19 18 22 21 15 22 21 20 19 18 18 19 23 21 17 23 26 25 21 22 24 25 23 24 25 21 28 28 22 21 27 22 21 21 23 22 18 21 19 18 27 25 34 27 29 45 55 64 90 89 91 112 124 137 146 148 150 153 149 151 153 153 155 155 154 154 
160 158 159 156 146 140 140 135 124 106 90 71 68 66 53 48 39 30 26 22 25 19 28 23 19 21 21 22 22 20 19 23 24 23 21 20 21 21 29 25 19 26 26 30 25 31 25 29 29 24 29 23 27 32 29 24 28 27 29 26 22 26 25 23 25 22 22 25 35 31 29 28 30 41 60 85 91 99 112 114 130 142 147 153 148 150 150 153 154 154 154 153 
159 158 155 146 141 138 138 128 105 90 74 69 65 53 48 32 26 22 25 26 25 20 25 24 19 23 22 24 25 23 22 28 23 28 26 22 22 26 31 31 22 31 31 33 33 34 36 26 35 29 32 30 25 32 35 33 27 28 27 33 24 27 30 31 30 27 27 23 37 36 28 36 27 26 36 55 74 94 100 101 110 128 141 148 146 150 152 150 153 153 153 153 
158 152 143 139 139 135 125 107 91 72 68 58 45 34 31 26 21 23 23 25 25 23 27 25 23 25 23 28 29 29 24 34 26 28 30 26 27 28 33 37 27 34 44 34 36 34 47 32 35 31 38 35 32 29 35 40 34 32 27 34 30 22 41 30 37 25 31 32 30 36 32 31 43 24 24 46 47 63 96 95 91 114 126 138 143 146 149 151 153 153 154 152 
150 144 139 138 136 124 104 87 77 66 50 31 24 25 27 27 23 28 22 26 25 25 32 25 24 30 23 30 31 36 27 38 37 31 33 29 31 33 38 38 36 34 54 41 44 35 52 47 37 38 36 48 36 34 35 42 40 36 31 38 34 31 37 37 37 36 31 35 35 35 35 29 46 39 25 23 45 40 62 90 89 94 106 125 139 143 144 149 150 151 151 152 
144 140 138 136 122 104 91 78 65 40 25 22 23 24 28 27 25 29 27 28 27 27 31 27 30 32 26 34 34 39 31 39 43 36 38 34 34 36 42 40 44 34 51 47 50 41 43 56 46 45 38 52 43 37 40 40 48 45 35 35 40 35 40 39 37 42 33 39 38 37 36 34 39 49 40 23 31 38 52 60 74 89 93 105 129 142 142 143 148 152 151 151 
138 141 137 130 109 91 83 59 38 21 22 24 29 25 33 25 26 29 30 31 31 31 32 27 34 34 30 34 35 40 34 40 45 39 38 38 41 38 44 41 48 42 45 55 50 49 42 56 55 50 42 50 56 39 43 47 49 48 38 38 43 43 42 45 37 37 39 40 47 38 33 38 38 49 49 32 30 33 38 61 51 66 86 93 111 141 143 144 145 149 151 152 
140 137 131 113 98 83 62 29 25 26 21 27 33 28 31 31 28 28 32 33 33 36 33 33 39 35 33 39 36 41 36 41 51 38 41 40 45 41 44 46 49 49 46 58 54 53 48 55 54 55 51 46 52 48 42 52 50 42 46 44 40 49 44 47 42 38 36 46 51 40 35 37 39 39 55 44 25 35 30 46 57 45 65 77 99 124 144 143 143 142 149 150 
138 138 125 107 90 59 32 22 25 28 25 31 30 33 34 33 36 33 33 37 34 36 35 35 40 38 38 39 44 41 37 42 54 44 43 43 52 48 50 53 54 54 57 55 61 61 55 59 55 60 56 57 44 58 49 51 53 43 48 55 43 47 44 49 45 43 39 41 50 47 36 36 40 38 51 51 34 30 34 33 57 49 56 63 75 109 136 138 138 142 144 148 
137 136 116 99 68 35 28 24 29 30 32 31 33 37 37 37 37 39 36 40 37 40 36 36 38 43 43 39 45 44 43 46 57 52 48 50 55 54 54 59 59 59 60 60 58 64 58 62 57 66 59 66 55 60 58 58 59 54 53 57 45 51 49 53 47 47 41 39 47 50 47 38 39 40 49 49 43 38 36 34 46 58 50 54 65 82 117 137 140 142 143 147 
138 129 109 78 47 30 29 31 30 32 38 34 35 41 38 43 38 41 37 39 36 43 38 42 39 48 48 42 51 45 54 53 59 64 54 53 67 61 58 61 66 61 64 64 58 67 68 70 58 70 69 65 67 69 64 58 63 63 62 59 54 57 64 58 50 51 46 40 44 53 53 45 41 42 45 49 45 47 37 37 41 57 53 53 64 76 94 123 140 144 142 143 
131 119 90 62 42 31 31 36 37 37 40 38 34 42 40 43 40 39 42 39 44 46 41 47 43 51 53 49 55 55 66 59 63 65 61 56 69 64 59 65 67 65 63 71 60 66 70 72 64 73 76 64 69 74 70 60 62 69 65 63 62 59 65 61 62 54 54 49 46 52 54 46 48 43 39 51 47 43 41 38 42 50 59 55 64 77 80 110 131 141 143 141 
122 99 76 50 38 36 34 38 42 41 42 42 39 44 43 44 45 41 46 41 49 49 45 51 43 50 51 50 54 62 67 62 61 62 63 55 64 65 58 66 60 66 62 70 62 61 65 69 67 63 77 63 67 72 71 60 64 65 69 64 65 61 59 62 65 61 55 56 49 49 53 48 51 48 40 50 49 39 43 40 46 43 58 49 56 67 77 91 125 133 141 141 
107 83 62 39 40 39 37 41 43 46 46 39 40 45 42 49 44 47 50 47 48 51 46 49 51 50 49 53 55 64 67 63 61 58 66 58 58 65 64 63 64 61 60 67 62 59 57 68 66 60 74 64 67 67 67 65 63 61 66 64 63 65 56 67 59 63 58 55 49 47 58 48 52 49 45 54 49 46 52 48 44 48 45 51 51 61 66 82 114 135 132 137 
94 69 49 29 40 43 38 43 44 46 46 35 43 46 43 52 49 48 54 49 48 53 49 53 52 54 54 55 58 63 61 63 61 61 64 64 60 62 63 63 64 61 59 70 66 65 55 61 69 65 69 67 65 66 64 66 67 65 60 66 60 64 61 61 64 61 58 56 47 47 53 50 45 54 50 52 47 48 55 51 45 47 38 44 48 59 54 67 100 132 132 133 
83 53 42 24 33 46 40 45 44 46 44 42 47 46 45 53 55 53 56 51 55 56 58 56 55 58 58 58 61 62 59 64 63 65 65 67 63 64 65 65 65 64 62 66 70 65 63 57 69 68 68 78 66 65 66 65 65 67 68 65 62 62 69 61 64 63 60 61 54 47 51 49 44 56 51 49 39 47 50 47 40 48 40 42 44 51 50 62 77 113 129 131 
70 49 35 26 30 43 40 47 45 44 49 43 50 52 48 56 60 55 60 61 62 61 59 55 59 59 63 64 65 70 62 68 67 72 69 71 70 70 69 71 69 73 66 70 72 66 71 64 72 74 73 79 79 69 68 69 67 67 72 71 68 67 73 67 64 67 60 64 61 49 49 49 47 57 48 49 46 46 52 40 40 49 45 38 44 47 50 57 73 90 123 127 
64 44 31 31 34 45 40 45 49 43 47 45 50 55 54 58 65 63 66 70 70 66 63 67 69 67 74 77 77 81 77 75 79 82 80 83 85 82 76 83 83 81 80 77 81 75 80 78 82 80 84 83 88 79 75 83 73 76 78 78 78 77 81 80 71 75 67 68 66 55 48 58 56 57 47 49 51 48 51 41 42 52 41 34 40 50 46 50 71 79 114 124 
57 38 35 35 35 44 49 42 47 43 50 53 57 58 62 63 70 74 75 74 78 78 74 79 82 79 88 88 96 92 92 90 95 97 104 100 104 101 92 98 98 97 96 94 90 93 90 90 95 92 92 100 97 93 93 92 89 87 88 91 92 93 92 94 85 86 81 79 73 66 59 65 66 58 51 50 54 47 50 49 48 45 44 43 39 45 39 50 62 82 102 117 
46 39 34 37 36 41 54 45 41 46 57 59 62 64 68 69 76 83 83 83 92 88 92 94 92 95 103 103 108 112 107 110 113 118 123 119 117 122 116 115 116 117 115 116 113 111 107 107 107 112 103 115 113 112 109 109 108 105 109 105 109 112 106 103 100 101 98 92 84 83 77 75 74 66 61 54 54 50 51 53 54 48 45 45 40 46 44 43 61 78 93 109 
43 39 36 37 41 50 49 49 45 51 61 62 68 73 78 79 83 91 90 91 98 99 107 110 108 111 116 120 125 129 134 135 134 137 144 144 138 141 143 139 137 137 138 128 134 134 132 128 129 135 127 132 134 137 131 134 129 136 128 129 131 131 130 124 118 118 116 111 99 101 83 82 82 79 67 60 56 53 50 47 48 47 41 41 34 37 48 41 56 73 88 106 
40 39 37 39 51 52 52 47 51 54 64 72 74 79 83 88 90 99 94 97 108 113 121 124 127 133 134 138 140 150 151 157 160 156 161 169 161 160 165 163 165 153 154 149 147 158 156 153 150 158 153 152 157 161 155 163 161 161 161 157 157 158 152 151 145 140 135 130 119 114 104 96 91 86 76 66 64 60 54 49 50 50 45 41 38 30 41 39 47 67 85 102 
38 37 47 44 46 53 52 51 53 60 68 82 83 85 88 97 100 107 104 103 108 121 130 138 145 153 150 154 156 167 164 174 182 185 178 191 182 180 189 184 191 178 177 172 174 175 180 175 176 177 177 174 181 184 180 184 190 182 185 181 185 183 181 177 168 165 157 147 137 125 123 114 108 97 88 75 69 63 56 50 51 48 47 39 38 33 36 37 40 63 82 95 
40 43 46 43 50 53 52 56 59 67 76 83 87 96 98 103 113 112 115 116 123 130 144 145 155 165 164 166 175 183 186 185 197 205 200 202 201 204 204 203 209 207 203 196 189 199 198 194 202 198 194 189 196 196 200 197 204 201 197 200 201 195 193 190 184 178 170 162 146 139 134 125 112 106 95 86 78 69 60 59 50 49 40 42 31 36 34 40 36 57 81 89 
44 43 45 46 52 52 56 57 63 73 78 85 91 100 106 112 117 120 122 130 132 138 147 147 158 169 180 179 189 195 195 188 202 210 213 208 211 214 221 218 219 224 221 214 208 214 216 212 216 221 217 211 214 216 213 209 215 217 210 208 209 201 198 203 192 187 180 165 154 145 138 127 113 105 103 94 83 72 65 61 56 49 42 41 36 32 36 34 42 53 78 87 
48 42 48 49 48 56 58 60 68 76 78 93 97 100 112 114 122 129 141 143 145 149 153 159 168 176 187 189 194 207 209 204 204 216 215 220 218 217 228 226 224 225 224 224 223 223 225 221 223 229 226 226 225 223 223 221 222 225 225 218 214 208 208 210 202 192 195 177 166 148 147 136 119 111 102 98 84 80 70 60 56 55 50 40 38 34 37 35 39 51 74 89 
48 48 43 46 53 52 60 62 71 81 85 98 99 105 115 121 124 136 148 148 152 157 163 168 177 182 188 194 202 208 212 211 213 219 219 224 225 220 231 231 226 232 227 226 222 223 230 222 223 231 232 231 232 227 229 226 228 230 228 223 218 213 215 213 210 195 199 190 173 159 149 143 128 118 103 98 89 81 74 60 55 53 51 49 40 32 33 37 44 50 67 86 
47 48 42 47 50 50 59 67 70 84 87 93 101 104 119 126 130 142 148 156 157 165 172 178 182 191 201 202 210 215 220 218 226 226 222 226 228 228 233 236 232 237 235 232 230 230 236 229 227 238 238 236 237 233 234 230 231 234 232 229 224 218 220 216 211 205 203 196 184 169 157 148 139 123 110 100 94 84 78 65 53 53 49 47 48 33 28 33 43 49 68 79 
41 47 40 47 49 50 58 65 73 80 83 93 100 110 120 127 134 145 156 159 167 176 181 187 190 200 208 210 219 224 227 224 232 235 232 232 232 237 239 241 239 242 240 239 237 235 241 233 229 240 242 241 242 239 237 237 236 237 238 237 230 225 223 220 216 211 207 202 189 176 169 159 147 139 118 107 99 91 76 67 51 49 46 39 47 37 25 32 42 47 65 74 
38 45 39 41 49 52 52 63 70 77 83 92 102 111 122 128 135 149 160 163 174 182 185 194 200 209 214 219 227 229 230 228 238 243 241 236 241 241 242 246 241 243 245 241 241 238 241 240 236 241 244 246 247 244 242 240 241 239 241 240 233 230 225 224 219 214 210 205 195 187 174 167 156 150 132 116 105 93 81 66 52 45 44 36 37 39 26 29 41 43 58 72 
32 41 40 42 48 49 52 59 68 72 84 92 101 116 122 126 142 155 161 168 176 187 191 203 208 215 218 225 230 233 236 236 239 245 245 243 243 245 243 247 245 243 248 248 242 243 243 244 243 244 248 248 250 247 245 243 243 241 243 240 237 232 229 224 222 217 214 208 202 191 181 174 165 156 142 124 114 98 85 67 53 43 40 37 30 33 26 26 37 41 54 62 
30 32 36 44 44 44 48 59 63 71 80 87 100 116 121 132 148 160 167 171 180 193 199 203 215 217 221 229 233 237 239 240 243 245 245 248 246 248 248 248 247 246 248 251 247 246 246 245 246 245 249 248 250 249 246 245 244 243 244 241 239 236 231 228 223 220 212 211 204 194 185 179 172 161 149 131 122 101 89 67 53 41 36 32 29 26 23 25 37 34 51 63 
34 26 38 39 39 41 45 59 58 67 75 85 97 113 125 137 153 163 173 175 182 193 204 206 218 219 224 229 235 236 238 241 245 245 245 248 249 248 249 249 249 247 249 250 249 248 247 247 247 247 249 248 249 250 246 247 244 243 243 242 239 237 232 227 224 219 212 208 205 195 186 180 174 164 154 135 127 109 92 70 56 42 33 28 27 21 17 19 40 31 45 64 
36 29 31 36 37 34 45 52 58 62 74 81 94 111 131 142 158 167 176 182 189 196 205 208 217 220 224 231 234 235 239 242 242 245 246 246 248 250 250 248 249 248 248 251 250 247 248 246 248 248 248 248 246 248 247 245 245 244 242 242 241 235 232 227 224 218 213 208 203 197 186 182 175 169 158 142 132 118 97 76 59 42 30 26 23 18 15 12 35 36 36 60 
41 27 30 32 31 33 39 49 55 57 71 79 87 111 132 147 160 168 179 187 194 199 198 208 211 217 223 231 231 232 237 240 241 242 243 246 247 247 248 248 247 248 248 250 249 248 248 247 247 248 247 247 246 246 244 245 243 242 239 238 240 233 230 224 221 216 209 207 202 194 186 177 174 168 160 146 133 122 101 81 64 44 32 23 20 16 12 12 27 35 34 56 
38 29 31 29 26 28 37 48 51 55 66 77 90 111 133 153 166 171 181 190 193 194 194 203 206 208 216 221 220 222 226 228 231 229 233 238 239 242 244 246 246 247 247 249 248 247 248 248 246 247 246 246 247 246 242 241 240 236 234 231 228 223 218 213 207 205 204 198 194 188 185 174 170 167 159 147 133 123 106 85 63 51 32 22 18 14 13 10 21 35 35 55 
36 31 27 29 24 27 36 41 49 51 62 75 90 112 132 155 167 171 181 190 187 189 194 199 200 204 208 212 213 214 218 221 222 221 224 227 229 233 237 239 244 247 246 247 247 247 247 246 245 245 245 245 245 243 240 237 232 226 224 222 217 213 210 207 197 197 194 188 185 181 173 170 161 161 156 146 134 123 107 85 63 51 36 21 15 11 9 13 21 32 32 57 
34 28 27 25 23 26 32 40 46 48 59 70 91 113 131 156 167 173 176 184 183 185 194 199 200 206 208 211 212 214 218 218 220 221 223 224 225 229 231 234 240 243 246 245 246 246 246 245 244 244 244 244 242 243 239 232 227 223 217 217 214 209 207 205 198 193 190 184 177 175 170 163 155 152 149 146 134 123 109 84 64 50 38 22 14 11 8 13 23 28 35 51 
32 24 25 23 21 25 30 38 42 47 53 71 90 115 135 151 165 172 169 174 187 191 196 205 208 215 218 219 221 220 222 222 223 224 225 226 228 229 231 230 236 241 245 246 245 244 246 243 241 243 242 241 241 239 235 226 225 221 216 215 211 209 204 202 199 193 193 185 176 174 169 162 157 148 140 141 135 123 109 85 64 53 37 21 12 11 8 12 23 27 34 48 
30 25 20 20 21 22 32 36 40 44 48 69 89 116 136 149 161 162 166 181 196 204 207 218 221 224 228 230 230 232 230 228 229 228 230 229 232 232 234 233 236 241 244 244 244 244 245 244 243 243 240 240 239 236 230 225 225 223 217 217 214 212 208 205 205 203 200 196 189 181 180 171 163 153 138 130 131 125 108 83 63 53 38 18 11 9 12 12 24 22 35 46 
31 26 17 19 17 22 29 34 39 41 49 66 92 115 140 147 148 156 178 194 203 211 213 221 227 230 232 235 236 237 238 236 238 235 236 235 235 237 236 236 237 241 243 245 245 246 245 246 243 243 242 240 239 234 229 224 226 223 222 223 221 219 216 216 213 213 208 203 198 191 186 179 173 164 147 127 121 122 111 83 61 52 38 18 8 7 10 16 24 24 40 46 
32 25 20 15 14 20 29 31 38 42 47 70 91 117 138 145 146 158 184 198 205 211 215 219 223 228 231 230 233 235 236 235 238 239 240 239 239 240 238 237 236 239 243 246 246 247 246 245 245 244 243 242 237 232 229 226 226 227 226 227 224 223 221 221 216 215 213 206 200 194 188 179 173 167 156 139 117 117 111 87 60 50 35 16 9 8 7 18 24 23 43 53 
28 31 20 14 12 16 28 32 36 40 47 70 94 116 138 142 153 167 184 198 204 210 215 218 217 221 227 229 231 233 232 234 234 234 235 239 241 243 241 240 238 237 243 246 249 248 247 246 246 245 245 241 238 232 228 229 229 229 229 227 221 220 219 216 214 212 208 205 199 194 189 182 175 167 156 147 124 110 110 89 62 50 35 14 8 8 7 16 24 26 40 60 
33 28 24 14 8 18 28 31 35 39 49 76 97 116 132 143 155 170 183 191 200 206 210 211 215 218 219 219 223 225 226 228 232 234 236 235 237 240 242 243 240 238 241 246 249 249 249 248 246 246 245 241 237 232 231 231 231 229 227 222 221 220 217 217 211 208 208 202 195 188 185 180 173 166 153 148 135 107 107 87 68 50 29 14 9 7 4 16 21 30 42 64 
33 30 23 15 10 16 25 30 32 40 51 80 101 122 124 140 153 166 177 188 195 197 198 203 204 212 214 213 215 219 218 217 226 230 232 238 235 235 241 244 242 239 240 243 248 247 249 248 248 246 245 239 235 233 234 231 230 226 225 223 220 214 209 206 204 199 197 194 190 186 175 173 166 162 155 145 137 110 100 88 70 49 27 14 10 7 6 17 19 33 41 66 
30 28 25 14 12 19 22 31 30 38 55 80 106 125 128 132 148 161 172 180 181 183 181 181 187 203 212 206 202 213 218 211 215 231 233 228 236 234 234 241 242 241 239 240 246 247 248 248 246 245 243 236 232 235 234 231 226 224 220 216 209 200 197 188 185 185 184 178 171 169 169 159 154 149 148 143 133 114 94 89 68 50 26 13 9 8 5 17 21 37 42 64 
33 30 22 17 13 23 29 33 33 39 57 89 108 123 127 135 145 152 161 167 167 164 164 164 176 187 193 180 182 181 202 205 192 212 232 227 221 227 230 235 239 237 236 238 241 245 245 244 243 243 239 231 229 231 228 222 219 213 209 213 202 188 189 191 179 173 175 174 161 154 149 148 141 136 132 134 127 111 96 87 73 45 27 13 9 9 8 14 28 39 44 69 
31 30 20 18 17 23 34 35 34 41 68 95 106 120 130 139 143 147 142 141 145 143 148 155 163 177 175 159 159 162 163 174 170 185 209 214 209 208 217 228 230 229 230 231 234 238 240 239 238 239 236 227 224 221 220 212 203 204 210 212 189 178 173 193 174 160 159 168 157 145 132 127 132 124 117 113 114 105 91 85 75 49 23 15 9 9 10 12 31 36 51 70 
35 27 22 16 19 29 38 43 36 48 78 98 114 129 140 142 139 136 128 129 127 125 123 131 135 147 155 140 143 152 154 154 156 173 185 190 198 201 207 215 218 216 219 221 224 227 231 230 232 230 228 220 214 211 212 205 195 196 199 197 173 162 158 155 157 142 145 155 146 133 119 108 108 114 104 94 91 95 85 80 74 50 26 17 8 11 11 11 29 35 57 67 
37 31 22 18 21 34 40 44 38 59 86 113 135 143 143 143 136 127 132 135 131 124 112 113 113 121 128 123 120 128 126 135 140 153 161 164 173 187 192 200 203 204 209 212 214 219 222 221 221 222 216 210 200 199 201 191 184 178 176 175 159 147 141 132 125 118 127 135 126 112 102 88 83 88 99 91 77 83 78 73 75 49 27 18 12 10 9 11 27 39 53 63 
40 33 26 20 22 38 42 40 42 63 95 129 143 146 146 141 135 138 140 136 131 120 112 115 117 119 121 121 119 119 114 116 121 133 139 140 152 163 174 183 188 196 202 207 210 215 217 215 214 211 203 194 187 185 184 176 167 161 151 145 134 129 120 113 106 100 106 108 106 95 87 85 78 74 81 91 89 85 84 65 59 49 27 23 12 9 9 16 25 37 51 65 
38 36 25 21 28 40 43 39 40 66 106 135 143 146 145 143 150 150 151 146 140 131 123 125 123 123 120 111 108 111 106 110 116 115 124 130 136 145 160 167 172 178 192 195 201 210 212 209 205 201 192 186 180 177 172 166 156 146 132 119 112 108 101 100 97 93 86 93 96 98 97 100 99 88 79 90 103 99 100 81 55 38 28 24 16 7 10 18 27 38 45 64 
35 33 28 21 32 43 45 40 39 77 120 136 147 146 148 149 151 152 159 161 159 158 151 143 138 129 123 113 112 112 110 104 106 110 120 129 134 136 145 158 165 172 180 190 195 204 210 205 199 196 186 181 181 174 161 160 156 148 128 119 114 109 107 104 103 101 93 99 109 119 118 123 128 120 104 88 106 118 118 105 74 37 25 23 21 5 11 17 29 34 42 62 
38 30 29 24 34 46 48 38 44 88 125 142 150 152 152 146 147 152 157 155 155 152 144 130 128 124 136 122 119 123 125 124 124 119 129 136 142 143 143 154 166 167 176 184 196 200 204 198 196 191 183 180 179 167 159 164 163 155 140 128 118 122 119 117 110 113 113 110 107 119 127 130 135 134 125 102 97 122 122 113 92 46 23 25 23 6 12 18 24 30 42 55 
33 30 27 27 38 52 50 39 50 99 131 148 156 157 151 146 146 147 148 145 146 149 128 107 109 111 123 118 108 119 133 129 125 136 135 145 147 153 150 160 166 170 179 187 193 202 202 199 195 189 186 183 175 167 166 167 166 167 154 140 132 136 141 111 106 112 126 122 111 104 119 131 129 127 125 113 96 111 121 112 94 61 28 24 25 7 8 16 24 30 42 48 
32 27 31 29 44 55 53 46 60 106 140 156 162 161 154 147 144 145 139 140 142 147 118 100 110 120 112 101 101 116 121 134 128 136 141 143 151 149 147 156 169 178 181 191 196 202 204 198 195 188 187 178 173 163 158 157 161 164 149 130 122 115 113 109 104 108 121 123 112 90 96 114 119 122 119 106 95 108 121 110 93 69 37 27 26 9 8 13 20 25 38 42 
26 29 34 32 47 57 56 52 69 113 149 162 169 167 166 158 151 144 142 145 152 147 130 110 125 124 126 98 114 144 121 121 138 146 144 133 139 154 152 149 159 179 186 191 196 204 206 202 194 188 181 173 168 165 161 153 153 164 159 121 117 117 103 103 109 122 118 133 120 93 85 93 116 114 118 115 101 104 120 111 94 73 48 25 27 11 7 16 17 30 29 38 
24 29 33 32 49 57 61 54 75 122 151 170 179 178 180 175 164 154 153 157 159 159 141 135 136 133 148 129 131 162 123 114 147 182 145 142 143 155 155 159 156 176 195 200 194 199 207 207 197 188 176 173 173 172 156 150 152 168 159 127 109 111 119 112 123 131 129 119 123 92 87 90 119 120 113 104 110 113 121 113 99 80 51 28 27 18 8 15 17 34 31 33 
21 28 34 32 53 65 66 58 80 125 156 173 185 189 192 194 188 174 172 168 165 170 155 145 157 156 157 155 162 165 132 124 148 167 154 138 151 175 173 155 169 187 199 203 203 202 208 208 204 193 176 179 193 174 165 161 159 179 168 136 124 122 141 130 126 135 133 122 99 95 93 108 137 141 120 102 106 119 125 118 105 86 57 29 29 24 12 16 18 33 29 34 
23 25 34 34 61 69 68 61 86 125 159 174 191 199 203 207 207 193 185 178 171 174 172 160 175 171 157 163 174 173 147 148 164 175 163 158 170 189 187 175 178 207 215 206 206 210 211 212 207 193 180 191 205 183 161 161 171 190 175 150 146 130 128 131 134 162 147 133 117 105 101 128 155 153 134 116 113 123 130 126 114 90 64 29 34 27 16 16 21 27 32 34 
21 24 34 41 62 70 74 61 88 125 155 177 191 202 213 216 217 210 206 194 187 180 178 174 184 191 182 178 179 174 177 175 181 190 177 177 187 188 187 191 204 219 223 212 211 212 220 220 217 201 189 197 212 199 167 173 180 193 194 174 157 157 142 137 140 172 162 146 137 128 127 148 158 153 146 134 130 136 136 134 117 99 64 37 35 34 14 16 23 20 32 36 
20 23 37 48 60 72 75 69 93 124 156 176 191 203 213 219 222 221 217 212 206 200 191 182 184 187 185 186 185 183 180 185 192 201 201 195 196 196 195 207 216 224 223 210 213 220 222 227 223 210 195 197 204 208 190 176 183 192 196 188 170 169 156 149 155 167 164 157 153 143 147 165 166 163 158 144 139 147 147 139 124 94 70 43 43 41 12 16 22 20 24 37 
20 27 39 48 59 75 84 75 93 124 155 173 191 203 213 220 226 226 223 222 216 212 208 201 199 199 194 194 190 189 186 186 190 196 200 208 209 212 216 214 213 215 218 213 218 225 230 225 222 210 200 197 202 205 201 195 198 203 202 191 179 181 179 175 176 173 171 167 164 164 164 172 173 169 166 152 150 152 155 142 129 96 75 48 50 45 11 17 19 21 24 39 
24 29 36 52 62 78 92 84 94 122 154 173 188 201 214 221 229 231 230 230 224 222 215 214 210 208 206 203 201 198 199 200 204 206 206 212 217 217 217 211 207 207 210 212 219 223 226 224 220 206 196 196 201 204 202 200 203 207 207 203 185 182 181 180 177 183 183 178 175 173 176 181 179 177 175 162 158 159 159 142 128 94 80 52 59 44 15 16 15 20 24 35 
28 29 36 49 64 73 98 94 93 122 148 170 187 202 212 223 228 233 233 234 231 230 226 225 222 220 217 217 216 217 220 220 222 220 224 226 228 225 223 220 214 211 202 204 216 222 222 222 219 201 188 189 197 206 208 207 210 216 216 213 201 192 193 192 188 189 192 190 187 187 188 190 187 185 177 168 163 164 161 143 122 96 82 60 62 41 18 14 13 19 28 29 
23 32 44 45 62 74 95 103 98 123 142 165 183 199 211 222 228 236 239 242 241 238 238 237 236 235 234 233 232 233 234 232 233 233 233 237 237 236 230 222 222 219 210 212 218 223 223 220 219 204 195 193 200 205 208 216 218 218 218 217 209 203 200 201 200 197 197 195 194 195 198 197 194 190 180 170 170 163 164 139 113 95 91 64 60 35 24 13 11 21 25 28 
21 32 40 39 68 75 94 117 104 125 139 163 179 194 207 218 227 233 240 243 246 246 246 248 248 248 247 246 245 245 245 244 243 242 242 243 242 242 240 229 224 220 217 222 223 225 221 222 220 212 207 206 202 204 208 220 222 223 223 224 217 212 210 214 214 213 212 211 208 206 207 204 199 196 183 175 173 168 163 136 108 99 96 67 52 29 31 12 10 15 25 30 
21 35 37 34 72 72 95 122 114 122 133 162 175 190 202 215 224 233 238 243 246 247 251 253 252 253 253 252 249 251 249 249 249 247 244 245 244 244 245 239 232 224 222 227 229 228 226 225 222 217 214 211 213 214 216 224 225 227 227 226 224 217 217 219 222 224 222 222 219 218 213 210 204 200 185 179 174 170 162 129 109 107 93 70 46 27 30 14 12 15 25 30 
21 34 31 30 56 71 93 129 121 118 125 158 174 189 198 210 221 228 234 240 243 246 250 253 254 255 254 253 252 252 252 251 250 249 246 246 245 244 246 244 241 233 228 234 233 232 229 230 225 217 215 215 223 224 225 230 234 234 233 234 234 229 227 229 230 231 229 228 227 224 220 216 208 199 186 181 176 173 158 121 115 111 89 66 48 26 25 14 16 18 22 30 
23 28 30 26 45 66 87 130 133 120 126 151 170 185 195 211 218 225 233 238 240 246 250 252 254 254 254 253 252 252 251 251 250 248 243 245 242 243 246 246 241 236 232 236 236 233 234 232 226 219 218 217 221 225 224 230 236 237 237 237 237 231 230 232 234 232 231 230 227 224 222 216 210 197 184 183 178 171 152 119 120 113 83 62 43 32 18 13 20 18 19 26 
25 20 27 23 34 65 80 122 143 126 128 148 165 180 192 205 214 222 230 235 240 246 249 252 251 253 252 251 251 251 250 249 248 244 241 242 241 241 245 244 240 235 234 234 235 235 235 234 227 219 219 220 218 220 225 230 234 236 236 236 237 231 230 232 233 232 231 227 226 223 221 215 207 194 183 184 179 164 146 123 123 112 77 53 36 31 18 11 17 22 24 20 
24 15 17 24 26 59 77 101 141 131 126 143 163 176 187 201 210 219 226 232 236 244 247 249 249 250 252 248 249 249 247 245 244 238 236 239 238 239 242 242 236 233 232 233 232 234 234 234 227 221 221 221 216 218 223 228 229 232 234 235 236 231 229 228 229 229 229 228 224 222 217 214 203 190 188 184 173 160 139 126 125 107 70 42 36 25 14 15 12 23 27 23 
20 15 8 15 23 40 65 90 114 132 127 140 157 171 184 197 207 214 223 227 234 241 244 246 246 248 247 246 245 242 240 239 239 232 233 236 234 238 239 238 233 229 233 229 229 233 235 232 229 225 223 221 218 216 220 227 226 229 229 232 234 230 227 226 226 226 226 224 222 220 213 208 195 191 188 180 171 152 132 128 126 95 60 40 31 17 13 17 13 16 27 31 
15 12 8 5 12 31 47 73 96 117 124 139 155 168 177 193 203 211 216 224 231 236 240 243 243 242 244 242 239 236 232 236 233 228 230 231 228 237 237 232 228 230 233 231 228 233 232 232 230 229 220 221 219 215 217 225 226 231 226 227 232 229 225 221 223 223 222 219 218 216 210 204 191 187 185 176 168 146 128 127 117 77 49 32 25 12 15 14 15 14 20 33 
13 10 6 5 3 10 26 57 75 100 111 135 155 164 172 185 198 205 211 218 225 232 235 237 239 239 237 235 232 228 227 233 232 223 225 222 222 235 235 229 225 232 236 231 229 234 231 225 229 228 220 215 218 217 215 223 223 228 225 224 228 228 224 217 217 219 218 214 214 211 205 195 186 186 180 172 160 134 123 117 100 55 37 27 14 10 12 15 13 15 13 23 
11 9 5 4 4 7 5 32 54 73 99 129 151 162 171 180 192 199 206 214 220 225 231 231 232 233 229 227 224 222 224 227 226 221 220 212 212 226 229 221 222 229 230 229 230 235 229 221 222 222 212 211 212 218 216 219 223 221 224 221 223 223 218 212 214 215 212 209 208 206 200 190 184 182 174 169 148 121 112 97 74 48 22 11 13 8 11 11 13 12 13 14 
10 8 7 2 5 2 7 18 27 48 86 115 146 159 164 174 185 192 198 208 213 218 225 223 224 224 220 219 216 216 217 218 218 216 217 209 206 204 210 205 206 216 217 220 225 227 221 206 205 206 196 198 208 212 211 215 218 215 215 214 215 217 210 205 205 209 206 204 203 201 193 183 180 178 170 159 128 109 91 77 61 33 10 5 12 10 7 12 11 10 11 13 
8 7 5 3 5 0 8 18 23 23 54 95 136 150 160 168 180 187 192 199 205 210 214 215 216 213 211 207 205 210 204 200 204 206 208 202 202 198 191 186 186 193 197 199 205 210 204 187 188 189 187 190 200 198 199 203 200 198 197 205 208 206 202 198 201 201 198 198 197 193 188 178 175 168 156 139 118 95 77 64 44 19 7 2 11 11 8 8 12 11 10 16 
7 7 3 4 3 1 5 17 26 21 51 82 125 140 154 165 174 183 188 191 196 199 205 204 205 205 200 200 199 203 202 192 190 198 202 198 193 193 192 181 176 179 176 173 176 185 179 174 180 180 176 175 185 188 188 184 178 176 183 193 198 196 197 190 194 195 194 192 189 187 181 173 163 153 141 126 107 88 65 44 27 19 5 1 8 11 7 8 11 13 8 15 
3 5 4 5 2 2 2 17 24 23 47 71 118 135 147 161 171 176 181 184 187 189 192 194 194 193 194 195 195 200 201 204 199 200 202 204 198 190 189 191 184 179 170 165 163 168 169 164 168 169 162 164 170 172 172 170 169 172 180 189 192 190 190 186 190 192 189 188 182 179 175 167 151 145 132 119 101 83 57 32 21 18 2 4 5 11 7 7 10 13 11 8 
5 2 8 2 1 6 2 10 26 20 44 65 108 133 141 155 166 171 174 179 180 178 180 182 182 186 191 192 194 200 203 208 207 205 205 205 207 195 185 184 186 184 176 170 171 174 177 171 165 158 151 148 152 165 168 172 179 181 187 192 193 189 185 180 190 187 184 183 177 172 167 159 144 141 126 111 97 76 47 28 20 17 2 6 5 7 9 8 9 10 12 8 
5 2 7 3 3 3 5 6 22 24 41 60 95 130 136 152 160 167 169 175 175 173 173 174 178 183 187 191 193 199 202 210 213 210 211 209 207 200 190 182 177 178 178 177 178 181 180 179 166 153 147 145 150 164 170 177 185 191 187 187 187 183 178 180 185 184 179 176 172 165 160 150 140 133 120 105 90 66 39 24 20 16 0 6 5 8 6 9 11 7 12 9 
9 4 5 3 3 3 7 5 16 27 37 57 82 123 134 145 157 163 167 169 170 169 169 170 175 179 184 190 192 199 204 213 214 214 213 210 208 202 195 192 184 179 177 181 178 178 178 173 166 160 161 160 160 171 173 177 180 185 183 177 179 177 177 178 182 179 174 169 163 158 154 144 133 128 118 98 84 55 33 20 23 11 1 4 5 7 8 6 12 10 9 12 
8 5 5 6 4 7 3 6 11 28 35 55 70 115 130 139 155 159 163 166 168 165 168 169 169 175 182 184 192 195 205 212 218 214 213 210 206 205 202 200 196 193 188 184 180 178 178 174 173 176 179 177 172 176 176 176 176 177 178 174 169 172 173 180 175 175 171 163 158 152 148 136 132 124 113 94 75 46 27 19 23 5 5 3 5 7 8 8 10 13 10 14 
7 5 9 7 6 7 6 6 8 26 29 52 63 101 126 137 149 157 162 164 166 168 166 169 168 173 176 183 190 193 201 209 213 213 210 207 206 209 208 206 205 202 196 191 188 187 187 185 187 191 194 187 186 179 176 176 174 173 173 173 166 165 170 175 173 171 165 159 153 149 141 132 131 121 106 91 60 41 23 19 19 2 6 2 9 6 9 9 9 12 11 13 
9 9 7 8 6 7 6 6 10 22 26 42 61 87 116 134 144 152 162 165 167 169 168 169 168 170 169 180 181 183 186 195 201 204 206 203 204 206 208 208 205 203 198 197 197 195 197 198 197 199 197 193 192 185 175 177 175 175 169 168 166 160 167 170 169 166 158 154 148 146 138 132 126 118 101 79 51 33 21 22 11 3 7 4 7 6 8 7 14 10 12 15 
13 8 10 8 7 9 8 7 14 14 27 30 55 74 106 128 141 150 157 165 168 167 168 173 167 161 166 173 177 178 173 169 178 186 191 194 192 191 191 192 192 193 194 195 197 193 193 195 192 195 194 192 187 184 174 169 173 168 163 164 163 159 163 167 163 162 155 148 145 143 135 135 123 110 93 66 41 29 20 21 8 1 9 5 7 6 8 6 13 12 11 12 
12 11 13 8 11 9 7 12 18 9 20 25 45 61 94 120 139 145 153 159 164 161 168 175 181 174 166 167 179 178 172 166 160 159 163 171 179 179 177 176 178 179 177 182 182 178 179 182 180 180 181 180 176 172 164 156 163 162 159 162 157 154 157 160 161 159 153 145 145 137 136 134 119 103 80 48 39 24 23 15 4 6 9 7 5 8 8 7 11 13 11 11 
16 12 11 10 13 10 9 19 16 8 12 22 33 57 72 114 134 140 148 153 161 160 162 173 180 183 175 172 168 168 173 182 177 174 175 164 166 171 165 167 163 160 161 161 162 161 163 171 168 170 168 162 156 158 154 150 158 162 162 159 148 142 157 167 168 162 152 143 142 132 135 129 112 91 61 42 34 23 21 7 6 6 9 8 7 9 7 8 8 12 13 11 
17 10 10 12 11 10 14 19 13 8 12 14 23 45 64 95 134 136 141 147 153 159 163 171 178 182 184 186 180 177 169 179 184 182 184 185 177 175 165 165 163 161 157 155 155 156 156 163 162 164 162 155 155 156 156 155 161 163 158 155 150 153 171 172 171 161 149 142 137 130 132 121 98 72 47 39 29 22 14 7 7 9 11 10 8 9 8 7 9 12 15 14 
14 9 11 13 10 10 17 19 13 11 12 11 14 29 58 73 125 136 135 140 149 154 164 171 177 179 183 190 191 189 190 188 185 188 188 184 178 177 171 174 181 177 171 173 170 156 154 153 153 154 155 152 155 156 158 157 164 162 158 157 157 158 166 166 165 157 149 139 132 128 127 110 77 55 42 37 21 20 9 9 9 11 13 10 8 12 8 10 7 9 16 15 
13 14 10 12 11 16 20 15 15 16 13 10 9 19 47 66 112 130 133 133 141 149 157 169 176 180 186 190 196 195 198 204 201 197 198 191 184 185 188 188 185 183 175 180 183 168 162 150 143 141 146 150 156 156 157 160 167 168 166 161 155 151 160 164 162 156 147 136 130 122 112 92 61 45 38 28 18 11 9 11 10 13 13 9 9 10 9 10 9 7 15 14 
11 16 12 12 13 20 24 15 17 20 13 10 4 19 35 61 107 127 128 133 137 141 152 162 170 178 184 190 195 196 196 198 209 205 200 194 193 194 197 195 190 183 173 171 171 170 168 165 161 162 162 157 160 159 162 166 169 170 169 164 158 155 161 161 157 146 138 132 121 112 92 76 49 42 33 21 12 12 10 13 10 16 14 9 10 13 9 11 9 8 12 15 
12 16 11 14 17 22 23 18 15 20 13 8 3 18 28 53 101 127 124 128 133 138 147 155 164 171 179 184 190 192 194 191 196 204 209 203 195 191 195 194 196 190 187 180 177 172 172 175 179 177 170 167 167 166 168 165 170 172 171 166 157 157 157 155 147 136 131 124 110 97 76 59 44 39 29 11 11 13 14 13 10 17 13 11 13 13 7 13 7 7 11 14 
14 13 13 16 20 24 20 19 14 19 10 7 2 13 29 44 94 123 126 125 128 136 140 151 158 166 175 179 186 192 194 192 190 192 199 202 198 194 190 191 192 191 189 184 184 180 179 177 171 169 169 171 173 175 172 171 175 173 169 159 157 155 152 146 139 129 124 116 97 80 60 46 40 29 19 9 13 16 16 15 13 18 13 12 13 9 9 11 9 7 10 10 
11 11 13 18 24 21 19 19 16 16 7 7 4 11 26 44 86 119 125 127 126 129 135 144 154 162 170 175 178 188 192 193 190 189 191 193 191 191 184 179 179 178 179 178 178 176 176 173 169 166 170 173 173 172 170 171 172 167 162 157 154 151 146 135 128 120 113 103 85 57 48 37 30 16 13 12 17 16 20 15 16 17 11 13 14 9 11 10 7 7 10 11 
12 10 17 16 21 18 18 18 14 12 5 5 3 15 21 45 80 117 121 126 127 127 132 138 148 157 167 171 174 179 188 193 191 188 189 190 190 191 183 179 175 174 173 172 172 172 173 169 171 173 172 171 165 165 167 167 167 161 160 154 150 145 135 129 122 110 103 92 67 41 34 26 12 13 16 12 16 19 22 16 15 16 12 13 12 8 10 8 8 7 11 5 
10 8 17 14 20 16 15 14 10 9 4 5 0 14 22 41 84 114 125 125 129 128 131 135 141 150 159 167 171 175 180 185 192 191 188 191 190 192 189 185 181 179 177 171 170 168 170 169 170 168 169 165 162 162 167 165 164 161 155 149 143 130 129 126 116 104 88 73 49 28 23 12 11 13 14 12 18 20 20 14 13 16 12 11 11 10 6 6 9 9 10 4 
9 11 14 17 18 15 13 11 8 7 5 2 1 15 24 40 83 115 130 129 126 129 132 134 139 144 153 163 169 176 177 182 188 190 190 190 191 189 191 190 186 187 184 181 177 172 173 168 168 166 168 167 167 169 169 163 161 155 149 140 132 129 130 121 108 93 74 57 37 18 13 9 10 10 12 15 17 15 17 11 12 15 10 11 8 6 5 4 10 9 7 4 
7 13 15 16 17 13 11 8 7 4 4 2 3 14 28 42 85 116 128 135 131 126 131 131 136 144 146 158 165 174 178 184 186 190 191 192 195 192 190 189 187 186 187 184 184 181 179 177 176 174 174 172 172 169 165 160 156 149 143 135 132 129 124 113 98 79 63 44 27 10 9 8 9 8 12 12 12 13 12 10 10 12 7 7 9 5 5 5 11 9 4 6 
16 11 14 13 11 11 9 8 7 5 3 1 12 17 32 52 89 115 129 134 137 131 129 132 135 137 144 152 160 166 174 182 187 193 193 195 198 198 197 198 194 190 190 191 190 190 190 189 187 184 181 178 172 168 164 157 156 148 141 135 129 125 118 106 88 73 52 37 17 10 7 5 7 8 10 10 6 9 8 7 9 9 7 8 6 6 6 5 9 4 6 14 
25 13 12 11 12 9 8 6 8 5 5 7 17 22 41 69 92 116 132 135 137 138 130 132 135 133 139 147 154 161 168 174 185 192 198 199 201 206 207 207 206 203 204 202 200 198 197 195 193 188 186 183 177 171 166 160 155 147 140 130 125 122 111 98 82 64 45 34 13 10 6 5 8 6 10 7 6 6 6 6 6 6 7 9 5 4 6 4 7 2 9 14 
20 13 16 10 10 10 9 8 12 8 8 17 23 32 53 79 96 121 130 138 137 139 137 132 134 134 133 141 148 157 163 167 177 186 192 199 200 207 210 210 210 209 208 205 204 203 201 197 194 190 187 183 175 171 164 156 152 144 130 127 124 116 103 91 71 59 39 30 14 7 6 3 3 3 7 4 3 5 5 5 6 4 6 8 2 4 5 2 9 0 12 14 
18 12 14 9 10 10 8 11 12 13 15 26 31 42 64 84 99 123 133 137 142 142 139 134 134 134 134 134 141 149 155 162 167 174 182 188 194 199 204 206 207 205 203 202 202 200 198 196 192 185 183 177 168 161 154 151 142 132 128 126 120 108 98 84 66 51 40 24 12 8 3 1 1 3 2 2 1 4 4 3 7 4 5 4 2 3 4 5 6 2 12 16 
15 16 13 9 13 7 10 13 16 16 24 34 37 53 73 90 103 121 136 139 140 146 141 136 134 134 134 133 134 139 149 154 161 166 169 176 182 186 194 196 198 196 196 198 197 195 193 189 183 178 173 167 158 152 148 141 133 125 128 120 113 104 95 79 63 47 38 20 15 10 0 2 0 2 0 3 2 3 3 3 6 4 5 3 2 4 4 6 3 6 13 21 
