P2
# Imagen
92 112
255
122 122 123 122 117 123 124 124 124 125 117 104 99 108 110 107 88 51 48 92 84 106 109 129 140 133 120 115 108 117 123 111 112 109 113 115 114 116 121 100 116 110 105 105 104 109 105 110 117 110 111 113 120 121 140 162 158 159 184 201 203 196 160 138 124 153 143 152 160 168 158 160 167 143 136 128 125 126 131 117 129 126 124 126 135 124 122 124 125 126 122 128 
125 120 119 124 116 123 125 122 127 120 123 101 107 100 97 92 44 15 73 103 115 121 141 151 134 118 118 122 113 128 125 115 116 115 115 122 117 117 129 108 126 118 122 107 113 120 120 118 122 127 119 106 109 116 104 116 153 127 149 157 181 197 194 187 175 175 152 144 116 144 164 162 163 164 151 123 122 127 123 123 124 132 117 128 128 129 125 125 127 121 123 130 
125 119 119 119 121 115 119 128 120 113 112 102 103 106 80 55 29 33 106 127 159 150 143 136 115 116 113 132 112 127 124 120 120 115 122 120 125 118 121 121 136 123 120 121 125 123 126 114 126 127 132 114 107 107 98 97 108 115 113 127 146 158 177 170 196 202 199 198 178 128 125 131 162 164 168 146 122 127 124 124 123 121 121 118 127 123 126 124 122 117 127 128 
110 116 115 104 108 112 117 124 117 103 103 103 97 83 61 69 75 77 125 153 163 144 123 116 118 119 107 128 117 127 123 121 117 118 117 126 126 119 120 124 131 126 120 125 126 122 123 121 126 123 127 134 128 100 119 117 110 117 107 100 108 143 143 153 147 181 190 200 212 199 184 141 111 120 160 164 162 138 132 126 126 126 125 129 117 131 128 126 129 127 123 130 
114 114 114 103 108 100 115 102 105 101 90 91 74 70 96 126 133 133 151 158 140 118 121 111 115 118 104 127 121 123 125 121 124 114 121 127 125 126 123 125 124 128 126 119 120 123 117 119 122 123 126 126 135 125 114 129 128 124 119 123 106 117 109 133 105 126 179 156 186 205 194 202 181 143 105 136 166 166 158 129 127 137 128 135 122 134 128 124 126 128 124 124 
115 117 117 110 116 102 100 87 66 39 40 58 94 122 163 176 170 164 158 137 111 110 119 122 115 114 114 119 136 118 125 124 123 119 118 126 125 129 133 120 120 136 139 119 118 117 118 126 119 124 125 130 129 137 130 125 131 124 123 110 130 115 126 129 130 94 130 138 140 172 176 190 207 209 180 107 115 164 167 156 133 126 123 124 127 133 130 126 117 129 122 123 
116 111 108 111 112 98 69 44 27 21 51 73 109 159 172 165 154 150 130 109 108 116 127 118 115 115 115 128 139 123 119 122 117 124 118 127 129 120 128 131 134 118 161 118 124 126 109 112 124 121 129 119 127 143 124 121 134 134 115 115 110 131 117 128 134 135 130 135 91 138 166 144 191 198 208 196 130 108 147 168 157 126 127 120 122 128 120 125 130 120 126 124 
123 108 108 111 100 65 26 20 22 52 91 128 144 157 155 121 116 106 110 114 127 115 122 120 114 117 123 124 132 121 129 117 114 115 123 122 126 131 129 131 134 111 155 137 107 137 107 101 133 117 125 128 125 147 129 117 125 126 132 105 118 121 124 120 133 124 134 142 110 121 146 133 151 181 198 196 195 137 101 113 167 159 130 124 126 127 125 127 124 125 125 123 
112 102 104 98 57 24 22 31 55 93 135 157 142 141 107 102 99 119 116 117 121 124 116 113 116 119 130 128 135 117 125 118 118 109 111 127 130 122 151 128 132 128 132 151 110 131 125 102 111 123 112 138 114 142 130 128 103 106 149 114 120 122 109 134 127 134 126 141 106 113 141 130 134 173 177 188 191 186 164 116 79 149 155 138 135 131 130 124 125 124 127 121 
109 105 79 58 26 26 31 62 100 145 156 157 133 100 91 112 112 108 116 113 116 124 113 110 120 116 124 139 137 133 125 122 115 104 101 127 138 113 146 131 139 144 130 137 116 119 135 108 95 130 103 132 124 122 147 123 103 80 137 147 113 130 117 131 148 132 127 137 100 97 132 153 107 150 186 172 186 180 192 176 108 94 136 163 149 128 130 130 127 121 124 125 
112 85 46 25 27 38 61 102 137 154 148 121 106 104 114 111 120 106 118 113 117 111 116 118 109 121 116 133 146 133 116 125 112 103 95 122 139 116 135 133 135 147 138 137 124 110 124 115 89 133 111 117 146 107 145 133 102 83 117 148 127 121 109 121 144 128 137 115 108 96 126 128 117 140 147 160 162 197 171 203 183 136 81 129 175 144 133 132 122 129 121 122 
78 41 24 22 42 70 105 132 157 159 122 110 113 114 128 112 119 105 118 117 121 107 123 113 107 124 116 126 134 138 110 127 109 90 93 110 145 118 131 135 121 135 139 139 127 101 112 119 100 104 129 123 150 123 120 137 110 101 99 139 127 131 86 116 142 136 120 126 101 102 125 135 98 132 146 130 138 178 172 176 216 190 133 96 140 166 151 137 123 121 132 132 
42 19 24 36 60 93 125 154 138 140 127 113 117 121 121 117 122 116 118 120 117 120 130 120 102 127 119 126 134 127 109 116 112 94 93 106 138 123 127 142 123 118 144 114 140 110 109 111 113 87 122 124 148 132 117 130 110 111 93 129 125 122 99 112 143 131 120 141 109 99 122 150 104 108 148 154 105 142 170 170 204 211 178 133 95 155 172 161 134 122 128 124 
29 33 33 60 94 134 140 150 121 126 126 123 118 117 126 113 115 128 116 116 133 114 132 130 108 137 114 123 138 132 112 120 119 106 108 101 131 130 140 129 135 115 126 108 133 109 114 101 119 93 118 117 150 109 123 126 138 84 105 116 135 125 120 109 140 124 122 164 128 100 114 145 131 107 122 167 134 110 136 179 187 209 208 186 92 134 164 154 156 136 124 124 
44 32 38 71 106 141 162 136 116 129 123 124 117 114 115 116 110 111 123 115 133 115 125 130 131 132 122 118 137 152 109 117 124 113 122 117 120 144 123 140 121 122 119 116 132 122 107 123 124 96 116 117 141 99 113 124 137 113 90 121 135 130 136 106 114 119 129 146 159 110 108 145 138 116 105 134 151 127 113 160 181 176 232 228 153 101 162 155 160 161 131 126 
43 41 65 95 124 162 147 122 123 120 130 122 121 105 121 116 111 119 106 123 134 119 118 127 135 136 118 123 135 163 124 113 123 107 130 120 112 143 117 130 127 127 120 125 120 151 110 124 136 105 134 111 131 113 116 124 126 141 101 103 140 131 138 128 91 114 126 123 152 120 113 129 145 109 124 107 141 131 132 111 176 170 223 239 208 117 126 163 154 169 147 127 
37 58 95 98 154 166 114 122 125 112 118 113 115 108 109 112 115 123 108 122 119 119 119 121 123 137 134 126 130 163 124 115 117 109 129 125 108 126 123 130 113 117 116 141 119 144 130 115 121 121 128 105 128 125 111 132 115 138 122 107 115 143 125 138 94 98 119 115 133 141 108 123 133 114 128 107 115 125 122 122 138 198 180 231 220 157 95 140 157 156 163 138 
36 84 99 129 163 144 113 127 127 116 117 113 111 111 110 108 114 121 99 128 106 120 110 124 108 133 136 119 121 151 121 122 119 113 126 122 113 130 119 132 114 105 121 136 125 124 154 127 114 121 115 106 113 134 105 114 126 124 143 118 87 137 126 145 111 92 134 105 114 146 102 107 119 131 115 118 114 105 128 136 121 167 159 209 216 195 114 108 154 163 156 158 
42 92 121 155 154 120 112 124 120 119 120 111 107 118 117 118 121 120 102 121 104 118 104 119 113 136 134 115 122 138 124 119 134 130 126 114 115 137 120 126 117 98 111 138 120 115 158 143 112 118 93 112 99 141 105 119 117 114 136 125 90 116 119 145 135 92 140 111 115 131 127 105 117 126 125 104 107 119 147 120 108 134 156 161 212 218 146 87 137 155 161 165 
77 119 139 169 131 105 109 119 125 117 125 111 114 132 120 117 130 107 117 117 122 112 107 131 111 124 127 119 122 123 120 123 123 132 132 112 121 129 128 129 117 110 104 140 117 115 142 137 111 116 91 105 86 130 118 99 121 110 145 129 105 114 125 125 147 105 143 136 103 148 131 114 106 124 121 97 123 138 137 114 109 124 138 167 212 226 197 106 96 145 157 151 
108 136 164 157 133 114 124 128 117 115 124 132 121 117 128 124 125 133 108 124 124 116 102 121 116 120 121 109 124 113 122 116 125 132 120 122 113 128 131 127 129 114 103 121 113 115 140 140 115 119 107 110 89 115 122 94 113 126 117 136 112 138 121 122 131 114 143 149 101 148 132 126 107 123 113 112 149 152 135 127 117 130 134 162 184 233 225 151 84 135 143 153 
122 144 168 131 125 125 127 117 117 113 117 130 130 118 135 128 146 133 131 117 122 123 114 110 114 123 115 112 120 127 112 115 117 118 121 121 118 123 139 117 131 118 108 115 118 115 131 150 119 108 124 114 115 97 131 95 107 138 108 130 120 133 130 125 128 110 139 144 95 144 145 125 117 125 120 132 145 146 135 134 123 139 142 155 181 203 246 202 101 125 151 159 
137 167 165 109 130 129 130 114 125 118 117 133 135 119 135 130 142 127 121 129 112 114 120 113 110 120 122 108 121 131 114 119 111 122 123 119 122 134 126 133 122 125 106 117 125 118 141 148 138 115 134 138 132 111 134 111 119 145 131 124 128 136 139 131 130 137 120 144 111 117 132 134 114 131 133 129 138 124 120 125 127 129 130 147 179 180 242 216 143 123 154 158 
140 178 148 116 106 137 137 123 129 118 127 139 144 123 124 136 134 130 106 127 114 109 120 117 115 118 123 116 127 148 126 123 128 125 139 130 123 140 127 124 118 129 119 128 122 119 136 162 146 144 159 142 144 141 136 139 133 151 149 144 153 136 155 129 153 169 122 152 116 119 137 128 128 133 141 131 133 108 120 113 115 126 105 134 159 164 230 221 161 120 152 154 
158 167 119 125 103 123 150 149 121 126 139 142 140 123 123 131 125 124 100 124 111 104 110 117 131 116 139 145 144 150 150 141 140 141 128 145 142 153 132 113 98 126 144 126 142 123 135 155 159 165 172 165 157 177 141 176 144 171 182 157 162 139 177 148 161 169 151 160 127 127 139 127 133 115 132 137 126 119 122 113 120 131 104 128 140 168 195 224 178 119 154 151 
163 156 118 107 133 108 132 154 137 128 145 127 125 105 119 106 103 110 102 119 122 106 127 124 127 129 121 161 151 144 136 156 133 135 122 142 141 137 101 111 79 95 104 124 119 111 128 138 140 155 163 162 134 174 129 172 152 176 163 155 153 141 160 141 161 159 152 136 129 122 142 134 127 111 132 132 142 131 128 127 125 131 122 133 115 166 187 235 186 141 139 179 
157 131 123 124 121 121 112 139 148 144 142 126 124 104 86 103 89 81 110 107 121 119 138 146 141 161 120 141 163 139 114 132 120 127 104 117 114 96 96 81 91 68 75 113 105 116 122 125 129 119 149 146 130 136 127 157 141 154 141 121 119 129 121 111 113 120 120 106 119 132 153 136 123 103 118 133 129 131 125 122 134 120 117 137 124 153 172 215 186 159 126 172 
156 131 120 126 116 127 130 140 144 142 130 135 124 104 73 85 102 96 95 113 112 119 130 153 147 172 150 118 135 135 114 96 103 101 88 89 77 60 87 78 78 58 74 93 90 90 111 120 103 115 111 121 115 118 113 124 127 131 127 93 105 125 83 95 75 87 84 89 110 107 131 124 122 106 105 117 118 134 129 115 128 132 117 134 112 136 169 203 197 162 116 155 
144 129 127 129 123 123 145 137 124 133 127 127 109 101 105 97 92 98 98 104 114 114 141 150 159 145 154 144 117 143 102 86 81 94 89 93 65 49 56 65 60 62 76 58 87 76 114 118 105 108 101 111 112 124 112 97 116 119 113 89 97 129 102 81 73 84 72 85 105 115 108 113 111 110 102 107 117 118 117 116 125 140 138 125 122 121 159 199 231 171 122 130 
144 140 116 126 135 129 126 132 120 127 129 117 111 118 123 110 103 109 116 99 110 123 146 167 163 165 152 154 120 128 94 97 92 97 89 103 83 64 67 85 70 92 76 93 108 91 125 131 137 135 124 128 132 120 130 120 101 120 113 105 110 125 121 96 75 90 82 98 98 123 101 115 108 123 109 92 111 115 126 114 116 147 150 130 120 133 152 183 233 189 125 121 
131 131 114 126 130 124 124 135 139 129 123 119 131 133 129 111 126 124 128 111 115 115 132 144 148 169 165 131 120 95 100 98 102 101 113 112 112 90 83 107 103 119 107 108 138 113 137 136 138 157 142 142 151 124 130 143 134 124 125 123 141 136 130 110 95 119 115 115 108 117 112 111 122 125 112 93 102 115 127 127 117 131 144 139 135 123 161 177 217 201 123 119 
116 136 127 136 140 123 135 135 127 147 106 119 143 141 131 109 111 130 130 122 103 123 143 156 150 161 160 129 100 108 94 79 105 113 126 132 129 122 112 106 127 114 117 119 140 131 145 141 132 160 150 140 153 149 152 137 154 142 120 129 124 136 129 112 113 117 138 126 120 131 126 122 128 114 115 102 102 118 133 144 125 116 140 127 146 147 158 173 221 188 150 106 
126 133 132 139 142 147 139 121 122 127 112 128 132 132 127 110 119 140 124 114 108 123 146 162 145 148 149 136 103 117 103 71 78 91 114 109 129 131 119 113 107 99 116 126 121 137 137 135 128 145 144 133 151 150 155 152 146 158 143 134 127 128 131 115 126 122 124 127 134 145 150 152 145 126 126 108 124 103 120 131 132 119 123 125 124 148 174 165 216 198 157 120 
131 129 143 138 146 145 144 121 119 120 127 120 122 129 124 126 141 123 112 115 124 139 154 165 147 143 140 144 99 91 98 74 82 80 111 104 115 142 113 114 108 101 116 124 116 141 148 127 131 136 138 127 144 149 152 150 157 150 148 130 130 121 127 120 120 120 120 124 126 139 152 172 153 135 135 120 116 108 105 108 126 130 121 128 116 124 163 168 219 213 156 122 
135 127 140 127 138 142 137 127 122 125 130 118 133 122 130 141 122 125 112 109 141 140 151 171 147 134 149 137 114 101 93 88 105 96 106 112 111 131 129 121 108 108 109 119 118 127 156 141 127 138 135 127 131 136 142 137 148 146 141 135 125 128 117 125 116 107 116 124 123 131 148 162 166 147 137 128 122 99 107 103 109 122 113 128 117 111 127 162 209 220 151 124 
122 131 142 122 123 137 138 125 128 131 128 127 137 141 128 146 113 132 113 116 139 145 153 164 129 129 143 136 127 108 98 92 98 104 109 111 110 116 123 121 113 110 102 124 113 124 136 150 130 127 129 132 123 140 144 130 150 147 141 147 127 132 124 119 119 110 112 117 121 123 142 165 159 162 141 135 135 105 107 100 105 105 103 121 122 106 111 151 198 221 158 153 
122 117 146 135 113 130 130 128 129 134 138 130 144 157 146 155 121 115 113 118 132 145 159 144 133 126 135 132 119 106 105 86 92 107 111 111 107 114 121 112 111 115 98 122 117 117 127 129 135 133 128 129 132 138 147 131 141 147 144 146 135 131 128 118 115 120 111 118 113 115 132 148 156 161 154 145 145 125 112 105 103 107 96 115 123 104 93 151 185 204 174 157 
126 119 141 138 118 123 122 120 122 142 141 143 157 166 155 162 132 111 108 124 130 141 137 125 133 126 128 123 110 108 102 103 104 110 106 109 114 115 122 118 103 114 115 126 129 120 134 127 131 141 134 124 134 139 141 134 135 140 148 144 139 136 135 123 116 122 120 123 117 115 125 136 144 163 160 159 155 138 127 117 110 105 100 97 122 105 96 135 184 195 168 146 
109 126 140 146 119 122 112 112 122 150 148 152 169 169 170 170 123 107 107 121 133 128 111 122 121 120 122 121 113 110 104 111 107 117 115 117 118 123 123 122 109 116 119 121 134 122 137 128 120 147 136 126 130 140 136 133 136 137 142 142 143 144 135 134 122 126 123 131 115 119 125 126 138 152 162 163 158 155 144 121 125 100 108 97 115 117 109 119 185 179 169 124 
98 130 135 141 125 118 113 116 119 144 162 154 179 176 176 159 134 105 111 121 120 114 105 111 116 118 124 125 117 112 108 111 116 118 121 121 120 121 126 120 116 116 122 124 135 123 135 133 124 144 139 128 129 133 133 133 138 131 142 139 138 147 137 141 131 135 131 135 123 121 129 127 131 141 152 157 153 157 144 137 119 120 107 105 107 120 114 125 184 170 174 117 
98 121 138 130 129 110 117 122 123 149 167 159 184 181 172 150 130 111 111 126 117 108 105 108 108 119 131 129 122 117 117 118 116 123 127 125 124 120 128 122 117 120 124 124 129 125 123 134 131 139 135 132 126 129 128 139 136 129 138 134 134 134 144 145 142 148 137 133 133 136 127 133 124 133 143 146 150 144 153 143 138 118 114 104 109 120 125 106 178 196 158 119 
104 133 120 124 127 111 118 110 123 147 166 165 187 184 174 140 134 114 105 116 113 96 105 107 113 125 131 134 126 120 122 123 118 122 127 126 123 124 126 122 122 126 123 124 129 124 123 133 133 138 138 130 127 129 130 133 134 129 131 135 131 131 135 149 146 148 147 143 141 137 139 127 131 126 135 146 141 144 143 146 137 131 113 100 119 121 125 121 155 195 177 109 
109 131 134 114 124 113 125 105 130 150 165 171 180 183 177 135 131 112 109 112 112 102 97 115 120 136 138 138 137 131 129 134 128 130 132 124 125 125 132 126 120 127 128 127 131 130 128 131 130 135 133 129 129 131 134 136 136 133 124 133 140 132 133 155 151 157 154 152 157 154 141 137 134 122 127 145 138 133 140 145 143 137 108 92 113 127 130 112 148 206 175 132 
101 126 143 112 122 117 115 111 133 150 156 174 181 180 173 133 121 118 106 109 113 111 107 114 127 139 142 138 140 135 133 134 135 132 133 132 123 130 132 130 128 126 126 130 130 134 131 131 128 137 132 130 132 134 133 142 137 134 133 136 149 142 137 149 157 159 159 163 160 165 155 152 137 132 120 131 143 135 135 140 142 135 114 91 103 124 122 122 142 193 179 132 
108 117 149 120 127 118 108 103 131 153 162 167 183 175 176 137 113 115 113 110 118 108 114 123 128 135 139 137 138 138 138 136 140 135 134 133 125 131 135 133 134 128 131 130 132 135 135 131 126 133 133 129 138 135 135 139 142 134 140 142 152 149 146 147 160 160 170 166 168 168 162 162 150 140 121 126 144 140 138 135 135 134 110 95 106 122 124 122 147 182 185 147 
110 114 146 129 136 110 107 101 116 158 154 174 188 172 163 151 108 109 117 116 105 112 113 123 132 130 138 132 135 136 131 138 140 135 133 132 128 132 138 134 135 130 129 135 132 132 132 134 127 129 132 134 138 136 134 141 141 138 146 150 149 154 150 157 160 160 167 177 166 171 169 162 155 148 135 123 131 141 143 132 136 131 111 102 113 120 124 124 147 165 183 156 
110 112 138 143 128 119 107 101 113 152 151 170 186 167 150 155 118 106 115 112 111 110 118 117 117 123 129 128 131 131 127 136 137 133 131 129 129 134 136 136 136 131 132 134 129 134 132 133 132 132 134 132 136 135 135 141 141 139 138 144 150 150 152 156 153 155 160 175 170 164 168 160 159 140 140 130 130 134 146 141 131 125 110 102 124 118 121 129 166 148 171 180 
111 107 117 149 135 120 103 109 118 132 142 171 182 166 139 147 139 118 99 105 112 109 116 122 117 125 118 127 125 131 130 126 129 131 129 127 129 134 134 133 136 127 131 128 132 127 128 128 129 128 130 127 130 137 138 133 140 137 138 136 142 146 141 148 145 149 157 171 170 165 158 160 154 138 132 131 131 136 148 146 131 130 102 104 124 123 112 136 184 160 143 186 
108 110 114 138 142 122 102 112 127 138 139 168 183 158 135 129 128 129 96 93 108 110 119 127 123 120 122 122 126 131 129 128 127 128 128 125 130 130 130 132 134 129 126 130 127 127 126 126 126 123 130 124 128 131 134 134 135 132 136 133 137 141 137 136 142 142 147 158 164 167 159 148 149 136 126 128 125 140 139 144 138 126 108 113 114 125 112 137 180 159 130 162 
109 109 128 120 144 128 103 111 133 141 151 155 178 163 138 127 115 114 102 90 94 104 114 119 126 121 123 124 128 136 130 134 128 128 130 124 132 128 126 129 129 129 126 127 128 125 122 122 123 121 126 129 132 135 134 133 139 134 135 132 134 135 131 134 139 136 149 147 157 160 153 152 145 137 129 124 122 142 141 140 134 135 106 120 121 118 119 136 170 179 137 144 
111 104 126 133 131 123 121 120 144 152 158 164 164 151 133 123 98 92 88 92 85 90 113 108 114 130 123 127 132 134 136 133 130 124 128 129 132 128 128 122 129 128 130 127 126 121 121 124 123 123 124 131 129 132 132 133 135 132 134 134 129 124 118 130 134 127 141 142 142 145 144 139 133 132 130 119 125 138 145 149 138 137 102 120 126 114 111 150 162 178 158 133 
125 113 116 135 140 120 124 146 149 165 172 168 176 148 130 94 73 57 63 61 71 80 114 105 102 120 132 133 137 139 134 135 132 129 127 126 126 131 128 127 128 129 130 128 121 121 123 122 121 121 130 130 130 127 130 133 135 128 130 121 117 105 104 114 116 110 112 119 119 120 125 115 105 116 129 128 125 143 152 153 140 130 106 117 133 117 110 160 165 175 157 143 
122 117 113 129 133 133 134 168 170 179 180 180 185 131 85 63 45 36 33 21 45 69 95 99 86 97 114 114 120 127 125 126 130 121 119 122 119 126 130 128 132 128 131 127 123 123 124 120 117 120 122 124 130 125 124 126 118 108 95 92 80 75 66 73 73 82 83 83 93 89 87 90 73 74 112 123 114 143 165 157 133 123 100 127 131 126 109 159 186 174 156 146 
126 102 123 133 131 141 158 179 187 193 204 192 167 90 70 42 27 23 0 15 50 76 93 90 85 79 90 117 115 119 110 102 119 119 107 115 122 122 125 127 128 129 128 124 122 122 127 120 119 120 118 126 123 119 105 96 83 61 61 53 54 58 59 52 57 56 61 58 75 79 85 76 61 45 70 115 118 136 169 172 142 116 96 127 127 131 113 144 208 178 155 161 
117 110 122 140 133 145 163 186 187 199 205 165 114 76 75 50 18 1 21 66 79 89 102 100 92 102 104 126 128 122 123 127 145 136 128 132 156 154 151 149 141 141 137 130 126 126 123 125 124 126 127 133 122 101 85 76 66 61 49 52 58 70 77 71 77 89 82 81 95 111 122 125 109 74 50 70 125 143 172 188 167 117 81 128 129 132 124 129 216 179 145 161 
114 111 121 135 139 140 152 169 181 197 184 114 90 86 83 56 40 69 93 105 104 108 120 130 126 128 131 124 137 145 136 143 153 156 154 152 170 187 188 182 185 183 173 166 162 154 148 145 140 136 146 147 125 98 99 84 96 86 76 77 87 104 117 127 135 149 150 157 180 198 203 206 185 148 93 62 77 139 172 191 198 127 76 119 130 134 138 121 198 192 149 155 
110 110 117 126 152 150 146 169 178 171 137 96 88 85 79 71 122 142 154 138 142 135 154 152 154 145 129 136 147 152 151 162 167 167 175 172 200 217 227 231 210 213 203 196 183 168 172 157 151 145 143 137 104 110 103 107 128 131 134 119 132 147 177 202 221 227 243 243 255 245 243 240 217 218 169 111 59 92 158 182 198 159 80 103 126 136 143 137 173 195 163 156 
106 120 106 126 142 156 163 171 176 166 138 115 80 52 63 113 152 143 134 121 127 129 126 105 103 112 105 111 102 98 120 144 158 168 170 175 188 218 229 239 234 206 195 187 182 172 168 158 147 133 121 105 85 87 102 118 133 161 165 168 164 165 180 192 211 201 216 231 236 219 219 214 200 203 189 140 67 44 117 169 194 169 88 102 116 144 148 147 172 205 174 144 
118 116 106 123 143 153 174 181 167 178 150 121 66 49 95 153 162 129 125 111 118 110 112 89 80 82 68 59 60 61 74 108 124 138 144 151 154 165 185 197 199 181 152 149 150 144 137 133 125 95 87 68 60 75 104 111 134 136 159 168 160 158 162 148 149 134 127 135 136 132 139 139 134 142 155 142 78 24 80 151 186 169 89 102 117 142 146 150 181 191 185 139 
110 116 111 121 148 154 181 179 174 191 155 110 53 71 111 143 130 116 123 119 106 106 113 90 77 59 48 37 64 93 120 120 124 127 158 164 144 146 162 179 182 156 136 116 101 102 104 83 74 56 47 35 42 74 94 94 102 122 137 134 136 148 127 102 79 64 40 41 57 59 51 74 81 87 116 145 141 56 92 149 178 173 96 96 110 137 148 152 188 187 184 144 
105 119 119 117 141 161 176 178 183 205 147 87 42 54 98 123 121 91 84 100 104 122 109 70 61 31 101 64 69 113 149 156 162 134 163 191 184 155 147 180 183 163 137 114 97 88 94 70 60 36 41 55 66 90 101 110 122 136 143 117 121 156 159 114 62 67 37 24 13 39 72 73 103 112 130 152 183 105 96 152 194 180 95 101 108 123 139 165 178 178 190 156 
122 112 123 129 144 162 176 176 198 209 136 69 29 37 82 116 101 75 58 117 166 184 128 83 79 22 97 148 85 127 241 195 189 183 184 207 238 200 173 193 214 196 159 145 113 103 95 82 59 39 65 89 111 131 134 131 153 201 179 144 146 186 239 125 99 93 151 109 84 52 84 135 124 135 134 139 173 132 101 146 192 193 92 92 118 130 126 159 171 173 191 170 
129 134 122 126 139 160 173 169 208 212 132 77 30 25 78 98 64 77 97 142 183 216 166 100 65 30 20 106 102 141 231 209 186 132 155 224 216 220 196 206 226 199 186 167 139 106 99 83 57 58 90 111 127 128 123 133 180 212 170 144 152 139 164 117 123 131 190 188 147 86 78 122 156 136 124 141 148 129 102 142 189 200 103 84 119 130 141 149 151 172 179 182 
143 137 120 111 127 163 164 172 213 220 140 89 65 30 54 90 63 61 114 140 170 249 225 113 78 33 34 72 92 138 205 180 168 117 108 213 240 214 206 199 216 180 171 157 121 100 95 85 53 57 97 138 154 132 129 149 191 204 164 151 153 100 112 108 111 142 180 180 179 140 88 118 143 139 129 151 148 111 103 138 186 206 119 88 112 128 134 157 150 165 147 187 
145 128 116 109 132 161 165 167 224 220 161 119 86 65 52 87 75 50 67 104 136 201 214 141 87 47 41 87 129 148 144 167 111 62 131 188 216 208 193 182 199 173 153 136 91 80 95 83 59 53 108 151 170 138 144 144 141 137 156 196 152 110 118 92 118 167 112 104 153 146 97 128 137 124 125 142 148 131 112 140 176 210 117 91 121 118 130 155 144 183 159 150 
143 114 108 130 138 159 171 168 220 209 163 139 114 93 84 80 76 43 61 85 106 152 148 116 93 74 57 66 115 158 159 131 86 68 99 161 180 156 179 160 178 188 142 99 85 68 86 81 59 66 109 155 171 126 167 202 154 118 107 210 199 147 113 141 144 105 44 48 121 170 153 134 173 147 136 132 123 132 126 142 171 205 124 101 113 111 125 154 137 164 182 176 
153 93 123 138 138 163 172 168 210 205 157 136 117 108 106 104 104 76 69 77 107 139 150 99 62 44 63 89 108 96 102 91 91 114 111 127 148 106 123 131 177 207 160 89 51 62 79 84 69 55 125 145 161 101 135 176 147 122 110 184 192 166 127 108 138 82 54 75 126 150 154 135 167 187 166 139 118 105 124 147 165 204 129 93 104 110 132 156 134 159 193 155 
156 98 128 149 124 153 169 152 204 205 158 135 114 101 109 103 104 93 88 85 92 113 130 136 103 79 80 108 98 84 73 87 120 164 164 142 140 133 124 114 173 192 168 117 78 48 62 78 61 49 106 135 158 136 132 136 123 108 111 197 181 170 118 98 106 102 78 94 123 140 134 156 187 194 156 125 93 101 110 142 179 192 126 88 104 98 128 151 132 153 195 148 
155 108 126 147 126 148 151 140 193 205 153 136 105 101 106 107 112 109 97 103 107 107 116 129 110 105 105 108 104 95 79 103 134 165 179 143 123 110 111 141 174 177 159 116 93 85 78 75 76 71 107 131 153 153 154 143 126 98 126 173 161 154 128 121 106 109 104 106 132 145 149 161 162 161 138 100 87 103 112 136 171 185 114 75 118 94 103 147 143 151 181 141 
157 133 117 163 131 110 146 133 190 196 159 132 102 102 103 110 113 104 101 103 100 109 120 119 122 123 126 126 133 131 121 132 147 171 169 169 142 118 135 155 158 150 126 105 80 88 91 88 70 94 120 141 145 146 157 165 163 132 129 151 116 112 104 112 135 134 138 135 148 147 146 132 119 130 121 96 88 107 106 143 164 169 100 56 128 94 85 135 153 167 179 163 
160 158 108 166 124 80 146 131 162 194 160 128 105 99 105 105 117 114 109 107 109 113 122 123 123 129 139 137 146 147 151 163 169 153 130 119 110 108 119 128 139 138 116 101 83 80 94 83 70 94 124 143 150 141 147 147 151 144 144 161 139 127 122 112 140 143 150 154 160 155 145 139 131 138 137 103 96 102 114 154 163 141 86 42 136 113 75 119 176 171 170 177 
147 167 146 159 108 77 113 129 144 184 162 132 101 95 103 115 116 122 116 112 109 118 116 110 107 113 116 121 130 146 152 151 150 142 120 118 107 102 109 113 120 131 116 105 91 92 105 97 91 109 123 140 147 147 139 140 145 141 153 171 155 142 141 137 133 144 157 170 184 174 161 152 146 140 135 101 102 108 114 152 153 115 73 58 145 113 73 117 181 182 165 169 
135 159 165 178 116 61 68 125 129 175 172 133 101 90 95 111 117 125 124 129 130 135 132 118 114 124 123 129 135 146 137 138 125 120 107 100 96 100 104 104 116 115 108 111 105 99 115 104 103 135 133 130 129 127 131 123 125 130 136 162 161 134 144 151 156 151 147 159 167 166 160 150 141 144 122 108 110 102 125 148 136 95 81 75 118 112 94 117 172 176 167 154 
120 145 167 191 119 75 43 115 114 160 175 146 108 90 94 107 116 120 128 128 134 142 132 121 121 124 125 123 132 135 131 128 119 114 104 96 99 101 109 105 115 109 99 107 101 107 111 101 109 142 155 140 139 128 122 110 116 117 119 143 144 115 120 135 140 140 138 128 132 133 132 132 133 137 118 103 110 96 127 164 107 114 108 80 95 93 102 137 152 157 174 158 
109 129 174 208 123 89 29 101 123 143 175 156 121 94 100 110 116 124 124 129 134 143 132 122 120 127 122 125 128 128 132 124 122 112 106 106 100 107 110 109 116 119 98 104 102 94 96 97 105 140 154 149 150 135 124 113 111 113 117 140 140 112 110 115 120 130 128 122 120 123 118 124 133 137 124 121 111 111 152 144 84 138 110 83 91 81 112 157 137 140 188 166 
94 117 176 209 137 80 26 99 126 140 158 164 132 99 104 112 116 122 119 129 137 137 130 122 125 121 123 125 126 128 128 126 124 117 112 106 105 111 112 122 127 119 105 104 101 92 94 92 109 135 145 141 149 150 146 139 132 129 138 156 146 123 114 112 114 110 120 122 122 132 132 134 143 142 123 129 113 119 175 108 91 145 110 96 88 69 129 163 139 127 188 173 
90 102 179 220 145 89 31 79 125 135 145 169 152 101 107 115 114 121 122 131 143 134 125 119 120 119 121 122 127 131 129 124 127 117 105 106 107 114 120 126 133 121 106 103 99 95 91 96 111 130 140 129 136 146 154 146 144 147 152 159 160 129 120 112 108 113 111 120 123 132 134 137 141 134 118 129 119 135 149 68 100 141 113 106 59 74 130 159 139 140 161 188 
88 79 173 230 180 116 67 62 108 108 142 166 163 117 107 118 114 119 121 137 141 127 125 119 116 120 122 123 126 126 123 117 124 115 94 110 125 118 130 137 139 124 109 101 102 92 90 97 115 121 132 127 124 133 149 148 149 151 156 166 159 140 124 119 107 108 112 118 126 129 132 134 135 121 118 124 129 131 121 46 116 133 125 93 40 73 145 145 141 164 137 181 
91 74 142 226 219 145 91 96 90 99 128 156 165 123 109 118 124 114 120 134 131 120 119 119 118 118 120 115 120 124 123 118 121 111 110 138 158 138 127 144 143 129 115 112 103 95 81 93 113 117 132 142 121 129 151 147 157 152 161 164 163 140 136 123 115 107 118 119 125 127 121 134 126 113 129 126 133 139 90 65 139 142 137 66 41 92 140 152 127 159 163 143 
94 91 101 183 221 183 117 117 104 111 117 152 156 138 111 125 126 116 125 132 123 116 115 117 116 115 117 113 118 120 116 123 126 113 141 168 179 146 136 143 152 139 120 117 110 81 74 89 104 120 131 158 133 131 158 154 158 157 165 166 158 146 141 130 124 116 122 120 123 123 121 131 117 116 138 125 131 133 65 83 141 152 121 59 70 104 132 151 129 136 177 165 
101 89 111 119 172 184 129 143 132 139 149 151 161 141 117 127 126 120 123 122 118 113 111 113 114 112 113 111 108 107 108 127 139 127 154 179 192 153 144 144 155 145 123 109 104 78 65 72 86 110 130 153 139 131 163 159 158 152 167 166 162 145 140 133 130 130 118 125 126 120 125 130 109 118 134 129 137 102 47 100 130 120 83 98 86 112 125 139 136 117 169 178 
102 94 116 129 128 124 116 134 161 164 207 154 160 146 120 125 131 128 123 116 111 112 111 107 105 110 109 104 100 103 116 141 154 133 140 169 178 149 146 152 157 143 121 97 98 81 57 53 72 97 116 130 122 130 169 166 159 155 157 160 161 152 137 133 134 133 125 124 130 124 125 124 104 127 134 134 126 74 75 108 94 73 96 120 112 104 129 132 134 127 147 162 
98 101 117 126 146 100 92 132 122 182 236 180 152 148 124 129 133 134 127 114 111 105 108 102 102 102 105 102 102 99 134 161 158 155 134 131 141 132 135 157 156 133 116 91 99 89 64 40 47 68 90 90 97 133 172 167 162 155 152 163 157 156 135 133 133 133 127 129 125 122 126 114 120 133 140 127 109 90 118 82 65 88 119 140 125 111 122 134 124 135 142 163 
100 97 121 124 146 113 75 144 127 152 221 184 143 138 130 126 134 137 136 115 111 103 105 102 98 92 89 99 108 119 151 171 177 157 162 147 108 109 139 134 149 127 102 83 84 96 73 31 29 37 43 50 94 144 162 164 164 159 161 162 159 153 148 135 134 137 127 132 127 123 124 108 130 135 131 112 101 148 144 91 90 98 133 131 135 121 118 131 128 125 142 150 
109 96 113 129 135 120 80 130 139 165 226 161 108 120 123 125 139 139 138 112 109 101 88 97 90 93 94 99 124 152 167 177 187 171 169 166 128 108 146 154 135 121 98 83 70 76 67 38 49 55 70 98 129 147 158 158 160 170 174 170 161 155 160 142 137 133 134 130 125 124 121 114 126 126 102 91 135 189 175 111 96 101 136 129 137 125 120 136 130 125 138 153 
107 102 118 124 135 128 94 115 154 153 229 181 95 84 111 129 144 137 127 123 113 99 93 89 95 97 103 118 157 188 216 198 176 173 168 164 143 121 118 137 120 101 79 69 58 56 44 32 69 113 137 157 163 167 162 170 183 190 183 173 165 163 153 143 143 142 141 131 128 125 120 117 107 94 94 122 180 206 176 112 104 105 134 138 128 131 126 129 133 130 127 165 
102 103 124 136 126 129 99 105 160 152 229 204 107 70 93 123 136 137 130 119 124 112 95 95 97 102 128 165 202 220 226 210 167 151 145 142 140 121 113 108 112 78 62 57 57 71 77 77 102 145 167 166 177 178 179 182 198 196 185 169 163 158 152 137 135 144 145 130 129 118 115 114 77 85 112 138 185 207 163 103 98 109 131 141 124 122 133 131 129 135 118 157 
92 105 127 140 122 118 116 107 158 146 227 212 121 73 72 108 124 128 129 117 109 118 115 112 115 138 172 205 215 214 205 197 171 133 118 116 103 93 94 96 82 54 46 54 74 105 119 124 142 142 140 145 167 171 166 178 185 191 186 158 155 149 132 127 133 145 140 136 127 118 121 105 77 97 119 152 191 207 141 106 94 111 138 134 129 125 126 130 126 141 120 128 
95 103 133 134 118 118 128 101 149 140 217 225 140 73 60 92 119 128 125 117 106 112 114 125 136 167 195 210 203 197 195 178 154 124 110 102 82 81 68 70 64 58 62 86 115 133 133 157 167 166 152 141 135 137 135 147 159 167 169 156 149 131 111 121 136 135 137 135 132 119 125 100 81 112 127 165 197 190 119 111 97 116 135 133 128 126 122 133 128 138 128 122 
107 107 132 131 119 121 130 107 131 147 194 247 176 89 54 78 115 125 127 120 110 111 122 131 147 176 192 196 194 184 181 166 155 120 108 100 86 79 63 56 58 70 102 130 136 144 158 175 187 181 165 140 134 117 110 119 123 127 132 137 124 115 114 127 133 132 133 139 140 126 128 92 83 124 134 171 194 168 107 105 102 122 131 130 122 128 124 124 134 138 128 117 
114 108 133 124 117 121 145 127 88 146 176 247 211 109 62 78 114 127 126 122 107 113 121 140 149 149 168 184 184 176 169 162 148 130 112 102 92 85 76 69 73 86 126 149 148 157 182 182 187 180 162 145 118 105 101 97 96 101 101 111 113 114 123 133 137 137 134 145 143 131 120 90 95 127 140 177 192 148 97 107 106 119 131 127 122 131 128 128 126 145 130 124 
121 104 123 119 119 134 148 116 75 125 178 236 243 133 82 76 110 119 129 127 118 121 116 126 120 120 154 164 173 172 167 149 145 133 121 104 92 88 76 84 88 102 126 151 158 162 183 178 170 172 158 148 129 96 90 88 81 92 90 99 110 110 130 142 141 144 146 141 155 129 113 85 111 122 150 186 177 114 99 110 109 127 129 128 122 128 126 128 123 138 127 134 
117 105 118 122 122 150 128 112 78 100 173 227 247 173 98 89 114 123 130 128 132 123 107 100 80 91 126 119 140 167 182 167 159 154 134 121 113 95 81 89 92 113 119 132 153 151 160 154 146 150 153 139 123 103 79 89 92 87 91 97 110 121 131 140 147 145 147 142 144 128 101 89 110 131 159 186 149 104 105 103 120 124 128 123 121 130 123 123 128 135 125 132 
112 103 118 123 142 143 108 103 94 95 165 209 241 212 102 96 108 120 140 148 141 131 113 97 60 72 96 89 87 84 122 168 167 144 129 134 121 139 134 124 131 135 144 142 154 151 147 136 129 138 127 114 96 93 63 59 77 72 78 97 111 127 133 145 160 155 151 145 131 116 83 94 118 147 176 182 123 99 103 101 128 124 129 122 125 122 123 119 123 128 128 130 
110 108 127 136 143 126 99 93 116 111 133 188 233 242 132 97 108 98 126 153 158 140 135 120 112 123 99 75 96 88 75 101 125 120 109 119 103 113 129 134 133 141 152 148 134 143 145 125 117 118 112 102 89 81 69 56 111 132 138 140 143 143 144 158 163 151 146 138 128 83 77 94 124 162 186 146 111 105 100 109 127 123 132 119 129 125 123 122 124 124 124 117 
104 119 137 137 134 117 95 90 130 128 108 164 218 247 181 109 110 94 98 133 145 144 158 160 155 172 158 105 91 111 117 108 98 98 96 122 100 67 89 95 122 137 165 154 131 139 139 109 93 98 102 101 93 117 118 148 194 178 179 187 184 177 148 149 147 135 126 123 124 67 75 106 147 178 165 127 114 97 100 123 125 124 125 120 131 126 124 124 129 122 119 113 
109 129 140 142 130 106 88 113 135 125 126 115 182 236 194 148 108 105 94 103 128 125 157 174 179 188 187 150 123 110 107 157 148 134 124 124 129 112 98 72 65 81 91 123 119 113 126 99 89 86 107 142 170 177 195 193 199 187 205 204 186 172 122 120 118 106 104 117 106 63 84 121 167 174 140 122 118 92 107 127 120 121 127 120 128 130 126 128 133 129 110 121 
123 141 135 148 127 108 105 134 134 122 146 119 139 214 189 191 120 115 112 93 118 125 139 157 170 185 186 167 145 125 121 115 138 150 159 140 107 127 150 131 95 67 43 82 74 90 119 106 110 94 119 163 168 181 182 182 188 190 181 156 148 127 102 98 92 103 118 128 102 69 91 141 177 148 139 131 100 103 112 128 123 119 126 127 132 125 126 133 129 119 114 126 
129 148 146 139 118 110 118 138 118 126 144 154 114 170 184 196 158 119 120 117 116 131 141 146 148 155 161 152 135 110 113 102 83 97 128 126 98 105 134 150 165 153 135 124 70 66 83 115 128 131 148 152 147 153 149 142 151 149 129 110 112 100 90 100 113 124 141 139 96 80 112 151 159 133 137 120 97 116 122 123 126 120 131 128 131 129 126 140 135 114 123 127 
138 156 144 127 114 119 134 126 116 121 149 167 124 158 146 185 155 127 126 130 122 126 142 145 148 145 139 135 123 109 101 101 103 94 96 99 98 102 113 102 110 120 133 141 123 125 109 123 130 133 132 147 158 141 119 114 131 119 107 100 113 115 112 123 128 134 148 120 87 95 132 138 128 131 140 100 114 122 124 130 123 132 135 130 130 129 132 135 135 113 116 132 
141 148 133 119 115 143 129 115 116 126 146 161 139 161 128 151 155 119 127 135 137 129 146 145 149 137 131 138 130 122 115 91 91 107 113 110 115 104 99 90 89 92 108 121 124 128 129 137 150 160 161 157 143 120 107 119 129 129 122 123 124 129 131 131 132 138 132 105 87 111 124 114 135 132 116 118 124 122 128 135 122 139 128 138 133 129 131 140 126 120 117 132 
147 134 118 111 125 131 121 110 124 126 130 147 136 175 137 114 130 108 113 141 145 140 143 153 150 140 137 132 132 129 124 107 86 91 92 99 114 124 123 124 115 107 107 108 113 125 138 151 156 165 162 170 154 149 151 151 146 133 132 129 121 131 130 133 130 128 121 95 103 100 105 132 139 113 116 131 128 122 133 135 128 141 129 141 133 132 127 146 121 124 128 130 
133 127 107 100 108 116 107 128 118 121 135 139 125 185 149 126 91 91 103 124 145 149 153 141 149 152 140 133 122 138 125 121 107 99 84 80 84 95 110 114 122 108 106 116 119 131 140 149 141 138 143 149 155 161 160 151 136 134 130 130 129 134 131 127 123 109 100 86 102 90 108 152 128 107 130 136 133 130 138 127 137 135 133 139 129 124 132 138 127 124 133 129 
112 113 105 103 110 105 112 126 122 135 134 130 122 168 171 137 87 69 93 105 125 144 154 149 147 153 146 138 126 127 127 125 120 118 113 107 97 94 95 103 111 109 115 112 121 122 128 128 129 142 149 154 159 155 156 138 132 134 127 130 134 126 117 126 114 84 99 98 107 91 133 137 115 120 136 141 134 135 141 130 132 134 138 122 121 129 139 135 123 130 137 123 
102 99 93 107 108 100 114 118 128 153 128 136 130 178 169 161 77 68 90 78 103 121 144 148 142 148 148 140 137 126 122 130 129 128 129 138 128 121 118 118 122 120 127 127 128 134 141 143 155 165 170 165 166 155 142 135 129 133 137 130 121 111 120 122 103 89 124 134 120 125 131 115 126 131 138 135 129 135 143 128 131 131 129 120 118 133 135 134 118 131 143 112 
93 92 92 106 101 109 120 126 140 146 137 138 130 182 162 182 80 72 100 80 84 102 125 134 135 135 136 133 132 131 117 112 119 113 118 127 136 137 146 142 149 151 152 152 150 152 158 160 171 176 175 166 157 150 136 131 132 130 126 113 109 110 128 113 84 119 146 144 139 128 115 123 129 131 136 126 132 139 136 127 128 126 122 118 128 139 138 127 120 139 135 118 
92 89 97 104 98 107 128 123 139 143 139 135 135 177 160 174 95 73 103 92 79 87 98 117 125 132 132 123 118 120 123 115 110 110 107 118 117 134 140 150 154 156 166 163 159 167 174 168 168 165 163 149 145 138 129 122 120 125 118 105 122 122 121 99 95 137 147 150 145 105 115 130 125 131 127 124 128 131 125 124 123 122 116 119 140 150 133 125 123 137 121 127 
116 97 93 104 108 116 113 126 135 139 137 134 120 179 156 156 75 94 102 95 90 77 90 101 121 119 132 129 116 111 112 116 114 112 110 109 109 111 121 133 134 145 151 158 155 164 166 166 163 162 156 145 144 129 127 120 128 124 114 125 124 125 110 97 117 155 163 147 120 103 122 125 124 127 124 125 127 121 129 122 126 116 116 129 149 139 126 128 126 127 130 137 
125 109 105 111 124 122 117 123 130 137 138 132 124 168 141 124 76 96 113 106 92 83 76 99 109 118 126 133 123 110 109 114 118 115 110 115 117 117 116 118 120 125 128 136 139 147 150 154 163 158 160 155 151 134 134 130 122 123 125 129 130 119 105 109 140 168 155 124 116 117 117 121 126 126 124 127 125 127 120 126 124 115 126 140 141 129 129 129 125 136 138 153 
115 118 120 112 122 121 120 123 134 135 141 131 123 147 135 108 94 94 126 107 98 92 81 83 105 110 119 132 124 121 108 115 119 114 113 112 118 123 125 125 124 131 125 127 134 143 144 148 150 158 151 152 135 130 130 124 122 126 134 130 124 116 105 132 163 159 127 115 121 117 121 121 130 124 126 126 127 122 124 125 118 123 132 140 131 128 132 134 139 136 150 167 
112 122 125 109 120 115 124 130 127 139 148 116 97 140 130 107 98 103 114 118 110 100 92 74 86 108 121 124 126 125 115 117 119 111 110 100 106 115 123 122 127 131 129 136 140 145 139 143 144 145 141 132 117 119 117 122 121 137 133 125 132 115 103 148 157 134 112 121 106 125 121 123 126 126 125 124 124 126 122 122 129 127 132 134 124 137 139 145 136 143 158 171 
111 136 124 120 112 115 121 130 134 145 142 101 88 137 135 96 103 109 112 117 118 104 106 92 80 96 116 129 129 135 116 111 114 109 110 100 98 106 114 124 127 133 128 144 143 144 144 137 142 144 127 115 110 117 108 120 136 135 130 133 129 120 104 138 141 123 115 106 108 121 130 116 127 120 128 129 126 123 125 131 128 127 127 131 133 144 145 140 142 150 167 160 
