P2
# Imagen
92 112
255
154 148 151 154 154 156 153 156 155 154 140 132 123 132 130 116 109 94 111 105 95 111 100 81 56 41 37 36 39 22 22 25 28 24 28 26 25 26 31 32 25 34 35 34 29 34 32 28 32 32 36 34 37 41 43 44 49 52 49 55 56 66 83 113 87 100 128 130 130 129 132 131 131 144 147 150 150 147 147 150 149 151 149 152 147 150 149 151 149 149 148 148 
153 150 146 154 149 153 153 156 156 150 143 129 126 121 117 110 99 81 105 109 109 106 77 55 45 31 29 23 27 22 17 20 22 20 20 21 17 21 27 25 19 23 27 25 23 18 24 18 16 21 30 31 37 36 38 42 44 38 37 43 50 54 59 65 78 83 95 119 123 124 130 130 133 131 139 150 150 148 148 151 147 146 148 147 148 149 146 151 149 147 149 147 
145 149 143 141 153 144 148 154 150 142 123 123 122 115 115 103 90 86 101 110 96 73 54 43 36 28 27 21 13 20 18 18 20 23 16 17 13 22 22 18 15 20 19 22 19 14 20 20 16 18 21 33 32 37 37 32 40 39 37 34 42 35 50 46 50 57 71 81 98 118 124 126 128 129 128 140 144 149 147 147 149 146 147 147 149 149 148 151 148 148 151 150 
143 140 141 129 139 144 147 144 132 115 112 112 120 118 118 110 105 93 91 80 64 50 39 35 25 20 26 25 16 18 21 12 20 21 18 15 15 17 24 18 16 21 17 18 19 19 18 23 22 18 15 22 28 26 25 28 19 28 31 40 39 39 30 42 38 39 48 58 81 75 98 122 124 123 126 132 133 138 144 147 151 147 150 147 148 149 146 151 147 150 146 149 
150 142 138 132 121 130 132 118 108 115 112 116 126 125 120 98 81 69 67 58 52 44 27 27 23 18 25 22 23 18 24 13 19 20 18 13 15 15 23 22 16 21 18 21 22 17 31 16 22 23 21 10 28 28 16 22 22 14 17 31 28 36 35 38 39 38 38 39 58 73 68 82 116 123 120 129 130 129 135 147 147 147 148 149 145 147 147 151 145 148 147 146 
150 144 140 136 134 123 111 114 102 99 103 118 127 109 88 67 61 55 55 46 41 34 17 25 22 21 25 14 27 15 25 21 17 20 17 12 19 20 23 29 17 23 19 22 28 7 34 23 15 28 28 13 23 35 21 25 24 24 16 16 36 17 30 24 33 38 35 43 43 51 54 59 78 105 115 124 126 128 124 125 144 144 146 145 145 144 150 149 146 151 148 147 
150 141 134 135 131 120 109 107 101 100 114 109 100 72 60 48 51 51 44 39 31 27 16 25 22 27 20 19 27 17 16 27 16 23 24 16 18 19 23 32 25 21 27 26 26 18 21 41 21 24 26 25 14 29 31 25 31 23 30 16 21 30 19 19 20 26 36 25 52 43 51 35 56 85 94 110 128 128 126 128 130 147 146 146 144 144 150 151 147 148 146 146 
142 140 136 130 117 111 103 105 103 117 111 92 70 53 47 47 47 45 36 24 31 22 24 20 21 23 19 21 24 16 12 28 28 21 33 23 16 23 17 31 29 23 23 29 29 26 17 44 35 24 26 35 21 22 34 26 37 32 31 33 19 24 28 16 24 19 38 24 44 50 33 32 27 62 84 90 105 128 117 124 130 135 141 150 143 138 147 149 148 149 146 148 
137 126 124 114 106 102 101 111 115 107 85 59 56 51 40 43 43 32 30 22 37 21 30 25 20 22 25 23 29 16 16 25 31 22 39 25 17 27 21 21 35 34 20 38 32 36 21 38 43 34 23 29 38 22 28 26 41 41 42 37 31 20 35 18 33 18 28 30 35 50 44 28 14 32 56 74 94 107 121 113 119 122 135 143 140 142 142 146 148 149 150 146 
127 120 111 106 103 103 109 119 114 86 59 52 50 49 43 32 27 31 26 30 36 20 27 26 21 26 23 25 32 30 16 27 31 30 45 31 18 32 30 18 30 43 26 38 50 35 33 29 47 39 28 25 35 32 23 29 28 47 40 45 37 32 38 36 23 38 18 32 33 46 39 38 30 25 30 41 70 95 99 112 119 116 127 129 130 140 143 146 145 146 147 145 
115 107 106 104 106 114 120 106 92 59 49 51 42 37 32 29 20 31 25 26 34 22 33 25 26 31 22 30 35 39 18 32 36 29 48 36 23 30 37 25 23 43 37 32 53 45 45 33 38 37 40 22 27 31 27 36 28 42 41 45 35 32 40 43 26 31 34 26 32 40 39 30 46 29 23 33 33 57 89 96 109 123 115 123 122 130 147 149 143 147 146 142 
104 107 99 101 126 126 108 84 59 52 43 31 27 27 30 30 21 35 29 26 32 27 30 24 29 33 23 28 37 42 21 36 44 31 45 39 26 35 41 29 27 43 47 36 52 53 53 47 39 41 42 38 20 30 33 34 46 29 44 46 34 28 39 36 37 20 45 24 33 44 37 32 37 46 25 19 42 32 52 79 95 111 120 114 123 129 133 143 143 149 147 147 
108 103 100 113 127 119 85 54 47 36 26 26 27 31 29 29 26 36 30 28 30 31 28 28 32 36 30 33 36 53 20 37 53 40 41 44 27 42 36 34 36 38 45 43 41 54 48 57 51 39 48 55 32 35 33 34 50 39 31 40 42 30 39 36 35 32 33 38 23 36 46 35 31 53 48 20 35 37 41 44 61 100 115 114 118 127 125 127 138 144 144 142 
102 104 103 124 123 105 64 41 30 27 23 28 36 30 30 25 30 33 39 31 32 37 33 27 38 33 34 31 38 45 26 39 58 41 48 38 34 42 36 37 44 43 42 51 43 50 46 57 59 47 38 61 47 33 40 37 47 52 25 33 50 42 46 41 30 35 32 41 38 24 43 33 35 41 57 35 30 33 31 48 33 74 92 124 112 126 129 128 127 141 144 144 
99 99 112 116 109 80 44 25 24 33 20 34 46 32 32 28 34 36 40 32 38 40 34 35 40 35 39 33 38 43 28 39 59 34 53 42 33 46 42 38 47 48 43 55 49 45 44 52 54 53 46 53 49 45 38 48 44 48 41 36 36 50 45 54 32 42 39 39 47 34 30 39 34 32 59 47 27 32 28 37 39 42 79 86 123 115 130 135 128 126 146 142 
99 109 124 117 98 48 29 28 27 29 27 31 45 35 35 35 37 41 37 38 35 38 38 38 37 38 45 33 45 44 30 41 57 36 54 44 34 48 47 44 48 45 50 53 54 44 48 54 46 57 46 60 47 57 40 49 42 44 51 47 35 43 47 50 51 34 46 43 45 48 28 39 30 40 39 51 37 33 33 31 45 41 59 69 102 113 119 128 127 123 134 142 
96 127 129 108 72 26 30 35 23 37 32 32 43 37 37 43 38 39 37 41 45 39 40 36 34 48 45 35 49 43 37 38 60 37 53 48 42 51 46 51 51 47 50 52 58 48 46 56 47 58 43 62 61 56 51 52 49 44 53 55 38 38 51 52 53 34 29 49 40 52 43 36 42 35 42 42 40 42 42 35 47 46 41 63 84 103 107 121 125 125 127 139 
108 140 123 78 43 29 30 35 34 35 44 32 43 43 33 50 41 37 38 37 42 44 39 43 34 50 47 33 51 43 44 44 56 49 54 46 48 54 45 52 54 46 51 55 57 52 48 60 47 59 55 55 64 69 52 52 50 45 55 57 46 41 57 52 53 49 23 43 45 47 47 40 50 40 46 40 48 42 36 39 48 47 41 57 80 99 98 114 121 133 127 131 
108 131 112 44 42 35 32 38 41 39 45 37 36 46 36 44 43 39 42 35 47 45 40 48 39 45 52 34 54 48 55 45 58 50 56 49 50 57 47 57 56 48 52 57 56 51 52 55 51 60 59 52 61 68 62 51 56 45 52 56 58 41 51 49 54 58 38 38 55 47 50 40 55 42 34 52 48 39 34 44 45 51 46 45 77 98 94 105 116 127 131 126 
115 109 92 37 33 43 34 38 39 43 41 39 36 45 43 43 45 38 47 46 50 46 45 48 40 42 51 35 52 53 52 54 52 51 57 46 49 54 46 62 52 53 47 58 56 50 46 54 52 46 66 55 54 62 66 47 59 50 52 53 65 50 47 46 51 58 50 39 54 47 50 41 54 54 26 57 42 35 40 47 41 53 52 31 53 77 99 91 111 117 131 123 
111 91 64 32 27 50 40 44 45 44 42 34 37 41 39 50 37 44 46 52 51 50 49 41 52 38 50 41 48 58 56 51 53 46 57 47 45 56 54 57 54 51 48 60 53 50 43 53 54 47 62 57 57 58 60 54 56 52 46 51 62 55 42 55 43 57 56 38 46 43 55 43 48 58 32 52 39 42 46 50 39 61 45 28 39 65 87 98 92 115 123 123 
100 71 33 35 28 49 44 43 43 43 40 30 43 43 49 52 45 48 48 49 57 55 55 42 55 47 51 47 51 59 52 57 52 52 52 53 48 53 52 55 54 51 53 58 56 54 44 52 56 53 54 64 55 59 57 59 58 56 43 56 51 59 47 54 48 47 56 47 43 41 49 49 40 58 45 42 42 41 56 54 48 65 45 33 38 59 62 95 95 111 124 122 
88 46 38 25 35 36 50 42 41 43 43 37 43 53 54 61 52 50 54 54 56 55 67 53 50 57 59 51 56 57 52 60 55 60 56 53 56 55 59 53 58 58 55 63 56 57 54 49 60 51 58 74 61 60 60 58 55 57 57 55 56 57 60 57 52 48 54 55 47 46 46 57 38 58 47 40 38 44 53 51 43 56 46 36 27 46 54 83 86 101 125 123 
77 37 33 33 26 37 41 48 43 43 49 41 53 59 55 62 63 52 56 69 65 56 73 59 58 58 66 62 59 67 56 64 55 71 65 61 61 62 65 65 68 68 66 69 68 62 64 69 66 66 71 78 73 67 65 62 60 58 62 64 65 64 68 67 60 60 55 57 57 53 45 57 47 60 51 47 48 46 48 35 33 47 47 29 27 29 55 69 86 83 112 118 
58 48 25 41 33 41 41 40 51 48 47 46 62 68 58 66 66 69 66 70 77 59 75 74 71 62 78 70 72 77 70 72 73 86 79 78 85 80 78 87 87 92 86 87 80 78 81 85 81 77 94 89 87 79 74 79 70 69 72 67 76 80 81 82 75 74 63 67 69 59 54 67 63 63 61 53 52 51 49 40 40 53 48 33 36 32 50 61 93 82 106 115 
47 39 44 29 45 40 42 41 49 54 51 56 67 76 65 75 64 85 81 69 80 79 76 83 89 79 84 95 86 90 87 83 90 114 114 107 107 101 103 96 100 111 112 108 92 94 99 95 98 90 101 114 100 98 99 92 92 92 83 80 90 96 89 93 94 88 78 78 82 69 63 71 72 67 63 53 51 48 50 49 48 45 49 39 43 31 45 66 89 91 97 111 
42 37 38 36 30 47 43 44 46 58 66 64 72 83 77 73 74 91 101 88 83 86 91 95 88 108 97 108 118 112 100 96 105 122 136 128 121 136 132 125 114 130 135 125 116 109 114 112 107 104 112 129 127 115 121 110 113 118 110 103 106 114 100 107 107 102 91 88 86 76 73 75 79 67 60 59 54 54 62 59 49 41 44 43 36 33 43 64 86 91 88 104 
37 44 35 37 38 45 52 43 46 61 63 66 81 86 91 92 81 95 92 102 102 97 102 106 94 111 117 124 129 137 140 136 118 133 137 138 132 138 160 153 138 141 145 131 134 126 132 133 121 123 128 143 135 138 134 135 128 139 131 130 130 128 123 125 121 122 109 111 102 94 77 83 83 74 66 66 62 51 53 50 50 43 38 36 35 28 43 53 87 92 87 98 
42 37 41 35 50 47 51 52 54 61 67 79 90 90 90 95 88 104 96 101 111 115 119 113 116 122 135 131 130 143 150 157 152 145 141 153 149 137 164 165 174 155 153 151 144 144 151 155 142 148 148 149 150 140 138 155 148 145 158 147 147 147 138 145 146 140 127 128 118 110 98 103 106 92 81 74 63 56 49 43 45 48 47 45 38 27 34 53 70 95 85 90 
45 37 46 43 44 53 48 55 56 67 67 84 90 95 88 93 102 109 106 106 108 118 127 128 133 139 139 148 142 159 162 172 180 170 153 175 167 160 173 174 192 186 172 175 169 160 174 174 169 158 164 163 165 156 158 162 168 155 173 168 178 173 161 164 164 162 146 139 136 131 117 111 117 105 94 78 70 57 50 43 46 44 44 44 42 32 29 46 63 94 89 89 
45 48 45 43 49 48 44 62 64 70 79 83 98 97 97 98 113 114 115 114 122 131 142 137 138 152 145 153 155 171 176 180 188 189 178 188 179 187 179 187 207 208 204 186 181 182 184 184 185 170 175 176 186 180 185 184 180 175 181 183 190 191 172 176 180 174 163 155 145 143 133 117 111 110 104 90 84 68 55 54 47 45 33 41 35 31 28 44 57 88 89 88 
45 49 40 45 48 44 52 62 64 75 83 92 95 101 108 101 118 119 118 129 132 138 147 133 144 155 159 162 172 178 182 180 191 200 196 194 193 197 196 199 215 223 219 212 209 209 202 204 204 203 196 200 194 204 201 195 192 192 190 191 200 190 186 186 181 182 174 156 152 144 135 119 107 107 106 97 91 80 65 62 51 48 35 37 34 29 26 38 53 80 83 78 
39 48 43 48 41 51 58 60 69 76 85 97 95 105 113 107 114 122 138 137 140 148 144 141 162 157 169 171 184 196 195 196 199 205 198 208 207 209 214 218 221 219 220 226 229 221 213 208 210 208 205 210 204 204 211 205 201 199 200 201 206 194 197 192 189 181 189 170 163 145 141 127 109 101 106 100 87 88 77 65 59 51 47 36 31 27 24 35 51 68 76 79 
34 54 41 41 48 52 54 61 75 82 93 95 101 109 116 113 109 133 147 140 150 151 149 151 169 167 172 179 196 194 200 203 209 210 205 215 215 209 223 225 219 219 214 228 220 222 223 207 210 205 214 214 210 210 219 211 206 207 197 202 204 202 203 200 194 183 192 183 167 154 141 136 120 105 97 98 95 85 79 69 59 50 47 47 34 26 25 23 55 65 76 78 
37 48 44 42 45 46 55 65 72 88 90 91 101 110 120 118 113 140 143 153 150 160 158 161 171 173 186 192 200 205 209 212 217 212 209 213 217 214 221 227 223 225 223 224 224 222 237 213 213 219 222 219 217 215 221 216 208 209 205 202 205 207 208 206 196 197 197 188 177 160 153 146 135 113 102 94 98 87 78 71 56 54 45 45 42 29 24 19 45 68 76 72 
33 44 43 46 45 45 60 67 80 82 88 95 99 115 119 125 117 147 143 158 158 167 168 171 175 181 192 205 206 212 218 218 216 215 219 218 218 218 226 228 228 228 230 229 228 224 231 224 212 222 227 228 222 223 223 219 219 215 210 213 206 213 209 207 197 201 201 195 180 168 162 153 144 133 109 98 96 92 77 72 53 54 42 40 44 31 29 30 38 52 78 79 
28 42 41 37 48 49 58 70 74 79 88 98 100 111 123 125 120 151 148 160 167 172 170 172 182 187 198 211 211 211 217 220 220 224 229 223 229 218 228 234 232 228 232 228 229 226 227 226 215 224 229 231 231 230 228 226 222 219 216 219 206 213 210 207 199 205 201 200 187 177 166 161 148 143 123 105 97 96 82 68 63 43 46 33 37 40 24 33 35 35 72 84 
31 36 39 39 44 50 57 63 73 75 89 95 99 113 116 126 124 154 152 162 169 174 171 183 190 189 204 216 212 214 218 225 223 230 231 230 233 222 227 236 235 229 235 235 228 233 230 230 225 224 234 234 235 235 230 230 224 222 221 218 213 213 213 208 203 203 201 195 190 183 173 164 155 146 133 114 103 94 83 68 57 50 40 36 27 34 27 25 42 33 56 80 
36 28 36 43 39 48 53 60 68 74 86 88 94 112 118 122 129 159 159 163 170 180 174 185 198 191 206 215 214 219 220 223 225 232 235 236 233 226 232 237 234 233 234 238 231 236 233 229 229 225 234 231 234 237 234 231 227 225 229 218 217 213 212 209 206 203 196 196 191 185 179 169 161 151 141 121 112 96 84 65 56 47 36 28 29 27 25 23 46 23 49 72 
43 25 38 39 39 45 54 59 62 73 78 84 92 108 122 125 137 158 169 165 172 176 183 185 203 200 208 211 215 218 222 223 227 233 236 236 233 226 233 236 234 232 237 238 234 236 234 232 231 229 231 230 231 236 235 232 229 227 229 222 222 215 212 206 205 202 196 188 190 188 176 171 164 154 142 127 117 104 88 68 56 43 29 24 27 22 20 16 50 29 45 68 
41 27 29 37 35 43 53 57 61 70 76 82 89 104 123 132 141 159 167 174 175 182 185 189 201 208 212 214 216 218 222 225 224 235 239 237 233 233 233 234 233 236 236 236 236 233 233 232 234 230 231 231 229 233 230 229 228 225 225 224 225 217 211 210 203 199 191 186 184 183 176 167 167 161 146 134 122 114 94 76 58 44 23 21 22 18 20 14 39 46 26 78 
37 28 29 31 31 42 48 53 60 66 77 76 83 101 122 136 143 160 164 172 179 187 182 189 196 204 214 217 217 216 221 224 226 230 235 234 229 233 232 233 233 233 234 237 234 234 233 232 233 237 233 232 230 231 228 227 227 224 221 222 225 217 213 208 203 194 183 186 185 178 168 164 163 160 149 139 123 117 99 80 66 44 27 15 20 14 15 20 23 48 23 59 
38 31 32 27 29 36 44 56 57 65 70 75 82 98 121 143 150 157 170 169 181 184 180 189 194 203 206 210 210 211 215 216 223 224 226 230 225 228 231 233 234 232 233 234 234 233 230 233 230 234 228 233 232 230 229 223 224 220 221 216 214 213 206 203 196 186 182 179 178 169 169 161 159 156 150 135 126 112 104 83 62 52 27 19 18 12 14 22 21 45 34 34 
46 29 32 30 22 36 45 50 57 58 68 71 82 99 117 143 153 158 165 169 177 183 185 190 186 203 200 205 204 204 211 211 219 217 219 221 218 221 225 228 232 232 232 232 233 231 232 229 231 228 229 232 229 228 226 219 218 215 217 211 210 203 201 200 189 180 180 173 170 166 159 158 153 147 148 138 125 113 104 85 65 54 30 14 17 11 10 24 24 35 38 39 
46 29 30 26 23 32 42 50 55 58 59 68 83 99 116 141 152 158 161 166 172 178 185 196 190 201 202 202 204 208 212 211 217 216 217 218 214 221 222 225 227 229 232 231 233 232 231 229 231 229 230 228 229 227 223 219 216 214 208 210 208 201 198 200 186 182 175 174 166 163 158 155 149 145 146 141 125 113 102 84 68 50 32 16 13 10 13 19 29 31 44 51 
30 35 24 24 20 32 39 48 54 53 58 68 77 103 114 138 149 156 157 164 172 183 184 197 203 205 210 210 211 211 215 216 216 216 219 218 217 221 224 223 227 228 230 232 231 231 230 228 229 228 227 227 225 228 222 217 215 212 206 207 205 204 195 193 187 182 180 172 165 163 159 157 152 145 140 139 127 115 101 83 66 58 27 16 13 11 14 20 29 31 47 55 
25 27 28 22 19 28 41 48 49 48 57 64 81 98 120 131 145 146 157 171 179 192 198 200 206 209 211 218 218 220 220 222 220 219 222 218 223 223 225 226 227 228 231 231 231 230 232 229 232 230 227 225 228 226 219 214 217 215 211 208 208 204 199 193 193 192 185 178 172 164 166 159 153 147 138 133 126 118 100 79 65 56 29 12 10 9 17 25 30 31 38 60 
28 27 18 24 23 24 43 43 47 47 53 64 79 98 124 132 131 147 161 177 183 200 203 210 209 212 210 219 221 223 226 226 226 225 226 221 224 227 227 230 229 232 231 234 232 233 233 233 232 229 230 229 230 223 218 215 218 215 213 215 215 212 208 202 200 201 191 183 177 173 169 164 159 154 144 128 124 115 104 79 64 57 25 11 9 6 16 31 30 35 40 64 
27 33 19 19 17 26 40 42 47 49 53 67 79 99 123 134 136 143 162 182 184 196 205 212 214 214 213 210 220 223 227 224 225 227 229 226 228 230 229 228 228 230 231 234 235 235 234 233 232 232 231 231 227 224 220 219 220 216 217 217 216 215 209 210 203 200 196 187 180 173 171 166 160 155 151 135 121 113 101 81 65 53 20 11 11 9 10 34 34 33 43 64 
19 33 28 17 11 25 37 44 46 47 53 67 78 99 124 133 143 153 163 183 184 195 203 207 213 213 219 215 218 225 225 226 223 223 228 228 231 233 230 229 229 228 231 235 236 237 234 233 232 234 234 229 228 221 217 219 221 220 218 219 216 212 212 207 204 197 192 190 181 174 170 171 165 158 148 141 123 106 99 85 66 50 18 12 13 8 12 37 39 42 48 64 
26 17 30 21 5 20 38 41 43 45 51 71 81 104 120 138 146 156 167 176 182 192 200 203 204 216 211 212 212 215 221 221 221 223 228 225 226 229 230 230 229 228 229 233 235 237 236 233 233 234 234 230 227 224 219 224 222 221 218 216 213 211 211 209 201 196 192 190 179 170 165 166 159 155 144 142 127 103 97 77 70 51 14 14 12 8 13 42 44 47 60 70 
32 20 23 20 13 18 30 36 37 43 51 69 83 112 114 135 147 154 165 177 183 186 189 194 192 203 209 207 214 216 209 211 215 220 224 227 222 225 229 229 229 227 226 230 233 234 234 233 233 231 232 227 224 222 221 223 220 220 219 217 213 207 205 202 197 191 185 184 176 170 158 161 152 146 144 133 128 99 86 72 67 47 13 11 13 9 12 44 48 48 62 72 
33 26 26 14 14 19 24 32 30 39 45 66 85 113 123 132 142 153 166 174 176 173 171 170 177 193 198 201 209 209 203 195 198 213 217 208 216 218 218 223 226 225 224 225 229 229 230 232 229 227 225 220 220 223 221 221 217 217 216 213 205 198 192 187 182 178 176 168 162 155 155 145 135 127 125 120 114 94 67 64 48 43 8 19 10 13 9 46 48 51 56 66 
39 32 16 20 14 21 26 30 32 34 42 66 88 114 123 132 138 148 163 164 159 150 152 153 162 170 182 181 186 176 186 183 178 194 204 193 197 197 198 201 208 208 206 207 210 218 221 221 222 219 216 211 213 216 217 210 213 211 207 211 199 189 183 184 173 168 164 161 148 140 130 124 118 113 108 105 101 86 71 56 47 28 9 17 11 18 12 45 56 52 61 67 
33 31 21 17 21 19 33 30 34 28 50 70 91 112 122 127 134 140 138 135 136 134 136 145 150 166 163 152 149 150 148 159 160 169 186 189 185 184 186 197 197 199 192 192 191 197 204 207 207 208 205 202 204 205 208 200 200 204 206 206 189 177 170 178 161 152 146 143 136 126 118 111 115 114 108 102 99 92 74 70 52 29 6 20 8 16 26 43 62 53 66 71 
35 25 23 19 17 29 42 46 37 37 57 79 101 119 129 133 125 121 112 123 125 130 123 136 144 146 147 133 140 146 145 141 148 153 157 170 177 175 180 190 198 197 194 191 190 188 190 194 192 186 184 188 187 190 189 185 181 187 190 186 164 155 152 148 148 133 129 134 125 113 103 96 95 108 104 100 95 93 83 82 74 37 8 21 10 23 32 42 56 59 70 69 
37 31 26 19 19 37 44 50 40 50 68 98 127 137 137 133 113 111 119 135 139 141 141 142 132 132 137 138 140 140 135 141 136 144 148 152 164 167 165 173 177 185 189 191 189 190 199 192 187 179 171 174 177 178 178 169 161 160 162 163 147 139 137 131 130 114 118 119 110 100 87 80 77 80 98 104 95 98 84 79 87 58 15 20 16 30 34 48 53 52 61 65 
45 35 28 20 21 41 44 42 43 46 75 114 138 145 144 127 116 123 137 143 147 147 144 139 135 133 138 147 148 141 131 127 128 133 133 134 140 150 160 162 170 173 183 184 189 193 203 198 193 177 168 168 171 172 164 156 153 147 141 136 130 124 124 126 113 105 113 110 106 95 90 86 77 72 74 87 95 90 78 54 62 71 19 21 19 30 39 52 54 42 56 68 
41 41 22 23 22 42 42 39 38 45 78 121 144 142 134 121 127 133 141 153 153 145 136 138 134 130 128 126 124 126 116 113 120 111 112 111 111 118 129 131 135 145 160 163 171 186 189 194 188 179 168 170 169 168 159 159 157 150 135 120 116 114 118 117 108 106 102 106 101 97 93 90 79 63 55 49 77 89 84 57 36 47 24 23 21 30 39 52 53 37 48 64 
43 36 28 24 27 44 44 42 34 52 91 128 145 138 133 125 129 130 144 157 154 149 140 129 128 118 115 108 111 113 105 98 100 106 107 113 113 111 118 120 126 124 136 149 156 177 188 187 185 180 173 171 171 168 159 165 168 167 145 136 125 121 125 116 112 113 106 107 114 112 107 106 108 93 82 56 75 92 100 81 48 32 14 24 28 23 43 52 54 37 43 61 
49 36 29 26 35 46 44 40 34 60 100 140 152 151 138 126 127 141 156 149 147 138 132 121 121 121 127 123 120 121 117 114 112 103 118 124 127 126 119 127 133 128 144 146 159 166 180 183 182 176 167 161 162 160 158 167 171 168 158 150 136 127 113 102 97 108 114 120 129 118 116 126 125 119 115 88 77 104 102 89 72 37 1 26 31 18 36 50 43 35 45 60 
38 40 30 24 36 54 51 45 36 73 108 151 162 158 138 129 135 141 155 141 133 135 117 99 105 124 139 122 120 130 125 119 103 114 135 151 136 141 134 145 143 130 143 173 160 174 173 181 183 177 164 153 144 147 156 164 162 164 160 156 148 129 116 87 88 99 110 131 135 125 114 131 123 112 118 114 84 101 106 88 75 51 0 25 42 30 24 36 51 40 45 54 
46 38 30 22 38 57 59 49 45 75 123 160 164 164 146 138 141 142 140 139 138 131 107 98 120 154 150 121 122 126 111 116 89 111 157 159 138 130 122 140 147 129 141 190 181 171 182 175 180 177 162 142 139 142 145 149 156 162 164 158 145 111 102 95 87 86 104 121 118 103 89 109 114 110 107 119 85 95 112 92 74 63 3 24 52 36 41 39 41 32 53 50 
50 41 17 15 38 64 61 55 51 80 131 162 165 168 165 154 150 149 143 144 149 126 119 114 130 152 172 136 125 127 96 91 97 119 160 172 125 135 133 127 138 115 140 198 193 182 178 184 181 178 154 133 133 145 149 144 147 163 184 164 146 124 104 98 95 88 92 133 128 95 83 87 109 95 93 133 101 88 103 99 78 68 15 19 51 40 40 46 53 34 22 55 
48 26 16 12 53 63 67 60 55 88 133 164 167 173 181 174 165 163 159 163 163 144 126 132 138 153 190 176 153 135 97 85 107 143 136 165 146 129 133 135 122 115 159 202 198 181 179 191 190 173 143 135 141 150 145 141 147 174 197 168 137 112 116 118 107 89 100 108 132 84 76 87 116 98 89 107 113 105 113 97 83 76 22 15 45 50 43 53 52 54 26 13 
49 15 16 19 62 69 71 66 59 93 143 156 166 173 181 192 187 188 183 177 173 160 146 138 150 160 180 196 188 171 128 116 118 121 113 128 160 166 157 139 141 157 183 199 209 195 188 194 194 173 142 141 162 164 146 138 153 180 205 178 142 127 132 131 127 119 112 103 104 105 93 112 142 123 97 96 103 118 130 107 88 82 29 20 42 52 53 59 52 59 37 25 
57 7 20 32 69 77 72 66 61 96 147 163 169 176 185 194 195 196 193 184 179 171 159 157 170 171 171 179 187 182 156 152 158 152 135 129 147 160 159 147 154 184 201 196 201 206 195 193 197 174 145 156 177 174 153 145 162 180 198 191 161 138 124 126 127 161 133 122 109 94 90 112 144 139 128 115 112 111 129 115 98 87 37 24 54 54 54 64 52 48 42 40 
54 11 24 41 72 80 82 66 61 99 142 166 169 182 193 199 204 205 201 195 191 186 178 170 181 186 183 183 183 174 169 163 169 175 164 162 167 163 160 172 185 205 206 200 206 204 205 208 213 192 165 171 183 180 155 162 177 189 207 205 181 179 154 147 142 158 143 129 125 121 124 143 159 147 137 130 121 124 129 123 96 98 39 24 64 54 53 61 60 35 41 55 
50 17 30 47 63 85 90 71 66 100 144 165 171 181 195 200 208 208 210 209 204 203 192 184 188 189 187 185 181 177 167 172 173 182 185 171 173 173 171 192 205 209 207 200 199 206 207 221 220 200 176 175 179 184 170 165 181 195 209 215 195 193 164 163 159 153 146 136 136 131 136 153 156 149 141 132 127 138 140 126 104 93 55 24 73 57 47 62 66 31 29 61 
48 40 25 44 61 100 92 76 80 97 142 167 174 185 196 203 210 215 216 217 215 212 205 199 203 203 196 192 191 184 178 175 173 176 185 194 195 202 203 203 199 202 204 197 204 212 220 221 220 199 184 179 183 189 184 175 185 197 213 220 211 205 178 177 184 173 168 154 148 147 149 154 157 148 151 145 141 142 148 130 111 100 64 25 79 66 42 64 61 31 28 51 
60 48 15 39 66 111 93 93 82 97 143 166 173 185 197 206 212 220 219 225 222 221 212 212 212 208 207 203 201 196 192 192 189 194 198 201 211 209 211 204 197 198 199 201 209 216 219 224 220 199 186 183 187 191 192 191 194 195 210 225 212 204 179 168 174 184 182 175 170 161 165 168 163 165 161 158 153 153 154 127 115 104 68 31 81 70 46 61 55 33 30 46 
59 52 35 39 69 78 91 111 90 92 132 167 175 186 199 208 214 220 223 226 228 225 223 225 224 223 220 217 213 212 213 212 216 218 224 222 226 220 217 213 208 200 195 199 211 218 219 220 219 198 184 183 188 193 195 199 205 207 217 232 221 210 187 171 169 178 186 186 188 187 186 186 182 175 169 163 161 162 161 128 114 117 67 41 76 73 47 50 51 42 27 41 
47 42 48 48 75 52 93 115 105 91 125 165 174 186 196 208 213 221 223 230 230 228 228 231 232 233 229 227 223 222 224 223 220 224 223 225 229 226 219 215 214 210 205 206 213 222 225 220 218 198 191 188 194 195 196 207 215 215 224 241 229 216 194 176 174 175 178 181 185 190 192 191 188 179 170 160 165 160 162 125 113 116 72 46 66 71 54 40 47 47 26 34 
38 40 36 52 88 57 90 114 121 98 117 161 170 182 194 206 210 218 224 227 231 232 233 236 241 240 238 234 233 233 232 231 230 229 228 230 232 230 227 220 217 216 215 216 218 224 222 221 217 202 195 196 195 197 197 209 216 221 231 251 247 231 212 193 193 194 190 192 190 191 192 187 187 184 171 167 165 165 159 123 118 108 68 59 60 54 59 32 45 47 31 32 
39 40 43 61 83 66 97 112 123 104 105 160 168 178 191 201 207 217 220 226 228 230 237 240 240 244 240 239 236 237 235 236 234 234 231 232 233 231 232 227 223 222 221 222 228 233 229 224 218 208 200 199 200 202 203 211 218 223 232 251 252 240 221 204 202 205 203 205 200 201 194 189 185 184 174 169 170 170 150 126 122 110 64 69 59 43 53 34 36 53 39 32 
35 48 48 55 53 71 95 128 127 111 96 154 169 175 185 195 206 213 215 223 222 226 234 240 243 242 241 241 238 236 240 239 238 236 234 234 234 233 233 231 230 229 227 229 229 235 230 228 219 205 201 200 206 205 207 213 221 223 233 249 255 244 227 214 208 211 210 210 209 205 199 193 187 182 176 173 172 171 141 128 124 108 67 65 53 45 43 34 35 48 44 37 
31 47 54 60 44 67 79 136 138 122 104 145 168 171 182 197 203 211 214 221 220 225 232 239 242 240 240 239 237 237 236 238 237 236 232 233 232 235 233 230 229 231 230 229 232 232 230 226 215 207 202 200 202 206 203 210 220 224 234 248 253 243 230 219 208 206 211 208 208 205 204 198 191 184 173 175 171 165 144 134 124 102 65 65 46 56 26 27 40 49 45 35 
27 30 57 58 58 73 68 131 138 127 112 136 163 167 178 193 199 205 210 217 220 225 233 239 240 241 237 238 237 237 237 238 234 232 230 228 229 229 229 228 230 231 232 230 230 234 225 220 214 206 203 202 198 201 203 208 218 223 233 247 251 244 233 225 208 203 205 206 202 204 204 198 194 180 171 173 170 154 148 141 121 95 61 63 43 46 31 12 39 54 37 36 
26 16 49 58 69 83 70 100 135 123 112 131 162 163 176 188 196 201 210 210 215 227 230 235 238 237 238 235 236 236 235 233 230 225 221 222 220 222 228 227 226 231 231 233 233 224 217 215 219 212 206 203 194 194 197 204 213 219 230 239 248 245 239 227 211 197 203 202 200 199 199 196 193 178 171 173 160 149 148 138 114 86 62 57 40 27 32 24 20 58 43 21 
28 20 15 40 58 93 85 93 112 119 106 128 158 158 170 181 191 198 203 208 215 224 228 231 233 235 234 234 233 230 228 226 224 216 214 212 210 223 226 228 223 228 233 237 233 219 211 214 222 223 213 203 199 191 191 203 208 214 223 233 242 243 244 229 216 198 197 200 194 198 194 192 189 181 173 168 161 145 148 131 111 75 62 52 30 13 28 36 25 31 62 27 
22 19 12 11 32 75 91 99 111 102 99 127 157 157 165 176 188 197 197 205 215 220 225 228 230 230 232 232 231 225 221 223 216 212 208 207 207 228 230 228 222 226 235 236 230 215 204 211 223 224 213 205 205 195 187 198 205 217 220 224 237 237 237 227 214 202 193 192 191 193 190 189 185 178 171 166 160 149 147 125 103 66 55 39 24 10 22 33 37 25 45 45 
24 13 14 9 1 25 54 82 109 116 84 132 156 155 159 169 184 190 193 199 211 216 218 222 229 229 227 226 223 219 215 214 212 206 207 201 204 226 228 227 223 225 231 232 229 212 208 197 218 218 211 203 207 202 187 195 204 214 218 219 229 234 227 226 212 203 191 184 188 186 185 180 177 174 164 162 154 147 129 113 90 50 42 28 16 9 14 31 36 36 34 31 
20 13 15 11 2 16 18 42 62 96 109 147 152 157 157 167 176 183 190 196 206 211 215 217 223 224 221 219 217 213 209 206 204 203 208 202 200 213 222 222 221 224 217 221 229 220 214 206 206 206 195 193 195 203 189 192 201 206 210 215 221 228 217 215 210 199 188 182 185 181 181 178 170 169 162 161 147 129 108 100 66 41 24 14 17 4 16 22 33 32 35 30 
16 13 16 7 6 10 18 26 30 54 90 140 154 154 153 159 172 174 183 194 199 204 211 211 212 215 215 210 206 203 199 199 197 197 205 204 200 192 199 204 205 206 199 202 214 223 220 216 205 188 167 162 164 180 177 183 194 196 202 203 212 218 207 202 199 190 180 178 180 180 176 172 167 163 159 155 125 103 91 78 39 30 13 7 16 9 11 20 28 26 36 26 
15 14 18 9 9 5 18 26 23 29 58 120 145 144 150 150 166 171 175 186 193 196 200 203 206 206 206 197 194 190 185 185 185 190 198 199 202 198 177 174 178 178 181 186 196 207 216 224 223 197 169 160 159 152 158 166 165 173 180 195 205 205 198 191 187 189 173 172 174 174 174 169 163 157 153 143 105 83 74 53 28 23 10 5 13 15 5 22 20 32 31 38 
10 15 17 13 7 2 9 26 25 26 55 103 140 132 144 150 159 172 171 176 186 188 193 193 197 197 191 187 183 179 173 174 181 188 197 200 200 202 191 167 158 159 162 166 177 183 185 197 205 200 177 163 165 163 161 149 151 148 165 184 188 189 185 176 185 187 179 169 168 171 166 161 159 152 142 119 85 74 61 34 20 24 8 3 12 14 4 15 26 28 31 43 
8 16 14 14 4 2 5 30 20 28 47 81 143 129 138 150 158 164 169 171 176 179 180 180 183 181 178 172 168 170 169 181 186 193 201 205 205 196 188 178 167 160 154 159 165 165 170 169 177 174 163 169 171 166 160 153 148 151 161 175 172 174 178 174 180 187 181 173 162 164 160 155 151 147 127 109 76 71 54 14 21 22 7 6 8 12 6 10 26 24 33 32 
10 14 19 9 0 13 4 21 25 26 50 68 138 132 134 148 157 159 166 169 170 167 168 168 168 166 165 161 164 173 180 186 197 203 210 211 207 197 190 180 171 166 164 158 163 162 167 164 161 157 156 156 161 166 165 163 169 168 171 167 173 172 171 168 173 180 179 173 158 157 151 149 146 138 122 98 77 67 40 19 21 19 5 10 9 6 12 6 20 22 29 31 
13 16 14 7 2 13 6 18 21 22 53 58 123 138 130 148 153 157 161 166 170 165 163 163 159 158 155 161 171 176 182 196 204 211 211 205 205 205 195 181 170 167 167 169 164 166 166 169 164 157 159 160 159 167 165 168 179 182 168 164 168 166 162 165 172 173 174 171 157 148 147 146 139 132 114 90 72 60 27 20 22 17 3 10 8 10 8 6 21 17 31 31 
18 17 10 3 3 14 8 17 17 23 51 59 103 143 127 141 149 155 159 163 166 166 159 158 157 150 156 165 170 181 187 198 210 211 204 206 208 204 194 188 176 172 173 175 172 167 170 164 165 167 170 174 169 169 160 167 172 174 165 152 158 156 157 165 170 168 164 167 156 137 139 147 138 123 113 81 73 50 15 24 25 12 5 7 8 11 10 6 16 22 24 32 
18 15 8 5 8 19 8 8 14 25 51 65 79 142 122 133 148 153 156 161 165 164 160 160 152 151 159 161 172 178 189 202 209 206 204 206 203 200 193 190 187 189 183 179 175 176 169 166 168 175 183 183 179 173 163 166 165 164 163 155 145 153 158 166 167 166 159 159 154 127 133 140 135 119 107 73 70 33 16 22 26 4 8 7 8 11 12 11 10 21 26 30 
13 9 12 8 14 15 10 3 14 26 53 64 72 128 119 129 142 154 157 158 162 164 162 163 156 158 154 160 169 170 187 201 204 207 202 199 198 195 187 188 197 198 191 183 184 182 178 177 180 183 194 190 185 177 171 167 162 160 160 159 147 146 162 164 167 166 153 154 152 125 132 137 134 117 92 75 58 17 20 25 24 3 8 4 13 7 13 13 8 14 28 27 
8 9 10 12 10 16 9 4 19 28 46 66 77 107 114 124 135 147 153 159 161 164 168 167 167 162 152 161 162 157 162 180 196 195 191 199 203 195 177 178 184 185 182 180 175 176 180 180 179 182 187 183 181 179 171 169 162 161 154 150 143 137 152 160 157 156 141 146 147 127 133 138 128 111 81 68 42 14 25 29 14 5 9 2 14 6 13 12 14 11 20 32 
10 11 15 11 15 13 11 6 26 21 47 62 76 87 99 120 135 145 146 155 157 164 166 172 170 165 156 167 166 170 156 151 169 165 162 177 191 206 200 172 161 166 178 180 178 171 174 176 175 172 170 166 164 162 161 159 159 151 143 142 142 132 145 154 150 156 152 147 143 130 134 139 124 101 73 58 26 16 27 25 11 5 11 5 14 8 10 12 12 12 16 24 
10 17 15 11 19 11 6 14 33 14 44 63 74 77 79 112 136 143 147 144 147 150 159 164 175 165 165 174 176 178 174 168 155 133 133 143 156 175 193 192 176 164 159 166 158 153 169 168 166 169 169 166 158 154 150 148 144 140 140 150 138 127 138 152 153 155 149 145 142 127 137 135 116 87 66 40 18 25 28 20 7 9 11 9 10 9 11 13 13 15 19 18 
17 17 13 16 23 13 8 25 31 6 36 66 68 75 49 103 131 142 147 143 146 145 144 152 161 164 167 176 176 172 179 192 180 152 149 131 141 153 154 172 178 170 174 160 147 139 151 163 156 170 174 164 149 143 141 134 134 143 155 164 139 123 145 159 157 152 143 142 134 124 138 127 105 73 54 22 26 31 24 13 9 9 11 11 9 10 10 10 14 9 28 18 
19 13 15 14 24 7 12 28 24 3 37 59 69 70 47 78 124 136 140 145 145 148 147 147 154 159 165 175 176 177 172 184 179 166 163 162 148 149 132 148 161 160 159 161 163 155 153 136 129 159 178 157 148 138 147 149 156 158 157 168 149 151 160 158 157 147 136 138 127 129 139 118 83 64 34 17 36 27 20 10 9 12 13 12 11 13 9 13 11 14 29 30 
15 12 13 13 15 6 9 27 20 7 34 55 66 64 41 48 115 126 136 139 147 146 152 153 158 156 163 170 178 175 177 185 176 175 171 168 168 158 145 157 179 173 170 158 168 168 177 150 141 141 145 132 131 126 147 158 165 162 153 160 155 147 149 150 147 142 140 134 129 133 130 104 64 46 21 31 28 25 14 13 9 14 15 11 9 14 7 18 12 8 36 33 
19 13 7 16 12 13 13 26 14 14 35 45 63 63 37 38 98 119 127 130 137 146 149 157 166 164 168 177 179 181 183 193 195 188 186 180 177 182 183 176 177 178 171 166 175 163 163 155 145 144 149 146 137 138 145 156 160 159 159 156 140 132 142 149 147 142 139 136 131 127 115 83 56 23 29 35 24 15 12 14 13 13 15 9 11 11 7 21 12 6 35 34 
16 14 12 15 11 13 24 25 12 19 39 42 53 64 38 37 93 118 114 127 132 136 147 149 159 167 171 175 181 182 185 183 192 188 191 185 184 188 191 188 186 184 177 176 173 171 160 153 147 152 151 155 154 152 155 154 153 156 160 150 140 137 150 146 143 136 139 132 127 119 89 75 31 22 38 29 13 14 13 13 11 13 11 10 12 13 8 19 11 11 27 39 
14 17 13 16 14 16 23 19 11 24 41 41 45 60 36 38 89 122 111 116 126 131 139 145 152 161 169 171 174 174 178 175 178 185 191 191 190 184 184 185 187 186 183 183 181 177 174 168 167 153 148 146 144 146 148 147 153 162 158 151 143 145 147 140 133 133 135 129 119 100 77 49 23 35 33 14 11 14 16 12 11 14 10 12 13 12 9 20 9 11 28 38 
16 18 15 17 21 19 15 19 12 27 42 45 48 50 37 34 86 121 121 111 114 124 130 144 147 155 166 169 170 174 176 176 175 178 191 191 192 189 181 182 182 177 173 173 175 172 172 171 164 160 161 161 165 164 159 160 163 164 158 145 142 147 139 130 131 130 131 125 104 86 60 28 37 32 20 11 12 14 16 12 14 15 11 10 16 8 15 19 11 12 26 36 
15 17 20 23 30 21 19 24 14 33 39 46 54 41 31 37 87 119 125 118 112 113 122 134 142 149 158 167 166 174 179 180 176 177 186 187 190 186 179 177 179 172 171 168 166 166 168 172 167 161 163 165 165 162 157 161 160 157 150 145 143 138 132 123 128 127 125 112 93 60 36 33 33 17 12 12 17 14 20 14 13 14 9 14 14 10 14 16 9 9 27 36 
17 21 25 22 29 21 26 26 15 33 35 43 49 44 21 39 85 121 122 127 118 116 117 124 136 141 153 162 165 167 176 182 174 174 180 182 185 186 183 182 177 176 171 169 166 163 165 165 165 164 158 157 151 151 153 150 156 149 151 143 136 132 122 127 125 126 114 101 71 36 35 28 13 12 15 10 17 15 22 12 11 16 10 16 11 13 16 13 9 11 34 21 
23 14 28 24 28 19 17 18 14 31 33 44 44 42 20 29 89 122 125 125 128 120 119 120 128 134 144 153 161 165 169 174 178 176 180 184 183 184 185 184 181 179 176 174 169 168 166 162 162 154 152 151 147 149 153 153 152 152 146 136 131 120 123 127 123 117 95 72 42 33 30 11 7 11 12 12 15 18 15 13 9 18 14 11 13 13 10 8 10 18 33 15 
17 20 23 29 21 20 17 12 25 33 31 40 41 33 24 24 89 120 129 131 125 128 124 123 129 130 141 146 158 164 169 174 179 179 185 188 185 185 188 184 183 186 182 179 176 175 173 164 162 155 158 156 154 159 158 155 153 146 142 132 123 122 127 125 120 105 79 45 37 29 12 9 9 9 11 13 13 13 12 8 9 15 12 10 9 12 11 3 15 22 25 11 
14 22 24 27 17 14 13 14 28 31 29 37 34 28 28 26 90 118 125 135 136 128 130 123 129 132 137 147 154 165 170 177 177 179 186 191 191 189 189 187 185 184 184 181 182 180 179 178 173 170 167 162 162 162 157 155 147 144 136 129 125 126 124 123 111 94 61 43 35 14 9 9 7 7 10 9 12 12 7 8 11 12 8 7 10 12 9 4 23 21 19 10 
17 17 28 18 12 11 10 20 31 28 29 31 20 33 35 48 98 118 124 131 139 137 129 129 128 129 133 140 151 155 166 175 175 182 182 189 193 195 196 198 196 191 189 190 182 186 184 184 184 180 175 172 166 168 160 154 156 150 140 130 127 125 125 123 103 86 53 42 22 12 8 6 5 9 6 10 10 6 7 5 12 5 7 10 8 10 6 14 20 14 21 19 
20 15 23 11 13 10 11 25 30 29 26 25 21 39 52 69 100 118 125 131 132 142 137 130 133 126 130 135 146 151 158 163 175 182 183 185 190 199 202 202 201 198 203 201 196 188 187 188 188 180 176 172 173 171 166 158 158 149 139 127 129 128 124 116 98 76 46 37 13 12 8 4 8 6 9 7 5 5 5 6 8 5 7 9 6 6 10 14 18 16 26 24 
21 14 18 16 13 17 19 25 27 27 25 23 28 55 72 83 98 123 125 133 133 137 139 139 131 131 125 131 136 148 152 157 164 173 178 179 185 193 199 197 198 198 200 202 198 193 191 189 187 185 179 172 170 168 163 156 154 141 128 128 134 130 120 112 90 62 42 27 17 11 8 4 6 3 8 3 4 5 4 6 7 6 6 10 2 8 17 18 26 15 31 35 
24 18 18 18 19 23 23 28 29 25 30 24 46 67 80 87 100 124 129 128 138 139 137 135 136 132 131 126 128 137 150 153 156 162 166 173 174 182 188 194 191 191 186 191 194 190 191 187 183 179 177 170 165 155 151 149 141 133 128 128 131 126 114 106 73 49 42 24 13 13 4 2 2 5 3 1 1 7 4 3 6 6 5 7 4 10 23 23 23 18 33 36 
23 20 21 20 26 19 25 28 28 24 40 38 65 75 88 98 104 122 133 131 133 140 139 132 135 136 129 127 125 127 139 145 152 156 158 163 163 167 174 181 179 181 180 181 185 182 185 181 173 170 169 167 156 145 143 136 133 130 128 126 123 120 115 85 64 45 42 22 14 12 1 3 2 3 0 2 3 3 5 1 7 5 5 8 10 18 23 23 20 25 32 32 
