P2
# Imagen
92 112
255
113 103 110 111 117 115 119 117 117 115 91 88 74 95 86 57 56 79 107 119 99 89 50 83 108 103 108 121 117 105 116 122 109 102 111 112 111 115 110 117 114 109 116 111 111 113 102 109 124 107 109 109 113 111 125 113 94 101 84 90 89 89 83 84 39 86 112 123 115 119 119 117 121 119 115 117 121 117 121 120 117 114 121 112 117 116 121 116 119 118 116 117 
112 114 99 112 109 115 118 112 122 120 90 84 70 77 67 63 70 124 101 126 76 34 80 110 118 105 108 117 117 113 115 120 113 110 110 116 112 115 118 115 112 110 116 105 116 113 114 108 112 127 103 110 120 108 116 125 105 112 109 105 90 89 88 91 70 64 55 85 113 112 125 119 114 123 118 114 119 119 113 120 116 118 111 123 117 119 119 118 117 116 121 118 
109 107 105 98 110 115 116 114 111 106 74 74 68 71 80 85 96 119 110 60 53 70 115 113 114 107 102 117 113 115 120 121 113 112 113 113 112 120 116 123 104 118 122 114 107 123 114 117 103 123 117 117 118 123 105 114 114 111 110 120 121 96 113 93 94 94 90 88 80 69 100 138 118 110 119 111 120 114 117 115 117 115 119 114 116 117 122 111 117 114 119 119 
104 95 97 88 89 113 108 105 88 83 64 74 92 92 102 94 103 124 58 85 100 110 114 126 126 99 100 119 123 115 116 116 123 110 114 113 116 113 124 122 113 113 122 121 106 126 120 118 118 110 112 134 120 114 121 112 117 109 130 110 112 111 111 114 107 108 101 92 101 102 86 79 122 127 119 117 126 118 117 121 116 119 119 118 121 115 119 116 114 118 115 116 
109 95 98 87 77 82 91 74 66 62 82 88 116 107 81 67 76 107 101 104 124 116 106 142 125 106 92 117 128 119 123 120 116 115 115 108 124 102 129 121 111 117 117 119 122 115 123 125 135 122 112 122 144 125 107 127 119 113 128 137 108 120 106 115 114 91 113 111 102 96 99 99 88 82 113 134 118 122 118 119 120 117 115 114 118 114 122 118 115 122 119 119 
107 101 99 91 93 75 63 71 77 96 107 116 83 49 58 79 117 116 120 104 115 122 106 142 129 107 96 113 130 117 127 133 109 116 115 113 130 103 124 129 115 113 117 108 149 109 133 120 119 141 126 106 135 152 115 125 129 116 119 127 136 117 121 110 135 93 97 131 105 114 99 98 101 124 85 87 141 121 122 114 126 121 126 117 120 114 124 117 113 122 117 117 
103 98 94 89 88 75 74 80 97 115 111 68 53 80 106 117 127 118 112 109 112 125 113 144 127 104 104 114 119 111 117 134 111 118 117 117 124 120 119 138 123 109 122 108 131 120 118 115 122 128 138 120 104 141 139 114 129 132 111 123 121 132 117 117 122 130 78 140 104 105 118 106 105 105 129 120 75 133 128 118 118 116 114 124 125 110 118 116 117 120 113 122 
106 96 94 86 74 76 97 90 117 104 65 47 90 115 120 119 114 115 122 126 109 123 118 137 126 108 111 118 113 102 116 132 116 113 113 124 112 122 115 134 138 123 117 111 111 147 113 101 115 134 123 136 105 114 144 131 121 140 116 115 122 116 127 118 113 137 110 112 138 98 131 107 113 118 106 118 118 82 119 153 127 125 117 120 122 108 115 120 118 118 115 120 
94 84 73 76 84 93 101 110 93 43 46 112 113 127 125 104 100 105 130 121 118 122 120 125 129 107 111 113 117 99 124 134 120 103 129 123 118 115 103 127 138 124 123 115 107 152 126 102 106 131 121 130 127 103 132 153 112 135 131 108 131 110 123 134 127 108 123 135 118 127 117 124 100 134 131 101 108 120 75 71 150 131 122 116 114 110 112 122 112 119 118 116 
83 71 69 84 93 101 104 89 44 41 99 122 130 125 114 109 106 115 116 116 113 114 110 122 126 114 108 115 115 109 118 136 137 91 118 128 112 115 109 115 133 124 122 113 97 138 141 109 86 128 114 125 127 103 111 155 124 96 150 101 133 112 113 137 124 121 107 139 134 122 110 122 98 110 140 117 113 93 137 87 53 138 142 116 108 113 120 117 119 119 117 122 
67 67 83 101 108 109 91 42 56 99 113 123 126 118 117 108 107 122 124 113 104 106 112 115 124 118 111 110 112 108 113 145 134 94 105 128 104 105 106 120 116 129 118 113 92 124 131 125 90 103 105 115 111 108 104 139 151 83 131 119 128 128 89 139 120 126 117 100 149 116 120 121 114 99 120 122 122 114 82 152 101 36 155 142 113 117 121 117 115 118 110 116 
71 92 92 102 123 92 42 62 93 124 112 115 123 113 125 120 101 122 115 114 111 104 103 112 116 118 103 108 117 102 119 144 122 105 91 131 113 88 98 122 124 114 126 123 94 111 118 108 113 92 90 100 109 85 118 93 157 104 94 111 126 144 68 118 132 125 117 106 107 131 126 128 133 78 120 116 123 139 112 97 136 109 40 146 134 116 123 119 111 119 116 111 
95 97 99 114 109 48 56 113 118 117 118 113 129 117 121 125 111 110 128 117 111 116 108 110 119 125 107 115 105 111 120 133 124 106 92 132 111 87 83 123 127 104 124 122 120 110 113 106 103 108 90 85 105 97 109 67 138 126 95 95 115 151 73 86 131 128 109 140 72 132 117 124 132 111 100 116 111 133 128 116 104 137 116 51 151 133 124 123 117 118 121 121 
98 94 108 109 43 51 109 119 114 112 112 119 118 117 119 132 107 110 137 115 115 113 127 109 130 121 114 124 109 108 118 122 126 107 85 123 114 95 84 122 128 105 104 123 121 117 117 120 84 101 105 77 107 99 109 93 78 130 106 95 96 144 92 69 105 120 119 129 94 100 110 127 108 138 100 109 112 122 119 121 114 127 145 116 65 148 123 122 114 121 115 118 
94 108 111 71 26 93 130 131 100 116 119 126 110 111 113 132 105 111 133 109 104 123 128 106 130 124 121 128 114 122 113 125 109 124 96 122 116 97 83 111 127 111 90 114 107 116 117 136 90 96 125 99 113 93 118 93 89 105 111 104 90 130 112 82 86 92 131 95 121 78 105 112 115 116 137 91 114 116 120 116 115 139 128 148 69 127 125 127 121 118 113 114 
100 112 99 36 45 109 130 127 103 107 129 113 111 102 120 129 113 124 121 115 106 127 131 117 129 125 109 131 109 130 114 113 106 122 106 114 111 114 80 111 124 116 103 108 105 124 104 148 108 97 125 130 122 96 110 103 103 100 122 95 97 113 136 88 113 81 133 92 129 81 100 93 127 110 136 105 98 118 114 108 113 137 124 118 114 108 127 119 120 122 117 120 
100 121 57 36 86 119 124 120 100 110 129 111 107 120 131 128 108 121 127 118 112 123 130 116 132 125 117 131 118 133 120 119 119 120 116 121 106 138 105 109 135 123 105 103 109 125 111 137 135 101 122 138 140 106 110 113 110 117 144 91 102 109 144 108 112 99 128 109 126 85 76 102 109 114 116 111 102 111 104 117 117 131 124 130 124 82 145 116 119 120 127 120 
97 101 45 63 111 123 123 107 105 123 132 112 111 109 121 118 106 116 117 116 111 127 120 120 136 114 130 127 130 139 126 118 134 131 128 115 113 144 129 121 124 140 113 99 119 126 113 127 132 128 122 145 145 113 121 121 103 128 137 118 95 128 138 128 115 118 119 119 115 121 88 96 110 98 118 119 105 114 117 105 125 120 119 113 124 92 113 145 115 127 116 122 
96 67 60 97 111 117 122 122 110 120 137 120 114 107 124 121 115 128 119 117 118 122 117 122 130 119 144 120 133 146 136 121 130 135 127 115 116 138 134 121 119 130 130 113 110 137 121 117 149 142 129 137 144 126 106 137 106 131 136 148 99 140 131 144 125 123 117 130 102 119 106 96 109 91 112 130 114 116 98 120 114 116 119 140 148 134 61 139 117 128 122 112 
68 24 99 131 114 111 120 124 120 120 130 138 111 122 113 126 126 117 128 111 114 119 119 118 130 122 142 118 126 158 142 122 128 137 140 109 123 134 141 121 119 116 134 116 119 140 130 110 159 147 129 129 150 151 104 133 133 115 134 156 114 131 134 150 138 143 98 148 96 116 107 100 113 107 99 140 122 101 114 116 116 105 125 151 125 147 53 106 131 116 125 126 
47 29 132 157 120 112 123 115 123 118 135 127 105 118 109 113 126 133 135 113 117 122 116 124 126 125 130 115 136 152 148 124 130 143 148 114 135 129 140 134 119 114 132 120 119 142 136 113 160 161 135 115 143 153 130 148 133 121 120 150 137 108 130 149 149 144 99 149 108 121 113 109 120 112 104 131 124 98 120 108 98 126 121 141 106 142 104 56 130 110 131 127 
21 44 135 158 120 110 133 109 114 118 128 130 103 124 128 103 129 136 137 109 135 127 113 118 122 135 125 131 147 136 136 133 139 143 157 131 141 143 131 139 132 122 138 133 121 146 133 123 143 174 137 121 129 154 130 142 146 116 112 139 147 116 123 131 151 157 112 143 137 126 117 94 114 120 102 115 116 101 101 112 123 127 115 124 114 123 141 53 116 114 128 127 
32 79 137 142 132 113 134 116 101 107 121 132 120 118 136 122 127 123 132 123 122 131 123 111 120 133 123 136 148 121 121 126 135 142 141 129 144 140 129 130 145 126 134 134 135 129 134 115 137 174 136 106 120 137 132 123 138 106 109 127 137 106 126 118 133 142 125 131 162 129 150 100 117 110 120 102 120 103 126 127 122 117 105 108 112 121 140 75 86 129 116 125 
63 97 133 139 135 105 126 112 107 102 119 119 137 117 125 134 132 119 114 126 125 135 130 112 124 129 110 131 134 118 103 116 121 135 114 127 126 134 126 127 135 129 141 131 125 123 131 114 120 159 126 117 103 128 126 115 121 110 102 115 125 103 115 116 129 132 144 119 180 145 153 125 116 122 106 105 103 110 109 111 105 108 117 116 100 122 139 104 79 154 103 124 
89 113 122 127 132 101 120 113 99 95 121 127 143 130 107 146 125 127 103 112 135 131 132 103 114 112 95 108 107 112 96 105 107 121 95 104 101 112 110 118 117 140 126 142 119 114 131 134 114 148 125 113 100 109 103 88 109 98 98 101 111 114 110 113 134 128 146 122 174 151 148 147 134 141 104 113 115 105 99 94 121 118 120 127 109 125 139 136 85 143 118 110 
98 105 140 122 126 107 101 114 109 105 115 143 130 114 109 136 125 123 109 105 131 128 116 105 104 92 70 96 77 89 81 85 94 101 73 81 68 89 89 100 92 118 113 120 116 102 115 119 111 127 145 101 92 97 78 89 82 93 94 88 99 95 118 95 116 105 139 133 159 138 152 155 155 149 141 131 136 136 140 115 121 119 107 108 106 104 145 137 89 126 130 96 
112 110 132 135 114 114 100 106 122 118 132 132 129 119 117 129 123 112 124 106 113 116 101 106 94 105 66 71 83 57 62 67 76 80 60 64 70 79 109 84 71 73 79 109 89 80 102 94 104 106 136 102 92 105 88 89 79 95 95 96 95 86 116 94 121 100 137 132 141 133 144 157 152 157 142 134 123 118 138 134 135 127 130 105 109 86 132 160 101 107 145 94 
117 105 118 133 123 110 113 104 117 122 128 134 146 114 119 115 120 98 106 115 97 123 101 99 120 104 79 73 92 54 74 88 93 80 88 59 111 82 113 104 84 61 60 99 91 71 89 98 78 100 119 128 105 117 114 97 93 98 107 113 102 106 116 107 131 116 135 145 130 130 139 148 148 152 147 131 128 109 118 123 136 133 137 132 114 113 135 165 109 80 161 117 
125 104 113 126 119 95 108 101 122 132 123 136 133 105 122 116 108 88 100 107 100 119 115 111 134 106 118 110 115 84 78 114 115 99 122 114 127 93 114 138 117 74 91 80 86 76 71 105 62 72 108 137 126 127 130 130 104 124 110 131 131 101 138 107 142 144 142 148 146 131 118 131 141 150 140 128 128 116 113 121 129 128 130 127 113 113 141 154 138 58 143 149 
113 121 109 119 105 96 110 108 115 131 135 121 123 125 116 106 96 93 91 97 104 86 97 100 127 136 147 148 162 134 116 129 154 106 148 146 149 128 117 178 147 91 99 105 88 83 85 101 82 78 109 139 128 135 138 130 115 119 132 128 120 138 150 116 150 161 158 145 146 121 116 130 138 151 142 135 131 122 112 115 122 125 120 134 119 114 128 157 144 75 128 164 
104 132 112 111 107 110 107 112 116 147 140 106 114 119 118 101 98 91 109 95 99 72 80 90 107 123 142 159 176 171 136 108 136 109 142 139 141 134 134 162 123 119 115 132 119 109 118 136 125 95 115 130 136 129 150 137 115 136 140 117 112 111 144 112 96 130 123 124 118 119 133 129 149 143 140 149 138 124 113 105 116 119 123 132 123 120 131 139 151 87 97 169 
116 119 118 114 116 120 110 112 115 145 120 106 108 115 124 109 110 109 111 81 90 85 93 100 111 106 112 148 135 149 139 119 109 115 103 119 126 120 138 122 110 119 128 132 129 108 128 135 141 112 108 141 129 132 147 141 114 130 123 125 114 105 126 121 101 84 101 116 120 124 132 144 143 140 159 147 142 127 120 113 110 108 107 126 112 119 128 145 143 90 99 149 
98 119 124 105 121 129 119 108 123 139 109 108 115 125 122 113 116 110 117 103 102 99 101 105 107 101 108 137 131 135 132 117 97 119 101 103 106 102 111 96 107 110 111 113 125 99 126 131 119 109 103 132 129 123 138 141 112 114 118 120 114 105 130 120 112 85 83 100 106 121 122 128 150 140 141 147 143 148 129 130 115 115 113 111 126 99 115 137 137 98 69 142 
96 109 112 103 131 139 121 112 135 124 115 110 122 128 123 102 122 121 115 114 106 100 98 103 99 94 102 124 133 132 123 121 103 109 94 95 95 114 121 101 94 97 114 111 100 100 127 138 121 121 100 135 135 117 126 146 118 114 116 126 116 111 130 127 116 84 78 89 92 103 106 105 134 145 141 148 150 146 143 137 120 115 118 110 119 112 100 118 141 110 49 123 
103 100 116 95 115 142 123 123 137 112 122 117 121 134 116 107 118 115 117 98 90 95 91 115 103 88 119 127 119 105 109 100 104 90 98 91 93 116 126 112 103 108 124 134 113 110 132 146 133 128 111 131 137 130 128 149 129 122 123 116 113 118 125 129 119 116 85 85 92 101 89 104 106 129 139 142 163 159 165 145 130 114 118 110 128 117 111 104 130 112 53 81 
108 109 111 87 111 132 118 120 139 120 107 120 121 115 106 126 102 100 109 90 78 104 99 115 94 94 129 124 113 114 120 119 125 112 109 95 115 124 129 122 107 115 122 124 127 111 136 140 149 132 126 124 139 131 131 141 130 123 122 120 117 119 126 123 123 116 115 94 86 92 92 93 98 104 121 126 154 152 162 153 137 127 126 113 108 130 117 131 100 126 64 74 
119 115 102 98 104 119 114 128 135 108 101 119 123 90 122 128 95 103 97 91 77 98 93 120 104 115 147 136 122 120 127 135 135 119 116 90 111 124 124 126 108 110 122 122 123 121 141 133 151 136 128 125 131 135 121 134 127 119 124 120 118 120 120 117 121 122 120 110 92 97 103 92 109 99 103 110 135 144 148 158 142 140 131 120 104 127 117 142 103 110 89 58 
120 127 100 110 111 110 108 124 131 97 96 122 116 96 126 119 100 93 97 100 78 104 105 110 120 134 149 139 128 131 131 137 127 122 123 108 107 112 122 122 111 104 117 115 123 126 126 132 139 130 129 125 128 135 123 128 128 121 122 124 123 114 126 121 125 123 120 121 105 101 110 98 105 99 97 98 107 127 144 142 148 139 136 133 118 110 105 126 142 107 99 53 
117 118 110 109 108 104 101 133 125 98 94 123 102 92 125 122 95 99 99 103 92 111 104 110 123 146 144 139 126 133 127 136 130 118 123 113 120 107 113 121 116 110 115 117 121 121 118 131 130 143 124 125 129 131 130 128 130 122 121 124 125 116 128 124 124 121 122 121 120 110 113 115 104 108 88 106 88 115 122 136 133 144 132 123 126 113 116 95 159 123 100 43 
112 123 113 107 117 101 98 140 126 97 101 115 96 97 130 123 104 107 106 100 101 118 117 106 135 146 147 138 130 135 125 133 129 124 117 110 122 109 110 117 117 113 117 120 120 114 121 131 129 137 130 119 124 123 127 126 132 127 128 120 127 118 125 125 124 125 124 119 122 117 116 113 117 110 95 90 95 92 114 122 135 133 138 118 118 118 121 95 154 129 106 46 
107 135 97 105 122 97 110 125 117 95 96 109 92 103 143 116 112 118 101 110 105 117 116 104 132 141 134 131 131 128 125 120 129 122 124 112 122 113 118 119 120 125 119 121 120 121 121 123 125 131 130 118 127 123 128 127 133 130 125 120 122 125 123 128 129 127 126 121 128 130 110 125 119 124 107 100 101 90 97 117 116 134 123 114 120 114 121 106 132 131 105 77 
101 125 99 108 118 106 109 119 111 95 95 113 95 112 143 113 116 127 112 113 119 120 109 110 126 126 115 122 126 128 120 119 126 125 120 121 117 116 115 118 124 128 122 120 123 120 127 121 122 126 128 123 126 125 124 125 131 123 127 125 119 126 121 132 125 123 124 121 123 128 116 117 120 121 112 115 114 103 88 109 109 121 124 111 119 105 127 116 117 141 94 79 
114 114 111 106 117 118 106 111 106 91 95 109 97 130 135 113 122 131 121 112 124 121 114 96 111 112 105 116 126 123 113 120 119 123 116 125 119 118 119 120 119 125 122 123 127 120 124 121 121 126 125 120 125 121 125 132 129 126 118 125 118 120 115 124 124 120 123 126 123 126 115 116 122 125 121 114 126 117 91 104 108 110 123 109 118 109 117 123 114 131 115 61 
120 120 117 101 108 118 103 107 102 83 92 115 99 140 131 118 121 138 118 120 108 124 121 100 96 102 99 107 114 113 114 112 117 116 117 120 116 116 120 119 119 121 121 121 125 119 123 121 119 127 125 124 124 125 123 129 131 121 118 122 123 123 118 124 119 115 118 119 118 124 122 112 117 123 119 117 120 116 104 104 107 103 116 110 116 116 111 121 133 117 106 69 
113 119 120 108 106 118 110 105 94 78 104 104 117 137 136 129 121 132 120 123 107 123 116 118 104 103 98 102 113 112 114 116 114 111 114 118 121 118 118 115 117 122 122 121 127 124 123 124 117 122 126 127 128 124 126 125 118 115 120 120 126 125 118 121 119 120 120 117 116 117 118 118 115 117 125 116 121 122 117 103 107 118 104 110 112 115 119 115 141 123 94 91 
108 113 129 113 112 109 112 107 95 84 92 108 108 142 133 137 126 123 120 116 109 117 109 117 108 104 107 110 111 114 115 115 115 111 112 116 116 121 116 119 116 120 119 120 123 122 123 120 113 121 128 130 127 125 116 122 122 122 122 124 122 125 118 121 124 122 122 122 121 124 125 125 120 117 126 124 121 124 121 113 104 109 108 99 122 115 117 125 125 144 76 119 
96 100 127 122 110 113 103 115 101 90 92 100 109 143 131 144 125 118 116 117 117 124 116 113 108 110 108 111 117 116 119 115 117 112 111 115 115 118 116 115 118 120 119 118 121 121 116 124 117 121 128 128 127 123 118 119 123 122 121 119 123 120 118 123 122 125 125 123 130 126 128 126 123 116 127 125 120 127 127 112 110 107 102 111 115 119 114 140 118 143 98 102 
94 90 112 133 115 112 107 103 109 95 89 96 108 144 131 134 133 120 115 127 124 127 121 118 116 108 102 109 118 115 112 117 114 111 114 116 112 115 113 118 117 114 118 117 122 121 114 120 117 117 124 124 121 127 121 114 121 124 118 116 124 121 116 118 120 123 122 130 128 131 133 128 134 125 127 128 119 128 122 117 109 106 100 109 121 119 112 154 116 146 83 129 
104 73 113 111 124 112 105 102 96 85 95 90 119 150 127 122 127 129 130 135 123 129 131 126 122 118 105 100 111 115 110 113 114 112 115 115 111 116 112 115 115 115 115 117 122 116 114 122 120 118 120 123 119 122 117 116 121 123 119 116 120 124 121 119 121 122 128 131 128 137 131 135 138 132 133 124 127 126 128 116 110 102 99 106 121 117 107 150 129 122 91 139 
103 77 103 114 117 109 113 100 87 86 88 101 119 134 122 110 113 129 144 136 125 131 127 127 125 121 117 112 109 116 118 114 113 106 112 115 115 115 112 114 111 112 117 119 122 120 113 122 119 115 125 119 119 116 115 116 120 121 117 119 120 118 118 125 123 127 124 127 131 129 129 129 133 138 129 129 126 129 127 119 104 106 97 111 115 114 119 141 145 118 99 144 
121 81 84 111 122 113 110 99 86 79 79 109 127 124 123 121 122 131 147 147 134 133 127 134 122 123 120 120 117 111 117 113 114 112 114 109 111 114 113 114 113 113 112 115 118 120 116 118 119 119 122 119 118 114 116 115 116 117 116 120 117 113 115 123 125 125 127 132 126 129 129 137 127 127 129 127 124 119 115 118 104 101 101 111 120 118 120 148 158 128 108 142 
135 83 82 105 114 122 115 95 88 74 95 114 132 127 112 123 137 140 151 144 144 141 146 143 139 122 130 128 124 120 118 108 113 117 117 112 107 113 112 111 114 113 108 118 115 113 113 116 121 118 125 116 113 114 119 119 116 117 119 123 119 119 121 125 125 127 130 135 141 140 135 139 135 124 123 111 123 115 115 93 105 101 98 115 121 112 118 151 153 140 109 156 
125 96 81 100 116 118 117 85 86 84 99 123 132 126 125 129 159 171 167 171 157 169 178 179 170 155 159 142 141 129 116 107 104 113 113 102 100 111 106 106 111 111 109 110 111 113 113 114 118 115 118 116 116 118 123 123 121 128 129 140 141 139 141 142 145 137 140 147 145 153 145 133 131 118 105 88 100 98 84 77 77 98 99 113 122 115 121 156 149 126 111 133 
134 96 94 91 118 116 105 83 80 86 105 128 137 136 148 155 157 173 182 189 194 214 211 207 213 227 223 202 185 163 144 130 126 127 125 96 91 92 90 94 93 95 88 88 94 97 108 104 112 110 112 119 125 128 138 146 149 154 156 168 161 161 165 167 156 157 161 151 145 146 138 134 121 120 100 80 78 89 77 57 69 85 105 115 116 118 119 155 152 122 97 123 
117 100 90 97 112 121 91 82 85 84 131 156 165 147 153 155 178 190 190 195 185 187 193 196 216 236 233 208 201 191 188 191 181 181 173 143 127 108 106 96 92 88 71 71 69 79 84 93 99 103 109 121 134 151 158 170 173 174 183 189 180 181 182 196 179 168 167 156 148 134 128 134 132 130 124 112 93 92 84 65 64 78 103 117 116 116 131 150 149 127 76 110 
123 90 98 95 111 112 88 77 77 95 161 181 173 146 137 146 174 198 184 147 129 141 145 145 165 159 174 166 192 211 201 207 203 207 219 196 164 142 135 114 113 101 83 81 75 76 73 91 90 97 101 119 146 168 171 179 196 204 213 225 220 211 195 214 209 184 157 164 137 136 133 123 132 141 138 138 136 108 113 109 78 90 109 115 113 136 129 159 143 140 58 102 
121 98 91 103 114 92 82 73 73 132 189 179 161 139 116 114 140 124 91 64 58 69 53 52 62 62 84 96 122 139 159 170 187 192 202 216 194 169 163 159 121 112 99 89 96 86 93 97 100 96 100 117 147 163 173 188 216 219 216 214 196 171 159 142 150 123 118 112 108 92 105 103 106 144 164 159 182 168 166 149 118 94 107 121 112 146 140 146 144 128 80 74 
123 100 93 114 108 90 69 67 83 157 183 183 151 134 101 97 105 92 78 50 46 33 17 0 17 18 37 46 70 94 118 125 141 146 156 174 179 185 189 189 169 129 124 102 112 107 107 114 117 110 106 128 139 145 171 169 178 183 164 136 130 122 116 105 94 82 91 92 99 94 87 101 105 123 187 190 176 179 173 167 137 117 111 110 120 145 149 143 132 125 91 77 
134 114 94 117 109 84 67 66 95 187 175 167 151 118 81 91 114 129 133 114 98 74 69 60 62 70 86 90 97 101 94 90 82 96 104 121 123 131 164 172 171 152 134 128 135 123 118 123 122 121 121 134 137 138 152 130 120 124 116 108 100 103 97 90 69 67 72 72 83 72 62 70 71 69 82 148 153 155 151 162 135 120 107 110 119 144 152 129 135 119 82 76 
131 125 97 128 104 87 70 64 113 195 177 157 154 99 87 118 149 178 182 172 152 146 166 185 181 184 186 196 180 152 134 128 126 111 113 99 104 107 120 140 144 139 131 121 123 134 123 130 126 127 132 134 148 140 119 104 100 88 91 88 91 81 78 66 72 82 79 77 87 96 105 103 95 65 42 44 108 111 120 147 131 109 97 112 123 141 144 133 133 123 81 89 
128 121 110 127 105 78 70 64 112 197 172 160 128 91 113 138 164 171 177 173 149 147 173 185 186 185 145 180 188 156 139 138 140 135 142 132 111 106 109 126 141 137 129 110 112 112 116 127 130 129 135 125 141 124 118 110 98 110 106 128 138 114 116 138 162 166 169 170 193 154 139 149 130 103 78 33 46 95 103 138 121 95 95 114 124 131 133 132 134 116 87 91 
130 125 116 123 95 69 66 59 113 204 163 151 117 95 123 141 149 151 158 142 105 85 137 165 148 125 90 107 152 114 86 107 134 100 154 149 133 105 99 111 130 126 107 121 95 113 97 115 125 131 133 121 116 114 114 128 131 138 156 176 195 150 124 187 206 209 185 205 225 203 155 145 134 121 122 98 39 66 108 146 132 76 92 113 134 142 137 115 133 117 96 78 
147 142 125 124 83 61 74 57 126 204 152 145 121 113 116 126 132 137 131 98 69 74 118 141 108 41 25 75 121 80 43 58 140 124 100 173 128 122 97 97 108 114 102 128 102 89 99 104 133 134 133 110 98 97 127 149 128 110 137 174 178 151 165 165 180 173 153 183 176 164 163 159 124 116 124 150 71 57 105 157 141 81 87 105 147 152 160 136 123 122 95 101 
155 147 110 130 84 69 67 62 130 196 139 141 120 115 100 104 109 115 98 92 66 88 89 130 114 36 8 89 141 145 28 53 159 124 133 158 150 139 120 88 100 102 119 142 116 83 83 114 138 136 137 101 78 88 124 120 113 94 95 162 145 106 148 126 139 130 90 167 192 159 126 168 131 112 117 142 99 77 105 154 159 84 73 108 140 155 154 146 129 135 94 102 
158 123 114 122 86 73 75 52 129 182 134 143 120 119 103 92 82 89 98 74 49 76 128 170 187 76 7 64 80 140 69 79 200 146 97 178 161 143 135 100 76 86 134 132 123 105 91 117 137 140 135 89 90 96 102 128 141 105 67 102 134 119 194 102 85 83 36 84 135 169 160 121 130 126 137 136 108 99 116 154 175 87 74 102 131 159 149 143 123 122 104 77 
143 123 104 126 84 68 70 47 135 180 132 143 143 138 126 108 90 78 80 47 32 86 132 193 235 132 42 50 79 65 64 89 193 188 136 125 187 159 135 139 88 81 140 133 117 116 115 122 129 130 122 112 110 97 110 141 117 134 103 80 144 96 180 87 77 107 131 107 127 121 182 168 121 118 122 121 125 110 126 165 161 93 74 112 123 154 157 136 127 130 107 72 
148 125 101 132 83 61 64 53 128 172 133 151 149 151 144 131 111 98 88 69 16 62 121 150 209 173 92 63 65 47 58 161 218 190 161 151 125 152 153 127 92 55 93 131 127 113 113 124 131 107 115 133 135 132 99 110 138 187 156 71 142 111 78 88 66 91 174 172 143 124 104 148 110 93 103 131 139 122 125 151 160 92 64 120 124 149 155 136 115 133 108 68 
149 124 96 146 82 58 77 52 119 172 132 153 149 155 143 142 129 107 103 86 57 45 65 100 150 176 139 84 88 103 138 188 184 146 127 145 163 175 162 122 81 54 84 111 124 123 114 124 123 101 114 145 159 144 122 133 118 150 170 97 81 74 44 36 50 121 180 189 165 131 87 79 106 92 120 128 142 127 127 147 146 90 71 107 138 133 157 136 119 128 118 63 
143 123 108 138 92 67 82 50 102 175 133 146 153 148 140 136 131 108 105 99 70 70 69 71 84 122 139 141 143 163 171 165 147 130 123 140 177 168 141 89 79 64 79 118 116 114 125 131 127 110 120 147 157 150 144 131 116 119 139 136 112 114 74 67 123 165 138 126 106 84 87 86 90 101 124 148 149 128 124 133 155 76 77 113 133 122 160 138 124 124 120 61 
147 130 106 114 121 64 96 45 93 170 132 151 150 148 133 135 129 120 97 103 90 75 83 86 95 90 92 98 104 128 138 150 149 142 125 107 119 121 105 81 91 81 91 112 119 117 122 135 125 121 124 134 151 128 112 134 139 124 129 121 149 154 113 102 98 109 90 73 76 84 97 117 130 133 140 147 144 129 119 136 138 76 87 106 123 128 157 145 128 126 129 68 
167 138 107 91 149 82 98 34 77 161 139 147 156 150 133 130 121 119 102 92 87 79 66 76 84 88 102 104 101 119 129 121 123 127 120 116 123 125 121 102 103 97 99 122 126 122 122 137 123 119 127 131 141 138 90 88 119 134 142 137 139 136 101 94 94 111 121 116 107 106 111 118 140 145 142 156 148 134 121 156 116 76 105 103 109 126 152 134 135 125 141 79 
161 135 127 87 153 127 115 35 56 147 138 143 157 145 134 130 126 116 100 103 95 85 72 70 65 63 71 68 78 90 98 103 112 121 126 135 138 143 128 111 117 102 106 130 128 115 118 130 114 119 125 128 139 147 122 83 81 112 130 151 156 161 116 96 108 114 123 122 110 116 127 135 151 153 153 156 153 139 122 162 104 56 126 111 93 130 138 137 135 121 139 91 
151 121 125 97 142 135 131 55 20 128 134 146 145 147 136 128 131 120 110 115 105 98 89 82 80 75 80 79 84 95 91 99 113 128 136 141 142 136 126 118 116 113 110 122 118 112 116 127 117 117 124 131 135 149 138 111 82 81 93 126 140 168 118 87 91 107 119 114 118 121 144 145 158 154 152 148 145 134 129 164 89 56 135 117 83 126 138 144 137 121 132 114 
134 124 107 122 149 150 137 89 12 99 141 136 148 147 138 129 125 121 115 116 115 114 105 97 95 90 88 92 97 101 104 111 119 129 135 136 137 129 125 116 116 110 105 119 117 107 114 128 119 122 135 127 139 140 141 125 112 91 85 93 103 124 94 72 75 89 96 104 101 115 133 138 150 150 151 145 137 129 135 160 69 86 126 120 91 123 126 144 142 121 126 122 
136 129 110 142 127 183 132 116 23 74 139 144 144 147 138 120 129 119 116 120 119 118 111 109 109 105 105 103 106 112 110 118 121 128 133 133 128 126 121 116 113 103 104 113 113 107 113 126 115 126 137 125 137 140 146 132 126 118 109 103 101 113 79 57 56 68 81 91 99 110 121 130 142 143 136 139 129 121 152 128 82 122 99 105 120 121 123 145 133 128 130 133 
145 128 120 147 89 200 138 110 54 62 140 129 149 150 140 125 121 120 114 122 120 115 113 113 115 114 116 113 113 119 114 116 120 119 133 129 123 127 124 110 106 103 98 114 117 111 114 124 119 125 136 128 140 141 154 138 131 128 131 135 133 145 119 90 78 78 90 101 114 121 125 123 128 136 131 127 124 122 153 101 119 124 83 97 143 138 123 149 128 128 124 132 
143 125 136 155 92 159 167 96 76 37 114 124 146 145 147 130 121 120 117 121 122 112 116 116 116 116 119 118 119 118 122 118 122 124 132 129 127 132 121 113 102 98 101 112 118 109 111 115 110 122 139 133 143 142 150 142 137 136 141 142 142 155 140 111 90 84 96 103 110 122 125 126 126 124 126 134 122 137 128 92 153 130 82 104 147 154 123 142 133 117 144 131 
120 118 151 153 117 110 180 128 90 34 82 118 139 142 151 130 118 122 119 121 124 113 118 114 120 119 120 118 121 120 123 119 128 137 143 136 127 138 119 114 106 100 100 106 110 110 103 100 107 115 137 138 142 150 151 149 142 140 137 143 147 157 150 128 101 89 95 105 106 113 123 119 125 116 120 127 130 131 102 105 161 136 49 119 144 154 170 104 147 109 132 152 
112 102 163 148 145 116 146 196 129 51 66 112 135 140 149 135 130 127 127 123 122 116 116 120 119 116 122 117 121 121 125 125 132 147 153 144 141 137 122 106 107 101 100 99 105 96 89 94 101 113 126 136 150 156 157 149 146 139 139 139 145 153 154 142 112 86 98 99 113 108 119 122 124 121 117 126 121 122 86 120 190 100 37 118 141 151 183 134 126 128 107 145 
113 109 125 132 153 128 102 183 202 90 65 104 128 139 152 142 132 130 132 126 124 120 119 121 124 117 123 123 124 126 130 133 136 156 157 151 141 122 111 99 98 108 96 99 98 90 85 93 105 114 130 135 147 164 158 156 147 146 145 143 141 148 157 146 129 99 99 101 106 112 119 126 128 123 123 119 126 109 75 152 191 75 54 113 150 144 183 158 129 120 118 116 
115 111 113 114 140 123 123 104 190 151 108 88 115 134 146 147 134 128 135 128 130 118 121 125 124 120 122 122 125 134 134 143 148 159 156 146 114 99 93 85 101 111 98 96 96 88 82 96 116 117 125 130 121 149 164 158 147 149 144 142 143 147 155 158 139 118 103 104 109 118 120 126 125 125 116 117 129 92 99 178 176 65 94 102 135 149 164 168 160 131 110 121 
109 112 113 113 115 106 113 104 96 138 173 89 105 130 143 144 141 135 138 134 134 127 121 130 124 122 127 127 130 136 141 152 152 160 150 141 100 92 96 78 96 108 94 93 94 95 95 98 124 121 114 128 110 115 167 164 156 146 148 146 145 146 151 166 144 132 111 109 117 117 121 127 119 128 116 119 120 81 136 192 126 81 110 111 121 142 146 161 163 149 129 101 
112 110 114 121 108 116 108 90 66 72 188 112 94 126 141 148 134 137 141 137 137 135 125 132 130 128 131 135 141 137 147 153 158 152 144 118 126 121 124 82 90 100 92 93 101 117 122 114 122 121 108 134 112 88 146 164 162 152 149 149 148 147 148 158 147 125 113 114 112 114 119 117 121 127 115 112 118 110 155 148 103 119 108 115 121 128 140 144 158 151 141 112 
108 113 111 118 113 119 120 82 72 67 191 143 97 117 136 147 142 141 142 145 138 139 133 140 134 138 141 143 148 148 158 151 162 153 128 94 140 168 157 117 99 96 91 92 110 132 143 161 136 125 92 118 104 65 119 147 160 156 152 150 150 146 145 144 142 129 111 116 112 116 117 112 122 115 118 104 141 128 83 113 99 129 116 116 118 121 132 147 147 148 158 119 
108 114 112 113 117 121 122 90 71 54 189 183 119 123 138 143 141 139 145 149 143 141 142 143 145 145 148 151 153 158 152 151 151 142 113 85 109 140 183 180 133 126 115 122 134 145 171 188 183 161 124 127 124 71 94 120 141 143 153 148 143 144 143 138 138 130 115 119 113 119 118 114 114 120 107 103 172 105 62 109 101 125 119 121 115 128 120 150 137 151 160 137 
114 113 113 111 120 122 123 94 77 50 164 204 136 143 129 136 136 140 145 148 144 147 145 144 151 152 151 153 161 158 153 139 121 113 109 80 79 89 132 164 163 158 162 161 171 172 191 211 201 179 168 142 132 100 102 113 137 141 138 136 133 136 130 134 144 137 130 119 117 119 118 117 114 113 102 118 172 78 72 82 113 118 121 111 121 134 107 137 141 150 158 142 
110 116 113 107 104 137 121 101 78 54 143 217 145 144 132 128 139 142 142 148 143 153 147 148 155 158 155 148 156 151 133 127 105 105 97 82 57 29 56 120 154 177 186 197 197 203 200 224 211 210 180 133 97 107 123 123 126 134 132 130 127 128 134 143 153 141 143 128 117 118 124 114 115 106 100 125 169 64 83 83 116 121 119 110 124 128 115 120 149 144 156 150 
110 124 112 106 111 128 126 108 71 62 110 224 154 141 139 123 136 134 147 150 143 153 150 152 155 159 156 150 142 129 116 106 105 100 94 76 75 35 3 56 107 157 186 206 212 212 210 212 209 200 151 103 96 149 149 129 117 132 141 132 135 144 152 159 150 144 144 140 116 118 127 114 110 108 96 149 152 63 86 85 119 120 115 113 120 132 125 114 139 142 156 153 
113 120 114 105 124 124 122 118 79 66 79 217 167 142 143 120 128 130 143 140 148 146 151 149 158 149 152 143 128 122 115 114 111 97 84 75 62 58 30 23 50 91 143 175 189 176 171 162 142 120 109 110 148 172 158 145 124 125 146 147 149 152 167 163 148 145 145 143 126 120 125 114 105 102 101 156 131 75 83 99 119 113 124 111 114 136 126 108 127 140 159 154 
121 112 113 112 126 130 117 112 105 72 74 210 191 146 138 121 114 124 129 132 137 133 141 147 146 147 143 129 133 132 130 121 113 100 85 86 74 63 37 21 36 60 82 107 111 112 106 99 75 85 117 144 162 164 163 159 149 138 151 177 166 175 172 162 153 141 142 143 133 114 127 114 105 97 108 176 116 76 83 115 113 109 126 113 121 138 131 116 108 140 153 159 
119 114 113 115 120 129 105 112 121 82 67 164 224 144 143 132 107 107 120 123 124 130 138 135 141 137 149 141 148 152 138 123 110 102 97 94 75 68 44 26 34 50 59 54 56 63 62 61 63 98 139 166 171 164 159 160 164 169 159 181 198 176 164 155 148 146 134 132 126 111 118 106 108 98 127 191 93 79 86 122 109 115 116 120 110 136 134 118 102 132 153 153 
116 118 126 114 127 117 109 115 141 80 64 134 246 152 145 133 107 99 108 115 119 123 131 127 135 140 157 165 175 163 134 124 113 119 103 96 84 69 49 29 35 42 50 43 43 57 55 69 86 123 141 158 163 157 165 165 178 182 179 175 197 177 146 142 141 140 125 126 122 104 108 113 109 98 156 169 81 69 103 114 112 114 119 125 115 131 135 120 108 114 157 151 
120 127 118 117 121 115 111 121 139 87 78 110 232 183 141 135 119 100 98 115 113 116 118 121 133 142 177 182 177 194 177 161 154 150 119 113 108 82 49 33 29 29 25 18 32 36 49 66 91 103 126 129 139 148 161 172 176 188 178 168 165 173 131 125 120 119 113 118 117 103 102 109 109 114 169 139 61 82 113 119 112 114 114 124 116 135 135 124 111 105 154 147 
129 122 120 119 114 114 115 130 122 95 97 110 176 237 136 138 123 109 92 103 123 110 106 119 119 138 167 138 141 151 182 222 225 193 170 167 168 162 151 99 67 41 29 23 35 36 59 84 97 106 107 111 117 134 155 168 173 185 185 156 137 163 123 107 102 110 122 129 121 108 97 105 110 125 177 107 60 85 125 112 127 107 115 120 118 130 140 120 117 119 135 157 
128 125 117 115 111 122 117 129 114 101 117 126 128 255 154 124 124 115 99 104 118 123 122 131 121 133 121 81 79 77 118 182 231 228 211 220 209 209 227 204 174 126 90 72 66 83 122 136 141 154 152 146 142 150 169 185 175 167 176 145 108 118 106 96 110 124 140 138 129 111 110 106 111 157 148 80 61 103 122 116 117 125 115 119 117 129 136 118 119 114 140 141 
134 115 116 110 122 114 119 119 112 102 138 132 122 210 215 119 119 120 103 103 113 135 135 139 134 117 88 57 33 14 34 79 136 158 192 232 220 200 229 229 224 204 178 157 147 149 165 182 176 183 199 198 183 173 175 174 157 113 107 113 72 90 92 93 108 125 141 153 126 115 108 105 123 167 116 60 78 115 120 119 120 122 117 118 117 129 134 114 110 114 153 132 
117 107 118 114 124 124 121 108 106 119 141 161 127 148 234 156 113 123 114 105 104 120 141 138 146 121 80 86 71 61 31 1 20 50 84 118 170 170 193 187 190 213 228 229 232 222 200 173 163 162 193 218 216 194 182 155 123 69 65 74 71 87 101 111 132 135 154 145 123 114 105 106 147 155 73 56 99 117 127 121 122 115 127 116 116 126 128 121 104 121 153 150 
115 117 115 115 133 123 117 106 118 112 136 170 152 121 201 211 119 122 110 110 103 104 128 122 133 113 97 113 115 107 102 78 25 19 37 50 63 91 109 96 101 156 179 211 189 191 180 151 143 127 155 182 159 125 101 85 70 54 54 76 96 103 124 148 152 144 145 127 113 113 110 122 158 115 45 78 116 119 125 129 118 120 127 115 117 130 125 124 108 118 159 141 
114 113 116 121 128 122 107 112 125 105 135 169 170 133 154 222 146 116 114 112 109 97 102 111 117 110 106 125 120 131 128 127 110 75 57 75 57 43 21 43 68 83 118 151 120 118 125 131 141 139 131 125 105 91 69 83 117 125 115 129 123 125 151 152 144 137 122 111 108 112 120 136 138 65 64 97 123 117 129 124 124 119 125 115 127 124 123 124 117 115 152 146 
105 118 116 121 124 119 101 116 115 98 136 171 173 137 148 217 145 111 119 109 116 101 95 96 111 113 108 115 127 129 135 139 121 128 106 106 123 120 88 47 33 52 66 91 92 102 97 90 84 98 119 120 124 124 142 158 150 144 155 142 125 127 143 135 133 129 112 106 113 117 141 121 90 72 89 116 124 121 124 132 126 120 121 126 121 122 122 122 109 117 146 142 
110 111 122 119 127 109 103 117 102 107 138 168 178 140 146 223 150 100 126 111 108 116 102 98 108 105 114 114 124 129 128 138 146 128 138 116 117 128 147 141 117 93 81 73 78 99 119 116 128 122 128 120 129 137 148 144 142 136 144 122 123 128 125 127 128 115 107 107 112 138 137 76 73 88 106 123 123 124 123 132 118 124 127 119 118 122 120 123 107 121 145 136 
111 112 121 124 113 97 112 99 101 111 136 166 180 142 144 224 161 99 111 134 107 117 117 103 101 107 103 115 116 117 122 109 142 147 135 140 124 106 130 150 170 168 158 146 155 154 163 163 156 129 113 107 110 125 122 113 128 127 131 126 129 124 120 118 120 106 114 112 132 142 90 45 80 126 117 124 124 127 123 123 125 120 136 107 121 118 123 122 110 117 133 137 
107 123 128 119 105 98 118 103 99 116 140 166 179 139 153 221 158 117 94 117 123 113 120 113 106 111 103 101 107 107 106 111 108 132 136 138 131 131 124 134 141 147 142 140 141 141 135 136 130 129 129 126 126 124 124 116 135 130 135 126 128 122 126 124 110 109 112 132 137 80 38 65 112 135 122 117 131 129 123 125 120 123 123 112 124 124 119 121 110 128 129 134 
107 123 133 116 100 112 120 109 107 122 140 169 174 128 155 224 160 112 108 92 114 121 116 123 115 123 108 96 103 106 105 105 107 95 114 135 129 126 125 120 125 130 134 134 131 124 118 121 120 124 126 130 127 114 121 133 134 129 129 126 128 132 134 116 112 110 136 142 91 44 67 90 133 135 119 120 136 120 123 128 123 113 120 120 130 126 119 117 107 125 135 131 
112 128 125 118 98 120 110 100 122 131 148 165 176 135 168 223 154 117 113 101 87 118 127 119 124 120 125 112 106 105 110 112 106 97 87 93 112 122 129 122 117 121 118 125 120 122 118 121 118 120 122 122 109 112 126 128 128 127 131 126 137 138 129 114 112 136 160 90 44 64 103 122 137 136 119 130 134 119 123 122 115 112 115 120 134 114 122 118 118 130 131 129 
120 131 121 116 110 110 116 107 134 139 145 166 176 132 171 223 152 118 117 108 91 97 117 128 124 124 126 115 117 104 106 106 109 99 87 81 72 81 98 101 105 105 103 105 115 120 121 118 111 110 104 104 115 124 127 133 129 131 140 136 145 128 119 120 120 149 122 52 66 91 126 125 131 126 130 125 126 118 125 118 112 115 117 120 127 119 119 112 124 133 135 133 
113 129 113 109 112 106 109 121 136 143 151 162 171 121 175 224 147 123 115 110 103 90 96 118 131 133 130 116 123 110 108 103 110 98 93 95 77 72 73 80 80 81 77 84 89 92 91 100 106 106 125 123 134 140 136 140 138 139 147 140 135 119 126 120 121 129 77 58 81 121 124 123 122 129 124 132 123 117 128 111 109 123 124 125 122 115 119 113 129 135 130 133 
110 128 113 108 119 104 114 121 144 147 146 167 153 128 170 204 140 129 118 109 110 104 92 95 124 129 137 129 117 117 114 111 110 106 103 99 97 84 84 78 75 76 69 70 82 86 98 100 123 129 138 146 145 146 137 141 133 139 146 132 125 118 112 99 120 112 64 74 101 117 116 121 123 122 119 126 119 119 117 115 103 137 137 118 124 114 117 121 133 132 132 123 
117 123 117 114 117 116 119 132 143 150 152 164 147 129 168 174 143 124 122 113 105 103 98 101 100 121 137 138 126 123 120 122 112 110 100 101 101 97 101 94 92 94 93 96 103 97 106 108 116 124 131 132 131 129 132 133 137 140 144 124 120 99 94 100 128 98 66 95 104 119 114 120 120 118 120 122 112 124 112 113 122 136 128 123 118 114 121 124 134 133 140 114 
105 119 122 121 119 117 129 138 140 149 167 144 144 131 154 158 149 124 126 122 105 99 104 100 99 108 114 143 143 136 131 121 124 117 113 109 104 108 112 106 104 112 113 116 109 116 114 120 119 123 121 125 124 128 131 136 135 144 123 103 94 88 90 121 129 79 95 98 113 114 115 121 122 122 117 118 119 113 112 116 135 122 122 121 113 114 128 135 131 135 129 118 
115 116 130 123 133 121 133 134 147 161 157 142 139 137 135 164 147 130 121 115 112 102 100 100 101 102 110 118 149 143 139 132 136 130 119 118 111 112 112 119 111 115 118 119 118 120 124 124 125 125 126 121 122 128 132 135 143 126 96 81 84 88 98 136 117 95 99 107 117 115 115 123 119 121 115 122 115 112 120 118 131 121 118 120 113 124 131 136 135 135 122 117 
116 118 127 130 131 130 127 135 151 169 154 127 144 132 141 149 146 130 127 118 113 112 104 101 98 100 107 111 124 148 145 140 140 141 131 130 119 117 118 120 118 122 125 124 123 128 128 126 128 129 125 131 127 127 128 134 124 91 84 81 87 91 112 119 123 101 94 115 119 111 121 117 116 116 116 111 114 125 119 119 125 116 117 122 113 127 135 128 139 121 125 110 
