P2
# Imagen
92 112
255
115 130 129 111 126 121 133 120 135 132 100 90 93 103 102 83 83 95 82 62 58 80 140 139 137 156 157 150 166 145 129 146 155 155 155 146 146 147 160 158 147 165 161 167 155 164 162 157 160 171 187 175 172 175 154 152 160 155 142 136 138 129 124 121 124 113 116 116 111 111 120 110 118 126 126 130 130 109 120 130 122 127 112 117 117 118 133 120 111 115 136 127 
110 125 127 126 109 114 134 134 119 118 124 96 89 95 76 76 74 71 98 69 87 132 134 138 147 142 145 140 143 138 123 131 138 138 142 133 137 138 148 142 135 142 147 151 137 141 131 134 131 127 171 174 167 174 171 176 172 169 161 156 159 149 139 138 147 131 131 146 122 104 113 113 121 116 124 113 112 116 128 136 127 115 112 119 118 110 127 111 139 118 127 136 
109 108 102 118 130 101 118 128 125 102 98 91 79 77 75 54 62 78 110 126 118 132 134 148 150 133 139 129 130 140 125 128 141 139 130 132 127 139 133 127 134 134 132 131 138 125 130 125 136 117 144 168 163 175 173 175 177 173 173 167 163 159 156 153 147 147 131 124 156 160 127 97 108 113 110 126 112 126 112 134 128 110 118 134 119 112 128 122 135 118 131 118 
115 102 111 93 118 107 112 118 99 82 89 84 72 68 74 71 85 94 159 136 124 135 151 127 127 123 138 142 130 132 140 119 129 138 129 131 122 137 139 125 131 137 127 120 136 127 122 133 130 128 122 134 143 145 148 151 143 150 164 173 172 167 160 152 171 155 150 134 141 125 150 169 122 110 112 115 116 112 126 114 133 119 127 118 121 126 118 115 124 114 120 137 
127 124 101 107 91 106 111 89 72 85 88 77 69 79 101 106 133 131 148 149 141 157 139 110 118 122 140 132 139 128 137 121 125 132 130 127 119 133 137 133 128 133 130 125 128 129 138 111 127 135 128 113 136 134 133 140 127 121 127 139 150 161 177 162 162 180 166 152 155 154 116 136 168 163 119 95 104 112 119 120 125 134 124 124 114 123 121 113 122 127 135 119 
113 100 119 95 88 92 73 78 77 64 75 84 121 134 139 124 115 139 142 159 159 146 130 103 113 133 135 122 133 126 133 125 121 135 122 124 125 137 139 137 129 133 130 137 114 123 138 131 109 132 133 124 130 137 134 137 138 121 126 124 138 121 153 148 140 160 178 164 164 166 155 116 124 148 185 148 94 118 108 115 125 127 123 126 122 109 133 114 127 135 132 117 
120 106 104 94 89 87 75 65 72 54 91 132 158 143 123 118 135 154 161 165 135 127 117 108 110 132 131 129 132 125 129 128 122 132 131 125 124 127 130 140 135 124 137 136 124 123 126 150 119 123 127 133 126 135 140 128 136 125 139 120 138 130 123 128 125 116 152 124 160 162 176 147 126 132 136 163 172 118 106 108 113 132 123 121 127 119 125 134 111 112 124 118 
100 110 98 93 78 61 51 73 54 81 117 149 159 139 137 138 157 168 159 127 135 119 119 107 114 122 125 133 121 126 121 126 128 126 140 124 126 132 121 137 139 112 126 137 132 109 120 151 146 122 113 136 134 123 136 130 135 129 131 142 120 139 127 120 137 112 139 124 120 149 134 142 138 158 130 138 164 168 122 90 116 114 120 128 121 115 122 121 116 113 131 119 
113 83 98 72 61 49 55 66 89 142 155 131 151 140 143 163 165 156 129 124 143 122 129 120 115 124 130 127 133 122 117 122 122 123 145 130 123 133 128 129 143 124 114 140 141 110 119 133 146 141 116 121 139 142 121 121 146 141 133 140 130 134 135 110 135 123 131 117 114 133 143 113 118 124 144 130 140 152 172 151 89 102 108 114 116 133 126 118 127 127 113 122 
88 91 70 55 50 61 59 88 145 156 141 141 136 153 161 143 137 134 131 131 137 121 139 133 118 121 125 133 135 128 112 110 126 123 147 135 125 130 128 121 137 139 114 136 154 106 109 131 143 142 128 115 126 143 130 101 131 154 139 145 132 136 146 127 117 138 124 125 112 128 141 132 125 119 106 121 127 144 134 160 177 97 98 108 122 123 122 116 116 127 130 118 
85 68 59 47 47 62 85 132 152 148 142 140 155 150 141 128 128 128 121 126 145 126 143 133 120 126 117 133 142 125 110 107 126 128 146 136 127 140 128 117 133 136 118 129 155 138 101 128 129 139 141 111 117 133 129 110 108 148 150 142 117 138 141 141 109 125 134 125 119 141 138 124 131 126 122 109 114 115 124 118 164 177 89 98 118 114 129 127 117 119 127 116 
68 51 57 57 70 95 145 144 140 139 140 132 132 136 122 126 127 126 134 119 135 129 135 130 131 122 125 130 142 120 108 112 123 124 140 128 122 141 129 114 121 136 107 126 144 148 122 132 127 130 144 122 112 124 119 125 118 128 148 155 113 113 153 126 121 101 142 99 124 133 146 118 113 145 110 124 118 116 96 104 152 168 179 95 106 119 116 121 121 121 124 125 
63 59 48 65 108 154 150 134 130 131 125 122 125 136 126 122 125 129 122 118 135 123 127 133 128 127 127 124 139 124 97 114 126 127 127 125 117 143 129 107 112 142 99 113 118 131 127 142 133 116 141 131 120 121 114 136 109 124 126 142 142 99 147 128 126 106 124 99 110 118 150 134 98 143 128 109 128 122 112 100 95 148 160 167 97 111 110 114 124 123 123 125 
55 58 45 83 156 175 127 132 123 134 122 127 139 136 119 117 136 131 130 118 123 130 117 120 126 122 120 115 138 119 106 116 126 131 144 115 116 142 124 106 104 135 120 106 120 108 113 137 147 117 122 133 110 117 110 113 123 124 123 120 148 101 125 149 121 120 111 110 113 115 147 120 122 109 145 115 115 130 113 115 110 102 137 168 153 92 104 110 115 121 129 125 
55 44 63 125 193 153 113 126 126 133 123 133 148 138 125 106 140 135 131 126 134 122 122 129 123 123 117 115 128 111 112 116 136 123 136 114 105 142 127 103 95 126 132 121 126 116 112 103 147 113 117 132 107 113 104 119 113 127 126 118 139 110 105 148 122 133 116 114 106 138 131 136 116 120 132 147 119 120 132 110 120 124 110 120 196 99 99 112 114 108 123 129 
52 65 86 160 182 132 116 129 135 130 126 127 144 139 126 122 124 130 134 129 126 117 118 122 121 123 122 113 121 107 119 118 130 118 126 110 97 123 126 99 96 107 117 121 120 110 125 96 124 124 100 120 114 111 97 114 121 119 126 116 131 113 100 129 128 122 129 126 93 141 123 144 100 122 119 141 142 109 136 131 114 118 121 124 137 128 104 118 124 108 115 117 
59 74 146 170 152 125 128 132 123 140 120 126 138 131 122 124 124 130 127 124 140 121 125 122 117 129 118 122 115 99 117 103 121 110 113 99 102 103 94 95 86 94 117 104 122 101 119 102 111 120 89 114 115 105 94 98 114 100 91 119 123 116 96 120 127 105 103 132 102 115 138 132 114 108 127 116 135 122 131 131 116 118 122 126 123 140 92 112 113 118 116 114 
61 124 155 145 120 122 128 131 131 124 123 122 133 127 116 131 134 126 131 121 136 118 125 113 116 132 115 114 108 100 111 103 103 98 97 92 81 91 86 92 86 78 103 115 104 91 99 96 95 105 92 103 96 122 84 87 107 80 84 100 113 94 90 92 119 108 91 118 124 92 114 124 128 114 121 106 133 123 109 134 123 110 112 127 131 131 102 98 99 118 112 120 
68 144 148 103 133 132 123 128 132 123 122 119 114 130 122 129 125 115 125 115 118 123 122 124 114 118 104 119 109 90 98 87 98 90 90 98 78 96 85 95 86 78 97 105 105 82 88 95 73 84 70 85 79 94 97 76 100 81 66 80 108 80 75 72 100 108 92 94 138 104 101 118 122 119 111 115 125 127 126 133 126 108 114 112 113 103 138 99 104 96 112 116 
115 132 119 101 128 135 124 122 121 121 115 111 117 121 118 130 117 118 132 134 109 115 119 113 130 104 111 112 111 79 81 94 85 87 81 100 86 92 87 93 95 90 85 93 96 75 80 92 63 79 77 85 84 81 103 78 82 85 56 60 110 93 71 64 73 83 119 73 128 113 91 124 125 120 108 107 111 136 126 132 122 123 116 100 105 102 144 111 112 98 105 105 
124 128 97 107 112 143 121 123 121 120 105 127 126 117 119 133 114 113 110 120 107 118 113 104 124 103 117 102 96 85 77 97 90 81 72 100 91 95 90 88 88 87 73 98 98 74 75 88 75 60 82 92 81 78 81 70 78 83 74 53 96 94 83 62 65 77 118 85 106 113 98 108 122 120 106 102 108 135 120 131 113 122 123 108 119 118 129 143 79 103 97 120 
114 118 86 115 106 133 123 119 120 124 110 120 124 118 128 134 117 114 102 113 109 124 127 99 128 96 108 97 84 96 85 98 84 85 66 95 92 84 86 71 89 90 87 73 95 70 75 92 77 57 78 99 86 82 86 86 78 81 97 71 81 88 95 76 60 67 112 93 97 97 113 115 112 115 113 121 107 132 148 118 119 138 142 121 127 124 97 152 87 87 120 110 
115 116 108 121 112 110 123 117 131 132 124 120 112 130 140 144 110 116 112 113 110 122 121 114 126 103 116 95 82 105 106 109 89 91 81 92 89 79 91 77 85 87 91 84 72 88 80 103 95 51 83 120 84 99 85 108 87 95 107 95 88 97 106 105 83 81 104 108 94 93 107 126 115 114 101 118 117 136 129 115 137 131 144 129 125 131 104 138 102 75 136 103 
130 109 123 129 111 106 113 120 134 135 129 128 122 132 132 150 119 111 121 129 111 110 132 126 124 115 125 115 102 108 113 127 95 114 106 108 100 93 106 103 97 104 103 99 100 105 98 129 116 76 97 127 115 111 96 99 113 104 114 119 109 108 110 118 103 108 98 108 92 110 102 134 133 122 115 112 134 131 115 119 131 120 134 128 121 115 120 128 124 49 118 110 
129 136 123 147 120 117 117 116 133 153 131 126 134 150 139 137 132 123 129 126 120 124 128 143 128 115 124 128 113 132 119 121 117 124 128 134 133 118 127 120 127 131 134 122 123 137 122 129 149 115 129 143 146 136 134 124 124 132 117 133 123 129 123 139 123 121 113 123 112 124 117 133 133 127 136 127 121 134 120 125 123 124 128 121 131 101 128 118 147 75 83 111 
130 149 131 120 137 130 122 131 126 154 141 117 131 149 141 146 129 144 135 124 129 135 144 144 144 139 138 142 142 130 137 132 141 159 166 157 163 145 143 136 145 154 153 158 146 151 155 158 153 142 127 167 150 149 157 146 142 152 133 128 141 149 128 150 145 148 124 131 129 138 128 143 132 133 137 125 119 114 107 122 123 127 132 121 137 124 138 122 148 98 69 106 
137 138 126 123 131 140 125 124 127 153 142 127 145 158 142 143 122 151 143 143 120 131 139 139 145 146 138 137 158 154 131 132 140 147 177 162 163 174 155 168 154 177 185 173 164 160 164 172 157 138 145 158 160 139 157 148 156 160 143 130 134 151 131 155 150 150 109 116 123 132 126 127 136 108 120 137 135 132 126 115 108 108 117 131 128 123 130 141 144 110 63 116 
128 150 123 127 130 124 137 128 129 147 137 130 137 152 134 145 122 140 136 130 140 132 122 135 115 138 146 140 136 145 137 121 108 120 134 148 134 144 153 164 160 178 173 163 163 154 163 156 162 143 137 157 137 138 136 142 148 140 142 125 136 140 130 131 124 150 106 119 138 136 130 131 122 100 126 132 143 137 137 121 121 112 106 108 129 124 128 140 151 156 66 94 
134 139 130 129 119 138 132 152 127 130 130 141 149 157 131 131 122 125 135 128 138 124 125 117 102 118 112 119 88 122 108 85 91 102 83 116 119 122 116 117 146 151 153 148 162 131 150 151 147 159 116 131 137 118 106 117 147 122 129 112 117 109 108 128 124 132 112 121 127 142 152 137 148 115 129 133 128 134 130 118 114 124 117 124 129 117 121 138 137 159 75 61 
145 130 118 126 144 129 121 129 134 128 127 139 134 140 135 116 139 120 135 135 130 141 131 118 109 104 93 79 73 91 110 77 81 92 82 85 113 102 99 101 104 146 143 122 144 125 113 125 144 119 101 94 104 96 96 104 110 109 107 95 111 91 99 114 106 103 111 117 133 152 138 122 131 115 120 129 130 123 128 121 124 126 130 127 132 120 126 124 132 156 95 41 
143 129 125 123 138 122 124 132 133 127 130 140 146 137 134 129 123 131 111 131 130 140 139 129 112 113 97 73 79 81 86 115 100 92 106 88 91 116 87 116 131 124 147 95 102 110 96 98 100 86 97 103 110 118 88 96 121 94 102 129 123 134 90 127 134 134 149 137 152 161 139 124 104 116 134 132 124 118 124 130 127 134 125 129 137 121 126 135 126 147 126 38 
123 138 122 133 121 122 124 134 133 132 141 151 131 135 138 110 117 125 110 128 137 141 123 108 121 134 129 119 111 107 110 119 123 130 144 118 116 128 97 110 127 143 127 116 92 115 100 92 102 86 110 121 92 122 109 108 98 88 119 115 128 134 116 129 127 144 163 150 153 125 126 122 124 137 129 129 135 125 120 136 120 129 133 129 137 121 128 132 117 155 120 49 
122 137 124 149 116 114 123 138 134 133 147 158 134 129 128 114 103 120 109 110 119 135 110 103 119 135 136 117 105 117 112 153 146 118 130 145 133 130 124 128 123 131 120 132 153 132 122 111 123 109 111 100 99 115 102 87 113 110 99 99 113 135 120 105 113 147 167 157 137 152 121 120 121 121 147 135 119 117 129 126 126 112 119 137 119 141 121 144 118 125 124 59 
119 142 130 134 115 118 120 133 133 139 149 148 139 134 127 126 99 122 113 112 115 123 127 102 140 122 118 108 124 128 142 123 148 130 136 146 139 117 110 110 131 136 130 152 163 137 115 106 108 98 114 115 116 108 100 113 103 112 98 102 120 148 112 116 127 136 171 154 170 153 123 143 129 126 134 132 135 116 126 125 131 127 114 129 122 128 137 129 126 111 136 67 
128 138 145 140 123 113 125 125 130 154 146 132 135 132 139 122 93 124 120 135 135 128 125 108 130 108 114 97 116 144 123 159 150 158 122 153 125 127 114 106 140 130 136 126 148 124 116 100 111 94 108 98 100 107 106 112 99 110 112 91 107 132 130 128 106 132 150 150 167 160 144 147 149 128 117 115 129 127 116 124 123 132 130 126 105 127 135 135 124 120 139 92 
129 131 153 152 126 120 122 136 143 138 143 144 138 137 154 122 106 137 110 147 152 134 110 114 121 112 99 121 116 128 137 133 130 124 134 152 116 114 97 115 138 114 132 138 116 141 119 114 103 102 104 114 104 120 100 105 103 98 95 97 105 111 106 131 96 126 123 155 167 166 159 154 155 134 138 118 122 134 119 122 127 123 120 146 118 109 128 142 136 113 144 122 
124 127 141 146 138 125 138 134 145 142 154 140 146 156 148 106 104 132 126 127 124 120 106 104 122 104 103 122 128 112 106 127 131 109 132 134 127 96 117 130 145 134 134 125 116 141 118 130 96 114 125 116 124 113 103 131 104 109 107 106 113 120 105 122 110 107 118 138 137 139 140 143 144 141 139 146 127 132 125 127 136 119 117 125 141 123 125 128 132 101 134 150 
122 121 132 142 126 143 145 137 137 147 148 145 152 145 127 122 114 127 123 119 118 122 99 111 104 97 98 125 133 109 126 108 140 130 127 136 129 117 103 119 131 122 126 111 124 114 133 119 112 110 107 104 106 120 102 108 95 113 90 107 107 116 100 127 106 124 124 122 140 151 155 142 137 135 147 158 149 147 130 123 136 134 122 106 137 133 139 135 119 116 114 171 
133 120 126 135 128 151 150 135 148 154 162 154 142 138 123 118 110 123 128 104 107 108 110 104 127 113 107 115 115 119 115 121 115 139 135 122 133 101 118 127 119 117 131 125 125 134 122 120 101 105 109 100 112 116 101 113 99 118 103 96 95 94 95 110 104 105 107 116 113 146 144 123 138 144 147 140 164 155 144 132 144 136 123 108 123 135 131 139 114 96 115 158 
144 116 125 128 137 144 159 132 148 161 153 150 156 138 114 105 118 128 124 104 122 99 110 127 110 119 113 126 123 137 136 127 131 123 135 127 109 110 118 129 105 111 120 124 128 109 120 113 124 105 93 120 106 116 119 105 110 101 115 103 94 107 116 97 102 121 119 98 123 137 120 132 134 131 134 147 155 171 151 146 144 147 120 117 124 129 133 129 129 103 109 150 
139 112 125 138 135 157 152 143 146 162 154 147 160 126 100 98 106 126 117 133 106 118 127 129 131 108 123 118 108 135 119 113 121 119 129 117 125 110 107 113 126 116 113 125 119 115 116 120 117 113 99 109 115 108 107 99 110 99 120 119 112 98 112 118 110 100 92 99 121 120 143 119 139 130 128 137 152 168 169 154 151 143 134 125 124 130 132 129 124 119 103 152 
132 120 138 135 139 150 152 140 155 161 159 145 152 114 102 107 112 112 107 126 121 122 139 115 118 133 138 134 134 117 132 108 120 112 134 122 104 119 100 117 110 103 122 121 103 127 118 123 105 103 109 96 102 119 104 95 107 117 102 115 105 105 105 104 102 91 104 120 112 113 106 136 124 142 140 130 135 154 175 168 171 158 140 129 120 128 131 135 108 128 93 137 
127 133 140 131 138 138 144 153 163 160 153 153 147 100 94 113 124 102 111 100 110 128 138 142 150 151 130 148 142 141 138 140 142 128 131 145 117 121 112 119 110 114 109 124 116 130 97 128 124 120 106 116 101 96 119 101 123 117 120 102 119 122 127 138 123 118 107 127 123 107 129 120 135 123 124 135 138 137 168 172 172 168 148 134 128 126 129 138 122 113 110 102 
138 122 138 140 134 136 150 154 161 162 153 145 138 97 98 103 134 130 122 127 134 143 155 157 133 160 143 152 140 161 144 136 141 160 137 131 146 146 120 120 123 104 107 106 117 119 123 102 113 106 106 104 119 101 112 111 111 113 141 134 119 136 135 125 122 132 140 129 120 118 138 127 124 123 127 129 140 136 153 179 177 169 153 132 126 123 128 137 127 109 124 106 
141 126 132 141 140 136 142 151 159 164 146 155 126 107 98 107 134 124 130 130 147 152 148 156 142 163 136 150 139 166 134 147 153 146 138 135 136 139 126 141 136 106 120 123 124 120 101 119 116 106 121 100 104 115 105 122 130 145 141 136 148 127 151 143 146 143 140 124 140 121 131 140 140 140 136 138 144 130 143 171 179 162 158 133 129 121 129 133 122 119 124 128 
134 128 120 133 132 139 140 144 156 164 161 147 124 110 99 115 134 134 144 153 151 163 159 135 156 142 136 126 149 155 135 136 158 147 148 155 147 135 145 149 138 113 128 118 126 128 111 102 131 117 121 112 115 104 123 120 140 145 117 124 131 144 146 141 134 136 142 137 142 137 129 152 150 156 148 136 131 136 151 159 176 176 149 148 126 123 130 133 126 115 133 118 
128 131 131 126 129 135 137 140 151 156 167 140 132 100 114 105 116 128 140 127 140 147 131 127 129 107 128 143 127 122 134 126 140 153 148 145 134 134 142 136 121 115 125 113 128 128 125 118 132 105 100 99 128 109 135 134 132 139 129 143 124 123 146 135 136 122 110 105 112 128 130 120 123 140 145 147 148 134 145 158 175 170 156 137 129 116 128 142 118 128 117 131 
128 136 120 116 138 126 140 145 140 153 160 145 122 90 118 107 122 136 142 114 115 119 119 124 103 126 106 133 122 131 126 127 138 145 139 132 129 134 141 148 121 131 116 117 113 112 112 111 115 106 123 130 135 121 126 129 144 133 146 133 144 120 132 115 109 126 120 115 122 119 128 132 121 140 135 150 161 148 142 162 184 185 150 139 130 115 132 139 112 126 120 118 
135 141 124 125 121 135 135 147 147 158 162 154 114 92 106 118 130 116 124 127 105 123 120 132 137 128 136 116 136 130 138 134 126 123 119 126 138 146 140 146 135 136 130 136 113 112 129 107 118 123 114 116 129 140 122 128 136 117 118 116 132 131 126 130 128 106 124 123 116 112 126 126 119 105 129 146 162 152 135 156 186 179 151 137 133 123 127 142 119 120 122 96 
121 137 130 122 123 131 137 143 159 155 162 137 108 97 115 135 126 128 111 127 114 138 126 120 123 126 148 139 131 127 137 135 133 125 144 128 130 129 121 142 143 133 117 112 117 133 122 118 113 136 128 133 115 138 126 124 129 123 124 125 136 130 134 133 133 107 127 126 129 123 121 126 121 121 122 137 156 144 142 161 185 176 156 136 133 125 124 151 129 129 131 87 
119 126 133 127 120 122 135 143 152 160 153 130 107 108 112 143 129 135 111 112 133 141 122 137 144 151 142 156 126 145 154 155 147 138 150 143 134 118 124 137 129 128 126 128 106 119 126 128 126 131 113 112 134 147 128 143 126 140 128 143 135 126 124 137 118 126 110 116 123 110 105 105 132 114 123 140 144 159 151 154 174 176 155 141 127 124 131 150 147 133 134 91 
112 130 128 127 125 126 120 137 148 163 147 104 88 115 123 129 113 107 112 138 126 138 130 130 144 138 156 154 164 149 151 148 131 124 131 116 140 142 123 129 111 139 120 126 111 124 129 116 126 102 116 115 124 118 124 137 127 146 144 141 129 137 132 121 132 138 134 116 106 100 107 98 107 112 132 138 134 156 146 146 170 179 153 137 131 126 134 148 145 133 140 100 
116 128 142 124 126 116 124 138 146 155 132 103 92 99 120 127 105 123 108 124 116 111 118 123 127 142 104 131 136 117 119 114 121 122 114 114 101 121 117 124 102 119 131 106 102 98 113 123 110 102 118 107 114 116 130 111 140 116 111 106 105 126 104 116 110 132 118 118 124 85 97 96 95 83 111 110 120 121 142 145 147 163 149 141 127 129 135 152 145 138 138 109 
115 127 131 132 127 117 126 148 151 145 125 85 73 104 96 121 118 111 126 118 111 93 120 108 92 81 84 95 112 106 69 79 93 96 71 92 100 99 85 94 89 87 90 106 97 107 83 97 99 102 88 105 126 102 94 107 107 108 106 96 94 105 96 84 108 111 90 96 96 81 72 64 74 59 74 97 100 111 139 130 143 156 151 141 128 137 133 156 131 120 151 98 
119 127 129 120 118 119 137 144 155 141 100 60 70 87 110 111 110 118 125 130 138 128 125 112 85 67 52 81 70 54 59 42 67 59 43 55 66 91 63 69 68 77 70 81 68 82 69 81 81 91 77 98 105 90 82 83 88 86 91 81 91 89 87 61 67 107 67 38 51 67 76 62 64 58 59 69 92 98 123 140 148 144 158 144 126 139 147 158 134 132 143 103 
113 130 131 123 114 127 152 156 160 136 72 52 49 98 124 127 118 126 144 180 182 175 138 138 129 85 66 79 69 58 47 61 63 38 10 39 50 52 51 45 64 79 58 69 53 49 66 61 62 75 75 79 90 71 65 80 70 71 74 64 59 72 87 92 79 83 65 29 37 54 61 82 65 53 43 45 74 88 122 163 162 147 158 150 126 140 150 159 137 126 141 110 
118 125 134 120 112 144 154 164 170 118 50 56 86 118 138 158 148 181 201 209 198 183 187 183 155 132 112 126 126 119 112 102 87 48 26 37 57 56 33 33 42 57 54 77 59 61 79 54 70 55 69 92 70 67 59 79 49 54 69 60 88 96 99 109 98 92 78 54 57 84 78 95 101 89 70 70 69 99 96 143 176 173 165 158 137 143 156 170 139 127 134 126 
124 128 136 111 121 143 161 167 166 90 46 70 107 146 164 183 187 187 184 167 166 165 170 169 159 168 152 177 189 178 162 151 137 111 88 85 73 49 43 34 59 70 71 72 81 85 96 75 75 78 81 87 94 96 96 86 91 90 110 120 112 112 112 118 105 118 115 106 109 128 144 141 138 137 89 83 92 96 90 92 158 192 160 161 145 146 160 156 143 115 134 125 
114 129 132 113 120 147 154 166 152 73 56 78 118 142 177 176 142 121 78 102 117 112 123 137 131 129 143 161 173 173 163 153 161 152 122 92 85 75 47 41 54 37 65 78 89 100 96 86 96 99 107 93 111 126 123 140 172 159 147 127 138 122 123 129 119 138 148 154 137 148 148 136 139 154 161 111 99 100 96 94 119 176 164 170 150 146 154 151 136 118 133 116 
123 117 135 119 124 155 159 168 136 70 59 91 120 159 171 148 89 48 32 62 69 85 76 72 92 105 124 121 130 147 138 128 123 127 101 103 78 75 69 47 39 40 63 96 88 110 98 94 115 92 97 110 96 120 151 170 183 180 163 150 144 125 124 117 124 138 148 152 151 127 123 125 125 140 173 173 126 88 104 103 127 143 166 175 160 141 155 151 135 123 135 107 
130 125 122 115 141 153 155 176 132 65 67 114 146 176 162 99 71 73 92 82 96 116 103 100 123 131 153 121 100 99 98 115 90 87 79 85 84 81 70 69 60 49 61 81 77 82 118 118 126 118 104 120 119 133 157 152 157 159 139 142 128 110 96 69 70 89 95 98 105 90 70 73 77 82 108 138 136 99 85 92 135 150 138 181 167 142 143 142 132 123 136 124 
139 134 125 124 139 154 162 172 125 61 83 120 167 179 131 108 103 106 105 110 127 155 134 129 143 144 145 122 65 88 97 83 59 65 69 86 72 75 61 65 58 38 64 76 82 80 98 104 106 114 105 106 127 132 148 161 129 142 105 108 96 95 91 49 48 41 66 64 71 59 31 56 39 39 52 99 134 121 87 80 124 171 134 175 184 152 136 129 139 131 135 135 
150 138 130 125 143 155 167 168 110 57 86 136 148 169 145 118 126 119 118 143 156 171 151 124 126 161 168 137 103 108 118 96 59 76 114 97 68 51 54 83 66 51 39 88 80 70 104 103 110 112 97 117 139 145 145 125 129 143 135 133 120 91 89 87 60 51 88 88 78 48 19 42 44 55 61 83 110 122 97 94 132 187 140 175 194 161 156 144 134 115 143 135 
169 148 128 120 127 153 167 161 98 71 96 144 146 165 157 151 129 129 148 142 170 141 156 107 85 139 188 146 98 71 142 110 83 110 112 123 66 53 71 76 87 39 48 88 82 89 94 96 104 111 98 144 146 180 143 142 148 152 186 154 158 132 128 118 115 122 103 130 100 65 65 35 51 44 51 99 110 111 98 98 128 195 151 177 203 170 158 143 150 122 118 140 
169 150 128 101 134 162 160 171 114 80 109 135 139 142 146 159 143 142 124 166 178 162 120 67 58 143 226 229 212 121 132 116 51 109 106 99 111 80 64 104 93 71 76 100 77 88 105 116 110 130 123 147 171 153 159 126 128 145 183 199 192 139 93 183 180 146 124 156 166 56 66 87 87 69 78 105 112 112 108 96 121 191 163 168 196 189 165 156 158 136 120 115 
168 143 128 99 136 155 156 172 107 93 118 140 116 134 126 142 138 152 142 177 182 143 95 71 45 148 243 248 249 216 146 140 34 28 63 121 114 124 95 103 148 93 108 85 101 86 98 113 97 122 130 161 150 181 131 100 147 146 175 217 176 183 107 195 217 166 89 111 131 116 86 102 127 100 89 86 107 123 121 100 122 196 166 177 191 187 170 161 159 142 132 124 
180 137 127 108 123 156 151 181 115 93 124 127 109 125 101 128 127 127 148 146 214 165 93 94 78 104 191 224 224 255 205 108 56 21 59 83 140 115 106 118 105 124 97 96 112 86 111 106 112 136 148 147 155 132 147 144 124 94 129 215 195 185 184 191 203 187 85 70 100 121 128 110 104 105 88 92 121 134 121 115 127 194 176 181 201 188 172 167 164 137 131 140 
170 129 139 99 132 162 154 187 118 90 116 136 123 133 123 108 113 138 132 148 162 172 163 116 99 95 122 169 193 220 176 106 66 73 112 124 101 96 92 132 133 128 101 95 114 100 113 110 107 165 140 136 128 131 147 111 134 142 131 198 228 211 184 202 169 104 90 95 113 143 177 146 94 98 90 106 130 124 137 116 131 200 180 175 218 195 171 167 160 135 130 166 
159 138 150 95 114 163 177 188 118 98 116 124 132 135 123 114 130 141 142 137 171 156 143 144 153 115 118 115 118 126 122 130 110 93 100 119 91 109 99 109 127 129 121 89 107 100 107 126 130 158 166 139 130 129 122 136 130 147 145 149 217 195 150 168 144 75 86 96 115 146 143 121 114 85 86 100 118 131 140 130 123 216 189 167 219 195 172 168 168 141 126 168 
163 146 161 100 106 171 155 180 122 100 112 134 141 127 118 113 112 118 140 147 148 164 149 139 128 162 150 141 159 146 145 117 124 109 115 97 87 91 108 118 122 138 132 93 104 126 104 124 147 156 142 158 133 150 124 118 112 144 149 166 168 171 139 146 164 136 144 151 136 132 127 122 107 99 99 112 121 131 134 131 132 215 190 155 224 199 171 169 166 136 130 149 
174 151 157 103 85 177 152 183 134 98 120 136 132 123 130 140 121 135 129 159 165 139 169 157 155 134 152 134 159 141 135 138 116 128 112 124 121 100 108 128 140 165 152 132 130 147 136 122 144 151 152 163 136 132 143 139 127 130 134 158 166 156 123 122 136 159 142 135 142 129 130 109 97 89 84 116 127 136 139 115 153 213 168 160 209 203 173 179 151 140 127 143 
162 164 164 119 96 138 135 184 151 100 106 114 121 149 130 117 138 124 128 138 142 152 144 158 160 150 166 149 150 136 159 148 128 121 134 118 116 119 147 171 148 156 162 141 133 151 132 142 153 156 163 163 160 126 145 159 140 122 147 163 168 161 139 123 138 137 127 129 150 140 137 114 105 99 113 132 136 126 154 116 166 240 143 152 202 201 183 176 152 146 120 146 
153 141 173 171 136 106 124 176 173 99 103 127 132 147 146 120 126 131 123 128 136 119 146 144 160 138 137 150 141 135 142 137 123 139 134 112 134 143 153 164 164 160 162 160 151 150 147 125 142 163 174 175 166 128 130 132 139 144 153 163 172 156 134 112 133 118 118 120 149 129 132 120 125 108 103 114 120 120 143 129 187 230 127 152 197 192 185 179 152 147 127 138 
145 131 154 198 158 107 110 144 193 105 105 135 139 134 147 144 120 126 122 122 121 134 122 136 137 131 130 152 123 128 144 135 141 127 113 139 124 125 153 148 168 176 156 137 142 154 144 120 150 146 166 164 156 152 112 126 111 132 160 180 189 197 167 133 128 146 144 122 124 149 140 128 128 136 126 131 137 128 134 135 197 201 136 160 180 178 191 168 161 150 133 126 
142 130 156 223 189 112 131 112 170 124 102 123 127 139 145 134 125 134 124 109 110 127 135 135 135 145 126 139 121 124 142 131 127 127 134 115 119 140 122 146 158 165 159 141 139 150 136 122 143 158 159 160 152 140 124 106 101 110 130 169 184 196 170 146 131 148 123 132 131 150 142 114 128 129 124 119 143 146 128 150 200 173 142 170 168 164 177 161 170 157 132 127 
133 148 173 204 201 130 143 112 144 146 105 122 132 132 145 126 135 138 112 133 126 103 115 121 141 131 137 140 138 117 134 122 132 132 108 135 137 136 123 146 131 143 162 132 141 147 144 129 124 139 148 134 127 109 99 105 116 96 119 132 140 158 147 137 128 123 111 113 122 125 123 116 112 135 121 129 130 144 135 186 176 175 164 180 132 166 159 163 165 161 143 129 
118 154 179 193 202 154 127 124 135 152 113 116 116 151 134 144 137 136 112 120 114 107 132 135 116 129 112 131 112 118 118 113 113 123 111 125 128 120 123 113 143 143 144 117 116 128 135 126 118 152 135 127 130 117 89 102 98 86 108 120 123 129 120 129 112 108 113 111 120 107 125 124 124 122 129 121 142 132 137 190 155 142 172 176 130 170 138 152 175 172 145 129 
114 139 186 180 209 197 139 131 136 154 116 110 127 126 120 124 129 122 122 134 124 121 132 114 138 136 118 131 130 124 134 118 126 127 115 100 115 126 129 121 125 128 137 127 104 122 99 114 116 142 118 119 128 120 107 92 101 101 102 124 113 138 122 114 107 97 95 120 118 109 107 127 123 136 130 131 134 131 186 187 132 140 179 172 143 147 117 134 172 166 150 134 
131 135 170 183 207 237 154 100 121 143 129 119 122 145 139 138 118 118 120 128 124 111 129 123 121 127 115 121 137 124 116 128 121 114 91 98 113 123 118 137 118 118 115 120 110 89 102 110 135 151 135 119 121 107 114 89 82 85 105 102 115 128 144 133 97 89 87 114 113 106 104 111 131 131 134 135 140 143 179 160 108 136 201 169 146 117 111 133 155 179 148 132 
150 127 126 166 178 244 224 124 111 127 124 124 120 134 135 119 105 134 109 114 105 111 127 117 116 114 123 115 128 123 108 117 102 113 99 100 98 130 114 116 111 112 120 107 95 91 88 115 140 148 129 139 124 109 98 107 86 102 101 106 108 132 130 120 118 92 102 109 91 112 126 121 130 119 111 122 139 153 183 145 115 151 185 167 143 97 103 134 151 162 172 135 
141 131 120 123 150 211 240 201 136 123 106 121 138 133 122 105 111 129 112 133 117 116 129 129 109 137 132 127 114 106 125 110 96 97 93 108 127 123 124 143 104 104 128 102 101 105 101 122 136 160 158 140 135 131 103 96 95 94 86 86 103 115 125 116 101 90 77 85 87 100 96 113 136 132 120 131 133 168 173 113 117 171 152 177 145 90 100 127 150 154 161 137 
146 124 124 125 111 136 201 210 197 168 89 120 138 139 127 124 120 120 123 119 130 109 125 109 124 119 128 135 126 108 114 104 95 95 91 121 135 126 109 138 99 89 118 100 112 80 111 114 133 149 165 154 165 141 115 85 90 105 100 92 112 126 135 142 109 113 91 96 81 86 99 99 130 121 116 140 132 173 146 116 140 153 154 160 126 94 102 122 148 157 146 137 
144 126 131 124 114 126 142 170 186 204 129 118 130 128 142 132 112 109 121 130 130 125 109 130 136 133 116 116 113 121 115 93 95 93 94 124 99 84 91 126 101 112 112 118 105 86 117 115 110 113 128 124 150 169 107 105 91 106 105 91 102 105 111 131 114 106 102 89 83 98 93 101 121 107 137 136 155 170 138 152 151 138 155 126 120 105 109 127 141 154 147 138 
131 129 128 122 120 124 135 155 163 191 121 124 138 135 129 116 101 104 112 124 117 101 125 117 112 110 130 123 111 108 98 116 107 101 113 130 79 70 66 91 82 92 84 107 92 106 114 120 111 99 99 86 82 147 107 98 74 74 99 74 104 97 113 103 112 90 80 96 80 102 115 108 127 107 134 136 134 159 195 166 132 150 141 115 117 111 118 120 137 149 139 134 
134 131 138 122 123 123 129 148 153 173 111 138 146 141 144 127 127 111 109 120 108 103 102 104 124 102 126 112 104 102 100 113 104 112 126 143 115 93 77 81 70 60 71 61 83 93 118 122 135 111 86 84 83 102 98 92 58 67 46 94 103 91 85 92 86 83 73 85 99 82 108 118 114 107 145 155 110 174 202 155 134 165 129 115 112 112 110 126 127 150 142 135 
126 131 132 129 118 126 120 150 143 176 114 120 172 158 134 127 126 117 98 104 129 111 110 101 101 99 119 98 106 105 105 99 116 116 107 130 143 121 91 78 74 59 51 50 66 72 88 101 98 112 111 122 115 115 107 53 43 41 50 79 95 92 74 104 102 82 88 81 98 97 106 105 116 137 144 140 111 173 192 161 145 170 120 120 118 103 115 119 132 134 155 144 
128 138 130 130 126 121 123 143 148 168 126 104 159 157 161 123 130 109 121 102 122 123 97 120 117 95 93 90 88 92 80 82 103 94 97 110 143 162 142 89 79 81 65 46 65 60 59 88 98 100 120 142 147 103 81 42 65 58 77 74 69 94 93 109 88 104 89 99 83 112 102 99 122 138 143 132 105 188 185 149 159 161 115 125 119 109 107 121 131 128 151 147 
127 135 134 127 119 131 116 143 151 160 152 88 168 157 154 145 122 120 125 121 127 114 106 111 115 100 81 78 96 106 98 103 106 94 114 119 114 151 191 147 129 96 77 62 58 31 52 67 79 118 154 155 163 70 70 59 83 71 78 59 74 85 79 94 76 79 104 105 96 91 88 123 137 135 130 112 115 195 176 154 164 153 112 119 123 108 109 113 125 131 141 150 
129 139 127 128 114 135 122 135 144 154 173 80 150 157 159 144 129 128 114 109 128 123 117 115 88 94 79 89 99 90 98 81 97 105 121 108 133 163 164 187 183 146 102 106 65 63 81 91 109 162 178 158 118 79 89 89 91 92 81 73 94 77 100 109 82 95 97 82 101 90 90 122 123 136 140 112 134 195 161 155 164 149 107 124 123 115 112 112 126 127 141 152 
134 138 126 120 110 139 123 131 136 147 178 85 120 172 160 153 131 118 121 132 113 112 114 101 110 102 95 98 82 90 83 93 84 92 111 132 127 154 167 182 187 170 164 149 126 110 136 134 152 169 161 158 121 98 94 93 112 107 112 97 86 110 89 84 76 98 99 102 82 82 94 136 138 135 127 87 154 193 148 163 167 135 107 122 122 107 113 113 126 126 136 141 
132 134 123 113 123 142 132 127 129 142 185 135 81 185 160 156 135 132 141 132 113 121 123 105 108 107 95 80 94 88 82 94 98 112 111 119 122 143 157 185 191 172 176 196 192 181 169 153 170 137 130 116 112 115 106 102 122 104 115 104 92 109 90 110 97 93 75 96 96 91 101 142 139 140 124 85 179 176 159 164 168 119 115 116 127 108 117 116 120 124 135 135 
130 122 114 111 131 140 133 125 113 146 187 158 80 166 144 158 148 143 128 125 118 138 117 124 117 118 102 89 72 70 88 107 97 106 102 102 122 133 151 165 185 181 197 191 197 174 172 161 135 125 134 125 109 120 131 122 113 128 128 132 112 112 114 97 116 84 85 102 105 98 128 135 146 135 103 111 202 158 158 177 161 111 117 113 124 114 116 120 117 122 128 137 
121 111 114 120 136 139 125 118 119 142 179 194 110 138 160 149 148 154 133 122 140 132 143 139 131 108 79 86 90 58 75 84 70 83 96 105 102 132 106 124 157 167 178 185 166 166 167 160 136 111 114 111 105 115 144 120 129 97 100 123 108 99 95 114 103 88 79 98 108 114 127 150 147 142 104 148 199 147 166 174 143 109 122 110 126 111 117 120 119 124 121 140 
108 114 121 127 139 134 118 117 132 138 171 201 143 95 147 151 146 147 140 144 134 143 133 141 138 122 114 129 104 95 56 41 29 35 44 79 82 116 109 97 87 123 162 170 159 155 122 125 104 82 109 99 100 102 123 109 111 100 83 90 86 77 88 106 101 95 97 92 117 124 156 150 151 124 92 178 179 153 169 168 122 114 122 116 122 115 108 125 116 117 119 131 
107 129 123 128 140 124 108 120 144 132 154 197 196 88 116 164 137 140 146 122 120 119 106 102 134 129 146 169 171 133 91 58 40 0 17 29 35 58 65 88 83 93 99 110 95 101 90 91 70 68 79 85 80 91 92 79 94 92 73 105 94 69 64 79 76 93 102 108 135 141 148 152 132 100 143 190 152 165 173 147 112 115 115 121 122 116 116 126 119 124 120 127 
113 133 131 134 137 121 117 125 144 124 139 193 204 122 82 150 130 150 143 141 130 114 112 88 100 131 171 197 189 202 162 155 114 55 52 17 31 42 42 57 53 67 63 72 56 39 57 47 63 70 60 62 46 33 42 58 68 89 94 95 96 58 71 86 85 112 108 122 142 154 160 144 123 104 175 167 156 178 164 123 119 111 114 120 123 114 117 128 129 117 133 122 
132 140 128 131 132 108 113 137 145 108 138 175 210 173 83 113 125 136 145 147 138 130 102 91 94 105 135 144 161 154 181 213 170 147 139 135 108 106 78 68 79 65 36 44 26 19 28 25 8 63 63 51 36 9 43 52 82 98 104 114 104 113 96 115 125 115 128 137 142 149 146 129 110 130 186 145 167 172 142 109 116 118 110 120 123 120 116 134 130 124 128 129 
139 136 127 122 118 111 111 136 129 104 136 169 199 201 119 67 107 118 140 142 143 128 125 119 91 104 112 121 114 126 127 143 185 178 156 161 183 178 162 156 147 127 127 78 78 92 106 100 95 82 76 46 47 52 92 118 105 126 129 139 137 130 111 105 124 117 120 132 140 138 133 120 121 160 164 148 170 156 122 114 115 112 110 124 119 120 115 142 137 114 144 126 
141 123 119 118 120 112 114 140 111 104 146 169 177 210 147 63 86 110 130 137 147 152 138 125 103 104 119 102 103 92 96 101 122 144 161 153 173 177 187 176 175 160 156 131 158 166 178 152 146 147 146 130 124 129 139 121 91 99 115 123 134 122 118 109 115 116 118 135 144 145 128 110 147 158 156 165 163 133 116 114 114 112 107 118 125 121 116 145 132 118 140 137 
136 116 125 122 116 115 127 130 100 105 154 162 173 199 167 70 92 126 106 130 129 144 147 126 120 108 117 107 102 95 101 93 99 118 131 142 120 126 142 155 189 173 174 146 173 179 179 163 160 156 148 173 162 137 113 97 90 95 104 102 101 119 121 123 118 118 135 144 142 146 123 144 143 139 164 162 137 124 119 103 115 105 109 113 126 124 124 141 137 123 144 140 
124 132 122 124 118 121 134 119 108 113 157 158 163 197 178 82 103 135 111 105 130 135 134 140 136 125 117 105 122 97 105 123 102 118 104 114 132 122 111 91 103 130 133 151 163 131 121 114 96 99 100 111 87 94 99 101 102 104 79 86 116 126 134 124 123 145 146 154 150 139 139 152 137 150 158 134 122 124 119 101 119 104 107 119 128 118 133 143 132 126 143 138 
122 138 126 130 128 124 126 123 113 130 163 161 170 195 177 86 87 140 122 101 119 111 125 135 135 129 133 131 122 106 131 142 109 120 112 119 112 123 101 92 83 90 85 109 84 93 73 80 92 90 112 99 84 75 101 98 90 96 89 101 117 138 124 132 139 155 154 165 146 137 155 158 144 137 135 120 116 117 120 104 113 106 109 125 133 120 139 147 132 133 144 143 
133 134 127 138 137 128 125 119 121 154 155 167 171 191 168 98 103 137 146 118 109 108 104 127 119 114 114 132 135 128 148 124 128 118 118 132 140 129 129 129 125 101 116 112 110 89 109 99 117 97 89 112 98 92 104 112 82 97 116 125 118 120 132 137 154 158 157 140 132 164 165 156 140 120 113 127 111 107 112 111 114 111 115 128 125 128 137 147 130 118 151 146 
139 133 129 135 135 124 130 124 126 149 160 159 177 193 162 93 117 132 127 138 120 118 99 109 123 106 124 140 144 139 141 139 146 153 151 129 130 129 122 149 139 111 106 102 99 107 113 117 110 106 105 86 97 123 116 91 95 110 106 126 128 120 137 148 156 170 148 137 152 169 155 142 115 102 116 115 103 110 117 109 113 125 120 127 120 133 143 139 126 131 147 142 
139 123 136 143 140 124 120 127 130 146 156 167 168 191 151 84 119 143 136 140 144 117 107 106 104 102 94 112 116 138 136 130 144 156 177 173 154 153 142 155 139 150 123 140 124 126 115 112 109 111 107 94 121 102 103 109 117 124 126 123 126 142 140 152 159 154 141 162 163 162 147 115 95 98 104 114 101 119 116 117 117 136 120 119 123 141 132 127 126 129 145 141 
130 124 134 140 121 127 114 124 137 147 152 162 167 184 157 79 114 143 135 135 150 140 122 109 106 106 97 115 112 130 148 137 152 144 163 185 185 189 184 152 167 162 164 157 164 157 159 145 121 121 139 128 120 126 110 116 118 142 136 144 143 141 154 153 157 148 158 147 148 148 125 116 100 106 108 114 103 116 110 123 122 130 118 116 125 136 131 129 127 135 137 133 
131 127 142 136 115 123 121 126 143 153 151 163 166 188 145 70 116 128 130 134 144 144 145 128 107 92 103 116 93 126 132 133 140 146 173 163 179 173 177 198 175 175 184 183 192 179 184 192 165 159 158 160 136 142 147 143 138 156 148 142 147 158 141 154 164 156 152 143 155 143 131 117 107 109 113 109 107 120 112 122 124 116 117 112 129 138 131 131 138 140 138 124 
122 126 138 129 115 114 122 134 146 145 155 158 157 189 145 89 137 131 127 127 131 138 148 144 121 112 89 98 103 111 100 110 128 119 144 162 162 156 186 183 195 191 202 186 191 173 168 165 174 157 168 140 143 155 166 136 155 146 134 147 156 146 153 165 146 138 133 146 158 148 137 118 108 113 112 111 116 119 118 118 126 95 107 125 126 136 128 142 139 137 136 120 
118 123 140 119 120 115 117 145 144 148 150 153 153 184 139 123 134 129 124 128 121 148 145 137 142 124 98 94 97 92 91 96 108 129 124 141 135 162 150 147 167 150 167 162 166 152 157 159 168 164 163 144 142 152 163 159 141 140 136 141 150 159 168 152 131 126 136 162 161 146 138 113 107 121 113 111 125 111 121 119 113 103 111 120 129 130 135 145 135 142 134 126 
124 120 128 122 120 126 132 145 140 146 133 149 164 182 143 124 126 140 122 127 126 134 145 145 142 140 123 105 97 79 96 89 92 103 117 107 138 117 127 148 136 148 137 143 156 147 133 148 139 140 154 132 135 138 139 148 132 130 151 158 164 175 159 143 119 124 153 164 160 148 137 118 117 117 116 116 122 119 119 118 104 116 117 124 128 131 147 143 140 142 133 132 
126 130 127 127 123 132 142 146 141 129 128 144 166 170 163 125 126 134 132 124 132 134 133 136 144 140 135 121 100 92 83 98 84 71 87 95 114 103 109 135 120 143 122 128 132 145 144 143 145 146 138 127 146 130 135 127 128 146 163 149 160 151 136 118 98 143 166 158 153 151 130 117 125 119 121 112 123 124 112 114 107 121 116 129 130 134 148 143 138 139 133 132 
130 126 130 130 130 135 148 150 138 118 129 153 170 165 163 136 120 122 126 128 126 127 140 131 151 139 141 132 118 99 86 95 98 93 92 90 95 95 115 117 107 118 106 127 114 130 123 135 107 131 135 138 142 112 120 113 143 148 150 148 137 138 129 95 111 154 168 158 154 145 123 123 125 120 121 121 119 111 117 113 113 124 124 132 127 142 143 140 137 133 127 121 
