P2
# Imagen
92 112
255
122 122 125 122 122 123 123 125 121 124 126 120 118 116 120 122 122 117 109 117 119 119 132 137 118 103 119 125 120 120 123 123 121 121 118 124 120 126 119 126 119 125 128 124 116 120 131 121 123 115 118 123 113 112 100 84 95 114 100 99 96 116 123 120 126 125 120 129 133 131 130 132 134 127 126 123 124 122 126 122 124 125 122 125 127 124 123 124 124 124 125 124 
120 123 123 121 124 124 121 124 123 123 126 118 119 121 118 118 114 112 119 119 126 130 143 127 115 119 119 126 120 120 122 124 125 125 119 122 122 123 127 121 125 123 129 128 122 122 138 128 128 125 123 120 117 118 115 116 93 98 96 89 91 89 92 100 103 130 135 129 130 125 131 131 132 135 129 125 124 123 126 124 123 126 123 126 126 124 122 125 125 124 126 126 
121 123 121 120 124 122 122 122 125 121 119 118 117 122 115 109 107 118 130 131 135 147 140 107 125 130 115 123 126 120 124 126 124 124 122 126 124 121 129 121 127 124 131 129 130 125 134 139 123 143 129 121 118 123 122 127 126 112 115 103 88 95 84 81 77 74 124 141 143 133 126 125 130 134 134 128 122 127 124 124 124 124 121 124 124 124 123 128 124 124 124 125 
119 121 120 121 119 123 119 124 121 118 122 119 113 113 109 110 120 124 138 140 139 141 132 122 125 132 119 125 126 119 125 129 120 130 124 124 124 125 129 125 130 128 128 142 128 133 124 135 128 132 139 127 121 126 123 130 132 133 126 123 112 106 104 92 84 79 80 91 116 144 142 129 126 120 131 131 131 128 123 124 124 122 120 125 125 125 123 127 125 125 125 126 
124 121 123 120 120 121 121 124 122 118 117 118 113 105 109 121 132 135 138 134 122 129 131 120 126 134 121 128 124 121 128 125 126 126 128 124 125 128 127 123 130 134 129 135 133 130 135 129 135 133 141 130 131 126 126 125 140 135 131 133 119 130 123 117 113 104 96 83 83 90 148 146 143 130 119 127 132 133 130 123 123 119 121 121 125 125 125 126 125 124 126 126 
122 121 122 120 121 117 119 120 116 111 115 113 114 117 131 134 136 133 120 116 124 127 127 123 123 125 120 127 126 122 129 130 123 128 128 125 128 129 128 129 124 139 131 129 126 134 141 131 142 139 148 136 137 125 132 126 127 147 131 128 126 136 136 124 121 120 130 113 89 80 85 139 149 141 143 125 118 131 132 125 125 118 118 123 124 127 124 124 123 126 122 126 
123 119 120 121 122 119 113 109 108 110 113 119 134 132 139 130 130 121 113 125 128 128 127 122 130 126 124 124 129 115 130 134 127 124 128 129 130 129 132 130 127 127 147 127 122 134 144 131 141 143 149 141 142 128 134 136 129 134 142 128 118 140 142 133 125 125 125 133 127 102 80 94 128 142 147 142 122 125 126 136 131 117 121 121 123 131 124 125 124 125 126 125 
120 121 121 120 122 112 105 104 104 112 121 130 136 135 146 149 137 119 121 129 131 126 126 122 133 133 131 130 123 128 123 135 132 128 126 131 130 130 125 136 130 118 147 141 124 135 141 127 143 145 149 146 144 143 132 140 145 137 134 138 125 128 154 132 138 120 130 124 130 127 117 101 83 101 140 144 140 131 122 126 126 124 124 123 119 126 124 125 123 124 124 127 
120 121 119 120 112 104 103 106 104 122 134 136 141 153 162 150 130 120 123 129 126 123 123 127 132 137 131 133 128 126 132 138 134 139 131 132 134 136 132 134 137 117 142 152 133 134 139 128 131 158 136 146 145 150 143 136 140 144 142 141 136 123 150 138 138 132 129 128 134 119 127 127 114 91 94 134 142 143 136 129 111 130 129 127 126 119 126 124 124 124 125 124 
121 121 116 112 105 104 106 113 112 128 134 144 164 171 152 121 125 127 123 128 121 120 121 127 134 134 134 140 132 126 137 140 134 132 134 131 136 138 138 132 140 129 129 149 141 129 138 132 121 155 135 137 144 142 152 134 135 134 142 143 137 127 134 149 129 146 123 131 129 125 119 127 134 124 82 93 115 141 143 139 122 119 125 130 129 125 127 127 123 125 126 123 
124 116 114 105 106 99 112 127 126 126 147 158 158 139 129 124 128 131 121 126 119 123 124 123 132 138 133 135 133 132 133 140 136 132 131 134 138 135 135 133 139 128 123 142 134 132 132 132 121 138 141 130 138 141 149 131 136 131 132 142 134 130 126 145 133 137 122 128 129 125 126 124 127 127 128 104 73 105 136 142 141 133 118 124 133 127 126 125 124 123 124 124 
115 109 106 107 104 107 125 128 127 141 149 146 134 136 129 131 126 126 122 127 122 122 129 119 129 142 136 131 126 129 133 139 127 130 128 135 133 130 125 132 139 131 112 136 133 126 125 129 121 125 144 128 136 137 145 127 137 137 128 134 140 132 127 128 143 128 124 130 126 121 129 121 125 122 141 134 90 78 122 137 143 138 131 123 129 129 132 130 125 123 126 125 
108 108 104 109 112 121 139 135 132 130 141 132 128 133 124 129 127 124 123 128 127 123 132 119 131 139 136 125 125 120 132 133 123 124 129 135 128 132 118 127 134 134 106 135 130 132 127 121 120 117 151 130 120 136 135 130 124 143 128 126 136 133 121 127 139 138 124 126 127 126 134 117 120 129 147 120 131 118 92 118 142 147 127 126 121 129 131 131 126 122 127 125 
105 107 104 109 121 135 141 130 124 121 130 133 134 127 126 131 130 124 119 132 126 123 128 127 131 133 132 121 122 122 121 124 114 122 123 128 123 133 119 114 121 129 115 122 123 132 129 116 125 116 134 142 107 128 128 129 119 127 131 119 129 131 112 122 129 141 130 117 131 125 138 123 129 147 139 125 129 137 120 95 98 124 139 135 118 122 130 133 132 125 123 123 
110 107 111 112 137 142 126 129 123 122 124 128 133 126 125 128 126 125 118 133 127 127 128 131 128 128 133 116 120 118 118 121 106 123 127 119 115 130 123 114 107 129 116 114 119 127 125 121 123 113 126 147 114 120 127 128 115 120 126 119 124 131 115 115 114 135 131 110 127 127 139 135 125 144 124 125 130 132 140 99 91 87 102 153 139 105 126 134 131 129 120 116 
106 107 109 120 137 117 115 134 126 121 123 131 122 131 130 131 125 126 120 131 127 128 129 130 123 119 127 115 117 125 115 118 111 125 132 128 115 133 141 129 124 134 119 128 134 136 137 136 126 123 127 141 143 132 137 137 125 133 127 133 143 128 129 117 118 130 128 105 126 117 134 136 127 134 129 117 125 130 125 130 89 93 78 106 145 120 105 125 127 130 130 123 
106 110 116 129 112 104 131 125 124 125 116 122 128 127 129 123 125 127 124 128 126 129 132 130 122 117 127 121 122 130 124 132 140 147 147 147 140 150 161 159 163 157 141 139 152 149 145 152 148 138 149 152 164 153 164 158 153 152 150 142 160 139 151 127 128 128 142 121 120 108 119 138 130 129 134 119 122 128 136 134 119 91 89 77 131 129 108 113 133 125 130 127 
103 115 127 121 100 121 128 124 131 122 121 114 129 121 119 121 118 123 128 131 127 127 135 127 125 132 135 134 139 151 150 152 167 175 167 177 174 174 180 187 189 190 169 165 179 173 181 175 172 164 169 183 183 182 197 188 181 178 174 177 181 167 177 159 159 139 155 134 123 110 113 135 128 131 130 122 124 134 135 131 130 89 87 72 114 148 117 96 132 133 130 129 
108 121 138 122 94 131 117 119 124 125 119 112 122 123 116 128 121 125 126 134 130 129 134 128 144 145 153 161 173 182 184 178 182 179 192 196 199 190 194 210 204 202 204 189 198 195 204 196 204 197 188 207 202 197 212 213 204 198 199 201 200 185 197 185 178 171 174 151 129 117 118 135 131 131 123 116 120 137 132 130 126 111 80 76 90 140 134 97 115 130 131 133 
114 126 134 119 107 127 125 116 124 121 113 115 117 119 123 123 125 127 130 131 130 137 134 137 150 153 164 171 188 201 205 199 203 185 192 192 195 194 190 208 212 211 213 197 200 206 211 210 212 210 209 208 223 204 218 226 220 201 218 210 215 182 204 203 184 174 174 167 142 130 127 134 138 133 130 115 117 131 123 130 128 123 98 82 84 128 128 105 109 111 129 128 
131 129 120 117 112 124 123 119 123 119 122 118 110 123 126 124 127 140 126 141 129 143 146 154 167 163 168 186 203 205 210 213 213 199 195 198 194 200 207 212 216 216 217 201 204 206 209 218 216 217 221 217 231 216 218 225 225 214 220 217 220 200 204 212 207 181 178 168 158 149 139 144 149 135 130 120 118 121 118 122 119 126 123 86 91 95 127 121 122 117 115 123 
133 130 97 117 121 120 121 119 122 114 116 123 114 123 132 129 134 143 133 143 148 154 157 171 173 168 180 198 204 209 215 216 219 221 205 210 205 197 219 220 227 218 223 214 212 218 213 224 218 226 228 227 235 230 222 232 226 232 232 222 231 217 212 218 217 208 177 173 170 154 148 151 146 135 135 127 121 131 130 129 132 115 131 99 88 73 110 128 124 133 112 126 
136 108 105 124 119 127 117 119 127 122 111 125 121 133 138 138 143 141 142 158 165 173 173 175 182 179 191 204 215 208 221 222 228 229 229 219 221 215 223 234 232 226 228 229 221 228 225 228 227 232 240 234 237 241 232 233 233 239 240 231 241 238 218 229 223 228 203 189 178 164 155 145 148 132 139 132 134 129 129 136 130 131 134 116 90 81 81 130 127 129 121 127 
119 101 115 129 115 130 122 117 125 122 120 129 133 136 143 139 144 147 151 171 173 178 172 177 187 186 202 216 228 217 230 233 238 235 241 229 226 228 235 238 235 233 237 234 231 234 231 236 238 236 248 242 239 246 243 237 240 246 247 242 246 251 225 237 233 234 225 208 186 179 167 153 143 126 141 142 132 135 130 135 131 126 142 130 98 95 79 113 137 125 135 117 
103 101 122 128 125 114 124 117 117 127 120 137 139 132 141 144 150 150 159 173 181 176 181 185 189 195 214 228 238 232 238 241 242 243 242 239 233 237 240 236 235 237 245 242 239 237 234 242 241 246 250 251 246 253 248 248 248 252 251 248 251 254 235 247 240 239 232 221 206 191 186 165 147 132 141 140 132 139 130 144 128 129 142 132 122 96 91 91 138 121 132 119 
94 104 130 125 117 118 123 118 121 131 121 138 132 128 136 143 151 157 165 174 177 181 185 190 195 209 215 234 239 237 236 241 239 240 237 239 233 235 234 237 232 236 239 240 241 235 237 240 239 241 252 247 244 251 245 250 246 255 249 248 253 252 240 243 246 237 233 220 222 215 193 184 169 150 143 137 133 138 134 144 138 121 138 136 131 94 96 82 120 122 121 117 
85 117 124 121 117 123 119 126 128 132 136 132 124 133 136 138 153 161 164 169 175 177 196 201 201 211 223 222 228 227 224 226 233 227 224 229 231 226 227 230 230 232 231 237 234 235 235 233 237 230 241 241 238 236 240 239 238 243 239 238 239 243 237 237 237 229 222 216 222 213 195 187 177 164 144 140 129 134 132 143 143 131 125 128 142 101 92 81 118 121 117 124 
100 119 121 121 117 124 128 127 125 133 131 128 125 133 130 136 160 162 164 170 172 178 188 202 206 208 213 205 201 210 201 204 212 208 204 212 214 212 215 216 220 222 219 231 221 221 220 218 221 216 225 226 226 224 224 224 226 223 228 221 226 229 226 223 226 218 214 210 215 216 206 195 182 174 159 145 138 132 135 138 145 147 126 133 135 122 92 85 100 135 116 117 
110 117 126 125 120 129 130 126 119 134 132 120 133 129 125 138 160 161 170 171 172 170 179 187 184 191 195 187 172 185 183 173 185 183 182 180 189 196 193 197 197 206 202 211 210 197 199 199 200 197 201 206 205 202 202 197 200 205 201 202 207 207 220 210 214 209 207 204 208 213 208 200 191 176 174 150 134 137 136 129 143 144 133 136 139 126 102 91 86 128 120 119 
110 126 114 125 126 127 122 122 124 132 126 118 124 130 130 140 161 165 164 178 177 173 178 177 171 170 177 170 162 161 175 163 160 163 166 161 174 181 174 182 180 188 185 193 192 183 182 186 181 184 179 189 184 185 182 176 177 184 183 185 189 193 200 202 203 196 197 201 200 205 197 193 190 181 180 165 143 138 143 126 133 139 138 137 137 126 100 99 89 121 116 123 
116 122 110 113 119 122 125 116 127 120 122 117 127 130 128 144 158 166 166 170 174 173 174 176 165 158 154 165 161 153 157 159 149 151 155 163 159 165 162 164 165 165 165 169 180 171 171 172 164 166 174 176 174 178 173 166 165 172 176 176 177 186 193 195 196 192 195 193 200 194 199 188 196 182 184 176 156 143 136 134 126 130 142 135 133 135 100 101 90 121 131 108 
111 113 110 108 119 121 117 118 123 124 116 126 125 123 130 138 159 165 161 164 171 169 181 174 164 161 156 161 161 153 156 163 153 157 150 162 158 155 155 155 157 156 153 160 162 161 161 157 155 154 160 165 158 162 164 169 161 161 171 174 177 183 192 189 187 188 192 194 198 193 195 190 196 193 186 183 166 147 137 135 128 127 140 135 131 136 114 98 84 117 136 112 
117 111 104 113 122 121 116 118 117 125 116 125 118 121 131 136 160 153 155 152 165 168 177 168 159 155 156 155 162 151 157 158 153 154 153 155 155 159 153 154 156 156 152 157 157 159 153 155 152 150 152 156 150 155 159 159 164 153 161 168 177 181 182 183 182 188 186 193 196 196 191 198 194 196 187 185 178 163 141 133 133 125 127 140 126 134 119 110 85 110 134 117 
118 106 116 119 120 118 122 110 112 120 112 119 117 120 129 139 149 148 153 157 166 168 168 164 162 157 160 155 154 154 154 158 150 150 147 151 148 155 148 148 156 151 149 153 155 157 148 153 155 146 146 150 147 150 155 155 158 151 156 162 171 179 176 178 179 185 185 193 193 196 195 195 198 193 193 181 184 169 153 129 132 129 121 135 130 130 114 108 89 110 125 121 
113 113 113 121 120 119 113 109 113 121 108 114 125 112 130 144 141 151 156 157 163 166 164 156 160 156 149 148 145 145 144 154 136 144 142 146 146 145 145 143 150 145 146 149 147 150 146 147 153 144 142 143 145 145 148 150 151 146 150 158 166 174 174 176 181 183 187 191 192 195 199 193 193 196 188 185 179 171 154 128 134 118 124 128 128 126 118 104 94 107 119 122 
109 116 117 118 118 122 108 111 112 119 108 108 121 116 123 147 143 150 154 159 156 157 156 152 153 147 142 144 136 135 145 143 135 134 139 142 142 139 141 138 147 144 145 144 143 148 142 144 149 143 140 140 141 143 142 146 145 144 145 148 161 167 172 175 178 183 187 189 195 192 194 192 192 192 191 184 182 172 158 136 131 120 115 127 123 128 119 103 89 93 113 122 
119 111 120 114 121 119 114 113 115 118 104 113 120 121 124 134 142 144 154 155 153 149 148 145 142 136 137 137 132 133 138 145 132 131 134 141 139 136 139 138 148 143 142 142 141 144 141 139 144 145 140 138 138 138 140 142 142 141 143 145 154 163 169 170 176 178 186 186 190 189 191 192 188 190 193 186 180 176 159 141 131 121 117 122 122 120 129 106 85 97 98 122 
121 113 115 112 119 116 116 113 116 116 103 115 120 120 127 134 129 144 142 147 146 142 138 136 136 135 134 131 133 131 133 136 138 133 136 136 139 136 138 137 147 146 140 137 141 142 141 138 140 143 139 138 136 137 137 137 141 144 140 144 148 158 165 170 170 176 180 181 186 188 188 194 189 189 190 189 179 174 163 145 124 125 122 117 121 120 125 109 84 89 104 102 
116 118 114 111 122 113 118 115 116 113 104 117 117 113 122 140 123 140 142 141 144 136 132 132 133 135 134 129 130 129 132 131 134 134 137 134 136 134 136 138 142 146 140 135 139 139 140 138 140 140 137 138 136 136 137 137 139 142 140 143 147 152 161 163 168 173 175 175 184 189 184 192 190 191 191 185 181 176 162 153 129 120 125 118 120 125 127 113 87 86 97 103 
112 114 113 113 120 113 123 112 113 113 112 117 116 101 118 127 127 135 135 139 140 137 132 132 128 132 130 130 128 127 131 132 131 134 135 133 134 133 134 137 135 144 139 134 137 139 137 139 139 139 138 137 135 135 137 137 142 141 142 144 146 149 159 160 165 167 179 177 179 187 189 191 187 194 188 185 177 174 165 148 130 122 120 124 116 128 125 123 88 86 84 116 
109 114 110 116 120 112 122 117 115 113 118 114 107 103 113 123 130 133 132 130 136 137 128 130 121 125 121 125 122 126 127 126 130 131 131 134 131 131 132 137 135 139 140 136 138 137 137 139 138 139 138 136 136 136 137 137 138 142 141 142 143 147 151 153 157 163 169 170 178 172 184 188 189 185 190 181 181 168 170 150 129 118 122 122 116 123 128 125 91 94 77 106 
106 114 115 114 125 110 121 113 117 117 115 114 99 105 118 120 129 128 134 130 133 129 118 119 113 109 108 115 113 114 120 118 118 121 124 124 125 128 125 134 135 138 139 136 137 136 135 137 141 138 139 136 133 134 138 137 137 137 139 137 136 137 138 140 144 154 160 162 166 166 168 186 182 186 187 181 182 167 170 148 131 120 122 121 119 121 124 129 98 91 83 91 
108 114 115 117 121 114 122 114 120 118 116 108 97 109 117 124 127 124 129 131 120 100 88 85 81 75 74 73 70 74 75 71 74 77 84 101 99 110 112 125 129 135 136 136 136 136 136 138 140 138 138 134 133 134 133 134 133 121 121 110 101 98 91 100 101 108 123 131 139 143 149 167 171 178 184 182 181 165 166 149 128 123 121 120 121 121 124 124 103 88 88 84 
104 114 117 115 120 113 120 117 122 124 113 112 96 118 122 126 123 122 131 114 83 63 64 58 51 51 45 47 46 42 43 44 45 47 48 61 74 79 88 103 128 131 135 136 133 135 137 138 140 141 135 138 134 133 132 124 108 91 85 78 73 71 67 76 76 76 81 85 101 108 111 122 147 153 175 185 180 169 165 143 122 128 122 115 121 119 126 124 102 87 90 85 
98 117 115 120 120 116 117 121 121 127 115 101 108 119 133 124 121 123 120 78 55 48 56 46 40 45 41 45 40 40 41 42 40 42 43 52 57 72 75 81 115 130 133 133 136 134 137 139 143 141 136 135 130 137 134 105 84 75 71 67 67 62 64 67 66 72 71 67 83 84 93 92 116 126 152 177 182 170 168 137 125 125 124 118 118 125 122 122 105 88 87 92 
101 112 113 117 125 111 124 125 125 128 116 110 110 128 135 127 122 108 76 54 57 60 64 63 59 67 74 73 69 65 57 59 55 57 57 63 69 74 77 76 94 127 132 134 132 137 139 143 145 140 134 135 132 138 129 92 88 77 74 70 66 62 67 69 72 75 78 78 85 90 94 96 109 114 112 155 180 179 164 145 127 121 126 123 117 125 123 114 98 99 83 89 
105 106 118 115 127 112 128 128 129 126 121 114 121 138 135 130 113 72 59 74 94 100 107 109 107 109 109 111 107 104 97 85 76 75 81 79 84 83 88 83 97 123 129 132 134 137 140 142 142 140 136 137 134 133 114 92 94 89 87 86 81 81 83 93 104 110 117 119 125 133 135 137 132 134 116 108 167 180 174 144 128 126 123 127 121 119 126 113 97 103 89 90 
105 111 116 116 122 117 131 131 128 125 123 120 139 151 138 129 83 61 88 116 129 128 125 126 128 126 126 124 124 125 122 114 108 101 98 100 99 94 95 96 97 117 124 130 136 137 140 141 142 142 139 136 134 126 109 99 101 104 105 105 108 109 119 132 140 143 151 152 159 166 170 167 173 167 154 105 117 178 183 154 129 123 122 127 127 120 126 111 94 106 82 101 
105 108 119 118 120 119 133 136 126 126 125 135 157 157 143 107 66 85 117 126 134 127 122 122 117 111 108 105 105 106 106 101 104 108 107 106 105 103 98 96 91 107 121 131 135 138 141 141 141 143 139 133 129 112 102 97 104 111 116 117 119 124 131 137 141 144 150 154 161 163 173 174 172 182 187 158 99 147 190 169 130 123 121 126 128 122 122 109 98 99 90 100 
108 108 114 126 120 126 138 127 132 130 127 154 167 161 140 90 78 113 123 125 121 116 109 103 89 90 93 92 93 95 90 84 83 83 82 98 102 107 103 97 86 89 114 127 135 136 141 141 139 140 140 132 119 99 90 96 108 111 108 109 106 108 114 113 119 125 131 138 150 153 161 167 176 180 186 192 137 114 192 178 141 115 126 128 125 127 118 111 103 96 98 113 
102 108 113 122 121 132 133 133 135 127 142 162 172 167 126 93 98 122 119 113 109 100 83 77 76 68 60 55 54 56 59 53 69 76 81 72 84 97 102 105 95 87 96 122 131 136 136 139 138 138 135 122 103 90 92 97 102 95 89 88 92 98 103 108 102 111 118 124 123 125 142 156 166 175 181 188 174 116 171 190 156 112 122 131 122 125 123 109 106 91 103 118 
103 107 112 125 124 132 137 133 136 129 149 169 167 167 117 96 107 117 107 105 94 81 71 66 51 48 51 39 27 33 32 20 48 62 69 87 80 76 93 105 101 94 89 109 127 134 137 136 139 136 129 114 91 91 99 95 87 80 83 93 88 74 71 75 71 75 90 99 113 124 114 133 157 171 175 186 187 134 152 197 174 116 117 128 127 126 124 108 107 90 106 123 
107 110 114 120 125 137 140 135 137 135 160 173 170 148 113 104 109 104 98 89 77 74 59 37 38 61 76 37 10 45 58 21 21 87 86 60 88 80 76 100 108 104 92 105 120 132 136 136 136 135 127 102 86 97 101 86 76 84 84 78 63 39 42 34 29 31 60 61 63 87 114 112 138 160 172 179 187 157 147 199 179 122 114 127 127 127 125 111 103 88 110 119 
107 112 112 121 127 139 141 142 140 136 168 173 166 136 108 106 111 114 99 88 87 83 51 25 66 102 100 42 31 13 76 66 0 70 134 94 60 82 88 104 117 108 101 104 119 132 135 136 136 134 123 97 88 101 101 87 79 67 71 98 65 27 46 78 36 24 53 86 64 63 72 114 126 146 166 173 185 175 159 199 183 128 114 126 128 125 124 117 92 94 103 116 
109 111 110 120 132 139 136 141 139 143 157 163 151 136 112 116 131 132 126 124 116 89 59 55 95 131 120 52 27 26 22 50 15 71 141 130 88 67 94 121 127 113 106 107 122 134 136 136 138 134 123 102 90 102 108 93 63 66 106 130 57 39 38 128 73 22 48 114 110 86 60 93 145 147 159 167 183 182 169 197 194 138 110 127 126 126 124 127 92 90 100 118 
104 110 111 127 133 136 133 144 139 138 154 149 146 139 136 150 170 165 161 164 144 100 100 113 121 143 156 85 53 56 49 53 37 101 140 129 118 113 122 137 134 120 119 120 129 142 143 142 143 141 128 110 98 111 126 117 92 95 131 143 67 43 52 59 72 50 76 147 146 124 95 93 148 166 166 167 175 185 185 204 200 140 116 121 128 126 122 130 104 84 112 124 
105 108 109 130 133 136 132 147 138 132 142 141 145 160 174 192 200 202 184 185 174 146 122 136 141 150 174 148 121 119 124 121 111 128 137 129 123 135 148 156 139 125 129 130 140 146 154 150 153 154 135 122 114 125 149 153 150 138 141 158 114 96 100 108 106 94 129 168 165 146 118 110 146 189 184 180 182 187 190 205 207 151 115 122 121 129 125 128 112 90 106 127 
105 108 111 130 134 131 141 141 138 129 142 140 157 178 188 196 208 201 187 179 181 170 147 152 147 146 157 155 163 162 162 166 162 151 148 138 138 144 156 162 147 130 141 136 142 153 162 161 164 168 151 143 142 147 171 181 186 189 184 186 172 167 168 175 163 156 158 158 140 141 123 128 158 184 195 197 195 189 193 205 217 167 115 122 122 129 129 125 113 91 102 127 
106 108 114 130 128 132 146 152 138 130 144 144 171 183 185 184 182 174 162 161 163 159 150 156 159 165 168 167 171 169 165 173 176 166 154 154 153 161 163 162 148 139 144 142 146 156 165 169 177 185 166 156 160 161 181 199 196 192 206 203 198 181 172 172 170 160 163 159 139 134 134 138 164 186 197 212 203 191 191 205 219 184 120 116 123 127 129 126 114 99 92 128 
110 111 118 130 124 139 147 157 132 125 141 154 167 175 175 172 165 161 156 144 152 149 153 146 146 155 162 162 159 166 170 171 177 183 178 172 165 167 168 158 149 144 148 143 146 155 166 177 184 186 168 156 163 170 181 202 205 195 195 200 204 199 184 169 168 166 167 180 168 139 131 140 155 177 197 221 218 198 197 196 214 187 130 116 123 124 130 126 113 111 88 117 
111 117 121 128 131 139 147 159 124 128 140 153 160 165 170 170 168 169 164 171 173 184 188 186 182 178 194 180 168 175 179 181 184 190 185 182 174 168 159 153 150 150 148 143 147 159 172 186 182 182 162 156 164 166 177 195 200 197 186 177 173 182 181 167 156 149 158 165 175 161 140 146 155 168 194 220 228 208 194 204 210 192 135 118 119 122 132 125 111 115 94 94 
116 119 129 130 132 141 148 156 116 129 135 146 149 159 170 173 175 183 184 195 207 216 218 217 214 203 210 213 193 192 204 193 196 193 190 184 180 164 153 149 156 155 146 145 154 165 180 185 183 175 164 156 165 169 168 179 189 199 192 179 173 178 187 170 163 167 171 170 182 189 160 160 164 169 193 216 233 220 205 206 208 196 139 120 124 123 128 127 113 112 97 86 
124 126 136 127 137 147 135 155 111 123 130 142 146 159 171 177 182 191 205 212 217 224 231 229 215 206 210 226 214 209 227 210 204 193 197 191 174 165 153 152 153 149 139 149 159 170 184 186 182 176 176 167 175 182 183 194 215 221 212 201 201 191 193 184 179 180 193 193 191 200 189 172 176 178 192 217 233 224 210 207 216 195 142 122 127 129 128 128 115 103 101 79 
130 124 136 131 134 144 130 153 105 119 129 140 148 157 167 176 177 194 208 210 196 203 225 229 202 205 203 230 211 206 228 225 214 196 187 200 183 163 153 154 153 138 137 150 164 175 185 185 181 182 195 187 180 191 193 203 224 229 222 220 220 208 216 203 198 203 207 201 198 203 203 188 182 183 194 219 228 227 212 210 214 203 149 126 129 126 129 125 127 98 103 89 
135 128 131 134 136 136 131 157 97 117 127 133 142 149 158 167 176 192 191 185 174 173 216 226 216 214 207 228 223 187 222 224 205 184 198 197 184 159 149 151 147 132 132 148 167 179 186 183 185 187 199 195 176 185 200 207 218 217 225 237 238 225 218 220 218 217 204 202 204 205 208 207 190 187 198 225 224 221 213 211 216 197 149 132 126 125 127 122 128 96 108 94 
134 125 127 141 129 131 135 154 95 109 122 122 126 134 145 148 155 182 183 176 172 155 186 213 212 210 217 222 199 189 206 220 197 182 191 201 180 151 140 142 139 125 131 152 166 179 182 184 180 187 202 189 149 173 192 195 212 205 219 229 234 237 228 226 229 217 195 196 207 212 210 204 193 191 196 221 228 220 210 206 208 196 146 124 127 122 122 120 126 100 104 101 
132 121 139 141 129 129 142 151 92 102 109 120 119 129 134 140 144 162 177 182 184 172 168 197 196 197 212 208 188 189 201 197 191 175 180 185 172 144 128 125 134 123 131 154 170 174 177 178 183 193 198 174 145 167 182 200 209 203 217 213 204 223 234 232 219 200 196 196 205 212 211 201 188 189 194 215 225 217 206 204 203 191 151 124 129 128 126 120 118 113 96 102 
130 129 137 138 129 135 139 152 91 91 105 114 115 122 128 133 137 151 156 170 181 180 178 177 171 167 179 180 182 185 187 183 176 174 179 173 163 140 119 123 130 127 136 159 169 170 168 168 176 187 192 173 150 168 179 175 200 204 210 196 195 205 221 230 220 192 196 197 202 201 202 196 187 190 186 208 217 210 200 198 202 178 148 128 132 133 127 121 114 124 98 97 
134 132 135 140 130 139 135 145 97 87 98 107 111 118 122 128 135 145 147 158 161 167 177 181 180 177 176 175 177 178 180 182 175 169 167 163 154 124 116 123 118 118 129 158 165 166 166 162 163 171 180 171 157 152 170 170 187 200 192 181 199 205 214 216 209 195 193 193 192 195 189 186 181 184 185 205 211 203 193 193 191 171 143 139 141 147 120 123 116 125 107 103 
138 138 132 139 140 138 126 142 109 80 92 104 104 113 120 120 132 139 146 149 155 160 165 172 170 175 176 177 180 180 185 180 174 163 162 153 145 108 108 112 100 97 114 134 152 156 156 158 158 158 153 140 133 139 151 151 168 184 184 184 196 198 197 195 192 190 190 190 188 182 184 181 176 179 181 201 202 196 190 185 182 155 139 140 160 157 113 122 119 127 108 94 
138 142 133 143 151 146 113 144 124 79 89 95 103 109 115 118 126 136 138 146 152 159 167 167 168 172 176 179 179 179 174 168 156 153 152 144 134 98 95 89 70 56 78 103 127 132 133 128 134 141 122 105 99 111 133 146 166 183 187 180 187 191 189 189 187 181 179 183 181 178 177 173 175 173 177 195 195 192 174 179 170 143 135 140 189 161 107 122 125 126 115 90 
139 143 137 151 161 160 118 131 140 84 84 97 96 105 109 112 121 126 132 141 149 156 162 162 164 166 168 168 168 161 152 148 142 146 141 138 130 97 82 79 55 48 49 70 100 107 103 94 96 104 93 72 74 93 111 132 159 172 175 177 182 187 185 183 181 179 175 177 178 173 172 171 172 167 178 193 188 184 170 166 165 136 142 148 199 153 107 125 124 127 113 97 
135 142 134 152 182 157 138 119 145 91 83 97 91 101 103 108 113 117 122 125 132 138 143 148 147 146 148 146 144 141 139 136 136 140 134 133 128 110 88 71 60 73 78 85 91 96 85 73 68 75 81 84 101 103 103 127 156 165 170 175 179 182 186 176 174 174 172 173 173 171 167 168 169 167 177 193 179 178 153 163 165 134 147 165 194 145 111 127 129 124 115 99 
130 144 133 138 199 164 153 114 142 103 82 97 95 101 100 105 108 116 119 121 123 131 130 130 133 132 133 132 133 130 133 129 131 132 131 130 131 117 112 87 62 80 100 104 100 98 82 72 73 89 98 102 97 101 113 142 155 159 164 166 169 174 173 164 165 164 164 165 161 163 163 164 165 166 176 186 176 169 148 155 156 152 156 180 172 129 130 127 128 127 115 106 
138 143 133 135 195 178 168 125 132 113 81 97 93 99 103 101 105 113 115 117 122 124 122 124 125 124 126 129 129 126 125 126 128 129 129 128 127 123 123 114 86 90 110 111 109 101 86 81 88 97 94 94 95 113 128 144 152 151 157 161 160 165 162 156 154 157 156 156 157 156 162 162 162 165 183 177 174 156 142 150 155 157 168 196 150 119 144 129 129 123 112 109 
137 140 137 132 151 180 180 141 138 114 89 96 95 96 101 101 102 108 110 117 119 121 119 119 120 122 122 123 125 123 123 121 126 127 127 127 125 123 121 125 119 122 129 130 126 116 102 96 104 111 101 103 121 122 127 127 133 132 139 143 145 145 147 142 145 148 148 150 152 152 157 156 161 166 183 170 169 143 135 148 158 162 173 207 155 112 151 136 127 127 108 112 
137 129 135 134 136 157 182 148 143 124 89 102 96 98 98 99 102 108 108 115 118 118 118 118 118 120 120 122 124 123 123 121 126 129 126 126 126 122 121 127 131 140 146 139 134 126 117 112 113 115 114 116 126 127 128 125 124 125 127 132 139 140 140 136 138 145 147 147 150 153 152 157 160 170 181 163 153 138 137 149 164 170 186 210 135 116 145 140 127 129 110 111 
129 127 140 139 136 169 168 156 124 131 89 100 99 98 99 100 97 104 110 114 117 118 117 119 120 118 119 120 122 123 122 124 128 131 126 128 130 124 124 130 137 147 151 149 141 138 132 124 124 119 122 123 124 129 126 129 122 121 122 128 134 137 140 137 139 143 144 148 151 151 151 156 157 170 173 152 146 139 136 156 179 185 196 184 117 127 143 145 126 134 114 105 
132 123 138 141 127 173 165 175 122 127 94 101 100 101 102 100 100 103 110 116 115 117 116 116 117 117 117 123 122 123 127 131 133 132 128 133 135 127 128 133 141 150 152 152 146 144 143 129 131 125 130 131 126 126 133 130 124 121 125 126 132 136 138 139 136 142 141 143 148 150 152 153 162 164 156 146 143 138 133 174 197 190 198 159 115 137 143 147 130 130 122 105 
124 128 130 135 132 149 173 184 162 127 109 104 104 103 102 102 103 102 107 114 112 112 117 117 115 116 116 123 126 128 138 138 135 134 132 140 137 128 127 133 142 148 151 157 152 152 147 139 134 134 132 140 130 129 134 133 126 125 126 128 128 136 134 134 133 138 139 143 149 148 148 149 167 159 146 145 140 139 138 186 201 188 188 156 114 136 143 144 138 131 126 111 
120 125 129 124 139 125 163 192 192 154 119 100 106 107 103 103 104 101 109 111 110 115 114 119 117 118 122 125 129 138 147 139 133 134 131 139 138 127 128 133 142 146 150 155 159 155 157 149 145 143 139 139 139 132 135 132 127 127 123 128 123 126 132 132 136 137 137 143 147 146 147 149 163 150 144 140 133 138 149 185 191 193 184 140 121 132 147 135 140 134 131 118 
119 127 128 126 129 115 130 184 201 166 130 103 106 108 108 107 107 104 106 112 109 112 119 119 121 121 128 133 133 145 142 128 124 130 130 133 135 125 128 135 139 142 144 156 156 154 158 165 154 147 146 140 139 133 140 132 129 129 124 124 126 123 129 135 142 142 139 142 148 149 148 150 160 147 142 137 134 150 157 198 195 192 174 121 128 129 145 133 141 132 134 126 
120 125 125 126 128 126 114 142 188 172 127 109 109 111 113 112 109 108 108 110 112 112 120 123 119 125 132 135 135 140 127 117 121 130 127 122 124 118 122 131 127 125 129 145 147 144 152 166 156 142 136 129 134 138 138 135 130 127 125 120 125 125 123 132 143 144 141 142 148 148 148 154 149 146 143 134 148 160 169 204 195 196 141 119 129 127 140 136 137 135 138 126 
121 121 124 123 127 126 120 126 141 155 110 101 114 114 118 114 112 111 111 109 113 119 123 126 127 130 136 140 133 126 120 110 116 118 116 110 95 94 102 104 101 99 104 117 120 123 133 146 136 117 109 105 117 132 130 130 128 124 122 117 116 124 115 123 142 150 143 148 148 150 148 152 145 141 146 142 174 173 181 197 195 164 119 123 129 128 126 140 129 141 136 126 
119 118 125 124 125 130 116 127 126 131 82 80 120 119 126 118 122 117 115 115 114 122 133 131 141 144 144 147 126 111 109 105 99 92 90 86 75 70 81 88 82 86 94 100 104 100 110 117 118 109 103 98 101 112 109 109 114 114 120 111 107 118 116 113 139 151 147 151 148 152 149 149 145 151 161 172 183 188 183 179 165 121 117 126 128 126 123 137 130 138 137 127 
122 120 122 125 123 131 120 124 129 133 78 71 116 118 125 126 127 124 122 122 121 125 139 144 150 153 157 148 119 113 111 120 120 89 71 75 75 65 69 76 67 70 82 91 95 94 97 103 104 107 94 87 95 99 96 102 97 92 92 89 96 110 116 113 140 152 151 152 150 152 151 148 160 176 182 180 190 203 154 122 121 118 122 124 130 124 127 131 133 136 136 125 
121 124 121 124 123 130 122 118 129 135 86 60 105 120 128 127 128 129 128 130 130 135 144 154 160 164 163 148 126 135 140 144 166 151 115 102 103 106 113 112 112 103 109 107 113 108 102 104 112 125 116 102 107 100 91 101 98 88 97 103 106 116 120 123 144 156 158 157 149 150 144 153 182 184 186 185 195 204 128 108 121 122 120 124 127 127 121 130 131 136 137 135 
117 123 121 123 126 125 123 120 133 137 95 60 84 127 126 130 131 132 134 132 134 139 148 162 164 164 158 146 138 143 148 146 155 165 160 145 139 136 145 147 155 162 164 167 156 145 139 144 151 168 171 157 144 133 123 119 117 130 141 146 143 139 136 135 155 160 163 158 153 149 142 160 189 184 189 188 201 190 118 110 127 121 124 124 126 127 124 125 130 135 136 145 
113 122 116 126 124 123 122 118 132 137 105 65 62 126 125 128 133 134 140 137 139 144 151 156 161 158 154 145 140 147 147 141 143 153 153 156 156 157 156 157 162 170 174 170 163 158 162 163 168 174 177 169 152 144 146 145 139 148 150 154 156 156 150 145 157 163 162 159 152 151 143 171 190 187 188 192 209 169 104 122 125 127 121 124 127 122 125 125 127 131 137 145 
117 118 121 121 124 122 121 117 127 137 112 76 52 107 126 126 132 137 142 141 142 149 154 146 153 153 151 140 142 142 141 138 135 144 148 156 160 163 163 164 164 163 167 161 156 157 156 157 165 162 158 165 163 158 155 153 149 148 154 159 163 165 155 152 160 160 160 160 153 149 145 176 191 188 184 199 206 145 107 123 123 125 122 124 126 123 125 125 121 132 131 143 
116 119 120 118 121 119 121 125 122 130 125 82 62 74 121 124 127 137 145 141 145 147 147 141 149 147 145 142 141 141 138 133 132 131 140 149 157 160 158 163 164 160 157 162 159 164 160 158 162 160 153 157 169 162 161 158 151 151 157 163 166 160 157 156 159 159 160 153 150 149 152 184 188 186 188 199 195 119 110 126 123 124 125 123 123 124 119 125 122 132 124 141 
116 121 120 115 116 122 123 127 117 121 133 91 75 49 110 121 123 134 139 143 148 144 149 146 148 146 142 140 138 142 138 131 130 128 131 135 149 150 152 160 162 161 158 158 161 160 159 154 156 154 154 154 157 168 165 156 151 155 159 164 163 159 161 163 160 160 156 150 149 145 162 188 186 186 189 196 170 106 118 122 123 125 124 122 126 124 120 122 128 124 127 137 
114 119 117 113 119 120 127 127 116 111 140 101 80 52 69 123 121 127 132 139 141 144 153 149 150 146 137 133 134 141 140 133 130 135 130 131 137 140 141 147 149 152 157 155 157 157 154 151 150 150 150 147 151 157 166 151 156 160 163 162 161 159 161 163 161 158 150 152 150 148 171 186 187 186 187 190 132 105 123 121 123 125 122 124 125 128 118 122 125 127 125 128 
116 117 114 116 119 126 127 125 110 109 130 125 83 72 45 102 117 119 125 133 133 150 153 148 155 165 159 147 139 130 133 143 138 138 137 136 139 143 140 138 140 143 146 146 144 147 143 141 141 140 144 139 146 148 158 166 156 158 161 161 159 157 161 165 163 159 150 150 152 149 183 183 182 181 191 158 110 113 123 119 125 125 121 124 122 127 122 122 124 131 120 128 
108 116 109 116 122 124 122 119 108 116 123 137 99 76 54 60 109 114 114 128 133 144 150 137 142 154 185 182 171 159 151 154 159 162 155 148 143 142 147 145 148 147 150 149 139 143 142 142 140 140 146 146 155 158 159 176 167 164 170 164 165 160 162 162 160 156 150 148 148 159 183 174 181 185 165 123 109 117 123 117 123 126 121 123 123 127 124 121 121 130 123 119 
108 115 112 120 128 122 118 108 108 122 116 140 117 83 68 46 93 107 110 116 128 142 139 138 136 143 163 181 191 189 184 166 166 167 171 173 163 154 163 166 170 171 173 168 161 162 162 159 160 165 169 177 178 175 171 188 182 171 173 165 173 164 159 155 154 149 148 147 150 174 177 171 175 168 128 114 115 118 123 120 126 124 123 120 127 128 124 119 125 126 129 120 
112 114 125 127 125 121 115 106 111 125 122 124 137 92 74 56 97 99 104 109 117 129 128 130 131 138 140 151 165 180 192 173 172 173 174 182 186 182 183 183 179 179 186 181 185 190 187 184 185 194 197 194 183 182 185 192 176 164 171 172 168 166 154 149 148 148 146 148 156 176 169 167 166 141 112 118 118 119 123 119 124 125 123 121 125 129 121 124 122 126 131 123 
114 119 137 128 126 120 114 107 116 122 130 116 129 119 80 74 98 107 100 103 106 115 118 119 122 131 134 134 145 151 164 175 180 171 162 169 186 195 201 196 189 185 191 180 182 208 210 212 210 203 192 184 184 184 187 188 170 167 169 166 166 160 150 143 144 144 145 149 162 170 162 163 133 119 118 115 123 121 121 122 123 124 122 124 128 132 126 126 124 125 130 127 
124 132 132 131 123 116 111 111 117 123 128 119 121 139 90 76 112 105 107 94 96 104 109 110 113 122 123 126 133 141 142 148 166 167 158 166 176 180 174 181 185 189 197 189 189 207 208 209 208 202 191 189 186 183 186 181 165 163 164 166 164 157 144 141 142 142 142 152 156 162 149 140 120 126 116 118 123 122 121 122 123 124 121 124 133 130 127 130 127 123 130 130 
128 128 134 124 119 117 108 116 116 123 126 115 121 137 112 82 117 110 106 100 89 88 99 99 107 111 117 118 122 131 137 138 143 148 164 172 181 176 165 169 176 186 201 195 195 195 199 199 196 189 187 189 184 180 175 172 164 159 155 161 155 148 141 138 139 144 143 149 147 144 128 130 122 130 120 121 126 122 126 122 124 127 129 120 134 132 128 131 127 126 129 132 
133 134 129 120 116 114 115 122 124 123 125 122 124 135 123 98 117 118 106 104 95 88 81 90 98 100 109 109 116 124 138 142 143 142 141 155 167 174 171 173 173 179 180 185 185 189 191 186 181 182 178 178 174 169 172 169 159 153 154 153 146 142 137 138 139 141 142 132 139 119 121 126 132 129 130 125 126 125 125 125 127 126 129 124 131 135 129 132 131 125 130 132 
137 131 122 119 116 111 120 124 131 125 124 123 128 138 121 125 125 117 109 112 97 92 79 84 86 93 94 107 108 116 129 138 145 151 146 150 159 162 165 171 171 172 175 181 183 182 180 178 182 178 174 169 163 165 170 159 154 152 152 148 139 133 133 136 133 134 129 133 128 107 128 134 132 134 131 127 123 130 124 132 128 130 126 125 132 137 129 132 132 129 131 131 
131 124 120 112 113 117 127 130 134 125 123 124 131 137 125 128 153 115 116 114 101 98 85 84 76 83 83 94 103 105 119 125 140 148 153 158 161 161 167 173 177 179 180 179 176 172 172 172 175 171 164 160 160 158 162 153 149 147 144 134 129 127 129 124 125 131 131 138 126 98 133 134 139 135 133 129 124 134 131 131 135 130 127 131 132 138 134 130 132 130 134 130 
121 127 117 114 114 123 137 132 133 130 125 128 131 136 128 127 168 134 116 115 106 107 88 87 81 80 75 82 93 94 104 111 126 141 150 155 156 158 164 163 170 170 168 169 165 165 165 165 170 163 162 159 159 155 151 144 142 137 133 124 121 119 119 112 123 136 138 142 129 94 132 134 143 135 134 129 127 137 134 136 138 134 129 126 135 136 139 131 139 130 137 133 
126 121 122 113 117 134 138 135 138 130 125 131 128 137 127 135 163 141 123 116 106 102 97 84 84 78 75 76 79 86 93 99 113 121 133 144 146 148 154 155 158 157 158 161 160 165 164 162 163 159 158 156 150 146 139 133 130 125 115 114 108 108 107 111 124 138 147 151 126 101 123 139 144 134 131 131 128 137 136 137 141 135 123 130 134 137 140 133 140 138 135 136 
125 121 121 114 122 133 133 137 134 133 131 130 124 140 128 136 165 138 122 122 114 104 97 87 80 84 75 72 76 78 84 89 92 103 114 122 127 135 138 149 147 149 152 157 155 158 160 154 153 149 147 142 134 131 123 121 117 106 108 102 104 105 105 114 134 141 155 155 129 107 120 143 141 136 133 134 132 142 139 147 140 135 122 138 139 135 139 133 141 136 140 141 
125 121 118 118 132 132 138 137 135 134 134 127 126 139 124 143 166 140 115 121 118 113 99 91 85 82 76 71 70 71 74 76 79 90 97 99 107 115 118 130 135 138 141 140 143 140 145 142 138 132 133 122 119 112 108 107 103 96 97 103 102 104 108 122 142 156 162 160 131 112 117 145 140 143 133 141 137 145 140 149 136 133 123 140 143 135 138 129 145 134 141 140 
114 120 120 120 139 133 144 135 138 138 137 127 125 138 120 139 165 139 120 117 118 118 109 94 90 78 82 76 70 70 67 71 72 72 79 84 88 88 93 97 103 106 112 108 114 113 118 115 112 111 105 100 99 93 98 93 92 97 100 104 101 107 114 137 152 164 168 160 129 113 122 140 143 142 144 142 137 142 145 141 134 126 127 142 144 134 135 127 137 134 145 140 
103 120 116 129 128 131 139 133 145 139 136 125 129 133 115 131 167 133 121 121 113 112 120 104 90 84 83 77 73 70 68 67 67 65 66 66 69 70 73 77 76 79 83 84 87 90 93 90 87 89 89 86 86 89 93 93 97 97 100 105 106 111 128 145 164 168 174 165 123 117 123 135 142 139 145 144 136 141 140 129 130 124 133 145 141 133 131 128 135 134 137 136 
108 118 110 135 121 132 134 129 144 137 127 128 126 130 107 131 157 132 118 120 119 110 114 119 102 92 86 82 74 68 72 68 62 64 62 61 57 60 59 60 60 63 65 70 73 77 76 70 77 80 80 84 88 92 93 100 94 96 104 110 107 122 138 157 165 174 176 158 123 116 127 134 134 136 142 142 138 131 131 128 127 127 143 142 136 133 134 127 130 132 132 131 
117 116 113 132 122 131 125 133 139 130 126 127 118 131 110 131 148 132 121 118 119 116 110 114 113 99 92 88 79 73 70 73 66 67 66 64 60 62 58 56 57 56 60 64 66 70 71 69 75 81 82 86 92 95 95 93 95 103 108 111 115 135 149 164 172 179 176 155 120 124 128 132 128 134 138 133 132 128 126 127 127 141 142 139 131 130 132 128 135 128 130 127 
112 117 114 130 125 125 124 136 131 123 122 117 119 122 117 129 143 133 122 119 116 116 119 110 116 107 100 95 87 81 72 73 73 72 68 68 64 65 60 58 58 57 62 66 64 72 70 73 77 85 87 91 95 93 88 94 104 107 110 115 123 141 159 172 183 183 170 143 130 127 129 130 127 131 129 126 128 123 128 127 138 142 138 131 130 128 132 125 138 120 130 114 
