P2
# Imagen
92 112
255
157 165 164 163 159 159 158 160 156 161 167 172 171 163 165 174 164 135 115 90 74 81 68 58 68 92 95 95 100 89 79 92 93 92 100 100 91 89 101 105 87 107 116 104 103 95 104 98 94 110 111 105 112 108 90 80 87 89 80 89 90 81 77 87 72 86 94 105 116 115 106 106 110 133 146 159 161 158 159 159 156 162 161 158 154 159 159 158 161 157 161 162 
160 163 165 163 158 160 153 159 158 159 163 171 174 173 168 161 133 108 84 79 72 68 59 66 81 88 88 82 83 80 77 84 81 83 87 84 81 80 87 88 81 86 92 99 86 84 73 79 77 73 109 101 103 110 108 108 87 92 84 82 91 98 90 83 76 68 68 61 70 99 110 107 114 110 127 161 158 161 155 163 159 157 160 159 156 159 158 161 158 159 160 158 
159 166 164 165 161 161 154 159 160 163 167 169 173 179 159 136 102 82 79 75 65 70 59 79 97 80 73 77 76 76 79 81 77 81 81 75 75 83 75 81 75 83 73 87 83 77 72 68 75 67 88 97 90 109 113 112 111 104 100 92 77 87 93 82 91 86 83 71 61 46 66 92 104 111 106 135 147 157 153 159 158 156 160 156 156 159 157 160 158 160 160 156 
163 165 167 165 163 158 163 165 173 169 172 168 163 147 126 101 92 65 71 72 65 67 86 86 79 73 71 75 68 72 78 77 76 76 74 75 74 75 77 74 73 82 73 72 72 73 76 67 68 65 70 68 76 90 89 85 89 98 93 111 98 77 93 85 72 88 79 88 79 74 56 46 55 85 105 114 114 131 149 157 157 161 158 158 155 153 161 159 159 159 160 158 
163 163 169 167 166 164 161 172 170 175 167 153 139 121 107 81 76 64 76 76 74 93 84 83 73 75 72 73 69 73 75 79 73 71 74 76 70 76 78 73 76 78 76 70 72 70 72 66 67 60 62 70 63 71 76 69 68 77 64 70 94 81 101 117 99 94 94 73 89 90 69 63 53 49 60 96 114 111 114 151 156 161 156 157 154 153 162 161 158 164 158 158 
162 163 167 164 165 167 174 164 148 136 134 117 101 86 73 79 70 71 77 88 102 94 74 73 72 74 75 74 66 74 71 75 77 69 70 76 67 80 74 76 69 79 79 67 72 74 62 67 67 59 56 65 72 61 70 69 64 73 71 63 76 69 77 89 103 98 118 98 77 93 78 71 66 68 49 46 89 116 102 112 151 156 160 153 150 154 161 161 157 160 158 163 
162 160 165 166 165 166 161 137 117 123 119 94 70 67 72 71 68 83 96 105 87 83 67 74 71 74 76 73 76 70 75 74 76 67 70 74 69 70 76 70 70 68 86 73 62 76 63 64 64 64 54 62 73 72 64 67 65 71 75 70 75 65 70 71 70 85 88 94 82 93 87 74 68 70 68 59 55 73 98 107 115 157 161 149 152 153 159 163 161 159 158 159 
160 162 168 164 169 151 127 120 124 116 86 61 71 67 74 90 99 112 100 86 74 72 74 76 69 72 76 75 78 72 75 76 81 70 68 76 72 70 76 69 70 63 85 80 72 72 69 63 65 61 62 62 65 80 65 59 66 67 77 78 78 67 74 65 72 71 86 83 75 70 94 68 66 71 80 73 71 59 57 84 108 126 152 153 153 153 155 159 160 162 158 159 
165 168 171 162 140 122 122 122 118 84 64 63 63 80 88 111 112 93 91 81 79 72 85 77 65 74 79 77 79 74 68 84 81 70 62 77 72 65 79 74 66 69 74 84 65 96 75 62 65 58 64 61 60 76 73 64 66 56 85 80 82 69 70 71 59 79 80 79 73 75 89 83 50 44 67 79 76 73 58 43 65 97 120 144 155 152 151 155 158 160 157 157 
171 172 160 134 120 122 118 117 85 77 66 64 76 103 108 99 91 84 87 82 82 75 89 85 63 76 80 82 80 74 74 84 76 74 65 75 78 63 75 80 76 71 64 82 72 95 87 60 67 66 60 67 65 66 85 73 69 58 80 88 76 74 61 73 53 76 81 79 78 72 93 86 71 59 36 56 73 79 73 53 48 61 95 118 138 153 151 150 161 155 156 154 
173 160 132 119 116 125 114 78 72 76 77 74 103 106 94 90 84 82 87 86 85 78 87 88 66 79 79 87 83 76 78 87 81 77 68 70 83 80 71 83 84 79 72 88 76 85 102 67 71 77 58 75 81 63 75 90 78 65 80 84 77 70 69 72 63 61 89 70 78 83 96 79 85 78 57 52 44 61 76 74 53 51 52 86 115 126 150 151 160 156 158 158 
156 134 119 120 125 111 76 68 78 74 82 84 84 89 82 89 91 90 80 89 86 83 96 83 72 85 87 92 84 76 83 101 90 85 73 72 84 86 75 83 94 83 72 95 92 71 115 82 76 83 66 72 84 84 64 83 90 78 76 82 78 81 83 71 68 62 84 69 72 84 93 77 90 79 61 69 68 40 39 77 68 64 48 55 92 111 124 147 155 157 154 160 
131 122 122 124 115 78 59 70 68 79 88 81 83 85 80 85 92 91 84 92 85 89 101 81 83 90 92 96 84 77 87 102 100 94 83 87 79 89 77 84 100 83 71 87 102 76 99 103 83 86 80 72 80 93 78 70 96 93 74 86 80 89 86 89 69 74 85 76 70 90 92 85 85 88 67 61 94 59 38 50 53 61 61 49 67 108 109 117 144 160 155 155 
114 122 118 119 82 66 72 70 78 86 87 83 82 91 86 84 96 85 80 98 86 90 95 82 79 90 98 91 83 76 87 99 107 99 88 88 87 89 77 81 93 83 77 85 91 89 94 104 102 91 86 81 76 94 93 81 90 101 86 81 85 94 79 105 86 82 86 78 79 85 93 85 81 92 85 58 86 88 50 55 56 34 57 65 42 104 115 113 114 144 162 157 
118 115 116 95 66 61 66 77 78 88 86 90 86 85 81 78 91 85 77 96 82 91 92 83 83 92 94 87 78 81 89 94 108 105 93 93 89 86 83 79 88 85 71 91 95 91 105 100 107 94 95 92 78 93 92 96 85 96 100 86 95 91 93 96 103 100 76 86 83 93 91 87 78 93 104 75 76 85 78 62 60 43 47 51 46 72 123 110 118 111 159 160 
121 120 116 84 59 68 76 84 89 89 93 96 81 85 80 91 89 84 84 96 81 91 87 83 84 98 89 85 75 88 85 92 102 107 94 88 86 82 87 75 68 88 74 84 83 101 94 107 96 98 86 94 79 85 89 90 95 99 96 92 98 102 95 100 117 103 83 83 93 94 96 91 82 96 104 98 76 80 83 93 64 50 62 57 17 45 107 120 114 114 129 156 
119 122 113 69 59 70 93 88 91 85 91 88 82 82 81 83 96 89 86 95 84 89 80 85 84 101 88 86 84 86 88 84 97 92 94 89 80 76 78 70 65 73 80 70 77 97 92 104 103 88 83 91 95 76 86 82 91 105 85 79 90 96 104 103 109 103 95 81 99 95 103 103 84 104 116 82 87 88 88 93 77 61 53 52 24 6 63 114 113 115 116 143 
125 124 87 54 55 84 96 94 95 83 89 85 85 82 81 87 92 90 88 94 79 92 76 81 84 95 80 85 88 84 83 80 83 89 82 84 72 71 66 70 64 69 87 69 61 97 96 88 95 95 81 90 83 90 77 75 80 91 90 75 80 85 105 92 94 91 107 83 102 104 101 117 91 108 114 85 88 103 86 90 87 60 54 59 27 10 15 87 113 117 115 120 
132 111 48 51 63 90 89 93 90 83 83 85 85 88 89 90 81 85 84 90 83 91 83 84 85 85 75 83 76 74 74 85 78 89 76 78 71 73 68 75 67 70 83 66 56 75 99 78 84 90 84 85 72 85 89 73 70 82 80 79 85 78 92 80 86 78 98 96 95 113 100 100 96 100 109 96 86 105 92 92 88 79 62 55 45 28 0 54 100 113 127 109 
121 84 33 54 77 91 90 85 91 80 87 84 80 92 91 92 75 82 86 88 78 89 87 86 88 81 66 75 79 82 68 82 80 84 75 77 79 76 68 81 73 73 79 70 65 64 86 78 78 81 88 77 83 75 87 76 73 73 76 70 95 77 79 71 79 75 94 105 99 101 91 106 110 97 103 95 94 99 90 89 93 94 69 57 55 35 15 25 89 108 120 117 
98 54 40 66 91 86 95 84 85 86 85 88 82 92 89 87 79 82 81 77 90 83 86 86 87 76 66 71 72 82 67 74 85 80 73 70 85 80 76 79 76 76 71 78 65 66 78 75 74 72 83 76 86 76 77 83 80 66 76 62 101 76 70 76 65 83 88 99 91 89 89 110 114 102 101 96 99 86 100 89 94 104 93 57 50 61 32 22 63 110 108 117 
71 47 62 71 94 89 89 86 81 86 85 87 88 82 85 83 76 77 76 72 84 80 83 81 85 72 74 68 74 72 64 72 77 72 68 71 82 81 69 73 82 69 77 70 65 70 71 69 77 79 73 76 86 82 70 86 88 78 71 79 93 75 76 67 76 76 77 93 86 73 98 112 103 104 100 102 97 105 115 104 99 101 97 68 55 64 48 14 35 96 114 104 
68 54 76 92 80 94 89 88 81 84 94 94 95 88 79 80 78 82 75 71 72 75 81 84 82 73 81 69 72 69 65 72 77 73 76 72 73 74 73 76 76 64 77 73 61 75 83 74 75 81 82 97 88 89 76 84 84 85 89 84 92 83 82 80 64 70 73 87 86 74 104 105 106 100 99 92 94 103 107 104 101 100 103 92 63 51 50 31 17 58 117 106 
55 60 83 95 82 94 89 91 85 91 102 95 89 85 73 78 77 87 78 80 79 77 73 79 78 73 86 75 76 76 70 78 78 84 84 83 81 71 76 84 82 74 72 82 70 73 88 82 89 85 97 103 110 89 87 88 96 93 107 93 97 99 85 94 67 85 68 74 86 77 96 99 105 97 99 101 89 102 97 98 93 99 111 91 71 46 51 44 18 20 98 110 
67 65 97 93 87 93 96 96 93 94 99 97 86 84 81 83 84 89 95 89 90 88 84 82 93 83 86 91 94 87 88 81 96 92 91 103 105 92 80 95 97 84 87 85 94 78 91 98 109 103 110 115 120 113 102 105 102 106 117 104 114 117 101 116 81 93 75 65 82 79 80 94 102 104 104 96 97 105 95 93 97 100 97 92 82 48 45 52 23 8 75 106 
78 84 97 96 87 93 101 103 98 105 93 98 101 101 92 79 98 99 109 106 112 100 106 106 110 97 99 97 119 107 98 107 103 108 108 113 124 112 86 101 105 101 103 108 109 96 102 109 119 122 118 137 137 118 116 109 110 118 118 124 126 129 110 117 111 95 89 67 73 78 69 96 107 101 108 105 112 109 105 107 109 104 102 93 97 74 43 47 33 16 45 101 
76 86 101 99 93 94 97 102 93 106 96 99 112 109 93 94 106 108 107 114 139 130 139 134 128 121 115 113 116 118 109 120 125 116 114 126 128 121 111 106 115 118 129 138 139 127 126 117 126 141 132 143 145 128 122 115 122 123 123 124 128 128 115 109 106 98 93 73 71 89 65 88 102 93 109 110 106 105 107 106 108 102 107 103 107 79 52 47 32 21 29 85 
79 94 99 101 97 96 107 109 100 106 102 99 102 116 115 119 111 114 127 118 140 147 141 144 148 147 136 118 117 123 120 121 128 124 124 136 143 131 136 125 134 135 144 161 149 156 145 140 141 156 160 162 156 156 135 126 136 140 134 131 140 134 129 122 114 104 104 95 86 103 84 84 95 103 98 119 103 106 110 99 97 99 87 100 103 81 53 56 44 22 21 65 
83 94 90 103 104 102 109 109 103 104 111 108 101 122 123 124 122 123 134 116 130 129 137 137 143 143 150 127 116 137 134 123 137 129 138 138 140 149 144 148 152 151 144 164 151 155 157 142 142 164 157 155 153 154 140 147 153 157 149 144 149 150 164 147 144 132 132 115 111 120 102 95 99 105 109 111 106 104 112 108 105 105 95 92 102 82 57 49 48 22 27 45 
84 90 96 105 112 102 102 112 118 115 110 114 122 135 131 137 136 134 132 130 130 130 135 133 146 146 144 142 121 126 145 136 148 155 160 158 161 174 176 173 179 177 174 178 172 167 178 158 148 174 159 161 157 161 151 154 172 164 161 157 172 171 186 184 167 161 159 141 132 128 117 106 103 101 112 111 116 118 113 113 106 107 102 100 93 85 57 45 49 22 33 25 
91 91 96 106 109 101 106 113 129 118 112 123 140 145 149 145 136 143 140 137 130 132 143 141 149 143 127 154 154 146 161 149 159 183 187 185 184 194 192 188 195 200 191 187 186 196 202 194 177 186 176 164 169 177 177 168 166 173 167 163 169 177 189 194 181 170 172 156 145 133 136 108 102 105 107 113 119 121 128 120 113 108 103 106 98 79 66 47 56 30 26 24 
90 93 104 106 107 95 106 120 125 123 116 131 139 149 149 150 138 146 144 142 134 139 158 151 148 153 161 168 186 178 191 172 179 205 198 199 202 199 213 206 200 214 205 196 190 211 221 206 198 207 195 185 174 177 181 184 175 182 181 176 184 180 194 201 176 176 167 157 156 142 133 111 98 108 115 111 124 117 130 124 119 106 108 99 109 87 57 52 50 33 25 33 
90 90 112 109 104 103 111 126 128 121 127 146 151 153 153 143 148 149 157 150 153 164 170 157 151 160 175 181 193 199 211 198 182 208 199 206 204 207 217 213 210 214 201 203 204 216 219 217 210 218 205 200 187 180 186 187 191 177 185 185 189 188 190 203 181 180 191 177 163 155 145 135 108 104 107 108 113 121 128 126 117 119 116 98 105 107 65 52 47 37 24 39 
93 99 105 102 107 111 115 132 124 127 149 157 158 168 161 151 155 162 167 166 171 176 179 164 165 170 179 183 196 201 210 214 195 198 189 202 195 206 209 202 208 211 197 204 198 209 209 214 203 220 215 202 197 191 191 191 192 181 186 184 186 189 189 202 192 178 196 196 174 162 154 144 123 114 105 101 111 112 122 119 119 120 118 113 98 107 91 62 50 41 23 38 
93 108 99 97 117 115 120 137 132 148 155 157 173 167 163 165 165 167 172 175 180 183 185 173 171 181 176 180 191 195 206 213 196 195 183 192 189 198 210 200 208 213 208 210 202 209 218 210 211 222 217 210 204 197 197 191 196 188 183 187 186 187 196 201 203 196 202 203 195 175 169 161 138 121 111 101 94 108 110 120 109 117 122 116 106 96 96 67 54 51 29 38 
92 102 97 99 111 118 126 141 142 155 155 173 180 177 169 177 184 180 180 180 188 191 187 175 180 183 180 182 191 194 218 207 197 199 192 194 196 203 206 209 215 220 217 216 207 213 220 212 213 225 217 214 215 207 202 199 205 195 193 189 191 189 195 199 202 202 207 207 204 187 180 174 156 141 121 114 103 100 105 110 101 111 109 113 114 105 95 68 66 63 38 37 
96 96 95 98 109 122 135 146 148 159 167 179 186 185 185 177 193 182 183 186 188 183 179 180 186 188 181 186 199 195 209 213 202 206 202 202 211 209 207 218 224 222 221 214 212 215 216 213 217 227 216 220 222 214 206 204 207 202 194 196 190 195 201 199 208 200 206 211 204 199 192 187 167 161 141 128 118 109 95 110 92 98 104 103 113 105 107 58 62 69 54 40 
87 93 96 97 108 121 145 145 155 171 176 190 190 187 185 188 195 195 177 186 183 184 183 185 189 192 185 194 202 200 206 209 210 212 211 210 212 220 211 216 231 224 223 216 215 215 219 216 223 227 223 221 225 221 212 210 212 209 196 199 195 195 195 194 203 202 200 203 205 200 196 191 182 171 160 141 128 123 97 92 94 88 102 95 108 105 101 67 44 76 57 42 
85 86 95 93 98 130 140 144 158 182 185 188 194 190 181 192 198 192 182 186 185 181 183 183 192 198 190 201 204 205 207 207 212 213 216 213 217 221 221 216 226 228 225 221 218 219 222 218 226 224 223 222 223 223 218 212 215 213 210 205 200 195 193 194 194 204 196 195 204 197 196 196 186 184 168 152 143 133 116 90 89 87 96 96 105 96 99 82 39 71 57 40 
87 80 91 89 93 126 143 145 162 183 179 188 194 188 183 197 195 196 195 187 184 178 182 187 196 198 201 205 209 205 208 208 213 214 219 217 219 220 221 224 226 229 224 222 221 220 225 223 221 225 221 225 223 224 220 216 216 215 213 214 206 195 197 193 192 196 195 188 195 197 195 192 191 187 174 150 152 138 129 102 91 80 88 94 105 88 82 87 55 63 59 32 
95 76 83 91 88 118 138 147 167 181 181 192 192 186 192 195 200 186 198 200 196 181 185 192 195 196 209 210 207 210 213 212 212 215 219 217 220 222 220 227 225 228 226 225 224 220 222 222 224 226 222 223 218 224 221 218 222 217 214 217 216 205 192 199 193 191 190 187 186 190 194 195 190 191 179 163 159 154 135 115 104 85 78 91 100 88 76 81 68 57 63 34 
102 78 80 86 86 117 136 153 175 181 183 190 193 182 192 200 201 186 195 205 198 189 193 201 196 199 210 215 210 213 217 217 215 219 219 221 224 223 220 228 228 227 228 226 224 223 219 222 223 226 224 220 218 224 224 221 226 222 215 219 222 213 203 202 201 194 190 192 182 182 190 196 189 187 184 169 165 159 143 126 112 95 81 91 93 83 75 77 71 61 65 32 
97 79 80 81 78 115 137 155 178 179 184 189 189 185 189 206 206 186 193 203 201 205 210 212 214 209 219 224 223 223 229 230 230 231 231 226 231 228 227 228 228 227 225 225 223 225 221 224 225 225 226 223 220 226 225 224 227 231 228 224 226 230 226 217 214 207 199 194 189 182 190 191 192 190 186 174 170 160 149 136 114 105 87 97 90 81 76 81 70 58 71 43 
91 81 75 79 76 110 139 152 174 176 185 189 181 188 198 205 203 194 196 202 208 217 214 223 228 220 223 227 228 230 240 235 239 240 239 235 235 236 234 234 228 226 225 223 223 223 223 226 227 227 227 224 220 225 226 230 232 238 241 239 234 237 237 235 224 218 209 202 199 194 196 194 201 202 185 177 169 163 152 135 116 101 98 97 88 75 74 80 66 59 65 49 
91 77 74 76 70 101 136 149 171 180 179 187 180 193 196 203 201 197 202 211 213 223 221 226 232 230 226 227 231 233 239 237 241 242 239 240 239 237 240 240 230 227 225 224 221 224 222 224 227 229 226 225 225 222 224 235 243 243 244 245 246 240 240 243 232 222 211 210 202 203 196 203 198 204 193 179 168 163 146 138 118 105 102 101 85 76 72 80 69 59 65 38 
87 69 80 75 67 103 130 147 162 176 183 185 184 196 205 195 197 201 219 215 216 217 217 225 227 227 224 220 227 224 234 232 238 237 238 234 234 237 237 237 233 229 227 223 222 221 225 224 226 227 224 223 225 226 225 238 243 246 244 246 245 247 240 243 236 226 211 205 200 196 197 200 200 201 201 183 171 161 149 135 122 107 105 100 82 75 77 77 66 61 63 38 
78 67 79 74 64 104 127 141 155 176 181 183 183 192 204 193 201 212 222 214 208 206 208 215 216 219 216 214 214 220 221 228 234 234 231 234 231 234 234 234 232 229 225 222 222 222 224 225 224 225 226 226 228 228 232 241 239 244 242 244 240 235 236 229 229 217 200 195 186 181 180 186 188 188 197 196 171 161 146 137 117 114 111 93 78 74 81 70 65 62 53 43 
73 70 79 74 67 98 121 141 156 171 183 188 176 188 199 192 211 221 212 203 204 202 206 207 209 214 219 216 213 213 218 221 224 226 227 227 227 228 229 234 232 230 227 224 223 223 225 225 224 226 227 226 231 232 239 242 242 239 239 239 240 232 226 219 211 207 198 181 176 173 175 171 172 181 183 195 186 159 148 128 118 116 110 91 76 72 83 66 59 60 46 41 
74 67 82 80 67 95 117 139 160 176 183 178 166 182 188 199 213 215 202 198 204 203 206 212 211 215 223 225 221 220 223 225 225 225 224 227 225 226 230 233 233 231 228 225 225 225 224 226 224 227 226 228 229 238 240 241 242 238 237 232 233 230 224 221 214 208 199 187 176 174 172 171 169 176 175 177 189 168 147 127 117 114 108 86 74 75 86 63 56 59 45 37 
71 72 77 81 71 92 122 136 159 174 181 163 164 170 187 212 212 203 200 200 199 204 209 213 218 218 221 224 226 226 229 229 230 231 232 229 227 227 228 231 235 234 231 225 224 226 226 228 227 226 228 230 232 238 241 242 237 235 233 236 237 234 233 224 222 212 202 196 175 172 174 171 177 176 176 164 179 178 149 121 118 115 104 85 71 77 81 62 54 57 41 33 
68 70 77 81 69 91 120 135 150 174 167 157 153 166 183 201 199 194 193 197 194 198 213 217 217 227 226 230 235 237 237 239 235 233 232 235 233 230 229 229 234 238 235 227 227 224 227 225 225 227 227 234 236 241 241 240 236 239 237 238 237 231 229 229 219 215 203 195 184 174 169 171 174 184 173 172 169 182 158 120 114 111 106 85 75 75 84 59 56 45 36 34 
65 75 75 82 71 86 107 122 141 163 157 144 151 170 171 170 164 167 175 181 181 192 209 212 217 228 228 231 237 238 241 248 240 238 235 229 236 236 230 230 231 235 236 232 228 227 225 226 226 226 226 233 238 236 233 237 240 237 235 232 227 225 221 220 222 205 198 189 173 162 166 165 165 179 179 176 164 181 165 126 106 113 109 83 72 80 80 55 53 42 35 43 
72 74 71 80 72 78 98 117 127 139 136 119 133 155 157 138 128 143 150 153 163 174 189 202 197 203 207 215 223 227 231 249 247 230 231 239 235 239 238 232 232 233 235 236 230 227 225 226 227 225 225 233 237 230 225 228 231 223 214 212 208 207 204 200 202 202 187 176 174 155 150 156 156 162 179 181 170 176 177 138 112 115 103 82 75 75 79 59 52 46 37 35 
78 77 70 79 73 81 105 124 128 126 107 99 97 105 99 102 106 121 131 141 148 168 181 184 172 163 167 195 201 218 208 215 238 230 214 233 248 245 243 240 236 238 240 240 236 229 228 227 224 224 222 228 226 220 202 200 201 193 182 176 187 195 189 174 182 188 174 159 166 160 160 156 152 147 157 177 173 177 180 154 126 113 104 85 79 74 73 67 44 48 45 37 
74 75 71 80 67 93 122 129 133 126 91 78 55 64 66 80 100 116 117 138 143 161 170 172 158 155 164 190 207 209 212 212 231 221 207 217 247 254 250 242 242 241 244 243 237 232 228 229 218 221 219 218 213 193 176 171 183 184 169 166 189 197 196 166 183 192 180 162 165 173 180 170 165 148 130 138 158 168 175 162 136 116 99 91 79 75 73 70 46 54 43 31 
85 69 72 72 70 111 155 158 154 133 91 58 51 68 88 100 113 123 126 135 149 165 169 166 167 166 170 185 201 205 203 211 219 213 201 207 224 236 235 228 221 221 224 219 214 207 209 204 203 194 202 199 181 163 155 151 162 162 167 171 189 205 203 204 206 206 198 180 179 183 193 186 173 157 124 104 110 137 150 155 141 119 98 95 80 73 74 66 48 64 32 21 
82 71 63 72 70 131 162 167 178 136 84 78 93 128 132 140 130 134 142 144 135 152 171 187 188 183 172 177 175 171 173 172 180 181 174 175 186 193 198 199 192 194 195 200 196 194 187 188 185 187 187 183 162 158 158 158 161 164 178 195 203 211 209 201 205 216 197 176 180 172 172 164 158 147 138 108 72 94 122 130 137 120 103 100 83 68 71 61 61 57 34 21 
86 67 66 63 75 136 159 167 168 117 79 99 125 153 141 125 124 119 123 106 93 107 135 157 162 161 159 157 153 148 139 141 140 135 133 120 122 135 145 156 164 176 178 182 186 181 186 181 184 182 188 179 173 177 172 180 179 166 165 169 180 183 181 173 182 189 175 157 160 155 151 140 119 122 130 122 90 72 110 103 106 114 106 106 85 60 61 72 63 51 32 12 
85 69 67 60 81 142 154 163 143 99 81 100 133 127 110 84 83 72 65 78 83 91 95 119 129 136 135 128 132 132 126 130 140 130 115 92 88 94 116 131 144 144 160 167 178 174 181 189 193 196 202 199 197 201 199 188 189 169 138 117 129 143 151 157 158 157 157 140 124 132 136 136 126 120 131 145 126 98 117 125 85 88 106 113 89 58 58 74 68 50 32 9 
88 75 69 53 92 151 157 154 133 93 95 111 124 104 88 66 41 44 53 82 99 117 111 116 127 135 151 143 144 153 152 143 140 144 130 103 93 89 111 137 151 158 160 178 183 190 197 210 217 220 218 220 222 223 205 192 185 184 143 116 96 100 112 132 127 135 136 156 161 146 151 157 162 149 139 152 149 140 145 158 123 71 103 113 97 58 61 77 67 52 27 17 
88 80 73 52 102 160 161 153 134 100 97 128 127 118 88 50 34 67 84 92 121 145 136 118 138 143 190 159 148 166 178 176 172 151 143 129 116 109 114 143 173 174 172 186 191 194 198 206 208 204 203 214 218 202 194 187 179 161 143 119 103 108 103 99 111 131 150 157 165 173 168 157 161 170 152 151 151 151 154 164 153 90 87 115 103 66 64 77 67 60 27 30 
84 82 71 57 110 172 169 155 135 104 112 141 145 134 90 62 53 81 112 106 138 168 137 102 127 123 172 187 143 156 207 180 170 160 135 127 131 126 124 149 165 177 171 175 183 184 189 199 193 180 189 199 190 182 181 166 163 171 148 123 124 151 176 92 85 109 158 143 142 154 158 155 150 153 143 143 144 147 151 160 156 111 88 115 105 64 64 81 75 68 30 32 
90 75 77 54 128 174 176 166 138 120 130 151 158 146 102 70 67 80 101 114 139 172 128 91 98 128 129 160 149 169 206 191 162 125 113 121 129 125 116 128 164 177 176 159 172 192 184 187 173 161 179 198 206 183 165 160 185 193 153 123 125 124 132 113 94 106 142 143 120 128 131 131 136 143 140 119 134 145 150 156 152 121 103 114 103 65 60 70 81 68 35 33 
89 76 76 58 130 178 185 178 153 139 151 154 162 153 129 93 74 83 108 108 123 139 130 97 91 115 130 150 169 221 191 165 177 129 98 105 122 132 126 113 150 173 172 165 181 202 198 179 166 166 174 189 193 197 186 163 172 196 175 127 126 132 125 113 122 144 118 155 141 120 104 108 137 128 119 140 137 138 153 151 150 122 114 112 107 70 60 70 79 58 45 29 
92 87 80 64 141 183 186 182 172 155 152 164 170 161 158 130 103 99 101 101 91 94 135 134 133 147 167 192 206 211 182 151 178 186 112 126 120 150 133 133 130 166 188 196 203 197 192 181 162 174 170 178 187 196 173 168 177 174 173 155 135 139 159 152 174 177 119 118 151 108 109 103 145 130 108 128 157 152 146 152 150 131 115 114 109 85 80 85 93 66 49 32 
90 90 80 66 150 182 184 191 172 174 158 147 154 148 151 161 145 152 145 125 99 80 102 131 169 188 192 212 205 199 154 163 161 166 137 133 136 166 151 108 138 168 192 213 226 209 185 185 174 170 169 169 182 205 176 149 178 193 183 160 155 168 220 198 193 179 119 100 103 111 111 121 164 154 120 124 148 157 151 155 156 146 124 108 112 110 99 97 99 85 33 34 
95 78 84 67 152 180 184 194 173 183 171 160 155 149 145 152 155 154 157 149 128 112 99 123 180 193 193 196 194 199 162 158 175 163 154 151 162 170 166 140 137 180 204 218 228 225 196 179 177 176 161 170 193 219 185 164 189 211 212 153 145 159 200 211 197 203 164 135 125 121 111 153 185 168 142 138 147 152 156 165 170 151 135 111 130 127 106 97 112 82 33 33 
97 78 91 74 151 180 186 184 180 197 173 167 162 160 164 166 164 170 162 158 158 146 126 117 150 170 173 175 183 187 198 178 176 183 175 175 178 167 165 163 177 195 206 212 220 224 223 196 197 200 193 192 203 215 195 181 200 223 238 181 145 167 196 202 196 216 204 175 160 143 142 163 175 159 146 152 171 165 165 174 182 156 143 125 136 150 104 96 115 80 38 32 
97 81 91 79 147 178 174 185 186 206 186 171 168 163 167 175 181 179 180 175 172 172 158 147 167 174 174 179 184 183 187 193 200 201 205 194 186 177 158 169 192 206 216 207 207 205 203 206 198 195 199 201 208 212 209 203 200 218 213 197 186 193 215 207 203 206 198 181 169 150 152 170 174 164 158 162 174 178 182 188 189 161 144 140 152 159 109 99 118 73 48 36 
94 92 89 78 153 165 158 187 187 211 197 181 180 178 182 186 191 192 192 195 190 185 174 173 184 192 190 194 192 189 192 192 192 188 199 198 190 194 187 179 192 214 228 223 218 207 207 200 199 190 203 206 223 227 209 211 212 215 214 205 200 211 227 222 209 202 199 193 180 172 176 182 183 172 165 176 181 184 192 197 196 180 154 157 164 162 120 108 99 63 49 39 
96 89 90 83 144 160 147 178 180 217 207 199 191 189 194 199 202 205 207 211 208 197 182 194 205 202 210 210 207 203 198 190 187 186 187 188 192 200 203 196 203 215 232 232 227 221 216 204 206 212 209 218 229 232 221 223 224 229 232 227 205 197 209 217 205 205 206 196 190 181 186 183 185 176 170 182 191 192 197 196 198 184 169 172 177 168 133 120 75 62 55 36 
89 93 101 88 131 161 154 165 172 206 218 202 201 198 198 204 207 210 209 219 214 203 195 211 214 210 212 208 199 190 184 176 179 185 188 187 196 201 207 208 208 216 235 236 230 230 223 208 208 219 227 234 240 237 224 220 219 225 236 243 235 218 225 225 213 210 210 202 196 190 190 189 185 179 173 186 189 203 198 211 200 184 182 187 189 165 142 114 65 68 57 42 
81 99 120 94 114 156 176 163 163 198 214 205 204 203 204 208 209 208 207 211 207 193 198 212 215 210 206 199 192 184 184 179 188 190 192 194 200 202 203 209 216 218 233 235 233 230 227 212 210 220 233 238 247 243 234 227 220 219 228 240 242 232 242 238 223 215 207 203 198 192 193 192 189 179 177 189 195 207 202 216 197 174 203 195 192 156 149 95 72 75 66 41 
72 106 123 102 108 152 178 160 162 180 211 203 203 198 202 211 210 208 208 209 204 191 202 214 218 214 213 206 198 197 194 195 200 201 200 201 202 199 198 207 215 224 240 243 236 235 226 215 205 209 215 226 239 244 235 231 228 221 227 232 234 227 233 240 233 225 216 207 199 197 197 197 190 189 185 196 202 216 204 210 185 183 214 199 189 149 154 93 81 88 65 56 
70 109 110 112 123 140 186 157 165 165 205 203 202 195 202 210 206 209 207 206 197 191 207 214 220 217 214 211 204 205 201 202 207 204 204 206 203 195 196 201 213 227 247 250 249 249 238 227 209 214 215 219 229 232 226 227 230 225 229 232 229 221 226 234 233 226 224 221 211 209 202 202 198 191 199 200 208 219 198 189 193 210 223 201 183 149 137 88 99 91 64 59 
71 106 101 100 135 147 178 172 164 161 193 200 201 194 203 206 208 206 206 202 193 194 208 219 219 217 217 210 208 210 209 209 210 206 204 204 200 192 193 204 211 225 244 245 250 245 240 231 217 213 217 212 214 211 208 209 218 216 221 225 227 218 220 229 230 233 228 224 218 215 209 211 201 199 205 201 213 217 180 189 216 235 218 191 165 146 116 82 105 98 71 61 
80 99 100 93 131 156 180 183 163 154 178 198 196 192 199 208 207 202 207 199 191 198 210 217 219 218 216 210 211 207 210 211 210 205 197 202 200 191 197 208 212 227 238 240 244 243 239 232 219 210 214 209 207 207 205 205 211 206 216 217 221 214 219 225 230 232 233 223 219 215 212 209 206 206 211 202 206 211 189 203 231 235 205 181 162 150 92 78 109 107 66 65 
93 94 90 83 125 148 186 193 167 150 168 193 193 185 192 202 206 204 203 192 190 204 212 219 218 217 218 213 215 211 208 209 207 200 187 197 201 193 199 208 216 229 236 238 241 242 243 236 226 205 212 208 202 200 203 206 205 205 206 214 217 214 221 221 230 232 230 224 217 213 212 208 206 212 211 205 206 206 212 219 228 221 207 169 168 130 72 83 97 115 81 50 
100 97 74 82 122 155 171 203 172 155 155 184 185 182 187 194 202 202 195 188 195 210 214 219 219 219 219 215 213 211 209 207 206 193 188 198 209 194 194 208 214 225 231 237 237 246 249 240 231 209 214 213 200 199 209 207 201 201 204 209 217 212 217 217 224 228 224 220 213 210 210 210 212 216 207 209 199 201 214 223 220 220 215 150 156 101 60 77 96 110 99 53 
98 102 76 76 104 159 163 193 205 165 144 177 177 179 180 192 193 199 192 185 202 213 216 219 221 221 221 219 215 212 213 208 203 193 191 201 203 192 192 206 209 219 232 235 243 244 255 242 232 211 214 219 201 197 211 210 202 200 199 203 211 212 215 215 218 228 222 219 212 210 214 209 220 217 203 206 201 197 214 224 231 219 195 137 131 86 63 72 87 106 100 72 
89 99 84 71 74 152 170 174 212 201 153 170 173 172 171 183 189 193 188 194 207 213 218 220 222 223 223 222 223 218 216 212 206 196 196 191 186 186 191 195 203 216 237 246 243 246 254 248 230 216 210 216 204 194 212 209 201 203 197 197 209 215 208 210 217 219 223 215 214 211 213 212 224 213 203 204 207 207 222 236 224 201 150 113 112 81 69 68 77 93 98 85 
88 97 86 79 62 108 161 174 198 205 174 163 170 164 169 174 184 181 185 196 206 216 218 219 221 227 224 227 226 224 218 210 214 200 188 173 167 179 191 192 198 224 236 253 244 237 250 254 233 217 209 206 196 190 209 209 200 208 206 195 207 212 206 206 213 217 217 215 215 217 215 216 228 209 197 200 215 223 222 221 190 151 118 106 88 79 71 76 72 79 85 91 
90 95 89 76 67 90 121 176 191 196 178 167 161 158 161 167 175 176 185 196 207 213 218 219 222 227 229 232 224 228 214 212 216 211 183 146 143 165 184 190 201 229 240 249 241 225 233 244 233 214 200 198 190 197 212 208 206 206 213 199 208 208 210 206 209 215 216 212 217 217 221 221 220 206 188 205 225 233 223 156 138 114 96 89 81 78 72 73 70 68 78 78 
92 96 92 73 70 71 109 158 175 179 172 161 155 151 150 157 166 165 177 198 202 213 217 219 220 225 232 231 228 226 220 217 217 210 200 159 136 149 182 182 196 221 233 238 235 220 221 227 225 209 196 199 220 216 220 215 210 205 203 205 206 212 211 214 208 216 216 213 216 218 220 225 210 197 192 211 230 225 177 108 102 99 93 74 83 78 74 74 70 68 73 78 
89 99 95 76 73 61 103 149 173 162 136 163 143 144 143 152 160 160 169 188 202 211 213 220 220 226 230 231 226 219 224 232 221 208 196 175 164 163 190 194 190 194 191 202 207 208 209 214 209 205 212 223 243 238 225 217 211 197 192 211 219 215 214 220 210 211 213 213 215 217 222 222 204 198 207 218 214 181 132 88 102 113 87 68 80 83 76 73 78 63 67 75 
85 98 92 85 77 59 83 135 164 164 129 158 140 131 140 146 155 163 170 176 191 202 210 214 217 218 217 214 208 204 194 205 210 199 194 189 179 186 197 202 202 193 176 165 171 178 179 195 206 225 243 244 248 235 223 211 205 200 207 230 232 219 217 217 210 202 209 213 215 219 218 213 211 214 194 177 173 148 124 107 114 111 79 75 74 85 77 71 78 68 65 72 
91 87 92 81 75 65 71 120 156 168 124 151 143 129 134 140 155 156 168 172 175 187 191 201 202 205 195 183 183 176 167 163 178 193 200 203 194 185 188 192 195 194 183 172 175 179 175 183 199 226 232 231 221 221 211 204 209 217 226 233 235 219 213 211 204 204 203 211 212 219 208 209 229 212 168 159 164 146 123 114 110 107 75 75 75 85 77 71 79 71 67 70 
94 90 85 79 73 71 62 104 152 170 122 144 147 128 128 141 151 162 163 176 177 169 175 181 185 180 168 168 168 168 165 169 182 205 217 217 217 202 188 190 192 192 185 180 177 175 178 179 184 185 186 183 186 199 196 207 223 217 219 220 217 210 202 201 197 198 201 205 210 211 201 207 226 200 154 162 163 137 122 110 109 104 74 79 75 78 80 78 76 76 66 75 
91 96 82 79 71 70 63 87 139 174 123 132 151 130 131 137 147 157 161 174 179 171 175 171 166 163 165 162 160 164 172 183 197 217 227 231 227 222 206 202 200 187 189 186 174 178 180 183 171 160 161 172 184 193 202 208 218 218 212 213 205 197 193 196 194 196 201 200 206 210 192 208 219 181 147 159 155 131 116 110 109 100 67 83 71 81 78 81 82 78 73 67 
95 99 78 73 71 68 71 73 125 170 135 122 147 139 127 132 138 149 162 167 176 176 174 163 161 164 154 157 156 173 182 192 205 217 225 231 233 229 222 210 208 194 193 189 177 178 179 176 168 164 169 186 191 200 203 205 207 206 204 201 194 191 198 197 197 197 197 201 199 203 189 208 208 161 148 157 146 122 115 110 114 90 69 79 73 79 80 83 81 82 75 68 
89 93 82 71 66 73 71 73 106 169 147 118 137 149 121 120 135 146 160 162 172 178 165 163 164 163 155 149 159 168 184 195 205 213 219 227 232 234 228 219 215 211 201 189 177 175 172 170 170 176 183 188 198 208 206 205 197 197 195 190 187 191 196 203 201 193 199 201 195 194 185 205 194 150 150 158 140 120 114 108 114 75 72 77 77 77 82 82 86 77 80 74 
88 87 76 68 70 65 80 77 90 145 156 124 132 150 120 120 124 146 158 161 174 177 174 171 170 161 153 153 163 170 186 194 195 204 214 222 233 230 228 225 217 216 209 198 190 185 184 176 182 192 194 196 203 215 213 200 197 189 183 184 183 180 193 203 201 194 191 197 193 187 186 205 181 146 154 158 127 119 112 111 105 70 78 73 82 75 84 84 91 83 78 84 
86 77 69 65 64 73 86 82 77 117 158 128 128 145 132 113 115 135 152 165 171 179 182 183 171 160 153 149 150 166 178 178 187 190 208 215 225 229 230 232 222 215 215 212 201 197 202 198 199 202 211 209 216 216 218 199 192 184 179 179 184 182 189 203 198 197 186 188 189 180 189 199 167 151 157 150 128 117 115 113 94 75 81 75 81 73 87 83 91 86 79 92 
78 66 68 65 64 82 90 81 73 95 142 131 117 132 141 126 127 127 137 148 162 183 188 180 178 191 185 167 151 140 146 158 162 171 188 197 205 211 212 221 226 221 213 216 213 200 205 206 209 217 225 222 224 219 209 200 183 173 173 179 184 185 193 201 195 195 183 172 181 172 196 192 160 149 161 147 118 121 117 111 84 74 85 81 82 78 85 80 95 86 81 86 
65 62 65 66 81 85 84 84 76 75 115 137 108 126 128 150 137 141 134 126 138 161 167 162 171 193 218 215 205 181 155 156 162 166 159 155 162 168 171 177 189 197 203 199 198 187 184 195 199 208 212 212 214 209 191 188 188 191 188 186 185 185 193 191 186 178 178 167 172 175 203 191 151 158 158 136 119 123 118 101 79 80 82 88 82 75 86 79 94 89 84 86 
68 62 68 76 84 82 84 87 76 68 86 125 114 115 116 156 148 154 143 141 135 145 140 133 145 161 183 199 200 191 182 172 178 181 183 169 143 127 130 136 141 144 156 155 158 166 167 174 187 195 197 199 199 191 180 199 196 187 185 182 178 172 190 194 183 180 176 164 163 183 205 180 153 168 151 130 122 123 116 85 86 77 89 92 81 81 83 82 86 90 86 87 
64 67 74 74 82 83 85 87 72 70 64 90 131 101 115 137 153 152 151 150 143 151 147 132 127 141 147 163 170 179 179 158 157 165 165 181 174 158 136 116 106 114 134 137 137 151 153 171 192 207 206 196 187 188 187 189 169 162 174 182 184 184 201 196 187 184 168 159 159 198 202 167 154 164 140 133 122 119 105 85 86 85 92 93 85 82 84 83 83 87 90 87 
65 68 75 71 71 71 72 75 73 73 49 66 110 113 112 124 139 150 153 156 152 153 162 160 144 133 138 141 153 162 175 174 164 156 138 139 150 172 179 172 169 173 178 166 155 174 164 165 183 177 172 165 168 172 170 167 165 166 173 178 186 187 190 186 185 177 162 155 167 202 195 160 151 150 133 134 121 111 90 90 88 92 96 91 84 89 83 84 81 87 88 91 
76 66 74 73 69 71 76 75 75 68 46 50 82 124 106 120 127 143 145 153 154 151 154 167 166 161 156 154 163 171 175 191 208 197 177 163 158 163 165 183 183 189 194 196 195 201 184 161 155 142 147 149 159 162 169 171 174 178 178 180 185 181 180 187 186 171 160 159 185 201 188 154 137 133 130 128 115 93 89 90 90 94 93 92 89 87 86 82 83 85 80 90 
77 73 78 76 68 79 82 77 66 63 55 36 59 119 119 114 120 139 134 145 151 150 151 158 165 165 168 170 169 179 177 179 184 188 183 179 193 191 176 176 178 180 186 187 189 184 179 173 160 157 166 157 157 159 163 168 176 182 186 191 188 183 185 186 175 163 159 175 195 198 185 132 121 131 129 115 96 91 89 86 90 92 93 86 91 93 79 80 84 79 82 82 
75 83 83 79 80 79 86 76 61 63 60 45 37 106 136 121 115 137 138 134 143 147 150 155 157 163 166 161 165 170 173 167 169 167 172 173 178 189 192 195 190 190 187 178 178 177 177 173 170 175 176 163 162 158 168 180 189 192 198 196 183 184 187 182 163 158 172 185 207 194 153 112 124 127 121 95 90 88 86 90 85 94 89 92 92 94 76 81 77 82 74 84 
80 92 89 96 88 91 82 80 69 74 79 54 42 85 132 145 116 131 142 133 127 139 146 151 156 159 165 168 169 174 175 169 171 174 171 174 182 173 175 183 196 198 202 200 197 189 188 179 172 174 170 165 168 176 184 191 192 198 190 185 182 186 182 168 161 173 186 198 201 173 117 112 119 112 100 89 92 88 92 89 88 95 88 95 95 85 79 87 75 78 76 82 
91 95 89 109 105 100 84 80 74 88 79 62 57 71 112 151 151 129 133 139 128 123 128 145 156 160 163 170 175 176 180 178 176 181 181 179 180 176 173 176 183 190 195 195 189 185 180 171 168 164 162 167 174 186 183 184 188 185 183 188 184 182 169 163 176 194 194 195 180 140 113 112 108 81 85 94 92 86 94 93 90 90 88 100 94 77 83 81 74 74 75 72 
102 98 96 99 104 104 75 79 74 81 75 61 59 86 89 142 159 154 130 138 136 129 126 127 148 154 162 166 174 177 185 185 181 180 182 184 184 183 179 177 175 172 172 174 173 171 174 171 173 167 169 169 170 178 179 181 186 187 191 193 188 175 168 171 187 195 192 180 157 127 108 93 77 72 85 93 88 91 99 91 84 91 96 93 90 72 82 78 70 72 71 69 
101 99 104 97 106 97 75 81 67 70 70 64 49 82 88 118 154 162 142 139 141 137 139 130 137 149 154 161 169 177 185 190 192 192 190 192 201 202 198 192 188 182 179 177 176 178 180 182 179 175 176 173 178 182 187 186 193 197 191 190 173 173 170 177 186 194 187 154 146 124 98 70 72 74 79 91 84 92 94 87 77 94 96 84 86 72 76 74 69 67 72 66 
95 98 103 102 93 85 72 71 60 64 65 53 51 75 94 101 146 160 148 151 142 136 144 142 140 148 159 164 174 179 193 202 210 214 212 209 215 216 217 216 213 214 212 211 205 201 196 187 183 181 182 187 191 196 197 197 193 194 185 178 170 172 171 179 186 180 166 155 138 111 83 69 73 67 76 84 83 80 86 73 77 89 91 80 76 75 69 77 67 72 64 64 
92 100 101 102 88 76 71 66 63 59 62 49 47 77 103 102 135 157 142 155 157 148 141 142 147 152 162 175 182 188 190 203 218 221 226 225 232 231 228 229 227 230 228 227 222 218 210 204 197 199 198 202 203 202 196 196 188 191 184 177 169 168 165 179 177 171 167 145 125 92 82 71 64 70 71 77 71 74 78 66 74 87 82 74 74 73 73 79 65 69 61 64 
81 94 103 93 80 77 77 72 62 57 57 53 54 84 104 126 146 147 137 149 158 158 145 139 144 144 151 167 176 185 189 203 215 225 230 231 237 238 238 238 234 230 232 230 229 221 218 211 208 209 207 206 200 200 196 192 195 184 176 168 162 165 168 172 168 172 161 135 113 87 83 64 63 65 70 65 65 71 65 67 73 80 79 70 79 73 78 74 66 64 59 60 
70 88 91 83 62 71 71 67 61 60 58 61 63 88 129 140 149 141 135 141 151 157 155 145 141 139 146 157 164 174 180 189 202 209 218 224 226 230 231 237 234 230 230 227 230 222 217 212 211 208 209 205 202 202 196 193 192 181 166 163 159 161 164 167 169 176 154 128 105 84 84 64 61 61 63 63 67 61 67 72 70 80 71 73 77 73 75 70 61 64 58 61 
67 71 80 77 65 67 68 64 58 63 58 69 71 111 146 138 145 144 126 140 143 152 157 157 146 138 137 145 150 159 173 175 186 193 202 209 213 214 217 220 225 222 224 222 220 212 212 207 208 203 202 201 200 198 193 188 172 171 154 159 158 154 160 165 182 176 148 119 103 84 78 65 62 62 65 60 65 62 71 72 72 74 72 77 73 73 73 60 64 58 61 61 
82 74 73 77 74 68 62 65 69 66 70 75 94 127 147 143 141 145 137 125 138 141 148 154 153 138 138 131 135 147 151 163 168 176 184 196 203 204 208 208 211 209 207 203 201 198 196 198 191 192 188 192 190 189 182 168 160 159 153 156 151 152 160 181 191 171 148 102 93 85 69 67 62 67 62 62 67 67 69 72 75 70 69 74 71 67 65 61 58 58 63 56 
76 67 78 77 73 71 65 67 78 75 71 96 119 127 142 145 144 141 145 130 123 136 141 145 158 142 137 129 122 133 136 142 151 157 163 173 180 189 192 193 192 191 189 190 187 187 180 188 184 180 181 186 183 176 165 155 155 150 152 142 148 148 177 190 188 167 147 91 98 84 65 67 66 67 63 65 65 69 70 77 73 68 71 74 67 66 62 64 52 62 63 52 
