P2
# Imagen
92 112
255
169 165 165 169 166 165 165 166 165 166 166 167 166 160 165 166 165 158 170 150 159 161 149 107 64 46 47 40 42 41 40 38 40 44 38 34 38 36 35 39 36 44 33 39 38 39 40 35 30 34 36 33 34 39 36 44 47 38 34 24 29 41 83 139 140 123 154 154 156 152 158 163 155 163 159 158 156 158 153 160 159 159 156 163 155 160 156 161 155 156 158 154 
166 165 166 166 167 165 167 171 160 165 169 165 169 160 166 163 165 148 163 155 153 155 95 53 46 45 50 35 42 38 38 39 39 40 39 35 38 38 34 42 34 41 33 40 40 31 39 39 34 34 30 36 38 34 41 36 45 40 38 35 33 29 35 47 77 88 115 133 153 159 153 155 158 156 159 160 159 155 161 158 159 153 164 153 158 158 155 159 156 159 156 154 
164 165 164 165 167 163 167 167 166 166 166 166 167 158 161 163 161 156 145 152 114 78 55 47 39 49 64 33 39 36 35 35 38 41 36 38 35 38 39 33 36 35 33 36 40 30 36 41 40 33 25 34 41 33 44 36 39 41 42 33 41 34 33 40 28 35 45 50 83 142 158 154 152 156 159 159 159 159 159 155 159 158 159 159 158 160 155 160 159 161 156 156 
167 165 166 165 170 165 167 161 163 160 163 161 158 163 164 164 158 140 133 90 55 44 41 47 38 50 66 39 35 39 38 36 39 42 45 35 38 39 38 36 34 38 34 34 44 35 39 40 41 42 35 29 39 45 34 40 33 38 31 45 45 38 28 44 41 29 34 36 41 34 76 138 152 154 154 160 153 156 155 155 158 153 160 154 158 158 152 156 155 156 155 155 
169 169 160 167 163 170 164 163 160 167 161 163 161 160 155 133 104 78 68 55 45 42 39 45 45 42 68 39 39 36 36 34 40 45 40 39 33 44 35 38 36 38 36 41 40 38 51 41 35 42 40 33 29 44 42 33 38 31 38 36 47 41 35 30 50 50 26 39 41 40 34 42 98 133 156 159 156 150 158 156 154 150 156 154 156 156 150 159 154 154 153 153 
170 166 163 167 164 167 164 167 163 164 154 164 167 143 93 56 44 45 45 50 40 41 40 44 42 51 61 40 35 36 40 33 40 44 41 38 33 45 35 42 40 41 36 49 44 30 47 47 38 40 40 39 35 35 38 40 35 39 38 38 39 40 36 31 31 68 38 35 52 40 44 30 35 49 98 159 160 148 150 155 153 150 152 155 150 154 153 156 160 155 158 155 
170 167 164 167 165 167 167 166 164 161 159 163 142 74 41 35 39 44 45 42 49 42 38 45 42 56 51 45 33 42 38 38 39 45 46 36 35 42 38 38 39 53 30 55 49 35 46 73 41 42 33 47 40 30 39 46 41 29 52 38 39 39 40 31 39 38 69 30 87 47 42 39 29 46 40 63 153 158 150 155 155 155 154 156 153 154 160 158 154 158 155 154 
161 170 165 165 163 169 165 170 160 165 160 131 73 44 34 40 41 44 39 34 50 45 45 38 44 50 41 44 38 45 35 39 44 49 58 40 39 39 41 39 33 56 35 45 63 34 45 88 52 41 45 40 51 34 38 44 55 40 44 55 31 42 39 34 42 36 62 49 77 76 36 56 31 39 46 46 58 145 153 150 155 152 152 158 152 154 159 154 156 158 155 156 
167 165 167 164 164 166 164 159 165 163 115 50 50 33 36 45 50 44 39 38 52 40 47 42 41 46 45 47 38 46 36 35 46 53 60 41 38 47 44 38 39 58 40 46 62 45 40 80 78 44 56 34 57 42 41 28 76 63 36 60 34 42 50 25 47 38 46 45 77 74 52 55 47 28 47 45 52 68 133 156 158 152 153 156 145 155 154 155 158 156 156 158 
163 165 169 164 167 163 165 163 164 112 57 36 36 38 45 44 46 55 42 51 56 41 46 42 44 49 47 42 40 49 38 36 45 69 72 46 38 57 47 42 36 55 55 53 84 53 45 62 104 46 68 42 44 61 38 42 55 99 34 55 47 49 58 38 40 53 41 44 69 82 53 53 74 35 35 57 47 67 61 107 163 152 153 153 143 153 153 155 153 155 156 153 
161 163 165 165 163 164 169 159 115 56 36 44 34 42 45 50 41 53 40 46 60 51 52 44 52 49 50 52 42 53 45 38 52 66 87 57 46 58 53 50 39 53 71 52 89 69 72 58 95 63 79 56 38 61 45 51 42 100 55 52 44 47 79 40 46 51 50 60 56 68 47 51 83 47 30 52 61 46 87 40 83 161 152 152 144 153 149 158 153 155 159 152 
161 164 164 161 165 166 160 110 50 38 46 45 41 42 42 45 46 60 47 46 55 57 52 52 56 46 52 55 47 63 46 38 72 64 95 64 44 76 66 45 45 68 83 52 85 95 87 80 85 87 76 79 34 64 55 67 56 67 89 62 52 33 96 53 45 44 73 57 76 66 41 45 79 90 30 34 68 36 67 73 34 79 158 143 154 158 150 149 154 156 154 154 
164 165 164 161 161 170 120 44 47 44 36 49 42 45 49 41 45 61 45 44 56 50 44 56 60 45 55 57 55 79 46 47 78 73 88 68 50 78 76 49 52 71 84 73 61 93 85 88 95 96 76 101 58 60 66 82 77 53 83 72 67 38 93 69 44 51 68 56 78 56 52 41 69 91 61 30 61 44 60 63 50 44 87 148 152 152 149 143 150 153 148 150 
166 164 164 163 172 129 62 34 49 47 42 42 55 45 51 36 50 52 52 47 47 63 42 52 60 45 58 53 56 74 57 56 77 73 88 71 61 72 78 60 60 77 87 87 69 87 83 84 94 107 67 104 79 68 69 80 85 80 58 77 79 53 85 83 47 58 56 61 76 66 52 40 67 62 84 45 49 46 52 66 46 56 44 84 170 153 149 149 153 153 150 152 
161 158 167 166 159 90 40 26 56 51 41 42 66 55 58 45 61 60 56 53 57 58 44 60 56 45 61 58 57 58 67 58 83 56 80 68 67 71 87 67 71 73 93 83 76 76 73 74 77 112 71 76 79 93 64 88 80 74 73 71 67 68 69 89 69 74 53 76 67 73 55 44 58 58 77 79 34 47 44 60 62 49 57 31 132 158 150 153 148 154 153 152 
158 161 161 165 142 55 36 38 47 60 39 46 67 64 55 50 62 58 63 56 55 56 47 61 53 47 78 53 72 46 64 69 78 56 73 69 79 64 90 78 73 66 89 82 78 53 76 67 61 102 71 76 62 98 71 74 72 57 72 91 51 63 56 79 76 77 66 87 58 85 55 62 44 68 60 85 50 49 45 61 74 57 52 41 90 147 150 148 150 145 150 148 
155 161 159 159 100 38 47 50 47 64 55 55 71 67 56 63 66 60 62 60 68 60 52 61 55 57 69 49 68 40 66 63 68 52 63 67 78 61 72 76 71 63 79 80 77 55 62 63 50 87 66 78 57 83 73 62 68 46 57 95 58 53 51 66 74 77 52 88 55 90 85 63 63 62 62 84 60 61 64 49 79 52 56 39 60 145 137 150 149 152 147 150 
169 160 170 122 69 42 50 58 51 55 64 64 71 82 60 80 72 62 72 52 76 57 60 69 56 64 61 50 64 35 64 62 56 51 60 62 74 52 60 61 73 56 66 72 66 62 51 61 53 57 82 55 64 72 68 61 55 51 44 71 76 39 53 55 63 77 35 78 69 62 91 73 74 62 63 78 72 60 60 56 74 68 68 58 62 110 148 142 150 150 153 152 
160 164 164 77 67 56 60 57 64 61 63 71 72 82 53 67 72 58 74 55 82 63 64 74 57 53 57 47 60 39 63 56 53 49 57 61 64 50 51 57 71 64 57 60 67 58 44 55 47 46 80 55 64 61 69 46 57 47 45 40 74 36 50 46 55 69 47 50 82 60 76 76 88 73 47 79 79 47 55 63 77 79 72 69 55 80 148 144 149 153 148 152 
159 163 136 46 60 73 62 60 61 73 64 66 76 71 63 63 68 66 66 67 83 68 71 69 55 52 51 47 52 39 57 56 49 45 55 61 56 49 49 56 52 67 52 61 60 56 40 55 44 35 73 66 51 47 63 45 47 55 39 33 57 46 44 44 45 57 58 24 88 49 74 67 82 79 47 85 66 49 56 71 66 84 77 45 38 45 129 142 145 158 148 145 
152 150 88 28 47 77 57 67 71 74 62 51 76 72 62 74 58 55 68 73 77 67 73 57 58 47 52 58 41 50 55 55 40 35 55 55 49 53 45 49 47 55 55 66 57 51 38 52 44 36 53 63 51 42 46 47 46 47 44 36 35 46 39 44 39 50 56 22 73 45 71 61 64 74 58 80 49 62 58 73 74 77 58 41 50 28 69 145 136 153 152 139 
160 125 55 38 47 73 57 77 74 74 64 44 77 72 57 80 55 58 64 78 68 66 68 60 60 53 56 52 44 50 56 52 41 41 46 53 49 49 45 52 38 51 46 64 56 49 42 39 50 45 44 58 42 49 40 52 45 41 42 38 26 45 34 45 36 41 49 30 58 51 49 67 61 71 73 57 57 53 67 74 64 74 52 46 46 52 20 125 142 149 147 144 
137 78 47 36 50 57 63 71 72 69 69 46 60 76 60 72 63 67 71 69 78 58 73 66 56 60 55 56 50 56 56 52 47 46 50 56 51 46 53 45 47 57 55 56 52 52 41 36 47 38 45 56 46 46 44 51 45 40 42 38 38 42 39 40 49 45 47 35 40 64 34 67 55 77 60 61 44 60 64 63 52 73 60 47 39 60 24 84 132 143 144 143 
123 60 41 39 50 57 53 73 62 69 64 50 52 82 73 68 73 68 83 73 76 62 78 69 63 64 66 61 55 58 63 55 49 57 62 56 60 50 55 56 63 64 57 56 66 52 49 46 50 42 52 53 56 47 53 51 49 42 42 45 44 52 50 50 49 44 45 39 36 56 30 58 63 78 63 62 66 67 76 62 58 68 64 41 53 53 34 57 118 127 140 136 
82 61 44 45 57 73 50 55 78 69 56 53 58 84 87 67 80 78 91 80 83 74 78 89 76 74 87 72 72 69 74 72 69 79 88 77 83 68 76 88 96 82 69 68 66 67 62 55 58 42 67 61 67 57 73 73 63 56 50 57 58 64 60 61 56 53 47 52 40 47 39 58 67 79 68 66 72 71 80 79 60 64 71 40 53 52 46 40 111 128 140 143 
62 55 50 49 55 77 67 51 69 66 61 61 74 98 88 93 80 89 94 80 80 91 78 91 96 93 116 99 101 96 107 94 105 121 138 118 125 106 127 114 134 121 115 94 82 96 85 77 84 63 69 90 96 89 120 93 102 79 77 83 88 93 79 94 78 85 63 73 56 57 49 52 60 72 55 60 47 51 58 62 56 53 64 55 62 47 41 40 100 125 140 140 
52 53 49 47 51 67 82 63 53 58 69 74 82 99 105 89 90 104 101 101 87 93 85 90 96 104 131 136 133 147 144 138 143 156 185 161 153 174 154 164 161 175 161 120 123 122 107 115 102 102 87 118 133 125 143 128 136 122 125 121 129 131 120 131 115 118 95 100 78 62 62 61 67 71 64 62 64 62 63 64 49 53 55 55 47 61 49 35 90 118 131 139 
44 61 53 45 60 67 68 63 62 61 76 79 85 106 121 114 91 110 105 106 115 87 104 101 90 107 133 163 159 183 193 198 172 187 196 201 169 201 194 194 183 201 194 140 152 154 145 139 139 131 128 133 152 152 160 174 154 165 150 161 163 154 161 159 149 148 137 122 104 90 62 74 73 77 71 69 71 67 63 71 58 49 50 45 51 45 53 24 83 120 122 143 
52 58 61 44 71 79 58 68 76 68 80 95 109 112 106 111 107 125 107 117 123 118 112 114 110 137 138 150 161 176 205 219 209 194 185 207 192 202 215 199 213 203 190 193 177 190 176 170 182 180 176 161 172 169 170 191 180 169 185 182 181 181 156 182 166 148 143 134 107 89 91 96 95 84 73 80 77 76 71 67 57 50 47 55 52 50 41 31 39 128 118 136 
61 45 82 60 60 84 71 71 76 76 80 109 111 98 98 109 118 128 121 126 117 131 125 129 132 134 144 153 163 186 203 214 214 208 174 210 190 196 209 180 209 198 193 196 193 194 188 183 192 183 188 176 183 186 185 194 207 187 196 201 201 190 163 186 181 158 138 122 117 99 107 100 109 94 79 83 79 74 66 69 64 45 47 46 58 50 42 30 26 109 125 128 
69 58 77 71 73 74 67 83 73 77 90 111 101 99 102 115 123 128 121 129 138 159 158 152 153 153 154 161 161 194 205 223 212 215 178 203 188 194 198 183 210 193 198 193 181 183 181 175 192 185 188 188 187 201 196 198 209 203 198 214 209 198 174 191 207 170 150 134 123 115 104 112 91 94 88 79 85 78 68 73 67 56 35 46 44 51 35 38 20 91 131 128 
77 64 62 69 67 72 73 80 83 69 107 110 102 106 110 115 129 121 121 150 159 161 155 139 153 159 164 165 188 192 202 210 205 205 199 186 188 186 188 202 209 212 205 208 201 202 182 191 199 196 198 201 197 213 201 203 209 209 214 214 220 202 191 198 207 197 164 140 127 116 106 101 93 85 77 77 76 79 71 64 72 72 45 50 45 38 36 33 25 88 107 123 
76 71 61 69 58 64 73 80 88 82 106 105 102 106 114 121 117 121 142 159 159 159 148 145 174 169 176 178 202 203 203 215 228 224 214 219 208 194 208 228 224 220 219 219 218 209 197 192 205 199 207 210 204 214 212 208 216 218 218 219 224 208 202 204 210 203 187 156 145 112 106 95 78 82 79 77 64 78 77 66 71 73 67 50 46 39 30 39 26 71 107 111 
69 80 61 64 57 56 62 80 88 93 96 104 102 99 114 118 102 134 154 149 155 153 152 158 176 183 187 190 218 215 213 221 231 239 236 231 234 192 218 240 231 228 218 220 225 212 205 196 207 197 215 218 208 218 223 210 214 228 216 224 225 220 212 210 213 210 201 175 154 134 114 99 89 79 73 77 66 73 78 76 69 62 63 68 51 40 33 35 28 52 122 110 
66 73 58 78 55 47 66 74 73 91 90 99 90 99 114 109 118 148 147 170 150 161 164 156 177 197 197 205 224 234 231 230 239 242 241 236 240 218 209 237 236 229 225 214 225 218 210 194 205 204 220 221 218 221 226 218 214 225 225 225 231 224 221 215 210 213 207 187 164 140 132 109 107 87 79 76 71 72 68 79 68 72 58 63 64 44 36 34 31 49 122 122 
63 66 53 83 64 47 69 71 68 79 94 90 84 101 117 102 127 149 150 169 164 161 172 169 193 207 203 219 226 239 232 232 240 240 243 240 236 232 225 230 234 226 231 219 225 220 213 201 197 210 221 225 219 220 223 221 216 224 225 228 228 228 221 220 208 214 202 198 176 155 140 121 117 109 84 80 67 77 66 76 68 73 68 49 73 44 44 31 36 31 116 115 
47 71 52 63 73 58 62 61 60 76 88 85 77 100 106 104 128 158 158 170 183 180 178 178 197 208 207 223 226 237 232 232 237 242 246 242 241 230 236 232 231 225 237 224 225 220 214 216 198 205 223 226 221 221 225 228 223 225 226 228 226 226 221 224 210 212 207 198 191 174 145 138 120 117 99 83 68 68 71 58 76 61 72 51 52 55 45 39 38 25 85 121 
45 58 60 60 67 63 57 55 57 67 91 73 74 98 98 106 131 170 171 172 193 186 190 202 198 198 213 226 228 232 235 232 234 241 242 242 239 229 234 236 235 229 232 232 220 224 215 220 210 207 223 230 223 220 226 229 224 226 229 223 225 228 221 221 214 209 208 197 193 181 158 148 134 120 106 89 80 67 63 62 57 67 58 67 33 50 51 41 42 23 68 125 
61 46 60 66 64 55 56 49 55 61 85 66 71 98 99 98 148 180 181 180 187 196 208 207 212 193 214 223 226 230 235 231 234 239 237 243 234 229 234 236 236 229 231 235 221 229 218 219 220 199 225 225 223 220 225 229 221 226 229 219 221 224 220 218 219 209 205 201 194 185 167 154 144 128 117 91 89 66 60 57 55 58 51 60 38 36 40 51 42 23 62 133 
77 44 62 66 53 53 52 44 49 64 69 66 67 95 101 110 149 183 187 183 191 194 212 210 210 203 208 213 221 225 234 230 232 235 236 240 234 232 235 234 234 229 232 231 223 232 219 215 224 207 218 225 224 228 225 228 219 225 221 219 221 223 218 210 215 205 199 197 196 186 167 161 149 136 127 111 94 82 60 53 52 51 44 49 44 31 35 40 35 30 58 131 
68 51 60 63 47 55 49 41 51 62 62 62 68 91 98 133 150 185 190 187 193 203 210 213 215 213 210 213 220 223 228 232 230 236 234 236 231 236 232 229 230 226 228 230 224 226 225 219 224 212 219 226 221 225 224 219 218 221 218 219 223 218 216 209 207 201 196 198 188 182 176 154 159 145 137 120 101 96 64 52 45 46 41 45 36 34 33 41 31 31 49 129 
66 49 64 58 45 50 41 44 49 55 60 52 62 87 99 144 150 182 187 188 192 214 207 209 212 215 221 216 223 221 224 229 232 232 232 232 230 232 234 229 225 220 225 230 223 224 225 221 221 220 216 225 225 223 220 220 214 219 215 215 223 214 219 204 204 197 190 193 193 183 169 159 155 152 145 123 102 99 76 53 47 38 39 41 31 38 29 34 33 30 34 126 
61 52 53 60 47 38 35 52 40 53 50 52 73 78 105 150 154 178 188 190 199 210 209 215 213 219 220 218 216 220 225 223 231 229 230 230 229 229 229 226 230 220 224 224 221 220 221 223 219 220 215 226 226 223 219 208 210 210 220 215 215 214 213 203 201 190 190 187 182 176 176 163 153 155 145 127 105 96 85 55 40 36 35 41 31 34 34 35 33 29 35 99 
73 46 47 64 49 39 42 40 41 46 51 44 73 77 100 147 164 169 187 193 209 209 213 219 210 221 221 224 220 223 224 225 229 226 229 229 229 226 225 225 225 225 224 223 224 220 220 219 220 210 218 221 223 218 215 202 205 213 215 210 208 204 205 197 196 190 192 186 183 172 167 166 155 149 150 131 109 99 85 60 45 36 33 35 36 29 34 35 33 30 44 102 
74 57 38 55 47 41 38 44 42 42 40 50 63 79 91 140 169 174 181 196 208 209 213 216 214 220 225 225 220 224 224 223 225 226 229 228 225 226 221 226 221 221 223 223 220 220 218 218 223 215 216 218 216 216 209 208 209 215 207 207 199 199 199 197 188 188 183 186 178 172 172 161 158 152 149 139 109 96 84 61 46 25 34 33 35 30 31 36 29 28 52 91 
61 71 29 44 46 47 33 41 46 39 44 46 56 77 93 129 169 182 180 198 210 213 214 213 220 224 220 225 224 224 226 224 223 226 229 226 228 224 224 224 226 221 224 223 223 220 219 216 220 218 214 214 213 214 213 207 205 207 202 198 198 196 193 187 183 183 187 177 175 170 165 161 156 152 145 142 115 98 79 60 39 35 25 33 31 31 31 33 36 24 63 83 
62 72 36 33 50 35 39 38 44 30 44 45 56 69 102 120 160 182 186 202 204 214 213 215 223 223 220 226 224 225 228 225 224 225 230 225 230 225 225 228 224 223 224 224 225 220 224 216 221 219 212 213 213 214 210 207 207 207 204 199 199 199 196 187 187 187 187 180 172 169 167 160 154 156 143 140 120 100 74 50 39 34 25 26 28 31 35 29 33 35 60 74 
67 72 46 28 44 34 39 36 35 35 42 41 53 64 112 127 137 176 196 199 198 215 214 218 219 223 224 226 226 226 230 229 231 230 231 225 230 229 230 229 226 231 226 230 223 226 226 224 223 220 218 220 218 208 207 210 207 204 203 209 202 204 202 194 197 194 186 180 174 169 165 164 155 156 145 133 128 94 72 47 36 29 30 26 23 28 39 24 31 30 93 62 
58 84 45 35 31 36 38 33 40 39 38 47 50 67 117 144 156 155 186 204 201 207 210 213 219 224 226 228 230 229 234 231 231 231 234 230 232 231 232 228 230 230 231 228 228 229 228 223 224 225 223 224 220 216 213 213 210 208 208 213 209 205 202 205 198 198 192 181 178 166 167 165 156 154 147 136 125 100 66 45 33 31 25 25 29 30 29 33 29 42 95 80 
57 82 52 35 29 36 29 44 41 41 38 47 47 80 125 149 175 169 174 203 209 208 213 214 219 225 229 228 230 228 230 232 232 236 235 235 232 235 235 232 235 234 230 230 229 232 231 225 225 230 223 221 220 218 214 214 210 213 214 215 212 209 209 207 202 199 191 188 180 175 170 171 161 154 143 137 121 96 63 45 33 26 26 25 31 29 26 38 28 42 93 91 
61 69 63 34 28 29 31 42 41 40 45 46 58 93 132 154 178 177 185 191 207 215 215 219 220 221 225 223 223 226 228 232 231 236 236 236 232 232 234 235 232 232 231 231 230 234 232 229 226 226 226 223 224 223 218 220 216 219 218 214 215 218 219 208 205 201 196 191 188 178 174 169 164 153 142 136 122 93 68 33 34 31 24 26 25 28 26 33 31 47 91 100 
57 64 64 38 31 29 30 42 45 45 36 53 64 104 137 169 177 185 192 208 210 208 194 204 208 214 212 212 220 223 221 228 228 228 231 235 234 231 235 232 232 230 232 228 232 234 231 230 226 226 221 223 224 224 219 218 218 223 220 218 220 223 221 212 208 207 198 193 185 181 172 169 163 153 143 132 120 88 57 38 30 35 23 25 25 26 31 29 34 49 87 87 
60 63 68 39 33 31 33 47 45 46 40 60 77 129 158 169 177 181 201 212 204 180 159 158 180 192 183 202 212 212 213 215 219 223 225 225 231 225 228 230 226 226 230 228 232 229 229 229 226 225 223 221 220 224 219 219 220 220 221 216 215 216 213 207 201 199 194 187 180 171 174 166 159 155 140 136 121 90 52 39 31 35 28 30 20 26 26 29 24 57 76 87 
57 76 52 47 28 34 40 46 46 47 41 72 109 160 174 176 183 186 201 185 150 112 111 121 121 122 131 134 153 156 176 188 188 194 201 210 218 214 215 213 219 219 224 226 225 229 223 226 224 220 220 212 213 213 213 208 212 218 210 208 207 198 188 188 191 185 177 177 166 160 155 149 154 152 143 133 122 90 56 36 33 28 25 29 23 26 33 30 28 55 79 87 
66 69 61 38 39 26 46 46 50 40 52 87 131 174 185 187 185 183 153 105 95 87 93 101 90 87 94 93 91 101 104 111 118 122 138 163 164 180 181 197 201 210 216 221 223 221 225 220 220 216 213 202 203 201 204 196 196 197 192 182 177 160 152 144 144 144 140 138 132 126 128 117 122 139 144 132 118 99 60 40 31 29 29 26 22 25 30 33 33 47 100 99 
62 69 58 42 34 35 45 51 44 44 51 110 150 182 194 196 169 125 87 89 91 99 87 88 82 83 77 80 72 69 83 73 80 76 69 102 126 133 144 171 186 199 212 218 221 221 225 219 218 212 204 197 191 186 181 178 160 158 142 123 110 100 99 79 84 82 93 89 89 79 77 80 76 107 134 137 121 116 72 34 34 29 26 29 24 20 30 35 34 38 115 102 
68 74 68 42 34 42 47 51 36 40 66 128 171 186 201 187 120 93 106 137 152 150 142 128 107 112 107 98 87 85 72 77 67 73 76 77 93 110 111 123 170 187 203 212 208 221 224 219 212 204 198 191 190 176 164 139 107 101 87 78 72 72 67 61 58 57 57 62 52 64 57 63 62 49 96 129 122 123 82 39 31 33 29 23 30 24 24 39 33 35 90 107 
72 74 73 41 40 46 50 47 40 38 79 137 180 196 199 154 101 120 149 186 194 192 185 181 166 159 149 148 140 132 110 91 83 90 94 100 110 112 118 116 142 181 196 212 208 218 221 216 210 199 194 182 180 175 139 114 91 79 74 67 63 62 60 63 52 58 61 60 62 66 72 74 76 49 44 84 126 128 94 45 23 31 29 28 28 26 28 36 38 26 76 115 
56 72 64 47 44 52 51 42 44 30 93 156 190 207 180 136 132 156 176 191 188 187 172 169 160 147 137 133 129 131 127 116 116 106 115 126 131 134 134 129 143 177 202 207 204 220 221 215 204 197 183 178 170 155 117 109 93 90 80 74 73 69 71 79 88 99 96 105 109 120 120 121 112 84 52 35 99 134 114 49 23 24 31 28 24 29 26 40 30 30 71 111 
60 58 66 45 47 49 47 47 36 38 107 166 196 197 170 147 156 163 170 167 165 154 128 106 100 87 84 68 69 67 63 64 74 94 100 127 139 137 140 140 152 170 193 208 215 219 224 214 204 192 176 171 156 132 110 112 107 111 102 104 102 106 114 117 127 131 136 139 142 148 139 138 140 138 111 52 58 132 118 60 18 28 28 24 29 29 33 33 29 24 69 102 
68 55 55 52 47 49 47 44 38 42 126 177 202 201 169 161 165 160 159 148 139 110 91 83 76 79 78 60 51 51 47 46 52 67 82 94 120 137 138 139 144 160 194 210 223 226 228 219 210 201 177 163 142 123 105 114 115 110 104 96 80 88 82 84 88 98 111 121 125 134 134 136 136 138 133 90 52 123 131 64 20 25 28 22 29 30 38 29 22 24 61 98 
41 58 47 46 51 52 51 52 39 52 138 186 205 199 175 161 166 153 147 132 112 101 78 63 71 109 109 53 52 72 40 49 23 77 80 100 89 127 133 142 139 147 198 221 230 234 237 226 220 209 175 156 126 107 109 110 100 87 83 73 56 58 55 55 58 64 62 88 85 90 112 123 125 122 136 118 74 115 134 71 20 26 28 24 26 31 33 28 23 25 56 89 
31 35 42 45 55 58 53 58 42 55 154 193 204 201 188 177 176 156 137 131 120 91 68 77 125 185 176 68 51 76 47 77 18 89 155 93 115 107 123 137 144 145 186 229 241 240 245 235 226 213 174 138 116 111 101 93 91 98 91 61 44 42 26 49 45 47 52 51 71 74 74 101 117 121 126 123 99 122 144 73 22 25 24 30 25 31 28 30 28 17 66 67 
25 34 40 42 62 61 61 55 44 60 161 199 201 208 210 199 192 176 149 144 140 76 82 102 154 198 212 91 55 62 55 69 30 111 182 133 87 114 120 142 140 153 183 234 243 247 248 241 230 213 165 128 115 116 102 101 93 109 138 67 53 89 42 60 39 39 88 60 45 52 83 71 109 116 123 122 117 131 138 89 24 23 28 25 26 28 34 29 31 20 51 67 
25 34 34 42 67 57 63 61 39 73 166 193 209 213 224 220 216 209 190 182 182 132 79 111 131 170 220 128 67 71 68 49 68 153 171 140 112 95 131 153 153 163 191 229 245 248 248 245 240 208 147 129 120 131 115 91 90 145 171 72 36 66 45 62 38 38 150 117 58 35 62 91 101 115 118 125 123 132 144 89 29 24 31 24 24 29 24 25 26 26 38 58 
38 28 45 40 69 68 66 63 44 71 175 196 209 221 220 230 224 224 214 205 204 171 136 118 114 128 178 170 129 115 110 100 127 154 153 132 128 136 152 171 169 183 208 230 245 251 250 242 241 207 145 127 138 145 121 90 104 147 182 96 38 77 56 55 35 77 158 145 82 53 42 95 102 115 126 136 132 138 147 93 38 25 29 24 28 22 18 25 22 22 44 50 
38 35 44 40 72 77 62 62 55 77 174 193 212 220 225 229 228 228 224 218 213 190 171 169 152 147 143 149 153 155 156 153 149 159 158 150 145 164 169 185 182 201 224 230 243 251 251 245 236 213 143 134 145 149 138 117 115 122 148 134 67 64 60 61 50 127 140 127 88 58 72 88 106 120 142 143 140 147 149 100 44 28 34 24 30 19 18 24 22 15 46 76 
34 40 41 36 80 82 69 73 56 73 166 194 210 220 226 228 229 231 228 220 210 201 193 183 178 177 174 164 160 150 145 155 153 152 152 158 153 155 177 204 197 216 225 231 243 251 248 245 242 213 149 137 143 149 132 142 145 143 149 140 133 133 129 123 115 126 114 94 84 83 112 126 125 136 154 161 150 154 149 104 35 46 25 30 28 23 19 24 24 13 36 95 
34 39 42 47 66 82 87 85 68 64 164 193 212 223 229 228 228 230 229 223 216 208 198 187 182 176 172 165 159 155 154 154 153 155 152 158 161 183 209 223 210 223 226 232 243 253 247 245 237 209 155 142 142 155 136 133 147 158 159 150 134 129 122 122 117 110 125 116 115 110 129 144 152 154 164 163 155 159 149 109 44 41 36 25 30 22 19 22 24 15 24 101 
29 42 50 42 35 122 96 91 77 63 152 187 212 220 229 226 228 232 232 224 223 216 209 201 188 183 174 166 163 158 159 154 150 148 159 178 196 225 230 230 216 223 231 231 243 253 251 239 241 199 158 147 145 164 165 142 136 152 165 167 165 150 144 143 142 136 138 136 128 132 139 150 163 160 174 169 167 159 156 101 55 47 36 25 29 25 15 22 28 18 17 83 
26 44 45 47 26 138 105 116 90 61 138 183 201 214 224 229 229 231 234 236 226 234 228 215 201 193 177 175 172 166 166 171 172 185 205 220 232 236 231 228 223 229 232 230 241 252 248 243 242 194 160 153 155 169 185 180 159 144 144 152 158 159 147 145 138 140 138 134 134 137 153 165 164 166 174 170 166 160 158 80 68 58 30 28 25 23 19 23 26 19 13 69 
39 46 41 52 29 79 111 143 111 67 121 177 197 214 223 225 229 230 236 234 237 241 243 237 234 230 223 219 214 209 212 216 219 220 235 234 239 236 231 230 228 231 231 230 241 253 246 242 241 191 160 156 158 166 187 199 192 176 163 153 148 145 144 145 144 145 145 144 145 154 164 171 167 170 172 171 164 159 154 71 68 87 19 29 18 25 23 22 28 22 12 58 
36 46 45 49 30 52 117 148 147 79 109 167 197 212 221 226 224 234 235 235 237 245 245 242 242 243 240 239 237 231 240 239 236 236 237 239 241 237 232 230 228 230 231 230 243 255 248 243 237 185 164 158 158 165 186 207 215 208 199 178 161 155 144 147 147 147 150 154 155 164 167 174 172 171 171 165 163 154 148 60 73 93 23 24 24 26 18 26 23 29 8 47 
46 39 45 44 35 35 114 144 170 110 99 161 186 209 220 224 228 231 235 236 241 246 246 246 246 247 246 246 246 243 243 242 241 239 239 240 239 240 232 232 231 229 230 229 242 252 247 243 231 185 156 161 154 169 186 205 212 221 224 223 212 204 193 182 181 180 180 188 191 187 185 180 175 172 169 165 159 156 136 52 98 66 23 24 24 26 22 23 23 26 15 34 
46 39 53 30 40 15 110 134 161 133 88 150 181 203 214 224 226 231 235 239 242 246 247 247 245 247 246 246 246 246 245 245 241 241 235 237 240 236 235 232 232 230 229 230 240 253 251 241 225 178 159 163 158 169 182 204 212 220 224 228 226 226 224 218 215 208 204 207 204 202 196 188 172 174 166 160 159 150 110 83 94 40 25 29 25 24 24 22 20 31 18 22 
39 49 41 28 39 14 94 139 148 142 85 148 171 201 205 218 228 231 235 239 241 246 245 247 246 247 245 248 247 242 246 246 241 241 234 239 237 234 234 231 230 229 230 232 232 251 247 240 215 172 159 164 160 167 180 201 212 219 220 219 226 228 226 229 228 228 219 214 210 201 196 188 176 169 167 163 156 145 95 102 73 25 33 30 25 24 23 23 19 35 18 25 
39 50 34 26 39 23 58 148 147 161 112 133 164 194 203 215 226 230 232 240 239 246 245 246 247 245 246 247 242 242 236 243 236 235 231 234 230 228 230 226 225 228 230 232 239 245 247 239 213 176 158 164 158 167 171 193 208 213 214 221 223 225 224 232 232 225 224 218 213 203 201 191 180 175 164 159 155 131 105 116 50 19 30 28 29 20 28 20 24 31 22 15 
45 40 28 25 34 34 19 125 153 176 138 129 155 186 197 212 228 228 231 236 239 245 241 246 245 246 241 245 239 241 241 243 231 224 228 221 216 215 221 218 221 224 231 236 241 247 242 236 208 181 161 163 158 161 171 185 203 210 218 220 224 223 221 229 229 226 224 218 212 208 204 193 183 176 163 158 145 121 110 115 38 18 34 28 25 24 24 23 23 28 26 15 
42 40 20 29 29 29 22 33 140 167 153 129 155 178 193 209 215 225 234 234 236 242 242 240 243 243 241 242 240 239 235 234 226 212 208 198 187 201 218 216 215 226 232 240 246 245 242 232 213 191 169 158 150 149 152 177 193 207 214 218 220 226 223 224 226 225 223 221 210 210 205 192 185 175 163 153 139 112 123 93 17 20 30 31 26 25 25 23 19 33 25 22 
40 31 24 26 24 26 34 13 46 131 150 131 156 166 188 198 213 221 228 234 234 239 239 237 236 241 236 235 235 229 225 218 214 196 187 172 170 208 219 223 216 224 237 242 246 246 240 230 216 201 175 149 152 138 134 164 186 196 205 213 223 224 225 223 221 216 216 218 209 210 199 187 177 172 156 150 132 111 138 67 11 14 30 33 24 28 22 28 23 24 30 22 
39 30 24 26 23 26 29 26 12 39 98 138 155 165 183 192 209 221 220 229 230 234 236 232 234 234 232 231 229 220 215 205 190 182 174 167 175 228 231 232 220 223 236 243 246 246 236 229 220 207 176 155 166 145 123 152 180 193 202 208 219 220 223 218 212 208 213 208 204 203 193 183 175 166 156 148 118 125 129 41 13 14 25 31 28 26 23 29 20 25 28 20 
36 26 20 20 23 28 24 29 23 29 6 139 159 159 176 185 202 213 219 220 226 225 226 225 232 230 223 221 219 208 199 185 175 167 175 164 187 236 232 235 229 220 239 243 245 241 236 220 219 205 182 163 181 170 116 139 170 185 193 205 209 218 216 214 205 201 207 198 194 191 185 172 169 159 150 139 107 126 84 12 22 17 20 29 28 30 20 29 22 26 24 22 
31 26 20 19 23 28 20 28 31 25 3 132 164 163 172 181 197 203 210 215 218 220 223 219 224 221 212 207 203 198 183 166 159 158 178 191 191 219 223 228 230 229 232 240 242 237 231 225 218 205 181 170 180 183 127 134 156 175 181 194 201 209 208 208 203 199 199 194 192 186 176 174 161 152 147 136 96 77 29 23 20 17 25 23 30 25 26 25 28 22 26 23 
33 22 20 22 18 29 20 28 34 25 4 112 166 165 166 174 187 193 196 205 208 210 214 209 210 208 202 190 180 177 158 154 142 153 178 204 208 183 176 203 218 228 231 235 236 231 226 216 209 198 182 167 164 170 136 134 147 161 174 180 191 198 196 198 194 186 192 183 185 178 171 167 153 152 142 131 57 18 28 24 24 20 18 25 24 25 28 22 31 22 22 25 
30 24 20 22 22 28 23 29 33 26 6 96 169 165 166 166 177 190 187 196 198 198 204 198 197 190 183 170 160 152 143 137 137 160 192 205 220 205 132 123 172 198 221 221 224 223 212 208 192 174 158 139 134 144 139 143 138 152 158 167 181 183 180 187 185 186 178 176 178 167 166 161 152 140 142 120 20 9 29 20 28 18 19 22 23 24 26 18 28 28 20 28 
26 24 22 24 18 23 25 35 29 30 18 72 165 170 169 166 169 182 183 188 194 192 193 188 182 176 166 159 148 139 131 142 164 190 209 212 214 218 182 133 137 159 182 201 202 199 190 181 166 147 118 112 121 138 147 140 131 133 145 156 167 170 176 176 177 178 171 170 166 161 158 153 149 136 142 100 9 18 24 22 24 22 18 20 24 20 25 23 29 29 22 28 
25 28 18 25 25 14 31 41 23 35 17 42 163 171 170 170 163 169 172 178 183 180 183 174 171 161 154 145 133 132 143 165 192 204 216 220 216 218 197 167 145 145 149 159 163 152 158 143 137 105 96 123 140 142 147 145 129 126 132 145 152 158 166 169 170 171 161 165 159 156 154 145 138 138 133 90 3 18 25 19 25 22 20 20 24 23 23 24 24 29 29 13 
29 20 25 22 19 30 31 30 30 34 29 29 153 171 174 167 164 163 164 167 176 171 169 161 156 145 140 129 136 150 166 185 201 215 220 223 224 221 214 182 166 155 147 131 133 121 122 118 107 102 123 142 144 142 153 148 147 131 123 137 144 147 156 158 163 160 159 155 153 152 140 140 132 132 132 60 7 23 22 26 23 20 22 23 26 19 25 23 26 23 28 19 
28 24 20 20 23 34 31 28 25 35 41 19 133 175 172 176 164 161 159 167 171 167 165 159 147 143 128 133 153 160 170 193 210 224 228 221 230 225 223 203 181 170 152 134 117 125 123 120 120 126 136 147 147 152 155 148 155 153 125 126 133 142 147 152 154 155 153 152 145 139 134 133 128 132 122 45 8 22 22 23 20 25 19 22 28 22 25 20 31 22 24 25 
24 26 19 22 24 30 33 33 14 35 47 9 95 172 174 180 169 161 160 166 166 170 158 154 148 129 134 150 150 163 171 196 212 224 225 220 229 225 226 225 197 180 158 143 144 140 139 129 137 140 145 148 148 156 154 153 156 163 143 110 131 131 134 142 145 148 148 145 137 129 123 133 127 131 116 24 17 23 17 24 23 23 24 20 26 22 23 19 34 24 20 29 
28 29 19 31 31 31 28 23 22 39 50 22 46 174 170 175 177 169 159 167 172 165 159 155 139 139 138 140 148 155 176 199 214 220 225 224 225 223 226 228 213 194 167 158 159 155 144 144 145 145 153 152 154 159 156 160 159 152 154 128 105 122 133 137 139 143 145 140 137 122 125 131 129 132 95 7 22 19 20 20 24 24 26 23 29 22 23 23 31 28 23 25 
23 30 31 36 29 34 20 23 26 50 45 24 9 155 169 176 178 175 165 165 169 169 163 164 149 150 127 132 136 144 172 199 213 216 220 225 224 226 228 226 224 207 182 170 167 164 156 159 160 148 161 159 159 160 158 160 154 144 143 139 101 111 134 133 138 142 140 143 131 123 128 127 131 133 62 9 24 22 22 20 26 25 24 18 30 23 22 24 28 31 26 19 
24 38 39 38 31 26 22 22 42 56 31 28 9 104 167 171 175 174 172 165 167 171 174 171 171 155 115 134 136 104 110 153 176 185 199 212 215 221 225 220 221 208 194 190 177 176 172 174 171 170 161 166 165 165 160 158 147 140 129 129 112 91 129 139 142 143 144 142 132 123 133 132 132 116 36 9 30 18 20 24 22 28 25 19 33 18 24 23 31 34 23 24 
34 47 41 33 30 19 29 25 57 41 30 23 28 45 156 165 169 175 175 171 163 170 177 178 181 153 120 154 165 164 122 77 102 129 139 150 160 165 167 169 169 185 193 193 186 182 176 171 167 160 159 163 161 153 156 148 143 131 115 117 120 91 127 147 144 148 145 142 131 131 139 134 131 90 12 13 28 20 19 26 19 28 26 23 28 24 19 26 26 28 28 18 
46 46 40 30 26 20 33 38 57 31 31 25 38 9 122 161 166 172 176 172 165 163 172 176 177 144 139 172 183 201 193 142 94 77 98 102 123 131 129 137 134 142 149 165 169 154 148 140 133 129 128 134 133 129 126 116 101 96 84 111 115 107 133 160 152 153 139 137 132 138 133 137 125 51 11 22 25 19 23 26 25 22 28 25 23 26 20 28 28 33 29 24 
50 46 28 30 26 34 35 52 44 30 26 34 28 14 44 152 160 169 177 167 171 161 161 167 171 155 156 188 202 209 214 219 175 134 110 74 114 160 132 145 139 132 134 137 138 126 122 127 116 114 107 98 100 96 102 76 72 116 127 136 126 115 149 166 161 152 137 133 129 137 134 132 99 19 19 23 24 25 23 23 23 24 26 24 25 25 19 25 28 31 29 25 
53 36 23 24 34 30 42 51 41 25 34 33 29 29 13 100 155 159 169 170 167 169 155 161 169 165 177 196 207 214 213 220 215 188 171 154 118 143 129 169 186 159 132 120 120 115 116 118 106 125 120 73 62 68 79 95 121 156 148 150 137 129 163 165 156 148 133 132 133 136 136 122 57 9 25 23 23 26 19 26 22 30 23 28 26 28 22 23 29 30 30 24 
39 25 26 26 34 39 46 49 33 34 36 31 26 24 13 23 147 148 161 164 169 167 161 161 170 176 183 199 205 209 209 216 213 208 190 187 190 149 114 150 186 170 161 131 163 147 147 138 120 133 117 77 84 94 118 133 153 159 156 163 143 142 159 155 152 138 132 128 134 134 127 101 28 17 29 24 18 26 26 19 23 30 25 25 26 25 20 23 29 28 33 25 
30 26 22 35 38 45 49 40 36 46 41 20 31 22 20 3 99 144 152 154 160 169 170 169 177 180 191 199 207 204 205 210 213 209 203 186 196 197 191 156 145 144 128 121 167 152 148 131 105 106 111 115 114 121 134 152 155 155 166 161 143 142 154 149 139 131 129 129 131 123 107 74 28 24 29 26 20 28 22 25 24 29 26 25 22 22 20 22 25 28 33 20 
26 20 26 39 42 41 52 42 46 60 38 24 28 29 23 4 91 137 140 152 159 163 172 176 175 187 196 201 205 202 198 194 212 207 207 197 180 175 187 199 193 174 148 131 137 131 132 127 127 131 123 123 118 133 148 152 153 163 166 158 148 144 148 139 136 125 127 125 125 111 67 72 33 25 23 31 20 25 24 24 22 29 23 25 24 24 20 25 26 33 29 25 
26 20 29 41 40 36 52 42 49 53 36 20 28 28 20 7 82 143 125 142 153 158 167 177 180 193 201 202 202 196 196 193 193 203 201 199 188 171 164 167 182 181 169 165 161 150 144 140 136 120 114 122 128 147 153 147 152 164 158 154 148 142 142 132 129 123 122 126 110 82 61 72 28 25 29 24 22 28 26 23 28 26 24 24 26 24 22 22 30 25 31 28 
23 24 35 33 41 42 39 51 36 41 31 24 25 23 23 4 78 140 139 116 143 154 158 176 185 193 205 201 202 201 196 199 188 180 201 194 187 186 167 153 143 142 138 137 138 133 128 126 118 121 132 138 152 148 145 152 158 161 160 150 148 145 138 129 127 122 116 115 79 66 68 47 35 23 30 24 25 28 25 25 28 28 22 25 25 20 25 15 35 24 26 24 
23 24 34 36 45 38 39 39 34 33 23 26 25 23 20 3 82 136 149 126 126 143 156 169 182 187 203 209 205 204 205 199 193 178 187 186 187 181 170 155 143 139 138 129 129 126 128 133 134 136 145 152 149 143 142 158 163 163 155 150 145 139 133 123 121 115 112 89 63 63 61 26 25 30 28 23 29 25 30 24 26 30 23 22 25 20 20 22 29 20 24 31 
29 26 34 39 40 26 38 35 29 24 22 23 23 28 15 3 78 142 140 145 131 128 148 161 175 178 201 210 209 207 208 209 194 188 182 174 176 180 171 166 153 154 147 144 140 140 144 145 148 149 144 148 139 144 150 156 164 156 158 147 138 134 126 123 115 115 82 66 51 57 34 30 24 29 33 20 29 28 28 22 28 30 17 28 23 20 20 25 31 19 28 24 
35 22 38 34 36 24 33 31 20 22 20 20 23 23 17 1 94 138 144 147 150 129 127 150 164 176 188 204 209 213 210 205 202 194 190 181 166 165 159 159 154 150 150 148 150 145 147 144 147 138 137 142 140 150 159 161 164 159 152 144 138 123 120 116 109 83 31 34 40 31 24 29 25 24 31 20 31 26 23 25 29 26 25 26 20 26 17 23 28 22 25 30 
33 30 36 38 34 33 30 25 22 24 22 23 23 19 19 0 101 139 140 152 145 147 128 133 155 164 181 197 203 213 214 213 208 202 199 194 183 174 163 156 150 149 147 144 143 140 140 142 143 136 144 148 150 155 166 160 164 156 150 144 125 121 115 102 98 50 15 18 22 25 25 26 23 28 24 28 29 24 25 23 28 23 28 26 20 23 24 20 26 18 24 23 
30 34 39 36 35 36 25 26 23 22 20 26 19 19 23 1 105 138 143 149 154 145 149 131 138 149 165 190 198 212 215 219 212 210 212 203 204 190 182 166 159 154 152 148 149 145 148 153 150 153 148 155 155 161 167 164 161 154 142 131 114 114 101 98 80 34 18 18 20 25 26 23 29 18 28 23 30 28 23 28 30 23 29 24 20 23 20 20 26 19 29 14 
31 28 39 31 24 33 23 25 22 20 22 19 26 22 31 22 116 136 145 148 153 154 147 148 131 139 148 170 196 205 214 218 214 216 210 213 214 215 208 202 194 182 180 176 167 170 165 170 166 160 160 164 160 170 167 163 163 152 133 114 107 101 102 101 61 26 19 22 23 29 22 25 24 24 26 26 28 25 24 25 30 24 24 26 14 24 19 25 23 22 25 23 
34 25 38 26 30 24 24 25 22 20 20 19 33 34 41 62 114 138 148 148 153 163 155 143 147 129 136 149 181 199 209 210 220 224 225 220 219 226 225 221 220 213 215 209 199 194 190 191 182 174 167 171 171 175 167 159 155 138 116 102 100 112 107 94 45 24 18 25 24 24 23 24 30 23 29 24 28 23 25 26 25 26 24 22 18 24 20 23 24 19 23 23 
52 31 34 30 33 31 25 26 19 23 15 33 41 44 57 90 107 143 144 155 155 160 158 154 144 140 133 131 154 185 198 207 215 224 228 226 225 226 229 226 225 215 219 219 215 208 207 202 194 186 185 177 176 171 163 152 144 118 99 105 117 116 110 73 29 24 20 26 22 22 24 23 25 22 28 22 23 29 24 25 26 28 20 23 19 23 19 23 28 17 26 26 
45 33 31 31 26 38 29 26 23 19 26 39 61 45 76 87 112 137 149 159 161 163 160 160 153 145 137 132 133 158 185 194 204 215 224 228 226 225 225 225 221 216 212 213 215 212 210 205 201 191 191 185 180 161 150 143 121 101 109 120 118 118 109 52 20 20 26 20 20 22 24 20 22 24 23 22 22 28 26 25 25 22 22 19 24 18 22 22 23 19 28 30 
47 33 31 26 34 29 33 28 22 15 42 57 66 61 76 105 114 134 148 156 161 169 161 155 159 154 139 134 132 129 164 182 197 208 216 224 224 220 221 218 216 212 210 205 210 203 209 204 194 183 188 182 167 148 145 125 106 115 121 121 117 118 96 44 19 22 23 25 17 24 19 25 23 26 22 23 26 24 30 20 25 23 20 19 25 18 18 25 19 28 22 42 
