P2
# Imagen
92 112
255
151 151 150 150 151 152 152 138 155 140 151 147 164 162 156 165 177 186 118 97 136 94 89 87 110 128 131 145 125 149 143 142 135 144 139 136 139 146 134 137 143 138 130 135 139 132 132 143 134 134 134 137 128 130 118 113 120 111 118 103 110 84 89 72 131 127 147 153 152 159 162 165 163 153 152 146 146 152 146 149 150 146 150 145 147 148 147 144 149 148 150 146 
151 150 150 146 153 150 153 136 142 149 136 148 150 163 160 166 185 189 101 74 79 84 94 106 124 140 138 155 150 144 144 146 144 143 145 137 152 150 140 140 147 142 138 144 136 149 140 146 152 138 142 141 131 128 135 129 116 135 125 118 118 108 104 101 99 98 94 125 160 165 160 161 157 166 156 148 146 146 149 142 151 150 150 149 148 145 151 143 146 153 146 146 
154 150 154 154 151 156 149 135 141 147 159 132 142 151 154 167 185 152 74 68 86 96 109 121 138 144 140 159 176 150 147 142 152 142 144 147 153 148 153 142 152 147 149 145 143 153 144 145 154 145 141 142 143 131 131 146 132 136 133 130 117 129 112 123 112 125 97 82 100 131 164 172 156 166 164 157 150 147 147 148 148 148 147 151 148 147 146 145 149 149 141 145 
155 154 153 165 154 157 151 135 136 142 143 141 123 132 123 118 107 91 81 87 101 111 127 131 145 150 145 147 178 151 152 145 151 143 148 148 151 155 151 150 147 149 151 149 143 154 146 144 148 148 157 147 144 156 145 137 163 138 152 129 132 123 138 119 131 123 127 122 88 94 97 130 164 165 168 165 155 158 152 148 144 148 141 141 145 144 150 148 148 142 151 144 
150 157 152 157 167 158 153 159 158 138 128 114 89 70 72 84 103 105 95 106 110 128 138 138 146 153 151 147 173 150 149 148 148 152 146 152 147 158 151 147 148 148 151 149 145 156 144 158 153 150 149 169 145 143 176 152 142 153 161 144 145 139 138 122 138 132 121 144 130 101 115 96 102 126 171 167 163 156 156 147 147 145 144 140 147 144 145 149 150 145 150 147 
154 153 153 159 157 163 166 150 166 164 140 73 55 64 80 101 100 100 104 129 134 142 151 138 146 151 141 156 169 160 149 144 146 157 147 152 144 152 162 144 149 145 155 151 144 169 146 156 168 149 144 166 161 146 154 160 150 141 153 167 143 155 149 140 129 145 144 122 140 133 141 133 99 77 108 153 168 160 163 170 147 150 149 151 150 151 142 145 151 143 150 146 
146 155 158 155 160 160 163 168 167 145 88 69 69 85 96 114 107 108 126 131 146 140 158 137 150 146 151 145 171 173 163 143 145 157 140 146 150 157 164 152 141 152 142 151 146 154 169 142 166 160 149 157 198 161 154 158 150 147 139 161 181 143 161 156 149 141 149 150 138 142 137 162 123 105 96 96 131 165 166 159 156 145 146 147 153 148 149 142 145 147 152 145 
155 153 157 158 165 166 171 173 153 81 72 78 92 100 111 117 117 127 146 139 139 148 146 145 150 155 149 148 162 171 164 147 138 157 138 136 161 154 176 159 148 155 147 151 152 136 180 143 148 178 154 147 189 183 157 166 153 151 140 144 170 176 138 181 154 148 140 158 146 141 144 166 161 127 108 100 98 134 182 168 155 155 149 139 149 154 150 141 148 145 147 146 
154 161 161 167 172 177 181 143 97 73 93 95 104 100 126 131 124 140 147 155 134 153 144 143 149 154 143 146 153 165 162 155 134 160 142 138 155 159 172 182 149 143 159 140 164 128 167 165 154 165 177 157 160 208 171 176 160 160 138 147 145 185 159 158 161 159 147 151 164 147 144 164 186 135 133 130 89 112 132 181 184 174 154 151 148 147 147 142 147 146 140 148 
161 161 172 174 179 167 155 93 69 85 103 98 111 110 131 143 138 138 148 160 135 161 154 146 149 153 145 146 151 141 156 162 139 157 148 142 149 161 164 195 159 138 157 152 144 143 153 185 163 164 189 175 168 195 192 165 195 158 152 148 144 158 175 149 164 145 163 150 170 165 156 164 177 146 141 173 117 102 118 122 165 185 165 162 159 152 143 140 143 150 146 145 
161 168 171 170 165 129 81 85 78 102 107 118 126 126 143 144 147 138 151 153 146 159 151 151 154 144 150 145 158 133 149 161 141 157 155 140 154 168 157 190 186 139 151 164 139 153 146 179 185 158 183 190 189 182 196 171 196 175 157 156 167 159 188 157 166 156 145 171 177 171 160 182 165 157 150 165 188 125 103 113 101 150 188 167 158 159 138 135 151 143 145 154 
174 169 187 176 105 65 70 93 109 97 122 143 148 144 139 144 150 132 146 152 147 155 155 149 157 147 149 156 161 133 151 159 144 155 168 142 151 171 157 187 183 148 139 170 148 147 150 163 186 166 171 181 190 190 178 188 163 203 158 166 173 183 179 187 148 189 138 169 179 172 168 164 190 163 142 179 164 173 134 113 112 101 136 173 161 152 153 146 147 140 139 138 
169 180 172 130 69 62 91 114 119 123 139 146 147 141 147 149 144 129 149 150 155 141 149 144 160 148 137 152 166 118 157 158 132 152 172 138 160 162 169 169 173 161 139 172 160 144 157 158 171 183 155 156 173 178 184 197 149 187 187 167 175 177 182 176 162 172 163 137 194 178 158 160 177 171 138 156 169 161 160 141 128 108 92 142 168 152 160 159 151 146 145 151 
172 177 150 85 65 66 107 129 143 138 148 143 143 146 147 160 149 131 144 141 150 141 145 143 153 152 132 156 159 129 151 156 124 150 158 154 150 162 165 160 153 160 156 156 167 147 155 165 153 175 166 142 148 172 169 180 161 160 193 190 155 162 160 171 167 160 172 116 164 200 161 177 157 179 150 147 154 170 181 139 148 128 124 66 169 150 153 160 164 149 143 148 
178 180 111 74 74 86 114 153 155 142 149 145 138 155 148 161 151 132 150 148 148 144 148 137 151 143 132 160 158 124 151 160 126 157 147 140 164 146 164 149 149 144 166 146 153 159 165 155 155 159 148 152 148 152 162 157 154 160 168 179 179 147 150 147 174 153 151 145 125 176 182 162 163 175 158 160 160 158 183 157 154 149 131 106 111 172 144 143 153 164 136 147 
176 153 75 68 87 109 141 151 151 154 140 146 141 172 148 154 152 134 163 155 152 149 149 141 157 144 130 167 154 116 153 161 129 162 127 138 166 138 151 144 143 144 151 146 142 150 160 141 156 150 146 134 137 141 145 148 153 143 161 152 179 147 144 134 138 175 136 150 114 152 182 164 169 150 184 166 166 148 172 177 149 142 146 146 95 164 176 146 152 164 156 146 
186 110 52 82 104 143 154 141 167 151 145 145 139 169 162 143 152 151 166 153 147 155 149 154 160 138 138 157 142 126 153 150 120 154 119 128 149 128 143 130 132 142 146 135 130 139 145 134 143 145 147 131 110 136 130 128 144 127 148 138 161 150 133 132 120 178 159 129 141 119 163 160 142 158 160 179 167 158 147 169 150 142 158 154 108 137 189 168 151 164 155 146 
149 65 57 111 137 147 156 154 144 160 139 154 137 157 170 151 154 161 166 148 157 155 157 148 166 143 151 156 139 137 141 139 117 136 110 123 138 120 134 124 122 138 138 124 123 135 127 127 132 131 137 133 111 108 128 117 140 134 119 128 144 143 122 121 119 135 162 127 136 122 144 161 128 149 147 170 150 167 148 166 153 152 150 153 134 113 181 177 165 137 161 155 
121 63 60 142 144 154 159 152 149 156 139 167 143 136 169 160 154 153 164 159 152 156 160 148 160 155 138 165 139 139 122 136 112 123 108 120 131 104 133 110 117 133 126 118 115 132 115 125 124 120 138 132 117 93 123 107 121 144 111 122 120 139 126 116 111 107 135 132 112 124 121 151 123 140 157 147 152 160 161 155 163 147 149 161 140 92 170 188 176 148 145 160 
84 67 73 128 174 155 165 157 153 149 155 165 158 130 155 169 144 165 155 145 136 153 156 149 165 162 140 167 140 128 122 118 118 119 103 124 124 119 125 102 119 126 130 109 113 120 122 116 123 128 117 127 125 98 109 120 99 133 109 111 105 125 124 122 109 106 108 132 111 118 116 138 126 110 166 133 151 155 155 148 176 138 152 161 150 130 120 192 176 168 143 160 
78 86 103 132 170 148 149 154 150 153 153 162 161 139 148 156 165 149 161 133 130 153 150 159 153 167 140 161 139 119 118 123 114 121 106 121 130 117 115 105 112 122 122 108 120 113 120 118 121 119 117 121 119 100 106 113 99 114 132 105 110 108 130 105 117 102 102 125 125 112 111 130 133 96 157 138 146 137 144 154 168 116 155 166 163 139 100 141 191 165 153 158 
87 108 130 136 162 144 142 159 156 160 154 167 143 149 134 155 154 142 156 150 122 147 143 164 147 153 141 147 136 118 126 115 118 123 110 114 129 120 112 112 111 118 116 112 117 117 124 109 115 110 120 113 116 102 104 111 98 108 138 104 115 102 121 109 106 114 105 107 126 116 112 123 135 105 128 143 131 137 137 147 158 115 153 173 141 147 117 105 169 165 143 145 
94 122 120 149 141 157 124 164 157 155 144 154 140 134 140 157 153 155 155 146 143 164 132 148 163 141 134 146 130 125 131 119 121 116 119 126 114 114 110 121 109 115 124 109 122 104 123 118 116 115 114 110 110 109 100 115 104 110 115 115 103 107 110 106 113 108 109 105 120 118 119 111 142 114 115 141 123 140 137 150 154 133 160 168 146 155 140 101 147 160 131 132 
111 123 139 144 154 142 130 143 161 153 137 149 135 140 142 176 161 154 159 149 140 170 140 145 161 145 134 138 138 121 136 129 130 118 118 116 122 122 114 117 113 115 119 115 109 116 118 111 126 121 107 108 106 107 105 111 107 111 107 113 101 113 101 107 107 105 123 113 119 125 130 115 133 110 113 127 118 138 149 169 175 147 161 178 153 161 154 116 138 173 148 142 
126 130 152 143 157 146 126 136 145 154 138 145 136 149 151 161 192 147 144 158 142 179 150 145 147 153 126 140 134 135 129 134 134 117 127 113 123 120 119 119 127 117 124 112 118 131 133 126 132 128 103 109 113 103 111 107 107 115 103 125 112 118 109 121 111 110 127 126 126 143 135 122 124 122 113 124 123 138 144 157 147 139 148 159 151 144 142 122 108 162 150 152 
144 146 138 168 149 166 145 132 128 140 154 141 142 143 166 170 194 162 141 158 156 158 157 149 134 147 140 127 138 130 145 147 152 115 125 116 135 139 134 154 167 148 144 137 150 170 154 161 152 157 124 113 123 114 113 122 114 104 127 139 132 139 137 158 118 136 142 152 149 167 160 146 144 139 134 131 122 136 136 138 132 143 144 155 153 144 136 117 98 144 163 141 
148 154 142 152 163 151 171 127 134 134 144 155 136 138 175 181 177 173 134 153 161 155 149 141 157 115 152 121 115 131 153 153 162 138 136 140 158 150 142 178 193 178 154 168 175 190 175 176 183 181 143 140 124 129 126 133 126 105 138 155 160 159 169 168 156 164 169 190 174 185 178 173 168 162 152 139 138 144 132 132 131 154 144 147 156 151 143 128 103 131 177 154 
152 149 152 149 156 146 138 151 141 136 160 154 151 148 159 152 179 175 170 136 149 148 145 137 163 122 128 131 115 110 110 129 162 151 160 174 189 195 152 178 195 204 174 177 193 198 185 167 207 195 161 135 154 141 139 143 146 131 139 157 166 158 190 170 173 174 191 188 188 207 201 190 186 181 168 140 150 159 156 151 141 148 161 143 153 144 141 137 102 121 173 171 
147 163 151 154 144 150 136 131 153 144 148 152 153 152 158 150 174 161 163 151 142 138 131 141 135 139 110 130 132 114 113 104 133 147 162 165 193 217 179 173 163 190 190 167 193 191 169 165 187 180 166 155 158 159 159 153 154 155 149 159 161 158 177 174 168 178 198 188 190 197 211 181 170 165 162 147 159 166 171 169 155 144 143 141 151 147 140 128 113 122 169 178 
142 165 158 145 151 147 142 138 149 142 157 158 142 150 161 155 149 147 151 147 156 152 140 137 125 120 115 102 115 111 113 106 99 131 153 134 164 186 175 164 159 148 172 137 164 181 138 156 159 160 155 146 151 164 143 153 152 151 141 145 145 143 161 173 165 169 193 195 192 180 211 195 176 165 154 168 157 160 166 169 167 151 151 142 147 143 155 129 104 116 161 176 
147 141 169 158 148 150 158 134 135 139 148 159 131 150 150 146 133 130 134 145 146 150 133 132 131 115 124 121 130 124 111 110 103 119 132 129 145 162 174 154 150 124 130 139 136 171 125 126 144 143 143 127 121 136 112 120 144 133 136 142 140 141 163 172 169 160 187 191 193 188 192 209 193 182 158 158 150 154 158 145 161 152 164 152 152 155 147 145 109 98 169 167 
159 140 165 159 154 160 152 136 145 139 157 154 139 149 137 144 128 120 136 136 144 144 122 132 130 137 129 130 130 116 98 119 117 115 126 136 132 152 161 154 140 124 118 122 108 123 116 103 127 115 139 119 133 125 110 125 140 131 145 147 141 155 153 166 172 174 185 199 193 194 201 203 208 197 169 159 147 137 147 138 151 153 167 162 159 155 157 143 125 104 171 184 
182 144 154 158 151 153 142 149 142 146 153 142 142 143 139 133 125 123 118 130 140 122 127 134 124 146 124 114 113 97 100 119 125 120 139 136 130 140 151 147 143 143 132 124 111 126 123 125 134 127 143 139 127 139 114 123 135 136 143 148 142 161 154 164 170 180 183 193 187 202 203 198 208 215 180 171 159 140 135 138 140 153 153 167 172 168 149 160 124 111 176 194 
183 147 150 163 143 138 150 145 138 144 133 153 144 130 132 122 119 115 107 129 117 118 125 129 125 129 121 108 108 119 110 118 120 128 139 142 146 145 147 149 159 161 164 127 141 126 117 141 146 134 128 142 133 127 116 118 132 138 147 151 152 158 158 158 172 185 182 187 198 203 208 196 205 218 198 179 166 159 151 145 144 148 152 146 166 170 153 167 133 110 163 186 
173 161 149 166 151 139 144 134 132 131 138 162 146 126 123 107 114 112 109 115 110 108 119 117 123 129 111 108 109 113 109 124 123 141 143 156 159 149 149 152 162 156 157 141 142 143 94 140 147 132 123 134 134 132 119 118 131 138 149 153 159 152 157 150 168 173 179 188 191 203 199 189 197 213 209 194 171 170 163 156 155 150 153 147 145 166 169 151 138 113 169 184 
174 155 154 161 163 143 124 124 119 139 139 149 144 113 126 82 110 101 113 106 104 104 106 110 129 122 116 99 111 115 108 126 135 145 141 155 158 152 151 152 158 154 152 146 145 149 122 123 144 132 131 125 134 124 117 128 111 129 146 143 160 147 156 161 168 170 173 181 189 196 195 187 190 198 209 206 185 177 172 159 172 150 152 151 143 150 162 150 125 125 151 165 
177 160 145 163 165 147 122 116 123 140 130 130 137 117 111 79 98 92 112 99 93 109 105 121 121 133 122 106 120 128 119 125 138 139 136 151 150 152 150 146 154 156 150 150 145 143 132 141 141 130 136 130 131 120 122 125 121 122 141 138 153 147 156 164 169 161 170 170 182 189 191 189 187 189 194 211 194 182 181 175 162 173 151 153 143 148 153 147 130 124 138 154 
156 163 147 153 157 148 128 135 126 128 120 124 129 115 108 73 94 91 101 86 88 107 111 124 129 143 123 101 122 132 127 125 136 130 135 143 144 150 149 143 150 156 145 146 147 135 132 140 142 133 128 134 129 115 122 119 128 123 134 139 143 142 153 163 169 159 167 170 174 183 182 186 185 183 188 202 203 192 185 187 184 171 162 148 153 147 150 154 123 137 132 159 
146 162 151 149 158 138 145 139 127 119 112 123 130 107 92 69 96 88 88 81 88 108 132 130 132 135 122 109 134 132 139 128 140 129 123 134 142 152 140 139 146 149 145 141 145 133 130 142 139 136 129 136 129 119 115 125 125 124 120 140 137 141 154 157 159 156 167 164 171 173 174 180 180 173 180 195 198 190 197 198 196 185 169 160 143 146 147 152 118 155 145 162 
146 155 151 150 159 147 135 131 131 115 114 125 118 103 73 62 85 80 75 80 86 119 129 140 131 130 124 127 135 136 138 138 134 127 118 129 136 147 137 139 145 146 141 136 139 134 132 134 139 132 133 133 134 124 117 124 123 128 121 136 131 144 152 152 154 152 161 169 168 167 174 175 175 169 180 191 193 189 192 203 206 200 186 164 147 146 153 147 117 144 146 182 
159 157 158 152 155 149 142 127 126 111 118 117 115 93 67 50 82 69 87 72 93 120 137 140 142 128 122 129 136 139 135 142 137 123 110 125 133 141 136 137 144 141 138 139 135 137 139 132 130 131 131 129 133 128 129 127 122 128 127 134 125 139 150 144 152 147 163 170 172 164 176 172 166 164 174 183 187 182 188 200 211 207 195 167 152 148 145 151 121 123 164 153 
167 151 167 154 156 152 139 133 122 115 114 118 108 89 56 52 72 65 94 84 101 120 142 142 148 142 128 130 133 140 138 136 139 126 123 130 137 133 139 139 137 139 138 132 135 135 134 130 130 119 125 131 129 128 125 129 125 128 135 133 129 135 146 143 144 148 162 164 162 169 173 176 166 161 170 173 186 179 189 198 209 213 196 177 147 153 149 147 130 116 159 177 
154 159 155 171 158 154 130 123 119 116 114 107 106 82 53 44 60 78 88 92 99 124 149 143 152 145 140 142 144 149 149 147 146 132 140 138 141 142 137 139 139 138 137 133 132 134 136 127 136 124 129 125 128 126 120 133 129 132 138 140 141 145 151 140 144 156 165 166 161 169 167 172 168 170 165 173 176 185 185 199 210 208 205 164 150 153 146 143 135 110 144 210 
140 167 153 178 167 147 134 122 111 124 109 107 92 75 55 53 60 65 92 107 106 126 146 147 155 150 151 150 155 162 154 158 147 146 151 149 151 150 143 140 139 135 135 133 130 133 132 129 131 130 126 123 128 124 127 132 136 137 137 150 139 150 153 142 147 166 163 168 166 163 174 171 168 173 168 172 177 183 190 198 209 208 201 176 146 151 153 135 140 119 127 205 
138 158 156 174 181 151 130 135 113 116 115 108 85 70 47 55 58 64 85 115 131 126 146 144 147 148 151 153 160 158 154 158 148 153 157 152 154 149 147 144 139 137 134 131 130 126 129 130 129 127 129 125 123 129 128 134 138 145 146 146 137 148 152 142 155 159 161 160 167 165 169 171 171 175 171 166 173 183 188 202 207 213 201 168 154 146 150 139 130 127 122 174 
168 145 154 163 174 155 131 126 121 120 112 101 86 54 59 45 61 69 95 107 135 127 147 141 131 141 144 151 150 153 154 149 151 153 155 153 155 149 145 146 141 138 136 130 131 130 127 133 133 132 130 127 131 123 132 135 139 146 148 145 141 143 155 146 149 155 154 158 166 164 163 165 167 177 180 169 173 179 188 203 211 212 201 164 146 145 144 142 125 135 118 156 
177 156 140 152 172 151 128 126 129 120 108 106 74 59 54 43 59 85 93 97 114 118 116 137 137 131 145 145 143 144 144 139 149 153 149 152 148 150 145 145 141 139 137 131 133 130 130 131 130 130 130 135 127 129 141 141 138 144 143 146 138 144 147 148 144 144 151 151 160 169 161 165 170 177 181 181 177 175 188 207 213 211 202 165 145 144 141 137 127 131 130 134 
176 166 149 141 158 158 122 130 124 118 116 96 74 59 50 47 66 66 98 98 105 98 108 115 134 132 139 139 140 142 135 139 142 146 150 151 148 147 147 140 142 141 136 134 134 135 132 134 134 136 133 136 128 138 144 149 139 141 141 138 136 136 138 142 138 137 144 152 156 159 162 164 168 173 177 185 185 182 183 209 214 214 200 165 148 142 143 138 119 126 153 120 
175 159 154 141 149 144 135 127 124 117 112 89 70 64 43 45 59 65 97 97 111 116 113 101 122 135 142 140 140 143 135 144 146 144 146 147 145 148 146 147 146 142 143 136 134 136 136 133 135 137 136 134 138 138 146 146 141 146 141 141 138 135 141 137 140 142 146 151 159 161 165 168 172 176 168 181 189 187 190 205 208 216 202 155 149 144 145 132 121 127 163 133 
175 167 148 152 148 132 134 127 116 118 111 95 78 59 47 53 54 69 103 103 122 127 123 131 113 132 137 141 139 134 139 143 149 153 149 149 143 144 148 145 147 148 142 140 134 133 138 136 140 136 136 136 138 147 151 149 143 143 146 140 142 143 143 143 145 152 156 153 167 167 175 166 172 170 177 180 191 195 195 199 212 215 203 144 143 151 139 132 127 118 143 147 
177 188 153 138 159 138 124 129 120 117 113 94 82 59 49 55 65 82 105 113 130 134 134 134 142 123 147 152 154 149 145 148 153 154 146 152 146 145 144 145 144 149 146 139 136 132 138 138 138 136 133 135 141 145 150 145 143 145 146 142 147 148 149 143 151 158 160 156 177 184 187 177 178 181 182 174 184 201 191 203 206 214 197 142 147 149 140 123 129 134 120 147 
173 186 165 140 146 141 127 124 123 122 111 97 77 55 64 69 77 100 111 128 139 141 143 142 160 159 144 155 154 151 159 150 154 149 143 142 145 144 144 141 139 144 146 139 139 133 136 138 136 137 134 136 144 148 146 141 146 145 144 142 147 156 157 152 161 166 173 172 177 185 195 180 181 191 181 182 176 201 198 204 207 216 190 146 144 146 146 122 124 144 136 147 
157 178 172 154 153 142 131 122 130 127 126 97 76 62 77 87 97 119 130 144 154 155 161 169 177 168 165 162 139 132 135 149 150 127 134 153 134 140 140 133 131 138 137 137 136 132 131 134 132 134 135 145 145 144 145 144 151 146 146 148 158 165 168 172 177 183 181 187 187 187 178 180 191 188 183 177 173 180 198 194 220 215 197 131 147 147 152 123 116 162 164 171 
150 169 179 151 152 141 129 124 129 133 124 102 81 80 91 107 140 153 152 162 166 174 178 192 188 178 158 134 107 107 97 116 123 101 99 124 117 125 129 129 120 126 130 136 132 127 122 123 126 130 135 145 147 144 144 154 152 155 153 144 156 164 167 160 173 182 179 176 180 176 172 166 177 174 172 164 155 164 164 181 201 226 198 130 146 143 150 127 106 162 170 176 
162 173 166 157 140 139 124 122 128 139 113 102 93 96 116 140 168 187 196 183 195 198 199 199 186 144 110 99 92 94 100 82 78 66 49 50 63 70 74 62 69 73 96 107 109 112 108 109 118 127 136 143 150 147 153 160 164 153 145 135 150 160 160 147 160 166 161 145 134 133 126 123 115 118 129 126 119 113 128 126 173 213 206 128 142 150 139 136 95 156 184 175 
162 179 169 153 152 130 114 112 125 130 103 100 95 112 129 155 195 208 221 210 215 211 204 171 125 87 74 99 85 80 79 79 66 54 45 31 28 30 29 17 13 11 27 50 65 74 86 93 113 133 140 149 162 161 169 170 169 159 145 138 157 159 151 147 131 123 110 81 76 81 91 92 89 80 93 97 103 100 103 102 113 185 205 125 137 145 133 141 117 139 181 178 
165 171 168 158 148 127 117 111 123 119 100 88 85 113 143 174 214 223 224 217 203 193 152 115 110 113 116 122 111 104 96 78 84 70 53 48 28 32 27 19 17 10 16 20 45 57 50 73 103 126 150 157 166 171 176 182 180 174 159 148 163 164 147 133 101 97 72 63 69 78 95 94 100 92 89 90 109 107 116 119 103 133 188 130 135 137 139 129 136 165 184 190 
161 165 180 167 152 123 119 119 131 126 93 72 94 130 145 186 210 223 216 220 188 140 122 130 153 177 192 182 176 172 161 148 142 127 121 107 92 70 40 42 32 42 28 50 50 61 45 64 81 130 152 169 179 180 189 192 188 184 176 175 170 170 149 112 100 99 81 78 72 89 91 105 119 131 124 128 138 160 163 170 142 120 164 130 135 138 134 127 138 183 188 194 
165 165 189 165 160 131 119 127 142 122 91 72 108 141 165 198 206 213 212 182 141 131 148 166 187 215 224 219 212 202 202 188 174 167 158 148 141 127 92 82 77 81 82 88 84 78 81 73 93 135 159 172 177 187 195 195 184 185 184 191 185 169 133 121 121 123 124 115 114 120 128 134 156 179 183 192 178 180 182 196 206 160 157 131 136 136 131 134 136 201 197 201 
157 171 184 168 161 129 121 130 145 111 88 68 119 151 172 202 210 217 191 148 137 144 156 184 190 207 205 208 188 171 165 152 141 119 102 95 88 93 68 70 67 89 92 99 104 93 87 96 102 134 154 175 180 187 202 194 181 175 177 174 173 151 128 129 137 135 140 130 116 114 118 114 115 140 152 179 168 166 161 172 210 191 171 131 127 144 127 129 137 196 206 195 
154 166 179 172 160 131 125 139 141 97 84 71 123 146 181 209 217 206 175 158 159 169 181 186 181 177 160 149 131 108 92 92 88 93 74 56 50 50 50 32 37 46 56 84 96 95 89 101 106 130 159 184 194 200 211 197 183 175 163 155 142 123 120 134 138 111 109 90 73 75 63 50 61 62 82 119 124 133 143 153 176 208 197 127 126 149 134 126 147 194 194 189 
173 162 179 182 168 121 128 129 137 83 82 75 123 148 192 213 216 212 184 175 174 170 184 190 181 161 124 115 111 86 65 71 102 109 74 43 32 31 30 12 16 39 53 44 79 92 94 97 106 125 161 193 210 214 218 203 195 173 157 131 108 101 100 129 122 111 94 75 58 59 58 39 43 52 59 81 106 107 130 149 168 196 224 125 117 141 143 128 132 181 189 190 
166 166 193 207 169 122 118 134 119 86 67 74 124 155 191 216 220 216 198 183 172 165 179 181 162 121 128 122 91 81 87 109 170 187 108 56 51 40 50 26 0 79 49 53 55 82 93 106 115 118 161 205 223 229 238 229 207 189 156 126 107 122 105 122 126 135 137 114 89 68 88 64 30 51 76 72 102 104 110 143 162 195 232 137 109 137 133 133 132 153 166 184 
148 186 238 231 166 112 120 120 117 80 57 74 125 156 191 202 218 211 208 191 176 164 161 168 152 140 105 97 84 85 151 194 210 227 131 45 59 36 36 38 20 113 94 30 56 72 96 106 118 121 167 218 235 238 238 241 225 197 142 116 120 121 128 130 128 177 202 120 70 71 104 70 44 69 136 59 78 113 120 136 163 190 234 147 115 134 134 133 129 164 194 154 
135 215 243 217 133 119 113 120 110 75 50 71 122 150 177 184 204 214 217 203 189 181 179 163 159 161 115 79 74 104 165 202 202 210 184 73 65 46 33 32 74 129 93 38 41 93 107 107 112 142 180 219 230 238 245 245 238 208 129 111 150 143 104 127 144 183 218 168 84 91 90 78 38 92 154 91 59 95 122 144 172 188 238 158 113 134 128 115 140 142 204 219 
121 242 240 183 121 125 112 116 110 74 38 87 120 153 168 167 186 197 202 206 203 196 200 201 180 183 167 110 74 85 128 146 164 196 211 145 52 42 48 65 104 105 69 59 53 91 116 110 122 155 197 215 210 230 244 240 231 207 132 103 146 140 105 110 122 149 183 195 113 74 82 66 42 112 134 106 86 95 113 151 180 195 241 165 117 127 125 100 146 142 188 213 
111 254 208 162 130 121 118 122 119 67 41 70 123 148 154 162 172 186 193 203 208 201 204 204 186 189 183 155 121 126 134 118 109 132 151 154 118 112 105 115 115 95 76 85 89 93 113 121 132 181 209 204 193 217 244 243 226 203 148 100 127 143 143 138 127 109 130 136 135 135 136 111 80 96 85 101 110 143 137 159 184 199 244 166 113 121 119 99 146 163 177 203 
105 226 189 157 138 123 110 135 134 64 42 73 119 144 149 156 162 173 182 192 197 197 202 201 180 173 172 161 151 152 151 136 124 118 118 112 97 100 105 98 93 81 81 92 88 102 121 122 134 178 197 191 186 206 239 230 218 205 148 87 115 111 111 134 130 112 119 127 122 121 118 107 67 89 104 115 127 151 157 165 190 195 251 172 103 128 119 105 133 177 181 192 
106 194 193 168 148 120 111 144 139 68 37 72 117 142 147 154 155 168 174 171 180 181 194 193 187 175 162 161 156 150 151 141 134 119 110 116 102 103 109 92 76 79 87 97 112 126 145 137 141 177 193 195 192 199 219 225 208 198 154 81 104 109 106 105 113 119 131 140 134 138 129 113 107 111 119 126 142 147 158 171 185 209 242 176 88 129 126 107 118 190 192 190 
122 126 225 184 139 125 112 157 117 82 40 59 115 129 139 150 154 160 169 165 167 173 178 184 170 165 168 169 159 153 147 138 130 117 104 99 90 88 87 83 88 92 101 128 147 156 157 149 156 175 191 191 193 196 208 210 194 191 152 92 92 115 117 100 85 100 108 126 128 127 115 109 107 112 112 119 141 153 162 166 182 202 238 173 77 117 133 103 111 191 192 197 
119 114 230 191 132 124 126 140 129 85 38 55 104 121 132 142 150 146 160 159 159 165 174 173 170 169 159 157 151 144 138 123 123 109 102 99 82 88 80 93 109 128 148 161 172 169 162 154 164 180 194 193 188 194 203 203 187 191 155 92 86 113 131 131 108 101 95 100 100 111 101 103 106 103 114 126 144 156 155 168 180 203 233 165 64 115 125 110 112 178 195 187 
118 123 155 184 146 183 161 109 130 112 56 42 93 119 123 130 136 139 150 155 154 158 165 164 167 167 169 171 174 165 156 144 137 120 117 110 108 113 121 134 145 168 183 182 175 169 166 167 170 183 200 198 186 188 199 197 183 180 149 84 81 98 123 136 140 121 108 100 94 93 93 94 95 109 120 139 148 152 151 166 184 190 229 140 63 102 131 117 115 149 211 179 
133 136 136 160 154 237 180 102 127 133 65 39 89 118 122 128 135 134 146 143 144 150 154 155 159 155 161 165 167 163 160 158 158 145 147 146 137 142 154 158 162 169 181 180 176 171 163 168 170 180 188 193 183 187 195 189 177 177 151 81 76 94 121 134 147 144 146 134 126 115 113 113 120 131 152 163 158 160 146 169 188 196 210 121 71 101 124 129 115 137 199 198 
142 132 143 150 153 241 189 127 127 148 83 42 91 111 122 119 134 138 141 143 143 143 148 148 143 149 150 159 159 157 159 158 156 156 159 158 149 154 157 163 165 168 174 173 176 168 170 169 168 174 177 184 181 181 195 187 174 174 149 83 66 91 107 124 136 142 153 154 154 149 148 149 146 144 164 168 167 166 150 169 191 195 204 93 82 111 123 134 117 119 186 199 
139 138 128 136 184 215 188 146 150 151 113 40 82 114 110 120 129 130 142 142 144 144 142 144 144 143 150 154 157 156 156 156 157 156 161 156 156 155 154 158 162 163 168 168 163 161 163 166 169 169 172 174 171 174 182 181 171 166 139 77 70 80 100 121 131 137 142 148 156 153 164 166 168 162 172 172 166 159 155 176 188 183 198 66 88 113 122 136 125 116 153 199 
149 126 125 137 228 200 188 120 147 148 127 55 76 115 113 118 123 129 143 141 145 147 144 142 141 146 147 152 155 157 153 154 155 156 157 156 156 156 154 151 152 155 161 161 159 155 160 158 162 170 170 174 160 165 166 170 164 162 126 75 61 74 89 108 122 130 134 141 148 150 160 168 171 165 178 170 166 156 168 183 180 184 174 66 92 122 123 132 132 119 132 178 
146 125 138 113 218 215 205 113 132 144 139 66 70 123 110 111 121 124 139 135 139 146 147 142 142 148 150 153 154 155 156 156 155 157 161 158 155 146 151 153 149 152 155 155 149 150 155 153 160 165 164 172 166 166 168 168 160 154 125 80 59 66 82 96 115 129 133 143 145 146 154 162 167 172 179 168 170 160 174 185 177 181 152 69 103 114 139 132 126 119 130 154 
141 145 141 119 143 212 227 128 148 166 147 91 70 120 118 108 118 122 136 136 137 146 145 143 142 146 150 151 154 153 156 156 158 156 161 159 153 150 150 149 144 144 146 143 139 133 143 147 148 163 163 165 171 172 169 171 160 155 126 82 63 60 71 86 110 120 136 140 149 149 153 162 163 180 182 168 168 172 174 177 171 183 125 79 113 116 140 140 129 108 148 145 
146 157 139 119 99 173 233 165 163 186 167 103 75 126 120 114 114 125 127 139 136 141 144 143 141 149 148 153 155 154 154 158 158 161 165 157 150 153 149 146 138 129 131 115 108 123 136 146 142 152 161 164 176 178 176 173 162 156 128 100 67 59 52 78 99 120 125 142 147 155 160 160 161 175 172 170 171 173 176 170 172 173 99 93 121 123 140 135 139 109 140 185 
148 149 150 123 118 83 168 172 171 185 190 117 82 126 130 118 117 124 134 128 136 138 142 143 142 149 148 154 155 158 157 161 160 165 160 156 154 145 142 132 131 110 103 80 85 128 141 149 144 142 155 162 172 181 182 170 165 159 134 112 85 60 34 67 90 110 121 137 151 152 161 158 152 165 162 168 164 174 177 169 171 161 80 114 124 139 132 130 133 135 107 187 
153 156 141 140 135 93 83 122 141 179 180 132 83 128 134 125 117 121 134 133 129 137 141 141 143 150 149 152 155 161 162 155 159 161 160 153 152 134 126 121 113 96 81 73 83 141 161 160 158 152 154 161 169 181 181 175 167 153 139 123 92 79 49 56 86 108 119 134 144 154 157 152 153 158 162 160 155 173 171 163 181 141 85 126 138 135 137 132 128 142 113 151 
152 161 136 143 149 129 110 81 78 107 142 124 90 131 139 134 120 123 132 133 128 136 141 145 144 145 151 150 159 160 159 157 154 159 156 156 148 123 115 105 97 84 81 73 84 155 166 171 164 162 161 164 167 178 181 175 164 152 138 131 103 84 84 50 77 103 114 135 136 150 151 155 159 153 158 156 157 174 175 169 197 121 100 135 142 142 134 129 136 135 120 153 
155 152 136 141 148 136 139 110 95 67 32 52 102 131 150 133 129 128 130 130 124 133 137 143 145 145 151 151 152 162 153 153 157 148 144 153 140 125 100 91 81 77 99 100 82 142 157 163 167 169 174 175 175 169 178 172 163 156 149 133 110 88 101 66 73 99 109 125 127 147 145 150 150 148 148 151 162 174 180 190 202 102 125 138 142 144 137 137 136 145 124 132 
152 152 129 149 143 143 148 127 125 96 55 24 98 137 157 144 139 137 134 127 128 134 134 139 149 144 150 152 155 160 150 146 145 141 129 130 131 124 100 93 82 97 125 138 128 117 122 131 146 166 187 190 185 173 178 173 159 158 145 134 112 90 93 82 72 92 106 116 123 132 136 145 144 148 146 151 176 185 194 214 197 106 137 146 137 140 144 136 133 151 125 130 
148 150 128 142 142 152 143 127 133 120 83 28 92 144 159 159 144 140 140 134 129 134 137 140 143 139 143 150 149 155 150 147 145 135 123 118 107 105 99 93 100 124 149 158 166 143 101 62 78 111 154 167 176 184 178 171 170 158 142 121 93 81 78 82 76 81 101 110 118 125 128 138 144 147 155 160 177 194 209 224 171 117 143 148 136 139 150 134 140 139 135 124 
154 143 132 141 142 161 152 131 128 129 89 37 78 153 164 158 152 140 147 140 130 132 138 143 138 144 149 151 147 147 147 143 140 131 108 103 92 85 85 107 134 161 176 179 176 183 158 112 90 82 101 124 135 151 158 165 153 150 132 97 86 76 88 93 69 73 89 103 113 118 129 137 141 153 160 176 185 199 215 230 143 122 145 149 139 139 146 144 134 137 139 115 
153 142 140 134 149 162 156 124 137 124 97 61 46 151 164 162 155 154 146 148 140 139 142 147 143 148 151 150 148 139 137 125 122 113 93 85 71 90 101 125 148 176 191 194 191 191 178 150 122 112 118 111 111 116 129 128 123 116 101 83 89 93 98 101 85 64 81 97 108 116 126 136 150 151 170 177 185 195 220 218 126 128 143 149 139 139 144 141 135 137 139 120 
151 145 131 139 160 152 150 133 135 125 97 76 33 139 169 165 158 162 150 149 149 145 147 149 146 149 143 145 136 124 116 109 92 86 73 68 77 107 130 140 165 182 187 199 192 186 179 163 146 138 137 129 111 96 93 88 78 77 69 92 100 98 107 106 105 79 75 92 107 112 126 138 145 158 166 174 176 191 232 174 130 129 147 145 139 143 135 148 142 135 140 125 
147 137 137 143 159 150 145 139 141 133 101 83 37 112 169 164 163 164 161 156 145 147 147 139 145 145 146 133 124 118 103 87 77 65 69 86 97 104 132 160 184 195 195 191 192 187 187 172 160 155 149 128 110 88 91 84 73 74 94 104 106 111 113 116 108 101 81 85 101 112 121 134 149 153 170 174 171 205 227 146 125 140 142 142 145 140 142 143 142 134 132 134 
145 134 138 154 154 146 142 140 150 134 105 86 42 80 170 168 169 168 164 158 154 147 151 146 144 150 141 132 122 105 93 80 57 67 81 87 96 105 135 161 181 198 188 187 194 193 190 191 178 157 138 119 108 105 113 95 94 97 110 119 117 124 121 115 113 108 97 74 93 115 122 133 145 161 166 169 172 217 215 122 128 142 142 147 146 137 143 146 141 135 135 136 
138 137 142 154 152 143 135 153 164 126 109 89 60 56 166 169 166 166 168 162 160 151 150 139 149 151 141 134 117 100 89 64 62 71 79 78 90 109 131 159 173 178 187 186 193 189 196 194 188 163 134 113 116 117 125 109 119 114 120 126 131 132 123 117 112 107 108 77 89 123 127 136 147 165 166 171 182 234 186 120 128 154 145 145 147 137 134 145 142 137 135 132 
139 145 144 148 142 143 136 164 169 126 100 103 64 50 152 167 166 162 165 163 160 156 153 143 149 149 147 134 115 113 86 77 70 62 69 77 92 108 143 159 165 166 176 181 181 183 187 188 180 166 135 123 119 128 126 129 136 131 129 132 135 139 123 119 107 97 105 83 72 126 135 146 151 169 174 166 210 237 148 120 127 153 142 146 141 143 135 138 145 142 134 131 
149 155 147 146 149 141 143 168 166 125 111 102 63 58 141 161 165 162 167 160 159 158 153 147 146 151 144 138 132 131 112 99 64 60 68 57 62 91 135 144 153 161 170 177 186 184 179 182 179 163 142 138 133 136 145 144 145 142 140 141 143 144 136 118 112 96 106 95 74 130 146 154 158 172 176 185 233 210 118 124 140 145 143 152 138 142 135 138 142 143 139 129 
151 151 143 148 139 150 147 169 150 135 113 108 75 74 152 155 152 160 165 158 158 155 153 144 153 150 151 141 150 143 144 115 79 93 106 87 63 23 38 80 104 106 113 124 128 139 132 138 135 130 145 150 155 151 151 152 138 136 132 134 131 132 115 103 88 74 88 96 92 136 161 159 164 171 174 208 233 178 111 134 139 147 140 144 136 143 134 139 143 143 135 136 
155 146 142 144 147 147 157 164 140 133 125 110 84 73 173 159 144 155 158 164 165 164 157 151 140 141 142 143 143 145 144 113 104 135 148 147 147 101 42 29 61 78 76 92 103 107 95 103 100 96 106 122 136 137 127 131 111 107 99 94 100 105 89 67 80 97 106 109 109 157 165 165 169 170 187 225 215 133 122 137 142 142 138 145 139 143 132 140 138 148 129 143 
152 144 144 141 142 151 159 158 131 150 134 109 95 80 194 166 143 140 156 160 162 164 168 157 150 139 133 137 146 150 140 101 109 144 157 171 182 178 150 110 74 75 44 87 126 117 101 114 107 98 98 104 120 113 109 107 96 96 69 50 73 79 73 80 114 124 130 119 130 172 162 170 168 176 207 232 166 115 128 138 137 143 140 142 141 137 135 142 138 146 132 140 
152 147 141 149 141 160 165 144 138 152 130 121 97 88 189 183 144 132 150 153 157 162 158 159 147 143 134 128 132 135 144 116 130 153 166 171 181 188 210 194 168 152 138 105 113 123 106 170 162 126 94 95 97 96 89 91 86 102 61 23 54 71 91 116 126 137 148 133 150 169 156 167 179 185 228 204 115 127 130 140 141 145 136 142 139 134 137 136 145 141 135 126 
149 146 148 153 149 162 170 140 138 151 130 124 106 104 194 205 152 136 134 152 146 153 148 150 143 149 136 130 118 132 131 126 147 152 164 171 177 189 198 191 172 163 163 163 138 109 90 158 162 149 124 119 135 129 124 104 80 84 74 69 80 104 121 130 138 149 147 141 153 160 158 166 186 206 214 151 118 130 143 135 142 139 135 143 140 136 137 137 142 144 131 127 
140 140 165 144 160 158 166 132 150 142 132 129 110 117 203 210 163 143 135 139 148 146 141 144 136 142 137 123 127 128 127 120 132 149 155 160 174 171 174 174 165 165 156 161 171 166 148 128 130 129 104 105 141 123 122 94 76 84 94 91 102 130 132 132 141 152 151 138 157 159 156 178 192 217 167 118 127 140 138 138 135 146 131 143 135 139 139 132 140 142 130 129 
137 146 157 152 166 160 150 135 151 141 126 130 121 113 216 212 173 153 147 130 142 150 137 146 140 133 133 129 130 130 131 134 139 150 158 159 162 152 152 170 169 170 167 154 149 150 169 166 162 144 127 112 112 106 108 113 105 103 86 97 114 137 127 135 149 159 148 149 159 159 174 180 214 187 121 126 138 141 142 135 141 141 141 139 135 136 138 136 139 141 136 122 
142 151 154 158 164 156 148 145 151 133 124 132 128 124 220 219 175 154 154 142 131 141 143 144 143 138 134 136 135 141 139 156 157 154 150 152 143 153 149 157 161 161 160 156 149 140 130 140 133 144 135 129 131 123 119 112 97 81 88 111 133 137 131 146 162 162 150 158 163 167 180 203 189 138 121 139 139 143 136 137 141 140 144 133 134 133 138 135 145 137 133 123 
140 151 157 159 147 157 160 149 140 135 123 130 119 136 218 230 186 157 150 151 144 128 137 136 141 144 135 139 141 145 146 165 167 166 155 153 142 149 152 143 142 153 156 150 149 142 128 111 111 108 105 99 95 92 97 93 90 97 113 134 139 132 142 163 166 167 154 161 167 174 191 195 134 119 138 137 142 143 138 138 139 134 140 138 133 134 134 131 147 137 132 121 
148 151 147 156 145 149 158 142 139 131 128 126 115 154 223 225 192 166 156 153 150 146 122 131 135 140 137 142 147 147 148 157 171 172 166 166 159 163 163 159 142 149 153 150 152 143 132 111 115 114 107 101 98 100 106 107 113 118 129 134 133 140 157 172 174 173 162 166 169 198 191 144 118 136 141 140 136 140 129 137 138 135 139 136 130 141 135 141 144 137 138 129 
152 141 141 153 140 146 149 136 142 132 139 128 126 162 226 224 194 172 158 151 146 146 136 122 124 137 139 139 147 152 152 149 173 177 174 170 169 169 163 158 156 147 146 145 145 146 137 126 124 121 121 115 120 126 121 127 123 125 124 132 140 153 174 174 178 176 166 166 182 200 139 130 134 143 140 132 138 138 126 138 142 131 140 133 135 137 133 138 141 138 129 145 
139 147 141 142 138 146 142 137 144 135 132 131 123 163 230 227 199 168 162 162 150 148 139 133 122 124 131 138 142 150 155 155 164 176 177 172 172 167 161 158 154 150 146 133 133 128 126 124 119 124 119 121 124 125 118 123 118 116 127 143 157 177 175 179 177 176 173 174 182 138 126 137 143 141 136 136 143 136 133 137 141 133 132 142 131 146 140 139 141 137 124 156 
148 137 144 132 143 140 136 137 135 135 136 129 139 182 229 234 196 176 157 156 164 150 143 138 128 121 112 133 131 141 149 152 157 170 169 171 173 171 161 165 155 151 145 145 139 126 122 124 117 123 117 116 120 112 119 121 125 133 142 158 174 180 173 178 181 170 172 173 133 126 143 139 140 143 134 137 140 138 135 142 142 137 137 138 144 138 136 144 136 137 132 158 
153 140 140 129 146 146 135 138 133 137 135 141 163 201 218 237 195 175 164 152 151 158 150 144 131 123 112 109 120 126 131 133 149 165 163 163 173 172 171 166 169 167 162 164 152 143 133 124 123 119 116 124 122 123 135 135 147 149 159 170 175 181 181 177 185 170 162 120 113 141 141 138 145 138 143 143 138 140 140 143 141 137 144 141 143 135 141 145 135 143 136 174 
139 142 133 141 149 139 140 136 136 136 142 156 227 195 215 214 193 173 164 163 149 150 158 153 138 136 126 109 108 116 123 119 134 145 157 158 165 174 170 166 167 164 165 165 173 162 160 154 144 142 147 144 149 143 156 157 152 156 167 176 181 181 181 175 181 139 106 106 127 143 140 144 144 139 145 141 140 146 141 147 139 144 142 141 137 142 143 134 144 150 135 173 
131 143 132 149 147 139 138 146 139 139 154 179 237 194 199 204 192 177 166 158 163 150 150 155 146 144 134 123 110 108 113 117 117 125 143 156 160 162 157 166 169 175 166 166 171 181 178 175 165 170 172 167 166 166 165 176 165 168 175 182 180 180 179 174 152 83 99 111 138 139 143 144 141 145 143 138 149 141 151 143 143 142 142 140 143 140 138 141 153 148 139 162 
136 144 143 143 150 136 140 156 156 149 161 208 231 178 184 194 190 171 168 162 160 158 156 150 153 150 147 131 127 112 106 110 109 115 125 148 148 151 150 161 172 170 174 168 173 182 179 179 175 169 180 183 184 185 180 187 179 182 192 188 174 177 176 152 80 82 101 128 131 139 140 147 135 151 139 146 147 146 147 145 138 146 140 138 145 137 139 142 146 155 134 132 
133 141 140 144 145 136 150 162 156 160 160 231 210 172 180 189 190 173 165 169 163 159 160 166 152 149 148 145 140 129 111 109 104 106 117 123 144 147 151 152 166 173 180 180 175 180 178 179 179 176 179 187 190 200 196 192 189 188 194 183 171 167 167 94 68 100 105 122 140 134 146 144 151 143 146 149 149 146 144 148 138 142 138 139 145 139 141 142 149 141 133 136 
137 142 138 140 140 146 161 171 161 171 162 218 179 172 170 182 186 172 166 167 167 164 156 166 165 150 153 145 149 136 127 122 113 105 106 113 135 144 152 154 167 170 180 184 178 184 177 179 180 179 181 179 190 197 194 196 184 180 186 174 166 157 129 85 72 101 103 130 138 137 148 149 148 148 148 150 147 145 143 147 136 145 144 140 138 141 142 145 144 137 136 154 
