P2
# Imagen
92 112
255
144 152 148 145 149 145 144 141 144 143 152 155 156 155 153 161 165 112 130 171 181 203 175 142 119 129 144 140 139 140 145 136 135 140 139 143 139 142 137 136 142 138 140 133 136 134 138 139 130 133 124 135 138 131 132 133 157 168 200 226 222 218 201 197 199 199 173 166 163 163 165 160 162 151 153 148 142 149 144 145 149 148 143 148 149 149 146 145 148 145 147 143 
145 147 150 149 149 142 143 145 141 138 152 158 162 153 160 169 154 86 142 174 209 199 150 127 121 139 146 143 140 147 142 144 139 141 140 148 137 138 140 139 144 145 142 138 139 143 143 143 142 138 135 125 128 134 128 129 121 123 122 157 191 219 218 206 217 218 207 193 182 165 163 164 163 161 157 147 145 150 148 146 149 149 145 150 148 147 147 148 146 146 146 146 
145 147 149 150 152 138 136 151 135 136 151 165 165 160 164 181 146 100 129 190 219 179 108 126 137 147 135 154 135 143 141 148 139 140 146 141 145 138 138 144 140 143 136 142 144 144 145 144 145 143 140 137 126 127 132 133 131 126 123 123 113 142 168 172 199 220 221 221 209 196 175 169 167 163 160 158 151 150 150 150 151 147 147 150 150 147 146 149 146 143 149 150 
146 152 151 152 152 138 136 145 153 133 145 149 157 172 173 186 150 118 124 148 154 125 123 139 145 146 139 141 137 143 139 145 138 138 140 142 144 140 136 141 146 137 140 141 144 138 146 140 147 142 148 137 140 132 134 144 136 141 127 135 129 122 120 132 118 142 180 218 229 219 206 195 178 173 164 163 159 154 153 147 150 145 149 150 147 150 147 150 148 150 144 150 
147 150 157 155 158 144 140 142 148 150 124 154 159 175 191 198 155 131 116 115 114 126 144 135 146 147 136 146 136 143 139 140 145 135 143 140 145 139 137 138 146 135 142 140 141 142 133 144 139 137 143 140 137 141 140 141 148 146 138 139 145 130 127 142 133 123 123 138 186 228 212 219 203 191 179 166 160 162 163 146 146 151 150 152 147 153 147 148 147 144 147 145 
147 151 151 152 152 150 153 143 135 128 132 138 164 193 204 190 153 118 114 111 129 138 138 133 149 141 140 145 154 137 140 137 149 131 142 140 141 146 138 132 143 138 138 137 132 144 132 137 143 130 139 148 133 135 148 140 142 145 141 136 146 148 129 143 147 137 125 124 122 144 179 208 222 215 194 187 160 159 157 155 144 147 145 147 150 149 148 146 143 148 148 145 
149 150 155 153 150 154 155 165 150 136 136 131 131 154 156 135 115 117 117 121 138 142 140 132 145 143 140 140 163 148 138 136 143 142 140 140 139 143 142 132 143 140 134 137 131 142 131 130 135 139 135 138 142 144 130 148 141 145 139 141 133 144 137 146 145 152 154 137 135 132 125 131 190 215 211 199 189 172 165 160 161 152 154 144 146 149 146 151 150 146 150 145 
149 151 150 156 151 163 158 158 154 152 162 158 124 113 112 118 128 133 119 134 143 141 135 136 139 146 142 131 164 144 145 135 136 143 137 136 140 145 140 134 138 141 133 134 134 135 137 133 135 130 151 139 133 146 140 128 138 139 146 133 139 131 135 144 140 144 140 159 138 166 140 129 132 161 205 209 201 187 179 163 162 158 152 152 145 149 148 148 147 146 148 143 
151 152 156 159 165 168 160 158 158 158 164 138 106 104 106 132 132 141 132 135 141 142 135 136 138 147 142 133 155 150 141 132 136 143 132 137 134 142 140 130 130 145 132 133 140 137 128 149 138 132 134 153 130 130 143 135 126 126 150 135 137 137 131 131 137 151 132 148 141 163 147 145 145 137 139 207 211 202 191 184 172 160 159 153 153 144 155 148 147 146 149 145 
153 160 160 174 173 167 165 169 169 175 127 110 98 111 118 144 139 136 135 141 140 148 139 134 142 139 140 130 149 155 146 143 124 147 133 133 134 140 142 132 131 136 134 133 128 146 131 143 152 136 125 150 158 131 131 143 129 130 126 163 137 146 134 127 128 142 140 143 129 150 155 140 161 158 149 143 201 213 199 200 187 172 162 160 157 145 151 152 149 147 148 151 
158 170 169 173 166 170 164 169 158 134 105 114 114 122 128 146 138 128 138 137 138 141 136 138 135 140 143 121 142 160 145 143 121 141 135 121 141 130 157 131 131 134 129 134 129 132 144 130 153 147 128 135 175 145 144 144 132 133 127 137 163 131 139 126 133 133 143 151 132 143 156 146 136 174 155 144 141 189 212 209 203 190 169 166 158 149 154 150 147 149 148 148 
165 170 168 165 161 168 167 154 136 114 118 130 129 128 137 136 138 124 140 141 137 135 136 132 136 137 140 128 125 156 138 139 127 136 133 120 140 135 159 148 127 134 126 126 130 124 141 139 133 151 147 126 160 172 145 158 133 136 138 126 149 152 128 140 132 135 131 162 144 156 141 155 124 155 167 154 140 135 164 208 209 198 191 184 159 154 149 150 143 147 152 150 
173 171 165 157 150 153 146 123 113 122 139 138 128 130 136 139 135 133 131 145 130 137 142 134 129 134 138 128 129 142 134 140 126 129 143 126 135 141 147 157 141 129 134 137 128 134 139 148 137 136 161 138 142 182 152 164 141 140 137 143 127 153 134 153 129 138 141 147 170 152 153 154 146 130 169 168 151 139 140 144 202 204 201 196 163 147 164 159 151 145 149 142 
175 174 168 166 157 152 121 115 125 133 143 135 129 126 132 142 133 135 123 139 143 130 139 140 127 128 140 128 131 135 136 140 135 122 148 132 126 141 142 154 152 125 136 139 124 134 139 146 155 134 156 156 145 163 167 146 175 137 146 152 139 150 159 141 155 126 156 145 165 151 160 166 146 132 145 174 160 143 150 129 144 214 200 202 177 154 169 161 159 151 148 150 
175 167 152 149 130 105 114 129 138 134 130 136 129 125 131 135 129 133 122 131 147 133 139 139 130 130 136 126 134 146 121 138 140 122 157 140 127 141 145 143 163 133 129 144 135 127 145 149 152 141 140 162 150 154 161 146 155 169 150 155 148 147 173 146 154 142 144 155 149 158 150 173 149 130 134 145 175 153 146 148 129 136 226 200 185 170 164 166 157 162 152 149 
171 163 173 160 113 105 131 138 143 130 127 141 129 128 128 131 134 128 124 133 143 136 135 140 126 141 128 127 149 154 127 145 142 123 155 144 125 139 141 136 154 142 123 143 143 128 134 136 150 133 142 141 146 147 159 158 128 174 156 145 156 150 159 159 145 152 130 159 156 155 157 150 156 148 122 142 167 169 148 141 145 108 193 215 195 183 172 159 157 162 159 150 
165 167 172 130 114 121 125 143 143 132 124 133 132 123 126 129 134 128 119 134 132 140 131 136 128 144 131 126 155 157 121 142 135 122 154 139 131 133 145 137 137 142 127 141 145 137 132 136 132 143 131 119 136 141 150 173 125 153 165 149 147 146 145 147 151 150 131 134 163 164 157 134 167 154 133 137 158 163 145 147 145 130 129 225 218 188 176 159 157 160 157 153 
170 169 144 118 119 127 124 145 142 136 118 127 129 126 133 126 137 131 119 135 122 143 125 137 124 139 126 121 148 152 110 144 128 117 139 137 129 132 131 137 128 133 136 135 145 134 131 138 133 142 126 121 121 138 135 146 147 135 167 157 131 144 139 142 147 147 150 121 142 175 153 142 148 167 145 134 153 151 147 154 143 146 120 193 222 207 175 172 163 154 159 160 
167 159 125 116 121 124 124 133 138 135 120 130 131 128 142 129 134 135 121 138 128 133 139 125 131 140 126 120 139 141 112 141 132 119 137 132 132 129 128 137 128 126 129 131 138 128 141 127 136 136 128 124 117 135 146 135 154 133 165 154 140 130 151 135 140 147 146 140 130 159 170 143 140 161 170 135 136 154 153 146 147 160 128 139 222 216 193 178 171 152 156 165 
164 165 121 116 122 123 129 135 126 135 130 124 134 132 150 130 132 136 120 137 141 137 145 141 124 149 128 127 146 131 109 139 131 129 135 128 128 134 123 143 136 133 130 137 131 132 135 129 125 136 137 126 109 131 156 135 149 142 169 156 147 132 158 134 148 155 143 161 125 158 174 137 141 147 170 143 139 147 161 149 154 164 137 120 221 214 217 185 167 165 163 161 
173 155 121 116 135 127 137 148 124 133 135 127 136 127 144 141 133 137 126 143 149 143 144 136 140 141 139 133 143 128 119 127 135 131 136 126 126 131 133 143 143 142 141 136 129 134 140 139 122 137 146 143 126 123 155 132 144 155 144 148 150 157 142 144 132 153 147 142 142 139 166 153 135 148 147 147 150 144 152 162 163 154 156 120 171 222 222 199 166 169 169 162 
183 148 124 118 143 137 139 140 132 131 139 134 143 129 144 147 144 139 139 149 147 137 149 144 133 146 140 135 143 135 130 128 132 123 133 123 119 130 136 149 145 143 138 140 130 140 148 144 133 127 140 152 147 117 149 130 132 173 116 147 138 160 148 143 126 121 151 135 129 131 157 159 135 154 140 143 153 141 149 168 151 148 155 144 146 193 233 214 177 164 167 166 
165 138 123 120 142 146 139 142 131 136 134 133 145 136 125 136 143 144 134 152 140 137 148 141 128 139 145 127 140 140 124 130 129 120 127 114 116 138 131 146 131 139 128 143 132 132 151 145 139 124 133 151 160 118 149 125 118 163 134 130 121 158 136 135 119 106 126 136 116 121 131 159 125 152 149 151 147 143 149 157 139 143 165 161 131 146 228 219 193 174 163 170 
135 137 126 121 125 160 144 147 140 135 141 145 142 143 120 121 138 149 133 143 146 129 137 145 127 130 144 121 130 135 125 118 129 115 119 108 119 135 121 125 122 125 128 139 130 128 136 136 129 126 128 129 143 127 122 136 101 131 137 109 117 132 123 120 112 99 108 133 109 116 131 133 120 133 164 159 143 137 155 149 134 154 159 151 136 119 199 211 189 168 155 168 
134 134 131 131 114 154 151 148 144 138 143 139 140 127 131 117 126 136 132 137 130 114 131 127 128 125 134 117 115 122 113 113 110 100 110 85 111 123 107 102 96 98 112 117 113 114 109 109 104 113 117 115 121 112 101 119 93 107 129 100 94 96 107 100 100 97 97 111 110 106 123 117 112 106 156 142 137 149 153 148 140 157 154 156 150 128 161 207 184 169 172 167 
135 135 132 133 136 125 147 137 145 146 137 131 135 129 122 105 115 123 125 124 119 102 112 113 116 119 109 112 100 111 104 99 86 81 85 72 89 96 90 83 75 71 82 91 83 84 86 84 85 93 91 99 96 92 80 92 84 90 109 94 77 82 79 80 86 88 96 90 108 99 103 105 103 102 131 131 135 150 146 151 145 160 166 165 158 146 134 216 197 183 178 178 
143 138 137 130 126 131 132 135 143 143 124 128 124 122 102 106 123 115 119 111 111 98 110 104 98 110 94 107 93 96 96 85 72 68 62 70 68 65 66 61 60 55 61 60 61 68 70 67 72 77 79 83 79 74 65 77 74 76 85 87 67 81 78 73 74 77 92 93 100 103 95 89 105 106 113 119 123 154 154 154 150 162 162 162 169 164 145 183 189 187 179 171 
145 140 140 135 119 136 129 129 128 135 121 126 115 111 107 103 130 125 111 116 113 98 107 105 84 96 98 95 81 90 82 71 61 66 48 55 49 45 47 45 55 51 59 56 46 62 59 71 54 71 72 62 68 61 54 59 65 70 73 80 67 78 79 89 75 83 95 103 105 110 109 101 118 111 102 117 128 146 148 145 134 149 163 154 154 146 126 161 203 174 175 168 
132 143 144 131 134 123 146 115 122 125 124 115 109 111 119 123 115 149 112 104 115 100 108 100 80 83 96 81 82 79 80 64 52 69 48 39 41 48 54 49 54 70 65 63 55 70 83 85 70 73 69 59 62 59 56 50 52 63 83 78 82 96 92 109 100 100 115 115 118 141 129 134 138 133 120 120 125 133 141 138 143 147 163 158 154 156 118 164 205 197 171 169 
135 148 141 137 134 139 131 144 127 120 102 112 117 116 109 131 114 139 131 104 112 111 104 105 82 81 81 90 69 76 68 76 54 84 51 50 48 63 75 65 86 109 88 94 90 99 120 106 108 111 85 92 84 80 69 73 68 69 89 94 110 117 120 130 120 136 142 158 144 176 155 165 160 150 138 124 131 137 139 139 145 150 150 153 148 153 135 155 211 199 179 177 
133 136 140 139 128 132 135 136 138 106 99 115 135 115 113 112 131 137 140 109 108 118 111 103 79 90 70 85 69 64 66 78 77 99 73 82 73 77 89 80 119 141 119 101 139 131 148 122 124 144 122 101 112 90 93 104 93 85 100 111 145 129 146 142 139 148 169 176 160 179 173 165 177 166 135 116 136 152 149 143 144 137 154 150 149 138 137 151 205 212 174 185 
142 136 141 136 139 116 135 127 125 118 103 120 136 124 112 120 130 125 128 131 106 108 114 101 88 90 79 65 83 52 59 68 91 100 100 113 110 112 123 105 135 146 144 116 150 158 151 131 129 162 143 108 125 122 122 122 139 123 119 135 147 140 155 159 142 162 175 173 162 185 189 156 155 158 135 123 139 152 159 156 156 153 148 148 149 155 123 140 207 195 188 174 
147 141 140 135 139 131 130 126 115 113 116 121 120 128 122 116 121 114 118 111 111 100 99 102 88 86 84 75 74 68 71 69 73 79 90 110 120 150 162 144 134 129 137 140 128 152 134 132 128 149 140 130 133 140 143 145 159 149 149 152 157 148 154 162 165 169 182 173 183 178 203 188 162 156 149 141 146 143 153 158 163 167 165 148 155 151 139 118 208 212 196 188 
150 140 136 145 142 132 134 126 115 113 124 118 123 131 118 122 124 101 104 100 107 105 110 98 99 95 93 94 78 68 71 73 74 65 92 103 108 139 146 143 134 133 119 143 116 141 136 118 130 140 146 127 127 151 152 132 166 149 151 142 151 146 153 174 169 171 183 177 187 174 200 209 178 165 154 147 146 142 148 158 158 166 176 155 153 157 149 121 192 233 183 197 
142 150 133 133 154 136 125 130 122 119 126 115 131 128 98 120 109 106 101 96 101 106 110 108 101 101 98 89 76 78 77 94 78 72 90 101 111 118 140 144 133 135 120 130 124 131 149 124 127 146 141 126 116 128 132 108 146 140 140 150 151 154 156 175 179 177 181 185 189 181 200 215 198 181 169 154 136 129 139 150 158 157 162 164 156 163 153 126 177 229 190 186 
138 153 138 131 148 133 141 137 121 125 125 132 133 124 101 114 114 105 99 97 103 105 114 104 90 97 101 94 86 86 94 95 72 85 92 104 108 110 139 146 140 138 132 135 124 130 135 136 122 142 132 142 118 143 137 115 156 150 144 159 150 161 168 171 181 182 184 189 190 187 199 209 201 200 177 170 153 134 139 145 146 157 153 157 162 150 166 126 182 215 191 184 
136 150 149 136 142 139 137 141 125 132 134 133 132 126 104 122 112 99 95 104 98 109 120 86 90 103 90 95 89 77 91 86 71 99 98 109 118 121 135 137 146 145 128 131 127 119 118 124 127 151 135 143 141 147 150 123 153 154 149 161 155 162 173 172 178 185 186 192 191 188 197 208 199 202 192 177 167 158 147 142 143 148 152 151 158 147 149 138 171 203 203 174 
150 140 159 137 146 138 139 137 130 135 129 135 128 128 113 122 108 90 95 104 96 108 99 82 93 97 82 90 84 77 87 96 91 105 103 112 124 135 140 141 146 151 149 152 139 133 138 135 146 160 147 142 150 154 148 132 148 153 156 162 159 166 174 174 174 182 185 190 192 196 196 202 198 200 206 190 179 165 164 155 143 147 149 149 151 144 146 136 153 198 195 176 
135 153 154 143 144 147 134 125 127 130 121 119 133 132 122 110 99 82 91 102 100 96 88 85 92 82 87 89 87 83 94 100 101 119 117 125 134 150 150 146 147 156 153 152 151 144 152 134 139 159 153 145 149 158 148 142 146 151 159 161 165 168 172 176 173 183 186 190 195 194 201 198 196 197 208 210 188 182 181 163 156 144 150 151 150 144 149 157 143 187 189 154 
130 149 154 147 144 148 136 127 119 117 116 123 131 132 116 105 95 76 93 92 101 87 85 86 84 80 92 100 98 86 101 109 110 121 129 135 138 153 154 150 149 156 153 153 154 149 153 147 137 152 153 153 154 157 151 150 151 145 158 166 167 164 171 177 179 186 187 193 193 198 202 202 197 199 203 213 195 186 187 188 166 148 149 148 144 147 144 165 154 173 194 144 
145 134 161 148 142 145 138 126 119 113 128 124 126 122 105 102 91 58 94 84 98 77 74 91 79 90 109 115 108 105 118 127 115 127 139 141 143 152 153 150 151 156 155 155 155 153 149 148 155 150 154 156 155 159 151 152 151 149 157 164 167 162 174 180 180 190 184 190 197 194 203 201 202 196 200 210 200 193 199 198 191 166 144 145 144 145 148 152 157 184 180 145 
145 144 141 150 141 147 139 125 118 122 131 119 118 118 101 97 89 52 77 78 87 72 77 92 86 112 127 130 121 112 130 134 125 128 140 142 143 153 154 153 151 154 155 154 156 156 148 148 157 158 159 157 160 160 151 155 156 158 158 166 165 161 170 181 186 186 191 191 196 197 202 203 206 198 199 209 204 194 200 203 210 180 153 137 149 147 142 155 159 170 209 134 
143 155 138 144 148 152 138 124 120 129 130 118 106 114 108 93 75 48 68 78 77 72 75 111 106 130 139 139 135 126 145 147 145 138 151 139 147 152 156 154 149 155 156 157 156 157 152 152 158 160 159 162 159 163 157 156 159 164 162 168 174 172 180 191 191 191 192 196 205 201 201 204 209 200 200 204 203 194 203 207 216 203 152 135 148 148 141 146 152 194 183 180 
129 162 142 143 151 144 140 130 127 130 130 109 109 105 105 85 59 46 71 73 76 77 80 118 135 143 148 144 147 137 151 152 156 154 153 153 140 153 159 158 152 156 156 156 156 157 156 156 160 161 160 159 159 162 162 160 165 168 173 174 181 180 182 192 195 198 197 205 210 207 209 208 209 204 200 201 204 199 206 213 216 212 160 138 142 148 146 139 140 190 186 174 
134 148 159 142 154 138 138 131 134 132 116 109 105 87 98 70 49 41 69 67 82 75 93 118 133 146 150 147 150 141 155 152 158 159 154 150 138 154 157 162 157 157 157 155 155 155 157 157 159 161 160 159 161 161 162 164 172 173 178 179 182 184 182 188 193 196 197 206 215 210 206 215 214 208 204 197 202 204 205 215 217 211 168 135 143 148 143 140 138 164 207 168 
138 147 158 150 153 141 133 140 131 123 114 110 110 82 83 63 35 41 74 69 80 78 95 121 137 146 147 143 146 143 144 157 156 155 158 150 142 150 160 159 158 159 155 154 155 153 157 159 160 157 159 159 160 163 162 169 171 172 177 180 180 185 187 190 186 192 196 205 210 204 206 209 209 214 213 201 199 203 208 213 217 215 169 140 140 146 142 138 136 150 209 166 
146 143 156 155 150 155 139 133 121 126 107 110 95 80 67 55 41 42 66 66 80 76 97 114 131 134 140 136 136 141 136 152 157 151 157 145 145 151 159 157 159 158 155 154 152 154 154 157 157 155 161 157 162 160 165 167 170 170 168 174 177 182 182 183 176 181 189 191 193 192 196 201 200 204 212 210 197 202 202 220 215 209 173 141 140 147 145 122 169 131 175 196 
143 147 148 160 157 157 145 129 125 120 105 108 91 77 58 52 47 51 52 54 79 77 90 114 121 132 135 136 132 138 139 144 148 148 152 143 145 153 157 157 157 156 153 153 154 150 152 154 156 154 157 155 160 161 164 167 169 167 165 170 169 172 174 172 172 176 180 181 183 187 185 189 188 195 202 211 207 198 206 221 217 212 161 137 142 148 141 119 178 149 162 193 
136 159 143 161 163 151 151 131 126 127 109 98 91 66 52 50 45 59 41 39 73 83 89 112 121 126 136 136 136 140 143 146 146 149 148 142 149 151 154 155 156 155 153 153 150 150 151 152 152 153 156 152 160 160 164 166 165 163 165 165 167 168 167 167 169 172 173 177 182 183 187 183 190 197 198 205 211 205 206 218 221 210 163 142 133 146 148 112 172 168 153 193 
133 151 164 154 157 156 136 134 125 117 114 102 84 65 56 45 42 42 43 44 55 83 96 110 125 125 128 137 140 147 144 151 147 152 149 144 153 153 150 153 155 156 150 153 153 148 151 152 152 150 155 155 160 164 164 166 163 163 165 165 166 172 168 169 173 171 177 179 187 188 191 194 197 199 201 199 207 212 205 217 217 211 154 142 144 143 146 121 153 186 143 165 
131 145 172 163 147 149 141 133 129 123 110 96 81 66 52 45 34 35 36 50 55 76 108 99 121 141 132 137 150 153 152 153 153 145 148 154 157 154 151 152 155 158 156 152 151 149 151 152 151 153 153 157 161 163 165 165 165 165 166 170 170 174 170 171 175 177 178 182 192 196 195 200 200 207 204 203 202 217 216 216 213 211 150 139 146 141 140 138 136 176 152 153 
133 145 165 163 158 133 140 140 124 120 109 91 73 61 51 43 42 35 35 38 69 81 100 106 112 145 141 143 156 160 157 165 158 154 153 157 158 161 155 155 157 160 159 156 153 151 154 153 150 157 158 162 165 164 165 167 169 169 170 169 174 174 180 182 184 188 190 193 200 198 212 211 212 209 210 212 211 217 219 224 210 206 153 136 144 145 133 144 149 158 162 151 
138 143 151 161 152 141 131 136 127 125 111 90 73 51 54 52 40 34 37 44 85 108 122 125 119 129 146 152 163 166 166 175 173 157 162 169 162 164 164 162 161 162 163 163 157 156 155 157 154 159 160 166 168 164 167 170 173 170 176 178 182 190 194 197 200 200 202 208 218 219 223 231 225 227 217 219 215 224 230 218 214 206 139 142 146 145 130 150 174 179 167 155 
141 140 149 167 149 145 130 121 129 128 106 89 74 61 59 53 41 42 43 72 106 129 144 149 147 127 148 177 191 197 186 182 193 175 169 175 180 176 172 169 170 170 172 171 168 164 162 164 164 165 165 172 173 169 173 179 181 179 187 185 190 204 203 197 207 211 213 215 228 238 243 241 239 242 238 224 217 222 226 223 218 201 138 142 146 147 128 146 189 206 183 185 
141 140 159 176 162 130 128 121 121 125 97 82 83 70 62 48 53 50 79 105 120 146 160 165 157 159 155 199 217 216 219 206 209 197 191 185 190 193 184 180 180 183 184 182 182 176 172 174 173 171 172 176 178 179 182 189 191 191 187 184 201 213 214 199 212 228 227 225 234 246 254 250 246 243 237 236 216 211 217 218 216 205 131 140 147 150 130 138 203 206 199 194 
145 136 155 173 166 133 111 115 117 108 87 80 78 60 55 52 60 75 101 124 144 165 179 189 187 196 197 211 221 219 217 206 214 202 199 192 193 199 189 188 192 196 197 194 194 191 189 185 184 184 183 185 189 190 191 197 204 199 193 194 211 223 226 227 224 243 242 233 245 244 249 244 238 234 220 219 203 187 181 182 206 202 128 137 149 140 148 129 195 211 202 189 
141 136 147 169 170 131 119 110 110 96 79 69 53 53 50 50 69 89 120 140 158 171 195 204 210 218 224 231 226 200 175 173 176 187 186 181 196 196 189 189 197 200 200 199 197 194 193 191 190 189 191 196 201 203 199 205 211 215 213 210 216 226 229 235 243 253 246 233 236 230 220 206 189 182 167 162 155 132 129 137 167 197 130 132 145 135 153 150 193 218 203 197 
137 146 143 164 158 137 114 115 115 93 79 58 50 49 47 60 89 114 149 168 177 191 206 213 207 214 220 211 174 134 116 131 135 137 133 133 139 146 145 152 167 169 162 170 176 177 182 183 179 185 194 201 204 208 207 215 219 227 229 231 230 228 235 237 247 241 226 208 185 160 159 138 126 125 116 108 105 110 102 115 120 167 140 128 139 135 148 175 205 230 206 196 
144 145 142 160 152 123 119 115 110 96 72 55 57 46 55 75 101 126 156 178 185 193 203 203 200 191 169 138 110 100 97 107 118 96 97 96 101 103 91 91 93 96 87 86 107 122 120 150 157 170 185 196 204 209 208 216 225 229 242 246 244 243 239 232 221 199 167 143 121 106 112 102 101 101 109 94 94 104 118 128 115 134 141 131 138 134 145 192 213 221 212 195 
145 146 145 159 149 119 120 119 116 89 66 57 48 47 63 90 124 137 167 181 187 182 189 180 160 137 100 98 102 118 110 110 110 97 97 98 91 90 77 69 78 68 60 49 50 60 82 93 116 145 175 190 193 204 206 217 218 219 235 240 239 243 239 220 176 145 118 104 86 88 89 85 86 99 117 143 157 159 170 172 144 132 135 130 133 137 146 202 219 219 211 195 
140 147 159 155 142 125 118 119 113 84 61 55 43 38 74 116 138 149 177 194 198 192 183 163 122 101 98 141 164 167 161 148 143 133 125 125 120 116 102 81 76 67 60 53 55 64 73 83 91 115 159 179 193 206 209 208 214 212 219 224 228 223 228 192 140 120 102 105 99 104 114 127 144 163 184 212 219 196 190 191 192 153 130 129 129 136 149 215 208 219 214 204 
130 145 156 154 149 131 121 120 116 82 59 46 35 38 82 127 144 167 182 205 207 189 156 137 121 145 168 203 235 225 214 205 211 195 191 176 175 170 161 141 120 106 96 88 91 86 95 97 98 114 152 176 198 202 204 205 211 199 207 208 208 203 179 160 139 129 122 126 143 170 170 164 174 178 191 196 212 195 181 177 190 174 131 122 129 139 136 212 204 210 211 207 
137 142 143 153 143 134 119 122 109 74 55 42 34 33 86 135 150 178 200 207 208 160 143 157 168 177 200 217 226 222 208 181 181 168 154 157 153 165 161 157 142 132 138 117 118 118 108 113 113 121 149 176 191 207 212 217 215 201 214 215 214 202 168 140 147 148 128 123 142 175 175 146 163 159 160 152 167 169 166 163 174 187 135 121 123 133 138 175 189 197 207 204 
125 142 143 136 144 127 123 121 104 73 54 29 32 31 84 127 158 180 198 200 173 130 146 175 169 176 175 198 193 168 155 139 119 110 112 120 122 125 134 122 114 108 106 96 112 124 131 120 111 117 146 173 197 208 215 221 223 207 209 229 215 170 142 143 139 122 123 112 132 147 150 131 130 144 144 167 153 119 142 155 162 186 153 116 122 128 136 178 201 167 180 205 
110 133 148 149 146 131 128 122 102 67 53 27 27 37 77 120 152 177 187 182 158 132 148 165 164 151 138 152 145 109 115 126 101 64 79 87 70 92 90 72 86 96 89 103 85 98 125 126 128 116 124 163 192 211 219 226 227 214 216 231 198 149 130 137 141 126 93 60 108 134 83 85 101 96 80 110 139 129 125 149 156 192 163 116 126 114 139 180 202 213 202 172 
108 125 148 162 163 146 134 126 94 62 53 26 29 40 79 110 134 162 172 173 156 132 141 149 138 122 109 110 97 94 107 99 70 59 42 50 26 32 84 17 57 123 68 75 106 95 93 121 136 128 130 138 169 209 220 225 226 204 214 228 168 129 136 145 150 97 38 48 82 129 73 46 132 119 82 94 84 126 138 141 167 193 172 117 128 104 140 176 192 208 218 212 
113 108 156 174 188 158 144 123 83 67 48 26 30 39 77 108 134 155 165 170 160 146 145 146 124 111 114 109 98 74 67 52 71 108 53 35 35 9 27 20 85 180 149 85 69 98 101 115 138 140 141 118 146 200 226 229 222 206 215 212 134 160 166 148 171 141 41 65 86 84 80 66 159 166 134 106 80 87 137 157 180 202 184 122 125 101 129 187 192 203 222 212 
119 105 149 196 183 157 129 101 86 75 48 35 24 31 74 97 127 143 152 163 166 164 166 156 137 115 107 121 86 54 43 50 89 152 105 44 34 43 21 33 132 191 177 142 98 74 94 132 152 133 137 127 137 185 218 219 213 202 209 196 123 169 164 146 166 164 82 62 73 72 63 127 183 172 125 112 75 99 125 177 195 213 191 125 116 99 125 189 194 201 224 211 
121 105 131 212 191 148 105 86 93 74 50 43 20 35 76 98 121 139 144 154 166 169 177 179 168 152 135 140 120 85 32 66 103 132 149 74 32 37 30 107 176 186 172 133 122 110 99 141 153 135 140 147 154 171 202 218 211 197 206 186 130 161 188 170 148 151 144 118 119 115 110 158 164 146 114 86 79 132 149 183 202 217 201 111 117 98 112 190 199 199 218 215 
119 119 108 236 205 129 75 98 97 70 71 37 25 33 69 98 116 129 144 151 158 165 174 175 179 172 159 159 155 114 83 73 77 88 119 148 122 106 125 148 154 143 134 130 118 123 140 153 148 131 148 165 167 177 184 198 199 194 192 198 131 146 171 166 157 143 147 129 125 122 118 105 88 96 98 100 109 142 170 193 204 228 201 115 108 95 104 172 196 208 201 216 
115 115 90 236 209 107 76 106 97 76 70 41 22 31 69 91 115 120 134 147 151 163 171 170 172 172 167 161 160 138 117 106 108 85 85 93 94 96 101 107 118 122 129 124 118 116 133 151 158 141 155 170 175 170 189 193 193 187 190 195 142 135 169 152 147 148 146 140 136 125 125 119 108 118 128 123 126 153 176 192 208 222 208 109 108 92 103 157 213 201 197 214 
117 115 87 200 188 109 80 104 94 80 85 44 21 29 63 89 110 120 132 141 152 158 163 162 163 166 162 158 152 143 130 113 109 109 106 106 95 92 101 99 114 120 126 127 129 130 149 160 164 157 170 183 176 172 178 185 187 181 181 186 150 115 168 163 131 134 140 147 149 136 130 123 120 122 128 125 135 170 180 190 207 222 201 104 121 100 108 136 212 205 193 197 
124 121 92 143 164 117 92 91 96 89 90 51 25 24 55 86 101 115 124 138 144 154 155 153 152 159 154 150 145 139 131 128 108 103 103 99 92 94 97 103 111 117 126 140 149 153 169 173 166 167 171 175 178 172 176 178 181 181 176 188 160 102 152 170 158 140 123 130 133 134 128 123 121 126 138 149 148 177 177 192 212 218 189 96 105 120 116 116 194 206 197 182 
126 128 110 104 134 135 97 76 103 91 83 58 35 18 49 79 94 108 123 131 142 148 147 143 147 149 147 142 143 143 139 137 126 120 115 108 106 104 107 114 123 124 135 148 159 166 178 174 165 164 164 171 176 173 173 171 179 175 176 184 163 103 126 161 162 151 140 127 126 119 116 117 122 130 143 158 162 174 179 193 209 212 178 89 106 121 117 115 156 203 202 186 
127 125 114 101 113 128 99 84 135 90 83 71 43 21 41 82 86 103 119 127 133 146 145 138 142 148 142 146 143 145 144 142 138 129 134 124 123 123 122 126 132 146 153 156 167 165 169 167 163 165 162 168 169 165 162 165 175 177 170 183 166 101 115 147 159 163 155 147 136 132 128 130 140 151 173 183 184 186 184 198 204 207 158 81 110 126 119 130 131 185 198 191 
133 118 116 113 110 102 93 122 153 106 69 93 51 22 38 68 89 97 111 118 130 139 141 139 141 142 144 146 148 149 151 152 149 149 150 141 146 139 140 139 147 158 160 163 166 164 165 164 161 166 167 163 161 159 155 160 167 166 173 177 158 105 101 134 150 158 159 161 161 159 158 164 168 172 188 192 193 187 195 196 196 198 146 72 117 123 126 127 137 155 201 190 
128 118 118 124 105 116 91 138 146 123 83 104 71 21 35 70 81 92 108 120 130 137 135 136 137 142 143 144 148 152 154 154 154 154 157 155 153 154 149 150 158 162 163 162 162 164 164 163 163 169 166 163 158 160 156 158 163 168 168 169 162 103 103 119 146 158 160 163 166 168 165 174 175 184 190 190 187 188 193 195 187 204 122 76 118 124 138 131 128 162 172 195 
129 132 116 132 110 115 109 139 132 124 110 112 86 36 31 70 79 86 102 117 128 132 136 138 135 141 141 147 148 151 153 155 156 159 162 161 161 160 159 159 159 165 163 165 163 165 166 162 163 170 166 164 162 156 157 156 162 167 170 169 158 111 106 116 143 158 162 160 171 170 170 178 181 192 195 190 190 193 196 198 192 192 116 90 115 132 135 152 115 191 153 161 
124 132 129 130 127 91 124 157 120 124 112 108 95 44 29 66 81 78 90 112 123 127 133 138 138 140 145 145 150 154 159 160 160 165 166 165 164 164 161 163 164 168 168 170 169 169 167 163 163 166 164 161 164 162 159 157 161 164 172 170 161 114 106 114 135 158 161 162 172 171 172 181 187 193 196 190 195 202 204 199 187 192 106 105 115 139 130 142 120 158 203 127 
125 135 142 145 132 102 121 169 140 129 103 113 97 64 30 69 80 76 91 103 114 125 126 133 138 141 145 147 155 159 163 164 165 173 170 169 168 166 166 165 170 173 170 175 174 170 164 160 158 158 158 154 160 165 163 162 161 166 173 173 161 130 109 113 130 156 164 165 173 174 175 182 192 193 197 191 198 204 211 196 181 181 119 118 123 142 138 132 123 135 206 174 
129 135 150 161 142 134 89 157 174 154 115 140 116 76 41 64 83 83 84 98 108 120 123 126 140 143 149 152 159 164 167 166 170 175 172 173 176 168 168 168 173 174 173 173 175 166 160 152 147 145 148 152 154 159 165 166 166 167 179 175 164 138 110 100 127 151 164 169 177 178 182 189 197 193 197 199 196 208 204 190 181 166 134 140 132 138 143 132 126 120 192 212 
139 135 157 158 163 156 106 101 188 176 138 158 130 90 48 68 87 85 89 89 103 114 123 125 138 147 152 154 164 168 170 167 166 177 177 180 182 170 171 173 179 173 171 172 169 159 147 137 131 142 148 146 149 159 165 168 170 173 175 178 168 154 125 94 124 151 162 172 180 182 185 193 194 192 197 198 197 208 207 189 192 148 135 156 152 138 141 141 124 126 167 208 
132 136 152 158 171 148 130 97 122 175 144 163 139 101 60 68 92 96 94 89 98 110 117 125 137 148 157 159 163 172 173 172 171 177 179 189 190 180 175 183 180 177 174 168 158 146 128 124 135 152 163 156 150 156 168 174 174 177 178 181 172 166 145 106 123 155 168 174 181 183 191 197 190 192 200 190 201 209 206 204 200 132 143 166 160 145 143 138 128 134 148 193 
138 134 152 158 165 150 129 119 103 107 110 139 129 104 70 73 99 102 102 93 100 112 117 124 136 147 159 162 174 171 179 180 178 178 182 189 197 197 193 193 192 183 175 166 156 140 120 121 164 180 191 187 163 164 173 178 182 182 189 186 183 175 160 133 131 158 171 179 183 189 192 196 197 191 196 197 208 216 216 220 195 121 156 158 174 153 142 139 129 123 151 169 
139 139 146 161 158 145 135 121 115 120 91 70 66 67 74 78 103 108 106 99 102 114 112 129 137 152 163 169 179 179 186 192 189 189 189 196 197 199 207 207 206 192 182 171 159 155 136 140 187 198 200 197 183 178 183 191 194 201 202 198 192 185 175 153 143 158 173 177 181 191 190 195 197 198 195 206 217 225 230 230 174 133 159 155 170 163 149 144 143 125 135 174 
141 137 152 156 161 140 140 122 119 121 100 76 29 7 61 89 113 115 106 108 108 115 122 129 139 155 169 175 182 182 189 197 204 197 195 197 199 200 200 207 208 198 188 183 177 181 153 140 182 195 200 202 198 190 192 200 214 219 216 209 201 199 184 160 149 159 172 175 182 190 188 195 200 206 206 216 227 227 231 242 157 135 163 159 154 176 156 148 141 134 126 176 
141 130 155 160 158 138 139 127 120 125 100 89 41 0 34 96 112 125 115 111 121 121 125 135 141 157 170 177 183 183 189 188 195 193 191 188 194 193 195 192 193 184 180 181 194 201 190 141 149 153 168 180 192 197 204 210 218 221 219 211 206 194 182 150 140 162 166 172 183 182 184 196 205 203 212 217 220 222 236 213 146 134 165 160 147 163 170 149 140 137 120 152 
138 134 152 163 156 136 146 132 128 128 105 87 55 16 21 92 113 128 122 121 123 133 137 142 149 162 167 173 179 179 177 181 182 184 181 179 179 182 181 179 175 165 169 176 186 199 194 164 136 102 92 113 141 163 180 197 206 206 205 200 190 182 154 127 152 168 161 171 176 184 179 193 204 202 215 216 219 218 230 196 132 138 170 171 145 151 164 163 144 143 128 131 
135 132 151 163 149 137 143 141 134 116 115 93 62 26 7 85 115 127 131 127 126 134 137 147 148 156 165 169 171 167 171 168 168 173 169 169 169 167 169 166 169 160 167 174 186 192 190 181 159 117 99 95 92 111 131 150 170 179 184 178 171 153 109 126 165 165 162 172 178 187 185 198 204 205 212 215 214 209 232 169 132 145 162 170 149 149 155 172 148 144 129 121 
129 136 148 157 148 132 145 155 132 121 111 99 74 37 7 60 115 127 132 132 135 136 142 143 143 146 163 160 162 162 165 159 159 157 159 154 157 157 156 148 153 159 175 190 188 192 196 192 185 152 124 108 106 100 96 102 113 123 130 126 122 105 108 144 170 170 168 173 180 187 184 193 197 204 209 209 196 214 215 140 143 158 154 166 145 155 152 169 154 147 137 123 
134 135 152 157 145 132 155 154 131 115 118 104 80 46 11 44 109 131 132 135 142 139 140 146 145 144 150 158 155 159 157 154 151 151 150 148 148 145 141 140 146 163 179 189 190 191 200 197 196 174 142 119 110 105 92 85 78 83 81 80 92 110 130 157 172 172 172 174 178 184 179 189 191 200 206 202 193 222 192 128 147 156 159 159 150 153 151 163 160 149 142 133 
134 137 148 154 139 139 153 140 138 110 134 104 92 52 20 41 100 124 134 135 143 137 140 141 138 140 137 145 143 147 148 142 141 138 139 140 136 138 135 141 151 167 175 184 187 188 188 190 188 181 161 136 121 115 93 79 77 80 78 79 107 125 153 172 171 175 184 169 177 173 173 180 189 195 200 196 192 226 167 130 146 160 156 157 152 145 150 157 157 152 142 139 
132 140 150 150 132 156 149 142 133 123 138 112 83 74 31 47 92 122 129 132 143 138 141 133 133 137 136 133 142 145 150 143 145 135 135 137 137 137 145 160 162 166 171 178 184 186 185 185 187 183 178 166 144 120 103 83 97 93 98 103 126 157 172 176 178 180 180 172 168 166 177 179 181 190 201 184 208 217 143 131 150 158 156 155 151 144 146 149 160 150 141 142 
137 138 146 143 144 149 146 136 137 141 143 120 85 74 39 49 94 113 132 131 136 143 142 137 138 137 133 131 138 141 152 159 158 149 146 147 141 154 166 173 178 171 180 185 191 198 193 192 196 197 193 185 172 145 124 116 114 119 119 134 155 171 183 178 181 179 168 169 151 156 171 182 190 203 197 192 227 192 128 137 150 163 156 152 157 141 141 148 154 151 149 134 
135 133 145 147 153 141 146 130 148 151 148 123 86 87 48 59 96 103 128 132 138 148 145 137 135 132 133 133 131 144 154 159 164 163 162 151 142 159 159 162 163 178 188 200 208 214 210 205 209 207 206 204 198 180 162 155 146 144 159 160 181 189 194 184 177 165 146 153 139 134 168 182 195 204 198 204 237 161 125 144 153 155 162 148 156 141 139 146 150 147 143 138 
133 135 151 150 144 145 134 141 151 155 155 125 104 85 58 76 105 100 113 130 139 147 150 143 142 133 133 132 140 148 155 153 157 166 158 160 155 135 135 140 158 180 202 214 212 217 219 212 214 217 216 219 224 211 198 193 187 182 192 192 201 212 199 182 172 150 131 125 135 136 174 198 209 210 191 226 215 134 127 156 149 157 155 156 147 145 140 141 158 143 131 149 
132 140 157 150 142 143 132 155 156 154 158 123 116 91 59 89 110 113 106 119 138 139 145 145 140 136 130 129 134 145 158 160 161 169 156 145 123 109 109 103 109 131 157 182 189 196 208 207 206 209 207 216 213 214 212 212 206 199 202 197 196 197 173 159 139 122 102 124 140 152 185 212 218 211 199 235 183 125 137 156 152 156 156 155 149 141 145 138 152 142 131 146 
134 140 153 154 144 140 142 163 159 161 161 122 124 103 65 97 114 118 115 113 128 134 133 137 136 139 138 125 133 130 144 158 164 165 164 148 115 123 130 124 115 73 78 85 105 126 140 147 159 156 161 162 169 194 202 207 196 183 167 148 139 137 128 108 90 122 136 167 162 179 202 215 221 204 219 216 140 131 145 158 153 156 159 149 154 138 141 138 142 147 123 164 
141 146 157 150 141 147 148 161 158 171 147 134 128 113 74 98 127 121 121 112 116 130 131 130 132 131 136 128 120 124 117 131 144 143 144 132 127 146 160 165 173 170 148 102 88 90 93 99 106 99 106 109 115 123 146 149 138 120 108 86 85 88 86 105 142 165 191 198 184 188 200 215 212 205 225 166 124 143 149 158 154 158 158 153 143 141 140 139 142 142 126 159 
146 152 151 148 144 144 164 158 160 169 144 136 134 112 80 97 127 130 122 122 107 117 131 124 131 130 130 124 115 121 113 118 124 128 133 132 138 154 166 170 174 188 197 189 164 150 142 142 128 113 87 96 98 100 106 101 97 95 92 100 118 110 117 149 171 177 212 195 184 191 207 211 202 210 198 134 133 149 153 155 155 160 159 154 142 136 138 141 144 139 124 165 
149 152 144 147 145 161 153 157 161 162 143 145 136 110 89 98 134 127 125 129 116 104 121 123 125 127 127 127 118 118 115 115 115 121 122 131 146 162 167 173 170 176 183 184 187 177 164 172 175 181 169 148 132 117 103 103 112 134 139 150 136 135 150 163 170 193 206 186 193 199 208 206 207 204 152 135 143 146 155 160 151 165 155 156 139 141 137 139 142 141 128 166 
154 146 133 138 149 166 151 161 169 157 147 143 135 117 88 103 133 133 125 129 128 104 107 123 124 123 124 128 122 122 116 117 117 128 133 131 148 159 167 172 172 169 177 182 182 185 180 163 161 177 196 199 197 179 166 170 158 159 154 143 129 151 159 166 176 201 198 186 203 209 211 206 213 158 137 145 150 146 156 163 155 160 150 155 141 142 137 140 135 143 140 166 
148 138 133 129 149 163 144 175 162 152 154 138 129 123 92 99 138 131 130 125 128 119 108 111 120 119 122 125 122 119 119 123 123 132 138 143 153 165 171 171 178 168 165 178 180 179 182 181 172 163 164 162 168 166 156 159 147 143 141 142 149 162 164 166 194 207 196 196 213 220 211 218 177 130 146 146 153 154 157 161 152 152 148 152 140 137 140 135 141 145 150 160 
131 134 130 128 154 159 149 170 159 166 149 135 125 118 100 108 138 133 133 131 126 126 118 105 109 113 116 124 122 123 120 128 127 135 144 147 156 157 168 168 174 173 167 161 166 170 177 175 171 169 155 146 147 150 148 143 138 142 146 156 159 164 156 185 198 209 207 204 217 221 220 187 137 144 147 149 157 156 153 154 145 151 151 148 137 140 136 137 140 142 153 148 
131 130 129 129 156 145 159 167 154 174 141 134 132 117 99 119 135 132 126 132 128 125 122 114 103 104 108 109 125 117 122 129 129 138 145 155 156 155 161 163 168 173 176 165 148 154 165 164 164 165 153 145 144 145 141 139 140 146 155 157 153 160 173 197 206 212 216 214 220 222 197 140 138 154 155 147 154 153 148 149 142 146 161 149 136 136 144 137 138 150 165 129 
126 131 125 138 146 143 160 151 160 162 143 136 130 118 95 138 132 132 125 129 131 127 124 113 113 96 98 104 107 117 113 125 134 134 143 155 160 162 162 161 167 174 173 167 156 149 143 145 148 154 153 146 145 140 138 139 140 140 144 144 159 173 195 204 211 219 217 225 216 202 147 134 150 150 153 145 153 154 145 140 141 149 160 148 134 137 140 137 141 158 151 131 
129 126 129 145 144 139 159 142 154 154 138 132 133 117 97 140 137 130 131 126 130 130 126 118 114 107 96 90 91 106 109 113 124 131 134 149 155 165 166 164 172 172 174 172 164 158 152 141 135 130 130 126 127 124 126 131 131 139 149 170 184 193 207 209 212 223 226 218 198 141 134 145 144 148 146 140 154 142 137 138 149 155 148 146 135 137 142 142 143 151 133 150 
129 121 137 141 141 152 146 146 145 143 137 133 120 119 111 138 132 133 123 130 127 128 129 125 117 113 106 89 86 90 100 102 108 126 130 143 146 156 160 165 167 169 172 178 171 167 167 165 149 148 138 133 131 134 142 152 162 173 186 196 201 207 214 211 220 229 226 186 142 134 146 141 143 149 138 144 151 136 143 141 159 151 147 138 139 139 142 142 142 140 136 179 
123 127 130 147 141 152 141 145 139 137 135 128 117 117 125 129 130 128 128 128 131 123 129 129 123 117 114 103 93 82 88 97 100 105 118 127 137 145 147 157 164 164 167 172 174 174 172 174 174 174 170 172 175 181 187 193 195 202 206 209 212 216 220 218 221 226 197 128 124 143 144 142 146 142 143 144 142 140 143 153 158 144 147 138 140 140 140 138 147 145 152 203 
134 131 132 147 142 148 136 138 140 131 141 129 114 119 149 119 125 123 134 125 127 132 124 129 129 123 120 116 99 94 81 90 92 93 101 109 125 131 142 150 158 162 167 169 178 179 180 180 190 193 195 193 201 208 207 209 213 219 219 223 218 214 220 218 217 206 124 110 139 143 140 141 146 139 145 142 141 141 150 157 146 148 141 138 144 142 141 142 161 150 179 208 
136 135 131 144 143 142 135 140 127 135 150 133 110 138 139 116 119 127 128 130 128 128 135 126 127 128 124 129 112 105 95 89 85 93 93 102 110 124 139 148 156 162 166 179 182 185 185 189 194 202 205 205 207 213 214 215 219 224 220 222 222 217 211 208 209 136 98 133 139 143 139 143 143 143 143 145 145 149 152 149 147 144 141 142 141 148 157 157 159 154 197 206 
132 136 134 141 140 139 135 136 128 151 158 132 121 142 133 115 115 132 128 132 134 129 127 136 127 132 128 129 124 122 104 100 92 85 94 95 108 113 131 147 150 163 168 176 187 185 195 196 203 207 211 212 218 218 224 226 227 228 215 216 219 211 201 206 160 96 118 133 132 137 143 141 145 147 144 151 147 152 147 149 142 140 143 145 160 160 164 165 151 182 206 202 
