P2
# Imagen
92 112
255
129 132 130 128 132 131 123 131 126 128 133 143 141 139 134 134 138 154 138 77 49 61 76 75 89 108 107 117 117 120 119 121 121 122 119 117 124 115 115 113 112 108 119 114 116 115 120 120 114 114 105 104 111 111 101 94 97 100 94 96 93 86 87 69 58 55 38 35 27 25 19 17 17 73 101 130 131 127 129 132 124 129 132 127 118 128 132 130 132 127 132 133 
131 132 135 132 130 126 118 129 132 125 129 144 136 147 141 133 147 140 91 60 63 73 79 91 99 115 119 122 121 123 126 123 126 123 127 124 125 122 120 122 119 116 124 122 120 122 126 123 124 119 109 105 110 115 107 103 98 107 102 102 99 95 101 89 85 71 70 56 41 30 22 19 27 15 59 132 130 127 129 133 125 125 133 125 123 126 132 129 128 128 132 126 
129 136 134 133 132 131 123 124 129 133 130 142 142 145 146 134 124 98 67 72 72 84 91 101 115 120 123 123 122 123 128 119 135 132 128 125 122 128 130 127 124 126 130 128 122 124 126 122 125 122 115 106 109 114 118 105 111 110 106 109 107 103 103 104 101 89 83 78 70 55 41 25 23 23 3 76 113 122 123 131 126 133 130 132 122 127 128 131 130 134 132 127 
134 133 136 135 139 130 132 131 137 141 138 137 146 135 134 107 97 78 83 80 90 95 104 114 124 125 124 125 120 125 127 123 136 132 123 127 120 125 128 126 124 129 125 125 125 124 126 123 124 122 117 115 114 121 119 115 112 124 106 117 120 106 113 105 109 103 90 88 79 77 72 53 40 38 16 22 35 78 113 126 130 132 132 128 128 123 130 132 130 131 132 129 
133 132 136 137 133 138 132 141 135 144 148 139 145 147 121 84 92 84 90 92 101 102 120 122 125 125 127 126 119 128 128 127 131 132 124 128 123 123 127 130 128 125 122 123 125 125 126 119 119 120 123 114 116 123 120 121 112 131 121 121 132 109 122 115 113 117 101 94 90 87 73 74 64 58 39 23 22 22 38 118 124 129 128 127 126 119 131 130 131 129 133 131 
131 132 134 134 131 136 141 141 144 147 159 146 125 109 90 94 89 92 98 104 113 112 126 124 125 125 131 124 117 135 120 129 138 128 126 120 126 122 124 132 128 117 120 125 120 126 126 115 122 111 118 117 112 115 121 117 118 128 127 126 143 125 126 127 111 116 118 103 97 98 89 79 75 77 62 49 34 33 13 30 112 131 131 125 124 121 132 134 131 132 128 134 
131 135 135 132 131 135 147 150 149 147 150 137 107 95 95 98 101 95 108 125 127 125 127 123 123 129 131 121 126 126 123 133 143 126 130 125 123 120 128 121 124 123 113 126 122 122 120 115 118 115 113 118 111 116 118 121 118 122 134 133 146 122 129 131 119 123 120 111 107 110 98 95 82 79 72 70 61 38 28 13 35 129 131 121 122 120 130 130 132 129 130 132 
128 133 138 130 138 146 149 155 153 141 111 91 106 101 98 105 116 112 125 142 129 132 128 131 126 131 126 127 132 126 122 137 152 131 126 133 124 121 124 121 124 122 111 127 126 120 117 116 119 111 116 116 105 115 116 118 117 116 137 133 147 128 133 129 116 122 124 107 101 124 135 102 96 92 78 76 82 57 34 35 12 54 119 125 128 119 122 132 132 131 129 128 
133 138 135 128 138 149 150 159 150 112 90 98 102 111 109 113 130 118 146 145 134 133 137 135 126 134 127 126 138 131 119 133 153 129 128 132 120 124 116 120 124 122 109 125 121 119 121 115 112 113 111 115 112 109 111 117 122 114 135 137 147 129 131 137 111 117 131 110 101 113 136 111 105 117 99 83 88 78 48 39 44 18 52 97 126 125 122 128 130 131 128 131 
137 138 135 133 144 148 149 146 122 94 94 102 105 124 115 128 134 141 153 142 143 135 142 136 119 135 130 124 143 132 122 130 142 137 132 128 125 123 121 116 120 119 107 123 126 117 120 116 111 111 108 116 120 111 112 108 127 121 134 129 142 128 131 139 116 112 128 116 104 108 138 105 106 133 109 103 99 87 59 52 58 37 27 35 89 119 117 121 132 128 123 127 
131 137 145 146 146 156 145 99 108 101 110 117 123 135 130 147 142 146 150 151 141 140 141 131 125 140 129 134 142 140 131 128 143 144 132 126 120 133 129 114 123 119 99 119 130 125 109 115 113 115 100 117 114 119 112 107 132 123 130 125 126 128 136 146 118 116 125 112 108 114 138 117 107 127 115 113 119 108 72 64 70 57 31 26 31 68 121 118 135 124 132 128 
138 147 149 148 160 146 101 94 114 106 127 135 142 144 136 150 148 152 149 149 141 146 137 130 136 144 141 133 152 141 139 139 146 157 136 125 122 128 138 119 131 119 98 116 128 126 110 107 113 120 107 112 117 114 119 110 123 122 120 119 121 127 141 145 120 110 124 105 109 111 125 123 102 107 119 118 126 124 94 78 68 71 56 37 23 25 67 111 131 133 120 133 
144 149 149 153 159 122 87 101 114 132 136 153 142 147 139 149 154 148 148 152 139 152 140 129 139 150 143 140 151 143 146 149 151 163 137 133 130 130 132 128 132 125 102 112 130 123 123 105 114 110 114 122 111 112 116 114 120 116 117 125 114 127 136 147 124 112 119 104 108 114 122 119 107 102 113 120 132 124 105 96 82 67 73 55 37 32 27 49 106 132 129 127 
132 139 136 146 125 104 101 122 139 150 141 148 139 156 140 148 157 149 145 156 140 153 141 130 133 144 145 141 146 139 141 146 152 159 141 135 134 126 118 137 128 129 112 114 122 129 129 110 117 118 113 129 113 122 120 116 127 122 113 122 111 125 127 147 131 127 114 104 104 121 124 111 108 106 107 118 126 128 114 102 105 92 76 77 44 42 38 34 40 104 138 131 
123 133 139 140 110 101 117 143 147 143 143 152 140 153 143 144 153 151 146 154 142 148 151 131 127 153 142 132 144 133 140 136 146 146 141 143 137 122 127 130 133 131 121 124 122 124 132 113 123 125 112 124 123 127 130 121 132 131 108 117 122 122 128 144 141 135 120 105 104 122 124 109 111 118 113 108 129 129 120 119 94 108 96 86 57 50 43 34 40 31 136 136 
131 139 149 128 95 125 138 147 149 145 146 150 146 142 137 146 144 141 147 145 141 139 151 126 132 147 147 131 132 138 126 137 146 147 139 141 126 126 131 129 114 121 129 122 122 123 129 120 121 124 109 117 127 126 120 129 132 138 122 111 122 122 134 137 155 133 117 111 119 124 122 116 120 125 110 113 121 129 128 131 94 110 104 96 64 50 48 47 41 27 68 133 
139 142 155 125 111 135 151 149 149 144 148 153 147 132 138 149 147 133 136 143 142 130 140 131 131 140 134 136 131 138 125 128 152 141 141 135 126 123 128 126 115 114 122 122 119 120 127 130 130 116 115 112 131 122 125 116 139 139 121 115 119 108 147 146 147 134 113 120 123 128 127 128 123 134 127 113 121 130 137 135 102 105 115 97 74 64 53 48 40 36 39 100 
143 153 136 129 128 145 144 139 149 146 143 150 143 126 135 143 140 135 135 143 140 135 140 129 131 133 127 128 130 144 125 120 144 144 139 128 118 122 123 117 112 110 119 121 121 118 121 125 130 120 118 122 125 120 124 126 127 125 124 118 129 125 137 137 131 133 111 128 129 132 138 139 134 142 146 110 125 130 126 126 113 104 122 98 72 72 60 57 40 44 41 42 
151 149 136 133 137 146 146 142 143 140 143 136 141 132 140 137 125 138 131 141 132 138 131 132 122 126 122 117 119 134 117 122 134 135 130 130 124 124 127 116 116 111 111 120 117 115 118 120 127 124 120 121 127 118 125 126 128 124 118 123 135 140 126 131 123 130 114 131 142 146 132 125 126 131 149 126 129 130 115 119 116 117 120 93 78 76 68 61 43 48 52 29 
156 154 123 134 140 146 146 146 140 131 135 130 131 125 140 127 114 135 131 141 122 133 131 125 120 122 126 119 117 132 113 122 141 132 122 129 129 123 113 121 131 110 103 113 128 119 114 126 124 121 124 125 127 126 124 128 130 129 117 126 138 143 117 122 121 122 122 138 144 134 121 134 125 131 136 128 125 126 110 116 120 122 115 103 92 78 75 67 53 38 52 42 
158 148 118 136 144 144 147 136 141 125 128 130 127 128 128 117 118 119 126 125 129 122 136 124 115 117 122 121 118 124 111 113 140 130 124 120 129 127 111 119 129 124 113 108 127 119 117 106 115 111 117 123 124 126 125 129 134 123 130 129 143 128 119 124 117 132 129 128 130 123 119 137 128 139 136 118 128 117 120 109 132 126 119 105 95 87 83 74 65 41 50 50 
157 147 126 144 142 139 139 137 130 122 129 131 121 118 125 109 112 114 111 117 122 116 127 125 124 114 125 118 119 122 113 113 132 126 120 117 118 129 112 110 120 119 125 110 122 115 115 106 110 108 110 117 127 126 122 122 133 114 135 142 145 130 121 131 126 131 126 138 130 125 127 142 133 134 129 116 135 127 117 114 133 129 114 110 107 91 95 81 76 47 48 42 
169 147 132 152 136 132 136 133 127 124 131 131 128 122 123 116 117 110 116 107 112 117 120 128 128 119 128 115 114 114 116 113 129 127 119 111 111 120 117 109 112 111 115 123 109 122 114 115 104 113 114 109 122 130 112 120 125 118 125 146 146 137 127 140 124 115 132 134 127 138 138 142 146 127 130 121 138 131 118 121 136 125 112 111 110 100 93 87 89 56 51 45 
157 135 134 149 147 132 129 133 130 129 130 129 122 112 120 107 112 122 117 122 120 117 118 128 120 120 124 118 110 107 108 114 121 121 115 121 117 111 120 118 117 110 109 120 117 123 122 118 108 116 119 119 117 117 118 113 130 124 125 131 145 146 135 144 121 117 125 125 130 133 132 137 137 127 134 127 128 134 111 127 131 123 113 115 110 101 93 95 85 70 58 62 
147 130 140 145 144 130 134 127 133 132 131 129 123 112 114 116 116 132 135 127 122 121 129 128 124 125 119 108 113 104 103 106 123 117 120 126 124 114 116 128 137 118 113 119 128 131 129 135 121 124 129 122 119 117 125 107 123 120 125 122 143 159 142 137 124 120 118 118 125 132 136 123 137 133 144 128 120 126 120 119 125 119 117 126 112 101 94 100 82 78 67 72 
139 128 132 137 136 134 131 135 131 137 132 131 141 145 137 131 140 156 159 152 144 136 145 149 138 130 123 105 116 114 110 117 126 139 132 138 140 135 135 129 147 144 141 145 152 143 155 153 153 137 142 157 142 118 134 112 121 130 126 132 142 146 137 134 132 121 113 116 124 128 132 124 141 149 144 132 130 131 122 126 138 125 115 111 114 112 104 92 90 73 68 73 
139 130 132 132 141 134 128 143 133 132 126 137 149 162 164 159 164 177 166 171 172 168 169 165 150 138 129 129 115 125 128 119 137 137 142 149 153 147 151 147 144 156 174 176 178 165 171 171 168 169 164 164 152 132 131 111 129 128 125 143 139 126 119 125 126 124 118 119 125 128 125 129 152 152 144 132 127 127 125 125 131 119 115 112 112 102 100 96 98 76 76 68 
140 130 141 134 142 134 137 141 142 138 134 132 141 169 187 192 169 175 185 179 183 195 177 175 169 147 148 148 140 138 140 135 134 148 146 155 175 167 160 155 156 165 175 195 196 196 183 185 195 190 192 182 162 151 130 108 129 124 129 137 131 110 103 111 120 110 112 120 133 121 122 126 136 148 148 151 125 121 128 127 120 116 117 114 122 109 98 103 96 79 84 65 
139 132 131 138 140 136 140 153 151 144 140 136 140 174 184 178 175 176 187 171 173 179 181 172 171 164 158 158 167 163 170 160 151 156 162 156 168 176 159 153 160 177 175 189 183 182 182 169 184 184 179 166 135 116 115 117 120 112 118 117 105 99 96 101 103 105 110 111 123 116 109 127 123 155 168 155 126 120 123 124 117 117 115 115 121 114 110 104 102 81 86 64 
135 124 128 140 136 131 145 149 156 154 144 142 160 178 178 173 180 173 169 175 177 169 175 163 169 161 149 156 151 149 169 158 157 157 175 164 165 172 165 154 159 177 181 176 167 175 173 155 150 157 154 141 115 92 87 95 106 101 88 94 93 78 83 89 88 82 110 104 106 114 114 105 118 122 160 146 133 122 123 123 113 117 111 113 112 113 107 108 102 85 89 75 
133 126 132 139 134 131 141 148 156 151 151 150 163 175 180 180 173 170 168 177 173 169 170 166 167 142 135 146 149 153 161 158 155 158 165 156 157 163 158 151 158 162 163 161 159 160 167 164 134 131 124 127 115 104 95 82 75 73 68 58 61 67 59 71 82 73 80 100 103 102 109 86 102 117 140 152 134 124 124 126 125 117 107 107 115 112 111 101 105 88 88 79 
125 131 132 130 126 130 141 150 151 148 153 147 161 169 177 177 174 173 179 172 166 172 172 174 160 148 142 142 149 152 156 165 159 160 161 151 155 154 153 155 156 151 151 149 153 157 155 157 140 123 110 102 97 79 79 81 66 57 61 51 47 48 59 52 62 75 68 84 103 105 103 90 91 114 133 151 151 133 128 119 122 118 115 107 111 114 109 105 103 94 86 91 
124 119 133 125 126 130 144 155 151 153 165 157 167 170 180 179 176 187 185 181 183 184 181 164 164 159 151 144 149 150 151 163 165 162 157 150 155 155 149 153 153 152 149 144 147 153 151 153 149 140 126 105 96 80 67 61 56 49 44 43 43 44 51 49 37 62 64 79 86 103 101 89 87 92 116 136 143 142 136 123 114 113 108 112 107 108 114 106 107 97 94 94 
119 121 124 122 123 141 145 163 153 159 176 176 190 197 195 184 177 198 195 189 191 190 176 157 166 164 153 150 154 151 155 164 163 158 154 150 148 155 148 149 152 150 149 148 151 155 147 154 150 145 138 121 102 93 70 69 57 47 42 38 40 38 39 41 36 48 59 67 82 86 98 92 84 93 99 120 136 140 134 128 118 112 105 105 105 113 120 108 103 98 100 103 
113 125 127 115 131 146 150 162 164 171 182 192 202 207 203 194 186 181 194 190 194 187 172 157 163 163 143 150 150 151 158 158 156 151 154 150 144 146 149 147 149 146 148 147 147 151 147 152 149 141 138 134 112 101 86 77 71 59 47 37 35 32 38 34 41 47 56 59 72 74 85 88 85 89 97 108 125 134 127 120 119 110 107 106 102 116 122 114 99 104 93 114 
131 117 122 118 133 148 157 172 178 180 194 204 207 205 207 204 208 196 188 190 189 178 172 161 168 160 144 144 146 146 156 155 149 146 146 145 142 145 142 143 144 146 144 145 146 145 145 149 148 145 136 137 126 104 99 89 84 72 63 44 40 34 31 35 35 44 50 54 59 69 74 81 83 83 95 109 109 128 125 120 105 121 107 115 104 127 129 112 104 105 102 110 
132 114 124 119 128 151 172 183 182 191 194 212 206 203 203 206 214 204 188 191 184 174 172 167 163 156 143 139 141 145 149 152 145 140 140 142 141 143 141 141 143 144 142 144 146 147 145 146 147 140 137 136 129 115 105 99 89 83 70 59 43 44 38 34 42 39 39 52 53 59 69 71 78 81 82 101 98 121 129 126 108 104 116 114 117 138 129 111 107 112 115 110 
137 118 123 118 125 152 187 187 195 202 201 210 201 202 201 206 205 202 193 187 184 173 175 166 159 153 145 141 137 140 146 144 142 138 137 141 140 141 142 139 141 141 138 139 143 142 142 143 140 139 134 134 134 125 113 110 98 87 78 70 56 49 31 31 44 42 33 38 46 51 60 63 69 73 81 84 84 109 108 120 119 104 116 112 134 147 131 113 109 119 120 123 
142 125 118 111 118 159 193 193 202 208 204 205 204 207 206 201 199 198 192 189 184 168 167 169 156 155 145 142 138 138 138 139 137 134 138 138 138 137 140 137 138 139 136 137 140 139 141 140 140 137 134 134 133 129 123 110 109 101 94 83 64 52 37 33 36 40 26 30 37 39 53 55 60 62 73 71 85 90 107 101 112 112 113 119 143 148 131 114 113 131 122 124 
138 126 122 112 117 171 199 199 209 215 201 201 207 210 204 202 194 195 189 186 182 170 160 167 156 153 145 140 138 138 136 136 135 137 138 137 137 137 136 138 138 138 137 135 136 139 141 141 138 135 134 133 132 128 127 119 110 108 103 99 79 57 48 39 32 34 29 14 28 34 40 45 51 51 62 56 81 79 98 100 100 108 110 128 153 137 128 118 115 141 123 122 
143 121 121 114 113 175 194 207 209 218 206 209 205 213 210 200 192 190 186 181 176 168 160 162 157 149 147 143 138 137 138 135 134 136 138 136 136 137 136 137 135 137 137 136 137 138 137 138 136 138 132 131 130 129 125 122 122 112 109 110 102 82 51 52 36 25 27 15 8 22 29 37 38 48 40 52 66 87 82 91 95 101 108 133 156 139 119 129 129 127 137 125 
144 117 120 111 117 176 209 219 217 226 214 208 211 210 211 201 186 184 183 175 172 164 161 162 160 150 145 142 140 137 139 139 137 138 136 136 136 137 135 137 139 136 138 137 135 140 136 137 136 137 133 130 130 128 131 124 125 123 111 110 112 103 75 59 49 37 21 20 6 11 26 34 33 40 40 43 51 78 78 82 89 98 108 139 148 137 123 127 142 129 139 122 
154 113 115 113 109 184 212 220 225 225 224 218 210 208 203 196 188 181 177 171 169 168 165 163 161 157 147 146 145 142 143 143 145 147 139 140 140 140 138 138 138 137 135 138 135 137 136 135 136 135 135 131 128 128 130 129 125 130 125 113 110 115 106 72 64 51 32 23 16 8 27 23 36 32 41 34 47 66 74 75 86 93 111 156 150 130 120 139 146 127 140 110 
155 113 115 116 106 180 214 230 225 230 234 222 215 212 204 195 188 182 174 167 172 171 163 162 167 158 155 149 147 147 148 146 149 151 144 138 143 144 141 142 137 135 137 136 133 135 135 135 135 135 134 133 126 130 129 134 131 132 136 127 116 115 117 101 72 60 47 31 20 21 23 28 31 37 35 37 41 55 68 71 84 91 112 156 149 134 123 143 137 136 134 104 
150 115 120 111 104 172 221 229 230 236 234 229 219 211 202 196 189 182 178 170 171 173 164 159 162 157 153 150 147 148 147 146 148 149 145 143 146 142 147 143 140 135 134 134 133 134 134 134 134 136 135 134 131 126 130 134 141 135 136 135 126 119 114 118 87 68 47 46 23 33 18 33 25 37 38 36 36 47 54 76 79 95 117 155 141 129 130 141 143 140 132 103 
147 116 121 120 96 176 219 231 239 235 237 232 222 217 205 197 191 188 186 175 169 169 165 156 155 153 148 144 144 141 149 143 143 145 144 142 143 145 140 141 140 134 132 134 132 132 131 132 134 134 133 133 132 129 130 138 140 139 135 137 131 126 111 115 102 78 52 41 31 22 22 29 31 26 35 39 39 45 51 65 87 89 121 144 138 130 138 150 152 142 132 102 
139 121 123 124 96 172 220 231 237 242 242 236 229 220 211 204 195 194 190 176 164 161 158 149 149 147 142 138 137 137 140 142 139 144 140 143 139 141 138 138 139 132 132 132 131 131 131 132 133 135 135 131 133 134 133 137 137 137 143 134 127 117 110 100 100 83 48 34 28 10 12 15 24 18 31 42 37 45 48 68 77 105 125 135 131 132 143 150 143 142 125 101 
140 126 131 128 100 163 223 233 240 247 249 244 229 226 213 208 207 201 185 171 164 157 157 148 146 144 144 139 135 133 136 138 136 137 135 138 137 138 136 140 140 135 137 135 132 133 134 133 134 135 134 132 135 136 135 138 137 135 140 135 132 115 113 98 86 77 58 25 21 9 8 2 5 19 20 41 41 45 49 61 81 102 125 133 127 132 144 154 135 131 115 102 
139 125 136 134 105 161 216 236 240 248 251 241 229 221 221 212 214 204 183 171 162 159 155 153 149 146 146 146 141 138 141 138 139 139 134 138 137 135 138 140 142 138 134 135 135 134 136 136 136 134 132 134 133 137 139 139 140 134 133 129 124 117 111 103 89 78 62 43 13 7 0 6 1 11 18 25 46 42 52 64 86 102 122 129 132 132 157 151 134 130 112 92 
132 129 134 137 106 156 219 236 237 241 242 237 223 219 217 219 211 201 182 171 167 159 157 155 157 152 150 147 143 142 144 140 144 140 141 138 138 138 138 141 143 140 140 134 134 133 135 137 135 135 135 137 136 137 141 140 138 134 130 128 126 120 116 101 93 79 64 53 19 6 4 3 4 6 20 13 38 46 52 67 89 99 112 125 131 136 155 150 135 123 113 88 
135 131 129 137 109 157 211 217 219 227 229 225 213 214 216 213 208 196 181 174 168 163 157 161 158 156 154 155 150 149 149 148 143 143 143 143 138 141 139 139 141 143 142 137 138 134 135 133 135 135 136 139 140 140 139 137 139 136 132 131 126 120 114 110 90 87 61 53 31 12 7 5 7 8 11 21 23 48 53 65 83 96 116 124 134 139 160 143 131 117 100 96 
133 132 129 131 113 154 188 177 186 204 212 207 206 198 209 207 203 196 184 178 169 167 167 162 163 159 157 157 155 153 152 155 146 149 146 141 143 143 140 140 139 143 142 142 138 136 136 136 136 136 134 139 142 140 136 138 138 136 134 132 124 124 118 112 107 90 73 59 38 21 13 22 16 10 15 17 25 42 58 65 77 90 121 126 126 147 148 135 133 115 102 105 
144 135 126 134 122 136 153 146 146 159 164 168 166 183 192 202 195 190 178 175 174 172 172 178 171 163 157 162 166 159 157 162 157 149 149 149 147 148 148 144 141 140 141 143 136 136 134 137 137 134 135 136 140 139 136 138 140 141 140 138 137 134 130 120 125 113 86 74 61 42 28 28 29 24 23 25 32 41 59 63 79 91 113 126 128 146 144 133 126 112 105 101 
140 143 125 129 130 130 134 136 134 123 123 116 107 128 138 151 160 168 171 170 171 176 180 184 177 172 168 181 182 187 174 170 176 165 153 154 160 156 153 150 143 145 143 140 137 134 135 134 133 134 134 135 133 135 134 134 145 147 146 141 141 144 136 125 122 127 104 88 79 66 53 43 39 44 36 37 41 44 64 66 79 97 114 125 137 141 144 136 117 106 120 90 
132 144 124 129 125 138 151 138 128 124 103 96 76 77 77 86 105 118 136 160 163 176 179 184 182 178 181 200 202 203 200 192 189 184 168 166 166 167 162 152 151 147 141 136 127 125 128 127 117 119 119 119 123 120 118 120 137 149 147 144 154 151 149 129 134 134 125 111 98 93 82 68 51 56 54 57 51 57 66 73 74 96 117 125 136 137 147 140 110 116 119 76 
148 139 129 125 120 165 202 188 170 145 129 103 80 62 56 56 58 69 87 108 140 166 181 192 199 200 200 213 211 206 206 203 193 183 177 173 160 154 144 127 110 101 98 84 74 65 72 74 73 68 72 71 74 81 77 81 90 112 140 154 166 166 157 162 155 158 159 141 127 117 105 93 81 63 67 71 72 64 70 73 74 97 111 124 134 140 145 131 107 131 97 82 
141 137 127 126 110 179 212 203 205 186 160 135 102 84 61 57 50 64 59 72 89 141 176 196 210 208 213 216 220 216 218 207 200 191 178 169 147 118 106 82 70 56 49 44 40 36 30 38 36 40 40 46 51 47 54 63 61 74 111 151 175 179 170 174 181 179 175 166 160 148 139 121 111 81 66 71 79 69 75 77 71 93 114 124 133 143 133 125 117 115 95 80 
146 134 128 121 114 177 198 199 189 167 139 120 99 98 90 73 75 64 68 73 74 109 152 183 200 198 204 211 212 216 214 209 202 196 187 160 129 101 86 75 59 55 40 30 30 18 26 25 30 24 32 42 49 54 56 63 70 46 66 110 166 179 183 190 195 196 191 188 182 179 167 151 113 103 82 68 71 64 68 79 80 89 112 119 135 130 122 128 118 98 91 75 
155 136 134 114 119 182 181 180 164 133 107 86 73 66 75 55 50 58 58 82 85 100 122 160 180 187 204 216 219 220 218 210 201 204 187 152 135 118 95 90 74 61 48 38 35 31 36 45 46 49 60 77 87 96 98 110 107 96 70 80 111 153 183 197 203 205 207 199 199 189 177 160 129 96 91 70 62 55 58 69 80 94 112 118 132 131 129 128 116 94 84 73 
158 140 135 109 125 187 179 170 146 114 85 75 73 66 55 42 31 47 37 52 68 87 88 123 162 187 206 221 221 224 222 222 212 207 185 149 146 136 127 114 105 97 88 77 76 75 78 97 103 110 122 135 137 145 147 151 156 149 136 116 92 90 137 180 195 204 210 199 195 181 182 157 145 94 79 82 56 51 42 50 74 99 114 122 128 127 133 134 112 100 83 74 
155 143 130 103 141 197 187 171 151 98 77 88 120 122 63 37 18 77 68 23 46 69 81 108 155 197 200 222 227 225 225 217 211 201 177 154 137 135 142 135 127 122 106 95 87 79 74 88 100 110 117 126 131 139 147 145 151 161 172 171 156 119 100 122 171 191 202 203 198 190 184 172 143 120 74 70 68 51 44 47 59 95 116 122 127 130 133 126 125 109 82 79 
159 141 127 97 140 214 200 180 146 90 89 132 163 164 83 41 32 55 101 21 25 65 87 104 155 205 216 227 240 232 223 220 211 189 161 140 130 131 138 135 113 102 86 74 69 49 39 58 76 90 90 88 86 101 113 125 129 132 147 165 167 151 124 118 143 174 187 194 196 202 190 170 158 133 84 65 71 64 48 49 58 82 117 128 122 127 136 127 152 131 83 83 
152 135 125 93 155 220 216 191 150 96 104 135 170 187 103 41 48 43 43 38 50 87 98 100 138 206 229 244 249 241 233 220 202 178 149 137 138 139 134 115 106 99 89 62 51 42 18 26 40 47 49 76 86 79 76 85 106 115 132 158 170 183 176 166 151 166 171 187 195 214 205 190 172 145 102 67 71 64 52 54 57 70 108 132 116 121 135 128 159 152 92 92 
148 129 119 88 166 225 230 216 171 98 114 125 151 186 136 54 47 54 49 42 99 130 103 97 123 205 228 249 242 223 234 224 189 163 147 154 153 142 130 127 127 90 76 89 105 63 16 7 30 40 17 28 46 67 82 77 74 90 115 149 162 173 184 182 176 161 169 176 189 212 212 206 180 158 105 69 69 66 55 50 59 65 96 121 115 126 132 128 149 152 105 95 
141 133 125 96 181 228 231 223 188 102 87 122 132 153 159 91 56 65 71 97 122 125 106 96 124 200 216 230 229 212 230 223 178 141 148 158 163 158 143 129 109 103 109 134 160 80 13 9 2 34 21 19 29 33 51 92 93 76 99 138 159 168 169 180 175 164 174 190 190 214 218 206 190 154 118 78 65 59 50 48 52 68 93 114 106 146 171 159 168 161 103 100 
150 139 123 92 191 223 227 226 190 135 97 80 89 100 118 126 124 131 130 137 131 129 133 109 131 199 205 206 210 207 218 215 180 161 157 174 177 169 142 131 110 108 125 159 178 120 29 25 19 24 22 24 54 60 38 34 80 91 100 128 143 155 159 175 176 172 175 188 213 212 209 198 169 139 119 89 72 50 44 46 55 66 87 99 113 182 204 190 189 197 79 94 
152 143 114 92 192 220 225 227 193 148 120 103 89 74 75 79 87 102 108 117 120 125 125 114 147 192 206 199 194 197 206 195 171 160 165 175 169 160 153 136 116 86 107 148 171 151 70 15 20 31 19 57 82 87 68 39 59 75 106 125 132 154 178 182 183 163 179 187 198 204 202 182 157 124 118 82 66 46 41 39 53 59 78 98 133 195 202 188 214 172 83 91 
159 139 120 85 194 219 226 226 201 166 130 108 99 93 80 83 80 86 91 105 120 136 131 127 161 180 187 189 188 192 179 172 164 151 160 163 165 151 150 151 122 101 92 106 125 147 123 69 63 92 83 90 87 70 71 67 87 99 112 123 139 149 186 193 191 171 179 186 188 190 187 162 149 123 108 70 61 44 43 35 49 55 83 99 151 211 202 178 228 145 83 91 
159 143 116 79 192 219 230 235 209 185 152 120 107 93 88 85 85 86 99 112 126 145 137 137 171 179 183 183 184 179 176 165 155 147 150 155 164 158 131 124 123 109 103 91 80 85 90 85 79 103 100 78 70 68 81 97 116 128 133 145 154 156 183 191 189 178 178 184 178 177 170 154 143 120 94 67 51 38 44 45 53 68 95 118 158 223 216 183 219 130 91 95 
152 147 106 78 197 215 227 235 229 206 171 143 124 112 109 99 98 100 111 125 140 145 122 134 165 174 176 177 171 169 166 162 159 155 157 150 157 164 142 115 118 129 127 119 101 84 80 74 80 97 112 99 97 95 98 113 126 133 139 157 166 165 175 181 178 176 179 179 173 165 163 148 142 113 91 68 46 37 44 61 69 92 122 154 165 231 233 208 181 99 102 96 
156 132 113 73 194 214 216 232 237 225 198 172 148 136 127 123 115 121 123 131 141 128 107 134 162 164 169 166 162 157 152 152 147 152 155 152 158 166 162 144 119 118 122 125 116 103 96 93 94 113 120 115 111 109 117 129 136 141 143 156 168 168 178 180 178 171 171 169 167 163 151 140 123 105 78 55 47 44 57 66 80 120 147 189 181 235 252 228 126 103 107 99 
152 129 111 79 198 212 208 228 238 223 211 189 170 149 141 136 127 131 132 134 135 108 98 138 155 158 158 158 144 138 134 134 131 135 142 139 146 154 159 152 139 116 117 115 117 110 106 103 106 121 129 128 127 121 122 136 141 142 141 152 162 167 170 171 169 170 162 157 151 143 135 122 113 90 64 49 50 53 79 100 97 139 176 192 190 250 255 211 105 114 112 108 
150 139 107 81 192 214 206 222 235 221 218 199 184 167 155 146 142 133 133 129 124 94 96 136 148 147 149 144 129 123 126 125 123 127 126 132 134 142 149 156 153 140 127 113 109 106 106 110 116 128 143 146 144 142 135 137 142 142 145 151 156 160 166 167 159 161 157 151 143 130 120 111 98 75 54 37 60 70 93 119 106 153 181 195 211 253 253 159 125 126 122 115 
141 159 122 81 175 213 209 213 233 222 217 204 189 176 163 154 143 138 128 126 112 83 102 133 142 139 141 133 118 116 115 117 117 115 120 128 130 137 140 150 154 154 147 132 118 107 108 111 116 125 135 140 146 147 142 140 140 141 144 145 151 154 159 156 151 147 141 134 129 117 107 97 82 66 44 41 58 91 105 119 120 142 167 211 243 242 240 139 149 152 115 116 
141 163 123 84 169 208 215 206 222 221 219 203 190 176 168 157 144 140 130 121 103 80 110 133 138 136 134 126 112 112 109 111 113 114 120 123 129 131 137 142 147 152 154 148 144 143 138 139 138 144 147 153 154 154 151 148 144 141 142 147 147 151 154 150 142 135 132 127 116 106 95 86 76 51 38 36 63 109 99 102 150 162 181 238 241 226 213 123 162 170 120 110 
154 172 132 83 162 214 214 203 215 222 225 204 191 176 168 158 145 144 135 116 92 87 116 135 134 133 131 117 109 109 111 113 114 116 118 121 127 131 134 137 141 145 150 142 147 145 148 149 150 154 157 155 153 151 149 145 141 140 137 139 142 143 145 140 135 131 124 115 100 89 77 79 61 52 36 45 75 127 72 124 178 187 194 219 208 228 184 100 158 168 144 111 
168 184 127 88 153 214 214 204 204 217 220 206 190 177 170 157 149 142 136 108 86 96 117 136 136 135 126 118 113 105 113 111 113 116 120 121 129 131 134 136 139 143 145 144 145 147 145 149 153 158 158 157 156 152 150 146 142 136 139 137 136 142 140 138 131 127 120 106 95 81 75 69 62 50 45 60 86 112 106 151 190 191 191 209 216 235 142 103 145 162 146 122 
187 187 129 88 138 208 214 206 196 208 215 205 192 179 173 160 154 141 129 99 86 110 126 136 136 130 128 119 118 110 111 113 112 116 119 123 126 131 133 135 140 144 144 146 145 148 150 150 156 159 158 157 160 156 149 147 143 139 136 139 134 138 141 133 130 124 114 102 86 75 71 69 65 54 53 80 90 112 154 179 183 179 202 219 243 194 110 116 135 152 143 127 
183 192 144 88 129 208 213 211 194 199 211 205 189 178 172 159 152 142 120 91 101 125 134 137 137 134 130 123 118 112 109 108 108 113 112 114 122 127 133 135 141 144 146 149 150 150 153 150 155 159 156 155 159 158 152 149 146 142 138 138 135 136 139 128 127 119 105 95 79 71 70 70 64 64 68 90 89 114 168 180 160 183 223 229 221 138 115 112 144 147 130 124 
177 200 164 104 122 211 220 211 207 198 204 204 193 178 169 155 147 139 112 92 119 134 137 139 141 138 133 131 117 111 105 104 102 111 104 103 113 120 130 135 142 148 148 152 155 152 155 151 154 153 155 155 156 159 153 148 147 143 140 138 132 133 139 130 122 119 101 92 74 70 75 72 71 75 77 95 106 124 169 172 168 198 234 216 148 128 119 112 138 151 123 114 
161 205 168 138 112 208 227 221 211 204 203 200 188 175 168 154 143 133 110 110 134 141 142 141 140 140 138 131 127 110 104 109 112 113 107 93 99 108 127 136 146 145 150 154 155 151 153 151 148 150 156 153 154 159 156 148 145 142 141 138 129 132 132 128 119 108 105 86 74 77 76 75 82 84 88 100 134 151 176 188 179 223 226 137 125 137 123 116 133 147 126 114 
171 200 169 145 115 204 243 228 223 213 208 196 182 174 167 156 140 125 111 125 139 149 144 145 145 144 140 138 129 120 114 123 129 131 121 102 91 103 121 137 144 144 144 153 156 147 152 155 149 149 155 159 154 155 153 148 144 139 138 137 130 125 123 122 115 105 93 85 79 81 85 80 96 88 91 110 169 175 174 194 192 228 168 103 127 143 126 122 131 132 132 123 
189 197 173 147 106 181 248 238 232 225 213 195 172 165 159 150 134 117 116 132 149 150 149 150 150 149 145 145 135 130 125 132 139 139 133 109 93 101 119 134 144 146 147 153 153 145 151 157 153 156 161 159 158 151 150 146 143 141 136 134 129 124 118 119 115 104 94 82 91 87 92 93 99 93 86 140 182 190 174 175 180 147 113 124 129 138 129 124 128 125 124 125 
187 208 181 140 118 143 239 239 242 238 216 195 171 157 151 144 129 108 112 138 153 154 151 152 152 154 154 147 145 138 133 136 140 145 131 114 98 117 130 144 150 148 153 155 154 147 155 164 168 166 175 172 164 157 154 148 144 140 135 135 126 128 119 121 115 107 96 89 97 98 97 106 98 94 102 150 176 165 143 126 93 107 123 140 130 135 130 129 131 128 125 133 
182 207 194 146 129 123 221 234 240 247 223 205 171 157 142 136 118 109 105 136 151 157 153 154 153 154 154 152 145 135 132 135 130 129 121 112 115 133 148 155 158 159 156 162 159 155 168 177 177 177 178 175 169 168 161 156 156 150 143 139 132 132 124 125 117 107 99 100 102 104 107 110 104 101 113 136 137 93 69 68 92 121 127 136 135 135 129 130 127 127 123 127 
176 200 186 157 135 114 175 224 226 234 219 204 173 155 140 129 116 121 119 113 136 150 149 151 148 141 133 125 108 97 81 80 84 90 105 127 144 158 164 162 162 160 165 169 170 164 174 184 180 179 184 181 175 168 167 168 168 166 154 145 139 134 127 124 117 107 104 110 110 113 110 111 110 111 80 55 46 49 65 87 106 123 130 133 132 130 136 128 133 122 124 121 
185 187 181 151 139 117 142 216 217 226 213 198 170 155 147 127 128 126 131 118 109 122 128 132 126 120 99 81 67 56 42 42 48 71 114 143 162 169 169 156 150 153 158 167 170 172 173 184 184 182 184 188 179 176 171 176 172 168 156 148 141 133 129 126 117 114 109 115 116 121 114 114 125 108 35 27 42 60 72 102 109 124 136 133 134 133 131 130 138 117 128 124 
193 189 171 146 136 134 114 199 209 223 206 198 168 151 143 141 135 137 133 132 125 98 92 95 93 80 63 55 55 59 63 68 83 110 138 153 154 164 172 165 150 147 151 156 159 158 164 172 180 185 186 191 189 177 177 170 163 154 147 142 134 132 127 126 113 113 115 118 125 121 120 121 128 89 18 39 50 61 82 109 115 126 131 131 134 129 132 131 139 121 124 131 
199 193 171 142 130 134 109 184 209 215 205 200 176 148 149 142 133 130 133 138 136 114 93 85 81 63 59 63 74 84 94 112 122 144 145 150 152 159 168 169 164 150 145 148 150 147 156 162 171 182 187 189 186 179 171 163 154 143 138 137 136 129 133 121 113 116 120 122 128 131 122 124 123 63 17 41 56 67 95 111 118 122 135 133 134 128 131 135 138 123 127 127 
198 197 164 134 133 132 119 161 213 208 203 195 179 149 147 136 127 128 137 138 142 127 103 96 88 79 72 77 92 113 122 131 139 144 148 151 152 157 161 165 170 156 145 142 144 147 148 155 163 171 172 176 172 169 159 155 150 142 136 141 133 132 131 121 120 125 124 134 128 135 127 128 125 33 21 49 65 74 105 117 120 126 137 135 135 131 134 139 138 128 125 127 
186 185 152 128 136 136 121 140 212 205 207 200 187 151 130 121 114 122 137 133 138 136 118 105 101 105 99 93 105 117 132 136 137 142 145 152 156 154 156 158 162 159 142 133 132 133 132 143 144 152 155 157 156 158 148 149 144 142 137 138 139 134 127 124 127 126 129 134 133 132 126 129 101 17 32 55 73 80 117 116 124 131 133 136 139 131 134 142 141 126 126 125 
184 170 136 136 138 122 134 144 193 206 211 205 195 162 115 112 104 125 131 135 137 135 130 119 126 128 125 113 114 125 137 138 140 146 151 155 155 150 152 151 150 150 146 128 122 120 119 123 130 134 139 141 146 154 145 138 138 138 137 139 142 135 130 127 131 130 133 134 131 131 123 122 75 17 36 70 73 92 120 124 125 133 135 134 141 129 138 143 145 127 127 127 
171 143 131 132 125 120 155 149 166 206 204 208 207 178 122 98 83 109 119 135 135 141 140 143 146 150 154 141 129 143 149 149 153 147 156 155 153 153 150 149 148 142 147 139 113 115 118 119 118 123 130 136 138 142 141 132 129 129 138 137 138 143 134 133 129 132 137 135 138 129 113 108 55 20 49 76 82 104 125 128 130 141 137 136 141 128 144 151 137 135 122 135 
146 129 130 124 122 137 169 153 149 197 198 204 203 187 139 116 108 101 89 104 122 135 140 148 159 165 165 162 149 156 169 172 172 164 167 161 162 161 158 157 151 144 132 137 123 105 116 128 133 134 136 138 141 144 144 138 135 136 143 143 143 144 141 137 132 136 139 132 135 116 105 99 34 31 61 83 89 116 130 132 138 144 140 141 142 132 145 148 147 134 130 138 
127 123 122 123 138 158 161 164 139 160 201 194 196 192 152 140 130 136 106 65 73 91 96 116 139 154 165 172 159 152 163 172 182 186 184 173 169 167 166 158 150 140 130 120 125 110 108 131 145 147 149 147 152 158 152 155 143 143 150 144 153 149 149 142 136 130 132 132 124 104 108 86 26 42 77 94 96 134 128 143 149 142 138 149 141 127 146 145 147 140 133 146 
121 119 124 138 152 152 168 167 144 123 193 191 190 188 171 158 148 153 145 106 71 62 52 59 76 105 125 136 129 125 116 114 133 138 145 146 145 140 138 133 129 111 100 99 105 113 108 127 151 155 156 160 160 158 158 155 149 145 146 147 158 155 148 134 119 123 128 124 102 97 115 68 21 66 97 96 111 138 134 159 150 141 146 151 135 130 143 147 139 137 140 153 
117 124 128 129 153 153 164 154 127 120 143 205 194 189 183 168 156 158 156 141 111 101 80 54 46 66 79 88 87 92 90 79 65 73 80 80 88 88 86 81 79 94 113 117 110 113 113 127 159 162 161 163 153 155 149 147 141 143 146 152 151 145 135 124 116 121 119 114 87 109 120 49 31 90 109 104 129 139 155 153 151 144 150 150 137 130 143 142 135 133 149 148 
118 122 120 120 122 126 125 124 123 131 105 182 202 198 183 181 159 154 157 163 138 128 129 122 90 62 63 53 59 71 64 65 51 59 68 70 77 84 98 106 127 148 159 152 145 146 128 132 158 169 170 167 159 149 142 138 142 143 151 148 145 138 133 123 115 115 104 92 90 123 114 41 53 109 101 117 144 143 157 154 154 151 148 146 122 136 144 139 135 141 143 149 
131 119 117 117 118 119 121 122 124 121 110 125 199 201 186 188 162 156 150 156 157 133 133 147 140 128 108 90 85 97 99 111 117 117 118 114 110 120 125 138 147 148 155 155 155 156 140 138 154 165 169 158 151 148 140 142 138 139 139 139 143 136 124 118 109 100 86 83 115 129 108 47 71 107 108 137 148 150 150 149 149 148 142 139 124 136 142 134 127 144 135 150 
147 135 119 117 113 114 116 125 118 117 120 99 161 201 196 187 160 156 149 144 152 147 132 135 137 132 128 123 117 120 128 122 116 110 107 111 117 126 134 136 144 143 153 165 165 154 139 133 133 140 149 141 138 137 134 134 132 131 134 137 132 126 117 107 95 90 74 108 131 131 110 55 89 107 124 142 144 144 139 138 146 134 133 131 131 139 131 128 126 140 139 147 
138 145 132 124 115 110 113 124 118 118 123 109 110 187 198 195 164 161 163 139 144 145 134 126 121 120 115 112 104 108 104 107 105 102 108 116 124 133 131 132 132 141 147 153 154 150 140 132 121 126 130 128 128 130 128 133 131 126 126 127 121 116 105 100 81 79 100 122 141 133 98 70 94 115 135 144 143 131 131 131 133 130 127 129 129 136 128 123 126 144 134 149 
140 153 148 153 137 126 118 129 125 133 160 134 120 146 187 201 173 165 171 150 135 137 139 123 113 111 109 107 103 101 107 106 117 117 120 119 124 129 126 128 135 142 146 151 148 149 145 140 133 134 131 123 123 123 125 123 121 125 116 118 113 106 96 81 80 97 116 139 146 142 95 86 102 124 141 137 138 126 127 127 128 124 124 128 127 134 123 125 125 139 130 152 
160 156 168 179 178 159 132 135 137 161 166 138 153 110 152 194 184 170 172 172 147 130 125 129 124 112 108 105 106 102 104 108 113 117 121 121 121 119 125 136 148 152 154 153 152 154 153 147 145 141 131 123 120 122 119 117 118 117 112 111 98 94 76 79 95 117 136 154 149 147 102 97 119 131 134 131 128 124 124 128 121 118 126 135 128 127 125 120 131 131 125 141 
187 186 169 176 182 177 133 142 132 149 155 149 154 145 98 183 179 176 176 184 167 151 132 124 123 109 105 102 108 103 103 102 100 105 106 109 116 120 129 144 150 154 154 160 158 159 154 152 146 129 128 123 122 122 118 118 116 110 107 99 86 80 78 90 112 132 150 156 159 147 109 110 130 130 124 134 122 120 127 121 114 118 137 137 125 123 123 122 127 128 126 138 
194 199 187 188 186 176 140 147 126 125 155 146 140 127 89 126 172 176 176 191 190 180 167 152 137 123 109 104 98 103 96 93 95 97 108 111 126 128 136 146 150 154 152 157 160 157 151 151 140 129 125 124 127 123 118 112 106 99 91 83 79 84 92 108 127 153 163 164 158 150 116 124 125 124 124 131 115 125 119 122 116 126 140 129 127 117 125 127 126 121 128 132 
191 190 190 183 186 171 140 136 126 124 137 132 133 110 99 85 148 168 176 187 196 193 190 184 177 164 145 133 124 117 121 120 117 124 128 129 136 138 139 141 142 145 144 150 149 152 146 141 133 126 120 120 115 112 104 101 89 88 81 80 82 98 104 125 149 164 177 173 161 147 123 125 126 123 121 125 121 119 118 116 121 133 133 129 123 123 123 126 126 121 126 130 
196 192 189 192 176 158 136 134 134 127 128 125 118 113 110 84 119 159 168 185 198 206 197 202 201 194 190 183 172 158 150 148 140 137 139 138 141 142 140 144 144 146 144 142 141 141 129 122 116 117 109 110 104 99 90 88 79 78 77 86 95 111 121 145 160 177 184 173 157 137 127 123 127 126 122 125 120 118 122 119 128 131 132 126 117 123 122 126 121 119 129 126 
189 193 194 187 164 150 147 147 139 127 125 124 112 113 111 134 140 138 154 179 193 203 202 202 206 205 198 196 193 184 174 171 163 153 149 145 146 141 140 137 142 142 140 134 127 116 107 100 96 98 96 91 83 83 73 75 71 69 83 98 111 128 143 155 172 183 180 171 153 125 125 123 127 124 124 120 124 122 120 127 132 128 127 123 122 125 125 122 123 122 128 113 
181 184 172 157 143 145 147 146 140 129 120 122 105 118 154 144 143 140 133 161 185 193 199 202 204 208 201 199 195 191 186 181 172 162 153 151 146 140 133 134 128 125 123 115 108 94 86 86 83 82 75 66 65 66 64 64 73 79 95 114 131 139 151 167 176 191 186 167 134 114 130 128 122 125 121 125 122 122 129 132 129 128 124 123 120 126 121 123 122 121 124 115 
157 163 155 142 144 144 147 140 138 131 117 112 104 162 171 140 147 151 114 139 168 184 191 196 203 203 205 201 191 190 192 186 178 169 159 151 149 142 125 122 119 115 110 102 90 74 74 70 72 66 62 55 57 55 60 69 82 93 115 130 146 149 165 169 197 200 194 153 118 123 123 131 120 127 121 127 119 129 134 129 126 129 124 123 121 128 122 120 122 120 118 116 
165 164 148 149 154 145 142 140 150 123 112 108 151 182 165 155 149 149 134 112 141 158 175 188 192 196 197 193 190 184 186 182 177 173 158 156 151 138 123 120 115 103 96 81 73 61 65 59 54 55 50 52 57 65 77 82 101 115 132 144 153 161 166 187 207 207 195 122 122 117 127 127 123 126 127 128 125 130 128 128 124 124 128 120 125 122 119 117 121 120 117 111 
161 146 157 148 160 148 143 140 147 120 99 138 189 175 167 166 151 143 144 116 112 135 148 171 181 182 183 183 182 177 180 176 167 169 163 153 148 139 123 115 102 96 85 67 59 59 50 59 50 51 56 62 71 83 90 103 121 137 142 155 159 163 182 202 204 211 187 112 121 125 126 128 126 128 125 129 127 126 124 126 125 121 125 125 121 124 115 121 117 119 114 109 
