P2
# Imagen
92 112
255
124 122 124 121 122 123 122 125 119 125 128 128 126 123 128 131 137 143 147 158 161 157 172 180 156 121 119 122 119 118 125 121 121 118 115 122 119 124 117 122 121 117 122 121 116 122 131 119 124 115 113 123 110 113 114 107 114 133 122 121 116 144 156 151 161 149 132 135 134 132 133 134 134 128 125 121 121 121 125 119 122 123 120 123 125 122 123 122 122 123 122 121 
120 124 125 121 126 123 121 125 122 125 132 127 127 131 132 135 144 150 161 164 170 172 185 163 138 125 117 125 118 118 124 122 125 124 117 123 121 123 124 122 124 120 125 123 123 120 142 128 128 129 117 119 117 117 113 111 111 109 115 112 106 103 113 126 130 161 169 153 148 133 133 134 133 135 129 123 124 121 125 122 121 124 122 123 125 122 120 124 123 121 124 123 
125 122 125 125 124 124 125 124 127 124 128 132 130 134 135 140 146 162 170 172 175 187 180 131 129 132 117 120 124 118 124 124 123 125 119 127 124 118 128 121 124 120 132 127 126 124 134 142 121 146 127 117 121 119 117 117 119 112 117 113 111 114 98 103 97 92 149 174 169 162 144 136 135 134 136 127 125 125 125 123 123 124 121 124 123 122 121 126 123 123 121 124 
123 125 125 128 126 126 122 127 128 132 136 135 133 139 144 152 160 173 174 177 178 177 146 128 128 136 120 121 123 119 122 130 119 130 124 123 125 123 126 125 129 123 129 141 127 129 123 136 127 135 139 125 121 122 119 126 127 127 121 117 112 123 115 109 106 98 100 109 138 172 172 154 150 137 134 129 133 129 122 124 122 120 120 125 126 124 120 125 123 122 123 124 
125 125 128 129 130 130 129 134 136 134 136 143 145 146 148 162 169 175 172 165 154 141 136 124 128 136 123 126 118 122 125 125 126 126 127 123 127 125 121 123 128 132 127 136 131 129 131 130 134 133 143 130 128 123 122 122 141 134 129 131 113 129 123 113 112 112 106 106 97 103 179 177 166 155 143 136 132 134 132 123 121 115 120 119 126 124 123 123 123 121 124 124 
122 124 126 127 127 127 131 138 139 145 151 154 155 156 169 169 173 167 151 137 131 128 133 129 125 125 121 127 119 122 127 128 124 126 129 123 130 124 121 126 125 135 124 131 125 133 139 127 144 138 150 135 130 121 130 123 124 148 129 129 119 135 132 123 114 116 117 116 110 92 103 167 177 165 166 152 132 131 135 125 125 117 115 122 125 126 122 122 122 123 120 124 
125 125 127 128 130 132 134 141 146 149 154 161 175 171 178 165 164 145 126 127 131 128 134 128 133 126 124 123 122 115 127 132 129 123 128 129 129 126 127 123 125 131 137 124 126 133 144 126 141 142 151 140 134 119 131 134 126 132 139 127 115 136 142 131 123 120 116 122 124 109 93 119 155 167 169 164 145 143 134 138 133 116 118 123 122 131 121 121 121 123 123 123 
123 127 125 129 134 138 143 142 143 154 164 172 172 172 178 172 147 120 120 132 132 130 132 128 135 133 131 127 120 127 120 133 134 129 124 133 129 127 120 129 125 124 139 135 123 135 140 124 139 142 151 143 138 131 127 140 141 134 130 133 126 125 150 134 132 122 120 115 125 121 110 113 112 120 162 167 158 150 143 141 127 123 123 124 118 126 122 123 122 121 123 124 
126 131 128 134 140 143 141 146 143 165 173 175 177 184 178 151 129 118 120 129 125 124 124 130 137 137 129 132 123 127 133 133 137 141 130 131 135 134 126 127 130 118 140 143 131 127 136 126 127 153 137 144 142 136 137 132 135 141 134 136 133 123 146 142 137 128 125 119 130 111 115 118 126 121 112 155 170 162 154 151 135 135 130 127 124 119 126 125 122 120 125 123 
128 130 135 142 143 142 146 153 152 164 171 184 191 182 155 120 127 125 125 125 121 120 119 127 137 134 133 134 128 127 139 135 135 135 132 128 135 139 133 124 128 127 134 142 136 123 132 129 118 147 134 136 138 133 138 132 128 132 132 130 135 124 133 149 138 137 125 120 126 119 106 113 127 136 107 108 138 167 161 159 145 142 134 130 129 124 127 127 122 125 124 124 
134 135 146 144 147 139 154 167 166 159 180 182 162 138 127 124 129 130 120 126 115 124 120 121 135 137 132 130 125 134 137 135 135 134 127 133 134 129 136 124 125 124 127 131 129 124 123 129 116 130 139 128 126 138 138 121 130 127 122 129 128 124 127 142 141 137 117 130 119 120 114 115 118 122 136 122 92 128 164 160 163 154 144 136 134 129 126 124 123 121 124 123 
136 142 144 146 143 151 168 166 163 172 167 149 133 135 130 131 124 126 122 126 118 122 124 120 129 140 132 125 120 135 137 131 124 133 123 135 131 120 127 126 129 122 123 124 124 123 110 126 113 120 138 131 129 125 145 118 127 129 121 122 133 124 123 129 148 133 117 135 125 110 119 116 115 113 148 131 98 98 153 163 160 156 154 150 139 130 132 128 125 122 124 123 
141 146 143 149 152 162 181 174 166 144 139 133 126 131 126 130 126 125 124 126 123 123 125 120 129 135 132 119 122 127 137 127 120 124 126 131 130 122 121 124 127 127 116 129 124 130 115 113 112 112 142 134 119 121 131 125 119 132 124 115 126 126 115 123 140 140 117 129 129 117 122 110 115 119 150 126 120 127 117 144 167 165 149 150 144 133 131 133 126 121 126 124 
145 143 146 150 162 173 180 159 138 119 127 133 132 124 128 129 125 127 120 132 125 122 124 127 132 129 129 119 118 130 126 120 109 119 117 127 126 122 120 118 120 128 117 126 120 133 120 108 117 110 131 140 118 122 120 126 116 120 126 112 120 124 112 115 127 138 126 122 132 120 126 115 126 139 132 132 125 131 131 119 120 146 158 157 145 132 131 134 133 124 122 122 
146 145 153 156 178 181 159 134 126 118 122 124 129 125 128 131 121 128 118 131 127 126 126 132 128 129 130 118 121 125 123 118 105 117 119 121 119 125 122 123 113 134 121 121 119 128 118 116 116 113 127 140 121 122 124 123 119 112 120 116 112 128 111 115 110 125 131 113 133 121 130 126 124 134 114 123 126 131 133 113 110 107 114 172 161 125 127 136 131 128 118 115 
141 144 150 162 172 148 122 129 123 118 120 128 119 126 133 128 125 128 117 125 127 125 130 130 123 116 128 116 122 129 117 116 116 123 129 132 124 136 143 143 139 142 134 133 146 139 139 134 126 124 134 143 147 140 143 139 130 129 122 136 131 124 124 119 114 121 126 105 134 115 124 124 127 128 116 110 122 130 120 119 103 115 84 113 170 143 111 123 127 128 127 121 
142 145 154 170 139 117 126 120 121 121 116 125 129 123 130 126 122 125 120 123 124 127 134 129 122 112 127 123 124 137 125 139 149 157 151 154 155 164 172 178 183 175 155 156 165 157 153 157 152 148 161 160 168 165 176 170 163 158 152 153 157 140 149 130 131 123 138 122 122 113 114 126 129 122 121 118 122 122 132 124 118 109 106 82 154 156 129 115 136 125 130 126 
140 147 167 158 120 121 121 116 126 121 122 117 130 120 121 120 115 122 123 130 127 125 139 129 127 129 138 139 143 156 160 164 184 192 182 189 197 194 201 205 214 210 181 187 199 182 192 189 182 178 185 195 200 193 215 207 197 193 186 190 194 180 183 169 165 148 151 140 121 116 118 123 128 124 121 121 124 129 133 121 121 108 111 79 130 174 145 109 133 136 129 127 
145 156 180 154 108 126 114 114 122 125 123 111 124 124 115 125 121 125 126 133 130 129 136 130 143 148 161 166 181 193 204 191 203 196 213 211 225 213 215 230 228 225 216 217 224 214 215 217 221 216 207 220 227 218 226 236 225 218 220 217 217 206 211 202 194 190 177 161 134 121 127 134 131 128 117 116 122 130 126 120 120 116 105 92 102 164 160 120 120 133 130 133 
152 165 175 147 109 122 120 117 124 124 113 116 120 121 123 117 130 129 130 131 137 139 134 139 146 158 176 179 194 214 228 214 222 202 212 209 215 214 209 227 232 230 229 223 225 230 226 231 233 229 230 223 242 231 235 247 245 224 241 235 228 205 220 226 205 199 183 176 149 136 139 136 134 137 128 116 119 125 120 125 123 116 113 102 98 144 153 130 124 112 131 129 
168 170 152 135 114 121 119 119 124 121 125 116 111 127 128 121 129 143 131 147 132 146 148 156 164 169 180 196 214 220 232 231 230 215 219 219 208 217 224 230 237 234 237 220 229 230 224 237 236 237 241 234 249 242 240 246 248 237 243 247 229 224 224 237 232 204 192 178 166 159 153 142 145 141 133 122 120 125 120 119 115 120 118 109 109 103 148 147 149 123 117 124 
173 166 122 124 124 118 120 119 124 116 122 120 115 127 133 129 137 147 138 150 151 157 158 177 173 176 190 210 216 226 235 234 238 239 230 232 218 214 239 239 243 239 240 237 238 240 228 242 238 244 249 243 249 251 245 248 247 249 253 245 242 240 232 243 243 232 197 188 180 170 156 149 146 141 139 129 125 130 121 118 122 109 117 107 110 84 125 151 156 147 114 131 
172 139 119 122 122 129 118 119 129 126 112 123 123 133 137 135 146 142 148 161 172 175 176 180 184 188 197 215 226 223 237 238 245 246 245 238 237 233 241 248 249 245 241 247 247 249 233 241 242 251 252 241 248 254 251 247 250 252 253 249 253 252 236 247 247 248 225 206 191 179 161 144 147 137 146 138 139 129 122 125 121 124 117 110 110 97 92 151 157 152 122 134 
151 127 119 123 122 132 126 119 125 122 120 126 134 135 146 130 143 147 157 170 179 180 172 179 188 193 205 224 234 227 239 242 251 244 247 244 239 242 250 249 244 247 247 244 251 251 240 238 241 245 248 244 242 252 251 246 247 254 251 250 251 255 241 245 248 242 241 226 199 187 169 153 139 133 144 144 139 135 128 126 126 123 127 122 113 117 86 129 163 156 143 122 
130 114 120 121 126 117 124 119 118 121 119 131 135 126 140 137 140 150 163 173 180 173 177 186 186 199 215 227 237 233 238 243 242 242 244 242 230 240 247 239 237 238 243 244 243 245 235 235 232 240 240 240 238 244 246 243 247 248 245 246 245 245 236 237 243 239 238 232 213 193 186 165 144 131 138 140 136 133 130 136 125 127 132 126 124 124 104 103 164 154 145 124 
112 104 123 121 112 116 123 114 121 120 117 136 127 120 132 138 145 151 165 173 168 176 177 184 188 205 215 223 228 231 232 230 232 230 231 232 220 229 237 232 225 227 229 229 234 229 227 226 224 223 235 227 229 236 237 238 238 242 239 236 237 232 232 225 233 230 230 226 222 211 193 176 161 146 133 133 132 131 129 137 135 116 129 132 123 110 111 94 141 153 144 120 
98 118 117 116 116 117 119 127 125 120 128 126 118 125 133 135 151 158 162 166 166 167 181 187 187 198 216 216 215 219 221 219 219 219 217 217 215 212 219 218 214 215 215 215 214 215 215 217 217 211 220 216 216 223 224 225 225 228 224 223 221 221 222 221 223 221 219 216 223 208 198 180 167 164 139 131 126 126 123 136 143 129 118 121 131 111 108 87 140 150 144 128 
109 113 117 115 115 127 122 122 120 124 124 122 118 126 127 132 157 158 156 168 162 170 182 192 189 191 201 204 203 208 204 205 209 206 204 202 200 200 199 198 202 201 202 206 201 202 201 203 204 198 203 205 204 206 210 210 210 208 213 209 206 210 206 208 213 209 206 205 209 203 199 187 173 168 157 135 130 122 121 130 140 142 124 129 125 129 110 91 112 161 146 127 
112 111 120 119 118 127 127 120 114 127 125 112 124 122 120 136 155 158 162 170 170 173 180 187 183 188 189 192 191 194 195 192 194 194 191 186 187 190 186 186 185 191 191 197 192 190 189 189 192 184 190 194 193 194 197 190 191 194 191 195 194 191 195 193 196 195 193 195 198 197 196 191 178 171 169 144 128 129 123 117 134 137 129 132 130 127 120 101 95 147 147 141 
109 117 111 120 115 122 124 116 114 123 120 112 120 118 123 136 157 160 158 174 173 174 180 181 176 178 183 179 186 182 187 183 178 179 180 173 177 176 172 175 169 176 177 182 179 179 177 178 178 178 177 184 181 181 184 176 174 182 178 181 176 177 178 178 182 178 180 187 185 189 185 184 182 173 177 157 134 128 131 114 122 129 128 127 130 125 113 114 99 139 138 152 
112 120 104 103 111 121 122 110 114 114 119 109 115 119 118 141 159 161 163 169 175 172 177 181 173 170 173 173 174 171 172 176 171 164 165 166 164 162 161 162 156 160 162 167 172 161 167 167 164 165 171 178 174 173 173 165 167 173 172 172 166 168 171 168 171 172 169 176 181 178 182 178 186 172 179 173 147 132 121 126 115 121 129 122 120 137 110 113 98 138 154 138 
109 110 102 98 111 122 115 108 112 116 111 113 115 111 123 140 163 166 161 166 173 168 177 179 172 166 165 166 164 164 166 174 166 159 156 160 159 154 152 152 151 149 152 157 160 154 155 157 154 153 156 162 162 160 162 163 160 161 164 163 161 164 167 162 165 164 166 172 174 173 176 180 185 179 178 182 159 141 122 122 117 118 126 125 113 129 127 109 97 135 157 141 
112 106 97 101 117 116 111 109 108 119 107 112 109 108 124 142 165 159 160 159 168 167 173 173 167 162 163 161 162 157 161 163 162 156 155 153 153 153 144 145 147 148 149 150 151 149 147 151 149 148 149 150 154 155 156 154 157 155 156 155 158 160 159 158 158 162 156 164 170 167 169 178 180 183 176 181 171 156 130 118 120 113 115 130 112 117 131 117 99 130 156 141 
114 99 107 110 115 113 117 101 107 116 101 108 106 110 124 147 157 153 160 160 167 167 166 167 166 163 165 161 155 157 156 157 155 154 153 148 147 148 143 142 145 144 145 147 149 149 146 147 150 147 146 147 149 150 151 152 153 150 153 153 155 157 155 152 153 159 152 158 164 166 167 171 178 177 180 177 176 163 141 117 117 116 109 123 123 114 112 118 100 128 147 148 
108 103 105 113 111 114 108 102 109 111 96 101 109 106 129 151 151 152 162 160 164 166 163 162 165 161 159 156 151 152 151 151 144 149 150 145 146 144 141 139 141 140 141 144 144 143 143 144 146 143 143 143 146 146 147 150 150 146 149 151 151 155 152 150 153 153 152 153 156 163 164 163 168 175 172 176 177 165 148 114 123 105 111 115 122 119 108 117 104 118 137 147 
106 109 109 110 109 117 103 105 107 106 96 90 103 108 121 152 150 147 161 161 159 160 160 161 158 157 152 152 146 145 146 144 143 141 144 143 141 140 138 135 138 138 138 138 141 141 140 142 145 141 139 140 141 143 143 147 145 145 145 145 150 151 151 151 153 153 152 151 156 157 159 159 163 166 173 170 173 169 150 127 118 109 108 114 113 125 109 111 105 103 129 142 
114 106 116 106 110 111 106 106 108 103 89 96 102 108 115 141 147 149 160 159 160 155 159 157 151 145 147 146 140 144 143 145 140 137 137 141 136 138 137 134 136 136 137 138 139 140 140 138 143 141 139 138 136 139 140 142 142 143 143 142 149 150 148 149 151 151 153 149 153 153 155 155 158 161 170 165 165 165 156 130 120 110 110 115 112 116 121 113 104 113 111 140 
120 109 110 106 112 107 105 103 106 98 88 95 100 110 122 134 137 145 155 157 157 151 152 148 144 144 143 142 141 139 141 141 141 137 138 136 136 136 136 133 135 137 135 134 138 141 139 137 137 140 137 136 134 137 137 138 140 142 142 142 145 149 148 150 148 152 153 150 153 152 153 158 156 159 162 162 158 156 156 138 113 114 113 114 113 116 118 113 105 102 124 116 
115 116 106 106 118 102 106 108 104 93 84 96 97 105 119 144 131 144 156 155 156 149 146 143 141 144 143 138 136 136 137 137 137 136 138 135 134 133 134 135 135 136 134 133 137 137 138 137 137 138 136 136 136 135 137 137 138 141 139 141 144 148 149 148 151 152 150 150 153 155 150 157 158 157 161 156 156 151 145 142 115 108 115 113 115 123 121 113 108 98 116 123 
111 114 109 108 115 102 110 108 99 91 92 96 97 94 121 136 136 141 145 154 156 151 146 142 135 139 136 135 133 133 134 136 134 136 136 135 133 133 133 133 130 136 133 132 134 137 135 137 137 136 137 136 134 135 138 137 140 140 140 140 141 145 148 149 151 149 155 153 152 153 154 157 154 160 157 156 151 148 143 130 114 109 111 119 112 127 122 120 104 101 100 137 
106 115 107 110 117 102 108 109 100 90 97 91 89 101 120 136 139 149 140 142 148 150 139 138 127 130 122 128 127 127 129 128 133 132 133 133 131 131 133 131 132 133 134 132 135 135 136 138 136 138 136 135 137 135 136 136 137 141 140 138 139 141 143 141 145 148 150 148 152 144 148 156 156 152 156 150 151 141 144 126 108 102 115 118 113 121 125 123 105 106 92 126 
103 113 111 110 120 99 109 103 99 93 93 94 82 106 128 133 141 145 147 140 144 138 122 123 115 110 106 115 114 113 120 118 118 120 123 123 125 127 124 129 130 132 133 133 135 135 136 136 138 135 137 135 135 132 137 136 134 135 137 131 130 131 130 127 130 141 143 140 144 140 139 150 150 154 152 148 149 138 141 122 105 98 113 117 118 119 121 124 113 102 100 113 
109 110 113 113 117 103 113 103 100 94 95 91 85 112 129 137 141 141 142 145 127 100 83 82 74 66 66 64 60 64 64 60 63 67 73 94 92 104 108 120 124 131 132 134 135 133 136 137 136 136 137 133 133 132 130 131 128 114 112 100 89 81 73 80 78 88 101 105 113 117 121 132 137 143 150 148 145 137 136 118 102 99 109 118 119 119 123 118 114 104 99 104 
106 111 113 108 116 105 108 107 103 100 93 95 92 122 132 138 139 140 143 124 87 56 55 47 40 35 32 33 30 25 24 28 27 29 29 44 61 66 78 93 121 127 132 134 132 134 136 137 137 138 133 136 133 131 128 118 98 77 68 58 53 48 43 50 47 48 54 55 69 79 76 88 105 113 140 149 144 138 132 113 95 105 107 113 121 120 123 123 111 105 101 101 
98 115 113 113 113 110 108 109 103 101 97 86 107 122 144 139 138 141 130 82 50 40 45 29 25 28 26 30 22 22 21 22 20 22 24 33 42 56 60 66 106 124 129 130 134 133 136 137 138 136 133 134 127 135 131 95 68 56 49 44 42 37 38 39 36 40 42 35 47 50 57 51 72 80 110 141 147 136 138 105 96 101 110 115 117 125 120 122 114 104 98 109 
101 111 111 114 118 104 118 115 108 103 95 97 109 134 144 145 141 124 77 53 54 54 56 52 48 57 63 63 57 51 41 43 36 39 38 48 54 58 61 60 82 118 126 131 129 135 136 138 138 136 131 132 127 132 122 77 71 55 51 45 40 33 37 39 43 44 51 49 51 55 58 56 67 64 61 114 145 144 133 113 98 96 112 118 117 126 120 115 112 112 95 104 
108 110 114 114 123 105 124 120 114 104 97 103 121 149 146 151 131 80 58 78 100 104 109 108 105 107 105 106 102 97 88 73 61 60 68 65 71 68 75 68 85 114 123 129 130 134 136 137 136 135 130 130 126 123 100 74 77 68 65 62 58 58 58 68 79 88 95 98 101 105 108 105 95 90 64 57 129 148 143 112 99 101 108 124 122 122 123 115 108 112 106 104 
108 113 117 116 116 112 128 122 114 106 101 107 145 163 154 149 93 67 97 128 139 138 130 130 131 127 128 123 122 122 119 107 101 91 87 91 89 83 82 82 85 106 118 125 131 133 135 136 135 136 132 128 124 114 91 78 82 84 86 86 87 88 99 114 124 127 135 136 143 145 146 140 143 130 110 53 66 144 153 122 99 95 110 125 124 123 123 114 108 115 100 116 
111 109 119 116 118 115 131 126 109 105 104 129 166 171 166 125 76 96 132 140 144 134 126 126 118 110 105 102 100 99 99 93 97 101 98 98 97 93 86 83 78 96 113 125 130 132 136 135 136 135 131 125 118 97 84 77 84 92 98 101 100 106 114 120 124 128 135 139 143 144 148 146 142 147 150 116 47 105 160 141 101 96 110 126 128 122 121 114 110 109 107 119 
114 110 111 123 118 122 134 118 114 107 105 151 178 179 160 100 91 128 136 137 131 121 111 102 87 86 87 87 87 87 79 72 72 70 68 88 94 98 94 87 73 76 105 120 131 130 135 135 133 133 132 123 107 83 71 77 90 94 92 91 84 87 92 93 97 106 113 120 131 134 136 139 141 144 149 156 90 67 159 154 112 89 116 126 125 126 118 113 112 104 115 134 
109 113 112 119 118 132 128 120 117 101 124 163 185 184 145 105 114 139 133 124 120 107 81 73 73 60 50 41 40 42 43 38 55 64 70 59 72 88 94 98 85 73 85 116 127 133 132 135 133 132 130 112 91 73 75 79 87 77 71 68 71 79 82 87 81 90 99 105 100 103 119 129 136 136 143 152 136 66 136 167 131 86 111 130 122 126 121 111 108 101 120 140 
107 109 112 121 122 132 135 122 117 104 133 175 182 182 134 119 136 144 129 120 107 90 68 63 44 35 39 23 8 14 14 0 33 49 57 80 70 64 85 99 94 84 80 102 124 130 134 133 136 132 124 105 78 77 88 80 70 62 65 78 72 58 53 56 50 59 73 82 99 109 91 113 134 135 137 147 154 87 114 173 152 88 106 128 126 126 121 110 108 99 116 141 
111 109 113 117 122 139 136 122 117 112 148 184 189 169 134 136 149 138 125 114 94 88 63 36 37 59 75 29 0 38 55 8 9 88 84 53 87 72 68 98 106 99 85 98 117 131 136 135 135 135 126 93 74 88 95 77 64 77 80 73 58 33 36 25 18 18 50 51 50 81 109 101 125 142 142 148 159 122 108 177 160 98 105 126 125 126 122 109 107 92 117 136 
109 112 112 117 126 138 132 124 116 114 164 189 194 171 147 147 148 140 124 111 108 95 56 27 76 120 118 47 42 21 96 82 0 80 156 105 61 85 91 108 124 111 102 104 121 136 139 140 139 139 126 93 82 99 106 92 83 74 83 114 72 27 50 88 38 20 55 93 62 61 70 114 123 144 155 151 163 146 127 174 166 109 106 124 126 123 124 109 101 97 107 132 
110 112 108 117 135 136 123 121 112 122 165 193 195 178 153 153 153 144 137 131 122 89 58 55 108 154 151 72 46 46 40 72 25 91 175 161 99 74 105 137 143 126 117 116 134 145 149 145 148 141 128 101 89 111 122 108 71 76 127 155 65 39 37 148 80 18 52 133 122 91 56 89 141 148 165 167 169 163 142 173 174 123 103 124 127 121 120 116 100 91 105 135 
105 112 109 124 134 131 113 121 109 121 176 194 195 175 160 162 167 155 150 149 125 76 80 103 123 165 184 103 68 71 69 71 51 125 175 162 142 131 140 159 155 140 136 136 144 159 160 158 156 155 136 111 104 125 141 133 100 109 150 164 74 39 46 53 67 45 79 163 157 126 84 76 135 159 170 179 181 172 162 177 177 126 110 119 127 123 116 118 107 83 121 143 
106 111 110 129 132 122 111 119 103 129 179 189 181 169 167 175 178 173 150 149 142 112 87 107 120 139 170 139 115 120 128 132 123 147 165 158 147 156 169 176 163 145 147 146 154 161 170 166 164 165 141 124 119 127 153 154 148 134 138 154 104 76 78 86 84 72 122 175 165 140 108 93 126 170 170 176 192 183 168 178 179 133 109 121 120 125 114 116 106 90 114 142 
106 113 110 131 131 115 118 112 104 136 183 180 175 171 181 184 190 181 162 155 165 158 132 136 130 124 132 129 139 146 152 160 160 161 164 161 163 165 179 183 165 147 158 149 153 163 172 170 171 170 146 136 131 131 157 160 161 163 160 165 150 144 144 156 146 136 147 158 139 136 115 118 145 164 173 180 192 191 174 181 191 143 110 121 120 124 118 111 105 89 110 145 
107 111 113 131 124 113 123 119 112 144 185 179 174 183 189 191 188 182 171 167 174 171 158 155 152 150 153 152 154 157 155 165 165 166 168 180 185 194 194 191 172 161 162 155 155 167 173 173 175 176 151 138 140 135 152 170 163 162 180 184 177 162 156 158 159 148 147 156 149 141 136 139 163 176 177 190 194 190 177 177 195 162 115 112 122 122 122 111 105 96 98 148 
109 111 116 132 117 117 121 125 110 145 176 180 176 186 189 188 190 185 178 167 174 165 169 160 156 159 158 162 159 161 167 174 182 189 195 204 208 213 210 192 177 170 172 160 160 165 173 175 177 173 152 136 139 138 148 173 177 161 171 185 196 193 184 172 174 170 168 176 167 157 150 154 166 179 189 200 201 193 181 168 183 170 124 113 120 119 122 110 105 105 93 135 
109 113 119 130 118 115 122 125 106 149 174 172 174 180 184 189 189 186 181 183 177 177 182 190 185 185 179 186 186 187 190 191 195 209 206 212 213 214 208 191 178 178 172 158 161 170 176 181 177 178 153 138 139 138 146 167 176 177 174 178 184 193 198 195 186 174 174 177 179 173 164 174 176 181 195 207 213 197 181 180 176 166 134 114 116 118 125 110 105 106 101 104 
113 113 124 128 115 117 118 123 101 152 165 166 163 175 182 185 187 189 185 189 186 186 201 216 210 210 199 201 209 205 197 203 209 204 206 207 209 204 201 187 183 179 169 158 168 172 183 180 180 179 159 140 146 145 140 159 170 175 181 187 187 186 182 203 203 201 186 187 194 200 184 181 190 190 202 208 221 210 191 183 175 165 134 118 114 115 125 117 108 103 103 93 
112 118 125 124 117 123 106 121 102 143 158 159 159 170 178 181 188 191 195 195 191 193 213 226 219 210 212 217 223 214 212 204 209 203 203 202 203 203 199 193 184 170 164 156 169 176 182 182 183 181 168 146 144 149 151 162 171 173 189 200 206 209 211 209 211 207 194 195 208 220 215 200 204 202 202 211 223 215 198 184 184 160 131 121 116 118 118 118 111 107 105 85 
114 109 123 125 120 118 101 122 95 134 153 155 156 165 168 175 181 192 190 194 186 195 207 223 213 211 208 225 221 204 212 211 200 195 197 204 209 200 194 200 186 162 155 159 171 178 180 180 182 182 180 156 142 146 149 161 173 172 184 204 214 216 226 222 222 208 201 196 209 225 229 222 209 210 202 206 216 219 199 187 182 166 131 122 116 116 118 113 114 107 110 99 
118 109 117 132 120 108 104 124 85 128 147 147 148 152 154 161 172 183 182 182 182 186 199 207 205 203 195 207 211 194 213 215 197 178 196 196 201 194 191 195 180 154 146 156 174 178 180 178 182 179 184 165 138 137 152 163 169 172 182 204 216 222 220 220 217 208 204 210 211 233 239 234 215 210 205 212 209 206 195 186 181 159 128 126 114 111 115 109 109 100 108 108 
121 106 116 140 112 105 109 120 86 118 141 139 138 141 149 144 153 165 166 169 176 177 190 195 190 187 188 191 190 188 207 212 199 186 195 199 197 181 173 182 163 139 143 157 164 173 175 177 174 179 183 166 128 121 143 158 165 162 178 194 204 213 208 210 214 210 208 214 226 232 231 223 203 198 203 212 212 198 185 176 172 151 122 116 118 109 106 107 106 98 104 108 
115 107 129 140 111 103 117 116 84 111 128 137 133 139 143 143 144 152 159 164 172 173 177 185 177 177 185 185 180 181 198 197 191 184 188 191 186 170 154 154 156 133 137 154 165 166 171 174 174 177 181 161 129 121 131 153 160 160 170 190 193 204 211 209 209 195 203 209 217 224 224 210 192 189 197 201 203 192 176 168 163 144 120 111 115 112 110 104 100 103 98 102 
114 118 127 135 111 108 113 118 80 96 124 128 128 132 135 138 140 142 148 157 165 168 173 176 169 166 173 173 176 179 179 184 178 175 179 179 178 165 145 150 147 136 141 154 163 165 161 163 165 167 171 156 133 129 128 133 152 156 161 174 186 188 202 204 204 188 195 201 207 210 208 197 189 189 186 190 189 180 168 161 157 132 112 115 114 114 110 105 98 110 98 95 
120 124 123 132 114 113 113 115 85 89 116 122 124 128 129 131 133 139 139 150 152 156 165 169 167 167 169 168 171 174 177 177 170 167 164 169 170 147 142 146 133 126 130 151 157 156 155 151 153 157 158 146 130 119 128 124 148 158 158 164 178 181 193 196 195 190 190 195 196 200 193 188 181 184 182 189 183 171 158 152 148 121 109 125 119 128 106 106 96 110 100 98 
119 132 115 129 126 111 118 111 97 82 108 119 115 121 125 121 129 133 136 139 145 150 155 159 157 160 161 163 165 169 173 172 171 168 164 159 161 126 127 131 114 102 109 122 136 139 138 142 143 146 133 115 101 101 116 116 135 152 155 163 174 170 179 182 184 183 184 186 190 187 188 185 179 182 179 182 173 161 151 145 140 103 106 131 136 138 99 106 103 110 103 92 
116 132 119 133 143 120 112 119 114 79 104 108 112 117 120 118 123 130 129 133 139 145 152 150 149 153 155 157 159 161 162 163 159 160 161 157 151 114 110 102 73 48 58 78 100 107 112 111 116 118 97 77 66 74 95 107 132 147 153 155 168 170 176 179 181 175 174 179 181 181 179 176 175 172 171 170 160 156 139 142 127 92 105 132 168 135 95 104 110 113 107 92 
125 125 122 138 157 133 110 119 129 84 93 112 106 112 115 114 119 124 126 128 135 140 145 143 143 146 145 147 149 148 145 149 144 148 144 146 137 106 89 80 51 31 15 33 69 77 77 77 78 77 56 34 39 59 78 99 128 142 144 150 158 165 168 171 171 171 166 170 170 169 168 167 168 163 165 164 155 145 137 130 121 89 113 138 177 129 91 109 110 113 105 97 
126 127 113 131 175 136 113 115 134 90 91 111 101 108 110 110 114 118 122 121 128 133 135 136 135 133 137 137 136 138 137 136 135 140 135 137 131 114 91 69 52 58 47 50 59 65 56 54 52 52 49 48 64 69 70 97 128 137 140 148 154 159 163 162 163 164 163 163 162 163 159 159 157 156 157 158 146 139 124 126 119 94 116 153 179 123 93 113 115 110 106 99 
127 134 113 107 188 142 127 116 129 103 88 111 103 110 107 109 111 118 119 121 122 130 128 127 128 127 129 128 130 127 131 128 128 129 130 130 132 122 116 84 54 63 70 72 69 66 54 53 62 74 80 78 67 67 79 113 127 133 137 142 147 154 157 154 153 152 153 155 152 153 152 152 151 149 149 150 139 130 120 119 113 110 120 170 161 116 108 110 114 114 105 101 
137 135 115 94 173 158 138 129 117 114 84 110 102 107 111 105 109 116 117 118 125 126 123 124 123 122 124 126 125 122 123 123 124 126 126 126 128 129 129 116 81 71 79 80 79 68 59 62 78 86 83 79 77 91 106 120 127 128 134 141 142 150 151 148 146 148 146 144 146 143 148 146 143 144 147 140 136 120 119 114 115 112 130 192 136 110 126 111 114 110 106 103 
139 133 118 95 115 158 154 141 128 112 94 107 104 106 108 107 107 112 114 118 123 123 120 118 118 120 120 120 122 119 118 117 121 124 125 125 127 129 130 128 116 107 101 103 98 87 77 79 95 102 92 96 117 117 120 119 121 120 126 133 136 140 146 141 144 141 140 140 140 138 140 137 140 141 143 133 131 114 114 110 114 112 141 200 148 103 138 116 110 115 104 106 
141 127 109 101 98 127 156 144 140 120 94 110 104 105 106 105 108 114 113 118 122 121 119 119 116 119 117 119 120 120 119 116 122 127 128 126 128 131 128 128 127 124 121 118 111 103 96 98 105 110 109 113 126 125 124 120 118 120 119 126 134 140 141 139 141 142 137 137 138 139 135 136 136 138 139 129 123 110 111 106 119 125 160 202 134 105 136 126 109 111 109 108 
137 129 114 106 99 135 133 142 125 125 93 106 107 106 108 108 104 110 115 118 122 120 118 118 118 117 116 117 117 119 118 119 124 131 132 131 131 131 130 131 130 131 130 130 122 119 117 114 116 119 119 123 126 130 124 124 118 117 118 123 131 137 141 140 142 144 138 138 139 137 133 135 133 134 133 124 118 111 103 113 138 147 173 177 114 124 132 137 108 111 110 107 
133 125 124 109 85 132 131 144 118 121 97 109 108 107 110 108 107 110 116 122 120 118 117 115 114 114 114 118 117 118 121 125 128 134 132 134 132 133 135 132 135 137 136 137 133 131 131 120 120 123 125 127 129 130 129 126 120 117 120 123 130 137 141 140 139 145 138 136 137 136 133 133 132 129 128 119 118 112 98 132 156 156 174 159 115 139 135 139 120 106 108 110 
121 127 132 117 95 108 140 150 131 121 113 109 113 108 110 109 111 109 112 121 116 114 118 115 113 113 112 116 118 119 127 129 129 135 134 138 134 133 134 134 139 140 141 147 140 140 136 127 122 129 126 131 130 133 130 127 121 121 123 125 124 136 138 136 135 141 139 135 139 135 128 128 134 127 124 121 118 114 98 146 159 156 175 156 112 138 140 133 130 114 107 106 
117 123 131 127 122 88 133 163 150 130 121 106 114 113 112 112 112 107 114 116 114 117 114 118 114 112 116 116 117 125 131 129 128 132 131 140 139 132 134 137 143 144 144 146 148 142 142 134 130 134 133 131 134 134 130 128 124 123 119 126 119 124 137 136 137 137 137 138 137 133 128 127 130 123 123 117 114 107 107 145 151 173 190 137 116 135 147 127 131 124 114 107 
116 124 129 124 132 107 105 163 168 138 129 107 114 115 115 116 114 113 112 117 113 114 119 117 115 113 119 121 118 128 127 124 120 130 135 141 142 134 136 142 144 144 143 146 147 142 140 147 138 138 139 135 138 134 133 128 126 123 117 121 122 119 129 138 142 139 138 136 139 134 131 126 127 124 125 118 115 109 116 162 167 198 179 114 125 132 147 126 131 122 123 113 
119 124 123 124 126 127 107 117 165 148 131 114 117 116 119 120 115 115 113 116 116 113 120 121 113 116 119 119 121 121 118 113 117 127 136 141 145 138 137 139 133 128 126 135 141 138 140 148 143 138 138 133 139 137 131 131 126 120 117 115 119 121 118 133 145 141 140 137 139 134 128 128 124 126 129 118 118 114 126 185 186 210 139 113 126 130 139 130 131 127 128 118 
120 122 124 121 125 126 119 101 115 137 112 109 121 120 123 123 117 118 114 112 118 119 122 122 120 122 120 124 117 111 110 104 111 118 117 125 124 124 122 120 110 103 101 109 113 121 128 130 127 123 122 119 122 129 123 125 124 119 116 111 110 120 111 120 144 150 142 144 141 137 130 125 125 127 131 121 133 125 142 185 193 173 112 122 126 130 124 137 125 133 126 122 
117 116 124 122 123 128 118 108 98 108 83 85 133 125 130 123 125 123 118 118 115 121 131 125 133 132 128 130 111 100 95 84 86 88 90 92 93 94 100 104 95 94 98 97 96 97 111 113 114 115 107 98 93 103 104 107 111 111 116 104 101 115 114 109 143 151 146 148 142 141 131 125 128 133 132 133 144 142 146 168 162 117 111 125 129 124 124 130 124 133 129 120 
121 118 119 120 121 128 121 110 105 106 79 72 129 129 128 131 128 126 124 123 121 124 134 135 140 140 140 133 106 103 104 100 95 78 70 78 86 80 86 87 74 74 86 92 92 90 98 101 100 96 79 70 78 85 86 97 91 88 86 81 89 108 114 109 141 153 149 149 144 139 134 129 134 141 146 144 151 161 117 102 116 113 119 120 130 121 129 127 125 130 128 116 
118 123 116 120 121 126 122 112 106 106 88 61 117 130 134 131 130 131 129 129 127 129 141 146 150 151 151 142 119 133 140 146 157 139 113 106 114 120 127 123 114 102 104 100 101 98 94 99 104 104 91 80 90 85 79 95 92 81 92 100 102 114 116 117 143 158 156 153 144 138 134 135 143 147 152 150 159 164 92 92 117 116 118 120 127 125 121 130 123 130 130 126 
116 118 120 119 123 121 123 116 110 106 93 61 93 136 133 132 132 130 133 128 129 134 140 153 154 156 157 145 138 145 154 154 157 158 155 146 143 139 146 148 152 157 156 156 144 137 132 137 141 155 152 141 131 125 119 116 112 128 143 150 142 140 135 131 154 159 161 153 148 140 134 141 149 148 157 154 164 152 84 102 122 117 119 121 125 125 124 124 124 127 130 135 
115 116 117 122 123 118 123 119 114 105 97 69 67 137 130 133 133 131 135 131 131 138 140 148 158 156 153 149 145 156 157 152 151 153 150 151 151 148 148 146 147 158 159 154 154 147 150 149 155 161 161 151 140 139 142 145 136 145 150 153 156 157 152 142 154 161 158 155 147 144 137 147 153 154 157 157 174 130 80 114 122 119 123 119 126 120 123 125 121 123 130 138 
115 113 123 119 123 118 120 120 114 107 97 78 55 114 133 129 133 134 136 133 132 138 142 142 151 152 156 147 153 153 153 151 145 149 150 151 150 151 150 151 149 146 146 142 139 142 138 138 146 145 144 147 147 150 150 150 146 147 152 160 165 165 154 148 155 156 157 156 147 145 141 147 155 156 153 166 171 109 92 118 117 121 122 120 125 122 122 123 118 123 124 137 
115 117 119 118 122 116 119 123 117 103 103 82 66 77 128 131 128 133 137 133 134 133 141 138 146 150 153 153 154 156 152 148 145 140 145 148 150 149 147 149 146 140 134 141 139 143 140 139 142 143 140 146 151 149 151 152 147 149 156 164 169 159 151 148 150 155 154 148 145 146 145 152 154 155 156 165 157 88 99 122 116 122 123 120 121 123 117 123 120 126 115 136 
116 119 119 119 117 120 119 125 115 106 103 84 75 51 117 127 127 131 131 134 134 131 138 138 145 151 154 155 152 156 151 143 146 142 140 138 144 145 144 146 144 140 136 136 138 138 136 135 136 136 140 139 144 149 148 147 144 152 160 163 165 160 152 152 151 154 152 146 145 145 147 152 151 155 155 162 129 86 112 116 118 124 122 121 124 123 118 120 124 119 118 128 
116 119 118 117 120 113 123 122 114 110 107 84 80 54 70 131 126 126 127 131 129 131 138 139 148 152 153 155 153 157 155 147 147 153 145 140 138 139 140 142 140 140 141 137 138 139 135 134 133 135 134 133 135 139 141 138 147 158 165 163 162 161 155 151 152 153 150 148 148 146 148 148 153 152 156 151 95 91 119 115 118 124 120 123 122 129 115 121 120 121 120 116 
119 119 117 118 119 119 124 121 110 115 105 97 82 72 44 107 121 122 123 129 127 131 134 141 148 151 156 156 155 154 156 163 163 164 158 151 150 151 146 147 145 145 142 138 136 141 138 136 135 134 132 129 133 136 145 154 158 167 172 169 164 163 161 158 160 156 147 147 150 144 148 146 146 149 157 114 85 103 118 113 123 123 118 122 120 125 122 122 119 126 117 119 
114 120 115 118 115 122 121 117 105 126 109 100 91 72 51 57 114 117 116 128 129 130 136 136 143 145 159 157 155 152 158 167 174 179 176 169 161 160 166 163 161 158 157 153 148 153 148 149 149 145 147 144 149 155 163 175 174 170 178 169 172 170 166 163 159 152 144 143 145 143 145 136 147 152 126 86 94 110 116 113 122 124 119 119 120 126 122 120 116 123 120 114 
113 119 115 118 122 120 118 108 108 125 114 106 97 81 61 41 96 107 113 117 127 133 130 141 140 146 152 159 163 163 163 162 165 171 174 177 173 172 179 180 181 181 180 173 166 171 169 165 170 168 166 172 172 177 177 182 181 173 177 167 178 175 164 154 148 143 141 142 144 147 139 134 141 131 86 87 104 112 116 118 123 124 120 116 123 127 123 119 119 122 121 118 
117 116 123 125 118 120 116 105 111 127 122 111 102 88 67 50 101 103 106 110 117 124 124 134 139 143 146 150 156 162 169 165 167 167 170 169 175 174 181 186 186 187 189 187 188 190 190 181 185 181 177 184 180 184 180 181 177 167 174 174 170 167 153 144 144 141 141 141 145 141 133 133 130 100 78 98 112 112 118 116 123 121 120 116 122 125 121 121 118 120 123 119 
119 119 132 125 122 121 116 107 116 125 130 111 104 97 71 65 104 113 101 103 106 114 117 121 129 137 141 143 150 151 157 163 168 165 167 170 177 177 179 177 175 177 182 181 185 196 195 193 192 196 192 192 188 188 181 182 175 170 174 168 166 159 149 140 139 138 138 140 142 133 127 128 95 83 93 101 117 116 117 118 122 120 117 119 123 128 127 120 120 122 121 119 
124 135 124 126 120 117 111 109 118 129 129 113 108 105 76 68 114 113 112 95 97 104 111 112 117 127 129 134 139 146 147 149 154 155 155 166 171 172 167 169 171 171 178 175 175 185 190 199 202 203 198 197 191 190 187 184 173 168 167 168 166 156 143 136 134 134 131 136 128 125 113 104 85 101 99 108 118 118 118 119 120 119 119 118 126 127 127 124 121 123 123 120 
129 130 126 118 117 116 106 115 124 131 124 112 112 107 82 73 120 114 115 106 91 89 101 103 110 115 122 124 130 136 143 145 148 147 156 163 166 166 164 165 168 171 179 177 180 182 186 189 193 190 190 192 188 187 180 177 168 162 160 162 153 142 133 130 129 131 124 127 112 106 88 100 101 112 108 113 122 118 121 121 120 122 124 117 127 128 129 126 123 126 123 125 
133 129 121 115 111 112 110 123 132 131 121 114 118 107 81 81 120 121 113 113 103 93 84 91 99 101 111 115 122 129 141 145 147 148 147 156 161 165 165 164 166 168 170 174 174 178 182 180 180 182 178 183 182 180 180 171 161 155 153 148 138 131 125 126 126 122 118 104 97 80 89 107 116 118 122 119 124 121 123 121 124 120 125 118 125 130 128 127 128 124 125 124 
135 121 114 111 112 107 117 126 137 128 115 114 121 110 79 89 123 123 115 120 108 103 85 85 86 93 94 105 110 117 130 136 144 148 147 151 155 159 162 166 164 165 166 170 171 173 172 177 183 179 178 177 171 172 171 158 154 147 145 137 130 119 120 122 116 106 98 96 87 76 110 120 123 130 126 121 119 127 119 128 123 125 123 118 124 135 126 124 129 128 126 123 
124 113 117 102 110 114 125 129 141 121 113 112 122 109 84 87 128 120 121 121 112 111 101 91 79 82 84 89 97 101 114 120 134 139 144 151 152 154 158 162 167 169 168 168 169 168 170 174 177 176 172 166 163 156 159 149 144 139 135 121 117 114 114 105 96 91 94 102 92 76 121 125 135 137 130 121 120 131 127 127 130 126 123 122 128 137 131 123 131 132 125 124 
114 120 115 108 112 120 135 133 137 123 113 118 120 107 89 88 133 123 124 121 117 118 102 104 89 83 75 78 85 86 94 104 117 128 135 140 143 146 152 153 161 165 165 167 163 166 166 167 171 166 165 162 158 150 146 139 133 126 120 107 105 104 100 86 88 93 101 110 103 80 126 132 145 138 130 124 122 133 129 132 135 129 122 122 131 136 133 125 140 130 129 127 
119 118 117 111 115 133 142 138 139 119 117 118 120 106 88 98 129 124 123 123 115 114 109 101 99 88 81 76 74 77 79 84 97 103 113 123 125 129 137 141 146 149 152 155 156 159 159 159 160 156 157 153 145 139 133 125 119 111 99 95 93 85 85 82 90 99 110 129 107 93 120 145 145 135 130 126 125 133 132 134 141 129 118 128 132 133 135 132 143 137 128 130 
122 120 116 112 126 136 139 142 132 123 123 120 113 109 86 98 131 119 122 122 120 116 111 102 97 100 87 79 75 73 71 72 71 80 89 96 99 107 111 123 123 126 130 135 135 140 145 143 145 142 140 134 124 120 110 106 101 87 88 82 83 82 84 85 98 106 125 137 119 99 120 145 142 138 133 133 131 140 137 147 140 133 118 138 137 130 136 131 144 130 136 136 
124 120 115 117 136 137 144 140 131 125 125 117 111 105 84 104 133 123 116 122 118 118 111 107 102 100 90 83 76 71 71 67 61 68 69 71 75 82 84 97 100 103 108 107 114 113 121 120 122 116 118 107 104 94 89 86 82 71 73 81 83 84 89 92 106 120 136 150 122 110 117 144 143 144 136 141 139 145 141 152 137 130 120 140 138 129 135 127 145 128 140 133 
125 121 117 122 142 139 147 134 132 132 128 113 105 102 81 101 131 122 122 119 119 119 117 108 108 97 100 92 83 78 70 68 64 56 57 59 58 55 58 62 68 72 78 74 80 82 88 87 86 86 81 76 74 67 70 67 62 70 78 85 83 89 91 107 116 134 153 152 122 112 120 142 149 146 147 146 138 144 148 144 135 126 126 141 137 130 133 123 135 129 144 134 
127 124 116 130 136 137 144 127 141 131 125 108 104 97 75 96 134 119 120 124 117 114 121 114 105 104 102 95 89 85 79 74 68 63 59 52 51 47 50 49 48 49 52 53 53 57 62 59 57 59 58 57 55 55 60 59 66 70 82 88 89 92 102 113 131 149 163 158 115 114 119 140 146 144 149 149 136 147 141 131 131 123 133 142 134 131 129 124 131 126 135 129 
122 127 114 135 126 136 136 123 141 128 118 107 99 97 67 101 130 120 116 121 123 114 115 118 112 107 105 102 94 86 88 81 73 72 65 59 51 52 47 44 39 42 40 42 43 47 46 41 47 50 49 52 53 56 58 65 71 76 88 93 90 102 111 125 142 161 167 153 115 114 126 137 137 139 145 146 138 136 133 127 128 125 142 137 133 132 128 123 123 124 128 125 
123 122 118 131 123 133 123 124 131 121 111 105 92 97 74 104 125 120 118 120 120 121 114 114 116 113 107 109 102 94 91 90 83 83 77 70 61 60 52 47 44 40 43 42 42 45 47 43 50 53 55 55 59 61 65 70 78 85 93 97 99 114 121 138 156 165 168 152 118 120 130 133 130 134 141 135 132 129 128 126 127 140 143 135 130 128 123 121 129 123 124 123 
117 123 116 127 128 123 119 125 120 109 107 93 90 93 89 105 122 121 117 120 120 120 122 114 113 115 112 112 110 103 97 95 92 93 86 82 75 68 60 55 51 47 49 49 45 51 50 49 52 60 60 62 64 68 70 80 89 93 98 106 108 122 133 155 169 171 161 143 127 125 129 131 126 131 131 128 129 125 127 124 138 140 138 128 128 121 124 118 134 115 123 115 
