P2
# Imagen
92 112
255
170 169 166 170 168 165 168 170 166 169 175 180 181 170 177 183 185 194 223 212 222 228 231 192 150 144 163 152 160 164 164 160 161 169 157 154 161 156 152 156 156 161 146 156 155 156 157 154 144 147 150 143 144 144 138 142 141 128 122 105 108 121 158 209 213 179 191 183 184 174 182 187 178 176 167 163 161 163 157 168 164 164 161 170 163 167 161 169 160 163 164 160 
167 167 172 168 172 167 171 177 162 168 180 181 185 173 185 185 199 197 232 223 224 233 175 139 140 158 173 154 165 163 164 167 165 168 167 162 164 162 154 167 158 168 153 162 167 157 163 166 160 158 143 152 150 145 153 145 145 145 139 132 123 115 117 126 157 162 189 189 197 191 176 180 181 178 175 166 165 162 169 164 165 158 172 158 165 164 162 165 163 166 163 161 
167 169 168 170 169 167 175 173 174 177 182 190 189 175 186 196 209 223 222 227 185 155 139 146 146 170 198 154 162 163 161 165 163 168 168 167 164 162 162 160 164 161 159 159 170 158 164 170 170 158 146 150 157 145 160 152 151 150 155 141 142 133 125 132 113 115 116 116 149 204 201 182 179 180 184 173 170 166 167 162 165 166 166 167 165 167 163 167 166 170 163 163 
174 172 172 176 180 170 173 172 177 184 189 187 185 193 205 217 221 219 220 167 130 129 143 161 157 175 200 164 157 167 163 168 166 171 176 166 165 168 162 162 163 163 159 160 176 162 167 168 170 173 161 153 160 166 156 166 153 158 146 161 160 143 131 145 144 121 121 113 111 100 139 198 196 190 179 183 174 173 164 162 164 159 168 162 167 166 158 162 162 164 162 162 
173 175 167 178 175 184 176 180 182 192 194 199 204 214 217 206 178 157 148 137 132 141 156 165 171 168 200 165 160 164 160 164 168 174 170 169 161 173 159 164 166 162 163 167 169 166 177 169 159 171 167 157 151 169 166 159 164 158 167 158 173 158 147 137 164 159 124 131 121 118 95 105 156 191 202 187 178 175 180 166 163 157 165 163 166 166 156 163 162 159 159 161 
174 172 169 175 173 183 182 192 197 202 196 226 233 220 167 127 118 127 128 141 141 153 163 164 169 180 193 169 152 162 165 158 169 172 172 169 161 173 156 166 172 164 160 177 167 158 170 174 158 163 164 165 156 155 162 161 162 162 167 165 158 170 155 152 147 189 146 139 148 127 126 94 97 104 157 214 194 171 178 182 162 159 160 165 159 162 158 163 170 160 165 162 
176 175 173 178 174 184 194 200 207 211 216 241 228 156 115 113 123 133 143 150 164 164 159 167 166 184 180 176 145 166 163 160 168 170 177 165 162 170 156 157 166 181 145 183 174 158 168 203 161 163 154 172 155 145 159 169 161 150 179 164 156 163 163 155 166 159 191 146 208 147 130 125 101 105 94 118 211 196 178 181 180 165 163 168 162 163 167 165 161 166 163 163 
168 179 174 175 178 194 202 209 203 225 236 218 155 128 116 129 142 149 147 154 172 169 165 159 169 174 168 171 155 167 162 158 166 174 187 167 164 162 160 156 154 182 152 162 191 154 165 218 173 158 164 159 167 143 154 164 172 159 165 180 146 160 162 151 167 162 183 170 196 197 147 161 124 118 103 103 112 201 199 183 183 171 164 168 163 167 169 162 163 165 164 165 
176 178 181 182 193 203 200 199 223 243 198 134 136 116 133 147 161 161 153 157 173 164 164 165 167 170 169 171 155 171 159 152 166 178 184 166 160 169 157 151 158 180 158 158 184 159 157 204 200 158 174 150 175 147 153 138 196 182 144 180 150 156 166 139 164 159 167 164 196 193 164 172 163 128 132 105 109 116 187 212 199 180 174 168 157 168 167 165 166 164 165 167 
173 180 191 194 204 201 204 216 243 195 140 118 121 134 147 158 168 180 160 168 177 163 165 163 170 170 172 162 154 170 159 147 165 192 193 168 159 177 158 152 152 168 172 164 203 168 152 181 228 157 184 153 157 171 140 152 167 228 141 163 164 164 169 144 152 171 158 163 184 198 166 161 198 150 141 146 118 124 108 165 224 193 183 175 159 165 164 168 161 164 166 162 
177 186 198 203 200 207 228 237 195 140 119 134 134 156 160 169 164 177 158 164 181 174 169 164 176 167 174 170 151 169 168 143 170 187 208 178 164 175 164 155 149 164 181 162 206 183 177 170 215 179 191 166 141 176 148 154 145 224 170 158 152 166 185 145 153 170 164 177 170 181 155 161 192 165 147 151 156 127 152 85 144 219 196 185 170 174 161 171 161 165 169 160 
186 196 200 199 208 226 242 193 125 122 145 159 160 161 159 161 167 180 168 163 175 179 165 175 177 158 176 170 154 175 166 137 183 182 215 184 157 191 173 146 149 183 187 154 194 214 191 185 199 203 188 183 136 175 163 171 158 175 212 167 160 136 214 154 150 149 192 172 192 177 145 157 184 205 146 149 170 132 157 139 83 136 224 187 188 187 172 161 166 167 165 164 
195 201 203 203 220 252 204 118 134 151 154 171 162 164 166 156 163 181 160 158 174 167 156 178 176 153 176 169 160 193 161 149 186 186 201 183 160 191 183 149 151 185 190 175 156 206 195 187 202 209 187 205 161 167 172 190 181 150 201 184 172 140 206 176 146 153 185 166 194 164 158 147 181 196 168 147 175 146 154 155 122 94 147 213 195 181 176 166 165 163 157 160 
206 199 207 214 249 212 137 120 158 170 164 160 171 162 164 150 167 170 165 160 159 180 152 172 172 152 178 164 163 186 172 160 181 183 201 183 168 182 187 163 157 185 197 187 167 192 192 181 194 217 175 211 177 179 175 185 188 184 167 187 187 153 195 189 152 167 162 173 182 175 161 140 180 159 188 154 162 154 156 156 141 131 95 144 237 184 175 174 177 167 160 161 
199 196 221 238 244 172 126 134 178 169 164 155 180 170 175 155 178 180 166 165 168 168 151 176 162 151 176 167 164 165 183 162 185 163 188 177 171 178 196 171 171 175 202 179 172 174 174 170 173 219 173 178 179 203 170 191 183 181 180 176 173 167 174 196 176 186 162 185 169 184 163 147 166 165 172 187 146 155 154 160 155 146 130 89 198 206 177 180 174 182 165 163 
195 200 217 242 229 147 146 155 166 178 155 158 183 176 167 159 173 172 175 163 165 165 154 175 157 152 193 158 176 149 178 175 176 157 180 176 183 165 196 178 172 163 187 180 171 139 172 157 153 202 167 171 166 198 176 174 170 159 173 196 149 165 155 184 182 185 177 202 160 193 164 172 145 181 153 188 157 162 151 173 171 156 135 111 167 205 184 179 182 172 172 159 
191 202 223 240 195 144 162 168 160 181 169 170 186 177 163 173 176 167 172 165 178 166 159 171 161 159 175 153 172 137 173 168 161 147 164 168 178 156 169 170 166 156 174 175 173 139 154 150 138 177 158 167 150 177 170 155 159 138 148 199 161 151 144 160 181 181 160 207 156 199 193 173 173 170 160 188 164 168 175 155 187 140 150 117 138 229 184 183 179 179 172 167 
211 208 245 211 172 153 164 172 164 165 174 178 186 194 167 187 183 168 183 158 188 158 167 176 162 164 158 154 162 127 162 160 145 133 155 161 164 139 152 150 164 146 153 162 159 146 132 140 144 136 169 138 150 156 158 154 139 136 127 164 176 125 136 143 164 181 134 195 178 160 198 178 185 167 164 182 177 159 170 161 184 161 165 147 139 190 219 185 180 177 180 177 
209 225 253 168 172 168 174 166 174 169 170 180 190 194 156 170 181 164 182 160 190 163 171 177 161 146 150 144 151 123 149 147 138 131 146 156 148 134 138 144 159 154 146 140 160 143 120 131 130 120 161 139 148 139 153 135 145 125 128 120 167 120 133 131 143 171 142 150 192 157 178 184 197 183 150 181 185 147 160 172 186 181 164 165 130 153 231 200 187 182 173 181 
217 243 231 141 165 185 173 166 165 182 169 171 189 179 166 164 174 172 166 173 189 168 175 167 156 146 144 141 143 119 142 144 133 129 143 158 142 131 139 140 141 156 142 143 149 145 122 136 123 117 152 154 133 124 144 134 132 139 116 112 141 131 131 129 128 149 155 107 198 146 178 172 188 188 152 190 167 153 160 181 166 195 171 141 119 114 214 215 190 197 175 173 
220 241 182 128 149 186 164 172 175 180 164 155 187 181 168 175 161 153 166 178 182 164 176 154 153 141 148 153 129 132 138 143 123 121 140 148 138 137 129 135 130 143 147 154 145 142 126 135 124 122 129 151 133 124 127 132 132 134 124 118 113 129 128 124 126 137 148 107 180 146 168 163 165 181 162 182 144 167 155 176 180 182 159 135 143 99 149 230 189 191 189 168 
242 222 156 148 151 179 163 183 180 179 168 149 187 178 160 181 151 157 158 181 170 160 167 153 153 144 148 143 129 133 144 138 125 124 131 140 136 133 130 139 119 140 134 149 140 132 134 124 131 129 122 141 123 132 122 137 126 123 127 115 106 127 118 130 119 127 139 117 163 154 144 169 167 171 179 155 159 153 163 174 164 177 157 144 144 136 98 219 208 189 185 181 
222 178 151 153 161 158 172 174 178 174 177 147 161 182 158 164 154 162 163 167 175 145 164 158 144 148 141 144 133 141 145 136 130 126 131 139 137 129 137 127 130 143 142 138 131 137 121 122 125 116 123 126 125 127 125 135 128 118 120 114 118 125 114 122 133 131 135 118 132 169 125 169 157 176 161 164 150 162 164 162 155 176 165 148 141 155 106 173 217 200 185 183 
215 161 149 153 165 162 161 177 163 176 165 151 146 183 175 153 159 160 175 157 163 144 166 162 148 152 149 142 135 135 150 133 127 131 141 133 139 125 133 133 144 142 139 132 145 133 122 123 121 110 123 119 125 124 133 130 128 119 115 117 117 129 122 127 130 121 129 118 117 153 121 157 165 177 166 164 173 172 177 169 164 169 168 144 160 155 116 144 204 199 186 175 
170 164 157 155 168 181 156 157 181 174 155 151 151 179 185 151 157 161 180 156 161 153 160 172 153 155 164 142 142 135 148 144 136 145 160 144 147 132 149 156 166 148 134 137 130 136 123 113 117 98 125 119 125 122 148 141 139 124 115 124 122 128 119 122 127 121 121 126 112 130 127 146 158 175 170 167 175 174 184 192 166 162 181 147 161 153 141 127 199 211 193 185 
152 162 159 158 161 184 169 155 174 169 155 153 162 190 174 176 153 158 169 152 145 162 146 158 165 164 187 162 160 157 170 153 161 177 194 174 175 155 192 168 192 175 167 143 133 147 134 122 128 105 113 132 149 144 185 151 168 139 135 139 141 144 130 144 136 145 123 138 119 127 124 125 133 158 144 156 139 148 156 162 155 155 170 159 172 150 143 127 194 204 203 189 
150 159 159 153 159 173 180 168 156 155 156 160 167 183 185 162 159 165 165 165 138 149 135 139 150 157 187 193 184 199 200 190 188 201 230 204 193 214 195 206 202 217 202 145 155 155 139 149 133 131 119 147 173 167 193 176 186 173 171 168 174 172 165 181 164 169 144 153 133 114 119 121 128 145 147 153 159 158 158 160 140 152 158 158 153 167 149 126 182 201 198 195 
141 168 163 151 164 167 167 160 162 153 160 163 162 182 194 183 150 164 159 162 165 127 143 136 123 145 173 207 199 226 235 239 206 219 223 226 187 225 215 216 205 227 220 158 164 169 160 157 153 138 146 148 172 171 191 207 186 193 181 193 192 183 194 196 190 188 176 160 146 128 111 128 127 137 145 154 161 161 158 173 156 146 153 149 163 156 153 115 176 209 192 202 
155 164 170 147 169 180 152 169 171 157 164 172 185 184 169 172 164 176 159 170 167 155 138 138 129 159 160 172 185 194 231 244 226 210 191 209 193 207 220 201 215 213 194 208 185 193 177 171 190 179 181 165 177 173 181 199 187 174 191 194 193 192 166 200 184 164 163 156 131 113 127 141 146 137 136 159 161 164 164 165 154 144 146 161 160 169 145 128 127 223 191 197 
168 148 187 162 159 183 168 167 169 160 159 179 181 156 154 162 169 175 168 175 157 162 143 143 140 136 153 160 173 190 213 218 211 199 159 193 172 180 189 155 184 182 178 189 182 183 172 167 179 170 176 164 170 174 178 185 195 179 186 196 189 179 146 178 181 153 133 122 125 113 127 129 145 139 130 152 157 161 156 168 161 139 144 151 168 165 151 131 120 200 201 193 
178 161 179 176 173 172 163 177 159 156 162 181 163 148 150 164 164 172 158 167 170 188 173 165 158 149 153 159 150 183 195 218 193 188 144 172 153 155 160 142 167 149 160 162 153 144 146 141 157 155 163 168 160 179 173 178 186 184 178 197 187 177 148 171 196 156 135 121 123 120 111 134 119 128 134 135 155 158 155 165 165 153 135 147 155 162 144 137 117 187 209 200 
183 169 163 170 162 170 164 172 169 139 181 176 160 153 152 156 168 154 150 179 188 183 166 147 154 149 148 150 170 169 185 199 178 168 156 141 142 133 130 151 155 156 153 163 159 154 130 146 151 146 153 163 155 174 164 171 173 174 186 187 193 176 164 170 189 179 143 126 119 113 108 117 119 118 111 122 134 155 152 151 167 174 145 154 152 147 142 138 117 188 181 195 
176 178 159 168 157 154 162 169 170 152 178 162 154 153 150 162 149 144 158 178 173 170 151 143 168 154 155 159 183 172 171 188 202 185 171 172 159 141 147 172 170 165 166 165 165 152 138 136 150 140 151 158 154 168 168 166 176 176 176 183 192 178 168 171 185 184 158 134 131 103 97 98 94 107 114 117 117 143 154 153 164 170 168 154 153 147 135 143 122 168 186 175 
170 184 165 166 150 147 146 167 166 161 159 153 150 138 147 152 130 153 166 159 162 153 146 150 161 167 168 167 194 185 178 188 197 200 195 182 183 133 155 182 175 167 157 163 173 155 143 137 149 134 156 160 150 168 174 163 167 183 172 185 189 188 174 175 181 190 172 147 135 122 104 94 98 96 106 116 112 133 150 164 163 158 163 171 158 151 141 139 117 146 213 177 
167 174 162 183 149 139 153 155 149 156 149 150 130 139 143 134 146 165 158 178 152 157 153 138 159 177 168 177 193 201 193 190 192 197 197 184 186 158 141 173 175 163 159 150 165 155 143 128 144 134 156 159 156 166 173 168 163 175 177 181 192 188 183 179 177 184 176 157 138 123 121 101 109 100 104 113 113 127 132 162 163 170 160 167 170 155 150 145 126 139 212 201 
169 168 157 190 162 139 159 153 139 143 156 138 123 137 146 125 152 163 156 174 161 147 156 146 172 182 167 186 187 198 186 186 187 184 190 184 178 169 155 160 166 155 163 147 158 153 141 131 131 140 152 158 151 158 164 164 160 169 170 174 181 186 180 180 170 180 166 166 150 136 123 108 115 112 103 110 103 125 129 155 164 174 176 155 182 153 161 140 139 121 208 195 
151 177 158 170 173 150 155 141 131 139 149 134 113 135 132 127 153 171 162 173 181 164 160 151 168 172 164 180 178 189 181 182 179 179 184 183 175 163 167 158 161 152 167 152 155 152 142 145 127 132 150 154 147 153 160 166 162 168 167 170 177 179 177 182 169 174 171 164 165 151 125 122 111 113 110 103 99 110 128 131 171 162 181 163 164 162 166 151 141 123 176 205 
155 165 167 166 169 160 147 136 128 135 154 119 112 127 121 132 150 182 178 174 192 168 170 171 159 152 168 180 177 178 179 173 172 175 176 176 170 158 164 163 163 156 157 156 146 151 142 146 135 131 147 156 145 147 158 165 159 167 167 162 171 179 173 178 170 169 171 162 163 157 136 130 122 112 109 105 105 104 115 133 143 171 166 184 144 162 174 160 149 120 162 218 
178 158 171 171 170 155 147 127 130 128 151 116 108 128 125 118 167 191 187 181 180 175 184 176 169 145 167 171 170 170 174 169 167 172 170 174 161 154 160 162 164 154 156 157 143 155 141 143 145 119 149 151 145 144 155 161 154 163 165 155 163 170 170 170 177 167 171 165 164 161 146 135 130 121 117 102 108 101 105 127 138 159 159 178 152 152 161 176 148 125 157 232 
195 161 173 176 160 154 146 122 127 138 136 120 108 129 127 131 163 195 189 183 183 173 184 177 164 155 156 157 162 165 173 165 165 167 168 170 160 160 161 158 158 154 156 154 144 158 141 138 149 127 140 151 149 153 154 157 150 159 155 153 162 166 165 162 172 165 164 166 165 162 147 145 135 130 127 125 111 114 103 118 132 147 152 166 161 152 161 169 135 136 158 226 
180 168 176 177 156 162 140 124 131 140 127 119 114 127 117 158 160 195 189 180 179 180 180 179 170 165 158 154 160 162 164 167 164 168 164 166 158 162 157 154 154 149 152 152 145 152 149 143 148 133 143 153 149 152 153 147 147 154 151 152 160 160 164 159 161 161 159 168 161 157 159 136 150 138 139 131 117 124 105 110 119 139 151 164 155 159 161 175 136 132 155 229 
172 167 184 177 158 156 136 130 131 134 126 110 114 123 120 167 160 191 183 178 172 192 181 173 171 169 172 158 165 163 161 164 167 167 165 162 158 161 161 154 150 143 149 153 145 148 150 146 146 144 141 152 154 150 150 150 144 152 150 151 159 156 167 155 161 158 157 163 169 164 152 147 147 149 149 133 120 124 116 108 116 126 145 161 152 166 159 164 148 131 139 231 
169 169 169 179 167 144 132 143 123 134 118 112 127 114 129 170 160 184 183 177 182 192 188 186 177 181 177 169 168 170 171 167 174 173 170 165 164 160 158 153 157 144 148 147 145 144 146 148 144 146 141 155 155 151 151 137 142 146 160 158 161 163 168 165 169 158 161 164 162 161 164 157 148 155 150 140 124 123 124 106 109 118 139 162 155 163 165 166 153 131 138 198 
187 159 164 183 171 148 142 134 128 128 124 103 128 111 124 162 171 172 183 180 201 194 192 194 181 187 186 184 178 180 177 176 178 177 177 174 173 165 160 158 153 151 150 148 150 145 145 145 147 135 145 150 152 148 148 133 143 158 163 159 162 161 166 160 172 165 172 172 174 163 165 166 162 154 161 145 129 127 123 113 115 117 133 154 164 160 169 164 152 138 154 202 
190 178 150 175 168 153 140 138 132 127 113 116 114 115 116 153 179 177 180 188 201 200 192 189 186 186 190 187 178 180 177 175 176 177 177 176 173 169 161 164 153 151 149 150 146 146 144 145 152 143 143 147 147 146 141 145 152 164 158 158 154 159 161 161 160 166 165 175 175 169 175 166 171 165 165 156 129 124 122 115 116 104 132 151 165 163 165 166 145 138 162 192 
174 198 143 164 170 162 136 138 138 123 124 110 108 111 113 144 180 190 184 201 201 198 191 180 187 183 174 178 175 176 176 173 170 174 175 172 172 166 164 165 162 152 152 149 150 148 146 144 151 146 143 144 142 147 149 150 148 154 153 149 155 153 157 152 152 160 167 163 170 167 166 167 166 169 169 164 137 126 116 114 106 112 123 154 163 165 164 160 155 133 177 185 
178 200 159 153 175 150 143 135 137 116 129 111 108 102 124 135 174 199 195 199 186 187 181 172 177 174 165 169 167 166 171 169 166 168 172 168 171 164 163 167 159 154 152 152 154 149 152 144 150 147 141 144 144 148 150 150 149 151 154 149 153 156 156 150 150 153 160 156 154 159 158 158 157 171 167 172 147 127 110 102 108 110 121 150 160 167 166 154 148 152 173 177 
183 197 175 148 171 149 144 135 128 126 127 110 103 96 134 145 155 197 197 183 171 183 177 172 167 169 168 166 164 162 167 167 168 168 168 162 168 164 166 165 161 164 155 159 150 153 155 150 152 148 146 151 150 141 145 155 148 149 148 156 147 155 156 148 156 153 150 149 147 149 149 155 150 160 163 166 165 121 104 99 106 104 129 150 156 165 173 142 147 144 210 161 
172 213 170 163 160 156 143 133 135 129 122 115 98 96 142 170 182 169 179 186 172 171 170 168 170 171 171 174 172 167 173 170 167 166 168 164 167 164 168 161 165 164 161 154 154 155 154 149 151 153 151 155 154 154 152 155 153 149 150 156 155 152 151 157 153 156 152 147 152 142 150 155 151 154 156 158 165 134 96 92 102 110 127 152 163 166 162 151 143 163 209 179 
176 204 178 163 161 161 133 146 140 135 123 114 93 115 151 178 200 175 160 182 182 172 172 169 177 178 176 173 175 168 171 172 172 177 173 170 164 166 167 166 171 170 160 157 153 158 158 151 152 158 149 152 153 156 155 154 148 152 155 159 160 160 161 163 159 160 153 156 152 153 152 160 155 154 150 152 154 137 93 90 99 105 130 155 166 163 159 159 139 159 209 186 
174 192 188 161 163 151 138 147 141 136 131 107 105 131 167 182 201 182 175 173 183 185 179 182 179 176 178 174 171 174 173 178 172 176 174 175 170 166 166 167 166 167 163 159 155 160 157 154 153 153 154 153 159 161 156 159 155 161 162 162 166 171 176 163 167 164 161 161 166 162 159 158 161 153 152 150 147 135 104 77 96 112 133 156 156 163 161 153 145 157 206 191 
167 182 191 166 165 153 143 153 153 143 119 114 109 140 180 204 200 195 190 196 190 184 163 171 173 171 165 165 173 173 173 183 174 170 173 172 174 170 169 164 166 164 167 157 159 162 157 156 152 154 149 155 161 162 156 157 158 169 167 166 174 183 187 179 176 181 174 171 167 167 168 166 167 159 153 150 142 127 97 83 90 119 135 155 156 160 167 147 149 154 197 170 
175 181 192 169 163 154 152 161 158 149 123 125 124 172 204 210 204 192 204 208 195 160 134 130 152 151 130 159 177 169 168 178 178 169 167 172 174 166 169 166 159 160 166 162 162 158 157 155 156 155 154 158 159 161 157 159 165 168 174 172 179 190 190 191 186 185 182 181 180 173 179 182 178 180 162 161 153 132 102 88 98 119 143 161 151 158 162 145 136 159 178 170 
168 195 176 176 155 153 156 159 157 153 127 137 168 219 228 220 213 204 213 185 139 91 88 98 86 78 83 102 128 137 144 156 167 157 146 163 178 166 164 156 160 160 168 169 164 164 155 161 158 154 158 153 156 153 156 156 163 177 172 166 177 179 167 167 183 179 171 175 175 178 180 177 190 193 186 172 166 139 109 92 98 117 139 161 153 156 166 150 133 154 178 165 
182 186 189 162 166 143 157 157 161 142 133 154 201 242 242 232 218 208 169 106 87 76 79 81 59 45 62 78 79 89 92 92 105 97 95 122 127 148 141 153 154 168 174 179 178 171 172 165 166 158 155 148 150 150 155 153 158 159 149 135 152 140 136 109 129 143 143 136 142 147 167 159 164 193 208 196 177 160 122 101 97 117 147 155 154 154 158 154 138 147 196 181 
172 190 183 171 157 146 147 149 147 137 121 180 218 241 243 239 202 143 98 98 98 106 93 87 81 78 65 83 69 57 74 62 72 51 33 71 94 101 110 140 156 177 190 195 196 194 192 182 177 169 160 154 150 146 137 142 126 120 95 74 81 79 83 61 68 83 98 88 100 101 112 130 125 162 207 221 202 191 142 96 102 118 142 158 158 144 155 159 140 133 211 188 
178 193 195 168 155 148 146 146 133 118 130 186 220 227 244 223 137 106 118 152 173 173 176 162 137 137 122 112 101 93 80 80 65 62 60 60 74 85 85 95 155 177 193 201 192 204 203 196 183 172 167 161 166 147 129 105 71 68 49 36 42 55 56 58 63 75 68 69 65 98 99 122 127 107 159 209 213 209 156 106 95 124 145 150 162 148 148 164 138 126 184 197 
179 190 196 163 162 149 147 147 133 113 141 183 220 232 235 177 110 129 163 211 230 242 240 231 206 191 171 168 161 151 130 107 92 93 94 105 112 107 109 98 128 174 189 204 195 202 204 199 190 176 176 164 165 159 113 86 65 57 60 53 55 58 64 80 76 93 91 87 96 112 129 134 146 114 104 147 203 210 164 118 96 119 148 153 159 153 152 154 145 117 167 205 
158 183 186 170 159 154 150 141 142 104 152 204 232 249 209 150 136 165 188 211 220 229 215 203 189 167 155 159 158 158 159 143 139 130 136 150 154 152 143 132 147 185 205 208 198 209 208 200 189 179 169 164 157 137 90 83 73 80 85 89 93 91 100 115 130 150 154 159 163 178 179 180 172 149 116 86 156 206 176 106 96 118 150 152 150 158 150 157 135 121 167 201 
166 168 183 167 158 145 143 146 135 105 158 216 235 235 195 159 168 172 177 176 177 162 134 109 102 90 92 80 83 81 80 91 104 128 131 161 176 171 170 158 166 184 206 215 218 210 209 199 190 173 160 154 133 104 85 88 86 98 110 124 132 145 157 164 177 184 199 201 196 198 190 186 185 194 174 111 102 188 167 101 72 122 147 147 153 161 156 148 131 117 168 193 
175 165 168 173 153 140 139 142 132 104 176 222 235 227 186 180 184 167 164 160 148 110 92 94 83 90 75 65 61 59 54 54 63 92 101 113 144 168 172 164 157 179 212 225 226 227 222 212 202 192 166 145 115 99 79 85 87 87 95 101 96 111 112 119 128 137 154 171 179 185 180 179 175 183 185 150 106 173 183 102 60 107 148 143 151 164 163 144 126 121 158 193 
143 170 159 162 153 138 138 152 129 106 185 221 228 215 192 179 184 164 153 147 121 99 90 93 96 141 127 62 72 88 35 53 23 82 89 107 98 144 158 159 151 160 217 235 242 235 241 226 218 207 162 138 103 81 79 77 66 47 56 61 52 58 54 90 98 96 76 111 120 137 158 158 166 168 188 176 136 173 188 111 59 95 139 147 144 162 163 149 126 122 152 189 
129 142 147 155 151 141 137 152 124 101 196 221 220 209 202 196 198 171 154 146 129 86 85 117 167 229 224 95 78 97 55 78 7 89 171 93 124 120 147 157 157 146 198 233 251 247 249 241 229 217 162 119 90 91 80 67 58 62 73 55 44 57 43 78 80 76 61 54 96 130 127 144 166 170 180 185 170 188 202 116 62 84 125 151 139 159 152 152 140 120 170 166 
127 135 139 149 159 141 142 140 115 101 196 223 209 212 214 213 211 196 163 156 139 59 88 139 191 240 255 129 73 56 59 74 7 102 201 150 96 123 136 170 158 155 186 238 246 251 253 244 234 217 160 113 96 94 77 81 68 78 124 70 60 116 70 94 64 46 103 55 55 97 146 125 155 170 170 174 187 203 195 135 63 77 117 147 141 152 161 145 145 118 164 172 
132 134 131 152 162 136 139 144 101 110 203 207 212 210 215 220 228 226 200 184 180 118 70 122 146 191 241 144 69 47 76 54 51 128 183 150 118 98 148 175 176 167 180 219 245 252 250 243 245 209 141 115 96 109 98 70 65 123 167 71 42 90 60 87 46 35 175 145 70 75 120 153 143 159 164 188 187 194 198 133 63 71 117 143 140 144 144 140 136 119 141 169 
152 126 146 151 160 142 138 143 101 101 208 211 210 214 204 212 207 218 207 198 200 155 123 114 97 111 174 169 116 96 119 116 131 147 155 142 131 125 151 195 176 175 195 216 232 245 245 235 237 201 137 104 97 121 99 62 77 113 174 94 29 90 53 59 37 82 186 179 122 93 82 138 120 131 169 204 200 194 194 129 67 64 106 139 143 127 128 136 126 110 151 153 
149 140 148 149 153 148 130 138 109 108 200 205 206 206 206 202 198 207 208 207 205 172 151 162 125 119 126 132 130 136 163 160 143 145 156 150 135 144 153 187 179 175 197 212 227 232 239 234 224 205 126 98 93 116 121 96 82 74 121 130 48 62 64 65 47 122 154 148 110 85 107 107 105 125 176 197 199 198 190 128 64 63 105 139 138 121 125 134 122 109 151 186 
147 150 147 136 161 153 133 150 106 102 194 202 205 201 197 192 191 198 196 196 188 179 172 164 147 139 143 135 133 127 121 137 129 118 131 142 129 134 164 194 171 182 191 209 224 231 220 218 215 187 117 91 82 102 109 115 110 95 104 115 122 123 139 134 122 109 104 93 88 94 135 132 123 144 177 201 195 192 183 124 51 79 92 140 130 118 129 135 121 116 137 207 
149 153 144 141 145 150 152 157 115 88 189 201 206 205 199 190 184 187 186 181 177 169 165 159 149 139 138 128 123 124 129 124 117 112 107 125 130 161 198 202 176 185 191 212 224 227 214 204 198 171 116 97 90 102 90 98 107 111 110 113 110 104 115 121 109 90 113 109 111 113 135 138 147 157 178 194 191 186 170 125 55 75 97 126 125 109 132 131 123 120 130 213 
141 156 149 133 107 197 157 156 124 84 172 195 204 200 199 186 180 184 184 172 175 169 165 159 143 136 130 121 121 119 127 121 116 107 119 136 160 195 200 204 188 192 200 203 211 216 206 196 202 157 111 101 93 113 115 90 78 93 112 129 140 117 120 124 121 116 121 123 117 122 133 143 158 162 184 194 194 180 170 110 63 80 89 120 116 107 128 128 136 124 120 187 
130 155 148 137 93 214 160 178 139 80 153 189 192 193 190 187 177 176 178 180 172 183 184 165 147 140 122 123 123 120 122 130 129 145 173 187 199 204 199 200 200 204 203 195 201 211 204 200 202 153 116 107 106 119 138 132 102 79 80 97 125 127 117 120 114 110 109 108 113 119 139 152 154 160 174 183 182 171 166 82 80 93 75 117 103 102 128 130 143 127 114 175 
144 155 147 147 92 141 160 206 165 86 134 184 188 192 190 181 178 173 178 172 179 187 195 183 179 176 168 165 160 155 156 164 166 172 187 187 190 191 186 187 189 197 204 200 202 212 203 198 199 151 122 117 111 113 135 150 137 111 95 89 97 101 102 108 110 110 107 108 113 126 139 148 148 155 168 176 170 162 156 66 84 127 57 111 92 108 130 134 149 132 107 168 
148 154 144 146 92 105 169 206 205 99 122 175 191 190 190 182 171 175 172 167 172 186 186 179 178 181 176 175 176 168 179 179 177 178 180 178 182 178 176 180 177 183 193 191 202 212 203 200 193 139 119 113 106 111 133 152 160 150 140 118 106 105 96 101 100 103 107 114 117 129 132 142 145 149 160 165 158 155 144 53 97 134 55 102 103 115 116 147 144 140 106 154 
165 145 148 144 90 78 166 186 226 132 112 169 180 192 191 184 178 175 172 170 174 182 179 175 173 174 173 175 177 174 174 174 174 172 172 172 172 173 165 175 178 178 182 178 195 206 203 199 185 132 99 105 99 116 133 147 152 163 167 168 163 160 150 135 132 129 130 143 149 147 143 142 142 144 154 158 151 150 128 47 132 97 53 98 108 127 115 145 143 143 116 135 
166 141 162 128 90 55 158 167 203 164 101 156 178 189 190 188 181 176 175 173 177 181 176 172 168 169 169 170 173 172 172 172 168 171 165 167 170 166 163 165 172 175 175 172 183 201 200 189 172 116 95 102 94 106 121 141 149 158 165 173 175 184 184 176 170 157 153 155 156 155 152 147 133 141 147 147 148 138 96 94 124 54 59 100 114 132 122 141 141 147 121 119 
155 155 148 130 105 55 140 167 178 176 104 154 166 186 183 185 186 181 179 178 180 183 174 171 169 169 166 172 172 167 171 171 166 168 161 168 167 162 160 159 160 165 171 169 169 195 192 183 156 108 93 99 88 96 109 131 141 151 156 157 167 175 178 183 180 178 167 161 157 149 146 141 134 135 147 146 142 127 83 125 89 30 74 107 116 130 129 145 136 152 124 125 
155 162 136 133 120 71 100 178 167 198 136 141 160 181 183 183 188 184 177 183 181 183 174 171 170 167 169 172 166 167 159 169 160 160 160 162 160 156 156 151 154 160 167 168 176 186 190 180 154 112 90 98 87 94 99 122 135 140 144 156 160 171 173 185 185 175 173 165 162 153 151 144 137 144 144 138 137 111 97 141 53 22 80 106 126 117 148 145 139 147 132 119 
162 159 129 132 130 84 53 154 166 210 164 138 153 175 177 184 194 186 181 184 182 180 169 171 170 169 164 170 162 166 167 170 156 151 159 150 144 143 147 142 150 158 168 175 182 190 185 178 148 120 93 95 90 91 99 111 131 138 149 155 162 168 170 180 182 180 174 169 163 161 158 149 144 149 143 134 123 106 105 134 35 24 95 113 127 129 143 154 140 139 137 124 
160 166 130 136 132 84 56 51 151 194 182 142 154 169 177 184 183 186 190 185 183 178 173 167 170 169 165 170 166 165 163 162 154 142 139 123 109 126 145 143 147 164 173 185 195 192 190 176 154 130 101 86 83 79 76 104 121 137 146 152 158 173 173 177 182 183 178 176 165 167 163 148 150 151 139 127 122 99 129 104 8 36 98 128 130 144 146 147 144 143 132 130 
159 152 153 147 128 107 87 35 53 146 178 145 161 157 173 175 183 187 186 192 180 177 172 167 165 168 164 162 164 160 158 149 145 128 116 95 92 138 151 156 153 167 183 195 200 196 188 175 156 138 107 75 81 66 56 87 115 125 139 147 162 171 180 178 178 175 176 175 167 169 160 149 149 147 130 129 114 104 155 70 0 42 109 131 138 156 145 148 147 143 137 121 
164 152 155 163 145 119 107 72 27 42 114 153 162 158 173 170 183 190 184 187 178 175 173 164 165 165 161 162 162 155 153 137 118 115 102 95 106 165 170 176 164 168 184 197 203 195 185 173 160 141 110 83 98 75 45 74 109 122 137 146 159 166 178 178 169 166 175 170 166 164 156 149 151 143 133 130 98 126 149 37 11 63 115 143 149 158 147 153 139 148 145 118 
161 150 151 154 163 151 125 102 69 50 11 158 167 154 168 168 178 186 188 181 179 168 166 162 167 163 156 157 157 147 138 112 100 100 109 99 131 182 176 184 180 166 187 199 201 187 184 171 160 142 119 98 119 104 37 60 99 114 129 146 150 164 169 179 168 160 173 164 158 155 151 144 147 136 132 123 89 137 96 8 39 94 124 149 157 164 149 153 141 147 148 133 
155 152 151 153 162 159 145 128 112 80 27 160 177 160 164 168 178 180 182 179 173 170 166 160 163 159 149 146 144 141 120 95 85 89 118 144 148 172 173 185 189 183 186 196 198 181 178 179 168 151 128 115 126 123 51 58 83 109 116 135 145 159 164 176 169 164 169 166 162 153 146 151 142 131 134 119 86 87 37 43 70 113 150 153 159 161 157 153 151 143 151 145 
160 146 150 158 153 168 143 141 141 110 42 153 185 167 162 164 171 174 170 172 167 165 161 156 155 152 147 133 123 119 95 89 72 90 123 167 179 150 135 173 191 194 197 197 192 182 181 183 175 162 152 131 118 116 71 65 77 99 116 126 142 152 159 170 168 155 168 158 158 150 148 151 135 136 132 124 56 25 58 70 102 137 149 161 152 158 163 148 160 145 145 150 
159 150 150 158 157 170 147 143 143 133 74 155 202 178 167 161 164 174 167 168 164 158 162 151 147 140 133 120 110 94 90 86 83 113 153 178 200 184 99 92 154 178 201 196 192 186 180 195 170 148 131 104 86 101 92 92 88 105 115 122 140 148 149 165 163 163 159 155 157 145 147 149 139 133 144 130 24 35 80 87 128 145 152 159 153 154 161 146 156 153 145 148 
156 152 153 158 154 162 158 153 136 141 93 136 211 197 177 164 158 166 164 168 169 162 156 151 140 133 125 117 105 91 82 107 137 163 185 190 199 204 162 109 117 140 168 193 190 177 172 170 146 121 90 83 83 102 113 109 101 107 117 125 138 144 151 160 160 160 153 153 150 143 144 144 148 140 162 127 30 57 87 109 144 149 152 158 157 149 160 153 156 155 148 149 
158 159 147 160 165 149 172 163 130 147 97 108 218 205 187 172 152 154 155 161 166 158 159 144 141 129 119 109 94 90 105 130 171 184 196 197 199 208 182 142 118 121 132 146 150 131 138 127 117 75 72 105 123 122 128 129 112 106 109 120 126 135 145 153 152 154 143 149 148 146 146 142 145 153 165 124 30 62 97 123 153 148 158 155 161 154 158 158 151 157 155 139 
162 151 155 158 157 165 175 157 138 149 116 96 218 208 198 174 158 150 149 150 161 161 156 144 138 120 111 96 102 115 133 152 173 192 198 200 201 207 203 163 141 128 122 105 105 86 83 87 79 80 114 142 143 130 143 136 129 108 94 107 114 121 137 144 142 144 145 140 145 148 137 143 145 151 172 92 38 77 104 142 150 148 160 157 164 153 159 156 155 151 154 147 
158 156 149 156 160 172 173 158 135 148 134 88 204 218 203 189 164 153 147 153 159 159 158 151 132 123 100 102 124 127 138 159 178 198 203 195 208 206 210 190 165 150 125 101 77 84 82 78 90 111 130 151 150 147 147 133 136 127 94 96 105 121 133 136 134 138 141 143 140 139 136 142 145 161 165 79 46 84 115 144 147 153 158 156 165 155 161 153 160 154 148 152 
148 158 151 158 162 168 171 168 127 146 147 76 168 224 208 202 174 157 150 157 155 164 151 147 135 109 109 124 121 129 135 159 179 195 198 193 204 205 211 209 179 159 132 107 110 106 103 94 110 123 131 138 141 145 144 140 141 145 122 85 111 113 118 125 125 132 139 142 137 135 129 148 150 168 159 59 62 97 120 151 146 154 163 156 163 155 156 153 164 153 148 154 
156 161 152 168 169 165 169 155 141 150 152 92 115 236 210 204 189 171 152 161 166 160 152 149 128 123 114 116 116 124 141 166 179 191 198 199 203 199 205 206 187 164 133 124 128 125 109 113 115 114 123 128 137 143 144 151 149 139 141 111 87 105 118 117 123 130 138 143 142 132 137 153 156 174 137 42 75 102 133 148 147 161 163 160 166 155 156 154 165 154 150 150 
151 165 164 173 164 170 154 155 151 167 150 97 71 227 215 210 199 181 162 160 163 161 156 158 141 136 103 105 104 111 140 167 182 187 195 204 202 203 202 199 193 171 143 134 133 129 119 123 122 104 121 127 131 141 143 148 143 132 131 124 84 98 121 115 124 132 138 150 141 136 147 151 160 179 101 46 91 116 143 146 153 164 159 156 164 159 153 156 160 162 153 143 
153 172 177 174 169 159 154 152 172 180 137 110 70 172 225 210 202 188 174 159 160 162 167 165 166 144 93 109 110 66 72 118 145 155 173 193 195 201 204 196 196 178 163 157 142 142 134 134 132 130 121 134 135 141 146 142 131 124 116 118 98 77 118 128 134 141 152 153 148 138 155 157 168 159 73 55 110 123 146 146 152 167 159 155 168 152 157 156 161 167 151 146 
164 187 177 169 165 146 161 155 189 169 135 115 99 104 220 207 198 193 186 171 155 163 172 170 178 147 101 139 150 147 96 44 70 100 109 120 135 144 146 151 151 170 176 172 161 162 153 142 141 130 128 135 138 130 145 138 131 122 107 109 113 81 124 144 147 154 155 157 148 150 165 158 171 133 48 71 122 133 145 150 150 168 159 159 162 160 151 161 155 158 159 141 
182 182 174 166 153 148 167 165 185 165 142 123 121 70 184 210 194 193 192 184 167 165 170 167 161 125 126 166 169 193 188 130 75 55 77 75 93 104 108 122 119 130 144 156 163 148 136 122 114 109 104 112 115 114 120 114 91 87 73 105 116 111 141 173 159 159 147 152 149 165 155 163 169 91 57 102 126 138 145 153 162 155 161 159 158 161 153 161 158 161 160 152 
182 182 159 161 150 165 167 177 171 166 145 138 120 80 99 201 191 194 196 181 180 168 166 163 160 134 142 185 206 215 217 219 166 118 83 46 91 148 119 136 135 131 138 139 138 126 119 113 103 95 87 81 91 87 99 68 57 110 125 139 139 133 163 172 161 153 144 150 150 167 157 163 143 60 85 115 132 148 146 154 157 158 158 156 159 159 153 158 161 163 155 153 
187 171 153 151 161 161 171 177 172 161 159 144 130 111 65 150 186 188 192 188 181 176 156 158 161 151 165 186 206 218 223 224 215 181 156 131 92 124 117 168 193 160 128 116 115 109 115 107 93 112 105 54 42 51 64 85 113 155 155 164 152 138 164 163 153 151 144 150 160 165 161 161 103 62 108 123 138 150 145 160 154 162 151 159 160 161 154 156 162 161 154 147 
171 157 157 153 166 174 176 176 163 168 165 148 136 117 72 68 182 175 191 187 185 178 159 153 160 168 175 191 198 203 202 213 211 201 174 174 182 130 87 130 167 151 146 107 153 147 149 137 113 132 112 64 70 84 110 131 151 162 167 175 151 149 163 157 154 142 142 149 164 164 157 148 86 89 125 129 140 149 156 148 154 160 153 155 162 155 153 152 164 161 155 147 
158 155 150 166 170 177 176 170 166 179 170 140 148 123 91 50 131 176 183 184 181 185 179 162 166 167 177 186 192 189 187 186 189 187 176 162 181 179 166 121 108 108 97 85 142 138 142 133 106 108 112 115 107 120 136 157 157 155 170 171 156 156 163 151 139 134 140 153 158 156 147 131 100 114 133 143 144 158 152 155 155 156 155 158 155 152 153 150 158 164 156 141 
155 141 154 171 175 169 177 173 178 192 164 148 152 133 103 56 125 167 174 184 185 185 188 181 171 179 184 186 187 182 176 170 180 177 179 172 150 143 154 171 167 146 121 102 113 107 113 112 117 122 114 119 110 133 149 150 151 163 171 166 158 153 152 142 139 134 146 149 158 150 115 144 121 123 132 155 149 154 154 153 152 156 150 159 156 152 153 154 160 169 155 145 
154 140 158 171 168 159 179 172 184 184 161 144 158 133 107 66 118 173 155 176 184 184 187 191 185 196 197 193 189 178 177 175 170 173 164 166 160 140 128 133 149 152 139 139 138 130 125 119 111 94 94 110 119 145 153 148 150 165 159 156 155 147 148 137 142 143 145 156 149 127 125 163 125 130 145 154 151 157 155 152 161 152 153 156 157 154 156 148 167 160 161 150 
147 147 162 156 166 164 164 181 169 167 155 147 155 135 110 71 119 173 169 143 178 185 184 195 200 201 209 197 193 185 176 180 167 153 171 161 155 155 137 118 104 102 100 103 104 102 99 100 98 105 120 127 144 139 138 148 153 158 159 156 156 154 149 144 146 146 143 149 122 124 154 148 142 138 154 156 154 155 152 153 158 153 150 156 154 153 159 142 171 158 156 149 
148 148 159 156 162 158 163 163 163 155 146 151 150 139 112 69 130 170 182 151 155 177 191 195 202 199 212 212 205 192 189 178 172 153 161 157 161 153 145 129 114 111 109 100 100 97 102 112 119 126 137 143 141 133 134 153 159 163 159 158 157 152 150 147 146 144 148 128 115 146 162 133 140 159 156 152 155 152 155 152 154 159 154 149 155 153 151 152 164 155 151 158 
153 151 156 161 158 146 161 159 158 146 146 147 148 138 117 68 131 179 174 175 159 157 181 194 201 195 212 220 213 205 197 193 174 167 157 144 147 151 147 143 129 133 126 124 120 120 125 132 135 137 133 140 134 140 147 156 165 163 166 159 153 153 150 149 142 152 117 109 118 158 145 150 155 159 161 150 156 153 149 148 157 160 144 158 154 153 151 160 168 153 154 155 
162 147 159 157 155 145 161 159 150 147 148 144 153 134 118 74 148 177 174 177 178 154 150 179 193 201 206 218 218 217 209 196 183 173 166 151 132 130 124 127 125 123 126 129 135 131 132 131 135 128 127 136 138 151 160 165 172 169 165 162 159 151 145 140 139 116 65 89 127 145 144 163 157 153 162 149 158 150 146 155 161 154 156 158 152 159 150 159 163 152 153 166 
160 157 161 160 155 157 159 157 150 151 149 152 150 129 118 77 161 177 165 180 174 173 149 154 179 188 203 212 212 217 215 208 194 182 177 168 153 141 125 118 115 112 113 113 117 120 121 128 133 126 137 144 148 153 169 166 174 172 168 170 151 147 136 126 131 83 60 89 122 148 156 161 155 160 155 157 157 152 153 155 160 150 161 160 153 158 160 158 159 146 155 156 
159 159 163 160 159 166 156 160 151 151 150 156 144 128 119 76 166 176 170 171 180 172 175 152 156 165 185 206 208 216 215 214 201 193 192 178 175 159 151 131 123 118 114 112 116 115 123 134 133 140 136 148 150 160 173 174 176 172 163 155 134 134 121 126 116 75 79 109 133 158 162 157 164 151 159 153 163 158 155 162 164 153 165 161 152 158 156 158 156 147 165 141 
154 153 164 156 151 165 155 155 148 150 151 147 141 128 126 88 174 175 174 170 172 179 172 172 147 157 163 186 211 217 218 214 204 199 190 190 187 186 177 168 162 151 147 142 134 138 133 142 141 137 140 150 152 170 172 173 175 168 150 130 125 120 126 136 100 77 102 122 146 165 158 163 159 158 160 160 164 160 159 161 165 158 160 161 147 159 155 163 152 155 158 143 
151 149 167 155 159 156 157 153 147 148 148 140 143 138 125 124 168 177 175 171 172 183 182 164 166 147 150 161 197 215 219 214 215 212 207 196 191 195 192 186 186 178 181 175 166 162 158 161 153 148 143 154 159 171 167 161 163 148 126 118 116 135 138 133 88 93 109 132 155 159 160 162 167 159 163 160 166 160 162 163 161 165 160 154 153 163 156 159 155 153 150 143 
180 159 160 161 164 163 154 153 138 148 138 146 148 137 131 151 156 177 173 177 177 180 178 178 164 159 152 142 167 198 212 218 219 220 218 207 203 196 197 193 190 178 183 186 184 176 177 175 169 163 165 160 167 165 162 153 149 124 110 120 138 144 148 114 88 101 118 139 152 158 162 161 166 159 165 160 162 168 161 163 164 167 156 156 159 161 152 159 155 150 152 148 
171 160 158 162 154 170 157 147 141 138 145 144 162 127 145 141 159 166 175 186 181 182 181 184 175 166 154 151 146 171 200 207 216 223 226 224 214 206 200 198 191 186 182 184 188 185 186 183 181 176 178 177 179 161 153 147 127 110 123 139 143 154 154 102 88 104 125 141 152 157 163 161 162 164 163 161 163 166 166 165 162 159 158 156 165 154 154 152 152 153 152 151 
177 157 157 155 159 160 157 145 136 129 157 158 160 137 136 157 155 166 168 180 186 187 182 178 183 178 159 155 150 144 179 199 212 222 231 234 226 216 209 200 196 190 189 181 189 180 191 189 184 175 186 184 173 153 154 133 116 134 139 147 150 160 145 103 92 110 124 151 145 158 160 166 164 167 164 161 167 164 171 159 162 162 157 156 165 150 149 156 151 160 143 162 
