P2
# Imagen
92 112
255
154 154 157 156 157 149 160 156 150 160 156 173 165 163 165 161 162 158 194 207 193 180 111 111 117 121 140 142 142 142 152 155 138 140 144 147 143 142 137 150 143 145 146 138 144 134 132 135 139 135 130 129 137 129 135 125 108 107 92 95 97 100 108 147 110 138 155 171 173 170 168 170 171 164 153 155 158 157 157 160 156 152 158 152 155 157 158 156 157 154 156 154 
154 163 154 157 158 154 158 158 151 164 156 172 168 166 169 168 165 195 179 217 155 99 99 109 126 135 149 142 145 145 153 160 144 148 147 154 146 144 142 152 143 149 143 141 154 144 141 144 143 155 126 131 139 130 142 141 115 123 117 112 99 104 98 102 92 92 89 93 143 166 175 168 164 174 163 154 157 160 153 159 159 155 156 161 155 159 157 159 153 156 160 155 
161 156 162 161 154 164 162 164 156 166 165 177 174 175 176 192 184 195 178 128 92 88 107 126 136 143 150 142 147 143 154 162 139 145 153 148 150 151 141 159 137 151 144 148 147 156 143 150 139 149 141 134 139 140 135 142 134 129 130 132 122 108 120 103 103 102 97 81 67 72 124 184 167 160 177 157 164 153 160 154 157 154 163 154 155 158 160 150 157 157 157 155 
163 160 162 166 158 163 160 163 172 180 170 182 188 189 192 187 183 183 98 106 96 103 126 160 155 143 150 143 144 147 144 162 153 142 155 148 154 145 149 153 145 143 151 150 142 154 160 143 148 142 144 150 142 147 146 142 146 140 142 139 132 111 119 130 106 113 104 102 90 85 62 74 137 170 171 173 171 160 157 160 152 155 161 158 161 151 156 150 152 156 152 153 
161 156 165 166 166 160 161 166 174 176 184 192 204 191 158 134 109 117 105 101 117 127 134 184 163 146 143 146 143 151 144 161 151 146 153 150 157 142 153 146 147 146 150 149 153 145 150 163 156 142 136 157 148 150 140 144 148 147 154 149 147 130 118 141 143 110 115 112 106 96 84 73 58 70 142 185 173 171 164 155 155 152 153 150 158 155 159 155 153 162 154 155 
159 159 161 163 165 164 170 174 176 194 193 201 154 107 82 89 112 109 114 112 131 149 139 180 168 148 143 155 140 148 152 158 150 143 153 156 154 144 143 151 150 148 148 140 179 143 145 151 148 154 138 139 155 152 141 145 145 146 153 152 146 152 130 136 168 139 121 140 112 116 98 86 76 80 46 100 189 168 171 167 164 156 163 154 151 154 159 155 154 157 156 157 
156 160 166 165 165 171 182 176 183 210 191 135 89 89 99 111 115 119 124 127 145 160 143 183 163 144 148 155 135 143 150 154 149 146 150 152 153 155 141 145 148 150 143 144 159 153 141 146 144 150 142 143 132 148 144 140 140 150 142 153 136 147 143 137 155 169 127 172 146 119 111 106 90 79 87 66 80 165 171 171 171 156 155 160 161 149 158 156 156 159 151 162 
160 163 164 166 169 179 193 179 211 192 134 86 89 103 109 123 125 139 135 154 138 159 150 174 160 145 148 152 142 138 154 152 143 149 144 157 145 147 148 141 147 165 148 134 152 172 144 142 130 148 151 139 129 135 147 143 138 154 140 143 142 127 147 136 141 172 151 162 188 128 155 128 114 95 87 89 73 82 144 193 182 171 159 157 158 154 156 158 157 159 154 159 
166 170 166 177 184 187 192 188 178 112 76 106 95 112 128 129 130 133 155 147 145 151 152 157 161 142 146 150 138 140 155 158 148 142 146 153 149 137 136 144 139 160 157 135 134 196 153 143 138 130 156 139 138 116 154 152 139 147 140 136 144 128 135 148 137 144 153 172 173 165 138 172 127 120 119 87 83 84 72 85 188 180 166 159 152 150 154 162 151 156 155 157 
165 170 176 183 188 194 190 169 107 79 96 102 115 130 134 144 146 153 145 147 145 147 142 154 158 148 147 145 132 141 156 162 159 138 139 152 146 138 132 145 144 141 160 137 126 190 172 134 144 128 144 148 137 119 131 185 142 135 147 126 148 133 118 139 133 146 143 169 184 165 140 152 154 125 140 124 107 81 112 70 64 169 187 169 149 156 163 157 162 157 155 161 
171 176 178 196 196 199 178 107 80 101 97 113 131 146 145 148 143 157 154 144 140 145 140 151 156 148 155 144 123 135 160 170 159 137 138 152 145 136 127 153 135 149 163 146 127 159 195 147 151 137 130 155 137 131 121 175 168 130 145 131 148 142 116 126 141 146 153 141 183 152 146 150 163 134 132 137 133 114 104 112 66 44 183 187 164 163 153 156 156 157 153 155 
179 188 184 193 202 169 106 89 86 114 120 139 149 142 153 151 145 163 142 152 146 145 142 155 147 144 150 151 126 136 164 171 163 149 137 161 149 133 128 149 153 151 177 153 138 149 187 150 162 151 120 139 140 133 138 137 182 140 142 123 155 160 119 126 143 148 158 157 155 166 141 155 191 129 139 136 151 122 124 119 82 73 51 174 183 170 165 151 150 156 154 151 
189 188 196 200 175 103 86 102 113 134 149 148 156 141 153 151 148 156 155 153 147 151 150 153 155 148 154 158 123 150 166 165 169 151 144 171 144 132 127 154 165 142 181 166 160 154 172 159 152 180 126 130 142 148 151 112 192 152 148 134 138 182 126 128 137 156 161 184 138 171 134 145 196 157 122 138 156 133 132 135 106 81 85 63 187 182 177 164 159 158 154 156 
194 186 208 190 96 68 108 107 140 146 152 146 144 142 158 156 141 145 156 156 146 154 160 152 159 145 167 163 128 148 171 160 171 151 134 173 156 133 133 162 169 142 161 175 159 172 176 168 138 177 151 128 154 159 164 147 137 179 151 147 132 181 143 123 139 151 164 178 150 154 133 153 158 174 135 128 153 146 129 136 129 109 95 78 95 202 174 169 165 161 154 156 
191 198 204 137 57 89 128 136 141 148 157 147 137 137 149 158 141 148 148 147 132 157 154 147 157 149 169 169 136 157 171 163 160 167 138 172 165 133 138 155 177 146 138 159 148 161 172 190 132 178 175 138 159 165 171 154 141 154 168 155 135 171 167 128 147 144 158 158 169 132 142 135 155 158 174 126 139 149 140 144 137 132 113 96 52 174 184 172 168 172 154 157 
194 197 177 88 64 112 148 148 138 150 160 149 136 131 147 159 152 153 150 148 134 162 152 157 155 156 158 163 144 162 164 160 149 162 148 159 172 142 135 158 163 157 143 150 141 156 143 197 142 160 174 167 151 153 172 150 149 142 164 162 131 164 175 144 170 148 168 157 182 137 147 129 161 164 176 155 117 156 132 152 152 142 127 95 82 125 184 170 168 175 161 156 
188 193 114 69 101 134 155 151 139 145 169 147 141 153 155 157 152 154 158 152 141 162 149 154 164 157 158 154 154 156 164 163 144 148 153 163 155 163 145 143 166 152 141 140 137 158 142 173 162 145 163 170 160 142 156 150 140 153 171 145 138 149 175 146 166 169 178 163 179 157 141 151 154 174 165 162 134 148 140 145 165 137 128 111 94 88 172 169 170 174 175 162 
197 154 94 85 129 148 158 150 140 151 165 155 150 154 154 155 151 154 156 148 145 157 139 159 167 144 151 155 164 149 156 154 146 144 152 153 149 153 152 140 153 164 143 119 131 162 140 144 163 148 165 160 161 134 151 146 117 158 158 148 131 145 166 156 150 171 171 172 167 183 160 161 157 155 166 173 142 154 163 135 168 145 136 120 97 79 130 184 173 175 167 173 
195 121 91 116 127 147 162 156 147 151 164 162 167 158 154 154 153 160 157 151 162 151 151 157 161 137 156 138 148 146 150 153 137 149 144 140 141 143 142 136 141 157 152 118 121 157 147 125 168 148 168 154 155 140 131 148 116 148 163 153 128 146 161 165 149 151 161 171 147 175 172 158 167 155 161 179 157 150 140 158 162 163 143 165 133 120 68 169 170 182 172 162 
146 85 124 136 137 148 159 155 154 160 167 175 162 172 150 158 160 153 152 143 161 155 159 155 153 144 141 132 137 160 153 142 137 149 157 133 143 141 153 134 128 142 158 129 125 158 150 121 169 154 156 152 158 154 120 147 140 129 152 157 126 136 158 167 158 166 132 176 152 152 172 155 176 163 154 197 167 135 154 159 159 164 153 166 124 115 58 128 177 186 174 179 
107 79 147 158 155 143 160 151 157 163 172 155 155 170 151 148 156 158 165 146 168 151 154 153 143 142 132 134 137 159 155 137 134 148 165 128 157 139 147 147 126 133 158 144 123 158 155 128 164 173 148 134 155 153 135 163 146 130 132 154 136 115 138 163 161 166 118 169 160 147 164 167 172 163 159 192 165 134 161 152 156 178 156 150 115 121 85 75 174 178 189 172 
88 83 169 164 162 145 163 155 153 161 170 157 157 165 152 141 149 159 163 146 167 143 136 146 131 150 134 139 154 135 147 136 142 138 169 141 156 157 137 158 137 134 148 157 124 157 151 124 156 196 141 129 138 161 127 155 158 126 108 141 146 119 124 134 162 169 118 153 175 152 150 149 165 170 160 159 164 140 142 166 162 163 142 138 120 128 118 60 146 174 185 177 
78 107 161 171 163 158 167 158 136 142 168 160 163 156 144 131 147 152 152 146 150 132 138 131 123 141 127 142 155 124 123 122 137 133 147 138 149 147 135 142 152 133 146 141 135 138 144 114 138 188 141 108 130 137 135 127 145 111 106 119 137 110 115 111 133 150 123 129 174 160 168 141 159 161 169 147 153 142 168 171 149 157 144 139 127 127 128 70 110 179 166 179 
93 123 155 161 172 156 164 158 132 140 160 149 154 153 141 128 142 151 142 130 143 136 130 126 124 134 117 128 135 114 107 102 122 124 119 128 132 128 118 128 142 131 136 130 128 115 130 95 113 152 128 106 112 122 128 120 122 112 107 100 119 106 104 107 115 124 131 105 173 155 162 147 154 166 153 154 140 154 165 161 141 155 167 145 135 135 123 97 85 185 148 171 
107 124 163 141 164 157 159 156 141 125 153 154 149 147 139 141 127 140 136 122 145 142 132 110 121 122 106 112 112 104 102 98 106 112 103 104 104 105 99 118 122 121 103 123 106 89 106 100 92 121 110 96 95 104 111 97 110 96 103 97 102 104 89 97 111 110 124 93 146 132 136 148 152 176 138 149 161 151 154 155 164 157 168 158 143 144 131 127 81 166 167 161 
114 127 166 159 145 155 153 151 156 135 135 167 149 139 128 134 134 116 128 122 138 135 116 110 116 105 99 98 100 99 95 95 97 96 82 81 80 86 89 101 105 101 92 89 89 72 75 78 82 96 115 79 99 90 97 90 93 85 99 99 98 89 102 83 97 88 116 100 112 103 116 134 148 160 150 163 165 176 182 159 160 158 152 151 149 133 129 123 90 140 172 153 
125 136 169 168 146 146 153 152 151 137 143 152 154 138 127 129 140 109 120 116 133 129 106 109 105 108 93 103 97 88 98 111 106 100 81 79 82 91 105 82 84 78 73 77 70 62 64 59 72 93 104 84 100 113 99 101 95 98 109 110 111 93 128 95 109 90 127 110 100 97 99 122 132 160 160 156 153 151 170 173 171 174 178 148 156 133 134 130 92 117 177 144 
130 134 160 164 158 150 150 146 153 137 149 157 152 135 146 133 132 101 115 119 119 123 114 107 128 120 102 107 119 97 127 149 146 123 127 100 128 113 125 107 99 81 83 93 74 77 74 83 59 94 120 118 122 136 135 127 113 124 125 142 131 133 151 134 145 119 152 135 101 107 97 113 125 153 148 152 150 146 153 168 166 168 173 177 160 150 140 135 103 79 181 166 
143 138 148 156 163 141 142 132 157 152 153 162 146 129 143 140 128 116 112 118 116 122 116 119 139 131 142 129 143 123 137 179 174 141 158 155 147 139 147 159 139 98 100 113 92 108 84 104 76 92 134 148 150 169 164 166 134 158 141 175 182 150 183 156 173 148 161 146 122 104 89 108 119 143 131 141 156 151 159 171 168 158 158 163 157 161 146 130 109 64 159 196 
136 143 165 161 143 147 152 151 156 155 155 152 159 138 132 141 118 128 114 118 112 94 91 104 137 145 173 175 192 165 163 180 202 154 173 189 169 168 161 196 176 108 116 141 115 121 120 110 99 123 140 171 160 190 183 178 174 170 176 183 171 195 199 179 199 186 173 140 127 91 96 118 126 143 131 145 159 168 152 171 166 156 150 166 157 157 139 138 120 64 149 195 
139 160 159 163 152 158 150 158 158 172 155 144 142 138 142 136 126 129 140 115 116 97 99 109 130 136 152 195 204 208 182 158 175 165 165 181 169 156 175 179 149 137 128 166 157 138 168 166 163 156 163 169 168 179 201 187 169 202 187 177 170 149 202 172 155 157 141 123 98 93 110 121 134 129 121 139 158 166 163 157 163 155 154 168 157 152 146 123 130 81 108 205 
165 151 162 161 161 160 150 157 161 161 147 136 141 145 145 150 142 134 133 117 116 108 118 120 129 115 127 167 182 183 193 163 141 157 131 142 157 129 173 152 131 149 156 160 163 151 170 172 181 167 156 178 165 178 195 196 174 197 189 191 180 152 186 192 160 127 114 118 105 107 112 123 120 112 130 122 143 151 167 154 170 160 143 163 153 150 131 135 127 87 95 187 
147 159 173 145 167 163 158 153 167 162 139 136 149 155 145 148 147 128 146 142 134 126 126 127 124 119 134 176 182 176 182 157 130 170 139 144 139 122 153 142 142 144 140 139 146 129 159 165 155 154 145 176 170 173 190 201 186 182 187 189 184 160 185 193 180 145 115 110 110 102 106 112 115 113 109 120 130 160 164 172 166 182 176 145 174 138 127 124 124 103 68 167 
149 154 157 148 171 171 153 161 170 151 146 143 151 154 146 133 151 146 148 146 136 127 130 130 119 127 142 171 191 185 171 172 138 151 142 131 130 128 151 147 131 132 134 134 121 122 150 166 150 168 151 180 177 174 182 196 187 182 189 198 184 173 187 204 191 149 128 116 104 98 98 87 110 119 114 123 123 145 169 179 168 169 183 170 163 158 127 124 116 112 60 146 
147 150 146 145 161 178 161 168 167 141 153 148 145 158 127 132 164 152 152 138 115 126 130 141 128 138 159 170 170 158 160 147 139 128 140 123 126 143 148 152 143 143 153 159 138 134 157 166 163 166 160 177 178 180 179 192 191 187 190 192 186 183 192 205 199 188 141 129 118 106 95 97 93 109 118 121 126 146 172 184 174 169 176 171 192 158 144 120 121 106 71 113 
151 157 135 135 157 166 166 164 158 150 141 152 146 140 124 147 162 132 150 124 113 133 143 142 130 146 171 167 160 168 176 162 166 156 148 127 152 166 163 162 147 149 158 150 151 137 163 158 175 175 165 170 180 179 179 184 190 184 187 188 189 186 196 195 200 190 173 150 130 113 104 97 98 100 100 112 124 129 161 178 172 180 190 155 184 179 158 131 115 128 83 85 
156 168 132 140 149 160 156 161 156 139 139 149 143 118 142 157 158 142 137 134 126 137 137 152 142 167 183 178 167 169 178 180 171 165 154 125 150 172 167 163 146 145 166 150 149 145 166 159 180 176 165 169 172 181 167 178 185 183 184 184 191 189 192 193 199 192 190 170 150 142 127 114 115 103 98 94 114 116 135 163 165 181 192 170 156 170 172 147 116 129 101 65 
150 170 146 149 161 150 147 151 153 132 142 152 138 125 153 155 163 145 145 150 134 150 157 150 153 173 183 183 173 174 180 178 164 166 164 146 140 162 169 161 156 145 159 153 152 153 154 163 177 172 168 168 169 178 170 173 184 184 181 184 191 185 194 191 197 195 190 187 170 155 147 131 129 111 106 91 94 107 126 136 153 170 183 199 153 151 155 149 144 122 120 66 
153 155 161 152 156 145 130 152 150 134 142 149 129 127 157 157 169 156 157 162 145 155 166 150 161 179 181 182 166 171 170 178 171 161 162 155 160 155 162 163 165 154 159 157 154 157 149 162 169 177 169 168 168 171 175 176 178 182 179 182 188 184 193 192 196 194 197 189 193 169 160 159 136 137 104 111 83 103 109 129 132 162 171 187 168 142 158 142 152 145 119 69 
155 160 162 154 148 138 124 160 150 135 138 148 122 135 165 172 168 177 171 159 158 159 171 152 166 176 180 175 169 168 167 174 170 164 159 154 167 165 162 162 165 160 160 161 155 155 154 163 168 170 168 169 171 171 172 174 178 178 178 177 187 180 188 190 196 195 192 192 194 179 171 164 161 151 129 109 100 89 104 116 133 138 168 167 162 148 153 148 142 143 132 63 
148 174 147 154 149 129 132 143 149 132 132 142 120 144 180 186 178 183 170 170 167 158 158 150 166 173 171 169 170 164 170 165 173 164 166 154 168 165 167 164 166 167 161 165 156 161 161 159 167 166 172 168 173 173 177 170 181 182 174 173 181 182 184 191 196 196 196 198 199 197 176 181 177 175 156 133 120 102 90 110 113 139 144 157 160 150 151 153 137 126 140 90 
147 163 144 156 145 134 128 144 146 131 127 144 127 153 184 190 185 188 176 177 172 172 152 158 162 168 163 166 171 170 167 168 172 173 162 165 168 167 166 165 168 167 165 165 163 159 166 159 164 165 168 170 177 175 173 174 180 178 176 179 179 181 183 193 196 195 201 196 198 200 185 183 181 178 173 157 143 124 89 106 106 121 140 153 155 148 156 146 144 132 126 111 
155 151 143 152 149 144 127 142 135 126 125 140 140 173 188 192 186 190 176 179 182 178 172 160 165 166 165 174 181 177 175 181 180 181 174 172 178 172 171 165 165 166 164 165 167 158 165 163 163 170 170 170 174 174 174 175 177 182 178 190 188 188 192 200 206 199 204 207 200 204 192 190 189 198 186 168 162 148 106 102 105 109 135 147 153 152 155 152 140 133 133 113 
159 156 141 141 147 143 130 131 133 114 126 140 142 185 189 187 183 192 182 187 182 189 182 175 172 166 172 179 186 182 186 183 186 185 185 185 181 177 179 173 164 168 166 164 169 161 164 168 165 169 175 171 173 175 174 175 183 190 188 194 197 201 199 205 211 205 209 213 214 210 211 196 201 208 191 174 162 155 125 107 106 96 128 146 155 152 151 147 149 128 127 125 
154 162 138 143 135 143 136 128 129 109 131 137 152 182 185 189 186 191 188 198 184 200 183 186 184 176 175 179 186 180 187 185 184 183 183 187 188 181 178 176 166 168 166 165 167 166 163 169 165 167 171 176 176 171 172 180 183 189 195 193 200 203 198 202 206 209 209 214 214 211 214 209 208 208 205 178 164 162 142 111 106 108 117 144 154 155 151 148 149 128 122 115 
147 161 154 141 147 141 132 133 124 112 124 138 145 182 181 185 188 195 200 199 190 186 178 182 182 178 168 173 176 175 180 180 181 178 180 179 180 179 176 180 172 169 168 162 167 163 169 162 159 169 172 176 173 171 164 179 184 190 194 192 194 200 196 201 204 206 210 209 214 210 212 212 206 208 216 198 169 162 146 122 95 100 121 134 160 155 150 149 137 143 110 135 
138 153 155 148 150 143 125 134 128 117 123 130 135 178 175 190 188 204 200 197 186 180 169 171 171 175 164 160 165 168 171 171 178 172 173 175 174 173 175 172 171 170 165 162 167 163 160 166 158 163 170 174 172 169 169 180 180 184 183 183 189 191 192 194 191 193 198 199 200 197 198 201 197 198 214 212 173 165 145 117 101 98 114 144 150 163 150 144 134 149 128 115 
133 140 160 157 147 143 126 124 133 124 120 125 130 169 176 180 195 211 196 186 180 178 168 166 168 166 165 160 163 157 161 167 168 165 169 169 167 168 168 173 169 165 165 162 163 164 158 163 160 161 167 169 168 172 174 176 177 180 172 179 180 183 177 174 181 181 182 188 184 188 191 190 193 193 199 213 194 157 135 114 99 92 121 141 151 162 154 141 134 147 133 129 
135 127 158 150 159 145 124 119 127 121 124 113 133 169 171 185 205 204 191 185 178 173 170 172 169 171 167 169 166 166 166 171 170 164 167 166 162 164 168 168 170 169 166 159 165 159 156 163 162 161 164 169 169 177 173 173 177 178 174 174 178 181 177 178 180 184 186 186 184 191 188 191 195 197 196 191 205 171 135 107 95 93 120 138 151 158 146 139 134 143 136 162 
144 129 144 153 158 145 125 126 119 124 118 116 127 159 171 180 202 189 188 185 175 176 173 174 179 178 170 174 172 170 174 173 175 171 169 170 166 166 164 170 171 174 167 163 165 165 158 165 163 160 168 167 168 174 174 175 169 175 174 181 182 184 183 193 189 195 185 189 185 187 188 188 194 202 188 181 188 188 133 101 85 99 121 145 147 152 153 133 134 132 132 167 
155 135 133 147 163 146 129 130 121 121 112 117 138 151 184 186 198 185 191 190 181 182 183 189 182 184 181 180 185 181 181 184 180 175 173 175 174 169 168 171 173 174 169 164 164 167 162 164 162 164 167 169 174 175 180 174 171 179 180 187 188 187 187 190 197 196 196 194 194 196 192 201 196 196 191 183 179 177 140 98 79 96 127 143 150 155 152 134 137 127 129 162 
159 131 137 146 153 149 142 134 133 119 117 128 150 161 173 185 189 185 192 185 185 185 186 192 195 184 184 184 187 185 192 194 188 183 180 174 180 181 171 169 174 174 174 172 167 166 160 164 167 167 170 172 174 176 177 177 178 184 186 188 191 198 202 201 205 205 205 205 207 202 210 208 209 202 192 179 177 175 146 88 76 107 129 146 148 147 151 131 132 129 118 162 
159 136 127 146 151 147 151 137 138 130 127 142 157 176 188 172 192 196 198 204 192 197 197 203 203 186 183 186 200 194 195 210 204 189 184 188 183 184 181 177 174 173 178 175 173 169 168 165 172 169 174 180 179 178 178 181 186 190 188 199 208 216 223 222 225 221 217 223 225 227 223 222 222 221 200 184 181 174 145 95 79 113 134 145 149 141 151 136 127 123 110 132 
163 144 135 139 145 148 151 136 133 139 126 156 180 195 200 188 180 191 201 201 188 198 202 206 193 193 195 206 219 229 213 214 231 214 195 196 205 198 193 187 184 183 185 186 185 176 177 176 176 176 178 187 189 184 182 194 196 206 201 204 219 228 228 221 233 235 235 222 231 240 245 244 238 238 221 200 186 183 147 98 92 107 138 149 145 137 146 140 127 126 94 131 
157 139 139 142 147 152 140 138 143 135 155 190 210 207 201 195 211 216 184 158 137 148 172 174 170 181 207 224 239 239 244 244 253 239 221 216 221 222 213 203 200 204 200 201 199 193 189 189 188 185 186 190 196 199 194 207 213 212 206 204 226 230 232 214 228 238 238 224 227 228 248 247 247 251 241 227 202 193 160 108 92 107 135 149 150 136 138 138 130 125 89 126 
163 130 143 138 147 147 131 126 127 138 177 219 222 200 194 199 211 195 146 100 85 117 129 122 138 147 168 188 215 231 237 241 248 239 236 235 228 226 221 216 220 226 221 223 218 214 209 208 201 200 200 198 208 210 204 214 224 219 210 210 230 234 221 229 237 235 226 222 211 217 231 227 229 252 255 247 228 208 176 123 93 118 133 150 150 140 134 144 126 130 77 113 
163 142 133 142 152 131 129 118 118 154 201 217 210 202 187 168 136 87 65 52 61 82 79 83 89 96 104 107 119 132 142 159 184 199 211 225 220 217 220 225 230 232 231 228 225 225 217 220 211 204 206 205 216 213 208 208 220 220 202 194 190 179 168 150 174 178 163 149 148 151 169 175 172 195 245 243 239 228 211 146 102 106 133 148 147 142 134 133 131 117 90 88 
158 140 134 145 147 135 114 118 124 176 202 225 207 201 154 100 63 62 76 70 73 79 77 71 73 64 61 51 55 69 81 86 97 110 131 159 182 199 216 222 231 234 234 226 228 224 221 222 220 210 213 211 207 207 203 187 174 173 151 114 114 113 108 101 108 118 112 101 114 113 116 126 129 125 205 231 224 220 216 180 108 101 144 144 147 139 136 136 125 115 92 90 
158 145 131 149 149 129 118 113 133 201 208 223 217 183 96 56 80 119 143 139 134 124 112 96 92 84 79 63 65 68 67 67 62 71 90 120 134 150 200 218 240 246 235 232 240 226 220 226 218 214 214 214 204 187 166 122 96 98 90 82 83 93 91 100 96 101 97 86 96 101 101 117 115 94 91 169 203 212 208 190 118 94 136 145 139 141 135 130 129 112 88 86 
160 152 131 151 145 130 117 108 150 210 219 221 212 133 81 93 134 183 200 197 188 179 181 179 160 149 148 142 126 102 90 94 104 109 120 116 132 134 164 206 231 249 247 236 237 233 220 224 217 211 208 205 203 166 107 78 59 52 63 63 73 85 91 97 101 109 110 126 132 151 160 165 163 140 90 69 139 206 196 191 124 94 127 139 144 146 131 131 127 110 86 104 
156 146 142 154 135 122 117 102 154 217 224 224 167 105 104 135 168 169 179 194 174 156 160 154 141 133 112 130 142 122 117 114 128 138 143 137 132 144 159 190 227 247 246 240 236 235 225 225 219 209 206 191 186 131 92 78 59 61 57 73 85 97 119 146 169 179 195 211 236 231 224 223 212 207 170 99 85 187 207 191 121 80 129 137 144 148 137 136 127 110 86 112 
129 150 136 145 132 114 109 102 159 224 223 204 144 101 124 143 149 146 151 156 121 90 112 118 106 97 84 91 127 103 82 104 119 118 146 144 144 145 151 174 207 233 245 242 239 239 231 229 218 208 197 184 148 106 88 87 88 86 99 103 124 131 131 182 195 200 188 202 224 237 234 213 216 219 230 177 92 146 211 205 135 61 122 138 136 144 149 140 120 107 91 96 
131 138 135 139 128 109 113 107 170 231 217 197 152 116 127 135 133 134 134 102 76 62 81 112 107 69 45 48 87 82 51 74 109 110 101 133 153 155 146 148 192 216 247 230 239 243 233 235 234 215 197 161 125 99 104 114 99 82 85 83 93 108 121 132 152 154 124 133 151 186 208 206 199 200 216 210 142 146 209 208 143 57 115 132 134 145 140 140 128 118 95 102 
126 132 123 146 141 112 115 108 175 234 215 195 152 127 118 125 119 122 102 95 49 31 53 123 142 70 33 61 119 168 17 40 112 97 139 122 145 166 153 139 163 214 238 239 237 237 241 240 238 217 203 148 102 96 111 100 91 78 77 77 60 83 92 88 89 89 74 106 138 151 148 190 187 192 191 198 178 169 207 210 156 50 99 135 127 139 142 139 123 114 116 103 
136 123 125 155 139 117 124 97 173 230 218 196 168 148 132 128 114 117 113 67 21 22 89 185 216 90 23 27 18 125 57 37 196 168 105 163 131 151 175 151 137 189 234 229 240 245 242 238 243 223 180 119 110 123 100 105 118 103 70 23 29 80 163 47 27 49 58 57 66 142 161 133 158 179 178 200 194 191 200 209 171 52 93 132 129 130 129 132 113 99 113 102 
132 125 127 162 141 118 116 92 176 223 215 202 197 184 163 150 117 109 105 47 11 44 97 190 244 107 23 22 22 12 41 79 235 253 168 115 156 144 165 169 122 153 221 229 230 240 235 234 235 209 159 121 114 123 124 124 99 140 120 18 44 56 179 39 1 75 156 107 82 73 135 158 128 146 170 202 207 192 198 208 160 60 89 130 129 122 123 119 108 99 107 82 
132 130 131 158 138 113 104 97 173 224 212 209 206 200 192 178 156 135 125 100 12 43 108 161 223 163 52 20 20 0 31 169 253 246 202 179 124 159 176 162 129 132 189 229 230 225 229 235 226 185 138 125 133 163 123 116 136 195 170 24 35 44 48 60 15 94 200 185 118 75 67 140 132 129 163 208 213 200 198 196 164 59 79 136 124 120 123 113 98 106 107 85 
140 138 122 171 137 108 110 91 165 224 207 215 206 199 190 189 173 151 141 115 69 38 57 94 150 181 129 53 47 58 113 199 200 174 143 156 167 189 194 163 132 132 185 221 229 228 216 219 208 153 125 136 156 170 148 158 128 161 192 63 9 37 50 32 55 160 201 179 136 86 61 82 133 133 182 210 222 203 195 194 150 70 79 139 121 117 126 118 99 115 111 79 
140 136 120 173 143 106 107 87 154 217 210 210 210 199 189 187 177 152 142 127 86 75 71 67 76 118 137 138 137 154 160 167 166 151 145 158 188 203 192 149 145 150 178 225 231 219 210 208 191 142 125 151 167 175 167 151 121 121 139 117 61 73 89 66 128 188 175 138 107 63 88 117 135 154 193 227 229 209 192 186 167 52 77 143 119 101 134 116 104 113 119 79 
135 143 117 145 156 110 114 83 136 209 209 210 210 199 186 186 178 167 136 133 114 89 100 99 96 86 80 88 92 115 133 148 152 141 142 142 163 189 179 156 166 164 189 215 217 207 203 203 186 143 126 141 168 158 136 154 139 119 125 116 132 137 144 130 104 114 99 83 77 89 119 153 176 190 210 229 230 209 194 182 152 63 79 143 104 102 134 117 115 119 115 83 
135 145 121 135 170 124 117 74 120 197 202 212 212 198 185 183 171 161 146 134 118 115 97 100 97 97 100 105 103 118 130 122 132 141 154 167 182 195 187 164 177 178 192 210 208 204 200 202 188 146 132 144 166 173 127 122 136 132 129 123 118 114 113 122 98 110 124 116 109 113 142 160 192 200 212 230 226 206 195 184 137 65 99 138 92 93 134 109 131 116 123 89 
142 137 138 126 150 146 147 81 99 182 202 205 211 196 183 180 177 162 145 148 139 133 119 109 99 91 96 89 94 102 106 114 126 145 159 176 180 191 172 153 168 171 193 218 211 202 198 200 178 150 144 156 168 182 166 125 107 126 130 142 140 131 131 132 125 124 128 127 109 123 149 168 186 200 209 224 215 208 179 182 118 54 118 150 86 99 125 119 133 112 120 96 
141 140 140 108 103 148 184 104 68 168 188 203 201 193 188 178 175 168 153 156 148 148 138 124 118 112 114 109 114 118 116 123 142 158 172 176 176 167 157 150 155 163 180 203 208 201 199 202 180 145 142 152 158 181 190 163 122 110 109 129 135 149 129 127 117 123 126 125 123 132 163 173 187 192 201 215 201 199 180 176 102 51 144 154 90 100 118 133 130 119 117 109 
139 144 144 117 82 140 191 131 63 143 187 188 198 193 188 182 177 167 160 162 163 163 154 141 132 127 125 128 133 136 137 145 155 165 169 167 166 154 144 146 158 154 165 190 203 196 200 204 173 139 134 136 152 172 189 176 160 133 120 121 122 130 122 127 122 125 127 135 132 142 161 170 178 183 199 204 194 189 176 159 86 76 148 141 100 121 106 145 128 126 114 117 
140 149 144 116 64 136 172 153 70 119 179 190 195 190 185 178 182 167 165 168 169 171 160 151 151 144 143 141 146 151 148 158 161 165 167 166 158 150 140 139 151 149 163 181 190 191 194 198 158 131 133 125 140 157 177 176 175 168 154 141 129 129 119 127 129 125 135 139 143 152 162 173 173 181 189 197 184 168 176 139 91 107 124 117 133 135 109 145 128 124 118 120 
147 141 125 126 58 145 153 156 94 105 171 181 191 196 186 180 179 171 167 172 175 173 163 159 156 157 157 155 157 162 157 159 160 157 166 165 154 148 146 134 137 144 153 178 185 188 191 189 154 124 131 123 131 140 168 167 170 170 176 171 166 171 161 166 163 161 161 166 174 175 177 176 171 182 189 183 178 158 165 118 120 106 107 106 169 145 119 150 128 130 109 123 
157 134 120 131 76 116 165 151 106 82 153 170 185 184 193 184 178 171 170 176 179 173 167 162 159 159 163 161 162 160 160 163 159 157 162 162 155 151 144 141 134 137 151 175 187 184 190 183 152 123 131 128 131 137 156 166 170 169 176 176 175 182 183 185 186 173 179 177 179 184 182 180 174 179 187 182 165 166 137 118 142 120 94 107 183 146 144 150 135 120 124 122 
152 134 116 127 99 54 152 168 124 82 131 163 178 174 188 182 181 178 175 175 182 171 165 160 163 163 163 162 162 163 164 163 162 164 169 163 148 153 143 140 136 140 152 173 187 192 190 178 151 121 131 133 132 139 156 166 169 171 170 175 182 184 193 191 196 189 187 185 183 183 186 175 174 180 180 175 166 158 112 130 146 125 70 121 173 164 178 139 139 120 127 126 
142 136 124 124 127 43 102 188 157 99 116 153 170 171 180 186 186 184 182 182 182 169 169 165 164 161 167 163 163 164 166 164 169 169 173 158 151 148 141 132 140 148 159 173 192 196 192 179 147 124 125 126 137 141 149 162 166 168 171 172 179 182 192 198 197 194 192 188 191 183 188 183 181 190 177 169 160 142 109 134 164 101 55 118 168 185 183 151 140 126 119 129 
135 135 143 128 137 70 46 152 188 114 106 141 161 166 179 190 187 185 189 185 181 176 169 168 170 163 169 164 169 168 174 170 169 174 170 156 145 140 136 133 138 163 166 182 196 195 196 174 148 124 126 115 127 141 141 160 166 170 177 175 179 184 196 198 199 199 200 191 191 193 191 188 192 188 173 163 157 127 114 156 168 78 70 111 185 192 192 161 139 133 118 113 
141 132 145 149 142 101 72 53 153 132 118 133 149 158 170 187 189 184 189 186 185 171 172 170 172 167 168 167 172 180 180 174 168 172 167 148 115 131 127 125 151 174 176 189 199 197 193 179 158 129 113 111 103 119 140 154 164 170 174 177 182 187 194 204 202 197 206 197 197 200 196 194 196 185 166 164 148 118 140 173 157 61 100 114 173 199 186 176 148 141 126 120 
127 138 141 146 158 135 105 76 61 107 139 132 144 148 165 178 190 188 196 189 188 177 171 175 171 170 171 173 180 179 180 172 165 166 156 134 108 135 142 126 158 177 182 197 195 192 192 188 168 141 109 110 97 93 132 151 165 166 175 185 183 190 193 208 203 203 208 204 204 201 197 198 191 184 165 159 130 115 159 159 96 75 114 145 161 192 175 180 149 143 143 122 
129 137 139 150 156 147 129 116 80 54 146 152 139 145 159 177 184 188 196 190 187 185 175 177 175 176 174 179 182 180 176 166 165 159 149 119 139 166 175 137 160 187 192 198 195 193 192 190 185 159 120 137 111 83 121 153 165 171 176 184 189 192 199 209 204 202 210 209 203 198 197 194 192 181 161 144 128 123 148 91 70 124 136 158 159 176 172 163 158 140 148 129 
137 132 138 152 148 155 134 124 118 72 158 171 135 137 145 173 182 188 188 194 183 190 180 184 178 183 186 181 183 182 179 165 167 165 153 119 177 204 198 174 181 199 207 204 202 197 199 212 198 189 150 173 160 93 127 153 169 177 183 191 195 198 205 211 209 209 212 210 202 198 197 191 184 170 163 141 145 113 52 55 104 145 152 158 159 163 168 166 159 140 158 140 
136 139 133 148 152 155 142 129 127 86 171 206 148 141 149 165 174 185 187 193 187 187 190 187 186 186 186 190 185 184 181 180 174 176 166 134 176 200 216 210 203 220 221 220 217 214 219 233 217 204 178 179 180 130 138 165 183 187 199 198 204 205 210 218 217 211 211 214 205 201 196 192 174 173 163 151 168 86 35 83 128 154 158 156 156 168 166 162 164 143 154 146 
143 138 138 145 157 149 153 131 129 91 158 226 159 157 142 158 165 176 186 195 190 195 193 188 189 187 188 189 195 185 177 182 182 186 192 149 142 162 197 214 224 228 238 244 241 234 236 245 230 207 204 184 179 151 160 181 201 214 206 208 214 214 212 223 223 210 210 210 205 199 194 190 183 174 171 166 174 60 55 94 158 146 158 152 155 178 152 162 160 160 145 147 
143 136 139 140 145 160 159 137 122 106 137 234 178 159 141 148 158 167 170 184 186 196 192 190 195 197 188 178 183 174 167 168 178 190 187 164 123 90 110 168 197 223 235 245 246 243 236 243 228 213 191 162 136 160 193 202 204 211 210 209 219 209 210 215 218 210 205 208 203 198 199 184 189 174 171 170 171 44 79 122 158 150 160 145 163 173 163 152 164 163 149 144 
145 141 136 141 149 157 171 135 117 122 107 239 196 159 151 138 155 158 168 180 183 197 194 193 196 193 186 173 172 163 155 163 174 191 185 160 165 105 45 88 142 192 214 224 231 223 217 212 197 174 137 107 111 197 219 206 197 196 195 201 196 205 209 215 212 204 202 204 197 200 192 184 181 177 166 182 153 48 94 130 152 152 160 155 157 173 171 158 162 161 157 150 
140 143 137 140 163 155 163 140 118 131 81 227 215 168 156 139 147 152 163 171 184 186 198 192 193 182 179 167 157 154 158 174 189 190 182 169 156 135 90 66 83 113 160 177 180 179 169 150 120 86 76 101 168 214 219 203 184 183 189 193 190 195 206 210 201 200 202 203 199 201 185 181 178 171 167 182 128 58 108 138 148 150 163 153 152 176 172 154 159 169 160 147 
138 140 137 149 167 153 162 140 128 138 90 198 231 179 154 142 134 140 150 158 169 171 182 183 176 171 165 157 155 164 174 184 188 190 185 175 165 146 114 81 78 79 86 103 103 111 100 85 56 60 101 142 180 202 214 204 194 188 191 197 196 198 205 205 200 194 203 205 197 193 184 176 169 167 169 193 104 67 118 149 144 147 168 153 157 180 170 161 148 167 164 157 
141 145 147 162 155 150 146 142 142 153 92 140 243 195 165 151 135 131 139 150 159 165 168 167 166 162 163 155 166 182 186 188 185 191 193 188 169 155 127 96 83 77 62 48 48 53 49 50 52 89 138 171 189 204 202 205 199 201 190 193 203 193 197 196 193 193 198 199 188 187 177 169 170 168 175 200 74 90 122 151 141 158 158 162 149 175 174 157 152 160 168 159 
140 159 166 161 153 144 143 147 166 143 92 107 232 209 180 160 137 125 131 141 156 159 164 163 161 160 155 171 187 188 177 181 183 197 194 199 183 167 142 109 92 80 65 50 41 56 49 66 89 126 151 170 184 194 202 198 210 201 194 184 192 186 174 181 183 188 190 196 180 173 166 170 168 167 193 168 60 106 141 137 144 159 161 164 156 172 173 159 159 157 175 162 
151 175 166 156 150 143 147 153 169 140 104 79 200 220 195 168 153 128 127 141 147 154 158 157 163 155 163 180 182 183 178 184 196 204 200 203 199 180 166 142 117 93 72 59 65 65 75 95 126 141 161 172 183 187 200 196 199 203 185 181 178 181 167 177 179 185 195 189 176 159 164 167 167 174 195 124 67 124 145 141 147 162 156 165 157 172 175 159 161 155 180 162 
173 172 163 153 138 138 156 164 160 129 116 80 141 232 202 178 160 139 130 133 153 152 155 158 156 159 164 145 156 155 173 193 215 217 214 209 208 201 200 184 163 134 106 94 104 105 123 140 158 175 176 185 188 188 205 203 197 206 199 178 170 190 180 178 178 185 187 188 169 158 161 159 172 173 188 93 87 130 152 140 162 153 158 164 159 170 178 155 165 163 174 170 
180 161 157 148 133 149 166 164 149 132 124 107 84 226 203 183 163 147 134 144 156 170 173 174 148 150 141 113 119 126 159 195 226 232 230 224 217 216 225 218 204 183 166 150 160 164 176 186 190 204 198 198 200 200 210 212 194 189 190 170 154 178 191 193 188 187 189 181 166 162 164 168 174 193 149 88 108 137 148 148 162 163 161 162 156 169 173 152 166 156 177 168 
182 150 144 140 139 154 161 160 135 144 138 112 80 169 218 187 166 162 136 140 158 185 188 182 175 133 105 97 84 76 97 144 180 199 208 231 227 225 234 237 235 226 217 209 210 220 221 221 219 208 214 218 225 214 217 206 181 159 155 161 133 168 188 183 178 180 182 186 161 171 165 173 184 192 119 98 123 142 149 153 162 162 163 162 158 172 169 149 151 165 173 163 
157 139 145 139 147 168 166 149 135 165 144 126 98 104 204 196 168 168 154 140 142 168 184 183 191 152 107 133 131 135 105 51 76 102 119 147 173 187 205 210 216 229 239 242 245 249 236 227 224 213 220 224 219 221 204 188 156 117 126 136 137 137 183 185 186 182 182 171 166 176 166 177 197 167 92 114 131 146 154 168 162 161 171 163 159 166 167 151 144 163 175 166 
144 140 149 145 168 173 169 145 150 163 143 127 113 76 169 204 170 171 156 148 142 146 167 161 175 157 140 171 180 181 185 153 86 67 56 64 76 91 92 98 110 156 182 202 206 216 194 174 170 164 179 182 166 160 127 113 108 96 111 130 136 150 191 202 197 181 173 163 165 179 177 192 195 130 93 128 139 149 161 168 160 169 176 157 165 170 163 146 143 168 169 161 
137 140 149 162 168 173 161 146 172 164 136 130 128 93 118 203 164 165 161 158 147 137 145 151 159 154 158 181 183 196 190 194 183 131 90 84 66 53 21 29 51 69 99 124 120 123 123 116 106 96 98 105 93 97 87 119 167 174 164 174 169 172 204 199 191 174 163 158 165 176 185 199 162 102 117 132 147 155 168 168 166 168 175 165 169 162 164 141 153 162 161 156 
128 141 149 167 171 171 155 156 173 161 131 136 132 102 115 194 155 147 166 159 162 142 142 145 156 165 166 176 183 188 180 187 176 186 149 142 151 142 104 68 47 55 57 69 77 78 80 76 65 77 97 94 96 125 167 195 195 200 218 208 189 180 188 185 181 163 152 153 173 178 196 170 128 125 124 150 156 161 166 177 168 174 169 175 164 162 156 144 147 159 159 146 
139 130 159 164 175 155 159 163 158 156 130 137 143 100 124 203 151 131 159 160 158 159 150 155 163 168 180 177 184 184 178 182 187 169 173 145 145 154 175 172 150 121 95 74 81 99 122 124 137 135 143 133 149 171 194 194 200 209 221 196 182 175 176 174 173 149 148 158 174 195 178 130 124 132 141 157 161 165 165 184 162 178 178 169 162 167 150 141 146 156 156 146 
138 136 159 161 156 148 158 154 148 141 129 134 140 104 123 218 161 121 144 159 156 170 167 162 169 177 176 182 183 180 172 150 177 174 167 169 151 127 152 167 187 187 181 163 174 169 177 168 158 142 138 143 158 174 175 177 197 199 202 189 184 179 175 166 159 149 157 162 180 187 129 96 131 158 154 166 170 170 166 176 173 175 182 158 161 158 153 138 148 147 146 144 
133 149 158 151 142 142 155 142 139 128 128 139 134 108 132 213 180 136 120 138 153 160 178 172 179 184 183 179 183 169 164 158 145 159 163 162 158 158 146 144 145 157 153 150 152 147 140 141 137 143 156 162 168 168 168 175 202 195 197 190 190 183 179 167 152 158 159 171 172 119 92 104 149 169 165 160 180 173 173 174 167 177 169 155 169 153 146 142 145 161 136 139 
134 146 161 147 134 145 142 139 138 126 127 140 129 95 139 213 185 149 129 113 141 148 169 185 185 198 194 181 183 183 172 168 155 130 142 155 150 147 141 129 128 138 141 140 138 133 135 143 147 154 158 168 163 158 173 199 202 198 200 197 198 193 184 160 156 157 166 164 114 96 110 127 167 175 166 166 185 169 169 174 170 162 161 163 172 150 142 147 144 149 139 140 
139 153 152 140 130 146 144 135 140 135 136 133 138 103 159 221 187 154 142 125 112 138 153 169 185 198 206 201 195 192 194 188 168 149 122 118 129 138 137 127 118 120 124 131 129 133 141 152 153 156 158 160 151 166 193 197 207 206 206 202 199 192 173 150 151 163 158 89 83 110 137 158 180 178 171 174 185 161 167 166 160 149 164 163 170 139 146 151 150 147 138 145 
147 162 149 145 140 137 149 137 138 138 135 138 140 100 160 226 191 158 140 141 112 116 135 156 171 186 205 205 203 195 195 195 191 165 140 122 105 106 110 111 113 111 113 113 123 128 129 139 136 136 138 146 169 183 201 203 205 207 208 201 196 173 154 145 148 149 103 71 104 131 165 159 171 165 172 168 175 156 171 152 154 150 170 162 156 146 147 148 148 145 143 146 
139 159 142 140 147 138 139 143 136 134 143 136 135 91 171 228 186 166 144 138 133 109 118 133 156 176 193 198 211 202 196 194 201 180 167 156 137 119 107 101 95 94 89 95 99 98 99 115 122 131 155 169 186 199 204 209 208 206 209 197 171 147 144 139 134 115 87 90 115 155 164 157 161 163 163 170 166 152 168 144 147 165 172 166 149 142 148 151 140 145 143 142 
131 153 143 137 145 146 145 137 134 138 133 141 130 100 172 207 180 167 150 136 136 132 111 113 135 152 176 194 200 213 204 202 204 200 189 180 175 158 148 134 119 111 106 102 116 116 129 135 153 160 174 192 192 203 200 208 202 200 195 162 143 133 127 113 118 112 101 101 131 154 153 155 158 154 157 160 155 155 151 148 142 190 185 150 153 143 151 148 142 145 138 134 
132 145 146 148 140 147 147 132 131 138 141 146 132 109 175 194 180 158 158 140 136 133 127 117 114 127 160 179 192 210 212 217 207 203 196 190 184 178 179 171 167 163 159 160 165 158 165 165 165 174 181 195 191 197 197 196 199 188 167 139 124 116 111 115 127 127 98 113 140 153 150 156 159 146 155 155 150 156 145 154 162 190 169 154 150 150 149 142 145 141 141 127 
141 143 150 153 146 142 141 136 122 141 157 142 135 115 166 186 179 157 158 157 135 133 133 125 116 115 125 159 182 203 216 211 223 215 213 207 196 192 198 191 188 185 191 193 187 189 190 190 189 187 188 195 196 198 195 191 175 173 124 113 105 97 114 129 151 122 113 118 147 146 150 153 158 151 155 148 153 148 151 158 181 167 158 155 150 147 142 144 141 139 138 128 
150 137 153 149 152 144 136 125 134 159 163 146 138 121 153 182 176 157 153 156 142 132 134 132 127 117 116 127 165 186 199 206 226 230 225 224 214 207 204 206 199 196 200 197 196 200 199 202 202 200 202 199 198 196 188 176 165 131 101 101 97 109 132 155 161 122 114 128 147 145 149 159 150 157 148 157 151 148 164 162 179 156 153 151 150 146 137 142 139 143 136 126 
150 135 147 150 145 145 128 125 145 176 168 141 144 126 145 170 170 158 157 157 149 149 133 134 133 123 119 120 130 167 185 200 215 229 231 237 226 219 218 210 208 205 207 204 206 204 208 210 213 204 207 213 200 186 181 164 133 103 102 98 113 123 153 168 162 118 111 138 146 142 154 153 151 156 153 147 153 169 165 166 166 150 149 151 147 138 139 139 139 140 136 132 
