P2
# Imagen
92 112
255
131 116 122 127 134 138 137 134 144 125 95 65 54 84 71 33 24 43 52 60 55 68 75 87 92 103 128 143 134 126 130 133 127 126 127 122 130 135 128 125 126 130 122 128 118 130 117 128 136 114 130 122 126 126 124 112 110 111 104 101 105 96 92 90 63 97 145 147 138 143 149 148 151 144 140 135 135 133 133 137 137 133 135 136 136 136 134 136 134 138 134 135 
129 120 107 125 120 133 138 127 144 127 92 60 47 49 33 26 27 50 67 64 63 66 87 101 109 118 130 141 144 139 128 133 135 128 131 128 131 137 142 127 132 132 136 125 127 133 134 128 133 137 125 126 133 121 128 140 115 123 114 109 116 108 105 104 104 95 93 154 155 139 147 148 146 150 146 133 134 132 133 134 131 134 129 135 136 135 135 133 138 134 134 136 
112 119 104 96 126 116 127 124 123 105 54 39 33 26 37 23 41 61 77 72 79 74 100 108 122 131 135 148 136 145 134 133 143 133 133 132 131 140 145 132 137 139 145 131 133 137 141 136 137 137 133 141 133 135 124 133 136 130 128 124 124 103 125 109 107 121 103 104 140 156 161 151 144 147 145 140 131 135 130 130 134 130 128 132 136 134 137 133 134 131 137 138 
104 95 92 74 88 116 114 106 65 40 26 26 38 38 46 45 62 75 89 88 94 97 113 124 134 121 136 155 155 142 147 123 145 138 135 138 132 142 152 140 139 143 138 142 140 150 137 150 150 138 136 159 148 137 142 140 135 133 150 130 136 128 117 119 126 112 121 113 133 116 144 174 168 143 143 148 148 142 135 133 139 135 134 131 132 139 134 138 133 138 132 136 
117 101 87 70 53 70 82 45 22 17 29 31 52 50 60 61 80 93 96 103 108 117 119 131 138 126 130 146 171 140 155 128 141 143 138 130 138 136 157 149 136 142 140 141 148 145 159 139 158 160 146 136 179 158 142 162 143 133 156 167 137 155 130 120 134 119 127 121 128 136 106 130 175 174 154 148 144 147 148 139 141 137 135 138 130 134 132 137 135 132 136 135 
121 105 96 82 84 55 24 29 31 24 33 54 69 71 82 80 97 103 108 106 118 129 121 134 138 135 130 130 177 139 156 151 129 151 135 130 148 138 163 158 141 140 147 141 158 129 174 155 137 171 162 140 164 194 149 160 168 136 144 151 177 142 162 133 140 127 132 140 120 135 130 106 127 168 184 164 149 145 148 143 137 136 138 137 139 132 136 136 133 138 136 131 
116 97 82 79 73 44 22 30 41 33 48 62 85 90 88 94 109 110 116 123 126 137 128 135 137 138 131 140 163 144 141 157 127 153 147 134 146 149 154 180 157 133 154 147 155 136 150 174 150 156 169 158 147 181 179 152 172 156 147 144 158 171 143 149 148 144 138 149 152 130 143 110 115 138 162 189 172 161 150 145 140 135 133 139 140 129 137 136 134 135 134 136 
112 91 86 68 40 25 29 37 36 44 65 82 99 101 98 98 117 122 139 131 144 135 129 129 141 137 133 143 147 134 138 154 138 139 158 138 139 153 144 179 175 138 143 153 148 153 139 165 170 168 145 180 156 157 185 169 169 171 155 154 139 163 155 146 154 144 154 143 160 172 154 131 108 153 131 145 177 177 164 154 151 148 133 138 139 124 136 136 133 134 132 136 
86 60 51 38 30 29 35 46 48 58 83 101 110 100 109 110 117 132 143 138 151 145 135 136 140 135 139 137 155 127 141 148 138 131 177 144 137 158 142 161 187 153 139 159 159 145 147 157 168 184 145 168 178 165 160 182 170 185 169 155 156 149 167 143 173 135 150 160 144 176 170 149 130 141 156 128 133 171 171 165 156 150 148 136 132 132 132 132 134 138 136 132 
64 42 26 33 32 34 41 48 73 76 98 101 111 111 113 124 121 140 132 146 144 141 136 136 144 140 132 143 156 144 128 148 152 129 174 159 131 157 153 145 179 168 138 157 168 138 149 165 152 185 156 153 176 172 155 156 171 167 188 164 164 156 176 164 152 166 124 168 145 165 162 168 147 138 154 151 133 127 163 174 164 156 154 140 131 130 130 136 128 134 137 132 
32 20 32 34 39 42 47 67 88 98 97 118 124 123 134 125 126 142 139 134 145 131 147 133 146 144 129 141 165 144 117 151 154 127 170 160 131 149 151 148 162 166 134 151 162 162 133 165 146 157 167 137 156 160 161 157 166 156 180 178 162 174 151 186 138 164 144 131 170 153 158 162 155 145 147 142 157 136 104 172 180 160 165 152 137 137 141 139 127 137 127 129 
20 31 31 34 57 56 69 89 90 105 111 131 141 133 141 133 120 134 145 129 145 130 131 128 146 142 126 133 165 136 117 146 144 122 156 159 133 146 144 150 145 161 131 153 150 169 136 147 161 137 162 139 136 142 157 144 170 150 156 179 158 166 135 162 154 142 159 121 142 171 162 160 146 153 140 152 151 171 129 106 181 181 158 154 148 147 147 143 130 136 137 131 
35 34 29 40 70 85 84 92 102 121 131 134 146 145 138 140 126 127 142 130 143 134 126 131 141 148 127 135 154 142 111 140 142 130 137 150 133 147 128 145 138 152 130 146 135 156 146 141 158 132 155 140 137 143 141 142 143 154 140 155 168 153 136 132 162 142 140 139 112 151 168 159 134 160 151 141 145 162 152 124 125 189 183 155 153 149 149 145 134 129 136 136 
35 37 28 52 83 107 91 110 116 138 131 141 150 142 129 144 136 129 158 121 139 135 138 129 149 144 123 136 156 132 114 137 144 131 145 134 126 152 127 134 136 143 133 132 144 131 144 146 135 132 135 141 124 123 137 130 127 145 131 142 157 150 139 119 133 146 135 135 122 126 159 155 136 149 156 151 137 150 155 135 127 180 189 186 150 141 145 146 141 141 129 133 
34 40 40 64 93 111 106 144 127 147 133 151 156 143 135 139 141 134 165 126 143 139 141 131 150 137 133 133 152 135 111 139 130 131 149 128 119 147 129 123 128 134 135 127 132 130 130 138 133 117 127 144 133 111 128 126 121 144 124 133 142 144 136 130 110 135 153 117 126 123 139 156 140 141 159 151 150 136 156 136 132 167 196 189 182 148 136 153 144 148 132 129 
36 49 53 75 111 110 138 153 134 135 138 128 160 148 141 143 133 144 153 142 142 142 144 137 147 139 132 142 142 133 124 133 122 123 140 126 106 140 117 115 127 118 122 131 118 119 126 131 128 120 121 137 142 118 105 124 112 128 143 108 140 124 146 114 121 114 154 129 112 124 131 148 137 130 148 141 154 139 155 143 134 151 179 191 206 171 140 147 150 145 147 135 
38 72 68 91 132 133 142 150 127 148 135 127 144 152 149 146 132 143 153 142 151 139 151 138 143 146 137 142 143 134 131 119 123 109 126 119 101 129 113 112 119 112 114 118 126 110 115 120 119 116 109 129 138 122 103 112 112 103 145 114 126 117 136 122 112 107 123 140 115 106 114 133 135 121 132 139 136 147 142 152 147 148 157 202 195 194 161 140 141 145 147 138 
33 87 82 110 141 142 141 141 134 149 146 129 139 143 139 148 138 137 145 134 150 144 146 141 142 144 150 129 135 141 122 114 119 107 118 105 93 124 112 114 103 108 108 109 128 104 98 115 107 110 105 120 121 120 101 106 107 96 116 121 102 111 114 117 118 111 99 124 125 104 97 114 135 118 129 133 138 130 134 153 160 139 135 177 206 194 183 157 136 144 146 148 
26 80 118 111 149 147 143 145 141 145 150 144 128 133 140 148 146 143 143 133 142 142 138 143 141 138 149 126 141 138 117 103 116 106 108 106 89 114 116 106 103 98 110 104 113 108 92 104 105 106 96 113 110 105 101 104 107 94 95 120 96 104 96 111 107 113 100 103 125 102 98 110 127 114 119 135 137 131 130 154 146 139 128 155 204 191 188 165 146 141 143 149 
42 69 134 126 148 149 143 143 137 141 146 147 132 129 135 151 144 137 151 140 131 133 138 137 150 133 152 126 137 127 112 109 108 110 113 103 99 112 118 107 107 99 102 102 110 108 97 97 107 105 95 112 105 107 100 95 103 97 92 108 107 106 103 103 101 105 102 100 106 115 97 102 119 116 103 137 126 131 137 147 138 141 140 142 165 201 180 175 141 138 143 140 
65 87 141 143 126 157 142 145 144 134 139 146 133 122 127 148 143 143 142 139 128 140 135 132 151 132 145 125 133 124 118 108 107 114 107 106 107 113 114 109 103 99 98 104 109 107 106 99 117 110 100 107 103 106 105 98 95 103 89 102 116 98 106 98 105 99 106 106 104 115 102 104 113 115 101 125 120 127 124 142 124 143 147 133 145 188 185 168 126 123 148 146 
69 100 114 163 117 146 150 137 139 137 129 145 128 136 150 143 150 148 146 135 145 152 145 125 150 138 134 132 131 126 117 118 111 121 109 108 116 114 111 108 107 105 111 100 106 108 112 114 106 107 106 115 104 107 109 105 96 101 101 100 111 102 103 108 95 100 113 109 113 117 110 103 111 113 104 116 117 116 131 140 149 159 162 148 136 167 182 183 148 119 146 146 
85 106 132 140 142 119 150 137 136 133 131 139 125 143 170 173 149 144 151 152 142 159 154 131 147 144 140 136 133 127 124 125 114 127 119 110 122 116 115 109 117 118 117 117 111 104 120 118 123 104 115 116 110 115 110 112 104 101 104 108 112 104 114 112 110 109 113 114 123 120 122 122 114 116 106 109 120 121 138 146 149 147 154 141 124 162 185 172 160 138 143 139 
118 110 142 153 129 113 131 130 143 133 129 139 153 150 161 195 171 140 139 169 145 157 178 147 156 148 141 143 140 137 129 135 115 140 128 116 120 130 126 122 130 128 143 131 120 121 124 150 135 138 133 132 110 130 123 115 115 110 103 124 124 115 120 124 135 132 135 124 140 147 137 140 131 125 115 111 120 120 124 131 135 128 142 143 114 137 198 173 171 165 137 141 
117 152 124 160 141 117 130 122 132 147 136 148 176 181 152 191 186 161 129 153 162 156 177 158 155 141 144 140 138 149 133 146 136 157 135 129 139 141 146 143 145 173 170 166 143 153 159 177 159 163 167 156 135 142 128 129 129 128 119 125 138 144 146 151 162 153 158 156 167 171 166 161 153 144 137 132 122 130 122 127 131 135 145 143 134 122 183 184 179 174 146 139 
124 148 156 131 165 132 115 131 126 153 154 150 163 170 161 195 162 180 141 135 163 162 163 156 153 145 124 168 127 138 140 143 151 175 154 153 148 151 160 155 155 189 190 188 168 175 189 190 177 178 188 174 142 162 138 153 141 152 135 129 150 160 162 169 174 170 170 178 200 188 194 186 175 166 167 140 128 135 137 130 125 134 139 131 139 115 185 195 181 177 158 140 
140 139 142 142 132 151 120 118 145 164 173 162 158 170 174 177 149 166 175 151 130 147 147 153 148 168 132 137 162 134 125 117 141 156 161 158 161 177 186 187 168 184 183 196 174 177 196 192 187 163 193 190 168 158 167 160 153 166 158 152 156 169 165 178 188 175 172 187 196 182 195 198 189 166 151 155 139 145 156 143 122 123 132 130 127 110 162 221 185 174 167 150 
139 148 131 144 136 124 138 126 140 161 162 166 186 162 159 158 152 159 153 157 141 142 131 138 143 148 141 135 140 133 128 130 121 135 139 139 163 160 195 205 176 175 162 172 179 152 180 179 169 159 165 179 163 159 163 163 159 159 164 157 162 163 166 168 180 184 171 190 198 187 196 205 194 169 164 151 158 143 151 143 147 134 142 127 133 119 156 209 199 178 177 160 
151 140 148 138 131 124 129 137 149 160 151 171 187 157 157 147 143 140 145 150 143 147 139 133 140 128 141 137 120 113 108 115 119 121 121 133 157 128 164 177 176 160 168 142 170 130 147 175 147 141 149 166 157 132 143 153 142 142 154 146 147 145 152 150 172 185 169 186 195 189 190 198 209 179 168 159 150 144 138 137 138 140 144 144 132 123 147 200 211 186 173 157 
156 156 133 131 135 129 123 134 140 157 159 157 150 166 151 127 135 132 140 139 147 138 143 136 132 131 130 133 121 127 120 119 126 103 114 125 144 129 126 162 164 156 146 141 147 123 124 163 149 113 136 145 141 123 129 129 116 114 141 133 144 146 140 137 160 173 166 176 192 194 184 184 196 191 169 162 152 133 136 130 139 140 144 150 145 130 149 185 201 201 176 170 
145 152 141 138 135 124 123 139 139 154 162 146 152 150 144 118 127 125 130 132 138 137 128 126 116 130 133 127 126 129 112 113 113 93 110 122 120 131 117 144 151 140 144 129 131 129 104 128 127 92 119 130 138 130 124 133 120 112 138 131 140 158 136 141 150 166 170 171 187 196 188 185 192 194 183 166 158 139 130 119 136 138 142 148 152 136 144 182 196 192 175 171 
142 149 138 144 137 132 132 139 136 158 157 157 143 148 146 106 124 123 129 120 135 140 131 117 123 134 119 131 109 114 96 110 109 109 107 124 114 132 114 122 143 135 132 141 138 121 109 119 126 100 114 138 127 139 134 132 119 112 123 134 141 151 144 135 149 156 176 177 188 191 194 193 199 199 188 172 160 149 136 136 122 132 136 145 146 143 148 177 185 184 181 154 
135 151 133 145 129 144 137 131 138 152 153 148 134 152 142 112 108 117 118 113 123 127 120 116 133 122 113 111 112 109 98 110 119 108 111 118 121 131 121 126 138 132 136 147 151 133 121 119 121 100 113 131 119 128 135 129 112 111 117 133 143 146 154 133 150 148 163 173 181 196 189 186 201 194 197 180 169 159 145 145 135 122 125 139 139 138 132 181 181 168 169 160 
124 147 137 136 134 143 136 126 147 143 144 133 140 137 134 101 96 117 110 113 118 115 108 116 127 111 107 107 116 109 103 109 120 117 114 127 131 138 138 136 139 127 144 148 148 141 135 130 133 95 101 129 120 118 132 133 113 118 107 129 142 149 156 139 143 147 155 165 174 189 183 186 197 194 194 187 186 167 155 151 142 127 123 127 132 134 130 146 194 167 166 150 
134 137 151 137 127 134 131 123 136 135 140 139 138 136 131 99 81 116 104 108 106 109 101 112 121 97 112 119 113 106 102 115 120 117 123 132 136 137 139 140 140 131 141 142 143 141 137 136 135 112 106 119 124 124 129 137 114 116 118 115 135 148 147 146 136 152 156 160 165 178 179 183 192 193 193 186 199 180 166 159 146 135 124 125 121 133 139 125 174 179 165 139 
133 135 153 137 132 129 122 120 140 136 135 138 134 128 123 100 63 117 88 108 93 105 95 110 107 94 115 123 109 109 107 123 120 114 128 132 136 125 137 134 136 129 135 139 141 137 131 139 134 111 122 119 119 122 125 129 112 115 113 119 125 144 144 144 134 148 158 157 156 167 174 175 182 185 186 180 194 185 176 164 160 142 124 136 115 117 143 155 131 164 167 164 
133 134 141 138 139 129 124 126 132 132 128 131 132 117 127 96 59 100 89 97 86 105 92 102 103 99 125 127 112 109 112 125 121 114 131 127 133 114 132 132 136 128 127 137 136 135 133 134 125 116 124 118 120 121 123 129 112 108 117 119 115 131 138 137 130 148 151 156 151 156 166 167 175 175 175 180 183 193 181 175 180 154 133 128 123 130 119 168 130 122 166 169 
139 138 130 139 129 132 120 130 130 119 118 126 128 111 112 96 57 91 85 86 84 96 84 100 114 107 129 119 110 116 110 124 122 118 125 127 135 108 125 133 129 125 126 129 134 134 129 130 122 112 123 122 120 120 120 123 114 109 117 117 116 121 139 141 135 138 144 149 144 154 161 159 162 164 164 177 178 185 184 183 184 173 143 126 129 124 123 150 164 128 136 176 
142 137 137 141 128 126 128 129 128 115 117 128 116 102 109 80 54 92 77 76 82 101 80 107 115 108 123 114 116 120 117 119 120 121 125 124 127 109 115 130 123 124 125 125 126 128 123 127 120 119 118 119 119 121 120 121 118 110 114 114 117 116 134 135 135 131 140 144 141 153 158 155 154 157 161 171 169 179 180 185 190 180 149 121 125 130 129 123 178 130 138 150 
143 139 137 139 146 129 129 125 126 117 121 121 113 100 99 65 63 79 78 73 78 100 94 100 124 120 123 118 117 123 121 121 119 123 121 118 119 104 113 122 119 119 126 125 124 122 123 124 123 121 119 110 113 115 118 118 120 117 119 112 120 121 129 128 131 133 140 136 140 155 153 154 152 150 151 166 164 174 176 185 192 187 156 128 122 130 141 116 176 142 142 156 
139 144 132 138 145 137 136 126 118 121 118 118 111 90 87 54 61 74 75 77 75 105 106 103 126 131 124 118 119 126 118 119 118 123 121 123 117 112 114 121 118 126 124 120 123 121 121 121 120 116 118 111 113 113 113 118 113 112 116 114 113 122 128 131 129 131 131 133 144 147 151 145 149 150 149 159 160 162 174 188 187 190 157 128 125 129 145 126 149 168 124 176 
125 145 140 134 147 141 134 119 115 119 122 114 107 87 77 49 56 78 72 73 85 104 113 105 129 129 125 118 122 126 116 117 123 122 126 123 110 113 115 118 121 124 121 119 120 118 119 120 118 120 118 117 111 113 110 112 113 106 116 118 112 120 126 135 126 120 121 133 140 146 138 143 145 148 146 160 160 160 171 182 189 190 163 124 127 125 147 147 120 176 115 156 
130 146 147 139 150 142 123 117 115 121 115 108 96 82 66 46 55 77 86 63 94 113 118 106 127 141 126 127 135 136 127 128 134 133 131 135 119 119 120 123 123 120 121 118 120 120 114 116 117 117 110 114 115 110 116 114 115 112 118 119 119 128 125 136 135 126 130 139 142 141 139 143 146 143 145 150 164 154 165 181 186 186 166 121 127 128 136 152 127 158 139 117 
143 144 158 150 142 142 126 116 115 118 109 109 87 77 56 52 58 74 74 77 94 122 130 118 110 144 128 132 134 137 136 133 140 138 142 141 127 127 126 125 125 119 117 117 118 116 117 109 114 113 110 114 114 112 113 114 122 118 124 128 132 129 129 132 135 133 139 143 141 143 146 144 147 138 146 151 160 152 168 181 189 189 161 121 124 132 135 146 148 140 143 123 
145 143 157 154 158 144 123 124 109 117 111 103 88 73 57 56 56 67 71 87 107 114 127 139 117 132 129 128 138 142 138 141 141 139 142 141 132 134 133 130 124 122 119 119 122 117 117 113 115 113 116 110 117 115 114 119 121 125 127 130 133 133 133 134 133 140 140 144 149 145 148 153 154 150 156 153 158 157 166 179 191 189 152 120 125 127 145 137 153 147 141 159 
136 150 147 150 156 140 123 116 118 118 109 101 77 70 51 62 57 61 79 96 100 117 117 126 122 118 130 131 130 139 138 138 140 135 139 136 133 138 136 136 130 123 118 121 120 121 113 118 118 113 117 116 116 120 119 126 124 130 129 134 135 138 135 130 131 139 139 143 149 155 154 160 157 165 168 159 155 162 166 179 190 194 146 119 130 127 142 147 143 158 138 176 
129 134 152 148 149 138 118 125 119 110 116 95 82 60 55 56 55 64 83 88 89 110 112 106 108 105 113 127 130 128 134 135 134 134 132 132 135 139 132 137 133 124 123 121 121 119 118 120 123 120 120 120 124 125 127 126 130 132 133 132 135 135 132 134 130 135 138 135 146 151 153 152 157 162 172 171 163 157 172 179 194 186 145 121 129 125 135 167 144 164 137 173 
135 134 128 151 159 134 124 119 117 109 108 93 72 64 51 57 62 63 69 84 84 101 108 111 106 102 92 114 123 127 122 128 125 130 134 127 129 134 135 136 135 130 123 126 125 123 121 121 125 119 123 126 124 128 129 129 131 134 130 127 134 133 131 129 127 132 130 140 141 149 151 155 159 158 168 172 175 168 168 188 195 194 131 120 139 123 133 183 142 169 133 183 
134 137 127 135 150 135 125 121 117 106 107 88 76 68 45 52 63 58 70 90 86 106 119 113 120 116 106 98 121 129 125 126 125 126 133 128 130 136 132 133 136 130 125 127 126 126 123 123 123 124 126 126 127 129 131 134 135 131 130 127 133 132 128 128 128 127 132 137 145 148 154 162 164 158 163 167 179 175 168 182 196 188 130 120 138 130 124 183 159 153 141 171 
125 132 144 134 137 133 125 123 114 110 107 93 75 65 51 55 50 66 84 93 95 112 117 124 124 125 129 116 117 129 133 133 128 129 138 131 130 131 130 128 132 130 127 129 124 125 121 122 121 124 127 123 129 130 130 131 135 132 129 130 137 129 133 133 135 132 137 139 152 150 154 164 167 164 163 170 175 174 169 183 195 184 127 124 138 131 131 188 182 164 154 169 
141 117 134 138 138 125 125 124 117 110 104 98 81 69 53 70 62 74 95 104 104 115 123 128 122 130 133 139 131 125 139 132 132 130 133 130 127 127 126 122 124 129 127 122 120 122 120 118 122 122 123 124 127 129 124 134 129 132 129 132 131 127 134 133 138 134 138 147 152 155 154 160 154 158 162 161 163 172 160 175 190 186 126 126 138 129 137 198 207 185 173 170 
160 123 127 133 139 132 122 122 118 113 113 92 78 73 65 75 79 84 100 114 121 123 138 132 135 133 141 146 151 145 134 128 126 127 129 121 114 124 124 116 119 121 116 120 114 115 115 116 117 114 123 118 124 125 123 130 128 132 132 130 129 129 136 138 137 139 139 148 150 154 155 152 144 146 154 147 151 158 155 154 185 179 121 125 143 128 138 205 211 197 191 179 
149 140 136 127 143 132 126 116 123 124 114 100 81 71 78 91 99 112 124 131 136 133 147 150 152 148 145 149 153 126 98 93 95 91 99 95 84 105 104 96 103 109 108 107 105 103 103 108 106 104 105 112 121 121 122 127 127 127 131 135 133 135 131 141 141 137 141 145 146 143 134 128 118 104 110 102 111 118 113 120 140 161 118 133 139 140 141 211 206 200 195 182 
156 136 133 132 142 132 121 119 127 126 122 101 89 87 103 113 125 144 153 154 154 155 163 167 166 164 162 158 131 98 67 59 74 63 47 37 46 44 45 47 49 59 56 57 59 70 79 77 88 83 88 100 115 115 125 127 134 135 135 135 131 140 130 129 130 134 127 120 120 116 99 83 81 75 72 66 71 85 90 90 109 138 120 131 134 150 142 213 209 193 197 176 
147 142 136 128 136 128 118 114 129 117 120 99 104 107 128 129 151 168 182 181 182 179 173 177 172 160 128 109 87 76 73 68 74 59 38 23 29 24 16 9 6 13 3 8 1 17 28 41 53 63 73 94 111 119 130 135 147 144 136 127 135 139 138 121 119 125 110 77 76 72 74 74 66 71 73 68 73 76 85 93 103 119 122 132 127 153 169 211 209 198 187 176 
140 139 140 134 132 121 112 111 121 118 109 101 106 123 131 150 169 195 202 203 201 205 186 175 158 106 87 88 95 98 81 79 81 58 45 44 33 20 17 8 18 13 3 6 5 5 4 28 34 42 52 91 114 128 133 136 153 154 143 137 143 144 140 143 129 112 77 59 52 61 72 81 76 79 85 90 99 97 118 138 130 123 125 124 128 168 178 220 208 205 180 178 
143 139 145 136 136 121 107 114 116 116 105 93 110 125 142 154 186 206 203 205 203 202 185 152 130 108 111 131 147 142 140 129 117 97 86 89 83 63 50 45 24 31 26 22 32 23 40 38 51 44 56 86 119 138 139 148 160 167 162 148 145 147 148 144 138 102 82 68 71 77 86 102 109 121 125 136 154 159 167 178 176 150 123 123 130 186 198 222 211 200 184 177 
149 143 149 146 136 118 109 110 126 117 99 97 117 134 140 170 190 197 200 204 199 174 149 117 126 138 160 182 199 195 194 180 179 161 146 145 132 127 111 100 87 56 54 50 57 61 62 71 71 71 73 105 132 142 152 156 174 186 179 165 157 150 154 148 121 104 110 109 109 117 122 136 149 164 167 162 164 173 169 179 196 190 118 111 138 195 216 215 210 198 189 179 
154 155 145 150 134 120 106 118 134 125 88 99 134 136 149 179 187 190 198 192 168 145 147 146 152 168 182 199 202 196 188 172 166 157 138 130 115 108 94 81 75 71 65 68 70 74 74 78 84 89 93 115 127 144 159 168 182 193 194 191 180 166 159 140 118 118 132 130 122 111 106 102 101 117 129 121 121 140 142 158 187 199 121 112 136 196 212 208 204 193 188 177 
153 157 150 162 135 119 112 123 137 121 91 104 136 143 159 180 191 190 188 167 140 134 145 155 163 170 175 181 179 168 154 139 131 119 102 93 75 71 60 49 43 30 34 41 45 68 70 77 79 86 98 109 122 147 171 177 186 197 198 195 187 167 148 115 115 119 120 103 100 77 70 66 61 63 86 89 104 78 109 130 165 186 117 117 137 187 211 206 204 200 189 174 
157 159 150 161 146 113 107 131 126 113 92 112 136 143 169 186 198 190 187 169 151 151 168 171 169 164 147 149 134 116 96 97 92 79 93 88 73 57 39 38 30 15 31 27 36 38 63 82 84 87 99 105 125 157 182 185 186 200 197 198 186 150 121 106 102 105 106 103 123 66 39 52 50 33 62 70 78 79 81 113 151 184 109 119 137 167 190 200 195 193 190 181 
171 164 163 162 142 106 115 126 119 115 86 113 133 140 170 190 202 195 190 177 161 154 173 182 169 154 137 119 118 105 79 72 75 72 123 125 87 58 35 40 41 13 15 63 24 55 48 74 89 95 102 105 122 160 184 194 193 200 201 200 186 125 100 108 114 112 101 135 150 112 49 67 48 34 60 94 75 77 86 112 150 173 114 113 163 195 176 164 195 192 193 184 
196 189 172 172 125 100 119 119 114 106 82 115 126 150 171 195 202 202 194 184 169 157 178 180 159 133 133 133 123 89 69 73 98 125 165 182 85 62 40 49 27 17 0 107 58 28 65 66 94 104 110 109 125 161 197 212 207 206 214 224 199 130 121 118 118 111 141 168 145 100 66 76 49 41 63 140 83 67 87 126 151 185 111 109 185 208 223 193 171 163 197 197 
216 211 164 169 109 110 111 110 107 96 71 115 128 147 168 187 195 199 199 191 175 166 177 178 146 137 138 150 104 61 83 108 137 158 185 218 110 69 61 44 41 1 32 111 79 30 41 84 102 110 118 124 141 168 197 209 216 209 211 244 212 132 146 125 111 115 147 176 158 106 87 80 60 41 84 141 99 74 81 132 165 193 115 112 182 211 219 209 203 175 153 195 
209 186 164 142 115 113 109 111 100 86 72 111 118 144 159 170 183 194 197 194 186 178 186 180 170 156 153 169 136 77 91 126 125 116 168 202 160 65 56 42 46 15 54 87 71 59 54 89 113 115 124 137 156 172 204 211 216 212 215 235 233 148 137 141 109 96 112 139 153 109 85 92 70 64 117 134 96 91 115 134 177 194 128 106 165 220 210 207 204 189 170 142 
200 177 152 140 114 108 109 109 100 82 75 112 122 141 150 156 164 180 183 184 190 185 195 202 187 176 176 181 156 128 124 124 111 92 117 159 168 107 82 99 89 72 82 79 74 79 91 99 109 117 131 149 157 186 195 210 209 201 210 230 234 166 116 126 136 119 120 128 146 135 141 130 104 95 104 113 109 115 145 156 172 199 133 129 150 198 219 201 204 194 198 163 
212 172 143 153 116 112 106 111 94 75 74 109 121 139 145 151 149 171 177 177 186 186 187 196 181 176 187 175 155 145 149 151 137 110 111 117 111 96 93 97 102 72 72 81 79 79 87 99 120 121 141 156 159 177 197 203 205 193 204 216 224 186 124 117 109 103 113 126 138 135 131 113 85 94 100 126 137 129 149 158 171 202 138 139 157 186 210 212 190 201 198 183 
202 162 139 159 120 114 119 119 91 74 72 109 116 139 138 141 147 157 162 172 174 181 184 188 177 167 171 165 163 161 147 141 139 121 127 126 115 104 98 91 82 72 67 80 87 81 84 105 123 135 144 159 159 171 192 193 196 191 189 201 210 183 120 125 107 77 99 123 134 140 132 114 105 109 112 127 128 136 150 158 164 198 147 118 177 162 212 209 189 195 202 201 
192 160 160 158 116 122 136 119 84 80 65 103 117 131 135 135 145 146 154 160 160 167 174 181 176 172 168 163 156 158 150 143 120 114 112 105 109 99 96 86 79 67 68 92 89 101 118 128 138 146 153 164 166 167 178 188 188 186 190 188 201 194 113 126 125 102 90 97 105 122 120 100 98 100 106 123 132 136 147 149 161 199 159 106 171 151 202 211 201 197 195 205 
205 161 169 158 116 145 132 117 93 76 58 102 113 125 126 134 138 143 147 151 154 158 160 165 169 166 167 160 165 162 154 150 135 124 113 100 91 88 83 83 81 78 78 94 110 127 137 148 150 154 160 164 167 167 169 168 175 175 185 182 198 192 111 103 118 119 111 99 102 102 99 93 97 97 109 124 133 139 143 148 154 191 161 78 162 157 187 210 204 206 200 193 
231 179 156 136 125 162 129 120 92 75 61 87 109 120 119 127 129 138 136 143 146 151 156 156 159 160 166 162 159 159 153 145 131 126 117 101 98 94 93 100 108 118 117 131 143 145 146 157 153 159 172 169 167 169 166 165 165 170 180 179 187 191 124 96 114 126 123 123 118 111 103 101 104 114 116 142 147 147 140 153 151 191 149 67 134 171 172 200 212 202 206 191 
214 197 166 141 140 157 132 118 99 77 58 83 106 113 119 122 125 126 131 137 142 146 151 148 149 153 158 156 161 162 160 154 155 149 146 133 132 128 127 130 141 144 152 160 154 151 154 157 156 167 180 176 169 167 164 159 159 161 169 174 177 188 124 87 108 118 129 131 139 136 130 129 133 129 142 151 159 152 149 147 156 189 138 61 111 172 167 189 215 204 199 190 
199 166 167 176 177 134 138 110 107 77 62 85 101 116 113 119 125 123 125 133 133 140 141 137 141 145 145 147 149 152 151 154 148 150 146 141 143 141 141 148 149 150 156 157 151 154 159 159 156 166 174 174 166 163 160 153 154 157 166 171 168 179 127 79 95 110 127 129 141 143 147 143 153 148 155 155 157 149 146 149 162 186 119 60 83 174 171 192 210 199 191 196 
178 150 140 211 209 154 134 111 119 86 70 85 104 115 115 112 116 122 126 125 130 139 133 128 135 136 134 137 143 144 146 146 144 145 145 144 145 145 145 148 150 153 152 150 148 152 158 158 156 162 167 164 166 163 162 149 151 153 158 163 165 168 124 74 86 103 113 122 126 136 141 140 154 156 161 159 155 148 147 159 169 178 106 68 82 145 168 187 207 185 194 191 
175 144 155 245 208 187 142 112 124 95 77 88 102 117 114 107 116 117 119 126 128 134 128 128 127 134 131 135 140 141 143 143 142 144 144 144 144 141 141 141 144 151 148 143 142 149 152 149 150 159 159 158 157 154 155 148 148 149 150 155 159 164 121 75 73 90 98 112 119 128 133 135 150 156 159 159 156 149 149 167 166 171 93 58 104 122 163 195 182 194 193 196 
169 154 183 243 195 197 150 106 124 108 82 84 107 114 113 107 109 116 114 127 125 125 125 127 132 130 133 138 138 138 140 141 142 140 145 143 141 145 138 135 136 144 143 140 138 146 144 142 144 152 153 150 146 146 148 145 143 145 146 151 153 154 120 79 67 76 91 102 116 123 130 128 143 148 160 157 151 145 158 169 166 157 84 66 97 135 159 202 174 181 190 195 
148 155 216 248 194 193 151 98 124 116 92 85 112 118 115 107 108 116 113 123 126 119 124 125 131 128 134 137 137 140 141 140 142 142 145 142 140 145 137 130 132 141 142 131 133 133 129 128 128 145 146 141 141 145 146 142 141 144 148 152 150 150 123 85 56 66 85 97 109 119 130 135 141 150 155 158 150 152 161 166 166 139 85 84 87 152 148 182 178 181 198 185 
116 135 238 255 215 205 172 120 117 121 96 87 109 124 120 108 102 110 111 125 125 116 125 126 131 132 131 136 139 138 143 140 144 146 147 141 141 143 131 130 135 138 136 124 120 120 102 100 116 135 141 138 138 147 145 143 145 147 150 154 148 151 128 102 58 52 73 94 100 115 130 134 145 146 150 144 150 148 155 159 157 130 63 100 92 134 190 133 194 177 174 203 
120 114 231 251 245 230 185 158 132 119 104 91 114 126 129 115 110 107 119 118 116 120 118 126 130 130 131 134 139 138 143 144 142 149 148 145 142 141 136 129 131 131 125 114 107 86 73 84 118 134 138 142 138 141 144 141 150 148 151 151 147 150 134 115 74 42 70 84 101 109 126 130 147 140 132 145 140 146 151 154 162 104 62 108 94 119 203 163 153 198 165 182 
136 122 141 205 242 239 196 173 170 126 107 97 116 128 133 116 111 113 120 121 116 115 120 124 126 128 130 138 139 143 143 145 145 146 147 144 141 137 131 125 123 123 109 103 92 74 55 89 124 146 148 149 148 145 143 144 148 149 151 152 149 145 139 123 98 51 60 84 93 108 120 132 142 136 133 136 140 147 152 153 153 90 65 115 108 117 184 194 158 163 195 170 
141 132 122 132 199 212 197 177 186 142 116 96 117 132 137 121 112 117 121 118 116 115 120 123 126 129 129 136 141 143 144 147 144 150 143 144 143 135 127 123 116 107 96 87 84 72 57 87 134 148 155 151 151 154 144 144 142 148 155 148 149 143 138 129 103 82 57 77 88 104 115 127 134 135 130 133 138 146 153 149 149 80 76 125 119 120 158 192 196 160 170 179 
147 127 127 133 125 135 159 146 159 158 124 109 113 137 137 128 121 121 121 116 118 115 113 123 129 128 134 133 137 143 142 140 139 144 143 146 140 125 118 115 109 90 78 74 79 80 78 73 130 140 147 152 149 153 154 145 147 144 150 148 146 143 138 137 109 96 66 72 87 97 109 122 124 130 124 131 132 148 150 160 140 71 103 126 127 122 140 175 204 190 169 154 
141 124 134 139 128 126 125 112 93 127 139 120 114 143 144 137 121 124 124 115 116 117 114 122 130 129 135 136 140 140 138 138 137 136 140 146 138 116 112 111 99 78 67 70 81 100 108 98 105 117 121 128 131 137 145 144 146 146 142 150 143 142 134 128 111 89 67 75 80 91 104 115 113 125 126 125 137 149 153 175 133 83 121 130 136 116 143 166 189 198 182 163 
129 127 127 139 135 137 128 114 95 101 139 131 126 143 156 138 137 129 131 122 116 117 116 123 126 126 135 134 137 138 135 137 136 128 129 132 131 118 107 104 91 71 62 68 89 117 125 145 115 87 66 63 60 89 111 121 134 139 142 135 140 129 122 111 99 77 59 67 76 89 98 108 116 115 124 123 142 155 168 183 113 105 131 131 131 120 142 158 176 191 195 155 
132 129 131 135 137 146 126 114 95 104 157 145 133 148 159 144 143 132 137 128 122 116 115 123 127 127 133 128 135 133 131 138 136 128 121 126 115 112 101 103 88 83 86 99 119 128 139 158 160 117 82 75 69 57 76 87 99 115 127 125 116 113 105 96 79 81 60 63 71 84 96 107 112 121 128 135 148 165 183 169 105 118 135 139 123 132 121 171 154 194 197 179 
131 128 136 136 134 151 129 117 99 103 150 153 144 154 157 147 146 142 135 133 129 121 120 123 130 135 134 133 139 135 134 139 138 124 116 114 110 99 89 90 92 102 119 132 149 151 157 166 161 147 120 106 96 92 89 79 95 94 103 98 87 89 83 84 86 90 80 64 70 84 94 103 117 126 136 147 160 169 186 151 105 124 134 133 133 130 117 154 168 177 202 193 
128 140 137 137 129 155 135 120 103 101 143 154 144 155 160 153 149 150 143 140 139 137 126 125 130 132 136 133 137 132 124 127 119 114 100 91 86 83 80 91 109 119 135 157 168 165 170 174 167 166 152 136 121 109 106 92 83 83 73 70 59 75 92 98 99 91 98 79 67 81 92 100 117 126 140 153 156 166 185 118 110 126 134 137 132 124 121 137 173 168 196 193 
122 146 138 135 131 154 139 129 105 100 143 154 148 155 163 156 153 147 152 146 138 144 140 134 134 134 129 129 126 121 115 103 104 95 89 81 67 78 95 103 110 120 142 159 168 166 168 171 174 180 176 158 146 126 108 86 74 78 72 58 78 85 102 109 97 100 101 96 68 78 92 99 117 127 143 155 156 170 172 109 118 122 134 132 136 129 126 125 160 167 186 188 
128 140 134 131 134 155 138 137 109 92 145 150 149 150 164 155 155 152 156 147 148 144 143 139 133 131 125 123 125 114 104 95 84 78 70 67 69 89 97 103 115 130 148 168 169 163 164 171 177 187 194 180 157 133 106 90 88 86 87 83 94 99 109 113 106 104 102 102 79 71 95 106 112 134 146 157 152 183 145 113 116 126 133 130 135 134 129 116 151 157 186 193 
138 134 132 133 135 162 132 138 124 92 141 169 152 155 159 160 154 158 154 153 150 148 142 140 136 127 128 123 122 112 99 86 83 72 58 74 78 85 85 95 106 136 154 163 173 160 168 170 175 187 183 180 162 130 109 107 107 100 101 102 104 114 109 114 110 103 98 96 95 63 92 120 124 139 152 156 167 182 118 119 118 125 136 132 137 134 135 120 133 160 173 190 
139 133 129 128 141 160 134 137 131 92 137 177 159 155 159 162 155 155 156 156 151 151 147 141 137 122 131 129 125 113 97 85 75 69 65 70 70 77 75 87 107 130 153 158 166 173 168 167 173 172 173 169 164 132 119 114 123 119 117 123 120 121 117 112 115 111 94 90 96 63 92 122 134 145 155 158 177 162 112 121 119 127 133 133 131 137 134 131 117 155 176 174 
133 126 135 126 148 154 136 133 142 95 142 177 182 154 155 158 154 153 155 154 149 149 148 143 134 130 135 129 127 113 97 96 81 78 66 61 64 59 61 76 108 125 141 146 159 162 166 168 166 164 164 166 151 138 135 133 132 136 132 135 132 125 127 116 115 112 92 89 95 67 105 133 145 150 157 163 194 119 112 126 124 130 130 133 130 135 135 130 116 134 175 171 
125 130 131 135 147 154 128 135 153 102 142 190 195 159 152 153 157 154 150 150 149 146 148 140 139 139 138 132 130 127 114 116 103 90 60 68 74 60 29 33 63 87 97 103 115 120 127 130 132 128 135 127 124 134 146 149 140 139 132 126 114 115 109 106 98 89 75 89 91 84 116 142 154 154 151 178 169 109 114 130 128 126 128 128 135 133 135 132 122 125 157 170 
125 134 136 140 151 146 124 140 150 112 152 206 197 188 141 151 149 156 147 148 147 148 142 137 137 146 141 133 128 133 131 138 129 95 71 88 100 110 99 39 22 31 62 67 72 75 79 90 90 76 82 78 85 97 116 131 123 115 109 97 90 87 80 82 74 79 100 111 104 105 130 145 160 155 156 187 138 100 121 125 133 128 126 125 132 134 129 133 120 128 139 169 
130 145 134 139 153 136 120 138 156 117 165 215 207 209 152 139 144 148 149 150 150 150 148 136 137 134 138 131 120 123 131 141 138 110 98 118 123 131 147 130 102 67 48 57 37 48 91 85 79 83 87 88 83 87 96 115 98 92 93 97 66 51 49 62 83 108 121 129 120 121 139 145 157 151 171 167 103 109 124 128 127 132 125 126 133 133 131 134 124 133 142 148 
136 143 139 140 155 132 124 137 153 123 168 222 216 209 183 128 134 140 144 142 144 151 151 143 138 132 134 132 131 123 129 124 127 100 113 130 146 144 158 167 167 151 133 118 101 78 96 114 87 113 134 125 104 89 94 96 88 79 81 99 64 43 48 69 98 114 126 141 127 131 138 143 153 155 180 123 102 119 122 132 127 129 123 125 130 128 132 128 131 119 166 138 
141 139 143 142 158 125 123 136 149 121 183 227 225 207 202 151 116 133 139 142 142 141 149 140 141 136 128 125 125 124 123 124 115 110 118 130 147 153 158 171 183 181 177 168 176 153 132 103 70 107 151 140 130 96 119 116 112 100 81 87 70 84 68 87 110 116 135 145 130 135 139 142 152 171 151 90 113 121 130 125 125 127 124 124 128 134 127 138 130 133 161 161 
141 146 140 143 152 129 125 141 143 118 187 235 237 220 196 178 123 116 133 137 139 134 135 129 135 133 130 125 122 116 111 121 118 116 128 138 151 153 156 156 164 165 165 160 157 163 183 159 133 109 116 115 111 81 114 121 102 100 78 92 97 91 87 109 117 124 143 139 135 135 134 146 166 160 106 99 121 125 131 130 122 123 121 126 127 131 123 149 136 119 178 160 
143 135 145 144 147 129 122 146 130 114 192 236 240 234 199 182 145 115 123 131 135 138 130 126 128 123 120 125 116 115 112 109 111 116 121 138 145 143 143 139 149 157 159 158 150 146 158 165 167 169 150 136 120 102 101 99 93 99 102 107 90 96 108 117 118 130 139 139 134 135 141 154 175 116 102 115 125 129 129 125 126 121 120 121 131 128 121 154 137 117 179 171 
135 137 146 142 140 125 129 141 115 112 197 241 246 230 216 187 151 128 118 120 132 136 132 123 126 124 116 113 119 113 122 115 111 117 136 138 144 141 135 128 131 149 159 162 151 158 149 138 136 140 134 148 145 126 121 116 107 102 97 86 86 106 122 115 124 141 152 135 141 143 149 164 130 96 114 125 127 128 131 125 126 119 120 126 128 124 127 150 131 126 167 177 
135 142 143 141 137 128 128 129 115 126 200 237 251 237 219 199 159 133 125 116 120 132 132 127 129 125 124 122 120 120 124 129 131 126 133 136 142 137 130 133 129 133 134 148 147 151 148 137 132 111 109 109 105 102 98 98 90 87 84 86 108 123 121 121 135 155 149 144 143 147 162 133 100 104 116 132 125 130 127 123 126 120 121 124 125 120 135 149 131 130 173 173 
134 145 140 138 131 120 127 118 113 140 194 235 252 245 222 202 167 138 129 131 117 116 128 131 126 126 124 127 120 119 124 134 140 144 143 141 140 143 141 141 138 134 124 129 136 139 138 137 135 118 110 99 96 95 91 88 89 94 102 111 117 125 119 129 149 154 154 150 150 153 146 103 101 118 124 130 124 126 126 119 127 115 128 117 131 121 140 149 134 136 166 175 
137 148 141 136 126 115 133 129 112 155 199 233 249 246 231 209 169 147 137 130 128 119 115 122 118 124 120 128 124 130 127 135 138 149 154 153 153 149 151 158 153 142 138 133 129 132 130 135 133 125 116 111 110 105 106 105 107 112 117 116 119 118 131 145 157 160 158 153 155 139 102 107 114 130 126 128 127 125 121 120 122 119 125 123 123 134 136 152 133 131 174 182 
133 143 140 138 124 119 149 135 125 171 203 229 247 238 237 214 178 146 140 134 123 129 116 113 115 119 118 125 128 128 131 130 137 144 154 160 157 155 158 161 158 152 146 142 139 129 123 124 119 120 114 114 116 112 111 106 113 113 115 115 116 129 143 157 159 167 163 159 141 108 106 116 128 128 128 119 131 118 122 120 123 120 123 125 125 141 143 144 127 141 183 171 
140 131 138 138 120 126 125 120 145 187 199 234 245 244 237 217 179 151 140 132 126 127 124 112 111 105 117 119 126 128 132 136 138 141 152 158 156 154 159 157 157 154 147 149 143 140 130 120 118 115 111 118 112 111 105 111 107 110 119 119 134 146 152 162 159 168 173 140 102 104 123 123 127 129 121 127 127 122 119 123 121 127 120 124 128 145 144 135 131 153 179 168 
135 131 135 134 118 124 126 123 176 197 199 233 247 241 239 223 183 154 142 134 130 129 123 119 114 101 102 103 117 117 125 125 131 134 144 152 147 152 160 154 155 155 149 150 153 153 149 137 130 125 122 115 112 114 112 119 122 126 138 141 151 152 155 166 168 178 164 96 95 120 126 130 128 131 128 123 121 126 120 128 121 124 120 121 138 146 143 127 140 165 173 164 
131 131 132 126 116 123 124 142 183 204 201 234 248 239 230 224 187 151 142 134 135 132 127 123 120 107 103 89 98 105 113 113 118 124 135 145 142 145 155 155 159 157 154 156 152 154 154 153 146 140 138 127 128 133 135 139 141 149 151 148 154 158 163 169 175 181 119 85 108 130 127 133 128 130 128 128 126 129 123 126 127 124 126 127 145 149 140 126 159 169 165 168 
120 130 132 121 126 113 123 151 194 198 207 234 234 242 228 215 185 162 141 137 135 136 128 126 124 119 112 94 90 89 102 105 101 109 118 128 134 140 147 149 155 156 151 154 150 157 157 157 165 161 160 157 161 162 158 156 159 163 161 158 163 161 168 172 182 151 82 98 119 128 128 135 126 132 123 131 135 125 129 127 126 120 127 137 142 144 129 148 164 167 170 170 
112 128 135 123 135 123 129 180 191 202 208 225 230 237 220 198 182 164 146 139 129 137 134 131 128 126 120 108 101 89 91 93 97 101 98 111 121 132 135 136 140 146 152 154 157 154 156 163 167 164 167 157 168 167 167 168 167 168 169 162 172 164 169 174 171 103 80 109 120 133 130 127 128 134 129 130 131 129 129 126 132 123 131 138 139 133 140 156 171 178 181 170 
119 131 134 135 141 138 152 187 191 199 209 210 229 225 212 191 179 161 159 145 135 130 134 140 128 134 124 122 113 103 89 91 87 90 94 95 107 115 125 125 132 140 145 155 155 160 156 164 162 166 165 161 165 169 172 177 175 167 175 164 168 173 168 179 126 72 98 110 128 131 129 134 134 137 128 131 136 129 125 129 129 132 131 138 131 134 161 176 181 184 177 179 
127 137 141 144 151 151 177 194 194 194 201 205 218 219 200 190 178 165 153 145 149 137 131 136 133 130 135 126 126 113 111 100 94 86 84 87 90 103 112 123 123 136 135 152 158 160 164 161 163 163 165 162 167 167 171 174 176 176 166 152 166 169 162 147 79 83 99 119 126 135 132 133 137 136 131 133 131 134 125 128 127 135 129 139 132 150 183 184 184 178 178 181 
135 142 145 152 155 159 182 197 190 193 203 195 214 209 199 185 178 166 154 146 149 142 142 131 137 135 134 133 133 126 117 111 108 97 90 87 85 95 103 117 121 135 140 147 153 158 163 159 157 163 160 162 164 158 158 164 171 164 153 155 155 160 144 87 76 90 100 125 124 129 138 132 136 131 132 130 133 128 132 126 130 134 132 141 141 171 186 178 186 172 179 166 
