P2
# Imagen
92 112
255
160 155 155 156 153 155 154 156 156 158 154 160 161 164 165 164 165 183 193 203 202 197 206 227 242 210 158 148 150 156 160 148 157 150 152 150 154 150 157 141 162 138 136 146 155 159 146 151 161 160 152 157 159 168 205 242 222 208 229 230 230 228 220 202 205 199 180 168 163 169 168 167 165 161 157 155 154 155 156 150 155 152 154 153 156 150 154 152 151 154 149 153 
160 157 158 157 156 156 158 157 157 158 161 161 162 164 169 170 179 195 203 209 207 211 228 236 214 172 153 154 151 158 163 147 154 152 153 156 156 156 154 154 158 149 147 141 154 154 154 155 156 165 151 156 157 159 154 154 227 200 224 232 220 220 231 233 226 218 210 196 173 174 168 169 165 164 162 151 154 151 154 151 153 156 151 151 153 153 154 151 152 151 150 154 
165 153 160 163 154 159 160 159 158 160 168 167 167 166 170 178 193 200 209 209 220 220 237 219 162 152 159 154 151 158 158 148 155 154 151 157 157 153 154 156 159 151 154 149 147 153 152 149 156 154 156 151 162 147 142 130 141 166 166 193 236 226 224 239 242 237 221 226 207 197 184 170 173 165 167 159 159 151 157 154 152 156 155 152 153 152 154 149 151 150 152 153 
159 159 162 159 163 158 161 159 165 175 171 174 178 180 185 198 199 220 215 226 236 228 185 166 159 157 153 152 152 161 151 153 154 151 154 156 159 151 148 158 154 150 157 146 153 147 153 151 152 158 151 159 162 142 151 145 141 139 145 140 161 214 206 220 239 246 242 229 222 215 218 197 186 179 170 163 169 160 158 155 152 155 155 155 153 156 153 149 154 151 153 153 
153 159 158 161 167 163 170 165 173 173 179 179 183 197 201 215 219 230 230 230 231 179 164 158 153 152 154 153 148 160 152 155 154 155 151 157 159 151 146 159 150 150 152 152 147 152 142 154 148 154 154 155 154 152 146 154 151 149 149 148 140 154 158 159 155 193 223 241 228 219 221 221 204 200 186 169 166 168 168 158 152 158 157 156 156 156 154 149 152 153 152 152 
153 159 159 163 162 167 168 172 177 186 185 193 207 213 226 230 236 238 237 214 168 152 168 167 155 152 157 153 150 158 150 150 157 153 155 156 159 147 150 148 156 148 151 158 151 149 144 150 150 150 151 152 143 155 151 153 153 147 148 152 146 143 150 157 145 140 142 179 230 226 232 221 217 214 206 189 174 168 173 169 158 158 155 155 158 156 154 151 152 152 152 150 
155 164 160 161 165 168 171 178 186 183 196 208 218 237 240 240 236 222 197 161 155 150 171 164 154 152 153 155 147 161 148 148 157 156 151 157 156 146 148 149 154 159 146 149 165 152 146 140 153 145 152 146 140 149 149 146 155 152 139 151 154 143 146 151 158 148 144 139 135 193 232 236 230 214 210 209 193 173 173 167 166 156 151 157 154 154 149 147 152 150 151 150 
161 161 158 167 166 176 183 184 183 194 208 227 231 241 227 190 169 155 157 155 156 158 168 166 151 150 152 153 151 156 154 148 152 153 153 154 155 153 154 145 150 165 146 146 148 155 143 142 147 142 147 141 143 140 147 148 142 146 148 134 161 156 135 158 145 160 140 144 135 137 158 202 252 229 212 210 205 184 178 170 168 165 154 155 157 155 152 152 153 150 153 149 
161 162 164 169 177 184 184 187 196 211 224 235 232 216 169 139 145 156 152 155 152 159 158 157 157 148 152 154 150 155 156 142 154 148 146 153 158 149 157 148 145 162 150 141 144 138 149 142 141 135 150 148 140 136 139 148 135 137 143 135 145 163 133 164 151 151 150 143 136 132 142 139 193 254 232 209 214 198 194 186 177 169 165 159 155 163 154 155 152 150 154 153 
162 163 170 177 182 184 186 194 213 221 238 242 201 148 141 151 154 145 159 145 155 158 151 150 154 148 151 149 151 158 153 139 151 147 140 150 158 147 154 150 139 161 168 139 137 136 146 142 137 133 148 152 134 140 137 145 135 132 139 132 141 155 152 151 187 134 165 139 140 132 139 146 126 188 252 227 220 206 200 200 187 180 170 167 163 155 156 155 154 153 150 156 
167 171 176 182 187 188 194 207 229 232 226 189 146 142 150 151 156 146 154 154 151 155 150 153 152 146 148 151 152 156 154 138 145 149 134 154 151 142 155 147 138 158 174 137 145 133 132 148 132 138 145 152 136 140 140 138 134 132 136 139 139 146 157 145 180 154 154 156 130 135 135 144 137 148 179 217 239 234 207 202 205 192 179 174 172 166 156 156 153 154 153 153 
173 178 183 181 187 203 212 223 241 228 183 148 148 147 158 150 153 149 156 151 151 154 147 159 150 145 141 147 158 166 152 135 145 147 136 146 159 138 162 148 137 142 189 142 141 141 121 148 136 136 140 165 152 126 146 146 127 132 132 143 137 141 137 158 166 175 142 160 143 125 140 152 130 145 166 149 198 249 230 204 209 203 193 183 171 168 163 154 156 152 153 154 
179 177 184 188 194 210 224 243 229 191 148 150 151 151 160 153 155 155 159 150 148 157 144 162 144 145 142 150 161 169 157 137 146 146 135 137 167 137 170 156 138 139 191 137 153 142 126 136 140 136 123 162 171 122 141 148 137 126 137 141 140 135 143 145 166 159 144 164 149 128 130 160 139 131 155 181 124 189 242 228 219 207 207 196 179 171 167 169 159 155 154 154 
184 180 190 194 210 220 231 229 184 159 149 153 149 152 162 146 143 166 161 149 158 153 151 158 150 156 140 158 164 176 163 148 149 149 138 142 170 139 173 169 159 153 168 156 160 146 133 135 138 136 140 139 196 134 134 152 154 123 138 143 148 139 159 144 157 146 144 181 154 139 122 151 151 126 137 182 147 135 185 245 240 220 211 204 190 173 165 163 166 158 153 154 
182 183 189 209 216 233 241 175 161 154 155 149 144 155 160 160 145 156 164 149 159 151 153 159 159 162 143 165 170 180 165 152 162 147 138 156 171 156 156 185 168 163 172 168 166 159 134 144 144 147 151 126 179 147 141 146 173 134 130 150 143 147 151 152 150 130 154 174 176 138 127 139 160 129 131 159 154 151 133 212 239 240 220 212 196 184 165 162 166 164 155 157 
184 184 196 213 222 242 189 144 151 154 157 149 154 142 160 147 153 158 151 145 162 149 156 154 167 160 155 166 173 176 169 152 172 149 146 158 176 168 150 182 181 165 189 164 172 172 149 142 163 151 169 143 153 158 151 149 170 146 132 147 135 148 146 161 133 134 152 161 173 154 128 134 162 131 138 141 157 149 153 131 223 241 229 219 215 189 171 164 163 165 156 153 
185 182 203 219 231 216 143 146 154 147 160 161 153 147 153 159 149 154 148 149 153 148 156 152 160 156 162 167 160 178 162 161 162 162 147 155 170 168 155 173 164 167 172 186 161 169 165 144 153 164 168 151 143 163 147 155 160 156 139 155 129 159 136 165 140 134 139 153 159 174 142 131 149 134 131 151 153 142 143 135 162 245 236 226 222 208 181 171 166 165 167 156 
183 188 211 233 229 173 142 144 148 154 160 166 151 154 161 153 151 156 141 154 151 150 158 158 155 153 165 163 153 162 166 160 165 162 159 148 169 169 162 159 162 149 155 182 161 147 163 158 144 158 158 142 152 149 141 149 158 155 151 144 137 163 138 162 140 146 137 154 147 173 159 123 148 137 132 155 151 132 147 141 134 228 242 228 218 210 200 180 163 169 163 161 
183 196 223 237 217 147 152 153 151 156 167 157 154 158 159 149 158 157 151 151 148 153 147 160 142 159 163 150 142 153 165 149 167 165 156 143 160 170 156 146 154 145 132 180 162 151 149 169 137 150 144 131 150 161 124 145 147 152 150 141 131 162 137 162 160 145 141 151 159 163 166 140 146 142 141 152 156 135 153 134 136 171 243 228 218 214 202 187 168 169 161 164 
200 214 229 236 181 140 145 163 160 161 164 159 161 165 155 148 169 153 156 152 163 150 142 156 134 150 162 151 131 140 158 143 149 160 158 148 156 159 159 145 144 140 129 170 159 151 145 158 142 141 131 132 127 164 129 129 143 152 148 153 120 166 137 154 169 158 154 148 150 168 167 151 130 153 144 146 164 150 154 137 137 137 205 240 229 215 217 196 171 169 164 163 
200 228 235 212 175 150 151 159 161 161 164 165 167 161 160 153 163 158 162 156 155 148 137 145 127 149 155 138 134 135 151 140 141 151 157 156 142 149 148 139 147 135 131 147 157 150 142 149 141 137 132 129 115 150 139 125 134 148 143 161 114 161 149 148 158 156 161 160 140 172 167 140 129 153 153 152 173 178 165 149 146 139 149 242 232 221 222 206 183 168 165 166 
210 226 238 179 165 158 157 157 162 162 168 159 165 164 157 155 168 157 166 154 143 146 136 136 130 148 143 135 131 144 140 139 137 139 154 151 136 147 149 131 132 139 126 143 156 139 136 145 140 124 138 123 117 125 147 114 131 129 139 146 119 147 148 149 154 150 169 167 136 179 162 135 141 154 155 161 169 163 143 132 133 151 134 203 244 231 227 216 195 170 169 172 
214 243 212 151 167 160 161 156 164 165 163 160 165 149 157 150 161 152 158 144 141 134 131 135 131 142 132 131 126 143 134 134 128 134 128 144 136 143 139 126 126 136 118 128 153 137 123 135 134 128 122 117 114 114 133 121 131 126 125 136 120 125 150 137 155 148 155 162 148 160 154 143 141 159 161 164 164 154 138 127 141 142 120 160 241 236 235 218 206 185 167 171 
225 243 183 143 167 159 167 162 162 158 159 156 161 146 156 149 151 147 149 132 135 132 132 131 129 137 120 124 116 138 124 123 125 119 118 136 129 137 130 118 114 128 114 118 135 131 123 123 116 123 109 111 109 113 117 121 122 120 112 128 120 105 150 120 145 141 138 161 147 141 145 143 145 169 153 148 168 145 144 131 146 149 106 146 216 240 231 223 205 200 173 176 
236 214 155 147 154 162 165 173 160 148 164 148 149 144 149 145 135 144 138 134 120 125 117 128 124 128 121 116 110 120 119 116 111 109 107 123 110 121 120 107 99 110 106 104 118 120 117 106 106 108 97 97 101 104 105 113 110 112 110 116 107 92 134 97 127 127 133 153 134 135 136 140 148 151 141 153 158 134 148 126 147 148 117 142 168 245 228 227 210 206 180 174 
228 186 139 146 157 153 160 169 163 135 165 148 145 135 149 142 134 131 129 133 118 121 121 121 114 116 118 105 102 106 106 104 104 96 100 109 99 107 105 100 86 87 85 92 97 104 101 96 96 94 91 87 83 98 95 104 105 102 100 97 91 80 114 90 100 115 118 139 119 116 141 125 129 137 136 146 158 136 140 132 142 149 125 142 131 222 229 234 211 209 193 182 
218 169 143 151 164 148 158 165 159 141 150 146 148 134 141 147 130 124 131 129 122 122 111 114 112 112 105 110 108 108 108 109 93 107 103 96 90 86 92 83 83 69 72 79 81 86 87 97 90 86 88 77 74 95 88 103 97 97 90 84 82 75 85 82 86 106 111 116 119 120 155 135 124 134 140 140 154 138 132 128 147 141 134 145 122 197 224 223 216 213 198 179 
203 155 150 149 160 163 150 156 160 147 148 151 149 138 133 137 128 127 121 131 118 124 126 121 112 115 112 121 138 123 127 115 112 116 120 101 86 87 83 81 78 66 77 68 86 83 93 100 98 96 79 82 78 86 94 97 95 96 92 83 76 83 64 76 73 90 88 98 107 94 120 121 120 121 136 131 137 140 128 129 139 137 144 144 125 175 231 220 210 207 201 184 
182 157 147 151 157 156 156 159 154 146 145 151 138 139 145 138 126 122 118 133 130 144 148 148 152 140 128 155 172 161 146 156 135 146 148 145 118 100 96 93 88 80 97 76 90 107 114 114 118 111 104 103 105 118 120 111 118 109 105 98 88 96 61 68 62 79 72 90 97 86 96 103 96 117 120 129 142 138 126 131 131 139 146 138 130 153 223 223 228 200 200 191 
174 149 151 150 146 151 164 149 140 142 156 154 148 138 151 140 128 122 128 121 126 143 155 168 172 177 161 167 188 185 148 166 165 162 162 164 137 109 115 109 93 98 105 96 104 116 124 124 140 128 138 122 135 127 144 141 128 136 120 115 96 93 80 61 56 69 70 82 84 86 94 101 98 113 118 113 126 128 129 131 130 141 144 131 133 156 210 221 227 211 192 196 
161 158 152 146 153 159 155 154 139 158 161 153 140 147 146 144 144 128 132 135 139 135 150 158 176 191 207 157 168 170 166 167 180 161 167 145 157 131 129 136 115 124 128 129 117 115 126 131 145 147 135 146 145 125 138 144 151 138 128 124 114 99 80 63 61 81 67 85 80 87 83 101 97 108 116 118 115 121 123 138 132 143 132 131 131 154 208 216 216 209 190 201 
155 164 154 153 153 165 163 150 144 158 154 137 149 147 151 151 139 143 145 141 135 141 135 164 174 177 187 164 140 170 155 147 165 144 165 143 149 147 133 137 132 121 134 133 135 122 131 144 141 148 142 140 161 144 143 126 145 143 118 110 94 96 72 62 79 76 81 82 78 87 85 106 104 95 113 123 114 127 123 134 132 134 133 132 131 148 208 213 231 209 195 196 
155 159 158 153 157 162 163 145 148 155 147 141 153 141 148 160 150 168 153 155 139 141 143 168 174 179 176 167 138 162 145 137 151 138 153 136 145 131 121 120 118 118 135 128 129 124 139 137 140 148 147 133 162 149 140 135 126 155 131 109 89 88 83 69 76 71 66 71 75 79 89 92 109 103 112 116 119 112 122 123 127 125 125 132 129 133 208 205 231 216 201 191 
157 156 156 151 159 161 160 150 155 158 149 145 146 145 152 169 169 160 154 149 142 146 151 170 167 170 162 166 139 142 145 124 147 147 158 140 147 141 129 129 117 126 142 131 134 134 151 137 138 152 149 139 158 148 138 143 135 147 140 119 100 84 87 69 73 71 60 56 66 74 80 94 96 101 107 121 110 116 111 118 123 128 126 126 135 126 178 212 228 216 206 194 
162 145 160 149 147 158 164 156 158 148 150 145 135 152 166 170 169 151 151 146 157 149 155 178 166 163 178 169 162 157 155 127 170 160 164 152 148 152 141 138 122 132 135 134 141 137 149 150 133 147 152 148 153 151 147 150 145 152 145 128 104 92 81 71 61 54 51 50 54 65 63 77 92 94 103 116 129 114 123 116 120 133 122 128 134 135 146 216 225 210 199 196 
163 150 157 150 143 156 163 153 159 143 151 139 136 157 167 167 158 149 157 148 163 159 165 183 166 173 179 172 178 168 141 141 167 167 162 155 148 154 143 140 125 132 126 137 142 137 149 153 141 143 149 149 150 148 153 151 148 152 149 142 115 100 85 75 69 53 46 43 42 56 62 74 80 89 100 107 119 124 121 121 122 126 134 129 129 139 133 201 231 219 200 202 
154 151 161 157 136 149 150 149 154 142 149 140 140 158 160 178 158 158 156 150 165 168 182 187 178 174 180 173 173 174 156 135 167 165 160 152 141 154 143 138 117 131 129 141 145 143 152 152 150 139 149 147 148 151 154 150 148 154 152 143 130 109 87 82 70 65 47 44 44 48 54 58 79 82 90 101 113 113 130 121 124 130 130 138 135 141 123 194 235 225 205 202 
157 154 159 163 143 145 141 145 147 142 150 137 145 165 165 168 175 150 170 165 173 176 186 184 178 176 178 176 170 172 164 154 155 159 154 152 144 148 144 140 113 125 133 144 145 145 148 149 143 142 146 144 147 149 153 154 146 145 154 145 137 119 99 87 81 73 65 58 51 46 52 53 67 81 84 91 107 108 127 131 134 126 127 136 142 145 132 180 239 221 213 200 
156 156 153 165 148 142 137 149 143 143 146 142 151 172 176 179 176 156 170 173 178 181 183 182 175 177 175 177 170 170 161 164 157 155 151 153 145 148 144 141 125 123 131 142 147 143 148 149 140 150 147 144 149 149 150 151 148 145 148 144 138 134 109 103 91 80 71 75 50 49 53 48 65 67 77 83 100 100 115 123 134 129 130 136 145 151 134 159 240 215 216 208 
151 162 156 161 151 141 132 154 143 140 151 141 159 184 190 189 181 161 167 179 179 181 179 178 173 174 172 170 167 172 159 159 161 155 152 153 149 149 146 138 136 125 134 143 148 143 147 147 144 150 150 145 147 147 148 149 145 144 145 138 133 138 115 114 99 94 75 79 67 48 50 50 58 58 72 79 92 99 103 117 125 139 136 138 146 151 146 148 228 218 218 203 
148 164 164 151 158 141 135 149 140 141 146 144 169 193 198 191 179 185 167 181 174 176 180 171 174 172 169 168 170 162 159 157 158 156 155 150 151 147 150 137 139 131 134 140 144 144 143 148 143 150 147 146 149 144 146 150 148 143 145 138 136 132 128 117 113 104 95 84 72 74 49 55 49 58 60 72 81 92 98 106 121 131 146 143 149 151 149 142 221 220 220 201 
155 163 155 154 151 142 139 145 133 135 144 151 176 200 202 189 183 190 174 176 174 170 172 171 174 173 167 167 169 165 159 160 160 157 154 153 153 148 152 138 138 137 134 142 144 145 149 149 143 145 146 145 149 144 145 146 143 143 141 136 135 135 130 123 117 115 104 91 88 80 75 48 56 54 53 65 66 87 87 102 109 124 140 146 154 154 152 142 208 220 220 212 
159 158 164 150 151 138 146 140 133 134 147 163 184 198 205 184 190 194 179 181 176 172 169 176 174 173 175 173 174 171 164 168 162 165 158 154 156 150 153 143 139 140 140 143 146 144 150 146 140 143 145 144 147 144 145 147 142 142 135 142 144 135 136 131 125 131 119 106 101 99 86 63 58 51 50 62 58 81 82 94 112 118 135 145 151 155 156 140 197 229 211 216 
161 154 165 147 150 147 137 141 133 133 147 164 198 193 198 186 194 198 176 184 189 182 178 171 178 173 182 177 175 176 166 172 166 164 163 160 159 157 156 148 141 142 141 145 147 148 146 146 138 142 144 142 146 145 142 150 145 145 140 142 148 142 140 134 130 132 130 125 110 113 99 93 58 57 50 51 60 73 74 94 111 114 131 147 150 160 150 153 192 229 211 208 
164 153 169 146 149 150 141 132 133 128 155 170 197 195 197 195 197 198 182 193 192 186 177 173 178 172 179 177 172 174 168 168 168 164 166 161 165 156 156 151 147 139 144 145 146 149 147 143 133 138 142 145 146 143 143 149 149 143 143 144 143 144 139 134 137 130 140 130 115 118 109 100 76 64 48 52 62 69 77 92 105 116 129 146 152 156 154 156 195 228 210 212 
167 155 167 158 149 148 143 132 128 134 146 172 198 193 193 207 200 201 189 198 188 186 179 171 173 168 166 168 167 168 165 165 163 163 158 163 161 156 154 154 152 138 140 147 146 145 143 138 129 137 143 144 145 136 140 147 145 140 142 143 142 140 136 136 138 129 136 136 118 118 111 98 85 66 59 52 57 62 79 87 104 112 129 143 156 156 152 163 206 210 213 212 
168 168 156 167 150 147 143 132 129 137 140 171 196 196 192 215 206 205 196 193 187 180 172 164 159 160 161 157 160 158 157 158 157 157 155 157 155 153 151 153 150 138 144 147 142 144 142 138 137 138 139 136 136 134 136 143 142 136 136 136 140 138 134 131 127 127 125 130 122 107 107 92 88 67 58 60 57 63 75 89 102 109 127 145 160 159 150 173 204 197 220 213 
171 160 157 167 150 148 141 135 134 135 138 166 196 191 196 211 218 208 193 187 177 175 169 164 160 159 156 155 156 154 154 149 151 152 149 154 153 155 150 146 150 138 144 142 141 140 136 137 133 135 134 133 131 134 134 131 134 131 133 130 127 129 124 123 120 119 118 124 118 103 93 90 79 63 52 61 60 64 73 87 100 107 133 147 152 163 143 181 217 196 216 212 
176 160 154 158 157 150 137 133 132 130 136 171 192 190 205 211 219 208 191 184 172 171 170 167 163 162 158 161 158 157 155 154 153 151 149 151 152 151 150 149 150 145 140 141 140 137 136 136 136 129 134 133 130 133 135 133 129 129 127 129 123 122 122 118 119 117 117 120 112 109 91 81 77 56 43 51 63 66 68 85 103 107 135 154 152 157 150 187 211 195 205 205 
176 163 154 146 160 147 137 136 131 127 139 162 189 197 202 209 212 200 189 179 180 171 171 168 172 166 163 164 161 160 156 159 159 154 155 151 155 149 150 152 152 150 144 141 141 138 133 132 134 132 130 134 138 140 141 136 135 132 135 128 123 125 119 122 119 119 122 117 114 111 94 83 62 55 44 42 53 74 65 87 97 116 136 152 156 150 158 178 203 201 207 201 
179 168 155 152 156 149 144 132 134 129 140 167 185 188 206 206 200 191 187 182 184 179 174 174 174 172 174 170 169 170 164 166 160 159 158 159 156 153 152 149 152 150 150 146 144 138 137 137 137 134 136 138 142 143 141 136 140 136 142 136 129 128 118 122 124 119 123 120 113 112 103 83 70 49 47 42 49 66 68 86 99 121 135 151 158 154 146 180 187 209 208 198 
178 169 155 151 155 153 148 142 133 136 147 175 196 182 207 212 208 197 196 185 186 185 182 180 178 173 177 178 175 174 173 174 168 166 163 160 158 159 157 154 153 152 156 149 143 140 140 140 138 138 143 143 147 146 146 142 145 143 142 136 135 137 132 132 131 134 126 123 119 115 106 95 72 50 49 42 51 64 76 82 98 113 137 155 158 153 147 184 185 213 196 194 
172 164 157 153 153 157 147 150 138 141 151 186 204 196 194 210 215 204 194 191 186 189 189 192 188 178 175 183 188 179 178 179 183 170 165 169 165 159 165 161 157 153 158 150 147 145 146 142 140 142 147 147 151 150 150 153 149 148 145 146 149 152 148 147 148 149 137 136 131 128 113 103 81 61 54 54 52 69 82 86 97 112 143 155 156 154 147 174 195 200 189 200 
168 156 166 150 156 155 149 144 137 147 172 200 211 204 218 215 204 181 175 180 187 183 191 200 190 184 185 197 203 209 193 192 204 186 171 176 178 171 172 168 164 163 162 158 154 151 151 147 145 149 153 156 155 154 160 161 157 159 164 152 154 160 158 150 156 154 149 137 139 140 134 110 93 77 62 67 65 66 87 86 100 115 143 153 154 156 156 154 217 190 186 199 
164 161 159 155 157 154 146 146 134 151 199 214 218 209 222 207 159 135 144 157 165 167 183 183 181 182 195 212 219 220 218 212 216 204 187 190 189 191 186 180 176 176 174 168 164 160 160 155 156 155 158 162 162 161 160 164 161 163 155 152 158 158 159 149 154 166 161 151 146 151 148 133 99 89 82 80 78 78 89 91 98 115 143 150 157 152 154 139 214 189 182 196 
164 167 158 151 156 149 137 131 130 162 215 222 218 203 187 147 106 109 120 116 116 125 132 144 156 173 175 191 203 205 213 211 214 201 202 201 198 198 197 190 190 192 186 180 174 170 168 166 162 164 167 163 168 161 157 154 158 162 149 147 164 163 160 160 157 168 171 159 157 161 154 149 117 97 94 93 92 89 92 89 99 118 139 155 154 155 153 133 195 193 184 197 
163 167 165 147 159 140 132 125 122 177 224 224 201 146 112 85 101 97 99 83 89 92 102 101 114 118 110 116 140 162 168 185 192 190 202 208 209 207 204 199 201 200 192 184 173 166 165 161 155 153 156 152 146 138 125 120 123 127 129 115 133 131 137 144 146 151 169 174 168 166 175 169 136 116 100 94 97 91 92 92 94 118 141 149 158 153 143 138 165 194 192 189 
161 172 157 152 153 141 133 126 123 195 232 221 161 96 102 119 121 110 94 89 98 103 105 93 94 94 80 83 85 106 131 142 155 184 197 213 218 215 214 211 206 200 190 180 170 159 150 145 138 124 117 109 94 83 81 72 69 78 86 95 98 101 101 109 122 118 143 174 187 178 181 178 155 132 110 94 87 89 86 99 103 111 142 152 152 155 144 135 156 194 199 191 
164 169 158 152 157 137 135 118 133 207 237 212 120 107 143 179 175 159 152 134 140 138 138 112 100 87 85 92 93 104 116 128 127 160 193 213 222 221 221 223 219 210 190 183 168 161 148 128 110 81 76 67 58 54 54 53 55 62 71 88 82 94 102 101 108 111 107 141 180 178 173 170 153 132 114 95 86 77 79 82 107 116 140 148 154 155 151 130 156 186 203 193 
155 161 154 153 155 130 132 117 143 228 231 186 129 145 174 190 191 177 170 168 157 152 152 147 142 127 110 114 126 127 142 151 152 150 185 214 230 235 232 229 222 211 197 181 169 154 140 106 85 63 59 50 45 43 49 44 51 54 72 82 92 98 107 113 120 116 106 89 114 160 163 161 150 126 113 89 86 68 66 73 89 126 137 148 149 154 149 128 161 173 208 197 
153 153 150 154 142 129 132 112 159 234 226 164 141 156 168 176 172 148 136 126 114 101 100 107 113 114 101 115 138 144 154 159 160 162 181 208 224 227 237 237 220 210 195 177 163 147 128 92 90 78 76 68 56 64 60 60 69 84 104 117 135 144 154 166 163 162 129 109 82 116 162 162 155 134 107 82 90 68 66 70 79 109 146 148 149 152 145 132 165 160 208 197 
161 145 145 154 134 126 124 115 174 238 218 165 147 153 154 155 143 112 89 92 86 81 84 96 93 88 77 90 111 127 142 158 158 157 163 189 216 226 236 230 220 210 196 172 158 138 117 93 92 96 94 90 91 93 87 93 98 107 119 141 153 159 160 184 191 177 169 149 115 88 141 161 159 152 114 79 87 77 63 71 79 103 139 148 141 146 149 137 162 162 206 202 
143 149 137 153 127 123 130 109 191 238 214 168 147 138 139 131 112 97 75 80 82 96 97 88 86 71 60 71 98 113 117 135 150 145 140 177 215 234 244 240 229 207 206 165 151 125 105 92 92 104 95 89 76 69 65 62 51 59 81 112 126 151 166 170 183 178 160 157 157 116 129 165 175 160 123 88 83 80 65 71 79 96 132 145 137 140 144 141 156 190 191 211 
140 140 135 146 130 124 126 117 197 235 210 174 154 138 121 119 111 84 70 85 128 174 127 80 107 77 77 61 102 107 123 120 123 132 136 162 223 238 246 255 239 218 199 165 135 113 91 90 92 92 76 76 75 45 41 48 39 35 46 76 98 114 126 147 162 150 144 143 160 156 138 174 173 169 130 77 81 81 71 68 78 92 123 142 131 142 140 141 131 207 189 212 
140 134 135 145 126 121 128 109 203 232 214 189 163 146 117 115 101 68 74 110 161 206 126 68 61 58 60 51 94 158 117 128 104 109 136 148 209 245 251 253 247 222 191 155 124 99 91 88 80 75 88 83 84 41 35 38 21 26 29 61 70 97 108 102 117 133 134 150 152 173 164 171 174 168 141 84 76 76 69 67 69 94 115 139 139 136 137 138 119 196 177 212 
143 133 137 148 124 124 131 107 208 229 215 210 191 171 147 125 120 59 67 104 141 206 150 71 52 60 46 37 116 159 148 112 115 122 142 153 200 229 235 253 235 212 187 139 104 86 95 85 78 80 82 108 132 36 47 81 33 27 10 67 85 78 59 93 97 108 131 144 163 171 174 168 157 147 146 94 74 66 60 65 69 79 112 143 140 140 131 142 120 175 182 199 
141 139 134 146 120 124 127 108 212 228 220 208 199 183 170 150 141 96 70 73 106 151 166 87 57 57 53 76 124 126 126 119 110 138 152 160 193 212 224 234 227 203 169 123 94 86 95 97 76 60 94 132 141 33 31 49 26 25 0 86 140 97 64 61 103 93 117 132 149 164 169 153 144 145 138 88 64 61 54 57 59 75 96 132 125 132 134 136 126 154 194 177 
144 140 140 141 114 116 129 110 206 225 224 205 200 184 172 158 147 114 110 91 87 108 127 135 122 117 107 124 128 126 116 127 138 143 152 167 191 213 226 219 206 188 162 114 96 92 94 96 70 57 84 117 135 64 32 50 25 13 1 103 143 106 70 53 72 96 104 128 141 160 155 143 142 141 134 78 51 53 52 50 56 75 89 124 119 119 131 131 131 137 189 170 
142 145 139 130 117 116 135 118 195 224 224 209 197 186 174 160 143 131 120 115 117 110 106 110 101 104 112 113 117 122 127 123 134 151 151 170 190 207 221 207 197 185 157 113 99 97 98 88 88 88 89 95 105 96 63 50 47 26 49 106 106 85 67 70 79 97 103 125 142 153 153 142 137 138 126 78 50 44 47 44 57 71 85 116 112 113 131 128 125 135 169 158 
137 146 137 131 113 101 167 115 186 226 223 209 194 187 171 162 146 131 120 118 113 114 115 106 106 103 108 107 108 121 119 132 150 178 165 169 180 194 201 202 201 186 151 115 91 91 89 86 81 110 111 115 104 89 93 94 88 68 67 85 74 61 68 85 109 116 119 130 146 156 148 144 140 139 122 67 45 44 37 50 63 64 84 114 107 108 131 127 132 136 176 179 
133 149 141 133 112 86 188 121 169 223 224 209 195 186 174 160 152 140 129 115 112 106 106 103 98 100 98 97 103 112 129 153 173 179 168 172 176 193 199 202 197 186 142 113 91 90 97 101 88 97 118 127 122 103 92 82 80 69 66 87 95 89 96 99 121 126 129 135 145 154 143 145 134 132 119 60 41 40 52 66 67 62 80 112 101 101 133 121 135 146 162 193 
138 138 149 128 114 79 157 144 152 218 215 211 196 187 179 172 157 154 141 121 110 107 101 96 92 94 91 99 107 130 151 168 170 160 155 163 163 182 189 187 190 176 136 112 101 97 107 123 120 113 109 121 128 119 109 98 91 84 83 90 91 98 98 109 120 127 131 136 142 147 141 137 132 130 105 55 49 37 58 75 64 59 74 109 96 107 126 128 139 145 165 187 
142 142 144 135 110 89 91 165 143 209 220 208 199 186 181 173 168 167 163 153 148 141 133 122 118 123 125 134 142 158 158 164 157 153 152 154 155 170 183 182 182 161 123 108 103 100 113 131 144 146 125 115 103 105 106 96 87 86 82 87 91 98 92 115 126 129 133 135 136 138 134 129 119 122 88 45 58 38 82 74 52 65 70 105 102 110 127 135 137 143 162 182 
149 140 144 138 104 86 70 177 133 200 221 213 197 192 184 176 174 168 165 162 159 156 151 147 141 144 146 148 152 156 155 156 150 147 147 149 151 167 175 172 178 151 108 100 97 97 111 129 151 157 155 133 122 106 96 85 80 85 79 89 94 97 104 120 120 124 127 125 132 128 126 121 116 109 76 43 52 43 88 87 51 62 71 101 109 123 116 139 139 132 161 172 
144 138 149 128 98 91 50 165 134 189 220 214 202 193 188 180 180 174 170 168 168 165 160 156 151 152 153 151 151 152 155 151 147 146 144 147 150 166 169 166 169 141 97 96 93 89 107 125 146 159 169 159 152 128 112 96 83 87 88 94 103 109 117 120 122 125 123 118 122 120 114 111 108 101 54 49 46 60 110 82 47 61 68 106 110 128 119 140 137 132 175 169 
142 139 147 135 109 86 51 139 134 178 216 212 204 199 189 186 182 181 174 169 172 168 163 156 155 154 152 151 150 150 150 149 145 146 145 144 151 164 170 163 157 126 94 91 89 88 103 120 141 154 164 166 163 162 152 145 127 126 121 127 127 137 141 137 134 119 122 117 113 115 110 107 103 91 42 58 49 85 128 65 42 57 78 105 115 127 128 135 136 131 177 169 
144 147 137 139 117 88 54 116 143 165 208 206 206 197 195 189 183 183 178 173 174 169 162 158 156 154 152 152 150 153 150 146 147 146 147 145 150 165 168 159 150 114 90 95 92 92 101 118 141 155 161 160 164 162 160 156 149 152 145 145 143 150 149 149 140 128 114 119 112 111 109 101 98 70 39 69 76 96 109 38 42 56 88 103 121 123 135 142 133 125 173 180 
153 143 134 140 124 91 63 84 156 147 200 203 207 202 199 192 188 186 179 178 175 167 163 155 153 154 153 151 148 149 147 142 145 145 148 148 153 163 169 159 142 111 93 91 94 91 101 120 136 156 157 159 163 161 162 156 158 156 156 151 150 154 147 150 140 132 122 115 114 110 104 100 92 55 46 84 89 95 87 23 47 60 95 111 121 127 136 141 140 118 162 196 
145 142 137 140 126 94 78 59 142 144 191 202 208 200 198 193 189 187 181 180 175 163 161 156 153 152 153 144 144 146 140 136 137 143 151 156 158 169 166 158 142 115 102 97 99 97 95 118 125 150 151 156 162 166 159 156 160 159 156 155 152 154 157 148 147 137 130 124 115 111 99 99 74 55 81 88 98 103 68 23 49 70 97 121 128 136 139 141 144 124 139 193 
145 142 148 145 133 110 88 61 75 148 185 197 204 200 199 193 193 187 183 183 173 165 159 156 154 150 149 139 136 133 121 128 136 142 158 160 168 170 169 158 148 126 112 101 97 90 93 106 119 140 147 152 162 166 161 155 159 158 157 156 152 153 159 154 149 141 137 122 115 109 97 100 58 66 101 94 103 100 44 26 45 82 109 120 136 141 140 137 144 133 131 175 
147 140 151 154 140 121 101 84 45 111 189 193 200 198 200 199 192 187 183 178 173 163 158 155 149 143 140 131 119 111 102 126 145 143 161 170 179 172 171 162 152 139 116 99 91 85 79 88 101 127 145 151 153 163 162 160 161 156 157 157 156 153 163 162 150 144 136 127 116 109 100 94 55 79 102 99 115 77 23 35 51 89 121 135 135 148 139 141 140 136 133 154 
146 141 149 150 156 145 117 107 68 100 197 185 196 198 196 195 189 192 182 177 170 165 156 151 140 136 128 118 108 98 112 150 159 151 164 182 184 177 170 166 157 144 128 93 95 94 75 70 91 120 136 148 152 162 161 164 160 151 150 156 154 152 156 158 147 137 136 126 116 104 100 86 57 92 110 110 111 38 35 40 58 114 130 143 141 146 148 139 137 142 137 139 
149 148 148 151 154 145 141 121 91 113 208 187 190 194 191 192 188 188 180 178 170 161 155 145 138 127 116 107 110 96 138 166 162 156 169 188 191 185 177 168 166 148 130 100 110 115 93 67 83 116 140 148 154 158 162 160 158 149 145 155 149 150 146 155 147 136 133 127 114 107 96 74 85 102 116 117 78 34 47 60 78 130 142 150 144 152 144 143 140 143 136 148 
148 151 153 149 157 148 140 128 115 136 215 201 183 189 189 193 182 187 181 172 171 153 151 141 132 121 100 103 109 119 147 167 170 168 171 191 198 200 191 181 178 159 137 117 118 134 119 73 83 122 146 154 156 161 160 161 159 154 150 154 152 147 153 150 147 135 132 127 117 106 97 73 99 117 109 94 40 51 67 79 98 142 149 154 145 154 148 143 149 139 136 152 
152 145 148 151 154 149 147 130 123 142 236 208 187 185 179 185 177 183 178 167 163 150 136 130 117 106 97 96 120 150 150 144 166 176 183 194 198 200 201 196 186 171 152 135 120 132 131 99 97 124 139 150 151 158 169 168 162 165 157 154 154 150 157 150 150 132 133 125 119 105 96 80 102 97 64 36 49 67 81 95 118 143 150 153 154 145 155 142 145 145 141 147 
150 149 147 145 153 152 150 134 132 128 238 216 189 190 178 179 173 170 169 162 156 144 127 115 109 99 93 105 142 165 183 144 123 162 184 190 195 193 192 188 177 166 148 136 122 121 126 111 115 120 134 148 148 156 163 168 170 174 168 160 156 156 153 150 144 138 130 125 118 105 96 90 67 40 32 47 65 75 97 108 137 144 151 152 153 144 155 148 140 144 141 148 
145 149 148 152 151 150 147 144 138 120 237 228 193 184 177 174 170 165 163 154 150 137 127 112 105 95 108 142 169 180 184 175 120 115 148 168 181 178 171 163 148 134 117 110 93 105 118 130 128 120 128 139 149 155 162 163 171 173 166 158 154 153 147 143 141 136 129 119 122 105 109 90 18 26 42 54 70 78 103 122 139 143 151 154 152 145 156 155 140 144 139 146 
147 144 157 153 148 147 151 148 134 109 226 235 197 176 172 164 163 155 155 145 139 135 123 113 108 121 151 173 182 183 182 179 149 109 106 126 131 134 134 131 112 91 78 72 83 108 119 124 132 127 119 131 145 145 151 158 156 158 159 146 142 145 142 142 133 130 125 121 122 110 120 81 16 35 47 59 69 89 102 135 136 147 149 148 153 150 151 152 143 142 142 132 
155 141 168 151 150 146 160 151 139 110 206 243 209 174 166 162 158 152 144 138 128 128 115 121 132 149 166 185 186 186 183 179 160 124 115 108 100 95 98 99 87 85 72 81 108 114 112 121 132 139 130 123 132 140 136 146 146 143 149 141 140 137 143 137 129 124 123 119 122 112 124 64 20 42 54 62 75 93 116 137 142 138 160 146 154 151 148 154 143 143 140 136 
156 145 166 156 149 150 158 156 141 114 178 245 226 178 167 161 161 151 141 136 125 117 118 139 147 164 177 189 193 185 184 179 168 139 128 109 94 87 83 88 86 88 89 104 112 118 120 130 132 140 141 117 116 123 128 136 138 141 139 147 140 137 137 129 121 122 121 122 121 123 127 50 25 52 58 65 79 101 126 141 138 145 156 147 151 150 148 147 155 138 142 135 
158 149 159 156 156 154 161 155 137 121 149 242 238 192 171 171 162 150 138 136 118 114 132 147 149 161 177 191 192 187 183 182 176 159 139 121 105 95 98 93 90 91 103 113 118 114 130 132 129 134 135 131 102 107 115 123 132 138 136 142 143 134 128 123 116 122 118 126 127 129 118 40 35 57 59 70 84 111 131 144 138 149 152 149 151 151 153 148 151 148 140 139 
164 147 155 163 160 160 158 149 136 140 127 224 238 212 181 170 169 151 141 137 117 123 120 131 138 154 183 191 192 188 185 178 182 173 158 138 114 116 108 100 93 94 104 116 115 118 127 131 124 126 127 124 118 89 97 117 120 130 135 135 139 136 119 114 118 123 126 128 135 139 97 31 45 55 62 77 88 120 135 145 141 151 152 153 147 153 152 152 143 151 139 136 
165 149 157 167 163 157 150 143 139 155 117 199 241 224 197 176 174 161 153 140 132 123 106 115 119 142 182 188 190 193 195 191 189 187 176 156 136 127 125 117 112 116 112 116 122 122 124 124 117 122 118 119 112 100 75 114 117 124 132 134 137 136 123 111 119 124 137 129 135 137 71 30 46 56 72 81 99 126 140 141 145 149 152 151 146 155 149 153 145 147 145 136 
160 154 162 165 168 153 142 141 151 164 129 153 239 228 205 182 171 171 165 162 151 114 103 118 100 87 123 146 161 178 189 195 200 193 183 172 156 150 147 152 148 148 140 134 138 137 139 134 127 131 114 115 101 108 88 86 125 132 139 140 137 143 127 118 131 131 136 133 133 127 39 39 47 66 74 90 115 129 142 140 150 148 152 149 149 148 155 152 145 144 152 142 
168 162 174 169 154 154 144 145 155 171 136 119 221 231 212 191 174 163 172 172 163 125 120 145 144 128 71 66 96 111 127 142 151 154 161 173 166 162 161 163 156 157 152 145 151 153 147 140 141 132 122 113 99 102 110 89 135 145 145 144 147 150 134 132 136 132 134 134 137 94 32 40 54 69 87 101 123 137 138 145 153 148 153 147 150 153 152 156 146 140 148 148 
164 168 173 162 148 150 150 149 167 163 148 112 180 238 220 197 178 161 166 170 163 136 145 169 170 179 140 84 62 73 83 112 112 120 120 131 136 142 143 136 135 134 134 130 127 133 130 118 118 104 92 84 77 108 118 105 142 147 146 147 150 157 137 133 130 132 131 133 133 59 33 46 62 77 99 111 129 140 138 152 148 152 148 146 151 150 154 160 145 147 138 147 
166 170 158 160 147 148 150 156 164 158 153 133 122 231 221 206 177 172 164 162 165 146 159 180 190 190 193 155 119 88 70 132 133 123 125 106 114 115 118 113 113 116 100 116 103 93 105 91 90 56 52 85 117 129 123 111 146 155 156 149 148 141 126 125 129 126 133 133 113 36 39 57 74 88 111 115 140 139 142 152 149 145 148 143 149 149 156 154 153 147 132 145 
172 169 144 159 147 151 158 166 162 157 156 154 120 175 218 212 184 177 170 161 168 164 167 178 190 192 193 185 160 140 115 98 111 137 165 150 116 102 103 100 96 102 81 120 110 67 74 67 69 86 111 149 145 146 128 124 156 159 159 146 142 137 130 132 132 129 131 122 86 32 46 64 94 103 119 128 137 142 146 148 151 143 145 148 145 144 157 151 153 147 134 136 
160 169 146 148 148 156 161 163 155 160 163 166 134 118 203 213 188 181 177 177 177 175 179 182 181 183 186 181 169 148 151 132 89 102 141 143 123 115 132 127 124 107 96 113 90 64 76 101 116 135 156 159 154 159 140 137 156 155 145 138 142 136 137 132 125 128 123 107 69 41 59 79 102 115 125 137 139 146 151 147 148 141 150 145 140 149 154 152 151 152 141 133 
163 171 144 145 151 157 162 154 165 163 161 177 143 120 145 207 186 177 187 186 186 187 185 190 182 180 177 177 173 155 153 153 147 127 111 109 90 99 128 118 112 95 79 93 95 102 96 110 128 142 150 151 162 156 142 138 149 143 142 131 134 134 131 130 126 121 109 92 58 53 73 93 118 119 136 137 147 148 142 154 146 145 145 150 141 148 160 149 151 151 142 137 
159 155 143 145 148 165 153 152 163 166 157 161 151 128 106 165 184 170 184 191 195 195 199 191 186 179 170 180 176 166 153 142 142 155 156 139 120 100 103 90 96 89 99 102 102 101 103 116 130 137 142 154 156 153 141 137 145 139 129 124 130 129 127 126 124 111 95 84 46 72 89 109 123 128 135 144 150 146 150 146 147 145 144 147 146 143 157 153 149 152 143 135 
156 142 145 141 154 157 152 148 158 158 143 152 145 132 111 100 162 169 174 188 203 207 206 196 190 182 179 166 173 167 160 146 131 127 134 136 126 129 123 116 106 103 98 93 90 100 109 131 135 141 141 153 147 144 137 136 138 126 123 123 130 125 126 126 118 94 87 65 59 84 103 126 131 136 142 146 148 145 147 144 142 146 146 148 141 150 151 151 149 152 145 136 
146 142 147 141 149 150 144 148 157 146 142 143 139 136 116 94 85 160 167 182 201 210 221 203 200 192 186 168 158 169 157 151 136 120 109 106 102 106 106 103 103 98 95 100 109 120 128 137 134 141 150 152 146 143 141 138 130 130 127 127 129 130 126 122 95 63 64 57 71 107 117 137 136 148 147 144 148 145 146 140 145 147 148 142 144 149 149 150 152 155 140 140 
146 141 149 146 150 142 140 148 156 141 138 142 136 130 125 103 56 111 165 170 191 198 218 221 206 200 195 179 162 162 155 152 142 128 115 108 104 104 98 105 106 110 119 120 127 133 132 131 130 142 149 151 150 142 143 140 131 131 123 123 126 126 119 111 81 42 60 67 92 126 133 145 145 151 146 150 143 143 144 142 143 144 146 144 142 152 148 150 152 157 139 140 
136 146 138 155 150 138 148 148 152 141 145 137 143 130 122 108 57 95 149 158 180 195 206 224 217 212 204 193 176 162 149 145 140 133 124 118 112 110 107 113 115 121 124 126 132 128 130 132 138 146 154 150 152 142 141 138 130 128 130 124 131 115 120 104 76 51 66 102 113 141 143 154 148 151 153 145 146 145 148 143 150 142 145 145 145 150 145 154 151 149 140 138 
141 143 140 150 156 151 156 159 151 140 144 143 142 133 117 113 57 96 153 144 163 187 201 215 219 217 211 203 186 177 154 141 134 125 119 115 116 111 114 108 113 112 113 111 116 119 127 138 146 152 152 151 146 143 136 130 130 130 125 125 120 116 121 97 58 72 91 111 131 143 153 152 146 154 153 149 150 147 148 145 150 146 143 145 147 150 151 152 151 144 144 140 
143 143 145 149 148 156 157 154 148 141 142 145 140 128 117 103 64 99 157 151 144 162 186 207 213 219 215 211 197 185 179 165 143 131 117 117 107 107 108 109 105 103 109 108 114 123 128 133 145 147 146 145 141 138 133 125 127 124 121 113 126 123 120 83 61 71 92 120 136 150 157 146 154 151 156 146 151 149 150 152 150 143 146 143 147 153 148 152 145 146 146 138 
183 154 140 156 148 155 146 150 144 146 141 140 132 124 116 99 54 107 157 155 152 144 171 196 212 220 218 219 209 197 190 179 168 151 137 126 115 110 109 112 110 117 114 120 116 125 124 131 136 136 139 136 136 128 121 119 114 112 113 125 131 124 104 74 66 82 109 127 141 153 152 151 154 153 151 153 151 150 152 153 150 148 145 149 145 152 149 151 147 145 148 137 
215 163 154 151 170 161 154 143 142 142 141 136 124 123 105 95 57 119 156 161 160 154 144 180 203 218 218 222 216 209 204 197 189 182 170 159 151 140 137 127 125 126 122 123 116 122 125 127 134 133 131 131 124 108 109 105 101 109 126 129 130 118 89 71 72 100 116 129 146 153 148 157 154 158 152 154 152 158 150 154 150 146 151 148 145 152 152 152 144 142 150 141 
189 176 173 144 166 159 155 146 149 142 146 130 122 116 101 99 82 124 159 156 160 161 152 145 185 203 217 224 225 222 211 210 209 201 191 184 178 176 166 160 149 151 138 129 125 129 130 136 129 131 125 123 105 98 99 92 115 123 134 127 126 109 81 72 93 109 119 135 143 154 153 154 157 155 151 156 150 161 154 150 151 148 147 146 148 152 145 152 143 144 149 147 
165 172 175 143 156 150 155 143 142 147 139 121 115 106 108 105 97 126 153 165 160 164 161 145 158 194 207 220 228 225 221 216 217 209 203 189 185 179 176 172 166 161 156 145 142 139 136 136 133 125 122 111 96 93 100 117 126 130 134 130 126 97 71 82 98 112 121 137 148 150 156 153 159 152 154 156 152 156 156 151 152 145 152 146 151 154 141 149 143 153 145 156 
168 181 168 148 155 150 151 139 144 140 134 116 100 117 121 106 106 127 148 162 168 162 162 162 140 172 195 212 225 227 229 221 216 215 211 200 195 186 184 179 177 171 160 156 152 145 144 133 130 125 114 100 93 110 120 131 133 134 137 140 122 99 67 89 100 116 119 141 143 152 156 152 156 151 158 160 157 155 150 151 148 147 149 150 151 150 142 147 149 152 147 168 
