P2
# Imagen
92 112
255
122 127 125 126 123 124 123 125 124 128 128 130 135 131 130 137 139 144 155 169 171 166 189 201 216 223 197 180 206 166 148 170 189 177 192 192 177 175 202 210 187 205 220 215 214 210 208 199 203 234 241 237 229 231 225 222 222 220 212 214 209 210 196 183 183 168 157 140 144 142 146 138 138 133 132 125 127 125 124 126 122 129 127 127 125 124 126 124 125 129 126 128 
122 123 127 125 124 128 124 125 127 128 131 135 138 134 136 143 148 163 173 166 179 189 197 211 217 186 159 149 159 145 135 144 152 155 156 151 148 153 159 169 152 161 166 183 166 160 137 148 142 143 225 231 224 230 233 232 229 228 223 227 218 217 210 210 200 185 189 172 154 143 141 145 142 139 132 125 128 129 121 128 128 125 125 126 125 123 123 127 128 126 124 126 
121 126 124 127 122 127 124 126 131 130 134 139 139 138 144 149 157 176 187 181 183 206 206 213 201 147 131 130 134 140 133 144 133 144 137 139 134 144 129 144 126 142 132 146 138 134 127 128 131 120 170 212 204 226 227 229 226 227 228 224 220 221 213 215 218 205 197 202 189 177 150 145 146 141 143 131 129 129 126 129 128 125 127 125 129 127 126 127 125 124 126 124 
127 128 128 129 127 126 128 132 135 140 145 140 145 147 158 164 168 191 194 200 203 216 212 170 145 125 125 130 126 129 134 130 125 130 130 130 131 134 130 128 126 132 135 118 126 123 125 127 118 123 124 135 155 168 169 168 173 170 203 221 211 213 214 204 216 217 208 201 200 206 190 170 155 153 145 135 137 133 129 127 126 129 123 127 130 125 128 124 124 125 129 125 
125 128 132 133 130 134 132 137 138 142 150 146 154 168 176 185 192 207 211 211 219 223 170 139 124 129 125 125 124 128 128 132 117 124 128 123 129 123 128 127 127 128 130 124 123 122 117 114 120 119 116 121 127 125 134 129 131 123 114 131 158 182 220 218 204 215 213 216 210 210 199 195 177 173 160 142 137 145 138 130 130 128 129 129 128 125 129 125 125 128 125 128 
124 127 129 128 128 136 137 145 144 155 158 160 170 186 198 200 201 208 216 219 223 187 144 119 124 127 125 125 113 123 124 124 118 119 124 127 125 123 117 122 122 122 117 123 117 129 110 114 112 119 116 112 120 116 121 128 123 119 115 119 105 117 140 161 176 184 200 212 220 213 208 194 191 190 181 165 147 143 144 144 129 130 130 129 131 124 126 124 127 123 129 127 
128 126 131 129 129 137 144 151 151 161 170 179 192 203 207 201 204 222 221 211 156 141 122 124 121 124 122 120 111 118 127 117 120 114 121 126 120 117 116 121 119 115 116 119 111 126 117 112 111 112 116 112 111 115 123 116 118 124 117 114 116 109 114 120 116 119 127 138 159 201 216 218 198 187 186 189 165 152 146 142 141 131 129 133 129 133 126 129 123 127 124 123 
124 129 130 134 136 141 154 152 154 173 180 191 205 208 208 222 219 233 193 140 123 118 130 122 116 113 125 119 113 117 118 119 118 113 114 122 119 118 109 113 118 114 113 112 116 110 123 115 108 111 104 117 109 103 117 113 108 117 109 126 118 119 107 113 118 119 106 112 108 110 121 163 212 197 193 192 185 163 157 146 144 135 127 130 126 129 126 126 124 125 129 128 
128 130 137 136 147 151 150 159 166 186 196 199 210 215 212 219 211 182 131 120 127 116 134 130 115 112 120 115 110 120 116 121 109 114 110 118 121 113 103 111 113 109 118 101 115 117 113 106 115 107 107 106 114 99 107 111 104 105 104 111 120 116 112 106 114 127 115 105 109 113 107 103 122 145 164 187 194 175 161 155 150 139 135 130 127 127 122 126 127 127 128 124 
133 132 143 145 150 155 152 168 178 198 206 209 204 214 223 175 154 124 123 112 125 115 135 139 115 112 118 114 104 113 117 112 112 107 108 115 117 110 100 108 109 112 112 104 102 121 107 105 107 110 108 101 104 103 103 107 100 108 104 101 110 116 102 102 103 113 128 104 118 115 112 106 102 107 108 114 165 188 176 167 169 152 143 138 133 130 127 124 126 127 131 128 
135 141 144 149 151 155 162 181 192 209 213 189 204 181 156 129 125 116 117 118 121 117 126 138 116 106 118 111 100 107 118 108 108 109 102 111 114 109 102 101 107 111 114 106 96 112 110 107 103 104 107 104 98 107 95 109 99 104 114 97 105 113 96 107 100 105 122 125 108 139 118 107 107 106 124 101 86 127 182 180 176 161 154 144 138 136 131 129 126 128 128 132 
142 148 146 151 155 170 183 196 209 198 174 139 127 134 120 122 120 116 115 113 116 119 126 136 114 107 111 112 100 96 116 109 100 114 92 111 113 104 96 103 109 101 112 112 102 99 127 118 99 109 100 102 102 102 96 101 107 102 112 111 94 98 111 95 106 102 112 112 114 126 138 105 111 103 113 117 105 98 109 162 183 178 168 153 142 138 127 130 130 130 131 127 
149 151 151 155 165 174 193 209 189 144 127 105 118 119 117 116 114 119 114 111 112 113 122 127 114 101 113 108 96 98 112 109 102 107 98 110 103 101 102 93 105 107 100 108 102 96 104 145 100 109 108 88 109 104 99 87 109 125 106 102 109 99 107 103 99 107 106 109 107 134 139 120 109 118 106 110 117 113 101 113 123 174 181 171 154 139 124 136 129 132 129 130 
154 153 157 165 176 189 205 178 137 112 113 112 115 118 110 111 114 115 116 117 111 106 114 115 114 103 114 108 98 99 111 109 110 106 102 107 110 103 100 96 106 109 101 115 102 97 87 145 130 97 121 89 104 118 100 92 92 136 127 92 115 102 102 120 107 102 114 106 112 112 139 116 111 120 125 91 110 131 102 117 117 83 147 191 168 137 132 145 135 128 130 128 
153 151 164 175 191 192 159 122 107 113 114 113 117 111 112 104 111 118 103 113 106 111 109 114 109 108 103 114 92 101 111 117 124 118 98 105 105 107 96 99 107 116 99 128 123 110 114 112 143 97 134 114 91 117 106 103 97 113 157 108 108 103 97 130 118 108 111 120 107 129 124 127 109 113 139 117 98 118 123 99 122 112 67 117 178 144 137 145 142 131 125 127 
152 152 168 185 183 156 116 109 115 106 117 118 107 113 114 109 114 117 107 109 103 112 112 114 104 112 97 114 93 97 116 111 129 129 107 105 108 108 99 91 111 124 107 114 132 120 126 114 134 117 115 133 103 105 115 105 120 107 133 130 112 123 92 123 136 105 117 120 114 128 124 126 100 124 119 137 122 105 121 110 107 113 84 87 98 139 149 138 144 136 135 126 
149 156 178 176 141 114 111 109 107 110 109 118 105 109 114 107 109 116 112 109 107 113 113 109 110 118 99 121 107 97 114 118 127 131 109 104 117 115 95 96 107 127 125 96 128 123 128 129 139 126 113 142 124 103 118 120 120 126 105 122 126 137 100 113 146 109 124 114 126 112 134 116 108 112 120 112 144 109 109 112 104 108 99 90 97 70 146 151 138 138 136 130 
154 166 167 128 97 101 120 106 113 104 112 105 111 110 115 103 112 112 113 113 103 118 113 101 118 117 101 129 112 91 119 122 121 124 109 108 112 116 101 106 110 123 127 120 107 123 115 125 126 148 101 136 126 126 110 117 127 121 115 109 131 122 114 100 139 130 133 117 134 114 126 120 117 104 119 107 134 137 103 109 107 111 107 102 94 63 84 152 131 136 135 136 
168 169 101 88 102 104 105 111 109 104 107 104 105 110 117 105 111 108 115 106 104 114 121 105 117 114 103 137 109 90 117 120 114 120 111 113 107 120 104 121 108 122 130 121 114 114 111 115 112 142 115 113 119 128 126 114 121 121 109 116 132 119 116 88 125 143 120 136 129 127 123 132 116 112 114 128 121 140 117 121 118 103 119 113 99 68 59 138 138 124 138 137 
166 124 76 97 103 107 100 104 110 105 104 108 101 115 111 117 114 111 117 115 103 114 112 101 125 115 106 122 117 104 112 120 105 118 110 120 113 121 115 125 112 119 136 118 120 100 114 113 112 127 131 103 134 118 131 123 114 121 100 110 138 125 111 99 110 141 133 122 128 133 122 140 135 122 127 121 126 135 130 127 124 106 119 120 114 82 66 100 165 130 136 142 
130 83 77 111 107 102 104 99 103 117 107 115 109 120 119 122 117 114 118 111 107 119 107 109 126 119 119 106 112 118 109 125 116 113 111 124 118 113 125 120 113 117 118 130 120 110 102 119 115 112 133 111 134 129 124 125 118 112 111 91 137 128 123 115 102 133 134 127 127 138 131 119 145 133 129 122 119 129 138 128 104 115 122 134 123 112 92 90 135 150 128 144 
83 72 95 108 113 109 108 98 108 124 117 113 117 121 119 120 110 113 109 107 112 119 119 106 126 110 118 108 104 113 108 131 113 113 106 120 116 108 110 113 122 117 117 111 121 112 98 115 123 111 120 120 119 131 124 132 127 117 118 101 110 119 133 105 109 114 141 130 125 110 138 122 126 133 131 146 112 138 156 113 103 123 130 125 137 128 89 61 99 140 145 131 
71 85 111 122 110 114 113 109 114 132 127 122 121 124 115 116 100 119 110 103 106 116 111 115 116 110 114 109 97 110 112 130 112 107 99 117 115 101 112 104 113 105 116 104 112 119 99 110 113 107 104 141 109 120 121 133 120 118 131 110 96 104 131 114 99 99 132 135 135 97 136 123 121 127 126 138 130 146 146 116 122 120 134 137 141 119 90 89 59 98 156 138 
71 99 117 123 115 112 121 116 121 133 134 122 123 119 111 114 101 102 116 97 106 112 102 105 109 104 112 105 94 108 107 129 102 108 94 111 110 100 111 111 103 101 105 103 105 119 105 100 114 87 83 130 130 109 106 117 116 104 125 117 82 87 104 113 88 91 106 122 129 99 123 129 120 126 117 129 136 141 129 114 123 128 141 130 135 121 92 94 74 51 131 138 
107 108 129 127 116 119 116 123 127 127 131 109 113 118 110 112 92 100 117 98 104 104 97 97 99 99 87 94 88 99 98 97 89 88 88 100 96 96 102 100 91 90 92 100 96 103 96 81 104 81 69 102 116 93 93 91 106 91 91 100 78 73 75 100 75 87 82 92 116 101 95 134 116 125 123 121 137 133 121 108 130 134 127 125 133 126 109 93 91 50 79 117 
124 125 133 132 116 117 122 121 121 128 115 114 110 113 101 95 100 94 102 93 89 96 90 83 93 82 88 72 80 91 80 65 66 58 73 74 68 79 73 75 64 69 76 81 84 81 70 66 70 78 53 71 94 75 76 70 80 77 77 72 62 70 60 72 72 69 80 83 89 93 75 114 106 104 119 124 144 122 123 127 132 141 137 130 147 143 112 98 99 71 60 94 
128 133 132 130 128 122 120 115 110 127 110 104 112 103 88 86 91 93 90 82 84 81 82 68 73 67 77 59 61 65 64 61 45 42 50 54 48 51 49 48 40 53 64 57 62 51 57 43 46 62 46 46 64 68 62 57 61 69 58 51 51 63 53 64 69 72 70 63 73 88 64 87 82 83 113 124 141 126 131 124 128 135 150 148 146 148 129 107 96 83 49 86 
119 133 121 133 124 123 124 112 100 122 105 94 103 94 81 85 74 84 82 77 75 86 75 58 53 62 57 50 53 47 43 35 37 31 39 35 27 23 27 28 37 37 42 45 42 38 40 34 35 36 35 51 43 56 60 56 61 60 54 50 50 57 67 66 67 83 61 70 59 87 84 77 79 74 99 120 133 123 120 110 120 124 127 133 145 151 134 122 103 99 51 64 
114 125 116 130 117 118 122 121 95 101 108 99 95 98 79 91 83 72 85 76 78 80 68 53 48 45 51 38 41 40 34 28 44 46 45 29 37 29 41 50 57 44 42 56 35 45 46 35 26 42 26 36 60 65 67 74 86 84 76 69 69 66 87 90 96 104 93 90 88 112 113 82 94 73 92 110 126 126 122 120 125 131 134 132 135 139 134 117 100 87 68 55 
115 121 110 118 128 110 114 112 106 101 102 103 94 95 89 94 91 73 82 80 74 82 72 53 51 59 51 42 50 49 48 45 59 76 75 38 65 59 73 66 69 78 78 60 56 53 62 55 50 54 49 44 75 88 96 93 109 102 114 96 107 97 116 112 114 132 118 124 128 128 119 104 91 82 93 111 123 131 123 126 135 130 130 140 138 135 135 118 106 89 71 40 
121 124 113 105 123 121 119 102 104 108 106 103 111 95 94 100 81 80 73 84 68 65 73 63 64 80 65 63 70 63 74 68 93 102 111 76 94 106 94 95 89 112 115 83 54 91 71 74 76 77 77 69 85 101 115 114 123 127 130 128 116 137 128 134 123 142 146 134 147 144 135 117 90 89 106 119 127 129 133 137 133 145 137 135 132 132 135 128 119 92 77 40 
114 122 120 114 115 113 110 109 106 109 112 117 97 90 96 109 84 89 74 72 78 60 60 56 71 82 101 103 110 110 122 101 122 120 125 114 110 129 115 119 101 127 124 104 78 101 110 101 96 115 117 119 113 114 123 119 120 141 139 127 145 151 134 151 127 135 144 133 137 118 115 117 97 112 116 120 130 131 125 142 129 137 136 136 134 121 128 130 108 101 75 55 
102 121 126 128 114 102 108 119 116 108 107 123 113 100 97 105 98 83 79 71 67 76 65 63 68 81 102 102 111 130 144 144 127 118 112 121 108 122 113 103 110 128 116 113 121 114 121 116 113 127 119 123 129 115 132 132 138 135 149 142 143 159 139 154 134 125 167 153 133 116 109 116 112 113 120 120 110 125 132 136 136 136 141 140 139 142 122 122 108 96 73 58 
109 129 123 121 122 111 110 119 119 117 119 118 102 105 97 110 104 84 89 81 75 75 73 69 76 77 91 85 101 121 138 138 135 126 90 122 104 109 115 86 100 122 103 115 111 107 111 109 94 126 124 109 130 117 134 140 137 139 148 146 142 157 150 150 144 132 162 170 149 133 111 115 111 110 115 113 120 115 123 134 137 146 152 140 152 148 142 128 108 90 69 62 
127 130 130 124 132 115 119 128 129 132 115 99 98 106 108 113 112 87 97 91 91 86 84 81 82 79 87 83 104 120 136 138 124 127 90 101 97 97 111 80 95 120 110 113 113 110 117 101 100 127 127 112 132 125 138 148 140 142 145 152 148 153 158 154 150 142 160 166 170 159 133 135 112 109 106 108 108 123 122 137 134 152 171 149 143 153 148 149 116 91 80 58 
120 133 138 135 127 125 122 132 137 120 107 104 104 116 112 117 106 97 111 105 108 106 85 84 93 90 87 91 108 114 129 127 116 114 101 109 97 95 99 100 108 127 124 120 118 121 126 109 106 126 128 116 137 134 135 149 147 142 143 149 153 153 158 156 157 149 161 163 173 173 156 145 132 115 123 106 115 123 121 135 139 140 156 165 142 152 141 157 147 105 80 66 
125 135 136 135 136 124 130 135 140 116 122 112 118 119 117 105 110 106 118 107 105 89 77 88 103 90 88 98 124 116 122 130 132 124 118 122 120 106 92 123 123 129 128 117 122 131 125 117 110 131 124 124 135 136 134 144 148 144 139 149 151 154 156 160 160 155 161 163 170 174 169 157 143 137 139 124 133 125 111 136 135 142 143 155 165 143 160 126 153 127 95 79 
121 133 128 137 137 131 135 138 139 127 120 123 124 114 109 107 119 113 110 109 97 88 85 102 102 100 93 115 136 125 124 128 133 132 132 128 130 126 96 117 134 128 129 117 116 131 129 120 120 125 130 130 132 136 136 143 146 148 135 145 150 153 157 158 159 157 163 161 170 171 175 165 159 151 143 140 144 140 130 120 136 134 145 139 157 151 161 138 113 137 104 79 
124 126 119 128 139 151 135 144 135 133 126 124 123 117 93 119 122 110 109 103 99 100 94 93 106 118 108 127 137 136 132 129 135 134 136 127 125 128 121 116 127 129 128 129 118 131 133 126 133 123 126 130 137 136 136 140 144 141 144 144 149 152 155 159 157 163 164 163 167 172 172 171 171 165 154 149 156 154 136 134 129 138 142 138 143 142 152 156 99 109 104 93 
129 120 115 123 144 137 139 140 139 129 119 126 124 112 101 128 119 110 117 111 106 102 103 102 117 120 123 129 138 139 133 129 135 132 138 133 128 123 125 129 130 130 127 133 129 128 134 130 126 132 125 133 134 137 138 137 142 144 142 142 149 148 154 158 161 164 163 167 167 173 172 171 176 176 159 159 162 167 162 139 145 130 141 135 138 142 141 149 125 100 98 81 
137 116 114 131 148 135 130 137 138 124 114 128 129 103 112 120 125 110 117 126 118 108 115 114 117 118 129 132 134 138 134 129 131 133 137 135 131 127 122 134 134 132 132 131 136 129 134 131 129 132 129 132 135 137 138 138 140 144 143 141 145 150 150 154 160 167 164 166 172 170 173 176 178 178 173 169 169 172 181 159 158 145 140 138 134 135 140 140 129 102 99 80 
139 122 123 141 143 132 120 135 140 116 114 129 128 102 109 123 131 121 122 137 127 118 127 127 113 113 129 133 131 141 137 133 132 136 138 134 138 132 127 134 135 136 134 134 135 136 135 134 129 134 135 130 132 140 140 138 143 142 145 144 145 148 150 156 163 166 167 168 173 171 177 177 182 182 170 171 182 173 192 182 175 157 150 138 133 128 134 134 122 109 99 79 
122 128 135 132 141 118 122 138 141 113 117 126 120 104 107 136 146 125 130 138 129 133 143 136 130 111 135 139 136 142 143 142 137 142 143 141 141 135 133 135 136 136 132 134 133 139 134 138 134 133 136 136 133 140 140 141 147 147 147 149 152 155 159 166 169 176 174 172 174 176 179 181 178 179 173 174 182 184 189 201 182 175 158 145 133 128 132 134 118 101 104 85 
120 133 124 129 139 121 121 133 135 111 118 123 117 98 117 141 152 143 132 138 138 143 143 144 139 123 128 136 132 141 148 144 143 149 149 146 148 142 141 140 135 137 133 133 136 136 134 137 137 135 137 137 135 139 143 145 150 153 152 154 157 161 163 170 174 179 178 179 182 182 182 183 187 182 181 179 181 186 188 204 186 183 169 149 139 129 131 129 122 104 105 86 
124 125 121 129 130 114 122 126 129 113 109 123 109 114 125 142 155 147 136 147 137 150 143 143 146 137 131 133 137 140 143 144 148 148 146 148 150 143 143 145 136 135 134 136 134 138 136 134 137 138 136 138 136 139 143 151 151 154 151 155 161 160 167 166 173 175 183 179 184 184 188 186 188 185 183 184 185 185 186 204 200 184 176 157 142 134 124 128 119 109 99 91 
120 118 128 128 120 114 124 124 118 105 117 112 114 122 138 136 152 146 149 150 147 145 138 146 140 134 133 130 134 135 140 140 144 145 143 146 144 142 144 144 139 136 136 134 135 137 139 134 136 137 138 134 135 140 145 153 152 152 147 151 161 160 167 165 167 174 177 177 179 186 187 186 189 189 190 182 191 179 190 205 205 194 180 166 140 134 124 120 119 106 103 87 
119 117 128 122 122 120 118 121 110 109 111 110 115 122 145 129 153 153 156 148 144 136 135 137 130 129 129 129 127 132 132 137 140 140 136 144 140 140 140 143 138 137 135 134 134 136 137 134 134 134 136 136 138 137 147 151 150 150 145 155 156 156 160 160 161 162 167 167 166 179 175 179 178 189 185 189 190 186 187 203 210 190 188 164 140 130 123 120 108 109 100 99 
112 118 125 113 129 119 113 113 110 112 112 113 110 115 144 129 154 156 149 141 135 136 135 131 127 125 132 128 129 127 129 130 133 134 134 139 137 135 135 136 135 137 133 132 133 132 136 135 132 135 136 134 141 137 147 148 148 147 148 147 149 150 152 153 153 156 158 160 160 167 172 173 172 175 185 193 195 189 193 195 208 197 190 166 138 128 124 116 103 112 93 95 
128 114 123 119 127 121 111 110 103 106 115 112 92 117 131 145 147 148 145 142 135 134 134 136 129 130 134 135 132 130 132 132 131 132 131 138 133 136 135 138 133 136 134 133 132 133 132 135 132 135 132 137 137 142 145 146 144 146 143 142 143 145 150 151 153 156 157 160 167 172 175 171 175 171 178 186 202 193 194 195 203 196 189 166 137 125 127 113 102 106 94 81 
125 116 113 121 131 117 117 97 103 102 114 99 100 96 122 154 146 139 143 145 136 137 137 133 137 132 133 136 137 133 134 135 135 135 138 137 134 131 136 135 137 138 135 133 131 133 132 134 135 135 133 135 140 142 147 146 143 141 145 146 148 150 155 156 158 159 161 166 167 175 177 172 174 176 177 181 198 198 193 195 204 197 196 161 133 128 123 112 105 106 93 76 
107 113 116 124 129 122 109 100 98 110 96 97 93 101 114 141 136 142 142 143 140 138 139 140 136 141 140 140 141 142 139 142 139 139 138 140 140 136 136 137 137 138 139 134 132 133 136 133 136 136 135 137 142 147 145 144 143 144 149 151 152 153 157 158 161 165 167 169 172 180 177 176 181 187 181 191 194 209 199 190 203 195 198 163 130 130 124 109 107 97 93 73 
92 117 116 122 125 122 108 106 107 105 94 84 83 113 110 129 134 143 146 141 137 148 141 149 148 146 146 147 146 145 146 152 146 145 145 140 144 141 137 139 138 138 140 137 134 134 135 134 136 135 136 140 145 146 144 145 150 149 148 151 155 160 161 166 168 173 178 176 178 182 185 186 188 190 186 190 190 205 206 189 196 196 197 161 131 128 127 112 100 95 90 70 
92 106 119 117 120 118 115 108 108 104 98 76 87 111 131 131 127 143 143 145 141 149 156 161 153 152 146 152 156 151 149 155 158 148 148 152 148 147 146 140 140 143 141 140 138 137 136 138 140 141 141 148 148 143 144 149 152 150 155 158 164 172 177 182 182 186 190 191 193 195 196 199 199 196 193 194 197 203 208 198 193 199 199 153 135 118 133 110 105 86 84 73 
100 102 115 115 123 114 113 111 106 107 93 85 96 129 132 152 141 125 147 157 162 170 173 171 163 156 155 167 172 179 160 163 177 165 154 157 165 157 154 152 149 149 148 147 145 142 141 143 142 144 146 149 153 148 149 155 157 163 162 162 171 184 182 180 186 192 192 190 197 203 206 205 204 200 194 188 194 202 212 199 196 198 203 155 132 124 125 118 98 84 82 70 
103 98 113 113 114 117 112 106 106 105 92 93 113 134 139 156 145 146 151 168 178 180 168 161 160 157 163 171 191 191 188 184 192 184 172 167 175 174 169 161 163 158 160 158 158 154 151 154 151 150 151 156 155 158 156 160 170 168 161 164 181 190 190 176 187 196 193 180 189 202 205 198 197 186 186 184 174 182 203 205 196 203 207 164 133 123 123 117 98 90 69 70 
102 102 107 111 113 112 110 102 104 96 88 93 110 130 144 148 148 161 179 184 174 151 132 126 146 154 149 160 182 179 178 185 197 188 181 178 180 176 175 172 170 172 172 170 169 170 165 163 162 161 161 166 167 170 161 165 174 172 166 165 182 191 195 188 181 179 160 142 137 144 157 156 150 143 133 142 150 129 158 201 194 204 220 184 134 123 117 120 101 86 71 60 
104 102 107 113 109 108 108 97 104 92 83 96 124 136 135 150 150 162 177 159 118 86 86 107 109 103 90 101 109 113 124 125 133 131 130 143 154 155 156 167 160 169 169 176 176 174 173 171 169 172 173 175 177 174 170 170 173 173 173 168 155 154 147 128 104 115 98 82 83 87 99 104 109 108 96 96 108 108 94 151 192 201 227 211 147 109 121 116 105 89 77 62 
109 96 108 107 114 108 107 100 104 92 96 114 141 142 143 145 150 146 123 79 66 67 78 83 75 64 57 57 67 73 66 69 72 70 71 76 87 96 109 115 130 141 162 165 171 172 173 173 177 179 182 184 186 180 173 179 179 175 173 155 114 106 96 86 85 92 88 78 87 88 97 88 95 107 99 103 112 118 95 73 131 192 229 225 159 107 113 113 100 89 80 64 
97 99 104 108 110 104 102 102 105 96 110 128 153 154 155 145 122 82 45 46 69 82 73 72 61 53 56 65 69 74 63 56 69 62 62 54 60 64 80 88 100 101 146 162 169 170 173 171 176 183 188 185 186 179 176 171 186 181 160 124 113 96 91 89 78 82 90 92 89 100 103 106 116 147 167 166 162 166 136 103 70 138 232 235 175 105 110 106 102 89 81 71 
101 99 99 109 109 105 102 102 107 102 128 147 157 159 169 127 87 41 52 104 125 133 130 127 120 119 123 125 122 119 106 100 92 87 75 77 86 92 96 93 93 97 108 154 163 170 169 168 178 182 185 181 180 173 177 168 171 163 118 116 116 112 107 105 98 104 114 128 138 151 168 173 172 195 205 211 198 186 183 172 127 89 213 244 194 107 105 107 101 90 80 77 
107 102 102 111 110 98 100 100 101 114 129 157 148 158 156 85 60 64 111 158 172 173 168 175 175 172 149 153 153 147 135 137 120 115 106 101 109 118 121 113 114 108 116 143 157 170 170 171 181 190 188 181 177 172 172 159 149 115 99 112 128 130 139 145 142 137 142 143 145 146 147 154 150 163 174 192 198 175 176 180 178 100 178 247 207 124 102 105 101 92 87 82 
110 107 105 115 108 98 90 93 97 121 136 148 154 150 120 83 86 122 132 161 165 159 162 165 143 132 105 101 107 100 89 101 101 74 82 87 93 110 130 124 114 118 112 128 146 163 177 179 186 191 191 183 188 180 168 149 124 97 89 118 134 129 125 140 130 115 101 98 101 116 110 96 107 116 118 150 180 170 157 166 182 141 167 246 213 121 108 111 98 90 89 86 
118 108 107 112 110 87 92 88 94 124 141 148 154 129 94 92 111 127 138 139 135 130 123 123 105 89 88 98 108 87 65 51 75 54 40 64 71 82 101 126 127 112 100 92 124 164 176 182 189 197 196 191 194 188 177 149 104 81 102 133 134 125 132 147 130 103 71 63 60 78 83 66 63 104 117 101 143 166 153 160 175 161 182 239 223 127 103 108 105 97 92 88 
122 105 99 121 101 86 88 83 82 130 144 150 146 119 95 103 122 123 119 122 101 79 81 92 68 51 75 99 134 124 62 21 81 58 20 5 40 86 114 102 113 125 113 80 81 153 181 187 191 202 203 203 202 193 166 127 99 101 107 119 129 145 144 134 178 150 9 101 97 66 54 55 75 68 71 122 123 147 154 150 164 168 192 240 234 140 105 102 102 97 102 86 
129 106 105 118 101 89 83 83 85 136 151 146 141 118 92 97 113 106 104 91 77 68 69 52 46 67 111 156 207 158 84 44 71 139 5 0 36 122 103 129 113 113 111 91 75 126 173 188 197 202 209 203 196 195 156 117 115 117 107 132 145 145 149 205 241 166 28 87 165 58 71 43 109 91 55 85 147 142 141 147 161 173 195 240 241 152 106 103 101 88 100 94 
118 110 109 114 100 86 82 92 85 142 149 151 142 117 101 99 99 98 83 86 84 56 36 40 58 104 135 182 211 191 65 63 27 34 25 17 56 162 122 85 128 115 118 102 79 104 161 177 192 200 210 200 186 183 135 110 129 125 127 126 130 145 191 224 251 189 60 61 69 75 64 57 125 115 67 62 122 151 140 146 168 184 208 243 239 165 105 102 98 84 93 89 
115 103 115 122 96 81 88 90 85 139 153 148 137 132 120 116 116 107 101 85 97 64 13 33 76 102 137 161 190 215 116 54 51 26 35 21 103 160 142 114 97 136 128 111 107 104 138 179 186 196 203 191 175 174 129 115 142 149 133 130 171 147 191 216 233 225 107 62 60 77 57 102 141 118 73 72 108 142 135 156 184 195 219 247 243 170 110 105 99 91 89 89 
107 104 134 122 94 88 90 88 84 142 154 146 143 138 139 132 135 133 125 110 115 96 58 30 43 56 81 120 157 173 178 89 73 69 71 92 117 129 126 132 135 141 134 118 124 123 136 155 172 184 193 180 171 164 136 117 136 147 143 140 145 132 149 166 158 163 150 127 116 117 115 120 105 84 73 95 147 153 153 173 198 205 228 252 237 177 108 113 96 103 92 88 
105 112 140 114 95 95 84 85 80 142 153 144 147 142 140 143 139 139 137 117 119 106 87 70 72 63 61 69 89 102 128 116 111 112 109 125 128 129 128 131 139 147 144 124 134 128 130 150 163 172 183 183 175 160 126 116 122 145 124 127 150 145 148 155 137 125 113 121 117 117 95 92 93 93 99 124 155 165 174 182 200 215 228 255 232 183 120 114 99 106 97 85 
103 119 139 110 107 84 81 86 71 135 147 145 147 146 141 142 137 136 137 129 117 113 107 91 84 92 96 99 99 99 105 104 104 110 114 112 109 112 117 132 146 157 153 124 130 122 128 145 163 171 177 177 174 158 125 106 112 131 132 117 124 135 147 152 155 143 135 139 133 130 113 125 122 119 114 141 159 170 180 182 206 219 228 253 233 173 136 110 105 106 100 84 
102 107 143 116 106 83 79 80 65 129 144 144 143 146 143 139 135 133 133 127 126 110 116 105 97 89 95 100 100 103 104 103 102 111 107 107 112 120 133 151 167 167 155 132 125 131 129 145 158 177 178 179 175 159 124 110 109 122 144 148 132 119 128 142 144 149 139 132 130 124 123 119 121 119 117 150 167 176 176 188 202 215 225 250 223 157 145 116 106 108 100 80 
101 99 147 123 110 87 75 77 59 116 142 140 146 149 145 136 134 130 128 126 119 122 125 114 104 98 96 96 94 91 95 92 97 99 98 101 114 130 143 156 159 161 154 138 128 132 129 139 155 177 183 182 181 156 122 105 105 112 137 151 153 143 132 130 133 129 133 123 123 126 121 126 126 135 136 162 169 176 173 187 206 214 215 245 219 143 150 124 110 105 100 88 
106 94 159 139 105 94 79 87 55 99 134 140 143 145 144 136 132 127 127 126 123 122 127 114 110 101 94 93 95 93 97 93 108 105 113 116 129 138 145 153 152 143 145 138 130 132 132 135 154 176 179 175 179 152 116 106 101 105 125 147 157 161 154 143 134 128 127 120 118 122 120 127 133 139 150 165 167 178 171 189 212 208 210 234 219 132 149 147 108 101 104 86 
114 98 132 143 121 91 84 86 56 68 128 131 136 137 138 142 133 128 128 128 125 128 129 128 125 122 118 118 114 115 114 114 123 127 128 133 135 136 139 145 142 142 139 132 125 131 127 138 153 166 168 171 173 155 111 106 99 100 119 137 150 159 163 159 150 144 136 134 130 138 139 147 153 163 170 182 181 175 172 190 205 207 202 231 203 151 154 140 116 107 104 94 
120 112 110 149 130 100 107 83 59 56 116 130 130 135 139 137 132 132 129 126 126 129 131 128 129 125 127 126 126 126 125 125 129 135 134 136 136 134 135 138 138 133 139 127 121 123 126 126 145 163 164 163 165 145 112 95 98 96 115 128 142 155 159 158 158 152 151 150 151 155 154 154 162 171 177 183 185 178 175 191 207 192 202 219 184 181 145 125 134 111 102 103 
119 116 112 134 134 114 127 95 57 54 111 114 131 129 141 138 137 126 130 128 130 131 130 128 128 126 128 129 130 130 130 130 131 134 133 135 136 131 132 133 130 128 133 125 124 119 118 129 140 158 162 163 156 136 103 91 98 94 103 119 135 144 153 154 151 153 151 150 152 157 158 157 164 171 178 180 184 172 185 193 192 191 203 217 181 181 128 134 142 125 101 101 
114 123 115 119 129 125 138 120 77 49 92 112 117 131 134 142 137 131 130 131 132 130 131 129 128 128 128 129 131 133 132 133 134 135 137 137 137 134 132 131 126 127 129 120 119 119 121 124 138 155 163 161 158 135 106 93 93 91 101 115 127 141 148 150 151 151 153 150 155 158 159 160 168 171 184 176 181 177 183 200 189 185 208 203 193 177 124 133 156 134 111 102 
113 137 112 93 134 121 142 133 101 52 74 104 108 117 128 134 132 136 134 135 133 130 129 130 131 130 132 131 133 135 132 133 134 138 139 137 137 136 132 129 121 125 126 116 113 117 125 131 142 155 161 161 158 137 113 95 89 85 96 105 123 138 146 148 152 155 151 152 155 162 159 163 168 176 184 178 182 182 187 198 183 184 208 192 203 183 104 135 152 131 137 100 
126 132 115 95 109 129 135 126 106 67 61 105 102 112 125 122 127 136 137 139 136 132 126 130 131 131 132 135 134 137 136 137 136 142 142 140 137 134 132 128 116 115 116 113 111 118 132 140 145 155 158 157 160 148 126 103 81 83 84 98 120 137 146 150 153 157 157 154 159 160 161 162 172 176 177 179 183 186 190 193 174 187 205 195 217 174 88 121 151 134 140 120 
137 118 123 120 82 133 150 123 122 89 58 99 96 103 118 121 120 137 136 140 135 131 132 132 133 131 135 135 136 139 141 139 141 148 142 145 138 135 129 126 102 98 117 111 109 120 138 140 150 150 156 155 156 149 138 113 83 79 71 83 114 134 145 148 152 161 160 160 163 161 164 163 178 176 177 180 183 186 188 188 172 187 198 198 233 138 96 110 144 142 143 126 
133 110 121 130 103 112 180 149 137 137 75 85 97 97 109 115 120 137 141 140 133 132 133 136 133 134 133 138 139 144 145 143 144 149 144 147 140 129 125 115 87 98 126 128 109 115 135 148 146 149 157 159 152 153 141 122 90 94 70 72 109 133 143 151 156 161 162 163 167 158 161 165 177 178 174 178 181 185 191 179 170 199 190 222 213 114 105 107 127 144 136 131 
130 105 122 122 126 101 147 167 164 157 112 79 96 93 107 108 114 126 132 137 134 134 137 136 134 135 134 140 142 147 147 140 143 147 143 147 143 130 124 106 80 123 134 141 122 112 137 151 148 148 160 158 154 151 144 127 97 108 100 72 106 129 140 156 156 159 166 168 164 164 161 170 176 174 176 174 177 185 184 176 184 200 202 214 155 111 113 116 118 140 128 131 
118 107 122 120 123 120 104 132 169 172 140 86 97 90 100 105 110 125 129 136 132 136 136 138 136 137 139 143 146 152 145 142 141 144 142 147 144 136 130 109 98 134 137 140 135 117 132 153 155 155 164 169 162 154 146 129 114 106 116 87 110 120 143 153 156 160 167 167 165 167 167 170 173 174 179 173 181 191 189 187 196 221 199 142 127 126 115 117 122 125 127 122 
113 109 118 119 126 119 112 88 113 155 134 103 99 100 97 105 107 120 130 136 131 130 140 137 137 143 143 150 151 150 150 147 144 146 140 142 148 147 149 128 104 124 126 131 135 133 142 158 168 170 179 178 170 159 152 137 123 108 103 101 116 127 143 154 157 160 170 168 163 168 170 174 173 175 173 177 190 196 204 199 211 236 164 107 125 129 125 116 118 126 120 120 
112 108 117 116 124 118 119 96 96 93 68 120 119 103 97 108 111 110 128 131 135 137 140 140 140 147 149 150 153 150 152 152 153 147 134 143 143 147 166 162 130 92 73 82 99 121 144 172 170 179 182 179 169 162 151 129 108 81 68 108 139 138 145 154 156 161 167 161 165 168 173 173 173 174 181 185 195 204 210 211 218 238 141 110 122 127 129 116 121 125 119 117 
110 114 111 117 122 122 120 105 93 106 57 99 136 116 109 104 105 106 117 127 131 134 135 141 143 148 150 152 155 154 149 151 150 143 135 139 142 150 165 163 157 127 78 41 58 80 108 148 160 167 177 171 163 148 127 89 70 51 86 144 151 142 146 151 151 154 160 159 163 168 172 171 172 183 182 197 206 203 209 220 228 229 129 114 125 124 124 119 114 120 132 113 
110 113 109 115 121 123 126 111 96 105 64 85 141 126 114 105 108 98 113 126 131 134 140 145 146 150 150 150 151 149 141 138 136 134 129 131 146 156 163 161 147 146 116 80 66 71 74 99 115 133 135 139 131 117 80 53 65 90 126 158 157 149 139 151 150 154 156 156 163 172 171 173 179 182 189 197 204 199 206 220 236 210 120 116 125 130 121 124 114 119 130 123 
115 110 114 114 122 118 126 118 98 102 75 70 144 126 122 109 105 101 105 124 129 134 148 150 154 152 148 149 144 139 136 125 123 119 125 142 151 162 166 167 156 148 129 101 78 75 69 69 74 84 87 90 84 66 51 78 111 120 145 148 152 149 149 153 142 148 155 154 162 170 170 170 180 181 192 190 196 193 208 220 234 202 108 123 121 127 127 123 112 120 128 132 
114 115 110 122 120 116 130 122 97 112 80 52 128 136 128 114 108 108 103 110 120 128 142 148 145 145 142 139 130 125 120 109 112 118 140 149 159 159 164 173 172 161 143 118 94 81 79 74 67 63 69 77 76 76 86 116 141 143 150 154 149 155 160 157 146 144 155 150 155 165 167 171 179 179 183 182 188 195 214 220 239 182 108 129 117 130 124 128 114 120 126 128 
111 113 113 120 116 121 128 124 100 104 94 44 108 148 132 125 112 108 100 103 112 120 134 137 139 142 130 128 122 116 111 108 118 134 140 150 153 158 164 166 171 164 158 136 111 99 93 85 69 71 76 86 83 102 120 140 150 153 156 163 158 160 167 157 146 145 144 142 149 160 164 171 170 182 180 174 182 200 221 227 233 162 103 125 122 120 123 127 119 117 132 124 
109 112 119 117 116 129 126 121 108 105 99 57 68 152 139 133 120 109 103 101 107 114 124 134 136 138 130 124 118 114 105 116 132 134 135 142 150 158 165 161 159 163 162 151 138 123 106 93 81 81 88 98 109 122 140 150 156 163 164 164 167 166 158 159 145 140 136 147 147 157 164 166 172 182 176 171 185 207 227 227 225 129 112 119 125 118 127 119 126 109 131 132 
110 113 116 114 130 124 125 120 107 110 100 72 48 138 138 140 126 117 110 102 102 108 117 126 137 134 127 126 125 109 117 124 121 127 133 135 148 155 159 155 150 156 158 160 156 141 128 109 102 103 105 111 125 136 153 162 163 161 165 160 170 169 153 148 146 136 124 143 156 163 163 171 174 180 178 169 191 223 227 231 205 110 121 121 123 119 130 126 122 122 124 133 
114 112 114 119 131 124 116 116 107 117 106 83 47 102 143 136 132 124 118 109 100 100 113 129 135 133 136 134 126 120 119 103 110 111 126 135 146 156 156 161 155 155 160 162 161 159 152 137 129 124 126 126 143 149 156 163 162 165 167 164 171 164 145 139 133 137 109 128 158 166 169 172 176 181 179 176 209 227 232 227 168 107 126 119 122 122 125 121 125 115 132 136 
114 117 121 132 127 123 111 112 114 129 107 85 61 56 137 132 131 129 128 116 108 100 108 122 133 141 150 145 132 133 106 102 96 104 120 132 153 158 159 168 169 170 170 171 170 174 172 160 154 153 154 155 162 169 165 171 174 175 180 176 169 163 142 126 124 128 113 113 161 174 178 174 181 177 175 189 221 231 231 214 131 108 126 122 124 123 124 124 125 121 127 125 
113 130 130 128 122 115 110 111 120 139 104 86 79 43 85 145 124 127 129 125 115 113 109 114 129 139 154 157 142 122 89 93 88 85 74 79 99 116 129 146 157 166 172 171 169 173 173 175 177 178 181 176 169 168 173 172 181 174 167 165 151 145 121 97 99 102 116 120 163 192 188 181 178 176 176 208 228 229 231 175 107 122 119 123 123 124 127 126 125 120 129 130 
127 132 137 123 112 112 111 114 129 133 110 89 90 60 34 126 124 129 124 130 126 121 113 111 117 132 144 156 159 130 117 127 134 137 140 104 70 66 77 87 91 108 120 111 112 112 131 141 157 166 157 151 138 131 117 127 121 116 119 107 101 93 113 119 117 129 137 140 176 193 187 177 181 174 190 216 231 236 217 118 118 118 120 127 122 125 128 130 129 125 125 130 
134 136 128 123 103 112 114 122 134 127 113 94 100 75 43 73 120 122 123 134 129 120 112 110 107 119 135 136 147 134 142 155 161 166 169 168 155 123 104 88 84 82 85 80 80 88 97 95 107 121 112 108 108 94 80 75 77 75 84 96 114 134 154 149 157 164 161 155 181 189 173 180 175 182 201 217 232 225 169 106 123 117 118 125 128 126 125 133 128 125 123 131 
144 134 124 113 112 118 121 129 135 115 116 101 106 82 60 35 89 117 120 128 130 124 110 103 99 103 120 122 135 133 141 153 171 167 160 165 174 177 163 135 122 128 127 111 93 85 90 79 81 88 86 86 85 83 83 92 97 98 102 123 153 166 153 161 180 174 162 163 176 173 168 169 177 193 206 220 227 194 125 117 119 117 121 124 131 128 126 133 133 125 127 125 
141 123 110 110 117 126 125 137 126 113 112 118 103 92 69 32 62 107 113 123 121 125 114 103 98 94 97 109 128 133 138 140 148 153 144 150 164 155 151 158 124 124 134 148 157 163 159 138 131 117 118 121 136 140 147 134 120 117 128 149 163 163 162 174 173 168 159 162 169 169 165 171 187 199 209 219 207 137 124 121 121 119 123 126 137 131 128 136 134 132 127 126 
122 106 113 118 121 133 130 134 120 110 116 117 108 93 74 36 64 102 98 120 117 124 119 111 105 99 103 108 117 130 134 139 136 138 141 136 142 148 139 148 144 137 124 125 142 154 169 166 161 154 161 151 152 145 132 116 119 129 139 152 152 152 169 174 166 163 166 168 168 168 165 181 195 199 216 198 158 134 127 121 125 118 125 125 133 132 135 136 140 130 134 122 
112 110 111 120 130 132 136 133 118 119 123 114 115 92 83 40 64 102 99 107 114 119 118 114 108 113 113 107 123 128 138 142 143 137 131 131 124 131 139 140 136 138 141 127 123 123 129 127 130 127 131 132 131 126 131 132 140 139 144 144 144 156 173 174 167 171 169 174 176 169 176 188 199 212 202 144 135 138 135 119 133 119 126 131 138 131 137 147 134 131 133 119 
111 115 112 123 127 138 138 129 128 129 118 105 119 97 85 49 60 110 104 100 102 112 114 110 112 111 116 117 124 131 134 141 135 140 130 132 132 115 117 127 135 131 132 134 119 110 110 118 125 130 127 122 126 132 129 138 134 139 131 132 154 166 179 177 178 170 178 176 174 172 183 198 203 202 151 125 128 137 139 120 127 126 133 135 143 131 148 151 131 134 137 121 
113 117 112 129 123 134 137 123 135 133 109 112 111 100 84 54 69 110 104 103 100 96 104 114 107 106 115 119 127 130 139 138 141 143 143 145 144 134 120 117 120 127 132 136 129 127 123 119 125 127 125 129 129 136 134 130 122 125 132 150 170 173 180 184 182 177 172 173 172 186 199 207 190 144 117 134 126 127 132 135 131 133 133 138 143 139 150 146 126 132 138 118 
113 106 126 121 129 134 130 123 140 127 112 106 114 93 95 49 69 109 107 106 109 98 94 99 110 107 111 121 120 129 139 142 145 148 147 149 153 148 140 129 121 114 114 117 116 117 119 116 119 119 120 115 119 126 119 118 124 140 153 170 182 184 188 184 179 178 169 165 175 196 203 181 135 113 117 127 119 133 135 138 132 144 132 142 147 141 143 139 128 137 127 121 
108 109 123 119 132 128 127 133 133 116 116 110 110 97 90 54 67 112 101 110 109 105 99 85 100 104 103 109 119 122 135 139 147 150 150 144 152 155 149 141 137 137 125 121 117 115 112 109 105 110 116 112 121 122 130 138 150 165 170 184 188 190 188 181 179 173 162 167 186 198 190 137 104 113 114 127 126 137 139 139 130 152 137 138 153 137 132 128 133 133 124 121 
109 117 121 129 119 118 123 134 119 113 115 109 110 99 89 55 75 109 107 105 113 106 108 96 80 88 101 97 109 113 124 134 141 151 151 147 154 155 157 154 154 153 154 144 141 137 134 125 125 130 137 145 148 157 158 169 171 181 181 192 195 189 186 187 174 157 154 171 185 180 158 125 113 111 122 133 124 127 132 137 134 147 136 136 133 130 122 140 135 134 120 117 
107 117 123 122 113 120 128 125 114 111 115 110 111 98 85 57 83 110 101 109 109 109 110 103 90 82 78 89 90 97 100 119 134 139 147 149 152 154 159 160 159 161 161 162 167 167 166 168 172 174 173 175 178 179 176 182 185 191 194 196 193 183 177 177 157 139 153 168 173 173 154 122 109 120 126 125 120 130 132 130 131 139 131 128 127 120 132 144 138 132 122 111 
108 115 125 120 114 119 128 119 109 113 115 109 100 97 85 54 87 106 104 106 107 108 110 107 103 95 75 80 81 81 90 100 114 130 140 145 144 152 154 161 162 164 162 169 169 172 171 171 175 179 175 180 186 187 189 190 192 193 192 191 186 175 168 164 133 135 156 162 175 181 158 120 114 122 122 121 119 131 124 126 127 124 128 125 119 125 141 146 135 127 116 110 
117 114 129 122 112 122 120 115 111 113 111 106 97 93 74 79 89 104 105 106 102 109 113 105 108 106 91 84 75 77 78 80 98 115 131 131 136 140 152 153 157 156 155 158 165 167 168 161 171 170 177 180 183 186 188 187 188 193 189 182 170 161 155 130 122 140 155 173 186 180 156 123 112 125 119 118 126 121 125 122 120 125 120 115 126 132 147 142 122 121 115 103 
115 112 125 124 110 118 119 112 106 107 106 98 102 88 84 89 81 100 107 108 106 106 116 113 103 106 101 92 88 72 77 73 77 93 108 117 126 129 141 146 149 153 153 154 160 160 161 164 163 169 171 174 182 184 185 178 181 186 175 165 156 147 121 113 128 145 162 182 196 178 153 122 122 119 122 117 126 123 123 124 123 118 121 120 133 136 141 127 114 119 114 104 
114 113 121 122 112 116 114 107 102 104 101 105 96 85 96 89 77 99 107 109 107 114 111 113 117 105 104 103 93 85 76 77 70 76 93 110 116 123 137 140 142 149 153 153 154 154 157 162 158 164 165 173 176 173 173 169 171 173 159 149 130 113 107 123 138 153 171 197 198 174 137 126 127 121 121 118 127 122 122 123 120 125 119 133 134 132 128 119 114 117 108 102 
114 115 119 119 112 120 113 100 101 96 107 106 93 88 98 88 82 95 102 113 113 111 117 113 116 115 111 105 101 98 88 78 74 71 72 89 101 112 124 129 135 138 143 148 152 147 148 149 151 155 157 164 167 165 169 158 158 148 141 117 110 95 116 127 152 158 184 205 203 166 122 131 126 122 122 123 120 124 117 123 120 128 132 135 128 125 124 121 112 114 106 97 
