P2
# Imagen
92 112
255
125 130 131 130 120 123 129 130 124 131 135 129 130 120 131 142 119 92 61 59 49 57 65 75 85 102 117 114 108 124 120 121 115 120 120 121 117 117 122 113 110 125 117 115 111 106 115 113 111 113 120 109 117 113 101 102 97 93 85 82 88 82 70 78 73 89 99 122 143 144 129 138 144 134 129 129 131 127 132 124 129 130 128 130 134 128 124 130 128 127 129 134 
129 128 130 128 123 129 127 128 126 129 136 126 137 130 126 115 64 52 59 62 50 59 76 88 96 111 123 119 114 123 124 123 120 122 123 121 124 119 127 115 124 123 125 124 119 121 116 122 122 119 124 111 109 115 110 114 111 102 108 86 95 96 84 80 72 76 68 57 60 116 137 134 141 142 137 129 124 130 127 129 127 132 128 129 130 133 127 130 129 128 128 132 
131 130 130 131 124 128 129 130 133 134 141 127 132 140 100 59 35 50 87 71 62 72 88 96 109 117 125 122 122 123 125 125 122 120 128 122 127 123 122 121 139 126 120 128 136 124 125 116 128 122 129 111 107 114 114 117 118 113 113 104 98 106 103 87 91 84 86 71 65 37 66 93 129 142 147 136 119 129 124 125 125 124 125 121 127 128 128 128 127 128 128 127 
124 130 129 128 124 125 132 138 141 143 145 139 115 86 51 39 60 54 102 93 79 85 105 111 111 124 122 126 117 123 126 128 120 126 125 129 126 124 124 123 130 134 119 129 130 127 125 120 122 122 126 123 118 117 124 120 121 129 110 114 107 102 117 110 94 112 94 89 79 73 60 44 39 74 133 146 137 127 127 127 125 128 126 129 120 128 130 127 131 129 128 130 
126 128 127 124 132 128 135 141 145 143 137 113 74 45 54 64 81 74 104 108 87 101 113 116 115 122 123 125 119 120 123 129 125 120 126 136 119 138 126 122 128 135 129 121 124 124 126 120 119 118 121 129 117 122 124 121 122 128 121 114 120 112 109 129 109 114 136 88 94 85 72 66 61 45 41 104 147 140 133 126 128 134 126 131 123 132 130 128 130 134 126 128 
127 128 131 126 133 131 140 125 104 71 61 61 63 64 69 83 86 103 102 109 103 111 117 120 112 124 127 125 117 121 123 125 125 126 122 135 117 140 133 125 120 145 145 121 121 124 116 132 121 118 114 130 133 118 125 119 120 125 129 111 120 119 125 126 130 117 151 120 95 111 85 74 72 66 62 28 83 141 140 139 131 124 125 123 120 133 129 131 126 129 125 131 
126 122 125 131 133 128 103 56 35 42 54 66 78 84 85 92 94 106 111 116 113 119 119 119 114 122 128 135 121 118 126 122 122 121 122 129 128 125 129 124 128 123 167 129 121 128 116 126 124 121 115 120 137 129 116 119 121 123 127 118 111 124 124 122 130 135 143 147 111 113 109 85 81 71 72 61 47 56 111 146 138 124 128 118 121 128 127 130 133 126 129 131 
131 123 129 128 133 86 36 26 30 48 61 73 89 96 105 97 104 107 116 118 125 116 119 118 118 122 129 136 119 125 132 119 120 119 127 127 130 126 136 126 125 109 168 146 123 134 118 118 132 119 118 117 136 149 115 116 125 118 131 122 114 118 134 111 137 118 152 147 128 114 143 108 82 87 84 71 70 58 39 73 142 140 130 119 126 132 129 129 128 132 127 131 
130 130 134 124 71 25 27 25 48 68 74 83 88 100 104 114 114 119 123 122 121 121 120 116 115 125 135 140 125 120 124 129 123 118 111 131 135 119 156 134 126 122 142 160 115 147 136 109 120 119 120 117 115 156 131 114 122 111 138 130 119 118 118 127 117 135 135 144 128 110 141 146 108 88 104 79 66 69 77 46 26 122 134 132 132 132 129 125 129 129 127 127 
135 136 109 62 24 24 26 45 63 86 92 91 104 108 109 117 122 124 122 122 119 121 122 120 118 125 135 152 130 124 128 127 123 117 108 131 145 113 144 144 143 134 128 149 136 136 146 111 113 127 117 123 111 132 162 121 117 104 136 145 114 123 110 126 124 139 129 142 125 107 136 159 124 111 99 113 79 68 78 70 37 37 102 145 138 132 128 127 131 124 127 122 
146 109 54 22 21 29 49 67 75 94 102 93 115 125 127 120 129 124 124 122 129 120 125 127 114 129 129 155 141 118 125 129 129 118 112 131 150 135 121 149 149 142 141 156 143 131 152 121 112 142 121 130 134 110 147 142 111 114 128 153 114 123 113 112 130 125 140 115 127 109 128 131 142 127 110 111 101 96 78 71 60 61 20 89 154 134 124 129 128 130 126 126 
103 46 26 24 31 43 67 77 88 106 109 120 125 130 129 123 137 129 120 128 134 123 141 125 114 133 140 152 137 125 124 139 133 111 122 126 148 147 119 134 145 151 136 160 155 124 155 131 127 127 134 134 143 134 116 142 125 125 126 148 131 123 127 106 128 123 140 119 116 109 126 124 138 144 112 118 111 98 93 87 75 71 57 24 110 150 139 132 128 123 130 134 
42 20 28 35 45 62 74 86 90 125 135 124 129 131 124 120 137 134 123 128 136 129 148 130 122 136 142 149 139 123 125 131 139 122 121 132 140 148 128 132 140 143 137 134 159 129 145 130 136 126 131 133 143 138 125 133 131 127 122 146 140 123 132 124 131 127 142 133 116 110 122 134 126 138 122 115 127 104 99 113 99 72 56 52 45 137 149 136 130 127 125 127 
22 30 29 42 61 77 85 99 114 137 137 129 130 132 136 116 137 132 119 131 134 133 139 138 120 146 140 138 139 130 126 133 136 138 130 126 141 149 144 118 131 135 138 118 149 134 146 118 137 137 126 131 132 126 134 141 137 115 123 132 147 130 120 141 135 141 126 151 127 120 118 126 141 131 132 121 134 117 99 121 125 80 74 59 34 111 139 132 138 130 128 124 
40 29 40 51 77 94 108 120 126 139 139 128 132 128 125 117 134 123 123 136 130 127 128 137 135 136 144 130 132 136 136 126 137 143 133 130 134 150 139 131 108 126 130 115 139 139 133 134 135 133 128 127 128 121 121 148 134 120 114 128 152 134 131 119 133 151 122 144 148 128 126 128 134 148 125 133 127 123 117 119 133 102 100 92 58 56 144 127 142 142 131 129 
39 36 41 59 96 119 128 128 133 141 142 133 130 128 127 130 126 127 123 140 132 129 118 134 137 137 141 128 123 142 139 124 123 133 134 126 131 136 140 128 102 125 120 124 111 153 126 141 129 134 133 117 127 122 122 127 140 135 110 126 150 143 134 131 120 148 134 128 141 130 132 142 132 132 154 126 118 120 125 137 135 122 124 114 81 43 97 147 137 149 135 126 
35 41 61 70 117 138 137 130 137 129 135 123 128 128 117 118 137 135 129 137 129 130 118 132 130 137 144 126 120 134 142 118 115 120 129 133 118 115 126 122 103 103 118 125 108 139 132 125 126 121 132 117 128 122 116 109 125 136 107 114 130 144 133 137 111 133 146 133 128 141 131 159 126 137 164 123 107 123 133 132 138 136 124 96 77 66 34 121 140 139 143 132 
38 55 74 96 127 144 139 143 139 121 132 128 129 131 115 126 131 135 130 138 126 122 115 130 120 137 134 127 117 127 135 117 108 115 118 131 114 109 112 120 110 101 123 116 102 135 155 116 124 109 127 113 112 131 113 106 110 126 117 108 107 122 134 137 117 104 153 131 132 131 120 152 128 145 140 137 113 120 138 139 137 114 114 112 75 78 39 61 139 143 139 142 
46 68 89 120 125 141 134 135 132 125 125 127 129 139 116 133 129 124 123 130 124 125 112 130 126 129 124 125 116 118 123 121 115 129 115 122 111 115 111 119 115 105 122 111 101 114 157 129 112 104 108 125 98 126 114 111 97 109 113 102 104 102 118 134 124 85 152 119 131 131 122 134 139 143 130 119 118 126 150 133 125 119 108 109 79 86 58 24 110 141 148 142 
65 90 97 122 129 134 133 122 137 123 132 123 128 143 120 130 127 117 127 125 125 122 118 134 130 116 109 121 117 115 121 120 118 122 118 120 120 111 119 117 111 116 115 119 102 108 142 130 109 108 99 118 104 106 110 102 101 99 115 92 108 96 113 114 122 79 145 123 135 132 119 138 139 135 127 111 128 143 130 125 118 135 107 117 88 89 85 33 62 132 137 134 
79 99 113 120 133 130 135 125 128 125 125 137 131 136 131 128 125 128 112 121 129 115 115 129 122 114 101 116 112 112 116 118 118 122 105 117 122 122 120 117 115 114 105 118 100 105 135 132 111 109 99 112 104 103 99 101 106 101 108 102 109 106 105 104 115 91 129 136 120 136 115 146 140 130 129 123 140 142 128 123 128 140 129 110 102 100 88 66 43 118 120 129 
87 107 130 116 130 132 127 129 125 122 117 133 137 126 126 128 127 123 119 114 120 119 113 117 120 109 106 109 111 113 108 110 112 112 105 118 129 120 124 109 121 108 108 108 103 104 122 130 114 116 111 106 115 107 103 108 109 114 115 109 122 105 108 104 119 107 106 127 115 131 131 144 144 126 138 136 140 152 145 143 136 138 143 115 109 102 99 95 38 105 127 130 
103 120 139 126 122 134 127 122 132 119 126 135 134 129 128 123 129 122 114 118 114 108 115 119 118 110 115 111 116 117 116 112 113 119 127 125 126 122 121 128 122 115 119 110 105 115 135 135 125 121 138 133 126 128 117 122 129 130 132 119 142 126 118 122 122 144 106 121 115 126 131 138 145 133 134 127 130 132 129 138 138 142 141 133 127 110 102 97 62 77 133 128 
107 129 138 134 114 136 131 124 125 128 132 137 129 126 126 131 123 129 112 121 110 110 113 117 120 117 126 124 134 137 137 128 133 135 158 143 134 127 128 134 134 132 123 127 117 114 136 154 151 143 175 150 157 149 150 144 162 161 163 156 169 158 145 140 148 181 122 125 112 128 134 136 156 137 137 135 130 128 131 137 134 132 132 134 132 117 111 104 75 54 131 122 
111 126 136 130 125 127 144 142 125 137 134 146 126 127 133 128 131 123 120 128 123 128 118 130 145 131 153 168 173 158 177 160 170 170 165 187 174 161 149 148 146 146 157 136 157 128 146 168 185 177 196 191 186 208 186 206 187 204 206 192 206 189 187 187 171 186 159 145 118 131 135 131 151 142 134 142 135 137 134 146 134 129 126 125 129 112 108 106 86 46 117 127 
122 141 130 125 129 135 141 157 142 140 139 132 129 125 133 118 125 119 126 142 148 141 154 154 161 161 168 194 213 185 184 209 189 194 187 206 209 182 149 170 160 157 158 162 164 151 162 177 188 194 202 210 202 224 207 223 215 227 208 220 225 214 204 205 206 194 172 140 122 135 136 143 147 137 139 145 143 140 138 142 137 127 131 131 125 124 115 100 87 53 82 148 
111 125 137 137 132 135 134 151 144 147 145 134 140 127 114 119 113 106 122 140 166 167 182 191 195 196 189 198 219 207 184 214 214 207 193 203 204 186 168 168 191 174 170 189 190 194 183 186 192 192 202 214 217 209 214 225 221 221 213 198 212 212 198 189 176 173 153 129 124 142 140 145 138 122 141 154 144 135 127 131 135 122 123 136 135 124 106 100 84 67 58 142 
118 135 134 135 134 133 149 161 158 145 145 143 131 137 115 124 122 117 135 136 161 161 172 197 210 227 210 179 188 205 188 188 203 190 185 201 184 179 188 178 184 183 187 199 187 195 195 188 189 195 200 205 213 214 207 216 215 216 208 180 208 211 181 176 157 147 144 121 129 134 132 133 127 130 126 146 133 146 145 136 140 138 108 137 131 124 114 106 91 79 40 119 
129 134 134 142 138 150 147 161 146 146 148 144 132 137 129 123 130 120 142 139 146 140 160 179 197 200 202 184 150 195 173 158 172 160 165 181 157 168 157 161 159 165 162 174 187 170 184 172 185 193 190 193 196 210 193 188 204 203 184 171 186 206 197 164 150 137 128 116 120 122 117 116 113 115 118 130 135 138 148 145 143 144 124 124 137 120 115 103 101 84 50 81 
135 135 136 143 156 149 139 146 152 150 153 142 140 144 149 138 144 141 145 149 144 149 161 178 190 186 188 180 145 154 162 146 151 146 148 169 155 159 150 156 145 150 146 172 183 160 172 168 170 193 180 183 184 189 189 182 184 194 172 170 175 186 185 176 149 130 117 104 104 103 98 101 99 114 110 118 134 144 152 147 137 150 152 134 131 131 108 96 100 84 57 52 
140 130 130 151 155 140 142 153 164 151 142 150 149 160 161 151 146 156 149 149 147 150 160 171 183 175 171 169 156 137 155 148 134 146 153 168 160 150 146 153 144 135 133 156 171 152 167 168 161 183 179 179 174 185 177 179 179 185 170 170 171 177 178 179 167 149 136 111 109 95 99 98 97 104 108 108 121 135 156 152 142 146 150 150 146 126 121 100 98 89 58 43 
127 137 139 154 154 143 146 162 160 156 136 151 160 167 157 142 135 152 149 151 144 160 180 183 175 178 181 171 161 163 166 145 138 159 156 160 159 141 144 147 145 134 126 148 148 151 163 160 154 165 167 169 160 170 172 173 171 172 170 171 167 175 178 171 169 156 146 129 125 112 102 104 110 101 107 101 110 123 152 155 149 134 156 140 164 142 121 109 95 91 65 47 
137 136 145 156 153 154 151 154 157 146 143 158 160 157 149 135 143 154 148 149 148 168 191 186 170 175 181 181 174 172 171 142 135 161 164 154 159 140 136 148 142 137 133 142 141 155 157 158 153 157 161 158 155 160 165 167 169 165 164 165 168 170 169 168 169 167 149 143 135 137 118 126 114 109 107 95 116 115 135 145 146 140 143 138 140 164 135 122 92 90 70 50 
141 139 158 150 149 150 153 154 143 141 152 156 151 150 149 142 152 155 149 158 166 179 191 193 172 178 182 183 169 165 168 156 142 150 160 150 152 149 128 142 147 135 139 136 146 155 152 157 152 153 155 152 154 157 160 164 165 161 166 163 167 168 162 164 165 165 158 156 137 146 136 134 127 114 117 100 104 110 122 122 143 143 133 152 126 143 147 136 101 88 85 45 
141 143 146 152 146 149 152 151 139 154 156 156 163 140 156 154 153 165 153 163 179 181 189 185 173 179 174 173 170 161 155 153 149 152 149 151 144 152 137 138 145 134 138 137 139 147 151 153 153 146 150 151 153 154 158 160 161 160 158 162 163 164 160 165 164 157 162 163 147 142 150 135 139 123 115 108 96 102 109 122 123 139 134 146 135 114 130 130 115 99 82 66 
131 137 143 148 139 148 150 145 139 161 159 159 167 163 157 162 161 175 158 166 179 177 183 177 172 171 164 166 165 154 156 142 147 149 148 144 145 148 136 133 142 133 132 139 131 146 143 149 150 144 145 144 146 149 153 151 154 153 155 153 159 159 156 158 158 158 156 162 162 144 147 152 145 140 118 117 108 93 105 109 121 123 125 135 149 120 114 115 115 110 89 82 
134 126 141 149 136 148 152 142 144 163 167 161 169 184 177 165 174 160 161 166 181 174 176 171 167 159 158 158 155 153 153 145 139 142 145 145 140 142 141 131 140 134 133 139 134 139 143 143 148 143 141 141 142 142 147 149 147 152 150 150 154 155 159 156 158 155 156 160 157 152 148 155 147 147 136 128 120 101 94 107 111 119 117 129 139 117 123 111 106 111 88 94 
120 127 139 144 136 145 150 138 140 175 180 175 185 187 180 183 177 176 152 164 177 170 169 162 160 153 156 152 151 151 146 140 145 142 140 140 138 139 141 134 138 137 131 132 139 131 141 137 139 144 140 138 139 138 145 146 145 151 148 145 149 154 154 151 151 154 154 157 157 151 147 155 152 156 146 143 134 120 95 98 104 113 119 119 129 120 120 117 102 109 89 88 
119 123 146 147 132 140 142 131 149 188 198 190 196 187 184 193 180 175 158 164 172 158 158 158 153 153 150 151 149 147 142 141 140 141 141 138 137 136 137 135 136 137 135 129 136 132 137 139 138 139 141 138 134 137 141 142 143 148 145 145 147 150 148 150 150 155 155 154 154 153 147 152 152 162 154 142 142 135 114 99 107 102 120 120 124 122 124 117 102 108 92 85 
117 124 137 144 127 136 143 130 153 196 206 194 204 188 187 188 183 180 166 167 156 149 147 153 149 152 150 149 146 143 143 138 141 139 140 137 136 136 137 134 135 137 135 130 136 133 136 135 139 141 140 139 135 136 137 138 143 144 143 144 142 150 148 148 148 151 156 155 151 152 154 151 151 160 158 143 140 142 121 106 97 109 111 123 124 120 119 128 100 102 97 83 
109 124 134 140 125 128 141 141 165 202 206 200 208 196 186 189 183 180 169 176 162 152 149 151 146 147 152 146 142 144 140 137 141 140 136 136 136 132 135 137 131 132 135 132 132 132 131 139 136 141 137 139 128 134 137 141 142 140 141 139 141 142 145 149 149 153 153 155 151 155 158 155 151 155 163 145 145 138 126 110 105 98 112 118 122 126 122 118 112 105 98 78 
117 129 131 129 128 125 138 141 174 199 203 202 214 197 190 189 186 178 167 175 159 152 156 150 150 146 148 145 143 143 140 138 137 141 136 137 138 134 134 136 135 133 134 133 133 128 128 137 137 138 137 135 129 133 140 139 140 138 137 140 142 139 142 148 150 153 157 160 153 152 157 160 152 152 166 151 145 142 128 114 99 105 105 120 122 129 125 120 111 109 97 81 
115 124 132 125 121 123 144 144 178 198 200 204 216 198 194 190 186 176 167 170 166 163 161 154 157 154 153 151 151 151 146 146 144 148 144 139 142 139 138 135 136 134 135 132 132 132 131 136 136 137 137 133 132 136 140 138 141 141 140 142 147 146 145 156 158 159 160 161 160 159 157 164 156 157 159 163 149 136 133 118 99 99 103 113 118 133 133 117 115 105 108 85 
113 115 134 122 123 125 142 141 178 197 195 210 206 204 200 186 182 178 169 168 174 170 164 158 158 157 157 156 157 158 153 150 148 148 150 147 147 145 140 140 140 134 134 135 132 135 134 137 135 139 137 135 136 137 139 143 141 147 147 149 152 154 150 156 168 165 164 166 167 166 167 167 171 170 156 158 155 143 130 109 99 89 108 108 114 122 129 123 112 104 111 95 
117 120 121 128 122 128 132 138 173 202 201 205 204 212 202 189 182 182 177 174 177 174 167 161 162 158 157 157 155 158 155 152 152 150 150 152 151 148 148 146 143 138 137 136 133 136 135 136 138 140 136 134 139 137 137 144 150 150 153 153 160 157 160 160 170 169 170 169 173 172 174 173 174 177 160 158 156 146 131 109 93 86 102 114 117 124 125 127 112 109 107 89 
116 117 122 121 132 125 129 132 160 208 206 209 208 209 204 193 182 183 184 183 169 171 166 156 158 153 153 149 153 152 152 148 154 150 149 148 151 149 149 146 145 142 141 139 136 136 137 140 141 140 135 137 141 141 141 146 150 153 159 158 159 163 162 168 171 171 169 171 169 172 174 174 174 178 170 158 151 150 132 108 93 83 102 120 119 122 128 120 111 107 107 90 
112 116 125 124 128 123 127 130 162 197 210 207 212 202 200 197 187 190 187 180 164 161 158 153 147 151 146 146 146 147 147 146 149 149 146 149 148 148 147 147 145 143 139 140 139 139 141 141 141 141 138 141 142 145 146 154 149 154 156 158 159 159 165 165 169 163 162 173 166 169 168 170 173 170 173 165 154 142 136 110 88 86 101 115 127 120 128 117 110 113 109 92 
111 114 123 124 126 122 116 143 159 184 206 213 208 200 193 195 199 198 179 170 162 157 157 149 144 150 147 147 143 144 146 142 144 147 144 145 147 144 146 146 145 142 142 138 139 139 141 139 140 141 140 141 142 147 153 154 154 153 155 155 157 161 156 160 159 157 161 166 165 164 166 168 168 166 164 165 163 141 135 108 88 88 104 118 126 122 128 110 113 110 104 89 
104 113 124 129 124 125 113 143 175 193 199 209 205 194 187 190 199 193 171 164 165 153 155 151 145 144 148 152 147 147 146 146 143 143 143 144 144 140 144 144 146 144 142 139 138 141 140 138 139 140 142 140 144 150 151 152 155 151 155 151 157 158 154 156 158 156 156 158 163 163 164 162 160 162 156 157 153 150 125 105 88 87 107 118 121 128 121 114 108 109 98 79 
112 114 121 124 134 130 122 143 183 205 206 192 203 200 193 201 198 184 166 159 157 148 149 148 145 145 146 146 150 148 147 147 145 148 146 143 140 140 141 142 144 145 142 138 137 141 139 137 138 139 139 144 143 150 150 150 152 150 149 153 157 155 155 154 157 155 156 152 149 155 157 159 163 160 157 149 148 153 130 95 88 92 111 125 121 127 120 112 106 108 103 81 
108 114 119 124 132 127 134 157 190 213 216 194 191 194 195 193 183 167 155 151 142 136 145 147 141 144 144 146 147 149 150 149 147 145 144 144 145 140 142 138 143 144 143 139 138 136 136 138 136 138 137 145 142 148 149 150 147 150 150 150 150 146 146 151 150 144 150 144 143 140 143 143 150 158 156 146 149 152 138 105 89 92 112 126 122 120 122 108 111 98 106 80 
112 118 118 132 133 129 137 173 200 224 216 197 203 199 192 156 128 118 121 124 112 115 138 131 130 134 140 141 143 144 148 150 147 142 140 135 143 143 139 139 139 141 143 139 136 139 134 135 134 133 135 141 142 140 140 144 145 141 143 136 132 123 120 124 129 114 114 116 106 106 116 108 114 145 155 157 140 159 144 118 91 99 116 123 128 122 125 106 107 100 99 87 
117 121 119 130 129 132 153 198 216 225 216 198 205 187 147 104 78 75 79 65 67 70 82 88 86 95 97 103 107 120 129 142 143 133 128 135 137 139 142 139 140 138 142 141 138 136 136 132 132 130 130 136 139 133 126 125 124 112 93 86 74 68 60 64 62 73 71 63 71 59 63 76 77 98 147 162 145 160 170 140 104 97 117 128 126 125 123 108 103 98 95 82 
117 117 122 132 124 142 184 224 232 232 220 199 181 125 92 61 56 63 41 30 29 37 45 40 28 26 24 49 51 70 78 85 105 114 101 127 140 142 145 145 145 145 150 148 146 141 140 135 130 129 125 129 122 115 85 72 60 39 25 16 29 27 27 19 29 29 28 27 44 43 56 63 64 56 98 157 159 167 178 169 123 100 113 131 127 122 123 110 97 92 88 82 
118 117 122 128 119 157 198 233 242 237 205 162 105 91 82 73 63 60 40 46 40 40 45 37 18 14 26 40 40 42 46 59 86 81 77 103 143 153 155 156 152 154 162 161 157 153 145 144 135 137 133 127 109 74 46 29 24 17 0 0 15 23 30 12 30 40 34 35 52 68 91 99 102 77 58 83 155 176 186 184 153 102 102 133 128 125 120 112 99 90 80 81 
114 119 121 125 125 161 212 233 245 237 173 104 84 108 123 120 113 108 94 93 88 85 89 80 63 54 56 53 49 52 50 66 73 81 68 86 123 152 162 168 167 172 176 175 175 168 164 152 148 137 146 135 93 51 47 30 31 16 8 3 12 34 48 50 69 80 92 100 127 147 165 179 171 149 105 68 88 177 196 190 179 108 95 125 131 121 121 111 101 94 82 76 
114 118 117 118 133 185 208 241 255 197 120 96 117 160 182 183 179 175 173 164 160 153 164 159 148 134 104 99 88 93 98 101 102 98 96 90 117 149 170 179 177 184 186 189 178 175 169 158 152 148 143 125 74 69 64 58 62 60 60 57 72 94 120 139 159 178 179 177 195 201 204 217 220 219 198 144 74 133 201 197 186 132 97 112 127 120 118 110 100 91 83 82 
110 114 113 111 137 191 226 243 243 174 118 125 142 166 170 176 170 155 147 139 134 137 139 135 129 129 112 111 112 115 126 130 128 121 122 115 126 155 172 182 186 190 189 192 184 177 173 162 156 147 141 108 84 87 85 96 98 108 109 110 117 125 136 143 162 174 172 173 190 199 204 210 211 213 216 190 122 89 179 204 202 147 100 117 118 123 118 109 100 93 82 67 
109 106 113 110 143 202 234 254 223 164 138 144 150 153 151 146 134 102 90 83 88 88 84 81 83 91 83 82 99 100 111 134 145 151 138 133 130 142 173 188 203 202 197 200 194 180 182 169 165 142 130 101 87 94 104 97 105 95 100 98 105 106 113 116 135 139 152 149 138 157 170 180 182 190 198 204 153 93 144 196 206 165 100 118 116 124 113 109 103 93 91 59 
108 108 115 101 154 210 240 247 215 166 153 152 133 137 127 115 74 68 60 54 55 66 56 34 36 41 68 47 66 90 121 121 130 154 165 154 132 129 165 201 212 214 210 208 198 190 184 175 163 135 103 86 84 98 94 81 77 99 91 75 72 90 77 80 84 93 98 129 141 114 104 134 150 164 176 192 170 122 139 177 195 172 116 109 115 123 119 104 104 94 88 64 
107 115 112 101 155 219 238 244 219 181 156 145 117 115 105 91 73 51 31 46 66 95 74 34 49 35 138 45 19 71 115 128 142 126 143 156 150 130 134 190 219 224 215 218 202 194 195 180 161 124 95 101 97 89 85 89 89 89 79 32 18 73 75 50 40 65 76 79 85 113 118 98 126 149 158 171 178 145 148 171 185 179 116 112 115 120 122 108 101 99 87 76 
113 114 114 112 164 220 241 245 225 181 159 134 107 101 98 93 67 44 32 79 143 181 123 66 88 29 117 132 17 70 198 143 123 148 118 134 161 138 119 164 211 229 223 213 206 197 198 187 153 109 106 120 111 107 104 84 97 144 102 38 32 110 201 59 40 55 139 96 75 62 96 132 123 144 155 163 181 167 158 177 184 182 117 110 116 117 119 117 98 100 88 86 
115 116 122 107 177 222 235 246 227 196 168 144 113 101 109 89 49 48 70 116 165 222 161 87 65 63 45 87 49 109 224 210 138 100 137 149 166 154 138 152 208 215 219 205 207 201 198 184 137 113 128 139 144 121 93 93 160 202 114 39 45 56 95 68 61 80 167 155 110 76 76 118 153 148 156 172 194 186 169 177 191 178 129 107 112 118 116 116 104 95 90 84 
130 118 126 108 170 225 233 245 236 217 188 164 145 113 109 106 51 47 100 115 141 209 208 102 77 67 69 67 64 154 225 207 172 128 119 177 191 169 154 164 204 214 215 207 196 201 201 175 131 122 146 170 165 143 121 128 174 210 156 61 66 77 80 76 64 125 188 159 130 113 90 106 155 157 161 179 205 203 185 182 191 180 138 115 112 113 115 114 101 88 96 86 
145 135 118 109 175 223 227 246 248 231 211 187 172 145 123 125 92 65 65 79 93 136 188 156 112 99 110 119 128 156 188 178 153 143 179 197 197 176 174 183 204 213 205 195 196 199 200 166 132 132 157 176 173 154 142 124 129 143 164 129 86 104 112 86 104 173 174 145 126 108 117 153 154 162 178 213 219 214 195 189 187 179 130 123 120 111 115 113 104 81 91 94 
151 130 117 118 171 212 226 247 245 228 213 194 178 157 133 125 101 88 91 83 83 89 113 131 130 123 137 143 135 161 179 182 166 165 183 212 194 161 169 182 196 195 200 192 190 191 192 167 131 131 155 170 151 149 165 153 140 133 129 152 150 171 155 144 128 140 132 111 122 131 145 169 167 168 192 224 232 217 196 190 180 182 129 121 117 114 109 114 101 77 89 92 
155 119 130 110 155 208 220 247 243 230 209 193 175 164 141 131 120 102 105 109 115 115 113 117 114 103 119 135 130 137 158 164 161 155 182 203 190 152 158 172 181 182 184 187 183 182 183 165 135 129 149 149 146 132 147 161 144 131 135 134 127 138 146 141 120 111 142 131 141 150 163 173 161 182 198 222 230 217 200 192 172 177 137 114 118 126 123 107 101 87 89 85 
156 129 135 106 149 202 219 242 243 229 207 191 178 160 147 133 118 118 107 107 110 113 114 118 107 104 115 119 126 132 141 155 155 162 188 195 180 155 165 159 165 168 178 183 183 176 173 146 123 124 140 143 150 154 149 137 139 136 144 154 149 149 156 158 142 132 144 142 149 150 169 168 167 189 194 213 220 209 195 178 182 164 129 122 118 136 124 106 93 99 90 82 
160 135 137 106 140 195 209 237 241 227 205 187 175 161 144 138 135 129 118 116 111 108 111 116 112 114 120 119 125 134 151 160 171 173 177 178 167 152 158 151 148 163 177 185 181 178 167 133 117 115 134 144 157 161 160 148 130 123 126 141 157 146 153 150 139 134 142 139 148 148 166 166 171 181 192 202 210 194 183 178 171 157 107 125 140 136 112 101 103 100 97 80 
161 145 146 107 125 180 199 225 236 222 200 188 175 167 154 143 141 133 126 120 115 114 117 120 116 123 129 130 137 152 169 179 183 180 176 163 151 143 145 149 149 166 178 180 172 169 153 132 117 120 128 136 150 163 165 160 148 131 127 134 144 137 143 144 146 150 155 162 162 156 171 171 176 184 186 195 197 190 174 173 164 148 90 114 158 139 106 102 108 107 96 88 
154 166 150 119 102 169 184 212 219 220 198 189 179 167 156 149 148 145 140 139 135 135 136 137 136 139 147 150 158 164 172 177 174 171 166 156 147 141 144 145 157 168 175 175 168 165 158 121 113 129 126 135 146 158 166 168 159 151 141 139 147 143 138 148 153 145 154 156 161 161 168 168 176 175 180 184 189 177 169 164 166 130 75 109 176 161 101 107 112 110 95 91 
143 180 179 140 84 153 172 196 215 211 198 190 177 169 155 155 150 150 144 145 141 146 145 144 144 143 149 151 153 155 155 156 156 158 145 141 138 130 129 137 135 163 180 179 164 169 157 122 114 128 132 138 145 153 155 161 160 153 155 156 161 160 156 165 165 164 164 167 174 171 173 174 170 169 176 179 175 171 155 158 158 113 70 132 188 153 106 118 115 118 92 97 
130 180 200 179 92 124 168 187 208 207 199 186 177 167 156 153 149 148 142 140 142 144 146 144 141 143 142 143 146 145 144 141 147 146 136 130 131 125 122 123 134 148 169 173 167 159 151 120 112 128 132 134 138 143 154 152 153 153 156 156 167 168 173 174 173 170 167 174 175 172 172 172 168 169 163 176 168 160 153 151 147 90 100 156 182 139 116 124 120 118 99 88 
119 164 208 208 100 112 152 172 195 200 202 191 176 168 157 155 153 147 145 141 140 142 140 136 136 135 136 135 138 138 136 133 136 134 126 122 123 117 116 119 129 141 158 165 158 161 145 118 108 121 126 127 132 144 152 148 151 149 150 154 162 166 168 170 169 165 165 162 162 165 164 167 161 164 161 163 164 155 145 152 125 110 143 159 157 123 131 148 125 114 103 97 
108 150 204 219 133 100 141 152 176 191 202 187 181 167 164 158 155 152 145 143 140 141 137 132 132 132 130 132 135 133 134 129 134 127 118 123 115 109 109 112 125 142 152 159 154 154 139 124 105 112 117 119 124 133 139 144 145 143 148 153 155 163 166 167 164 158 159 157 155 158 156 162 157 157 165 160 154 147 142 138 104 134 170 163 148 113 137 156 139 105 110 97 
89 139 188 209 170 105 125 143 158 183 192 186 179 171 169 164 156 154 146 148 146 143 137 135 134 131 131 131 132 132 131 128 129 120 111 113 104 100 98 119 127 137 152 152 151 148 140 120 111 107 109 106 112 119 130 135 138 138 145 148 149 152 158 159 159 156 156 153 149 154 155 157 158 158 164 158 149 135 137 123 115 155 173 180 135 97 145 163 141 119 108 105 
97 117 181 206 185 119 118 130 144 175 179 186 182 171 171 163 159 154 148 148 149 144 137 132 133 129 130 129 132 130 126 128 126 113 94 102 99 88 102 120 129 142 148 148 148 148 139 129 117 100 102 96 99 112 129 133 136 133 140 143 148 151 156 158 156 157 156 152 151 154 156 154 156 162 162 150 140 137 130 107 123 150 179 183 108 94 142 157 148 134 97 111 
106 92 165 207 202 143 124 121 130 158 169 181 183 172 166 164 162 158 151 151 148 142 134 133 130 129 132 130 131 129 124 121 120 102 73 94 105 88 106 122 139 145 149 148 155 147 143 138 126 92 98 93 85 99 121 132 132 134 136 146 147 154 155 157 154 155 156 157 154 154 155 151 150 158 157 139 137 130 123 94 128 144 202 152 90 89 139 151 146 145 106 106 
117 101 118 206 220 177 124 127 121 148 160 172 176 171 167 164 164 158 153 152 146 140 136 132 132 132 128 129 127 126 123 119 119 90 81 108 128 101 100 128 140 149 150 155 152 155 149 139 132 98 107 109 79 85 119 128 135 134 139 143 148 153 158 156 156 155 156 157 151 155 150 152 152 154 149 137 133 125 107 103 142 160 222 107 84 103 129 149 143 149 122 102 
114 113 100 163 214 201 143 129 133 138 154 167 168 171 165 166 163 159 156 153 145 138 136 134 131 130 129 126 127 125 126 123 118 85 102 126 136 112 107 130 147 152 153 158 164 150 150 142 128 110 109 129 90 78 116 127 137 134 141 142 145 152 158 157 155 155 157 156 153 151 152 148 152 149 140 135 123 120 102 113 155 177 183 90 97 119 120 145 137 149 128 114 
117 109 114 109 161 194 166 146 144 144 153 154 163 166 161 163 160 157 158 153 145 139 137 136 131 131 128 127 126 123 127 123 115 93 112 127 137 123 120 131 149 152 155 159 164 155 153 142 125 118 112 126 111 82 115 121 131 128 137 142 146 150 154 159 158 156 155 156 154 147 151 149 149 141 137 131 119 110 99 124 145 149 109 105 108 126 120 133 127 134 140 110 
109 116 113 125 118 131 162 176 161 152 160 146 158 157 162 157 160 157 157 154 143 140 138 132 128 131 127 128 123 124 124 117 124 93 91 100 117 120 124 138 149 151 153 158 159 150 147 151 129 116 109 109 101 90 115 120 125 129 134 136 143 147 148 161 162 156 157 154 154 153 150 148 149 140 132 128 112 114 105 112 96 90 105 119 119 121 128 128 126 122 130 123 
109 118 117 119 135 108 122 207 190 178 166 158 150 152 158 158 159 155 157 151 145 137 140 131 126 126 127 127 120 120 119 123 121 116 81 55 66 86 105 136 148 148 154 153 153 137 137 137 117 92 80 72 80 110 125 119 122 128 131 135 142 145 144 161 159 157 156 155 153 150 151 148 150 140 129 122 114 120 125 48 44 94 124 134 123 120 124 133 119 119 131 124 
116 111 121 119 131 116 98 208 217 202 178 159 145 143 152 149 151 151 153 149 140 138 136 132 126 118 120 122 115 122 124 129 130 114 120 87 33 32 79 94 131 142 145 143 135 128 123 103 75 51 38 39 104 140 134 125 121 126 129 136 136 142 149 160 160 162 157 155 153 147 150 148 141 136 127 121 118 146 123 31 71 107 132 129 125 121 123 129 126 123 121 127 
120 113 118 124 127 122 96 187 222 221 196 176 144 151 146 148 151 151 151 141 141 135 132 131 123 121 119 120 121 126 140 150 145 128 133 117 78 48 67 78 93 115 117 117 110 101 90 71 43 36 57 83 130 156 144 133 132 134 139 142 141 141 152 163 162 158 160 157 152 146 149 149 135 131 136 134 128 163 131 47 93 112 133 124 125 121 124 128 132 115 123 119 
118 117 120 126 128 127 104 165 222 221 201 187 150 150 147 147 151 147 146 147 143 135 134 131 128 123 123 125 134 149 158 170 167 153 141 130 100 83 73 82 77 77 75 79 70 61 54 51 53 91 115 135 149 159 152 155 150 155 149 148 153 148 153 165 166 157 157 159 154 149 149 142 140 136 141 139 149 170 126 63 113 117 126 136 123 119 127 123 133 124 116 124 
120 117 124 131 127 128 111 141 220 226 203 191 154 144 145 138 141 137 141 140 144 141 129 129 128 127 131 140 155 162 168 161 166 163 147 136 117 101 89 80 86 67 63 59 62 58 62 78 99 141 159 159 164 165 163 167 171 164 158 149 157 151 154 160 158 156 155 156 152 148 137 139 142 141 145 143 154 176 113 84 110 122 123 134 126 121 124 127 127 133 115 129 
113 118 121 134 124 126 120 128 213 227 208 195 160 141 136 131 132 136 136 134 134 136 137 136 136 137 145 158 164 165 162 163 163 162 154 142 130 113 103 97 92 76 64 64 70 73 83 105 132 155 178 178 179 175 166 169 174 166 154 145 147 142 143 155 150 151 154 150 152 145 135 136 143 147 144 148 164 173 103 93 113 121 132 126 132 127 121 126 126 138 114 125 
108 123 122 129 122 126 128 106 191 232 210 198 172 138 139 122 130 136 133 138 134 134 142 140 137 151 160 161 156 156 161 158 158 157 157 154 140 136 114 112 102 89 86 87 84 104 105 128 144 166 173 182 183 174 172 163 164 165 149 147 142 137 142 147 142 146 151 147 150 143 130 138 145 152 147 155 172 160 83 110 110 129 123 128 130 128 124 123 132 140 123 121 
118 126 123 126 124 126 134 99 159 232 215 202 185 146 134 127 126 130 138 137 133 141 145 135 142 157 151 156 146 149 152 156 160 153 156 157 153 147 137 126 115 105 113 112 113 120 128 140 156 165 168 173 177 170 169 165 160 159 154 144 143 142 146 142 137 141 147 151 150 144 130 139 144 156 152 157 176 134 82 117 113 124 128 125 126 126 126 120 134 140 123 117 
121 126 131 123 117 123 140 121 113 231 217 200 196 164 137 127 131 135 138 138 133 143 133 138 143 137 133 135 139 137 148 154 154 155 156 158 161 161 154 147 138 124 129 133 127 134 144 147 155 157 158 159 163 164 167 163 155 150 153 147 134 136 145 144 144 140 152 159 152 146 133 146 149 157 151 162 175 113 87 122 115 121 128 126 128 128 128 124 132 141 124 120 
125 124 125 116 115 131 143 126 91 196 222 203 200 176 150 131 129 134 141 142 145 149 140 143 129 113 117 119 130 139 150 149 150 150 157 160 167 163 158 163 149 140 139 146 145 145 159 150 150 150 150 157 158 158 161 153 143 139 133 139 117 115 140 149 147 147 152 160 157 143 143 150 156 156 155 169 159 88 100 121 117 126 129 123 128 132 125 126 136 142 123 132 
125 121 122 114 123 138 134 124 95 142 219 205 201 183 162 138 133 133 143 145 151 154 144 136 107 90 84 78 95 112 132 136 139 149 156 158 164 161 160 159 153 155 153 156 159 153 159 151 146 150 155 152 156 157 158 148 136 123 117 122 119 105 132 156 160 157 162 160 154 140 146 153 156 163 153 174 132 82 116 115 124 129 129 123 129 130 129 125 135 149 123 132 
121 116 117 116 129 139 125 120 105 104 190 208 200 192 169 148 132 127 145 152 148 166 159 129 101 113 102 88 74 50 66 89 93 105 114 122 121 132 127 141 159 169 166 163 165 154 148 134 130 141 144 138 135 136 125 117 104 87 86 104 113 109 137 168 176 170 163 153 148 135 152 149 157 157 166 166 95 94 120 115 128 125 130 129 125 132 127 122 134 138 128 131 
118 110 117 125 134 130 119 113 115 101 138 208 202 197 180 156 133 122 129 150 155 160 163 134 122 142 157 148 154 131 89 78 79 82 77 78 75 71 77 90 109 128 150 144 132 124 110 97 86 92 91 94 98 97 82 76 107 129 118 128 133 133 154 182 177 166 164 148 143 137 148 151 155 162 169 131 82 110 120 118 132 123 130 131 129 132 130 123 137 139 129 121 
111 117 119 130 133 127 116 105 114 122 89 182 202 197 189 161 134 129 118 136 146 154 161 147 143 155 173 170 172 188 178 144 115 103 91 95 76 62 69 74 89 97 121 116 107 114 102 73 63 63 67 73 82 98 101 139 166 168 161 166 172 160 159 170 164 156 152 144 141 143 143 150 161 167 155 110 92 113 122 121 133 122 132 127 138 133 129 128 133 142 128 114 
113 123 125 132 134 120 112 114 119 123 96 106 198 192 180 168 137 126 124 121 130 139 152 154 154 165 171 168 166 174 176 176 166 148 134 147 143 143 119 102 89 80 79 86 82 89 94 97 99 105 112 108 117 133 154 170 160 164 187 191 180 159 149 152 146 145 140 136 136 146 143 147 162 154 133 107 102 116 120 132 125 129 131 131 136 139 130 134 137 142 123 113 
117 130 136 138 131 122 116 118 118 121 110 88 138 200 178 173 139 133 135 121 128 134 144 153 153 166 168 168 157 159 166 158 169 159 135 131 141 156 167 165 140 128 111 111 108 139 146 147 149 132 127 132 141 157 159 157 160 175 186 177 167 154 148 146 146 133 130 128 138 139 136 159 154 134 132 114 111 121 123 128 128 130 133 137 140 140 132 135 136 133 125 115 
123 134 144 142 125 115 125 121 114 118 111 104 94 184 179 170 147 133 135 139 132 138 146 149 148 156 158 154 155 139 145 140 144 147 144 132 121 122 131 140 147 147 144 148 134 149 148 150 140 132 139 147 149 157 157 156 163 175 170 166 170 161 151 145 137 123 126 133 135 139 148 155 135 129 119 122 118 128 127 126 131 132 135 140 145 138 136 136 142 129 125 115 
130 137 147 136 121 128 129 119 110 115 117 107 89 172 174 161 139 131 134 140 142 137 146 153 152 152 151 152 142 137 127 124 131 132 135 136 138 121 107 108 116 118 129 124 126 128 124 131 135 137 147 151 152 153 145 151 171 170 163 162 163 163 150 141 131 128 127 131 135 143 150 131 116 126 121 121 129 129 131 130 128 140 141 135 147 145 135 135 142 125 125 109 
136 140 144 130 126 133 138 114 111 112 117 109 94 167 181 152 130 129 128 137 146 144 150 157 160 154 152 150 148 143 141 119 117 122 124 124 129 119 107 103 106 110 110 114 116 122 128 127 127 134 142 144 142 138 146 165 169 165 162 160 160 158 153 141 134 127 128 132 141 139 122 112 128 117 127 135 132 131 128 139 130 143 137 145 149 147 134 135 136 128 119 114 
139 142 139 130 130 129 126 117 113 114 112 105 93 169 187 160 118 109 122 130 140 151 152 161 166 161 161 155 154 152 148 134 116 111 107 111 123 123 117 113 110 109 110 109 115 116 124 131 133 137 129 132 126 136 157 161 164 161 163 165 158 155 147 140 129 131 131 135 133 106 93 125 119 113 135 143 137 132 135 140 136 148 134 152 149 143 132 143 136 126 122 111 
139 140 121 128 119 120 117 117 110 113 112 110 92 173 187 177 135 93 110 121 130 144 153 153 165 173 165 165 161 164 156 146 136 124 109 100 101 101 111 111 111 112 115 113 109 112 114 116 117 120 125 136 144 158 164 164 165 166 164 164 155 151 141 134 129 133 131 116 108 79 105 119 117 118 140 149 139 134 143 133 146 145 142 152 145 130 135 140 134 123 121 109 
135 130 118 126 116 110 111 112 111 112 115 103 96 169 193 172 151 113 94 109 118 132 147 152 163 171 173 169 166 163 165 155 149 144 133 122 109 107 101 103 102 100 106 107 109 105 112 115 122 129 143 155 160 166 172 165 169 168 165 162 158 140 135 130 130 118 114 106 100 81 103 115 123 123 148 151 139 142 149 138 145 144 147 133 139 126 143 141 131 125 120 114 
129 119 117 121 113 111 110 110 113 120 109 110 95 176 195 183 146 123 110 88 107 110 131 142 151 168 171 174 170 173 170 171 166 160 153 153 141 133 122 117 115 104 111 116 128 134 139 144 154 159 167 171 176 177 171 167 170 172 165 161 139 133 125 120 114 104 112 109 113 98 102 119 138 129 141 145 134 140 151 138 142 142 135 128 128 137 137 140 123 118 119 121 
120 113 120 118 105 115 109 118 110 117 117 108 99 179 194 186 151 125 116 106 93 98 112 123 132 153 164 168 172 173 176 170 170 165 160 157 161 158 156 155 151 149 151 156 158 160 166 166 173 172 174 177 175 174 173 168 171 169 159 145 124 119 113 104 97 102 115 126 119 105 115 130 132 128 133 134 137 139 145 135 137 130 131 125 136 144 140 137 118 120 119 123 
115 115 121 115 110 114 116 118 113 116 121 108 103 181 194 181 157 126 114 113 104 98 96 104 115 133 154 165 168 169 172 171 172 172 170 162 167 171 168 171 169 171 174 173 168 173 180 180 175 179 177 176 175 174 171 166 162 163 146 121 110 106 91 93 99 114 132 134 129 112 125 134 127 129 126 133 127 136 135 130 127 127 128 127 147 153 136 133 113 120 120 118 
112 116 114 113 114 119 118 118 112 115 119 110 115 184 185 174 148 135 118 110 109 102 96 93 103 105 132 156 162 168 163 173 177 171 171 165 168 165 167 170 165 166 173 169 173 173 174 172 171 170 171 169 168 161 161 150 155 138 112 102 90 91 86 95 105 132 151 143 136 114 125 128 124 122 133 124 124 131 130 125 123 124 126 135 157 143 133 127 114 122 122 107 
99 117 119 117 113 113 118 110 111 119 122 120 133 180 175 164 148 132 126 115 106 107 100 97 96 94 110 133 149 160 160 165 172 168 165 167 163 162 158 160 157 158 159 160 163 168 167 166 164 160 164 162 158 151 144 138 129 111 89 89 83 87 88 106 123 154 157 152 142 118 125 121 126 121 126 125 130 125 124 126 119 129 128 147 150 135 130 126 113 126 111 107 
108 112 118 117 115 112 113 111 109 123 115 136 139 168 160 158 150 131 128 122 111 107 104 105 100 91 97 108 122 141 154 160 169 166 167 165 159 156 154 153 153 149 149 152 155 156 158 154 153 152 149 153 143 135 131 123 96 85 77 83 84 88 100 122 151 164 168 152 134 118 127 123 127 124 128 124 131 122 125 124 123 131 139 149 138 131 127 120 117 118 110 110 
117 116 118 114 113 113 111 116 119 125 133 126 130 155 162 151 150 131 126 124 120 109 103 102 102 95 100 91 99 120 129 148 159 157 164 155 159 155 151 143 147 144 142 142 144 148 140 144 141 141 135 135 127 123 109 94 74 80 82 87 92 100 115 145 164 179 168 134 113 127 125 125 123 130 125 123 128 124 121 127 135 133 137 139 131 126 120 120 112 119 111 108 
115 119 119 119 105 112 112 121 129 129 126 126 126 147 153 144 151 133 129 123 117 113 115 101 112 97 101 99 90 102 106 119 138 145 152 151 144 153 146 141 142 137 134 142 138 141 133 136 138 134 125 121 112 104 80 73 78 83 90 91 100 113 129 154 177 189 158 115 120 128 130 122 128 125 128 123 126 122 133 139 136 135 131 132 125 121 117 115 116 114 111 102 
